<svg xmlns="http://www.w3.org/2000/svg" width="34.212" height="43.464" viewBox="0 0 34.212 43.464">
  <g id="noun-career-1549879" transform="translate(-99.295 -16.732)">
    <path id="Tracé_1624" data-name="Tracé 1624" d="M171.794,16.737a.923.923,0,0,0-.549.26l-3.7,3.7a.925.925,0,1,0,1.3,1.315L171,19.858v6.588a.925.925,0,1,0,1.849,0v-6.53l2.095,2.095a.925.925,0,1,0,1.3-1.315l-3.7-3.7a.924.924,0,0,0-.751-.26Zm-4.118,12.945a.925.925,0,0,0-.838.925V59.271a.925.925,0,0,0,.925.925h8.322a.925.925,0,0,0,.925-.925V30.607a.925.925,0,0,0-.925-.925h-8.322a.779.779,0,0,0-.087,0Zm1.011,1.849h6.473V58.346h-6.473Zm-13.032,4.161a.925.925,0,0,0-.838.925V59.271a.925.925,0,0,0,.925.925h8.322a.925.925,0,0,0,.925-.925V36.617a.925.925,0,0,0-.925-.925h-8.322c-.029,0-.058,0-.087,0Zm1.011,1.849h6.472v20.8h-6.472Zm-8.784,1.387a4.154,4.154,0,0,0-1.994,7.8,5.109,5.109,0,0,0-3.092,4.7v7.845a.925.925,0,0,0,.925.925h8.322a.925.925,0,0,0,.925-.925V51.426a5.109,5.109,0,0,0-3.092-4.7,4.154,4.154,0,0,0-1.994-7.8Zm0,1.849a2.312,2.312,0,1,1-2.312,2.312A2.3,2.3,0,0,1,147.883,40.778Zm0,7.4a3.215,3.215,0,0,1,3.236,3.251v6.92h-6.473v-6.92a3.214,3.214,0,0,1,3.236-3.251Z" transform="translate(-43.503 0)" fill="#98984b"/>
  </g>
</svg>
