<svg xmlns="http://www.w3.org/2000/svg" width="40.328" height="37.003" viewBox="0 0 40.328 37.003">
  <g id="noun-job-5286206" transform="translate(-72.607 -46.14)">
    <path id="Tracé_1625" data-name="Tracé 1625" d="M106.333,52.2H96.008a.762.762,0,0,0-.762.762V82.381a.762.762,0,0,0,.762.762h38.8a.762.762,0,0,0,.762-.762V52.964a.762.762,0,0,0-.762-.762H124.487V49.41a3.269,3.269,0,0,0-3.27-3.27H109.6a3.269,3.269,0,0,0-3.27,3.27ZM134.05,64.807a8.161,8.161,0,0,1-6.592,3.417l-6.736.045v4.278a.762.762,0,0,1-.762.762h-9.1a.762.762,0,0,1-.762-.762V68.34l-6.627.044a8.172,8.172,0,0,1-6.7-3.418V81.618h37.28V64.807ZM119.2,68.279l-7.575.051v3.456H119.2ZM134.05,53.725H96.77v6.489a6.647,6.647,0,0,0,6.691,6.647l23.986-.16a6.646,6.646,0,0,0,6.6-6.647V53.725ZM122.964,52.2V49.409a1.745,1.745,0,0,0-1.745-1.745H109.6a1.745,1.745,0,0,0-1.745,1.745V52.2h15.106Z" transform="translate(-22.639 0)" fill="#98984b" fill-rule="evenodd"/>
  </g>
</svg>
