<svg xmlns="http://www.w3.org/2000/svg" width="61.419" height="40.307" viewBox="0 0 61.419 40.307">
  <g id="Groupe_1921" data-name="Groupe 1921" transform="translate(948.656 602)">
    <path id="Tracé_1651" data-name="Tracé 1651" d="M130.459,96.25H93.992a.959.959,0,0,0-.96.96v3.839a.959.959,0,0,0,.96.96h.96v13.957a3.793,3.793,0,0,0-1.919-.522H83.884a5.758,5.758,0,1,0-7.843.686A9.61,9.61,0,0,0,70,125.04V135.6a.959.959,0,0,0,.96.96H84.4a.959.959,0,0,0,.96-.96V123.121h7.613a3.944,3.944,0,0,0,1.984-.543v5.342a.959.959,0,0,0,.96.96h15.355v2.085a2.879,2.879,0,1,0,1.919,0v-2.085H128.54a.959.959,0,0,0,.96-.96V102.008h.96a.959.959,0,0,0,.96-.96V97.21a.959.959,0,0,0-.96-.96ZM75.758,111.6a3.839,3.839,0,1,1,3.839,3.839A3.842,3.842,0,0,1,75.758,111.6Zm18.644,8.99a2.025,2.025,0,0,1-1.435.607H84.395a.959.959,0,0,0-.96.96v12.476H71.919v-9.6a7.686,7.686,0,0,1,7.677-7.677H93.032a1.929,1.929,0,0,1,1.919,1.882A1.874,1.874,0,0,1,94.4,120.6Zm17.824,14.043a.96.96,0,1,1,.96-.96A.961.961,0,0,1,112.226,134.637Zm15.355-7.677H96.871V102.009h30.71Zm1.919-26.871H94.952V98.17H129.5Z" transform="translate(-1018.656 -698.25)" fill="#98984b"/>
    <path id="Tracé_1652" data-name="Tracé 1652" d="M371.495,182.886l1.129.651a7.642,7.642,0,0,0,0,2.13l-1.129.651a.959.959,0,0,0-.437,1.114,9.555,9.555,0,0,0,2.133,3.693.959.959,0,0,0,1.184.179l1.13-.652a7.717,7.717,0,0,0,1.844,1.066v1.3a.96.96,0,0,0,.746.936,9.549,9.549,0,0,0,4.265,0,.96.96,0,0,0,.746-.936v-1.3a7.73,7.73,0,0,0,1.844-1.066l1.13.652a.96.96,0,0,0,1.184-.179,9.555,9.555,0,0,0,2.133-3.693.96.96,0,0,0-.437-1.114l-1.129-.651a7.645,7.645,0,0,0,0-2.13l1.129-.651a.959.959,0,0,0,.437-1.114,9.556,9.556,0,0,0-2.133-3.693.961.961,0,0,0-1.184-.179l-1.13.652a7.716,7.716,0,0,0-1.844-1.066v-1.3a.96.96,0,0,0-.746-.936,9.622,9.622,0,0,0-4.266,0,.96.96,0,0,0-.746.936v1.3a7.728,7.728,0,0,0-1.844,1.066l-1.13-.652a.96.96,0,0,0-1.184.179,9.556,9.556,0,0,0-2.133,3.693.96.96,0,0,0,.437,1.114Zm3.131,3.052a5.746,5.746,0,0,1,0-2.67.958.958,0,0,0-.453-1.052l-1.021-.59a7.665,7.665,0,0,1,.427-.861,7.562,7.562,0,0,1,.533-.8l1.023.59a.958.958,0,0,0,1.14-.135,5.76,5.76,0,0,1,2.309-1.335.961.961,0,0,0,.686-.92v-1.179a7.654,7.654,0,0,1,1.919,0v1.179a.961.961,0,0,0,.686.92,5.788,5.788,0,0,1,2.309,1.335.961.961,0,0,0,1.14.135l1.023-.59a7.505,7.505,0,0,1,.533.8,7.805,7.805,0,0,1,.427.861l-1.021.59a.958.958,0,0,0-.453,1.052,5.746,5.746,0,0,1,0,2.67.958.958,0,0,0,.453,1.052l1.021.59a7.659,7.659,0,0,1-.427.861,7.561,7.561,0,0,1-.533.8l-1.023-.59a.958.958,0,0,0-1.14.135,5.759,5.759,0,0,1-2.309,1.335.961.961,0,0,0-.686.92v1.179a7.652,7.652,0,0,1-1.919,0v-1.179a.961.961,0,0,0-.686-.92,5.778,5.778,0,0,1-2.309-1.335.963.963,0,0,0-1.14-.135l-1.023.59a7.582,7.582,0,0,1-.533-.8,7.812,7.812,0,0,1-.427-.861l1.021-.59a.958.958,0,0,0,.453-1.052Z" transform="translate(-1286.656 -768.369)" fill="#98984b"/>
    <path id="Tracé_1653" data-name="Tracé 1653" d="M423.839,235.177A3.839,3.839,0,1,0,420,231.339,3.843,3.843,0,0,0,423.839,235.177Zm0-5.758a1.919,1.919,0,1,1-1.919,1.919A1.922,1.922,0,0,1,423.839,229.419Z" transform="translate(-1330.269 -815.105)" fill="#98984b"/>
  </g>
</svg>
