<svg xmlns="http://www.w3.org/2000/svg" width="35.974" height="43.072" viewBox="0 0 35.974 43.072">
  <g id="noun-flag-1053312" transform="translate(-147.274 -29.603)">
    <path id="Tracé_617" data-name="Tracé 617" d="M147.529,30.67V72.676c-1.63,0,5.149-.006,3.152,0V54.521a15.614,15.614,0,0,1,5.778-1.281c5.214,0,10.135,3.1,16.267,3.152a17.959,17.959,0,0,0,9.766-2.856,1.576,1.576,0,0,0,.755-1.346V32.23a1.576,1.576,0,0,0-2.4-1.346,15.033,15.033,0,0,1-8.092,2.4,24.414,24.414,0,0,1-7.633-1.773,25.984,25.984,0,0,0-8.667-1.9,18.332,18.332,0,0,0-5.778,1.067C150.689,29.7,147.529,30.67,147.529,30.67Zm8.93,2.085a23.518,23.518,0,0,1,7.633,1.724,26.829,26.829,0,0,0,8.634,1.953,17.594,17.594,0,0,0,7.371-1.608V51.238a14.262,14.262,0,0,1-7.338,2c-4.976-.045-9.958-3.151-16.3-3.151a17.625,17.625,0,0,0-5.778,1.067V34.035a16.909,16.909,0,0,1,5.778-1.28Z" fill="#98984b"/>
  </g>
</svg>
