<svg xmlns="http://www.w3.org/2000/svg" width="39.148" height="39.148" viewBox="0 0 39.148 39.148">
  <g id="Groupe_1919" data-name="Groupe 1919" transform="translate(-630.5 -182.801)">
    <path id="Path" d="M4.132,16.886h8.622c2.806,0,4.132-1.611,4.132-5.06V5.041C16.886,1.592,15.56,0,12.754,0H4.132C1.325,0,0,1.592,0,5.041v6.785C0,15.275,1.325,16.886,4.132,16.886Z" transform="translate(631.5 183.801)" fill="none" stroke="#98984b" stroke-width="2"/>
    <path id="Path-2" data-name="Path" d="M4.132,16.886h8.622c2.806,0,4.132-1.611,4.132-5.06V5.041C16.886,1.592,15.56,0,12.754,0H4.132C1.325,0,0,1.592,0,5.041v6.785C0,15.275,1.325,16.886,4.132,16.886Z" transform="translate(651.763 183.801)" fill="none" stroke="#98984b" stroke-width="2"/>
    <path id="Path-3" data-name="Path" d="M4.132,16.886h8.622c2.806,0,4.132-1.611,4.132-5.06V5.041C16.886,1.592,15.56,0,12.754,0H4.132C1.325,0,0,1.592,0,5.041v6.785C0,15.275,1.325,16.886,4.132,16.886Z" transform="translate(631.5 204.064)" fill="none" stroke="#98984b" stroke-width="2"/>
    <path id="Path-4" data-name="Path" d="M4.132,16.886h8.622c2.806,0,4.132-1.611,4.132-5.06V5.041C16.886,1.592,15.56,0,12.754,0H4.132C1.325,0,0,1.592,0,5.041v6.785C0,15.275,1.325,16.886,4.132,16.886Z" transform="translate(651.763 204.064)" fill="none" stroke="#98984b" stroke-width="2"/>
  </g>
</svg>
