<svg xmlns="http://www.w3.org/2000/svg" width="47.78" height="36.631" viewBox="0 0 47.78 36.631">
  <g id="noun-follow-3385307" transform="translate(-76.347 -78.75)">
    <path id="Tracé_1641" data-name="Tracé 1641" d="M241.038,160.852a.8.8,0,0,0,.8-.8v-.8a3.185,3.185,0,0,0-2.142-2.994,3.13,3.13,0,0,0,.55-1.784,3.185,3.185,0,0,0-3.185-3.185,2.94,2.94,0,0,0-.741.1,3.982,3.982,0,1,0-6.371,4.778,3.185,3.185,0,0,0-2.445,3.09v2.389a.8.8,0,1,0,1.593,0v-2.389a1.592,1.592,0,0,1,1.593-1.593h4.778a1.592,1.592,0,0,1,1.593,1.593v2.389a.8.8,0,1,0,1.593,0v-2.389a3.116,3.116,0,0,0-.446-1.593h.446a1.592,1.592,0,0,1,1.593,1.593v.8a.8.8,0,0,0,.8.8Zm-2.389-6.371a1.585,1.585,0,0,1-2.277,1.433,3.985,3.985,0,0,0,.685-2.23,4.077,4.077,0,0,0-.08-.8,1.592,1.592,0,0,1,1.672,1.593Zm-5.574-3.185a2.389,2.389,0,0,1,2.182,1.426,2.443,2.443,0,0,1,.207.963,2.4,2.4,0,1,1-2.389-2.389Z" transform="translate(-138.412 -64.583)" fill="#98984b"/>
    <path id="Tracé_1643" data-name="Tracé 1643" d="M220.372,123.306a.8.8,0,0,0,.8-.8v-6.371a2.389,2.389,0,0,0-2.389-2.389H194.89a2.389,2.389,0,0,0-2.389,2.389v14.334a2.389,2.389,0,0,0,2.389,2.389h17.989l4.539,4.547a.8.8,0,0,0,.565.231.668.668,0,0,0,.3-.064.8.8,0,0,0,.494-.733v-3.982a2.389,2.389,0,0,0,2.389-2.389V125.7a.8.8,0,0,0-1.593,0v4.778a.8.8,0,0,1-.8.8h-.8a.8.8,0,0,0-.8.8v2.859L213.77,131.5a.8.8,0,0,0-.565-.231H194.89a.8.8,0,0,1-.8-.8V116.139a.8.8,0,0,1,.8-.8h23.89a.8.8,0,0,1,.8.8v6.371a.8.8,0,0,0,.8.8Z" transform="translate(-106.598 -31.815)" fill="#98984b"/>
    <path id="Tracé_1644" data-name="Tracé 1644" d="M134.483,290.352H93.074V280.8a.8.8,0,1,0-1.593,0v9.556H88.3a.8.8,0,0,0-.8.8v1.593a5.575,5.575,0,0,0,5.574,5.574H117.76a.8.8,0,1,0,0-1.593H93.074a3.981,3.981,0,0,1-3.982-3.982v-.8h44.594v.8a3.981,3.981,0,0,1-3.982,3.982h-8.76a.8.8,0,0,0,0,1.593h8.76a5.575,5.575,0,0,0,5.574-5.574v-1.593a.8.8,0,0,0-.8-.8Z" transform="translate(-11.153 -182.934)" fill="#98984b"/>
    <path id="Tracé_1645" data-name="Tracé 1645" d="M132.045,95.473a.8.8,0,0,0,.8-.8V82.732a2.389,2.389,0,0,1,2.389-2.389h31.853a2.389,2.389,0,0,1,2.389,2.389v22.3a.8.8,0,0,0,1.593,0v-22.3a3.981,3.981,0,0,0-3.982-3.982H135.231a3.981,3.981,0,0,0-3.982,3.982V94.677a.8.8,0,0,0,.8.8Z" transform="translate(-50.92)" fill="#98984b"/>
    <path id="Tracé_1650" data-name="Tracé 1650" d="M272.046,428.75a.8.8,0,0,0,0,1.593h12.741a.8.8,0,1,0,0-1.593Z" transform="translate(-178.18 -318.147)" fill="#98984b"/>
  </g>
</svg>
