<svg xmlns="http://www.w3.org/2000/svg" width="33.879" height="42.239" viewBox="0 0 33.879 42.239">
  <path id="Icon_simple-gumtree" data-name="Icon simple-gumtree" d="M32.522,11.475a1.169,1.169,0,0,1-.554-1,11.523,11.523,0,0,0-22.951,0,1.174,1.174,0,0,1-.553,1,11.552,11.552,0,0,0,3.673,20.608,3.151,3.151,0,0,0,2.006.107c.667-.331,1.338-3.224,1-3.895a3.792,3.792,0,0,0-1.785-.891A6.813,6.813,0,0,1,8.35,20.835a6.7,6.7,0,0,1,1.785-4.576A6.262,6.262,0,0,1,11.8,14.927a3.944,3.944,0,0,0,2.006-3.457,6.408,6.408,0,0,1,.333-2.114,6.8,6.8,0,0,1,12.922,0A6.408,6.408,0,0,1,27.4,11.47a3.712,3.712,0,0,0,2.01,3.437,4.68,4.68,0,0,1,1.665,1.324A6.647,6.647,0,0,1,32.856,20.8a6.756,6.756,0,0,1-6.794,6.8,7.8,7.8,0,0,0-7.8,7.772v4.441a4.153,4.153,0,0,0,.334,2.01c.554.556,3.453.556,4.009,0a3.864,3.864,0,0,0,.343-2.01V35.266a3.014,3.014,0,0,1,3.015-3.015,11.448,11.448,0,0,0,6.582-20.833l-.026.058Z" transform="translate(-3.563)" fill="#98984b"/>
</svg>
