<svg xmlns="http://www.w3.org/2000/svg" width="26.846" height="33.953" viewBox="0 0 26.846 33.953">
  <g id="noun-identity-3108997" transform="translate(-87.023 -23.332)">
    <path id="Tracé_1655" data-name="Tracé 1655" d="M295.616,217.9a3.948,3.948,0,1,0-2.792-1.156A3.948,3.948,0,0,0,295.616,217.9Zm0-6.317h0a2.369,2.369,0,1,1-1.675.694,2.369,2.369,0,0,1,1.675-.694Z" transform="translate(-195.169 -174.036)" fill="#98984b"/>
    <path id="Tracé_1656" data-name="Tracé 1656" d="M255.267,338.33H248.95A3.948,3.948,0,0,0,245,342.278v1.579a.79.79,0,1,0,1.579,0v-1.579a2.369,2.369,0,0,1,2.369-2.369h6.317a2.369,2.369,0,0,1,2.369,2.369v1.579a.79.79,0,1,0,1.579,0v-1.579a3.948,3.948,0,0,0-3.948-3.948Z" transform="translate(-151.662 -293.679)" fill="#98984b"/>
    <path id="Tracé_1657" data-name="Tracé 1657" d="M174.566,27.28H168.25V25.7a2.369,2.369,0,0,0-2.369-2.369H164.3a2.369,2.369,0,0,0-2.369,2.369V27.28h-6.317a3.948,3.948,0,0,0-3.948,3.948V53.337a3.948,3.948,0,0,0,3.948,3.948h18.951a3.948,3.948,0,0,0,3.948-3.948V31.228a3.948,3.948,0,0,0-3.948-3.948ZM163.512,25.7a.789.789,0,0,1,.789-.789h1.579a.789.789,0,0,1,.789.789v4.738a.789.789,0,0,1-.789.79H164.3a.79.79,0,0,1-.789-.79Zm13.423,27.637a2.369,2.369,0,0,1-2.369,2.369H155.616a2.369,2.369,0,0,1-2.369-2.369V31.228a2.369,2.369,0,0,1,2.369-2.369h6.317v1.579a2.369,2.369,0,0,0,2.369,2.369h1.579a2.369,2.369,0,0,0,2.369-2.369V28.859h6.317a2.369,2.369,0,0,1,2.369,2.369Z" transform="translate(-64.645)" fill="#98984b"/>
  </g>
</svg>
