<svg xmlns="http://www.w3.org/2000/svg" xmlns:xlink="http://www.w3.org/1999/xlink" width="33.001" height="46" viewBox="0 0 33.001 46">
  <defs>
    <clipPath id="clip-path">
      <path id="Icon" d="M11.633,44a11.8,11.8,0,0,1-8.225-3.271A10.874,10.874,0,0,1,0,32.833V8.446a1.745,1.745,0,1,1,3.489,0v13.3a.873.873,0,0,0,1.745,0V3.153a2.036,2.036,0,1,1,4.072,0V20.625a.873.873,0,0,0,1.745,0V2.036a2.035,2.035,0,1,1,4.071,0V21.183a.873.873,0,1,0,1.745,0V4.828a2.036,2.036,0,1,1,4.072,0V23.116c0,1.816,0,3.016,1.279,3.016.612,0,1.03-.877,1.558-1.988a8.018,8.018,0,0,1,2.4-3.373,6.227,6.227,0,0,1,3.31-1.048c.908,0,1.518.286,1.518.712,0,.3-.44.877-1.1,1.755A24.844,24.844,0,0,0,25.358,30.6a26.6,26.6,0,0,1-3.576,7.693A11.748,11.748,0,0,1,11.633,44Z" transform="translate(0 0)" fill="none" stroke="#98984b" stroke-width="2"/>
    </clipPath>
  </defs>
  <g id="Groupe_1917" data-name="Groupe 1917" transform="translate(-6 -3.056)">
    <path id="Icon-2" data-name="Icon" d="M11.633,44a11.8,11.8,0,0,1-8.225-3.271A10.874,10.874,0,0,1,0,32.833V8.446a1.745,1.745,0,1,1,3.489,0v13.3a.873.873,0,0,0,1.745,0V3.153a2.036,2.036,0,1,1,4.072,0V20.625a.873.873,0,0,0,1.745,0V2.036a2.035,2.035,0,1,1,4.071,0V21.183a.873.873,0,1,0,1.745,0V4.828a2.036,2.036,0,1,1,4.072,0V23.116c0,1.816,0,3.016,1.279,3.016.612,0,1.03-.877,1.558-1.988a8.018,8.018,0,0,1,2.4-3.373,6.227,6.227,0,0,1,3.31-1.048c.908,0,1.518.286,1.518.712,0,.3-.44.877-1.1,1.755A24.844,24.844,0,0,0,25.358,30.6a26.6,26.6,0,0,1-3.576,7.693A11.748,11.748,0,0,1,11.633,44Z" transform="translate(7 4.056)" fill="none" stroke="#98984b" stroke-width="2"/>
  </g>
</svg>
