<svg xmlns="http://www.w3.org/2000/svg" xmlns:xlink="http://www.w3.org/1999/xlink" width="38" height="38" viewBox="0 0 38 38">
  <defs>
    <clipPath id="clip-path">
      <path id="Icon" d="M19,38A19,19,0,1,1,38,19,19.022,19.022,0,0,1,19,38ZM19,3.167A15.833,15.833,0,1,0,34.833,19,15.851,15.851,0,0,0,19,3.167Zm3.8,25.992H15.833v-.87h1.742V15.227H15.833v-.87h5.225V28.289H22.8v.87ZM18.882,11.744a2.177,2.177,0,1,1,2.176-2.177A2.18,2.18,0,0,1,18.882,11.744Z" fill="#98984b"/>
    </clipPath>
  </defs>
  <g id="Groupe_1918" data-name="Groupe 1918" transform="translate(-3 -3)">
    <path id="Icon-2" data-name="Icon" d="M19,38A19,19,0,1,1,38,19,19.022,19.022,0,0,1,19,38ZM19,3.167A15.833,15.833,0,1,0,34.833,19,15.851,15.851,0,0,0,19,3.167Zm3.8,25.992H15.833v-.87h1.742V15.227H15.833v-.87h5.225V28.289H22.8v.87ZM18.882,11.744a2.177,2.177,0,1,1,2.176-2.177A2.18,2.18,0,0,1,18.882,11.744Z" transform="translate(3 3)" fill="#98984b"/>
  </g>
</svg>
