<svg xmlns="http://www.w3.org/2000/svg" width="42.925" height="42.925" viewBox="0 0 42.925 42.925">
  <path id="Icon_material-photo-library" data-name="Icon material-photo-library" d="M45.925,33.048V7.293A4.305,4.305,0,0,0,41.633,3H15.878a4.305,4.305,0,0,0-4.293,4.293V33.048a4.305,4.305,0,0,0,4.293,4.293H41.633A4.305,4.305,0,0,0,45.925,33.048ZM22.316,24.463l4.357,5.816,6.374-7.963,8.585,10.731H15.878ZM3,11.585V41.633a4.305,4.305,0,0,0,4.293,4.292H37.34V41.633H7.293V11.585Z" transform="translate(-3 -3)" fill="#98984b"/>
</svg>
