<?xml version="1.0" encoding="UTF-8" standalone="no"?>
<svg
   xmlns:dc="http://purl.org/dc/elements/1.1/"
   xmlns:cc="http://creativecommons.org/ns#"
   xmlns:rdf="http://www.w3.org/1999/02/22-rdf-syntax-ns#"
   xmlns:svg="http://www.w3.org/2000/svg"
   xmlns="http://www.w3.org/2000/svg"
   xmlns:sodipodi="http://sodipodi.sourceforge.net/DTD/sodipodi-0.dtd"
   xmlns:inkscape="http://www.inkscape.org/namespaces/inkscape"
   width="98"
   height="98"
   xml:space="preserve"
   overflow="hidden"
   version="1.1"
   id="svg13"
   sodipodi:docname="Image2.svg"
   inkscape:version="1.0.1 (3bc2e813f5, 2020-09-07)"><metadata
     id="metadata17"><rdf:RDF><cc:Work
         rdf:about=""><dc:format>image/svg+xml</dc:format><dc:type
           rdf:resource="http://purl.org/dc/dcmitype/StillImage" /></cc:Work></rdf:RDF></metadata><sodipodi:namedview
     pagecolor="#ffffff"
     bordercolor="#666666"
     borderopacity="1"
     objecttolerance="10"
     gridtolerance="10"
     guidetolerance="10"
     inkscape:pageopacity="0"
     inkscape:pageshadow="2"
     inkscape:window-width="1360"
     inkscape:window-height="745"
     id="namedview15"
     showgrid="false"
     inkscape:zoom="4"
     inkscape:cx="47.560536"
     inkscape:cy="31.551734"
     inkscape:window-x="-8"
     inkscape:window-y="-8"
     inkscape:window-maximized="1"
     inkscape:current-layer="g11" /><defs
     id="defs5"><clipPath
       id="clip0"><rect
         x="975"
         y="0"
         width="98"
         height="98"
         id="rect2" /></clipPath></defs><g
     clip-path="url(#clip0)"
     transform="translate(-975 0)"
     id="g11"><path
       id="path7"
       d="m 71.800781,18.380857 c 0.519509,-5.763191 10.541459,-7.346698 12.870117,-3.052369 2.224566,4.258098 1.924418,9.484707 -3.129733,11.09414 -4.700597,1.123297 -10.267928,-2.18945 -9.740384,-8.041771 z m 26.391621,30.468748 -0.176777,-40.4824175 -8,-8.09765625 L 80.34375,0.03125 49.669922,0 3.2792969,47.888672 c -2.05,2.0422 -3.15212502,4.723897 -3.20312503,7.404297 -0.076999995,2.8846 1.00012503,5.76739 3.20312503,7.96289 L 34.970703,94.808594 c 2.05,2.0422 5.319141,3.191406 7.369141,3.191406 2.05,0 6.017558,-0.996006 8.227558,-3.191406 l 31.009304,-29.33006 z"
       transform="translate(975)"
       sodipodi:nodetypes="sccscccccccccsccc"
       style="fill:#606060;fill-opacity:1" /></g></svg>
