<svg xmlns="http://www.w3.org/2000/svg" width="40.299" height="40.299" viewBox="0 0 40.299 40.299">
  <path id="Icon_awesome-microscope" data-name="Icon awesome-microscope" d="M12.593,25.187h.945v1.259A1.259,1.259,0,0,0,14.8,27.706h3.148a1.259,1.259,0,0,0,1.259-1.259V25.187h.945a2.519,2.519,0,0,0,2.519-2.519V5.037A2.519,2.519,0,0,0,20.15,2.519V1.259A1.259,1.259,0,0,0,18.89,0H13.853a1.259,1.259,0,0,0-1.259,1.259V2.519a2.519,2.519,0,0,0-2.519,2.519V22.668A2.519,2.519,0,0,0,12.593,25.187ZM36.521,35.262h-.1A15.087,15.087,0,0,0,25.187,10.075v5.037a10.075,10.075,0,1,1,0,20.15H3.778A3.778,3.778,0,0,0,0,39.04,1.259,1.259,0,0,0,1.259,40.3H39.04A1.259,1.259,0,0,0,40.3,39.04,3.778,3.778,0,0,0,36.521,35.262ZM8.186,32.743H24.557a.63.63,0,0,0,.63-.63V30.854a.629.629,0,0,0-.63-.63H8.186a.629.629,0,0,0-.63.63v1.259A.63.63,0,0,0,8.186,32.743Z" fill="#98984b"/>
</svg>
