<svg xmlns="http://www.w3.org/2000/svg" width="35.378" height="44.696" viewBox="0 0 35.378 44.696">
  <g id="noun-business-partners-4116319" transform="translate(-92.931 -28)">
    <path id="Tracé_1633" data-name="Tracé 1633" d="M171.172,36.753a5.412,5.412,0,1,1-2.153-1.687l-.9,1.2a3.973,3.973,0,1,0,2.721,3.769,3.916,3.916,0,0,0-.582-2.064l-3.3,4.415-3.089-2.914.993-1.051,1.907,1.8,4.162-5.584,1.158.867Zm14.737.174V72.7H153.29v-2.76h-2.759V28h26.293l6.324,6.324V69.936h-28.3v1.2h29.5V36.927ZM177.1,33.982H180.6L177.1,30.476Zm4.492,34.395V58.151h-2.753l-3.995,1.362-6.217-6.374-3.116-1.084-1.357,1.088a2.23,2.23,0,0,1-3.062-.258l-.087-.1,3.57-2.868a1.3,1.3,0,0,1,.81-.284h5.565a2.885,2.885,0,0,1,1.811.641l1.067.863h7.766V35.541h-6.052V29.559H152.09V50.633h10.388l-2.565,2.06.613.69a2.979,2.979,0,0,0,4.094.346l1.032-.827,2.558.89,6.774,6.936a.824.824,0,0,1-.03,1.179l-.082.077a.824.824,0,0,1-1.151-.031L170,58.12a.375.375,0,1,0-.539.522l3.076,3.172a.822.822,0,0,1-.017,1.163l-.077.075a.823.823,0,0,1-1.163-.016l-3.113-3.2a.376.376,0,0,0-.54.524l2.455,2.53a.821.821,0,0,1-.016,1.163l-.079.077a.826.826,0,0,1-1.165-.016l-2.478-2.546a.377.377,0,0,0-.546.007.389.389,0,0,0,.023.532l1.449,1.491a.823.823,0,0,1-1.058,1.25l-10.41-7.2h-3.717V68.377h29.5Z" transform="translate(-57.6)" fill="#98984b"/>
  </g>
</svg>
