<svg xmlns="http://www.w3.org/2000/svg" width="55.499" height="35.318" viewBox="0 0 55.499 35.318">
  <path id="Icon_material-people-outline" data-name="Icon material-people-outline" d="M40.6,27.682A30.238,30.238,0,0,0,29.25,30.2,29.758,29.758,0,0,0,17.9,27.682c-5.474,0-16.4,2.725-16.4,8.2v6.937H57V35.88C57,30.406,46.076,27.682,40.6,27.682ZM30.511,39.034H5.284V35.88c0-1.362,6.458-4.415,12.613-4.415s12.613,3.052,12.613,4.415Zm22.7,0H34.3V35.88A4.59,4.59,0,0,0,32.983,32.8,24.338,24.338,0,0,1,40.6,31.466c6.155,0,12.613,3.052,12.613,4.415ZM17.9,25.159a8.829,8.829,0,1,0-8.829-8.829A8.839,8.839,0,0,0,17.9,25.159Zm0-13.875a5.045,5.045,0,1,1-5.045,5.045A5.06,5.06,0,0,1,17.9,11.284ZM40.6,25.159a8.829,8.829,0,1,0-8.829-8.829A8.839,8.839,0,0,0,40.6,25.159Zm0-13.875a5.045,5.045,0,1,1-5.045,5.045A5.06,5.06,0,0,1,40.6,11.284Z" transform="translate(-1.5 -7.5)" fill="#98984b"/>
</svg>
