<svg xmlns="http://www.w3.org/2000/svg" width="37.252" height="37.749" viewBox="0 0 37.252 37.749">
  <g id="Groupe_1923" data-name="Groupe 1923" transform="translate(2273.74 599.886)">
    <path id="Tracé_1585" data-name="Tracé 1585" d="M105.482,5.528a18.452,18.452,0,0,0-26.341,0,19.052,19.052,0,0,0,0,26.692,18.452,18.452,0,0,0,26.341,0,19.052,19.052,0,0,0,0-26.692Zm-4.441,2.584.819-3.447a17.252,17.252,0,0,1,6.8,9.581l-.429.084a1.694,1.694,0,0,0-1.313,1.262l-.166.68a.019.019,0,0,1-.015.017.019.019,0,0,1-.022,0l-.994-.755a1.669,1.669,0,0,0-1.787-.146l-1.24.658a1.711,1.711,0,0,0,.189,3.1l.059.022a.019.019,0,0,1,.015.017.019.019,0,0,1-.005.022l-.773.9a.024.024,0,0,1-.031,0l-2.082-1.361a1.655,1.655,0,0,0-1.592-.126,1.694,1.694,0,0,0-.976,1.281l-.161.995a1.712,1.712,0,0,0,.51,1.518l1.086,1.03a.025.025,0,0,1,0,.031L97.163,26.2a1.72,1.72,0,0,0-.276.869l-.154,3.892a.025.025,0,0,1-.007.016l-2.357,2.341a.024.024,0,0,1-.029,0l-1.529-.907a.025.025,0,0,1-.011-.016s-.742-3.409-.769-3.485l-.674-1.833a1.691,1.691,0,0,0-1.428-1.1L86.843,25.7a.023.023,0,0,1-.019-.012L85.07,22.624a.024.024,0,0,1,0-.016l.441-2.974a.024.024,0,0,1,.009-.016l2.695-2.06a.025.025,0,0,1,.024,0l2.611,1.1a1.664,1.664,0,0,0,.465.121l3.616.4a1.66,1.66,0,0,0,1.16-.309l2.4-1.74a1.722,1.722,0,0,0,.555-2.078l-.222-.5a1.674,1.674,0,0,0-1.442-1.005l-6.729-.373-.01,0-.011-.007a.05.05,0,0,1,0-.032l.013-.005,2.02-.552a1.681,1.681,0,0,0,.716-.406L95.848,9.8a.023.023,0,0,1,.014-.007l3.718-.388a1.689,1.689,0,0,0,1.461-1.295ZM88.447,6.727l1.39-2.651a1.94,1.94,0,0,0,.182-1.282l-.189-.932a16.809,16.809,0,0,1,4.984,0,2.522,2.522,0,0,1-.234.235l-1.969.8a1.9,1.9,0,0,0-.731.532L88.813,7.064a.23.23,0,0,1-.352,0,.335.335,0,0,1-.014-.337Zm-7.236-.85V8.395a2.066,2.066,0,0,1-.93,1.733L78.5,11.3a3.7,3.7,0,0,0-1.04,1.03l-1.618,2.4a17.257,17.257,0,0,1,5.37-8.854Zm1.082,24.763-.235,1.927a17.261,17.261,0,0,1-5.8-8.12H77.31a.376.376,0,0,1,.318.176l2.13,3.363a2.063,2.063,0,0,0,.341.409l2.072,1.915a.385.385,0,0,1,.121.329Zm10.019,5.431A16.7,16.7,0,0,1,83.6,33.626l.338-2.78a2.079,2.079,0,0,0-.648-1.774s-2.118-1.963-2.136-1.991l-2.13-3.363a2.017,2.017,0,0,0-1.711-.948H75.78a17.408,17.408,0,0,1-.439-3.9q0-.217.005-.432l3.479-5.166a2.033,2.033,0,0,1,.575-.57l1.782-1.171a3.743,3.743,0,0,0,1.684-3.141v-3.8a16.787,16.787,0,0,1,5.34-2.407l.191.944a.24.24,0,0,1-.023.157L86.984,5.94a4.189,4.189,0,0,0-.2.6A1.919,1.919,0,0,0,87.2,8.157a1.865,1.865,0,0,0,1.431.668,1.887,1.887,0,0,0,1.436-.669l3.067-3.633a.233.233,0,0,1,.09-.065l1.968-.8a1.9,1.9,0,0,0,.729-.528l.743-.876a16.726,16.726,0,0,1,3.719,1.5c-.019.045-.956,3.967-.956,3.967a.024.024,0,0,1-.021.018l-3.718.388a1.679,1.679,0,0,0-.981.455l-2.47,2.362a.022.022,0,0,1-.01.006l-2.02.552a1.7,1.7,0,0,0,.345,3.343l6.729.373a.024.024,0,0,1,.021.014l.222.5a.025.025,0,0,1-.008.03l-2.4,1.74a.022.022,0,0,1-.016,0l-3.623-.4-2.611-1.1a1.667,1.667,0,0,0-1.658.212L84.52,18.28a1.7,1.7,0,0,0-.649,1.106l-.442,2.974a1.728,1.728,0,0,0,.208,1.107l1.755,3.067a1.679,1.679,0,0,0,1.307.842l3.085.272a.024.024,0,0,1,.02.016L90.48,29.5l.7,3.255a1.706,1.706,0,0,0,.792,1.1l1.528.907a1.667,1.667,0,0,0,2.025-.253l2.357-2.341a1.706,1.706,0,0,0,.5-1.148l.154-3.892a.026.026,0,0,1,0-.013l1.77-2.719a1.714,1.714,0,0,0-.255-2.18l-1.086-1.03a.025.025,0,0,1-.007-.022l.161-.995a.019.019,0,0,1,.014-.018.019.019,0,0,1,.023,0l2.082,1.362a1.672,1.672,0,0,0,2.178-.313l.773-.9a1.719,1.719,0,0,0,.361-1.534A1.7,1.7,0,0,0,103.52,17.6l-.059-.022-.012-.005a.045.045,0,0,1,0-.032l.011-.007,1.24-.658a.023.023,0,0,1,.025,0l.994.755a1.658,1.658,0,0,0,1.571.242,1.691,1.691,0,0,0,1.067-1.194l.166-.68a.023.023,0,0,1,.019-.018l.484-.094a17.432,17.432,0,0,1,.258,2.99,17.1,17.1,0,0,1-16.971,17.2Z" transform="translate(-2347.426 -599.886)" fill="#98984b"/>
  </g>
</svg>
