<svg xmlns="http://www.w3.org/2000/svg" width="30.954" height="37.633" viewBox="0 0 30.954 37.633">
  <g id="noun-prize-2620888" transform="translate(-77.835 -13.117)">
    <path id="Tracé_1634" data-name="Tracé 1634" d="M160.484,32.428a1.146,1.146,0,0,1-.187-.69l.029-.529a2.065,2.065,0,0,0-1.131-1.956l-.467-.236a1.13,1.13,0,0,1-.5-.5l-.236-.467h0a2.069,2.069,0,0,0-1.956-1.131l-.533.029a1.218,1.218,0,0,1-.687-.182V13.551a.433.433,0,0,0-.455-.434H130.641a.459.459,0,0,0-.485.434V43.024a.476.476,0,0,0,.485.454h18.239v6.81a.465.465,0,0,0,.746.368l3.618-2.756,3.618,2.756a.447.447,0,0,0,.477.046.455.455,0,0,0,.248-.414V40.475a2.055,2.055,0,0,0,.393-.528l.24-.467a1.138,1.138,0,0,1,.506-.5l.468-.236a2.065,2.065,0,0,0,1.131-1.956l-.029-.529a1.148,1.148,0,0,1,.187-.69l.285-.432h0a2.062,2.062,0,0,0,0-2.273Zm-29.4,10.125V14.042h22.809v12.2a2.042,2.042,0,0,0-1.784.234l-.43.285a1.142,1.142,0,0,1-.689.186l-.529-.029h0a2.068,2.068,0,0,0-1.956,1.135l-.083.168H135.265a.462.462,0,1,0,0,.925h12.264l-.233.118a2.069,2.069,0,0,0-1.051,1.27H135.265a.462.462,0,0,0,0,.925h10.913l.016.286a1.154,1.154,0,0,1-.187.693l-.268.408H135.266a.462.462,0,1,0,0,.925H145.4a2.075,2.075,0,0,0,.326,1.375l.008.012H135.265a.462.462,0,1,0,0,.925h10.924a1.131,1.131,0,0,1,.005.181l-.029.532a2.123,2.123,0,0,0,.075.675H135.264a.462.462,0,1,0,0,.925H146.79a1.771,1.771,0,0,0,.5.354l.466.233a1.133,1.133,0,0,1,.5.5l.233.466h0a2.017,2.017,0,0,0,.382.527v2.077Zm18.725-1.544a2.016,2.016,0,0,0,.631.068l.063,0V48.8l-.694.554Zm3.141,5.94L151.423,48.1v-6.97a1.25,1.25,0,0,1,.234.11l.442.285a2.075,2.075,0,0,0,2.28,0l.441-.285a1.161,1.161,0,0,1,.224-.11V48.1l-1.521-1.145a.488.488,0,0,0-.578,0Zm3.717,2.4-.694-.554V41.074l.063,0a1.8,1.8,0,0,0,.631-.069ZM160,34.624l-.285.432a2.079,2.079,0,0,0-.338,1.25l.029.529h0a1.139,1.139,0,0,1-.624,1.08l-.467.236h0a2.049,2.049,0,0,0-.912.912l-.236.466h0a1.138,1.138,0,0,1-1.08.624l-.529-.029h0a2.081,2.081,0,0,0-1.25.338l-.432.285h0a1.138,1.138,0,0,1-1.255,0l-.432-.285a2.081,2.081,0,0,0-1.139-.341c-.037,0-.074,0-.111,0l-.529.029a1.139,1.139,0,0,1-1.08-.624l-.236-.466h0a2.05,2.05,0,0,0-.912-.912l-.466-.236a1.137,1.137,0,0,1-.339-.262.461.461,0,0,0-.048-.058,1.139,1.139,0,0,1-.237-.76l.029-.529a2.079,2.079,0,0,0-.338-1.25l-.285-.432a1.139,1.139,0,0,1,0-1.255l.285-.432h0a2.079,2.079,0,0,0,.338-1.25l-.029-.529a1.141,1.141,0,0,1,.624-1.08l.466-.236h0a2.051,2.051,0,0,0,.912-.912l.236-.467h0a1.14,1.14,0,0,1,1.08-.624l.529.029h0a2.079,2.079,0,0,0,1.25-.338l.432-.285a1.138,1.138,0,0,1,1.255,0l.432.285a2.079,2.079,0,0,0,1.25.338l.529-.029a1.138,1.138,0,0,1,1.08.624l.236.467a2.049,2.049,0,0,0,.912.912l.467.236a1.141,1.141,0,0,1,.624,1.08l-.029.529a2.079,2.079,0,0,0,.338,1.25l.285.432a1.138,1.138,0,0,1,0,1.255Z" transform="translate(-52.321 0)" fill="#98984b"/>
    <path id="Tracé_1635" data-name="Tracé 1635" d="M382.229,228.1a5.741,5.741,0,1,0,4.053,1.682,5.734,5.734,0,0,0-4.053-1.682Zm0,10.545a4.815,4.815,0,1,1,3.4-1.41,4.81,4.81,0,0,1-3.4,1.41Z" transform="translate(-281.305 -199.837)" fill="#98984b"/>
    <path id="Tracé_1636" data-name="Tracé 1636" d="M410.931,260.833l-.88-1.782h0a.462.462,0,0,0-.829,0l-.88,1.782-1.967.286h0a.462.462,0,0,0-.256.788l1.423,1.387-.336,1.959a.463.463,0,0,0,.671.487l1.759-.925,1.759.925a.463.463,0,0,0,.671-.487l-.336-1.959,1.423-1.387a.462.462,0,0,0-.257-.788Zm-.02,1.969a.462.462,0,0,0-.133.409l.219,1.275-1.145-.6a.462.462,0,0,0-.43,0l-1.146.6.219-1.275a.462.462,0,0,0-.133-.409l-.927-.9,1.281-.186a.463.463,0,0,0,.348-.253l.573-1.16.573,1.16a.464.464,0,0,0,.348.253l1.281.186Z" transform="translate(-308.712 -228.368)" fill="#98984b"/>
    <path id="Tracé_1637" data-name="Tracé 1637" d="M196.57,97.18h7.536a.462.462,0,1,0,0-.925H196.57a.462.462,0,1,0,0,.925Z" transform="translate(-113.626 -77.281)" fill="#98984b"/>
    <path id="Tracé_1638" data-name="Tracé 1638" d="M196.57,129.99h14.471a.462.462,0,1,0,0-.925H196.57a.462.462,0,1,0,0,.925Z" transform="translate(-113.626 -107.78)" fill="#98984b"/>
    <path id="Tracé_1639" data-name="Tracé 1639" d="M196.57,162.8h14.471a.462.462,0,0,0,0-.925H196.57a.462.462,0,0,0,0,.925Z" transform="translate(-113.626 -138.278)" fill="#98984b"/>
    <path id="Tracé_1640" data-name="Tracé 1640" d="M196.57,195.61h14.471a.462.462,0,1,0,0-.925H196.57a.462.462,0,0,0,0,.925Z" transform="translate(-113.626 -168.777)" fill="#98984b"/>
  </g>
</svg>
