<svg xmlns="http://www.w3.org/2000/svg" width="35.507" height="42.485" viewBox="0 0 35.507 42.485">
  <g id="Groupe_1922" data-name="Groupe 1922" transform="translate(1374.336 603.547)">
    <path id="Tracé_1603" data-name="Tracé 1603" d="M276.658,219.423a.967.967,0,0,1-.967-.967V207.015a2.876,2.876,0,0,1,5.747,0v10.992a.967.967,0,1,1-1.934,0V207.015a.942.942,0,0,0-1.88,0v11.441a.967.967,0,0,1-.967.967Z" transform="translate(-1638.689 -792.159)" fill="#98984b"/>
    <path id="Tracé_1604" data-name="Tracé 1604" d="M203.871,303.8a.967.967,0,0,1-.793-.411l-3.06-4.35h0a1.126,1.126,0,1,0-1.856,1.276.967.967,0,1,1-1.581,1.112,3.064,3.064,0,0,1,3.04-4.776,3.024,3.024,0,0,1,1.962,1.257l3.065,4.35h0a1,1,0,0,1-.778,1.542Z" transform="translate(-1565.902 -876.532)" fill="#98984b"/>
    <path id="Tracé_1605" data-name="Tracé 1605" d="M320.812,196.307a.967.967,0,0,1-.967-.967v-12.9a2.876,2.876,0,1,1,5.747,0v11.688a.967.967,0,1,1-1.934,0V182.443a.942.942,0,1,0-1.88,0v12.9a.967.967,0,0,1-.967.967Z" transform="translate(-1679.03 -769.493)" fill="#98984b"/>
    <path id="Tracé_1606" data-name="Tracé 1606" d="M370.36,231.094a.967.967,0,0,1-.967-.967v-1.933a.965.965,0,0,1,.107-.43,17.186,17.186,0,0,0,1.8-7.623V209.873a.749.749,0,1,0-1.5,0V218a.967.967,0,1,1-1.934,0V207.012a.943.943,0,0,0-1.88,0v10.1a.967.967,0,0,1-1.934,0v-10.1a2.876,2.876,0,0,1,5.747,0v.285a2.716,2.716,0,0,1,.773-.106,2.687,2.687,0,0,1,2.658,2.683v10.267a19.089,19.089,0,0,1-1.933,8.3v1.682a.967.967,0,0,1-.943.967Z" transform="translate(-1719.427 -792.156)" fill="#98984b"/>
    <path id="Tracé_1607" data-name="Tracé 1607" d="M204.334,340.908a.966.966,0,0,1-.783-.4l-3.06-4.375a.967.967,0,1,1,1.581-1.112l3.065,4.375a.967.967,0,0,1-.793,1.523Z" transform="translate(-1569.803 -911.237)" fill="#98984b"/>
    <path id="Tracé_1608" data-name="Tracé 1608" d="M208.049,350.069a.966.966,0,0,1-.967-.967,11.119,11.119,0,0,0-2.011-6.385l-4.694-6.7a.967.967,0,1,1,1.581-1.112l4.694,6.7a13,13,0,0,1,2.364,7.492.967.967,0,0,1-.967.967Z" transform="translate(-1569.698 -911.132)" fill="#98984b"/>
    <path id="Tracé_1610" data-name="Tracé 1610" d="M431.226,160.5a.965.965,0,0,1-.682-1.648,15.821,15.821,0,0,0-4.181-25.281.967.967,0,0,1,.86-1.73,17.754,17.754,0,0,1,4.689,28.393.966.966,0,0,1-.686.266Z" transform="translate(-1775.889 -725.912)" fill="#98984b"/>
    <path id="Tracé_1611" data-name="Tracé 1611" d="M153.2,160.376a.965.965,0,0,1-.512-.145,17.759,17.759,0,0,1,1.977-31.2.969.969,0,1,1,.812,1.759,15.816,15.816,0,0,0-1.764,27.794.967.967,0,0,1-.513,1.788Z" transform="translate(-1518.67 -723.348)" fill="#98984b"/>
    <path id="Icon_metro-plus" data-name="Icon metro-plus" d="M13.327,6.092H9.51V2.275a.347.347,0,0,0-.347-.347H7.081a.347.347,0,0,0-.347.347V6.092H2.918a.347.347,0,0,0-.347.347V8.521a.347.347,0,0,0,.347.347H6.734v3.817a.347.347,0,0,0,.347.347H9.163a.347.347,0,0,0,.347-.347V8.868h3.817a.347.347,0,0,0,.347-.347V6.439A.347.347,0,0,0,13.327,6.092Z" transform="translate(-1364.455 -604.975)" fill="none" stroke="#98984b" stroke-width="1"/>
    <path id="Tracé_1603-2" data-name="Tracé 1603" d="M276.658,219.423a.967.967,0,0,1-.967-.967V207.015a2.876,2.876,0,0,1,5.747,0v10.992a.967.967,0,1,1-1.934,0V207.015a.942.942,0,0,0-1.88,0v11.441a.967.967,0,0,1-.967.967Z" transform="translate(-1638.689 -792.159)" fill="#98984b"/>
    <path id="Tracé_1604-2" data-name="Tracé 1604" d="M203.871,303.8a.967.967,0,0,1-.793-.411l-3.06-4.35h0a1.126,1.126,0,1,0-1.856,1.276.967.967,0,1,1-1.581,1.112,3.064,3.064,0,0,1,3.04-4.776,3.024,3.024,0,0,1,1.962,1.257l3.065,4.35h0a1,1,0,0,1-.778,1.542Z" transform="translate(-1565.902 -876.532)" fill="#98984b"/>
    <path id="Tracé_1605-2" data-name="Tracé 1605" d="M320.812,196.307a.967.967,0,0,1-.967-.967v-12.9a2.876,2.876,0,1,1,5.747,0v11.688a.967.967,0,1,1-1.934,0V182.443a.942.942,0,1,0-1.88,0v12.9a.967.967,0,0,1-.967.967Z" transform="translate(-1679.03 -769.493)" fill="#98984b"/>
    <path id="Tracé_1606-2" data-name="Tracé 1606" d="M370.36,231.094a.967.967,0,0,1-.967-.967v-1.933a.965.965,0,0,1,.107-.43,17.186,17.186,0,0,0,1.8-7.623V209.873a.749.749,0,1,0-1.5,0V218a.967.967,0,1,1-1.934,0V207.012a.943.943,0,0,0-1.88,0v10.1a.967.967,0,0,1-1.934,0v-10.1a2.876,2.876,0,0,1,5.747,0v.285a2.716,2.716,0,0,1,.773-.106,2.687,2.687,0,0,1,2.658,2.683v10.267a19.089,19.089,0,0,1-1.933,8.3v1.682a.967.967,0,0,1-.943.967Z" transform="translate(-1719.427 -792.156)" fill="#98984b"/>
    <path id="Tracé_1607-2" data-name="Tracé 1607" d="M204.334,340.908a.966.966,0,0,1-.783-.4l-3.06-4.375a.967.967,0,1,1,1.581-1.112l3.065,4.375a.967.967,0,0,1-.793,1.523Z" transform="translate(-1569.803 -911.237)" fill="#98984b"/>
    <path id="Tracé_1608-2" data-name="Tracé 1608" d="M208.049,350.069a.966.966,0,0,1-.967-.967,11.119,11.119,0,0,0-2.011-6.385l-4.694-6.7a.967.967,0,1,1,1.581-1.112l4.694,6.7a13,13,0,0,1,2.364,7.492.967.967,0,0,1-.967.967Z" transform="translate(-1569.698 -911.132)" fill="#98984b"/>
    <path id="Tracé_1610-2" data-name="Tracé 1610" d="M431.226,160.5a.965.965,0,0,1-.682-1.648,15.821,15.821,0,0,0-4.181-25.281.967.967,0,0,1,.86-1.73,17.754,17.754,0,0,1,4.689,28.393.966.966,0,0,1-.686.266Z" transform="translate(-1775.889 -725.912)" fill="#98984b"/>
    <path id="Tracé_1611-2" data-name="Tracé 1611" d="M153.2,160.376a.965.965,0,0,1-.512-.145,17.759,17.759,0,0,1,1.977-31.2.969.969,0,1,1,.812,1.759,15.816,15.816,0,0,0-1.764,27.794.967.967,0,0,1-.513,1.788Z" transform="translate(-1518.67 -723.348)" fill="#98984b"/>
    <path id="Icon_metro-plus-2" data-name="Icon metro-plus" d="M13.327,6.092H9.51V2.275a.347.347,0,0,0-.347-.347H7.081a.347.347,0,0,0-.347.347V6.092H2.918a.347.347,0,0,0-.347.347V8.521a.347.347,0,0,0,.347.347H6.734v3.817a.347.347,0,0,0,.347.347H9.163a.347.347,0,0,0,.347-.347V8.868h3.817a.347.347,0,0,0,.347-.347V6.439A.347.347,0,0,0,13.327,6.092Z" transform="translate(-1364.455 -604.975)" fill="none" stroke="#98984b" stroke-width="1"/>
  </g>
</svg>
