<svg xmlns="http://www.w3.org/2000/svg" width="34.204" height="39.594" viewBox="0 0 34.204 39.594">
  <g id="Groupe_1883" data-name="Groupe 1883" transform="translate(2863.862 -2913.165)">
    <path id="Tracé_1571" data-name="Tracé 1571" d="M162.656,20.634l-6.538-6.3A1.205,1.205,0,0,0,155.3,14h-19.83a1.144,1.144,0,0,0-1.169,1.127V19.3h-4.33a1.144,1.144,0,0,0-1.169,1.127V52.468a1.144,1.144,0,0,0,1.169,1.127h26.367a1.144,1.144,0,0,0,1.169-1.127V48.3h4.33A1.144,1.144,0,0,0,163,47.169V21.427a1.12,1.12,0,0,0-.346-.793Zm-7.274-3.8,4.719,4.548h-4.719Zm-.217,34.5H131.136V21.594h3.117V47.21a1.144,1.144,0,0,0,1.169,1.127h19.7v3Zm-18.531-5.3V16.295H153v6.217a1.144,1.144,0,0,0,1.169,1.127h6.451v22.4Z" transform="translate(-2992.66 2899.164)" fill="#98984b"/>
    <path id="Tracé_1572" data-name="Tracé 1572" d="M290.789,300.16H276.646a1.127,1.127,0,0,0,0,2.253h14.1a1.122,1.122,0,0,0,1.127-1.127,1.063,1.063,0,0,0-1.085-1.127Z" transform="translate(-3127.631 2634.324)" fill="#98984b"/>
    <path id="Tracé_1573" data-name="Tracé 1573" d="M290.789,231.84H276.646a1.127,1.127,0,0,0,0,2.253h14.1a1.122,1.122,0,0,0,1.127-1.127,1.087,1.087,0,0,0-1.085-1.127Z" transform="translate(-3127.631 2697.554)" fill="#98984b"/>
    <path id="Tracé_1574" data-name="Tracé 1574" d="M290.789,367.92H276.646a1.127,1.127,0,0,0,0,2.253h14.1a1.122,1.122,0,0,0,1.127-1.127,1.087,1.087,0,0,0-1.085-1.127Z" transform="translate(-3127.631 2571.612)" fill="#98984b"/>
    <path id="Tracé_1575" data-name="Tracé 1575" d="M276.646,97.92H283.7a1.122,1.122,0,0,0,1.127-1.127V91.287A1.122,1.122,0,0,0,283.7,90.16h-7.051a1.122,1.122,0,0,0-1.127,1.127v5.507a1.122,1.122,0,0,0,1.127,1.127Zm1.168-5.465h4.756v3.171h-4.756Z" transform="translate(-3127.875 2828.678)" fill="#98984b"/>
  </g>
</svg>
