<svg xmlns="http://www.w3.org/2000/svg" width="24.797" height="36.077" viewBox="0 0 24.797 36.077">
  <path id="Icon_awesome-question" data-name="Icon awesome-question" d="M14.231,0A13.652,13.652,0,0,0,2.1,6.414,1.693,1.693,0,0,0,2.469,8.73l3.04,2.3a1.691,1.691,0,0,0,2.343-.292c1.765-2.211,3.074-3.484,5.831-3.484,2.168,0,4.849,1.4,4.849,3.5,0,1.589-1.312,2.405-3.452,3.605-2.5,1.4-5.8,3.141-5.8,7.5v.69a1.691,1.691,0,0,0,1.691,1.691h5.107a1.691,1.691,0,0,0,1.691-1.691v-.407c0-3.02,8.827-3.146,8.827-11.318C26.6,4.669,20.212,0,14.231,0Zm-.706,26.315A4.881,4.881,0,1,0,18.406,31.2,4.887,4.887,0,0,0,13.525,26.315Z" transform="translate(-1.8)" fill="#98984b"/>
</svg>
