<svg xmlns="http://www.w3.org/2000/svg" width="41.547" height="41.546" viewBox="0 0 41.547 41.546">
  <g id="Groupe_1884" data-name="Groupe 1884" transform="translate(283.595 -2795)">
    <path id="Tracé_1576" data-name="Tracé 1576" d="M108.978,26.245c2.667,4.408,3.218,5.208,3.457,8.005a4.555,4.555,0,0,1-1.226,3.33l2.48,2.052h0a9.508,9.508,0,0,0,1.218-2.569h4.029a.7.7,0,0,0,.7-.7V30.775a.7.7,0,0,0-.7-.7h-4.029a11.75,11.75,0,0,0-.851-2.056l2.849-2.849a.7.7,0,0,0,0-.988l-3.952-3.952a.7.7,0,0,0-.988,0l-.95.95-1.9,1.9a11.742,11.742,0,0,0-2.056-.849V18.2a.7.7,0,0,0-.7-.7h-5.589a.7.7,0,0,0-.7.7v4.03a11.74,11.74,0,0,0-2.056.849l-2.849-2.848a.7.7,0,0,0-.988,0l-3.952,3.952a.7.7,0,0,0,0,.988l2.849,2.849a11.747,11.747,0,0,0-.851,2.056H88.2a.7.7,0,0,0-.7.7v5.589a.7.7,0,0,0,.7.7h4.029a11.751,11.751,0,0,0,.851,2.056l-2.849,2.849a.7.7,0,0,0,0,.988l3.952,3.952a.7.7,0,0,0,.988,0l2.849-2.848a11.743,11.743,0,0,0,2.056.849v4.03a.7.7,0,0,0,.7.7h5.589a.7.7,0,0,0,.7-.7v-4.03a11.767,11.767,0,0,0,2.532-1.118l-.71-1.2-1.172-1.4-5.775.783-5.249-2.849a10.425,10.425,0,0,1-1.517-7.584c.484-2.1,3.675-4.61,5.6-6.362C102.183,23.881,105.574,26.887,108.978,26.245Z" transform="translate(-371.093 2777.498)" fill="#98984b"/>
    <path id="Tracé_1577" data-name="Tracé 1577" d="M227.5,227.5h1.4v4.192h-1.4Z" transform="translate(-499.438 2583.568)" fill="#98984b"/>
    <path id="Tracé_1578" data-name="Tracé 1578" d="M253.75,210h1.4v5.589h-1.4Z" transform="translate(-523.213 2599.671)" fill="#98984b"/>
    <path id="Tracé_1579" data-name="Tracé 1579" d="M280,192.5h1.4v6.986H280Z" transform="translate(-546.988 2615.774)" fill="#98984b"/>
    <path id="Tracé_1580" data-name="Tracé 1580" d="M306.25,175h1.4v8.383h-1.4Z" transform="translate(-570.762 2631.877)" fill="#98984b"/>
    <path id="Tracé_1582" data-name="Tracé 1582" d="M195.923,120.98a3.468,3.468,0,0,0-2.469-1.023,3.52,3.52,0,0,0-.482.047l-1.939-1.934a9.115,9.115,0,1,0-2.959,2.959l1.934,1.939h0a3.511,3.511,0,0,0-.047.482,3.469,3.469,0,0,0,1.023,2.469l11.856,11.856a3.493,3.493,0,0,0,4.94-4.94Zm-20.295-7.67a7.693,7.693,0,1,1,2.253,5.431A7.685,7.685,0,0,1,175.629,113.311Zm13.588,6.887a9.155,9.155,0,0,0,.984-.984l1.327,1.322h0a3.47,3.47,0,0,0-.987.988Z" transform="translate(-450.84 2697.758)" fill="#98984b"/>
  </g>
</svg>
