<svg xmlns="http://www.w3.org/2000/svg" width="50.26" height="34.507" viewBox="0 0 50.26 34.507">
  <g id="Groupe_1925" data-name="Groupe 1925" transform="translate(-288 -3636.5)">
    <path id="Icon_awesome-video" data-name="Icon awesome-video" d="M27.585,4.5H3.922A3.922,3.922,0,0,0,0,8.422V32.085a3.922,3.922,0,0,0,3.922,3.922H27.585a3.922,3.922,0,0,0,3.922-3.922V8.422A3.922,3.922,0,0,0,27.585,4.5Zm15.54,3.093-6.513,6.323V26.6l6.513,6.3a2.631,2.631,0,0,0,4.135-2.117V9.71A2.632,2.632,0,0,0,43.125,7.593Z" transform="translate(289.5 3633.5)" fill="none" stroke="#98984b" stroke-width="3"/>
    <path id="Polygone_1" data-name="Polygone 1" d="M6.418,0l6.418,11.35H0Z" transform="translate(311.352 3647.335) rotate(90)" fill="#98984b"/>
  </g>
</svg>
