<svg xmlns="http://www.w3.org/2000/svg" width="344.171" height="279.748" viewBox="0 0 344.171 279.748">
  <g id="undraw_content_creator_re_pt5b" transform="translate(-81.805)">
    <path id="Tracé_1497" data-name="Tracé 1497" d="M801.815,422.549H596.739a2.709,2.709,0,0,1-2.706-2.705V194.205a2.709,2.709,0,0,1,2.706-2.705H801.815a2.709,2.709,0,0,1,2.706,2.705V419.844A2.709,2.709,0,0,1,801.815,422.549ZM596.739,192.582a1.625,1.625,0,0,0-1.623,1.623V419.844a1.625,1.625,0,0,0,1.623,1.623H801.815a1.625,1.625,0,0,0,1.623-1.623V194.205a1.625,1.625,0,0,0-1.623-1.623Z" transform="translate(-378.545 -191.5)" fill="#3f3d56"/>
    <path id="Tracé_1498" data-name="Tracé 1498" d="M717.1,302.774H666.239a2.709,2.709,0,0,1-2.706-2.705V249.206a2.709,2.709,0,0,1,2.706-2.705H717.1a2.709,2.709,0,0,1,2.706,2.705v50.863a2.709,2.709,0,0,1-2.706,2.706Zm-50.863-55.192a1.625,1.625,0,0,0-1.623,1.623v50.863a1.625,1.625,0,0,0,1.623,1.623H717.1a1.625,1.625,0,0,0,1.623-1.623V249.206a1.625,1.625,0,0,0-1.623-1.623Z" transform="translate(-410.439 -216.74)" fill="#f2f2f2"/>
    <path id="Tracé_1499" data-name="Tracé 1499" d="M690.332,314.733H639.468a2.438,2.438,0,0,1-2.435-2.435V261.435A2.438,2.438,0,0,1,639.468,259h50.863a2.438,2.438,0,0,1,2.435,2.435V312.3A2.438,2.438,0,0,1,690.332,314.733Z" transform="translate(-398.278 -222.476)" fill="#7b5d99"/>
    <path id="Tracé_1500" data-name="Tracé 1500" d="M798.551,403.87H639.468a2.435,2.435,0,0,1,0-4.87H798.551a2.435,2.435,0,0,1,0,4.87Z" transform="translate(-398.278 -286.722)" fill="#ccc"/>
    <path id="Tracé_1501" data-name="Tracé 1501" d="M760.133,434.87H639.468a2.435,2.435,0,0,1,0-4.87H760.133a2.435,2.435,0,0,1,0,4.87Z" transform="translate(-398.278 -300.948)" fill="#ccc"/>
    <path id="Tracé_1502" data-name="Tracé 1502" d="M872.811,289.87H802.468a2.435,2.435,0,0,1,0-4.87h70.343a2.435,2.435,0,0,1,0,4.87Z" transform="translate(-473.079 -234.407)" fill="#ccc"/>
    <path id="Tracé_1503" data-name="Tracé 1503" d="M855.256,320.87H802.468a2.435,2.435,0,0,1,0-4.87h52.788a2.435,2.435,0,0,1,0,4.87Z" transform="translate(-473.079 -248.633)" fill="#ccc"/>
    <path id="Tracé_1504" data-name="Tracé 1504" d="M798.551,465.87H639.468a2.435,2.435,0,0,1,0-4.87H798.551a2.435,2.435,0,0,1,0,4.87Z" transform="translate(-398.278 -315.174)" fill="#ccc"/>
    <path id="Tracé_1505" data-name="Tracé 1505" d="M760.133,496.87H639.468a2.435,2.435,0,0,1,0-4.87H760.133a2.435,2.435,0,0,1,0,4.87Z" transform="translate(-398.278 -329.4)" fill="#ccc"/>
    <path id="Tracé_1506" data-name="Tracé 1506" d="M798.551,527.87H639.468a2.435,2.435,0,0,1,0-4.87H798.551a2.435,2.435,0,0,1,0,4.87Z" transform="translate(-398.278 -343.626)" fill="#ccc"/>
    <path id="Tracé_1507" data-name="Tracé 1507" d="M798.551,558.87H639.468a2.435,2.435,0,0,1,0-4.87H798.551a2.435,2.435,0,0,1,0,4.87Z" transform="translate(-398.278 -357.852)" fill="#ccc"/>
    <path id="Tracé_1508" data-name="Tracé 1508" d="M597.5,514.188H481.168a2.709,2.709,0,0,1-2.706-2.705V439.516a2.709,2.709,0,0,1,2.706-2.706H597.5a2.709,2.709,0,0,1,2.706,2.706v71.966A2.709,2.709,0,0,1,597.5,514.188Z" transform="translate(-325.51 -304.074)" fill="#fff"/>
    <path id="Tracé_1509" data-name="Tracé 1509" d="M597.5,514.188H481.168a2.709,2.709,0,0,1-2.706-2.705V439.516a2.709,2.709,0,0,1,2.706-2.706H597.5a2.709,2.709,0,0,1,2.706,2.706v71.966A2.709,2.709,0,0,1,597.5,514.188ZM481.168,437.893a1.625,1.625,0,0,0-1.623,1.623v71.966a1.625,1.625,0,0,0,1.623,1.623H597.5a1.625,1.625,0,0,0,1.623-1.623V439.516a1.625,1.625,0,0,0-1.623-1.623Z" transform="translate(-325.51 -304.074)" fill="#3f3d56"/>
    <path id="Tracé_1510" data-name="Tracé 1510" d="M594.24,493.181H523.9a2.435,2.435,0,1,1,0-4.87H594.24a2.435,2.435,0,1,1,0,4.87Z" transform="translate(-345.242 -327.707)" fill="#ccc"/>
    <path id="Tracé_1511" data-name="Tracé 1511" d="M594.24,524.181H523.9a2.435,2.435,0,1,1,0-4.87H594.24a2.435,2.435,0,1,1,0,4.87Z" transform="translate(-345.242 -341.933)" fill="#ccc"/>
    <path id="Tracé_1512" data-name="Tracé 1512" d="M230.334,483.19h6.634l3.156-25.588h-9.791Z" transform="translate(-94.242 -209.995)" fill="#a0616a"/>
    <path id="Tracé_1513" data-name="Tracé 1513" d="M444.174,692.388h13.065a8.326,8.326,0,0,1,8.326,8.325v.271h-21.39Z" transform="translate(-309.775 -421.358)" fill="#2f2e41"/>
    <path id="Tracé_1514" data-name="Tracé 1514" d="M134.876,478.128l6.559.991,6.946-24.828-8.6-1.463Z" transform="translate(-50.437 -207.803)" fill="#a0616a"/>
    <path id="Tracé_1515" data-name="Tracé 1515" d="M348.259,686.659l12.918,1.952h0a8.326,8.326,0,0,1,6.987,9.477l-.04.267-21.15-3.2Z" transform="translate(-265.169 -418.729)" fill="#2f2e41"/>
    <path id="Tracé_1516" data-name="Tracé 1516" d="M388.612,462.043l7.366,1.93-.49,11.942-.061,21.742a4.357,4.357,0,1,1-5.767.725L387.4,476.56Z" transform="translate(-283.719 -315.653)" fill="#a0616a"/>
    <path id="Tracé_1517" data-name="Tracé 1517" d="M386.613,431.814a6.013,6.013,0,0,1,3.717-5.347,5.621,5.621,0,0,1,6.085.979,5.36,5.36,0,0,1,1.787,4.145,138.913,138.913,0,0,1-1.576,17.295l-.025.162-10.766,3.625Z" transform="translate(-283.002 -299.102)" fill="#7b5d99"/>
    <path id="Tracé_1518" data-name="Tracé 1518" d="M388.432,469.85l16.467-4.263,7.612,25.636.271,95.5-12.592-.079-5.264-77.3-33.548,71.425-13.527-1.623,29.49-76.565s-1.623-13.527,3.517-20.291l-1.082-7.034Z" transform="translate(-265.571 -317.279)" fill="#2f2e41"/>
    <path id="Tracé_1519" data-name="Tracé 1519" d="M395.254,449.278a2.523,2.523,0,0,1-.538-2.03L387.2,424.715a5.733,5.733,0,0,1,1.581-6.051l3.261-2.964,2.21-8.839,12.7,3.1-1.046,4.186,5.748-1.045,12.107,26.964-25.306,10.115-1.246.02A2.523,2.523,0,0,1,395.254,449.278Z" transform="translate(-283.496 -290.33)" fill="#7b5d99"/>
    <path id="Tracé_1520" data-name="Tracé 1520" d="M434.907,448.135l7.257-2.306,5.969,10.354L459.7,474.591a4.357,4.357,0,1,1-4.486,3.695L441.64,461.053Z" transform="translate(-305.522 -308.212)" fill="#a0616a"/>
    <path id="Tracé_1521" data-name="Tracé 1521" d="M418.7,422.345a6.012,6.012,0,0,1,.283-6.505,5.624,5.624,0,0,1,5.666-2.425,5.36,5.36,0,0,1,3.725,2.548,138.962,138.962,0,0,1,7.913,15.459l.065.151-7.161,8.819Z" transform="translate(-297.706 -293.297)" fill="#7b5d99"/>
    <circle id="Ellipse_19" data-name="Ellipse 19" cx="10.091" cy="10.091" r="10.091" transform="translate(110.065 94.705)" fill="#a0616a"/>
    <circle id="Ellipse_20" data-name="Ellipse 20" cx="9.72" cy="9.72" r="9.72" transform="translate(92.603 81.099)" fill="#2f2e41"/>
    <path id="Tracé_1522" data-name="Tracé 1522" d="M365.706,366.509a9.721,9.721,0,0,0,15.01-5.1,9.721,9.721,0,1,1-18.961-3.986A9.717,9.717,0,0,0,365.706,366.509Z" transform="translate(-271.767 -267.64)" fill="#2f2e41"/>
    <path id="Tracé_1523" data-name="Tracé 1523" d="M417.543,367.739c-1.7-3.038-2.346-4.307-4.534-6.154-1.935-1.634-4.315-2.113-6.234-.565a11.562,11.562,0,1,0,6.858,9.252C415.3,370.037,415.875,367.973,417.543,367.739Z" transform="translate(-285.244 -268.86)" fill="#2f2e41"/>
    <path id="Tracé_1524" data-name="Tracé 1524" d="M423.666,707.582H217.508a.541.541,0,1,1,0-1.082H423.666a.541.541,0,0,1,0,1.082Z" transform="translate(-135.162 -427.834)" fill="#ccc"/>
  </g>
</svg>
