<svg xmlns="http://www.w3.org/2000/svg" width="190.001" height="126.008" viewBox="0 0 190.001 126.008">
  <g id="Eco-mobilité" transform="translate(-37.057 -73.844)">
    <path id="Tracé_1823" data-name="Tracé 1823" d="M225.74,162.723a45.22,45.22,0,0,0-6.3-15.114,30.848,30.848,0,0,0-7.548-8.185c-2.522-2.513-5.672-4.425-8.185-6.292a69.52,69.52,0,0,0-9.442-5.044c-5.044-2.513-10.707-3.77-15.743-5.035A2.522,2.522,0,0,1,176,121.8a80.369,80.369,0,0,0-11.964-8.185c-3.77-1.885-6.92-3.779-10.7-5.663-3.779-1.265-6.929-3.15-10.707-4.425a72.561,72.561,0,0,0-12.592-3.15c-1.885-.628-4.425-.628-6.292-1.257-1.885,0-4.425-.628-6.292-.628a2.319,2.319,0,0,0-1.894.628l-6.292,6.292L108,106.664h.628a67.67,67.67,0,0,1,11.336.637c2.522.628,5.035.628,7.557,1.257a65.838,65.838,0,0,1,11.964,3.15,103.624,103.624,0,0,1,26.441,13.221c1.885,1.257,3.779,3.141,6.292,5.035.637.628,1.265.628,1.894,1.257a27.845,27.845,0,0,1,3.15.628,64.4,64.4,0,0,1,18.256,6.911,43.7,43.7,0,0,1,10.7,8.185c3.779,3.15,6.3,6.92,8.849,11.336,1.894,4.425,3.15,8.177,2.522,13.221a29.609,29.609,0,0,1-3.779,9.442c-.628,1.257-1.885,1.885-2.513,3.15,1.885-15.114-8.185-26.45-21.406-27.707a22.3,22.3,0,0,0-17.636,5.663q-10.415,9.451-7.584,22.725H84.712c1.257-8.185-.628-15.743-6.929-22.034s-13.849-7.557-22.034-6.3v-.628c-.628-1.894-.628-3.15-1.257-5.035a20.787,20.787,0,0,1,0-8.849,36.8,36.8,0,0,1,2.513-8.849,13.884,13.884,0,0,1,3.15-5.044c.628-1.885,1.257-3.141,2.522-3.77,0-.637,0-1.265-.628-1.265-.637-1.257-1.894-1.885-2.522-2.513l-1.885-3.779c-11.336,12.645-14.442,26.477-9.451,42.237-1.257,1.257-3.141,2.513-4.425,4.425-3.779,3.141-5.035,7.548-6.292,11.964a16.229,16.229,0,0,0,.646,9.442,26.768,26.768,0,0,0,6.292,10.7,34.219,34.219,0,0,0,5.672,4.425,21.167,21.167,0,0,0,13.849,2.522c3.779-.628,6.929-1.257,10.07-3.15,2.522-1.885,5.044-3.779,6.3-6.292,0-.637.628-.637,1.257-.637h87.518a14.664,14.664,0,0,0,4.425,4.425c3.779,4.425,8.849,5.663,15.105,5.663a17.7,17.7,0,0,0,9.451-2.566,25.512,25.512,0,0,0,8.849-7.557c0-.628.637-.628,1.265-.628h3.15c1.257,0,1.885-.628,3.141-1.257a35.938,35.938,0,0,0,6.929-6.929,31.725,31.725,0,0,0,5.663-14.477C226.377,167.758,226.377,165.236,225.74,162.723ZM60.784,194.2c-8.185,0-15.105-6.929-15.105-15.743a15.309,15.309,0,0,1,15.105-15.105c8.849,0,15.743,6.92,15.743,15.105A15.592,15.592,0,0,1,60.784,194.2Zm126.542,0c-8.185,0-15.114-6.3-15.114-14.477,0-8.849,6.929-15.743,15.114-15.743a15.353,15.353,0,0,1,15.743,14.477A15.592,15.592,0,0,1,187.335,194.2Z" transform="translate(0 -2.834)" fill="#6f8434"/>
    <path id="Tracé_1824" data-name="Tracé 1824" d="M67.865,119.37c2.522,1.885,5.672,2.513,8.849,3.15a30.282,30.282,0,0,0,7.557-.637c3.15-.628,6.3-1.257,8.849-3.141a29.7,29.7,0,0,0,7.557-5.672v-.628c-.628-.628-1.257-1.257-1.257-1.885q-7.566-7.548-15.114-15.114L74.794,86c-1.257-1.257-2.522-1.885-3.779-3.15h-.628A35.821,35.821,0,0,0,62.83,94.186a47.237,47.237,0,0,0-2.513,10.035,17.5,17.5,0,0,0,.628,5.672C62.2,113.7,64.724,117.494,67.865,119.37Z" transform="translate(-2.674 -1.036)" fill="#6f8434"/>
    <path id="Tracé_1825" data-name="Tracé 1825" d="M85.357,89.371c.628.628.628.628,1.257,0,1.257-1.257,1.894-2.522,3.15-3.15l6.274-6.292A4.805,4.805,0,0,0,97.3,77.407a3.487,3.487,0,0,0-1.894-3.15c-1.885-.628-3.15-.628-4.425.637l-9.407,9.442a.619.619,0,0,0-.628.628l.628.628A10.716,10.716,0,0,1,85.357,89.371Z" transform="translate(-5.052 0)" fill="#6f8434"/>
    <path id="Tracé_1826" data-name="Tracé 1826" d="M102.345,105.663h0l10.079-10.07a3.336,3.336,0,0,0-.628-5.035,3.849,3.849,0,0,0-5.044,0c-2.513,2.513-5.035,5.663-7.548,8.185l-1.894,1.885Z" transform="translate(-6.935 -1.815)" fill="#6f8434"/>
  </g>
</svg>
