<svg xmlns="http://www.w3.org/2000/svg" width="133" height="142.805" viewBox="0 0 133 142.805">
  <g id="logo_francais_agence_ges" transform="translate(0.019 0.047)">
    <path id="Tracé_1555" data-name="Tracé 1555" d="M129.188,342.477h3.6v16.811c-.069,2.161-.274,4.048-1.75,5.764-1.029,1.2-2.779,2.47-6.313,2.47a8.112,8.112,0,0,1-2.23-.274,6.44,6.44,0,0,1-4.494-3.74,10.989,10.989,0,0,1-.686-2.779h3.74a3.741,3.741,0,0,0,.789,2.47c.549.618,1.372,1.1,3.191,1.1a4.166,4.166,0,0,0,2.676-.858c1.441-1.2,1.681-3.122,1.578-6.724-.309.309-.618.652-.961.961a5.628,5.628,0,0,1-4.391,1.544,6.755,6.755,0,0,1-4.22-1.51,8.937,8.937,0,0,1-3.019-7.067,10.447,10.447,0,0,1,.515-3.259,7.33,7.33,0,0,1,6.93-5.283,7,7,0,0,1,3.6.961,5.938,5.938,0,0,1,1.407,1.029l.034-1.612ZM120.542,352.8a4.726,4.726,0,0,0,4.391,3.191,4.42,4.42,0,0,0,1.887-.377c2.5-1.132,2.676-3.945,2.676-4.769a6.551,6.551,0,0,0-1.029-3.6,4.582,4.582,0,0,0-3.74-1.784c-2.916,0-4.494,2.2-4.563,5.078A6.538,6.538,0,0,0,120.542,352.8Z" transform="translate(-76.675 -224.764)" fill="#b4d88b"/>
    <path id="Tracé_1556" data-name="Tracé 1556" d="M180.337,351.329c.069.377.137.755.24,1.167.274,1.029.961,3.6,4.22,3.6a5.424,5.424,0,0,0,1.784-.309,6.747,6.747,0,0,0,3.122-2.848c.652.309,1.3.618,1.956.995.274.137.583.309.858.48a13.554,13.554,0,0,1-1.3,1.921,8.073,8.073,0,0,1-6.621,2.95,6.88,6.88,0,0,1-4.94-1.784,8.5,8.5,0,0,1-2.95-6.656,10.148,10.148,0,0,1,1.853-5.9,7.617,7.617,0,0,1,6.347-3.053,8.162,8.162,0,0,1,6.038,2.539,8.382,8.382,0,0,1,1.338,2.5,9.107,9.107,0,0,1,.515,2.367,18.6,18.6,0,0,1,.034,1.956Zm8.474-2.848a4.69,4.69,0,0,0-.309-1.372,3.956,3.956,0,0,0-3.671-2.161,4.759,4.759,0,0,0-2.71.823,5.2,5.2,0,0,0-1.544,2.71Z" transform="translate(-116.091 -224.627)" fill="#b4d88b"/>
    <path id="Tracé_1557" data-name="Tracé 1557" d="M241.64,346.8c-.686-.858-1.441-1.784-2.573-1.818a1.386,1.386,0,0,0-1.475,1.3v.206c0,.549.24,1.166,1.338,1.818.995.583,2.059.926,3.019,1.51a5.23,5.23,0,0,1,2.848,4.426,5.107,5.107,0,0,1-.515,2.127,5.908,5.908,0,0,1-5.249,2.985,6.087,6.087,0,0,1-4.22-1.681,9.663,9.663,0,0,1-1.612-2.127l2.95-1.372c.858,1.029,1.818,2.093,3.225,2.093a1.976,1.976,0,0,0,2.127-1.853v-.034a1.783,1.783,0,0,0-.24-.858c-.377-.72-.823-.926-2.23-1.509a10.206,10.206,0,0,1-1.956-.926,4.748,4.748,0,0,1-2.4-6.175A5.269,5.269,0,0,1,239.513,342a5.026,5.026,0,0,1,3.945,1.887,9.06,9.06,0,0,1,1.029,1.441Z" transform="translate(-153.207 -224.698)" fill="#b4d88b"/>
    <path id="Tracé_1558" data-name="Tracé 1558" d="M-.012,210.971c-.069-.1.412-.446,1.3-.995a39.356,39.356,0,0,1,4.083-2.23A69.854,69.854,0,0,1,12.2,204.9a75.818,75.818,0,0,1,9.435-2.71,81.34,81.34,0,0,1,40.38,1.544,82.234,82.234,0,0,1,15.061,6.175,79.48,79.48,0,0,1,13.517,9.057,83.3,83.3,0,0,1,10.773,10.67,82.468,82.468,0,0,1,7.891,11.219,83.334,83.334,0,0,1,5.215,10.7,82.327,82.327,0,0,1,3.053,9.332,65.878,65.878,0,0,1,1.441,7.239c.137.995.24,1.887.343,2.676a14.318,14.318,0,0,1,.1,1.956c.034,1.064,0,1.647-.1,1.647s-.309-.515-.549-1.544c-.137-.515-.274-1.167-.412-1.921q-.257-1.132-.618-2.573c-.48-1.956-1.1-4.288-1.956-7a90.684,90.684,0,0,0-3.4-8.954A84,84,0,0,0,88.6,221.367a79.133,79.133,0,0,0-13.071-8.646,82.487,82.487,0,0,0-28.75-9.023A84.5,84.5,0,0,0,12.75,206.58c-2.71.789-5.009,1.612-6.862,2.3S2.561,210.148,1.6,210.56C.605,210.937.056,211.074-.012,210.971Z" transform="translate(0 -131.648)" fill="#cde3ab"/>
    <path id="Tracé_1559" data-name="Tracé 1559" d="M300.03,113.9c.618-.274.137-.618.069-.823s.515-.24.377-.72-.686-.686-1.064-1.3a4.53,4.53,0,0,0-1.612-3.911c-1.441-.961-7.754-1.2-7.136,3.74.343,2.058,1.956,3.6,1.544,4.94s-.549,1.3-3.568,3.774a26.451,26.451,0,0,0-5.009,9.126c.034.583,3.088,3.774,4.151,6.793s-.789,4.151-2.436,7.033a77.414,77.414,0,0,0-5.009,11.973c-.618,2.23-4.837,5.7-5.592,8.371s-.858,7.959-1.509,8.3c-.618.377-2.4.137-2.573,1.51-.206,1.372,1.269,2.779.892,3.671a5.181,5.181,0,0,0-.343,3.053c.206,1.064,3.637,2.642,3.774,1.269s-1.235-5.043.549-8.268c1.784-3.191,4.94-9.229,9.949-13.723,1.475-1.2,1.235-1.956,1.613-2.47s7-7.822,6.861-8.268,1.166.926,7.685,2.813c2.676.583,2.813.789,2.882,1.132s-2.127.206-5.078,7.788c-.858,1.715-2.676,4.7-4.323,5.18-1.544.446-3.191,1.166-1.921,3.019s1.647.72,1.887,3.637c.24,2.848,2.916,4.734,3.259,4.186a4.568,4.568,0,0,0,.721-3.053c-1.544-2.848-1.784-4.048-.995-5.558,1.2-2.2,2.951-3.019,5.352-4.94,2.4-1.956,7.1-7.136,7.342-9.332.24-1.166-2.024-7.788-11.081-12.419.034-.137-1.578-4.8.343-6.793a16.431,16.431,0,0,0,4.46-7.959c1.956-2.23,2.058-2.333,2.2-2.95s-1.166-3.842-2.333-2.882c-1.167.995-1.2,4.391-1.3,4.769a37.851,37.851,0,0,1-2.367,3.225s-1.372-7.788-2.539-8.611c-1.064-.789-1.1-.858-1.166-1.3a.887.887,0,0,1,.652-1.1h0c.377-.069,1.407.618,1.715.343.686-.618.24-1.544.309-1.75s.309-.48.274-.652C299.892,114.273,299.069,114.341,300.03,113.9Z" transform="translate(-177.803 -70.047)" fill="#b4d88b"/>
    <g id="Groupe_871" data-name="Groupe 871" transform="translate(14.299 -0.047)" opacity="0.88">
      <path id="Tracé_1560" data-name="Tracé 1560" d="M50.8,43.231c.892.24.892.446,1.681,3.808a60.349,60.349,0,0,0,2.539,7.513,2.478,2.478,0,0,0,3.705,1.132,16.1,16.1,0,0,1,1.956-2.161,32.624,32.624,0,0,1,7.376-.686c.858.24,7.754,1.338,8.748,1.407s2.161-1.372,2.2-1.99c0-1.544-3.259-5.832-6.313-8.92s-4.837-11.047-5.318-14.547c-.583-4.563-1.3-5.832-.172-7.548,1.269-2.093,2.4-4.288,3.465-6.484,1.715-2.95,1.887-6.621,2.058-7.376a11.68,11.68,0,0,1,1.715-3.465c1.166-.823,1.681-.995,1.475-1.2-.137-.172-1.681.823-1.578.549s1.407-1.818,1.3-2.127C75.537.792,74.4,2.2,74.3,2.336c-.172.24-.274.274-.309.137s.789-1.784.892-2.127-.137-.412-.274-.24-.48.858-.995,1.647c-.549.892-.515.515-.515.172s.549-2.161-.034-1.956a12.746,12.746,0,0,0-.892,2.607c-.172.618-.48.069-.48.069a6.614,6.614,0,0,0-.926-1.029c-.412-.274-.995-.377-.652-.069,1.2,1.132.789,1.75,1.029,3.053a3.642,3.642,0,0,1-.24,2.3c-.274,1.064-2.127,4.117-2.4,5.661A9.751,9.751,0,0,1,65.9,17.123a8.716,8.716,0,0,0-2.539,2.95c-.343.823-.995.48-.995.48s-.1-.618.069-.755.618-1.338.755-1.372a14.181,14.181,0,0,0,1.2-.755s-.823-.755-.412-.823c.377-.069.24-.377.069-.515s-.172-.789.1-.755.72-.618.755-.858c0-.24,0,0-.549,0s-.206-.309.1-.549a1.457,1.457,0,0,0,.343-.583,9.614,9.614,0,0,1-2.882-.549c-2.024-1.475-4.151-1.029-4.7-.446a4.485,4.485,0,0,0-3.808,4.632c-.034.995-1.166,1.921-.755,1.956s.789-.377.858-.206.034,1.166.137,1.407,1.1-.24,1.132-.1a2.693,2.693,0,0,1-.172.755,7.418,7.418,0,0,1,1.51-.343c.377,0,.72.412.961.686.24.24,1.853-.172,1.956.1s.309.995.172,1.1a1.037,1.037,0,0,1-.995.172,20.917,20.917,0,0,0-2.539-.069c-.823-.1-9.606-5.18-9.846-5.558a6.319,6.319,0,0,1-.377-2.3c.1-.24-.206-.343-.377.069a3.485,3.485,0,0,0-.206,1.166c0,.24-.515-.206-1.029-.515-.48-.309-.961-.377-.926-.24s.583.549.755.755c.343.343.172.377.069.446a6.162,6.162,0,0,1-1.578-.549c-.446-.206-.583-.034-.137.343.343.274,1.544.823,1.51.995-.034.137-.172.1-.446,0a4.889,4.889,0,0,0-1.2-.377c-.274,0-.172.172.034.309s1.647.72,1.544.823-.618-.069-1.166-.309c-.274-.1-.343.069-.069.24a5.8,5.8,0,0,0,3.019,1.1c1.647.137,3.808,3.191,11.253,7.342.858.48,2.47,5.832,2.539,9.846-1.1,2.745-1.544,6.244-1.407,11.116a10.544,10.544,0,0,1-.686,2.779,9.869,9.869,0,0,0-1.51-4.117,8.159,8.159,0,0,1-2.607-5.421c-.823-1.269-1.921,1.1-3.4.961s-2.95,1.3-2.367,1.372A10.414,10.414,0,0,1,50.8,43.231Z" transform="translate(-41.715 0.047)" fill="#6cb33f"/>
    </g>
    <path id="Tracé_1561" data-name="Tracé 1561" d="M201.746,67.669c-.206-3.74-3.465-16.022-3.465-16.022l.172-15.473s.926-3.774-.034-4.872-5.386-2.95-7.2-3.98c-3.98-1.853-.961-5.386-1.166-6.107s-2.23-1.338-2.573-1.578c-.377-.24.1-.755-.446-.858s-2.3.309-2.436.24a5.157,5.157,0,0,0-3.294-.137c0,.069-3.98-2.47-3.98-2.47a2.912,2.912,0,0,0-.583-1.887c-.618-.686-1.064-2.161-1.3-2.127-.274.034.412,1.475.206,2.093-.172.515-1.715,0-2.745-.549a3.463,3.463,0,0,0-.24-.515c-.1-.1-.206-.172-.24-.1a.621.621,0,0,0,.034.549,1.454,1.454,0,0,1-.24-.172c-.24-.172-.892-.446-.24.377h-.1s-.206.137-.1.24c.377.309.789.583,1.2.858h0c.206.137.549.309.549.309a18.231,18.231,0,0,1,6.347,5.18c-.274.515-.309,2.23-.583,2.127s-3.671-1.338-5.249-3.945c-.789-1.3-1.681-.72-2.745-1.3-1.029-.618-.995.172-.515.412,1.064.618.926.926.926.926a6.34,6.34,0,0,1-1.715.583c-1.064.206-1.132-.309-1.166-.515s-.24-.446-.343-.034a.864.864,0,0,0,.206.892c.172.137.618.343-.137.343s-1.647-.377-1.235.069a9.433,9.433,0,0,0,.961.652c.72.48,3.362.069,3.877-.343.515-.377,3.671,3.053,4.117,3.362s10.532,9.778,11.081,10.4,5.078,6.621,1.887,13.414c-.755,1.681-2.4,6.175.686,9.469.343,1.544.618,3.122.823,4.7a29.459,29.459,0,0,0-7-2.093c-.137,0,.069-2.058-.412-2.642s-2.3-.309-3.671-.172A6.308,6.308,0,0,1,176.77,57c-1.2-.343-3.6-1.235-2.779,0,2.3,3.74,4.8,2.024,12.145,7.616,1.818,1.475,5.832,3.98,5.9,4.529,0,0-1.441,2.161-.926,14.444-.343,2.093-2.676,2.676-1.612,3.911,2.161,2.5,1.372,6,1.956,6.313s1.064-.48,1.3-1.407a38.125,38.125,0,0,0,.583-6.656c-.1-1.1,1.3-6.724,1.3-6.724l1.647-7.136C196.325,71.923,202.226,75.7,201.746,67.669Z" transform="translate(-109.848 -8.176)" fill="#7ac143" opacity="0.76"/>
    <g id="Groupe_872" data-name="Groupe 872" transform="translate(-0.012 90.37)">
      <path id="Tracé_1562" data-name="Tracé 1562" d="M0,276.777,5.112,263.5H7l5.455,13.277H10.43l-1.544-4.014H3.328l-1.475,4.014Zm3.877-5.455H8.371l-1.407-3.671c-.412-1.132-.72-2.058-.926-2.745a16.447,16.447,0,0,1-.72,2.539Z" transform="translate(0 -263.5)" fill="#fff"/>
      <path id="Tracé_1563" data-name="Tracé 1563" d="M38.243,284.2l1.578.24a1.541,1.541,0,0,0,.549,1.1,2.613,2.613,0,0,0,1.647.48,2.8,2.8,0,0,0,1.75-.48,2.618,2.618,0,0,0,.858-1.269,13.179,13.179,0,0,0,.1-2.093,3.252,3.252,0,0,1-2.676,1.269A3.565,3.565,0,0,1,39,282.005a5.767,5.767,0,0,1-1.1-3.431,6.1,6.1,0,0,1,.515-2.539,4.266,4.266,0,0,1,1.441-1.818,4.033,4.033,0,0,1,2.23-.617,3.446,3.446,0,0,1,2.813,1.407V273.84h1.51v8.3a7.523,7.523,0,0,1-.48,3.156,3.232,3.232,0,0,1-1.475,1.475,5.318,5.318,0,0,1-2.436.549,4.53,4.53,0,0,1-2.779-.789A2.722,2.722,0,0,1,38.243,284.2Zm1.338-5.764a4.24,4.24,0,0,0,.72,2.745,2.423,2.423,0,0,0,1.887.892,2.39,2.39,0,0,0,1.887-.858,3.994,3.994,0,0,0,.789-2.71,4.081,4.081,0,0,0-.789-2.676,2.367,2.367,0,0,0-1.887-.892,2.406,2.406,0,0,0-1.853.892A4,4,0,0,0,39.581,278.437Z" transform="translate(-24.897 -270.135)" fill="#fff"/>
      <path id="Tracé_1564" data-name="Tracé 1564" d="M75.4,280.259l1.715.206a4.241,4.241,0,0,1-1.475,2.264,4.5,4.5,0,0,1-2.745.823,4.4,4.4,0,0,1-3.362-1.3,4.984,4.984,0,0,1-1.235-3.637,5.437,5.437,0,0,1,1.235-3.774,4.556,4.556,0,0,1,6.416-.034,5.1,5.1,0,0,1,1.235,3.705v.412h-7.2a3.806,3.806,0,0,0,.892,2.436,2.622,2.622,0,0,0,2.024.858,2.583,2.583,0,0,0,1.544-.48A3.163,3.163,0,0,0,75.4,280.259Zm-5.352-2.676h5.386a3.074,3.074,0,0,0-.618-1.818,2.523,2.523,0,0,0-2.024-.926,2.644,2.644,0,0,0-1.887.72A3.035,3.035,0,0,0,70.05,277.583Z" transform="translate(-44.868 -270.069)" fill="#fff"/>
      <path id="Tracé_1565" data-name="Tracé 1565" d="M99.9,283.346V273.74h1.475v1.338a3.511,3.511,0,0,1,3.053-1.578,3.811,3.811,0,0,1,1.578.309,2.512,2.512,0,0,1,1.1.823,3.185,3.185,0,0,1,.515,1.2,9.06,9.06,0,0,1,.069,1.578v5.9h-1.612V277.48a4.3,4.3,0,0,0-.206-1.51,1.465,1.465,0,0,0-.652-.789,2,2,0,0,0-1.132-.309,2.948,2.948,0,0,0-1.818.652,3.041,3.041,0,0,0-.789,2.5v5.249H99.9Z" transform="translate(-65.627 -270.069)" fill="#fff"/>
      <path id="Tracé_1566" data-name="Tracé 1566" d="M135.193,279.847l1.578.206a4.158,4.158,0,0,1-1.338,2.573,3.968,3.968,0,0,1-2.676.926,4.087,4.087,0,0,1-3.156-1.269,5.131,5.131,0,0,1-1.2-3.705,6.99,6.99,0,0,1,.515-2.745,3.432,3.432,0,0,1,1.578-1.75,4.46,4.46,0,0,1,2.264-.583,3.828,3.828,0,0,1,2.539.823,3.646,3.646,0,0,1,1.269,2.23l-1.578.24a2.7,2.7,0,0,0-.823-1.475,2.033,2.033,0,0,0-1.407-.515,2.6,2.6,0,0,0-2.024.892,4.134,4.134,0,0,0-.789,2.779,4.459,4.459,0,0,0,.72,2.813,2.491,2.491,0,0,0,1.921.892,2.237,2.237,0,0,0,1.578-.583A2.536,2.536,0,0,0,135.193,279.847Z" transform="translate(-84.349 -270.069)" fill="#fff"/>
      <path id="Tracé_1567" data-name="Tracé 1567" d="M162.5,280.259l1.715.206a4.241,4.241,0,0,1-1.475,2.264,4.288,4.288,0,0,1-2.745.823,4.4,4.4,0,0,1-3.362-1.3,4.984,4.984,0,0,1-1.235-3.637,5.437,5.437,0,0,1,1.235-3.774,4.556,4.556,0,0,1,6.416-.034,5.1,5.1,0,0,1,1.235,3.705v.412h-7.17a3.806,3.806,0,0,0,.892,2.436,2.622,2.622,0,0,0,2.024.858,2.582,2.582,0,0,0,1.544-.48A3.127,3.127,0,0,0,162.5,280.259Zm-5.318-2.676h5.386a3.074,3.074,0,0,0-.618-1.818,2.523,2.523,0,0,0-2.024-.926,2.644,2.644,0,0,0-1.887.72A3.034,3.034,0,0,0,157.184,277.583Z" transform="translate(-102.086 -270.069)" fill="#fff"/>
    </g>
  </g>
</svg>
