<svg xmlns="http://www.w3.org/2000/svg" width="168.929" height="142.885" viewBox="0 0 168.929 142.885">
  <g id="Groupe_1925" data-name="Groupe 1925" transform="translate(0 0)">
    <path id="Tracé_1586" data-name="Tracé 1586" d="M186.859,557.153v2.911c0,1-2.4,1.819-5.35,1.819H28.811a12.523,12.523,0,0,1-3.6-.475c-.1-.03-.2-.063-.295-.1-.9-.326-1.457-.764-1.457-1.246v-2.911c46.485-2.61,103.653-1.727,163.4,0Z" transform="translate(-17.93 -424.53)" fill="#f2f2f2"/>
    <path id="Tracé_1587" data-name="Tracé 1587" d="M186.859,572.072v2.911c0,1-2.4,1.819-5.35,1.819H28.811a12.525,12.525,0,0,1-3.6-.475c-.1-.031-.2-.063-.295-.1-.9-.326-1.457-.764-1.457-1.246v-2.911c42.787-1.947,101.013-1.32,163.4,0Z" transform="translate(-17.93 -436.243)" fill="#fff"/>
    <path id="Tracé_1588" data-name="Tracé 1588" d="M186.859,582.422v2.911c0,1-2.4,1.819-5.35,1.819H28.811a12.523,12.523,0,0,1-3.6-.475c-.1-.03-.2-.063-.295-.1-.9-.326-1.457-.764-1.457-1.246v-2.911c46.3-1.635,102.7-1.247,163.4,0Z" transform="translate(-17.93 -444.267)" fill="#f2f2f2"/>
    <path id="Tracé_1589" data-name="Tracé 1589" d="M664.216,524.86a.253.253,0,0,0,.183-.439l-.017-.069.007-.017a.68.68,0,0,1,1.255,0,6.039,6.039,0,0,1,.531,1.512,2.011,2.011,0,0,1-.035.692,8.066,8.066,0,0,0,.734-3.35,7.791,7.791,0,0,0-.048-.869q-.04-.355-.111-.7a8.16,8.16,0,0,0-1.618-3.458,2.171,2.171,0,0,1-.9-.937,1.657,1.657,0,0,1-.151-.453,2.042,2.042,0,0,0,.133-.7c.061-.093.171-.139.238-.23.333-.451.791-.372,1.031.241.511.258.516.686.2,1.1-.2.262-.227.616-.4.9l.055.068a8.213,8.213,0,0,1,.857,1.358,3.414,3.414,0,0,1,.2-1.586,5.721,5.721,0,0,1,.883-1.274.7.7,0,0,1,1.248.344l0,.018q-.072.04-.14.086a.344.344,0,0,0,.138.625h.007a3.418,3.418,0,0,1-.09.511c.413,1.6-.479,2.179-1.752,2.206l-.084.043a8.379,8.379,0,0,1,.451,2.123,7.956,7.956,0,0,1-.006,1.284l0-.015a2.1,2.1,0,0,1,.717-1.213,15.779,15.779,0,0,1,1.927-.985.394.394,0,0,1,.6.384l0,.016a2.323,2.323,0,0,0-.259.125q-.072.04-.141.086a.344.344,0,0,0,.138.625h.007l.014,0a3.417,3.417,0,0,1-.629.985c-.258,1.395-1.368,1.527-2.554,1.121h0a8.379,8.379,0,0,1-.563,1.643h-2.011c-.007-.022-.014-.045-.02-.068a2.285,2.285,0,0,0,.556-.033l-.448-.551-.009-.011-.228-.28h0a3.347,3.347,0,0,1,.1-.853h0Z" transform="translate(-507.472 -393.992)" fill="#f2f2f2"/>
    <path id="Tracé_1590" data-name="Tracé 1590" d="M285.215,515.86a.253.253,0,0,0,.184-.439l-.017-.069.007-.017a.68.68,0,0,1,1.254,0,6.039,6.039,0,0,1,.531,1.512,2.012,2.012,0,0,1-.035.692,8.066,8.066,0,0,0,.734-3.35,7.792,7.792,0,0,0-.048-.869q-.04-.355-.111-.7a8.16,8.16,0,0,0-1.618-3.458,2.171,2.171,0,0,1-.9-.937,1.657,1.657,0,0,1-.151-.453,2.044,2.044,0,0,0,.133-.7c.061-.093.171-.139.238-.23.333-.451.791-.372,1.031.241.511.258.516.686.2,1.1-.2.262-.227.616-.4.9l.055.068a8.215,8.215,0,0,1,.857,1.358,3.414,3.414,0,0,1,.2-1.586,5.72,5.72,0,0,1,.883-1.274.7.7,0,0,1,1.248.344l0,.018q-.072.041-.14.086a.343.343,0,0,0,.138.625h.007a3.416,3.416,0,0,1-.09.511c.413,1.6-.479,2.179-1.752,2.206l-.084.043a8.165,8.165,0,0,1,.309,1.114,8.254,8.254,0,0,1,.143,1.01,7.953,7.953,0,0,1-.006,1.284l0-.015a2.1,2.1,0,0,1,.717-1.213,15.793,15.793,0,0,1,1.927-.985.394.394,0,0,1,.6.384l0,.016a2.32,2.32,0,0,0-.259.125q-.072.041-.14.086a.344.344,0,0,0,.138.625h.007l.014,0a3.422,3.422,0,0,1-.629.985c-.258,1.395-1.368,1.527-2.554,1.121h0a8.383,8.383,0,0,1-.563,1.643h-2.011c-.007-.022-.014-.045-.02-.068a2.285,2.285,0,0,0,.556-.033l-.448-.551-.009-.011-.228-.28h0a3.347,3.347,0,0,1,.1-.853h0Z" transform="translate(-217.833 -387.114)" fill="#f2f2f2"/>
    <g id="Groupe_1913" data-name="Groupe 1913" transform="translate(114.772 73.394)">
      <g id="Groupe_1909" data-name="Groupe 1909" transform="translate(17.031 52.899)">
        <path id="Tracé_1591" data-name="Tracé 1591" d="M569.077,540.425h-1.242l-.591-4.792h1.833Z" transform="translate(-565.301 -535.633)" fill="#ffb6b6"/>
        <path id="Tracé_1592" data-name="Tracé 1592" d="M562.823,554.76H559v-.048a1.487,1.487,0,0,1,1.487-1.487h0l.7-.529,1.3.529h.333Z" transform="translate(-559.003 -548.672)" fill="#2f2e41"/>
      </g>
      <g id="Groupe_1910" data-name="Groupe 1910" transform="translate(32.072 47.784)">
        <path id="Tracé_1593" data-name="Tracé 1593" d="M627.635,517.034l-.8.948-4.04-2.643,1.184-1.4Z" transform="translate(-622.792 -513.939)" fill="#ffb6b6"/>
        <path id="Tracé_1594" data-name="Tracé 1594" d="M637.823,527.259l-2.467,2.917-.037-.031a1.487,1.487,0,0,1-.175-2.1h0l.046-.875,1.245-.652.215-.255Z" transform="translate(-631.962 -523.361)" fill="#2f2e41"/>
      </g>
      <path id="Tracé_1595" data-name="Tracé 1595" d="M566.175,406.476l-6.66.773-2.625,4.5-.376,1.506.17,1.035-.421.721.251,1.38-1,10.916,2.76,12.3h2.572l-.816-11.418,2.133-9.787,1.882,9.536,8.7,7.58,2.028-2.906-6.716-5.677-.628-2.008.845-1.7.66-11.226Z" transform="translate(-539.302 -384.03)" fill="#2f2e41"/>
      <path id="Tracé_1596" data-name="Tracé 1596" d="M561.921,360.614s4.2,1.308,4.642-.172-.11-3.308-.528-3.5.078-1.47.542-2.322.393-1.321.126-1.423-4.424-10.426-4.424-10.426l-1.413-.3-1.133-1.391-2.406.291-.984,1.82-1.648.873-.6,5.54s.3,2.374.9,4.871c.188.777.4,1.566.652,2.3.582,1.727,1.331,3.144,2.251,3.365A13.452,13.452,0,0,0,561.921,360.614Z" transform="translate(-538.219 -334.053)" fill="#5681b9"/>
      <g id="Groupe_1911" data-name="Groupe 1911" transform="translate(0 9.619)">
        <path id="Tracé_1597" data-name="Tracé 1597" d="M496.144,376.375l-.857.158-.2.036-.318.06-6.612,1.217a.91.91,0,0,1-1.109-.09.873.873,0,0,1-.048-1.233l.017-.017a.915.915,0,0,1,1.275-.045.927.927,0,0,1,.1.108l.178-.058.56-.182.423-.138.841-.275.326-.106,1.058-.345,1.02-.332,1.236-.4.95-.31.189.319Z" transform="translate(-486.77 -369.15)" fill="#ffb6b6"/>
        <path id="Tracé_1598" data-name="Tracé 1598" d="M521.169,359.565a1.573,1.573,0,0,1-.35.016c-.355-.086.038-.317-.746.018-.637.271-.69-.216-.782-.008-.152.343-.366-.006-.541-.135-.077-.058-.146-.072-.2.036a.6.6,0,0,0-.048.158c-.041.209-.144.126-.27-.1a11.918,11.918,0,0,1-.635-1.595c-.046-.131-.08-.238-.1-.305-.016-.05-.024-.078-.024-.078a.566.566,0,0,1,.291-.266,1.966,1.966,0,0,1,.84-.179,3.028,3.028,0,0,1,.6.064.4.4,0,0,0,.222-.015h0a.311.311,0,0,0,.155-.215c.068-.219.354-.192.637-.121a2.854,2.854,0,0,0,.61.153c.113-.033,3.108-2.68,5.021-4.377a2.157,2.157,0,0,1,3.006.138l.813.867a1.549,1.549,0,0,1,.617.992,1.664,1.664,0,0,1-.183.979,3.93,3.93,0,0,1-.883,1.114C527.34,358.447,522.535,359.417,521.169,359.565Z" transform="translate(-510.233 -352.073)" fill="#5681b9"/>
      </g>
      <g id="Groupe_1912" data-name="Groupe 1912" transform="translate(22.153 8.033)">
        <path id="Tracé_1599" data-name="Tracé 1599" d="M606.9,386.389l.317.812.073.188.119.3,2.444,6.264a.91.91,0,0,1,.121,1.106.873.873,0,0,1-1.2.28l-.02-.014a.916.916,0,0,1-.285-1.244.929.929,0,0,1,.088-.115l-.091-.164-.285-.515-.215-.389-.429-.774-.166-.3-.538-.974-.519-.939-.629-1.138-.484-.875.278-.246,1.424-1.263Z" transform="translate(-599.429 -376.712)" fill="#ffb6b6"/>
        <path id="Tracé_1600" data-name="Tracé 1600" d="M588.165,353.439a1.569,1.569,0,0,1,.082.34c-.017.364-.318.023.159.73.386.574-.082.719.139.77.366.085.064.361-.03.557-.042.087-.043.157.073.188a.6.6,0,0,0,.164.017c.213,0,.151.117-.046.284a11.923,11.923,0,0,1-1.446.924c-.12.07-.219.124-.28.159l-.072.039a.566.566,0,0,1-.317-.235,1.966,1.966,0,0,1-.335-.791,3.025,3.025,0,0,1-.05-.6.4.4,0,0,0-.057-.215h0a.311.311,0,0,0-.24-.111c-.228-.026-.256-.311-.239-.6a2.852,2.852,0,0,0,.035-.628c-.08-.154-2.813-2.9-2.813-2.9l-2.167-5.149a1.549,1.549,0,0,1,.858-.793,1.664,1.664,0,0,1,1-.005,3.929,3.929,0,0,1,1.261.657c2.063,1.514,3.922,6.049,4.326,7.362Z" transform="translate(-580.724 -345.347)" fill="#5681b9"/>
      </g>
      <circle id="Ellipse_294" data-name="Ellipse 294" cx="2.893" cy="2.893" r="2.893" transform="translate(16.641 0.927)" fill="#ffb6b6"/>
      <path id="Tracé_1601" data-name="Tracé 1601" d="M562.534,317.38a7.953,7.953,0,0,1-1.435.449c.24-.37.572-1.028.811-1.4a2.158,2.158,0,0,0,.31-.615.723.723,0,0,0-.121-.653.531.531,0,0,0-.927.4c-.18-.068-.22-.309-.186-.5a1.284,1.284,0,0,0,.057-.571.553.553,0,0,0-.407-.354,1.292,1.292,0,0,0-.56.01,9.532,9.532,0,0,1-1.588.306,1.736,1.736,0,0,1-.324-.026,1.362,1.362,0,0,0-.03-.909,2.351,2.351,0,0,1-.474.728,1,1,0,0,1-.476-.558,1.167,1.167,0,0,1,.081-.829,1.935,1.935,0,0,1,.2-.335,1.191,1.191,0,0,0,.233-.009,1.3,1.3,0,0,0,.482-.157,2.122,2.122,0,0,1-.446-.171l.019-.022a1.282,1.282,0,0,1,.5-.4.468.468,0,0,1,.567.175,2.753,2.753,0,0,1,3.913.334,1.309,1.309,0,0,0-.37.346,2.231,2.231,0,0,1,.573-.029.606.606,0,0,1,.023.544c.179.166.536.46.308.513a2.821,2.821,0,0,1-.733,3.732Z" transform="translate(-540.548 -311.277)" fill="#2f2e41"/>
    </g>
    <g id="Groupe_1918" data-name="Groupe 1918" transform="translate(84.195 71.914)">
      <g id="Groupe_1914" data-name="Groupe 1914" transform="translate(13.47 53.085)">
        <path id="Tracé_1602" data-name="Tracé 1602" d="M414.446,536.089h1.541l.733-5.942h-2.274Z" transform="translate(-414.392 -530.147)" fill="#a0616a"/>
        <path id="Tracé_1603" data-name="Tracé 1603" d="M414.217,553.866h4.737v-.06a1.844,1.844,0,0,0-1.844-1.844h0l-.865-.656-1.614.657h-.414v1.9Z" transform="translate(-414.217 -546.317)" fill="#2f2e41"/>
      </g>
      <g id="Groupe_1915" data-name="Groupe 1915" transform="translate(0 52.069)">
        <path id="Tracé_1604" data-name="Tracé 1604" d="M359.506,531.46l1.458.5,2.612-5.387-2.152-.734Z" transform="translate(-358.936 -525.836)" fill="#a0616a"/>
        <path id="Tracé_1605" data-name="Tracé 1605" d="M357.088,550.224l4.484,1.529.019-.057a1.844,1.844,0,0,0-1.15-2.34h0l-.607-.9-1.74.1-.391-.134Z" transform="translate(-357.088 -543.097)" fill="#2f2e41"/>
      </g>
      <path id="Tracé_1606" data-name="Tracé 1606" d="M377.748,418.039s1.482,4.552,1.209,5.151-.74.132-.274.6.874-.029.437.763-1.1,7.318-1.391,7.634-.692.324-.336.631.823-.315.356.307-1.705,14.979-1.705,14.979h-2.42s-.6-.695-.262-1.147-.03-.626,0-.928a10.235,10.235,0,0,0-.1-1.25c-.021-.3-.43-7.371.552-11.458l-1.791-7.781-2.17,9.4s-3.482,6.945-4.48,9.481c0,0,.8.67.448,1.058s-.668.077-.357.388-.467,1.4-.467,1.4l-3.588-.156,3.926-13.8s-.252-1.537,0-1.8.252.67.252-.263v-1.245s.146-7.655.166-8.106a30.916,30.916,0,0,1,1.886-3.718l10.111-.149Z" transform="translate(-360.388 -391.387)" fill="#2f2e41"/>
      <path id="Tracé_1607" data-name="Tracé 1607" d="M397.076,347.689v8.976a8.628,8.628,0,0,0-.443,2.7c.01,1.526.345,3.284.344,4.053a1,1,0,0,1-.033.3c-1.486,4.306-9.347.393-10.061.027l-.052-.027.155-4.823-.027-1.387-.184-9.513.165-.132,1.442-1.15.141-.113.433.632,3.862-.265,1.474-.408.46.187,2.073.843Z" transform="translate(-379.776 -336.759)" fill="#3f3d56"/>
      <g id="Groupe_1916" data-name="Groupe 1916" transform="translate(15.085 10.319)">
        <path id="Tracé_1608" data-name="Tracé 1608" d="M468.679,396.51l-2.188-1.828-1.218,1.1,2.382,1.85a.954.954,0,1,0,1.024-1.126Z" transform="translate(-454.85 -383.856)" fill="#a0616a"/>
        <path id="Tracé_1609" data-name="Tracé 1609" d="M421.331,349.195h0c-.508.709-.176,1.858.122,2.677.382,1.053,5.021,5.643,6.207,5.887.919.19.722.17.965.761s-.48.421.408.859,1.045.094,1.088.561-.225.633.408.859a2.929,2.929,0,0,1,.943.527c.2.123,1.3,1.3,1.3,1.3a6.835,6.835,0,0,1,2.066-1.648s-1.487-.808-1.474-1.186.225-.633-.208-.735-.824.263-.544-.281-2.235-2.814-2.235-2.814c-.929-2.1-3.385-4.353-6.124-6.633a2.413,2.413,0,0,0-2.916-.13Z" transform="translate(-421.067 -348.766)" fill="#3f3d56"/>
      </g>
      <g id="Groupe_1917" data-name="Groupe 1917" transform="translate(3.585 10.956)">
        <path id="Tracé_1610" data-name="Tracé 1610" d="M377.381,417.424l-.123-2.848-1.637-.157.237,3.006a.954.954,0,1,0,1.522,0Z" transform="translate(-374.837 -399.577)" fill="#a0616a"/>
        <path id="Tracé_1611" data-name="Tracé 1611" d="M376.547,351.47l-.046.005a2.643,2.643,0,0,0-2.031,1.4c-.521.992-2.17,7.712-1.766,8.634.376.86.361.649.087,1.225s-.634-.072-.36.88.635.836.318,1.182-.62.26-.36.88a2.928,2.928,0,0,1,.246,1.052c.043.231-.085,1.831-.085,1.831a6.836,6.836,0,0,1,2.61.416s-.4-1.643-.117-1.889.62-.26.4-.649-.75-.432-.159-.591.574-3.547.574-3.547Z" transform="translate(-372.291 -351.47)" fill="#3f3d56"/>
      </g>
      <path id="Tracé_1612" data-name="Tracé 1612" d="M396.243,316.8c-.069.016-.138.03-.207.04a2.877,2.877,0,0,1-.638.033,3.012,3.012,0,1,1,3.077-3.763c.006.024.013.048.018.072a3.013,3.013,0,0,1-2.25,3.618Z" transform="translate(-384.186 -309.473)" fill="#a0616a"/>
      <path id="Tracé_1613" data-name="Tracé 1613" d="M391.532,311.973c-.419-.328-.46-.953-.817-1.347a1.972,1.972,0,0,1-.565-2.148c.277-.69.218-1.539.815-1.983-.293-.106-.362-.326-.1-.33.174,0,.824.33.512-.085s.279-.251.24-.421-.29-.264-.4-.129a.877.877,0,0,1,1.376.157c.352-.528.726-.891,1.265-.556s.523.736,1.092.638c.268-.046.293.46.476.661a.816.816,0,0,0,.717.306.436.436,0,0,0,.321-.61l.629,1.435.254-.311c.4.263.271.948-.135,1.206s-1.179-.339-1.4.089c-.347.674-1.161.334-1.719-.143-.678-.578-1.5,1.178-1.169,2.007-.339-.333-.965-.057-1.141.385a2.2,2.2,0,0,0,.083,1.395Z" transform="translate(-382.255 -305.002)" fill="#2f2e41"/>
      <path id="Tracé_1614" data-name="Tracé 1614" d="M400.12,340.838l-.105.134-.282.359-1.045,3.088-4.937-3.614.141-.112.752-1.6,3.862-.265,1.155,1.822Z" transform="translate(-385.106 -330.853)" fill="#e6e6e6"/>
    </g>
    <path id="Tracé_1615" data-name="Tracé 1615" d="M414.172,33.051a28.242,28.242,0,0,0,3.327-9.387,9.953,9.953,0,0,0-4.356.367c2.18-3.633,3.636-8.107,1.741-10.4a11.17,11.17,0,0,0-4.558-2.844,15.137,15.137,0,0,0-.075-7.531c-3.117-10.462-23.748,8.387-36.914.229-5.52-3.419-11.461.889-16.274,7.816a13.982,13.982,0,0,0,3.591,6.126,15.048,15.048,0,0,1-6.236-1.863c-5.15,9.24-8.262,20.808-6.7,26.037a10.185,10.185,0,0,0,6.831,6.847c-.589,2.728,12.147,22.311,14.494,22.291,6.239-.054,8.179-14.225,12.344,3.935L372.1,131.332h13.44V72.9c3.74-5.774,7.6-1.912,16.5-6.406,27.306-13.784,15.665-28.976,12.124-33.441Z" transform="translate(-265.421 0)" fill="#f2f2f2"/>
    <g id="Groupe_1919" data-name="Groupe 1919" transform="translate(29.279 108.195)">
      <path id="Tracé_1616" data-name="Tracé 1616" d="M153.537,460.772l.217,4.2,1.995.545s-.853-4.914-.907-5.062a1.008,1.008,0,1,0-1.306.32Z" transform="translate(-146.207 -458.876)" fill="#ffb6b6"/>
      <path id="Tracé_1617" data-name="Tracé 1617" d="M124.33,506.7l-.047.1C124.125,506.839,124.151,506.794,124.33,506.7Z" transform="translate(-124.178 -495.426)" fill="#6c63ff"/>
      <path id="Tracé_1618" data-name="Tracé 1618" d="M139.3,482.867a10.684,10.684,0,0,0-3.251-.33,15.416,15.416,0,0,0-3.051.448c-.163-.559-.316-1.151-.427-1.709l1.193-.776,1.313-.46,2.749-.962-.035-1.492.29-.134,1.629-.752.038-.017,1.172,3.178a2.309,2.309,0,0,1-1.62,3.006Z" transform="translate(-130.592 -472.484)" fill="#5681b9"/>
    </g>
    <path id="Tracé_1619" data-name="Tracé 1619" d="M59.835,138.168c-.476-4.5-6.925-4.369-5.486-8.7a24.311,24.311,0,0,0-7.375,5.032c5.809-19.006-16.685-4.552-16.685-4.552a78.961,78.961,0,0,1-7.968-3.892c-7-4.764-17.8,7.075-8.829,13.482C3.51,134.827,2.672,142.131.942,150.623a13.982,13.982,0,0,0,3.591,6.126c-2.818-.155-5.559-2.189-4.153,1.939,2.529,5.079,6.766,6,5.916,12.309.063,5.485,10.868,6.892,22.625,5.73-6.71,19.11-10.357,36.848-7.143,51.511H33.284c-3.975-17.679-4.846-35.007-1.425-51.852,13.051-1.738,26.272-6.442,26.578-12.1,1.57-4.1,1.028-8.639-1.16-12.919,2.631-4.841,3.659-9.5,2.558-13.2Z" transform="translate(0 -95.288)" fill="#f2f2f2"/>
    <path id="Tracé_1620" data-name="Tracé 1620" d="M136.135,508.9l.4,1.721s0,1.587.285,1.879,6.416-.294,6.416-.294a21.942,21.942,0,0,1-.642-4.492Z" transform="translate(-104.037 -388.007)" fill="#ffb6b6"/>
    <g id="Groupe_1921" data-name="Groupe 1921" transform="translate(32.778 118.416)">
      <g id="Groupe_1920" data-name="Groupe 1920" transform="translate(20.026 12.879)">
        <path id="Tracé_1621" data-name="Tracé 1621" d="M226.916,562.152l1.056-.761-2.46-4.545-1.559,1.124Z" transform="translate(-223.953 -556.845)" fill="#ffb6b6"/>
        <path id="Tracé_1622" data-name="Tracé 1622" d="M237.009,568.3a.892.892,0,0,0-.059-.073.568.568,0,0,0-.217-.141l0,0a.577.577,0,0,0-.29-.031l-.436.068-1.688.262-.356.057-.641-.674-.248.264-.854.915-.217.231-.167.179,2.063,2.575.707-.672-.507-.788.957.361.54-.514.361-.339.976-.927a.589.589,0,0,0,.174-.33A.57.57,0,0,0,237.009,568.3Z" transform="translate(-229.974 -565.188)" fill="#2f2e41"/>
      </g>
      <path id="Tracé_1623" data-name="Tracé 1623" d="M161.376,516.125l-1.911.856a21.006,21.006,0,0,1-5.22-9.181,25.677,25.677,0,0,1-8.772,7.614c-1.151.624-5.316.848-5.964-.32q-.045-.082-.085-.167c-.6-1.312-.069-4.729-.406-6.465,1.231-2.259,4.235-.434,6.289-1.324l2.3,1,4.264-5.069a2.422,2.422,0,0,1,3.429-.249q.082.07.158.147c.859,1.458,1.681,2.891,2.43,4.278.242.448,1,1.049.7,1.327s.467.917.685,1.365c1.341,2.76,1.9,4.171,2.1,6.19Z" transform="translate(-139.019 -502.223)" fill="#2f2e41"/>
    </g>
    <path id="Tracé_1624" data-name="Tracé 1624" d="M127.578,466.048l2.531-.149a.514.514,0,0,1,.505.317l.715,1.734,2.972,2.457a6.163,6.163,0,0,1,1.18,3.432c0,1.934-.042,5.54-.042,5.54s-1.258-1.547-2.318-.9c-.18.109-.244.333-.433.446-.094.056-.312,0-.407.058a20.95,20.95,0,0,1-3.127,1.566c-.756.154-.993-.43-.483-1.244.167-.265-.136-.538-.136-.538a.6.6,0,0,1-.261-.958l-2.056-7.554a3.152,3.152,0,0,1,.448-2.653.952.952,0,0,1,.489-.425C127.51,467.1,127.322,466.3,127.578,466.048Z" transform="translate(-96.371 -356.047)" fill="#5681b9"/>
    <g id="Groupe_1922" data-name="Groupe 1922" transform="translate(32.946 124.949)">
      <path id="Tracé_1625" data-name="Tracé 1625" d="M245.755,569.946l.481-1.209-4.539-2.47-.709,1.784Z" transform="translate(-217.114 -557.7)" fill="#ffb6b6"/>
      <path id="Tracé_1626" data-name="Tracé 1626" d="M166.817,539.536l-.57,2.172c-3.857-1-7.832-3.36-11.863-6.358-4.448,1.376-8.667,2.2-12.5,1.736a2.47,2.47,0,0,1-2.135-2.7q.01-.093.027-.185c.268-1.416,2.5-2.659,3.223-4.272l4.748,1.13.353.912,1.069-.283.9-.239,1.033-.273,3.388-.9a2.419,2.419,0,0,1,2.943,1.771q.027.1.045.211l4.692,3.651s.419.979.74.576.924.719.924.719l2.982,2.321Z" transform="translate(-139.733 -529.933)" fill="#2f2e41"/>
      <path id="Tracé_1627" data-name="Tracé 1627" d="M262.474,568.678a.581.581,0,0,0-.538.057l-2.089,1.393-.865-.344-.139.424-.436,1.318-.106.323,2.954,1.471.361-.908-.792-.5,1.021-.073.955-2.4a.583.583,0,0,0-.325-.755Z" transform="translate(-230.345 -559.511)" fill="#2f2e41"/>
    </g>
    <path id="Tracé_1628" data-name="Tracé 1628" d="M116.166,438.378a1.906,1.906,0,0,1-.332.835.653.653,0,0,1-.808.194c-.312-.2-.287-.655-.225-1.019l.2-1.157a2.215,2.215,0,0,1,.178-.645.749.749,0,0,1,.5-.414.7.7,0,0,1,.631.25,1.294,1.294,0,0,1,.271.647,2.335,2.335,0,0,1-.448,1.777Z" transform="translate(-87.703 -333.322)" fill="#2f2e41"/>
    <path id="Tracé_1629" data-name="Tracé 1629" d="M106.189,437.377a1.242,1.242,0,0,0-1.767.035,2.234,2.234,0,0,0-.5,1.858c.083.659.43,3.364.539,3.883.137.65-.884,1.124-1.537,1a1.462,1.462,0,0,0,.76,1.081,2,2,0,0,0,1.334.178,2.3,2.3,0,0,0,.529-.171,2.072,2.072,0,0,1-.137-.615,1.711,1.711,0,0,0,.356.5,2.036,2.036,0,0,0,.611-.561,1.765,1.765,0,0,0,.252-1.56,6.111,6.111,0,0,0-1.129-1.534c-.384-.511-.58-1.309-.109-1.742.358-.329.337-.257.818-.18l-.018-2.174Z" transform="translate(-78.656 -333.98)" fill="#2f2e41"/>
    <path id="Tracé_1630" data-name="Tracé 1630" d="M124.242,438.35a2.878,2.878,0,0,1-2.878,2.878c-1.59,0-3.1-1.842-3.1-3.432s1.51-2.325,3.1-2.325A2.878,2.878,0,0,1,124.242,438.35Z" transform="translate(-90.38 -332.795)" fill="#2f2e41"/>
    <circle id="Ellipse_295" data-name="Ellipse 295" cx="2.746" cy="2.746" r="2.746" transform="translate(29.106 103.568)" fill="#ffb6b6"/>
    <path id="Tracé_1631" data-name="Tracé 1631" d="M126.4,440.477c-.813.222-1.634.455-1.951,0a2.5,2.5,0,0,0-.344-.848,3.433,3.433,0,0,1-.2.848,5.913,5.913,0,0,1-.854.064c-.116.2-.648.532-.667.772a.945.945,0,0,0-.128-.068.212.212,0,0,0-.175-.016.151.151,0,0,0-.072.112.418.418,0,0,0,.007.138,1.052,1.052,0,0,0,.138.449.41.41,0,0,0,.278.178c.115.648.37,1.523.37,1.523-2.767.111-3.6-1.932-3.6-3.708l.332-.664h1.107V437.82h3.1a2.657,2.657,0,0,1,2.657,2.657Z" transform="translate(-91.098 -334.59)" fill="#2f2e41"/>
    <g id="Groupe_1923" data-name="Groupe 1923" transform="translate(31.087 113.734)">
      <path id="Tracé_1632" data-name="Tracé 1632" d="M147.59,516.819a1.017,1.017,0,0,1-.928-1.253l-6.56-4.924,1.716-.761,6.143,4.942a1.022,1.022,0,0,1-.372,2Z" transform="translate(-138.157 -503.394)" fill="#ffb6b6"/>
      <path id="Tracé_1633" data-name="Tracé 1633" d="M139.913,492.064l-.29.1-1.65.564-.1-.047c-.658-.323-4.367-2.164-4.588-2.808-.108-.316-.493-1.36-.839-2.542-.163-.559-.316-1.151-.427-1.709a4.463,4.463,0,0,1-.059-2.183,1.5,1.5,0,0,1,1.8-1.028l.769,1.976.971,2.5.785,2.018C137.314,489.176,138.578,490.473,139.913,492.064Z" transform="translate(-131.848 -482.368)" fill="#5681b9"/>
    </g>
    <g id="Groupe_1924" data-name="Groupe 1924" transform="translate(34.544 107.689)">
      <path id="Tracé_1634" data-name="Tracé 1634" d="M149.291,456.829a.55.55,0,0,0-.09.009.31.31,0,0,0-.156-.094.3.3,0,0,0-.094-.012l-2.087.054a.311.311,0,0,0-.231.108.254.254,0,0,0-.042.057.319.319,0,0,0-.026.264,4.316,4.316,0,0,0,.363,2.662.33.33,0,0,0,.316.224l1.356-.035a.066.066,0,0,0,.021,0,.322.322,0,0,0,.285-.236,2.732,2.732,0,0,0,.191-2.054.483.483,0,0,0,.217.045.491.491,0,0,0,.439-.292.474.474,0,0,0,.045-.215.5.5,0,0,0-.507-.483Zm.021.849a.335.335,0,0,1-.174-.042l.106-.38.031-.111a.328.328,0,0,0,0-.172l.021,0a.354.354,0,0,1,.361.344.371.371,0,0,1-.016.116A.353.353,0,0,1,149.312,457.677Z" transform="translate(-146.508 -456.731)" fill="#3f3d56"/>
      <path id="Tracé_1635" data-name="Tracé 1635" d="M147.807,456.79c.044.254.544.433,1.145.4.553-.025,1-.219,1.087-.449a.31.31,0,0,0-.094-.013l-2.087.054a.3.3,0,0,0-.051.006Z" transform="translate(-147.501 -456.729)" fill="#6c63ff"/>
    </g>
  </g>
</svg>
