<svg xmlns="http://www.w3.org/2000/svg" width="167.812" height="136.011" viewBox="0 0 167.812 136.011">
  <g id="Groupe_1928" data-name="Groupe 1928" transform="translate(0.001 -0.001)">
    <path id="Tracé_1649" data-name="Tracé 1649" d="M579.552,632.469H524.27v-.452h55.363Z" transform="translate(-411.822 -496.457)" fill="#3f3d56"/>
    <circle id="Ellipse_297" data-name="Ellipse 297" cx="1.461" cy="1.461" r="1.461" transform="translate(-0.001 0.001)" fill="#e6e6e6"/>
    <circle id="Ellipse_298" data-name="Ellipse 298" cx="1.461" cy="1.461" r="1.461" transform="translate(7.397 0.001)" fill="#e6e6e6"/>
    <circle id="Ellipse_299" data-name="Ellipse 299" cx="1.461" cy="1.461" r="1.461" transform="translate(14.794 0.001)" fill="#e6e6e6"/>
    <circle id="Ellipse_300" data-name="Ellipse 300" cx="1.461" cy="1.461" r="1.461" transform="translate(22.192 0.001)" fill="#e6e6e6"/>
    <circle id="Ellipse_301" data-name="Ellipse 301" cx="1.461" cy="1.461" r="1.461" transform="translate(29.589 0.001)" fill="#e6e6e6"/>
    <circle id="Ellipse_302" data-name="Ellipse 302" cx="1.461" cy="1.461" r="1.461" transform="translate(36.987 0.001)" fill="#e6e6e6"/>
    <circle id="Ellipse_303" data-name="Ellipse 303" cx="1.461" cy="1.461" r="1.461" transform="translate(44.384 0.001)" fill="#e6e6e6"/>
    <circle id="Ellipse_304" data-name="Ellipse 304" cx="1.461" cy="1.461" r="1.461" transform="translate(51.781 0.001)" fill="#e6e6e6"/>
    <circle id="Ellipse_305" data-name="Ellipse 305" cx="1.461" cy="1.461" r="1.461" transform="translate(59.179 0.001)" fill="#e6e6e6"/>
    <circle id="Ellipse_306" data-name="Ellipse 306" cx="1.461" cy="1.461" r="1.461" transform="translate(66.576 0.001)" fill="#e6e6e6"/>
    <circle id="Ellipse_307" data-name="Ellipse 307" cx="1.461" cy="1.461" r="1.461" transform="translate(-0.001 7.491)" fill="#e6e6e6"/>
    <circle id="Ellipse_308" data-name="Ellipse 308" cx="1.461" cy="1.461" r="1.461" transform="translate(7.397 7.491)" fill="#e6e6e6"/>
    <circle id="Ellipse_309" data-name="Ellipse 309" cx="1.461" cy="1.461" r="1.461" transform="translate(14.794 7.491)" fill="#e6e6e6"/>
    <circle id="Ellipse_310" data-name="Ellipse 310" cx="1.461" cy="1.461" r="1.461" transform="translate(22.192 7.491)" fill="#5681b9"/>
    <circle id="Ellipse_311" data-name="Ellipse 311" cx="1.461" cy="1.461" r="1.461" transform="translate(29.589 7.491)" fill="#e6e6e6"/>
    <circle id="Ellipse_312" data-name="Ellipse 312" cx="1.461" cy="1.461" r="1.461" transform="translate(36.987 7.491)" fill="#e6e6e6"/>
    <circle id="Ellipse_313" data-name="Ellipse 313" cx="1.461" cy="1.461" r="1.461" transform="translate(44.384 7.491)" fill="#e6e6e6"/>
    <circle id="Ellipse_314" data-name="Ellipse 314" cx="1.461" cy="1.461" r="1.461" transform="translate(51.781 7.491)" fill="#e6e6e6"/>
    <circle id="Ellipse_315" data-name="Ellipse 315" cx="1.461" cy="1.461" r="1.461" transform="translate(59.179 7.491)" fill="#e6e6e6"/>
    <circle id="Ellipse_316" data-name="Ellipse 316" cx="1.461" cy="1.461" r="1.461" transform="translate(66.576 7.491)" fill="#e6e6e6"/>
    <circle id="Ellipse_317" data-name="Ellipse 317" cx="1.461" cy="1.461" r="1.461" transform="translate(-0.001 14.981)" fill="#e6e6e6"/>
    <circle id="Ellipse_318" data-name="Ellipse 318" cx="1.461" cy="1.461" r="1.461" transform="translate(7.397 14.981)" fill="#e6e6e6"/>
    <circle id="Ellipse_319" data-name="Ellipse 319" cx="1.461" cy="1.461" r="1.461" transform="translate(14.794 14.981)" fill="#e6e6e6"/>
    <circle id="Ellipse_320" data-name="Ellipse 320" cx="1.461" cy="1.461" r="1.461" transform="translate(22.192 14.981)" fill="#e6e6e6"/>
    <circle id="Ellipse_321" data-name="Ellipse 321" cx="1.461" cy="1.461" r="1.461" transform="translate(29.589 14.981)" fill="#e6e6e6"/>
    <circle id="Ellipse_322" data-name="Ellipse 322" cx="1.461" cy="1.461" r="1.461" transform="translate(36.987 14.981)" fill="#e6e6e6"/>
    <circle id="Ellipse_323" data-name="Ellipse 323" cx="1.461" cy="1.461" r="1.461" transform="translate(44.384 14.981)" fill="#e6e6e6"/>
    <circle id="Ellipse_324" data-name="Ellipse 324" cx="1.461" cy="1.461" r="1.461" transform="translate(51.781 14.981)" fill="#e6e6e6"/>
    <circle id="Ellipse_325" data-name="Ellipse 325" cx="1.461" cy="1.461" r="1.461" transform="translate(59.179 14.981)" fill="#e6e6e6"/>
    <circle id="Ellipse_326" data-name="Ellipse 326" cx="1.461" cy="1.461" r="1.461" transform="translate(66.576 14.981)" fill="#e6e6e6"/>
    <circle id="Ellipse_327" data-name="Ellipse 327" cx="1.461" cy="1.461" r="1.461" transform="translate(-0.001 22.472)" fill="#e6e6e6"/>
    <circle id="Ellipse_328" data-name="Ellipse 328" cx="1.461" cy="1.461" r="1.461" transform="translate(7.397 22.472)" fill="#e6e6e6"/>
    <circle id="Ellipse_329" data-name="Ellipse 329" cx="1.461" cy="1.461" r="1.461" transform="translate(14.794 22.472)" fill="#e6e6e6"/>
    <circle id="Ellipse_330" data-name="Ellipse 330" cx="1.461" cy="1.461" r="1.461" transform="translate(22.192 22.472)" fill="#e6e6e6"/>
    <circle id="Ellipse_331" data-name="Ellipse 331" cx="1.461" cy="1.461" r="1.461" transform="translate(29.589 22.472)" fill="#e6e6e6"/>
    <circle id="Ellipse_332" data-name="Ellipse 332" cx="1.461" cy="1.461" r="1.461" transform="translate(36.987 22.472)" fill="#e6e6e6"/>
    <circle id="Ellipse_333" data-name="Ellipse 333" cx="1.461" cy="1.461" r="1.461" transform="translate(44.384 22.472)" fill="#e6e6e6"/>
    <circle id="Ellipse_334" data-name="Ellipse 334" cx="1.461" cy="1.461" r="1.461" transform="translate(51.781 22.472)" fill="#e6e6e6"/>
    <circle id="Ellipse_335" data-name="Ellipse 335" cx="1.461" cy="1.461" r="1.461" transform="translate(59.179 22.472)" fill="#e6e6e6"/>
    <circle id="Ellipse_336" data-name="Ellipse 336" cx="1.461" cy="1.461" r="1.461" transform="translate(66.576 22.472)" fill="#e6e6e6"/>
    <circle id="Ellipse_337" data-name="Ellipse 337" cx="1.461" cy="1.461" r="1.461" transform="translate(-0.001 29.962)" fill="#e6e6e6"/>
    <circle id="Ellipse_338" data-name="Ellipse 338" cx="1.461" cy="1.461" r="1.461" transform="translate(7.397 29.962)" fill="#5681b9"/>
    <circle id="Ellipse_339" data-name="Ellipse 339" cx="1.461" cy="1.461" r="1.461" transform="translate(14.794 29.962)" fill="#e6e6e6"/>
    <circle id="Ellipse_340" data-name="Ellipse 340" cx="1.461" cy="1.461" r="1.461" transform="translate(22.192 29.962)" fill="#e6e6e6"/>
    <circle id="Ellipse_341" data-name="Ellipse 341" cx="1.461" cy="1.461" r="1.461" transform="translate(29.589 29.962)" fill="#e6e6e6"/>
    <circle id="Ellipse_342" data-name="Ellipse 342" cx="1.461" cy="1.461" r="1.461" transform="translate(36.987 29.962)" fill="#e6e6e6"/>
    <circle id="Ellipse_343" data-name="Ellipse 343" cx="1.461" cy="1.461" r="1.461" transform="translate(44.384 29.962)" fill="#e6e6e6"/>
    <circle id="Ellipse_344" data-name="Ellipse 344" cx="1.461" cy="1.461" r="1.461" transform="translate(51.781 29.962)" fill="#e6e6e6"/>
    <circle id="Ellipse_345" data-name="Ellipse 345" cx="1.461" cy="1.461" r="1.461" transform="translate(59.179 29.962)" fill="#e6e6e6"/>
    <circle id="Ellipse_346" data-name="Ellipse 346" cx="1.461" cy="1.461" r="1.461" transform="translate(66.576 29.962)" fill="#e6e6e6"/>
    <circle id="Ellipse_347" data-name="Ellipse 347" cx="1.461" cy="1.461" r="1.461" transform="translate(-0.001 37.452)" fill="#e6e6e6"/>
    <circle id="Ellipse_348" data-name="Ellipse 348" cx="1.461" cy="1.461" r="1.461" transform="translate(7.397 37.452)" fill="#e6e6e6"/>
    <circle id="Ellipse_349" data-name="Ellipse 349" cx="1.461" cy="1.461" r="1.461" transform="translate(14.794 37.452)" fill="#e6e6e6"/>
    <circle id="Ellipse_350" data-name="Ellipse 350" cx="1.461" cy="1.461" r="1.461" transform="translate(22.192 37.452)" fill="#e6e6e6"/>
    <circle id="Ellipse_351" data-name="Ellipse 351" cx="1.461" cy="1.461" r="1.461" transform="translate(29.589 37.452)" fill="#e6e6e6"/>
    <circle id="Ellipse_352" data-name="Ellipse 352" cx="1.461" cy="1.461" r="1.461" transform="translate(36.987 37.452)" fill="#e6e6e6"/>
    <circle id="Ellipse_353" data-name="Ellipse 353" cx="1.461" cy="1.461" r="1.461" transform="translate(44.384 37.452)" fill="#e6e6e6"/>
    <circle id="Ellipse_354" data-name="Ellipse 354" cx="1.461" cy="1.461" r="1.461" transform="translate(51.781 37.452)" fill="#e6e6e6"/>
    <circle id="Ellipse_355" data-name="Ellipse 355" cx="1.461" cy="1.461" r="1.461" transform="translate(59.179 37.452)" fill="#e6e6e6"/>
    <circle id="Ellipse_356" data-name="Ellipse 356" cx="1.461" cy="1.461" r="1.461" transform="translate(66.576 37.452)" fill="#e6e6e6"/>
    <circle id="Ellipse_357" data-name="Ellipse 357" cx="1.461" cy="1.461" r="1.461" transform="translate(-0.001 44.942)" fill="#e6e6e6"/>
    <circle id="Ellipse_358" data-name="Ellipse 358" cx="1.461" cy="1.461" r="1.461" transform="translate(7.397 44.942)" fill="#e6e6e6"/>
    <circle id="Ellipse_359" data-name="Ellipse 359" cx="1.461" cy="1.461" r="1.461" transform="translate(14.794 44.942)" fill="#5681b9"/>
    <circle id="Ellipse_360" data-name="Ellipse 360" cx="1.461" cy="1.461" r="1.461" transform="translate(22.192 44.942)" fill="#e6e6e6"/>
    <circle id="Ellipse_361" data-name="Ellipse 361" cx="1.461" cy="1.461" r="1.461" transform="translate(29.589 44.942)" fill="#e6e6e6"/>
    <circle id="Ellipse_362" data-name="Ellipse 362" cx="1.461" cy="1.461" r="1.461" transform="translate(36.987 44.942)" fill="#e6e6e6"/>
    <circle id="Ellipse_363" data-name="Ellipse 363" cx="1.461" cy="1.461" r="1.461" transform="translate(44.384 44.942)" fill="#e6e6e6"/>
    <circle id="Ellipse_364" data-name="Ellipse 364" cx="1.461" cy="1.461" r="1.461" transform="translate(51.781 44.942)" fill="#e6e6e6"/>
    <circle id="Ellipse_365" data-name="Ellipse 365" cx="1.461" cy="1.461" r="1.461" transform="translate(59.179 44.942)" fill="#e6e6e6"/>
    <circle id="Ellipse_366" data-name="Ellipse 366" cx="1.461" cy="1.461" r="1.461" transform="translate(66.576 44.942)" fill="#e6e6e6"/>
    <circle id="Ellipse_367" data-name="Ellipse 367" cx="1.461" cy="1.461" r="1.461" transform="translate(-0.001 52.433)" fill="#e6e6e6"/>
    <circle id="Ellipse_368" data-name="Ellipse 368" cx="1.461" cy="1.461" r="1.461" transform="translate(7.397 52.433)" fill="#e6e6e6"/>
    <circle id="Ellipse_369" data-name="Ellipse 369" cx="1.461" cy="1.461" r="1.461" transform="translate(14.794 52.433)" fill="#e6e6e6"/>
    <circle id="Ellipse_370" data-name="Ellipse 370" cx="1.461" cy="1.461" r="1.461" transform="translate(22.192 52.433)" fill="#e6e6e6"/>
    <circle id="Ellipse_371" data-name="Ellipse 371" cx="1.461" cy="1.461" r="1.461" transform="translate(29.589 52.433)" fill="#e6e6e6"/>
    <circle id="Ellipse_372" data-name="Ellipse 372" cx="1.461" cy="1.461" r="1.461" transform="translate(36.987 52.433)" fill="#e6e6e6"/>
    <circle id="Ellipse_373" data-name="Ellipse 373" cx="1.461" cy="1.461" r="1.461" transform="translate(44.384 52.433)" fill="#e6e6e6"/>
    <circle id="Ellipse_374" data-name="Ellipse 374" cx="1.461" cy="1.461" r="1.461" transform="translate(51.781 52.433)" fill="#e6e6e6"/>
    <circle id="Ellipse_375" data-name="Ellipse 375" cx="1.461" cy="1.461" r="1.461" transform="translate(59.179 52.433)" fill="#e6e6e6"/>
    <circle id="Ellipse_376" data-name="Ellipse 376" cx="1.461" cy="1.461" r="1.461" transform="translate(66.576 52.433)" fill="#e6e6e6"/>
    <circle id="Ellipse_377" data-name="Ellipse 377" cx="1.461" cy="1.461" r="1.461" transform="translate(-0.001 59.923)" fill="#e6e6e6"/>
    <circle id="Ellipse_378" data-name="Ellipse 378" cx="1.461" cy="1.461" r="1.461" transform="translate(7.397 59.923)" fill="#e6e6e6"/>
    <circle id="Ellipse_379" data-name="Ellipse 379" cx="1.461" cy="1.461" r="1.461" transform="translate(14.794 59.923)" fill="#e6e6e6"/>
    <circle id="Ellipse_380" data-name="Ellipse 380" cx="1.461" cy="1.461" r="1.461" transform="translate(22.192 59.923)" fill="#e6e6e6"/>
    <circle id="Ellipse_381" data-name="Ellipse 381" cx="1.461" cy="1.461" r="1.461" transform="translate(29.589 59.923)" fill="#e6e6e6"/>
    <circle id="Ellipse_382" data-name="Ellipse 382" cx="1.461" cy="1.461" r="1.461" transform="translate(36.987 59.923)" fill="#e6e6e6"/>
    <circle id="Ellipse_383" data-name="Ellipse 383" cx="1.461" cy="1.461" r="1.461" transform="translate(44.384 59.923)" fill="#e6e6e6"/>
    <circle id="Ellipse_384" data-name="Ellipse 384" cx="1.461" cy="1.461" r="1.461" transform="translate(51.781 59.923)" fill="#e6e6e6"/>
    <circle id="Ellipse_385" data-name="Ellipse 385" cx="1.461" cy="1.461" r="1.461" transform="translate(59.179 59.923)" fill="#e6e6e6"/>
    <circle id="Ellipse_386" data-name="Ellipse 386" cx="1.461" cy="1.461" r="1.461" transform="translate(66.576 59.923)" fill="#e6e6e6"/>
    <circle id="Ellipse_387" data-name="Ellipse 387" cx="1.461" cy="1.461" r="1.461" transform="translate(-0.001 67.413)" fill="#e6e6e6"/>
    <circle id="Ellipse_388" data-name="Ellipse 388" cx="1.461" cy="1.461" r="1.461" transform="translate(7.397 67.413)" fill="#e6e6e6"/>
    <circle id="Ellipse_389" data-name="Ellipse 389" cx="1.461" cy="1.461" r="1.461" transform="translate(14.794 67.413)" fill="#e6e6e6"/>
    <circle id="Ellipse_390" data-name="Ellipse 390" cx="1.461" cy="1.461" r="1.461" transform="translate(22.192 67.413)" fill="#e6e6e6"/>
    <circle id="Ellipse_391" data-name="Ellipse 391" cx="1.461" cy="1.461" r="1.461" transform="translate(29.589 67.413)" fill="#e6e6e6"/>
    <circle id="Ellipse_392" data-name="Ellipse 392" cx="1.461" cy="1.461" r="1.461" transform="translate(36.987 67.413)" fill="#e6e6e6"/>
    <circle id="Ellipse_393" data-name="Ellipse 393" cx="1.461" cy="1.461" r="1.461" transform="translate(44.384 67.413)" fill="#e6e6e6"/>
    <circle id="Ellipse_394" data-name="Ellipse 394" cx="1.461" cy="1.461" r="1.461" transform="translate(51.781 67.413)" fill="#e6e6e6"/>
    <circle id="Ellipse_395" data-name="Ellipse 395" cx="1.461" cy="1.461" r="1.461" transform="translate(59.179 67.413)" fill="#e6e6e6"/>
    <circle id="Ellipse_396" data-name="Ellipse 396" cx="1.461" cy="1.461" r="1.461" transform="translate(66.576 67.413)" fill="#e6e6e6"/>
    <path id="Tracé_1650" data-name="Tracé 1650" d="M408.247,193.83a1.848,1.848,0,0,1,1.848,1.848v73.9a1.848,1.848,0,0,1-1.848,1.848H355.222a1.848,1.848,0,0,1-1.848-1.848v-73.9a1.848,1.848,0,0,1,1.848-1.848h53.026" transform="translate(-322.366 -180.769)" fill="#e6e6e6"/>
    <path id="Tracé_1651" data-name="Tracé 1651" d="M362.991,276.92h52.6V203.447h-52.6Z" transform="translate(-329.921 -188.323)" fill="#fff"/>
    <path id="Tracé_1652" data-name="Tracé 1652" d="M445.387,257.643a.37.37,0,0,1,.37.37v.739a.369.369,0,0,1-.369.37H416.195a.37.37,0,0,1-.37-.37v-.739a.37.37,0,0,1,.37-.37h29.192" transform="translate(-371.423 -230.895)" fill="#e6e6e6"/>
    <path id="Tracé_1653" data-name="Tracé 1653" d="M445.387,274.009a.37.37,0,0,1,.37.37v.739a.369.369,0,0,1-.369.37H416.195a.37.37,0,0,1-.37-.37v-.739a.37.37,0,0,1,.37-.37h29.192" transform="translate(-371.423 -243.751)" fill="#e6e6e6"/>
    <path id="Tracé_1654" data-name="Tracé 1654" d="M445.387,290.376a.37.37,0,0,1,.37.37v.739a.37.37,0,0,1-.37.37H416.195a.37.37,0,0,1-.37-.37v-.739a.37.37,0,0,1,.37-.37h29.192" transform="translate(-371.423 -256.607)" fill="#5681b9"/>
    <path id="Tracé_1655" data-name="Tracé 1655" d="M445.387,307.1a.37.37,0,0,1,.37.37v.739a.369.369,0,0,1-.369.37H416.195a.37.37,0,0,1-.37-.37v-.739a.37.37,0,0,1,.37-.37h29.192" transform="translate(-371.423 -269.745)" fill="#e6e6e6"/>
    <path id="Tracé_1656" data-name="Tracé 1656" d="M445.387,323.467a.37.37,0,0,1,.37.37v.739a.369.369,0,0,1-.369.37H416.195a.37.37,0,0,1-.37-.37v-.739a.37.37,0,0,1,.37-.37h29.192" transform="translate(-371.423 -282.601)" fill="#e6e6e6"/>
    <path id="Tracé_1657" data-name="Tracé 1657" d="M445.387,339.834a.37.37,0,0,1,.37.37v.739a.369.369,0,0,1-.37.37H416.195a.37.37,0,0,1-.37-.37V340.2a.37.37,0,0,1,.37-.37h29.192" transform="translate(-371.423 -295.457)" fill="#e6e6e6"/>
    <path id="Tracé_1658" data-name="Tracé 1658" d="M416.846,394.89a.429.429,0,0,0-.429.429v19.929a.429.429,0,0,0,.429.429h28.769a.429.429,0,0,0,.429-.429V395.319a.429.429,0,0,0-.429-.429Z" transform="translate(-371.888 -338.704)" fill="#5681b9"/>
    <path id="Tracé_1659" data-name="Tracé 1659" d="M276.135,70.093l-.3-.08,6.591-24.792H320.65v.313H282.664Z" transform="translate(-216.671 -35.521)" fill="#3f3d56"/>
    <path id="Tracé_1660" data-name="Tracé 1660" d="M696.142,170.157a3.28,3.28,0,1,1,3.28-3.28A3.28,3.28,0,0,1,696.142,170.157Zm0-6.247a2.967,2.967,0,1,0,2.967,2.967,2.967,2.967,0,0,0-2.967-2.967Z" transform="translate(-589.039 -157.021)" fill="#3f3d56"/>
    <circle id="Ellipse_397" data-name="Ellipse 397" cx="1.249" cy="1.249" r="1.249" transform="translate(105.853 8.607)" fill="#5681b9"/>
    <path id="Tracé_1661" data-name="Tracé 1661" d="M109.275,356.941l.3.081L102.939,381.8l-38.227-.073v-.312l37.987.073Z" transform="translate(-50.833 -280.381)" fill="#3f3d56"/>
    <path id="Tracé_1662" data-name="Tracé 1662" d="M246.95,589.4a3.28,3.28,0,1,1-3.286,3.273A3.28,3.28,0,0,1,246.95,589.4Zm-.012,6.247a2.967,2.967,0,1,0-2.962-2.973,2.967,2.967,0,0,0,2.962,2.973Z" transform="translate(-236.188 -491.491)" fill="#3f3d56"/>
    <circle id="Ellipse_398" data-name="Ellipse 398" cx="1.249" cy="1.249" r="1.249" transform="translate(9.507 99.935)" fill="#6c63ff"/>
    <path id="Tracé_1663" data-name="Tracé 1663" d="M608.755,555.9h-2.2l.394-12.2,5.826.315Z" transform="translate(-476.455 -427.085)" fill="#ffb8b8"/>
    <path id="Tracé_1664" data-name="Tracé 1664" d="M798.467,738.752c-.665.3-1.223-2.157-1.784-1.605a4.731,4.731,0,0,1-5.287,1.205l-.049-.008a.981.981,0,0,1-.619-1.279h0a.981.981,0,0,1,.681-.607l1.669-.417,2.621-4.61,2.676-.181h0a6.393,6.393,0,0,1,1.182,5.454C799.316,737.695,798.942,738.536,798.467,738.752Z" transform="translate(-665.866 -602.919)" fill="#2f2e41"/>
    <path id="Tracé_1665" data-name="Tracé 1665" d="M691.863,547.181l-2.05.811L685.691,536.5l5.533-1.85Z" transform="translate(-538.62 -419.974)" fill="#ffb8b8"/>
    <path id="Tracé_1666" data-name="Tracé 1666" d="M907.975,730.472c-.507.527-1.93-1.556-2.249-.836a4.731,4.731,0,0,1-4.473,3.065l-.048.01a.981.981,0,0,1-1.046-.962h0a.982.982,0,0,1,.41-.815l1.4-1,.742-5.251,2.422-1.152h0a6.393,6.393,0,0,1,3.106,4.637A3.163,3.163,0,0,1,907.975,730.472Z" transform="translate(-751.873 -596.854)" fill="#2f2e41"/>
    <path id="Tracé_1667" data-name="Tracé 1667" d="M871.575,398.826l-3.384.87a1.771,1.771,0,0,1-2.211-1.647h0a1.771,1.771,0,0,1,1.827-1.838l2.981.1,5.744-2.092-5.429-4.049.63-5.668,10.581,8.495a1.758,1.758,0,0,1,.653,1.245h0a1.758,1.758,0,0,1-1.289,1.82C879.2,398.081,875.586,398.7,871.575,398.826Z" transform="translate(-725.024 -330.541)" fill="#ffb8b8"/>
    <circle id="Ellipse_399" data-name="Ellipse 399" cx="5.511" cy="5.511" r="5.511" transform="translate(133.325 36.007)" fill="#ffb8b8"/>
    <path id="Tracé_1668" data-name="Tracé 1668" d="M854.222,343.289l-7.4,2.992a10,10,0,0,0-1.732-6.613l6.141-1.417C851.151,340.126,852.165,341.8,854.222,343.289Z" transform="translate(-708.616 -294.213)" fill="#ffb8b8"/>
    <path id="Tracé_1669" data-name="Tracé 1669" d="M841.72,369.383c-5.965.477-9.228-.315-14.249-3.228l1.889-4.409h0a3.647,3.647,0,0,1,1.5-3.491l1.962-1.39,5.983-1.732.268.013a3.275,3.275,0,0,1,3.1,3.02A14.232,14.232,0,0,1,841.72,369.383Z" transform="translate(-694.776 -307.476)" fill="#5681b9"/>
    <path id="Tracé_1670" data-name="Tracé 1670" d="M833.965,412.039l-12.754-1.417-.945-4.094c-2.094-3.161-1.18-6.057,1.26-8.817a18.973,18.973,0,0,0,14.486,3.149C834.44,404.683,832.988,408.44,833.965,412.039Z" transform="translate(-688.201 -340.92)" fill="#2f2e41"/>
    <path id="Tracé_1671" data-name="Tracé 1671" d="M831.431,504.725l-10.156-.551-3.306-26.294-2.677,26.137-12.045-.551c3.674-17.183,6.227-33.495,5.511-48.5l12.6,1.1c4.269,4.5,6.389,11.686,7.636,20.233A230.121,230.121,0,0,1,831.431,504.725Z" transform="translate(-675.748 -385.898)" fill="#2f2e41"/>
    <circle id="Ellipse_400" data-name="Ellipse 400" cx="1.894" cy="1.894" r="1.894" transform="translate(143.008 32.713)" fill="#2f2e41"/>
    <path id="Tracé_1672" data-name="Tracé 1672" d="M874.405,285.574a1.893,1.893,0,0,1,1.893-1.77c-.039,0-.078-.011-.118-.014a1.894,1.894,0,1,0-.243,3.781c.04,0,.079,0,.119,0A1.893,1.893,0,0,1,874.405,285.574Z" transform="translate(-731.455 -251.431)" fill="#2f2e41"/>
    <path id="Tracé_1673" data-name="Tracé 1673" d="M835.457,293.994c-1.689-1.4-6.535.38-6.847,1.322-2.284.311-4.014,1.644-4.014,4.014h0a6.854,6.854,0,0,0,4.573,0c2.662,2.169,2.844,4.9,1.225,8.028l1.992.04,2.469-3.608.118,3.66,4.565-.092v-5.244a10.965,10.965,0,0,0-1.171-5.023A10.077,10.077,0,0,0,835.457,293.994Z" transform="translate(-692.517 -259.042)" fill="#2f2e41"/>
    <ellipse id="Ellipse_401" data-name="Ellipse 401" cx="0.906" cy="1.268" rx="0.906" ry="1.268" transform="translate(137.783 41.681)" fill="#ffb8b8"/>
    <path id="Tracé_1674" data-name="Tracé 1674" d="M788.515,559.928a.318.318,0,0,1,.318.318v12.723a.318.318,0,0,1-.318.318h-9.129a.318.318,0,0,1-.318-.318V560.246a.318.318,0,0,1,.318-.318h9.129" transform="translate(-656.755 -468.344)" fill="#5681b9"/>
    <path id="Tracé_1675" data-name="Tracé 1675" d="M815.837,407.319l.308,5.344a2.32,2.32,0,0,1-2.654,2.429h0c-1.358-.2-1.388-1.527-1.056-2.859l1.268-5.072a114.261,114.261,0,0,0,3.793-32.776,2.681,2.681,0,0,1,2.753-2.727h0a2.679,2.679,0,0,1,2.6,2.773C822.408,386.968,820.58,398.353,815.837,407.319Z" transform="translate(-682.827 -320.455)" fill="#ffb8b8"/>
  </g>
</svg>
