<svg xmlns="http://www.w3.org/2000/svg" width="314" height="167.716" viewBox="0 0 314 167.716">
  <g id="Groupe_1937" data-name="Groupe 1937" transform="translate(0)">
    <path id="Tracé_1868" data-name="Tracé 1868" d="M892.045,425.513c0-13.927-11.3-46.977-25.235-46.977s-25.235,33.049-25.235,46.977a25.235,25.235,0,1,0,50.47,0Z" transform="translate(-578.045 -326.193)" fill="#f2f2f2"/>
    <path id="Tracé_1869" data-name="Tracé 1869" d="M898.433,536.372a.289.289,0,0,1-.289-.289V477.175a.289.289,0,0,1,.577,0v58.909A.289.289,0,0,1,898.433,536.372Z" transform="translate(-609.668 -381.172)" fill="#ccc"/>
    <path id="Tracé_1870" data-name="Tracé 1870" d="M880.035,480.55a.288.288,0,0,1-.218-.1L865.3,463.714a.289.289,0,1,1,.436-.378l14.513,16.737a.289.289,0,0,1-.218.478Z" transform="translate(-591.27 -373.542)" fill="#ccc"/>
    <path id="Tracé_1871" data-name="Tracé 1871" d="M898.433,513.217a.288.288,0,0,1-.2-.492l8.247-8.247a.289.289,0,1,1,.408.408l-8.247,8.247A.288.288,0,0,1,898.433,513.217Z" transform="translate(-609.668 -396.549)" fill="#ccc"/>
    <path id="Tracé_1872" data-name="Tracé 1872" d="M289,506.889c0-7.843-6.362-26.453-14.21-26.453s-14.21,18.611-14.21,26.453a14.21,14.21,0,1,0,28.421,0Z" transform="translate(-253.256 -383.156)" fill="#f2f2f2"/>
    <path id="Tracé_1873" data-name="Tracé 1873" d="M292.593,569.316a.162.162,0,0,1-.162-.162V535.981a.162.162,0,1,1,.325,0v33.173A.163.163,0,0,1,292.593,569.316Z" transform="translate(-271.064 -414.116)" fill="#ccc"/>
    <path id="Tracé_1874" data-name="Tracé 1874" d="M282.233,537.882a.162.162,0,0,1-.123-.056l-8.172-9.425a.163.163,0,1,1,.246-.213l8.173,9.425a.163.163,0,0,1-.123.269Z" transform="translate(-260.704 -409.819)" fill="#ccc"/>
    <path id="Tracé_1875" data-name="Tracé 1875" d="M292.593,556.277a.162.162,0,0,1-.115-.277l4.644-4.644a.162.162,0,0,1,.23.23l-4.644,4.644A.162.162,0,0,1,292.593,556.277Z" transform="translate(-271.064 -422.775)" fill="#ccc"/>
    <path id="Tracé_1876" data-name="Tracé 1876" d="M257.9,603.772a5.932,5.932,0,1,1,11.865,0" transform="translate(-251.759 -448.787)" fill="#f2f2f2"/>
    <path id="Tracé_1877" data-name="Tracé 1877" d="M271.147,606.922a.16.16,0,0,1-.16-.16v-3.127a.16.16,0,1,1,.321,0v3.127a.16.16,0,0,1-.16.16Z" transform="translate(-259.076 -451.937)" fill="#ccc"/>
    <path id="Tracé_1878" data-name="Tracé 1878" d="M268.708,606.356a.16.16,0,0,1-.1-.039l-1.924-1.651a.16.16,0,1,1,.209-.243l1.924,1.651a.16.16,0,0,1-.1.282Z" transform="translate(-256.637 -452.446)" fill="#ccc"/>
    <path id="Tracé_1879" data-name="Tracé 1879" d="M299.346,603.772a5.932,5.932,0,1,1,11.865,0" transform="translate(-274.929 -448.787)" fill="#f2f2f2"/>
    <path id="Tracé_1880" data-name="Tracé 1880" d="M312.6,606.922a.16.16,0,0,1-.16-.16v-3.127a.16.16,0,1,1,.321,0v3.127a.16.16,0,0,1-.16.16Z" transform="translate(-282.247 -451.937)" fill="#ccc"/>
    <path id="Tracé_1881" data-name="Tracé 1881" d="M310.157,606.356a.16.16,0,0,1-.1-.039l-1.924-1.651a.16.16,0,1,1,.209-.243l1.924,1.651a.16.16,0,0,1-.1.282Z" transform="translate(-279.808 -452.446)" fill="#ccc"/>
    <path id="Tracé_1882" data-name="Tracé 1882" d="M465.521,391.252a65.706,65.706,0,1,1,65.706-65.706A65.781,65.781,0,0,1,465.521,391.252Zm0-130.531a64.824,64.824,0,1,0,64.824,64.824A64.9,64.9,0,0,0,465.521,260.721Z" transform="translate(-331.093 -259.839)" fill="#ccc"/>
    <path id="Tracé_1883" data-name="Tracé 1883" d="M548.256,320.695a.441.441,0,0,1-.441-.441V260.28a.441.441,0,1,1,.882,0v59.974a.441.441,0,0,1-.441.441Z" transform="translate(-413.828 -259.839)" fill="#ccc"/>
    <path id="Tracé_1884" data-name="Tracé 1884" d="M620.23,408.721H560.256a.441.441,0,0,1,0-.882H620.23a.441.441,0,1,1,0,.882Z" transform="translate(-420.536 -342.574)" fill="#ccc"/>
    <path id="Tracé_1885" data-name="Tracé 1885" d="M460.265,408.721H400.32a.441.441,0,0,1,0-.882h59.945a.441.441,0,1,1,0,.882Z" transform="translate(-331.129 -342.574)" fill="#ccc"/>
    <path id="Tracé_1886" data-name="Tracé 1886" d="M548.256,480.695a.441.441,0,0,1-.441-.441V420.28a.441.441,0,1,1,.882,0v59.974a.441.441,0,0,1-.441.441Z" transform="translate(-413.828 -349.282)" fill="#ccc"/>
    <path id="Tracé_1887" data-name="Tracé 1887" d="M557.072,347.073a.441.441,0,0,1-.312-.753L598.982,304.1a.441.441,0,0,1,.624.624l-42.221,42.221A.439.439,0,0,1,557.072,347.073Z" transform="translate(-418.756 -284.509)" fill="#ccc"/>
    <path id="Tracé_1888" data-name="Tracé 1888" d="M485.917,347.073a.439.439,0,0,1-.312-.129l-42.221-42.221a.441.441,0,0,1,.624-.624l42.221,42.221a.441.441,0,0,1-.312.753Z" transform="translate(-355.377 -284.509)" fill="#ccc"/>
    <path id="Tracé_1889" data-name="Tracé 1889" d="M599.294,459.069a.439.439,0,0,1-.312-.129l-42.221-42.221a.441.441,0,0,1,.624-.624l42.221,42.221a.441.441,0,0,1-.312.753Z" transform="translate(-418.757 -347.116)" fill="#ccc"/>
    <path id="Tracé_1890" data-name="Tracé 1890" d="M443.7,459.069a.441.441,0,0,1-.312-.753L485.6,416.095a.441.441,0,0,1,.624.624L444.007,458.94A.44.44,0,0,1,443.7,459.069Z" transform="translate(-355.377 -347.117)" fill="#ccc"/>
    <path id="Tracé_1891" data-name="Tracé 1891" d="M491.516,396.741a45.2,45.2,0,1,1,45.2-45.2,45.2,45.2,0,0,1-45.2,45.2Zm0-89.52a44.319,44.319,0,1,0,44.319,44.319A44.319,44.319,0,0,0,491.516,307.221Z" transform="translate(-357.088 -285.833)" fill="#ccc"/>
    <circle id="Ellipse_446" data-name="Ellipse 446" cx="5.292" cy="5.292" r="5.292" transform="translate(129.136 60.415)" fill="#3f3d56"/>
    <path id="Tracé_1892" data-name="Tracé 1892" d="M252.487,235.76l-4.649.135L270.53,144.3l4.218,1.287Z" transform="translate(-138.546 -80.669)" fill="#3f3d56"/>
    <path id="Tracé_1893" data-name="Tracé 1893" d="M323.076,235.76l4.649.135L305.034,144.3l-4.218,1.287Z" transform="translate(-168.162 -80.669)" fill="#3f3d56"/>
    <rect id="Rectangle_3390" data-name="Rectangle 3390" width="14.552" height="7.938" transform="translate(126.931 13.67)" fill="#ccc"/>
    <rect id="Rectangle_3391" data-name="Rectangle 3391" width="5.733" height="6.174" transform="translate(127.813 15.434)" fill="#fff"/>
    <rect id="Rectangle_3392" data-name="Rectangle 3392" width="5.733" height="6.174" transform="translate(134.869 15.434)" fill="#fff"/>
    <path id="Tracé_1894" data-name="Tracé 1894" d="M537.694,314.923a8.388,8.388,0,0,1-8.379-8.379v-.22a1.987,1.987,0,0,1,1.984-1.984h12.789a1.987,1.987,0,0,1,1.984,1.984v.22A8.388,8.388,0,0,1,537.694,314.923Z" transform="translate(-403.486 -284.715)" fill="#ccc"/>
    <path id="Tracé_1895" data-name="Tracé 1895" d="M545.115,285.836H531.653a1.1,1.1,0,0,1-.986-1.6l2.646-5.292a1.1,1.1,0,0,1,.986-.609h8.17a1.1,1.1,0,0,1,.986.609l2.646,5.292a1.1,1.1,0,0,1-.986,1.6Z" transform="translate(-404.177 -270.181)" fill="#5681b9"/>
    <rect id="Rectangle_3393" data-name="Rectangle 3393" width="14.552" height="7.938" transform="translate(166.179 31.31)" fill="#ccc"/>
    <rect id="Rectangle_3394" data-name="Rectangle 3394" width="5.733" height="6.174" transform="translate(167.061 33.074)" fill="#fff"/>
    <rect id="Rectangle_3395" data-name="Rectangle 3395" width="5.733" height="6.174" transform="translate(174.117 33.074)" fill="#fff"/>
    <path id="Tracé_1896" data-name="Tracé 1896" d="M626.694,354.923a8.388,8.388,0,0,1-8.379-8.379v-.22a1.987,1.987,0,0,1,1.984-1.984h12.788a1.987,1.987,0,0,1,1.984,1.984v.22A8.388,8.388,0,0,1,626.694,354.923Z" transform="translate(-453.238 -307.076)" fill="#ccc"/>
    <path id="Tracé_1897" data-name="Tracé 1897" d="M623.858,319.339a.658.658,0,0,0-.592.366L620.621,325a.661.661,0,0,0,.592.957h13.462a.661.661,0,0,0,.592-.957L632.62,319.7a.658.658,0,0,0-.592-.366Z" transform="translate(-454.488 -293.101)" fill="#5681b9"/>
    <rect id="Rectangle_3396" data-name="Rectangle 3396" width="14.552" height="7.938" transform="translate(181.613 70.998)" fill="#ccc"/>
    <rect id="Rectangle_3397" data-name="Rectangle 3397" width="5.733" height="6.174" transform="translate(182.495 72.762)" fill="#fff"/>
    <rect id="Rectangle_3398" data-name="Rectangle 3398" width="5.733" height="6.174" transform="translate(189.551 72.762)" fill="#fff"/>
    <path id="Tracé_1898" data-name="Tracé 1898" d="M661.694,444.923a8.388,8.388,0,0,1-8.379-8.379v-.22a1.987,1.987,0,0,1,1.984-1.984h12.788a1.987,1.987,0,0,1,1.984,1.984v.22A8.388,8.388,0,0,1,661.694,444.923Z" transform="translate(-472.804 -357.388)" fill="#ccc"/>
    <path id="Tracé_1899" data-name="Tracé 1899" d="M669.115,415.836H655.653a1.1,1.1,0,0,1-.986-1.6l2.646-5.292a1.1,1.1,0,0,1,.986-.609h8.17a1.1,1.1,0,0,1,.986.609l2.646,5.292a1.1,1.1,0,0,1-.986,1.6Z" transform="translate(-473.495 -342.853)" fill="#5681b9"/>
    <rect id="Rectangle_3399" data-name="Rectangle 3399" width="14.552" height="7.938" transform="translate(165.297 108.041)" fill="#ccc"/>
    <rect id="Rectangle_3400" data-name="Rectangle 3400" width="5.733" height="6.174" transform="translate(166.179 109.805)" fill="#fff"/>
    <rect id="Rectangle_3401" data-name="Rectangle 3401" width="5.733" height="6.174" transform="translate(173.235 109.805)" fill="#fff"/>
    <path id="Tracé_1900" data-name="Tracé 1900" d="M624.694,528.923a8.388,8.388,0,0,1-8.379-8.379v-.221a1.987,1.987,0,0,1,1.984-1.984h12.789a1.987,1.987,0,0,1,1.984,1.984v.221a8.388,8.388,0,0,1-8.379,8.379Z" transform="translate(-452.12 -404.345)" fill="#ccc"/>
    <path id="Tracé_1901" data-name="Tracé 1901" d="M632.115,499.836H618.653a1.1,1.1,0,0,1-.986-1.6l2.646-5.292a1.1,1.1,0,0,1,.986-.609h8.17a1.1,1.1,0,0,1,.986.609l2.646,5.292a1.1,1.1,0,0,1-.986,1.6Z" transform="translate(-452.811 -389.811)" fill="#5681b9"/>
    <rect id="Rectangle_3402" data-name="Rectangle 3402" width="14.552" height="7.938" transform="translate(102.677 39.247) rotate(180)" fill="#ccc"/>
    <rect id="Rectangle_3403" data-name="Rectangle 3403" width="5.733" height="6.174" transform="translate(101.795 39.247) rotate(180)" fill="#fff"/>
    <rect id="Rectangle_3404" data-name="Rectangle 3404" width="5.733" height="6.174" transform="translate(94.739 39.247) rotate(180)" fill="#fff"/>
    <path id="Tracé_1902" data-name="Tracé 1902" d="M449.694,354.923a8.388,8.388,0,0,1-8.379-8.379v-.22a1.987,1.987,0,0,1,1.984-1.984h12.788a1.987,1.987,0,0,1,1.984,1.984v.22A8.388,8.388,0,0,1,449.694,354.923Z" transform="translate(-354.293 -307.076)" fill="#ccc"/>
    <path id="Tracé_1903" data-name="Tracé 1903" d="M457.115,325.836H443.653a1.1,1.1,0,0,1-.986-1.6l2.646-5.292a1.1,1.1,0,0,1,.986-.609h8.17a1.1,1.1,0,0,1,.986.609l2.646,5.292a1.1,1.1,0,0,1-.986,1.6Z" transform="translate(-354.983 -292.542)" fill="#5681b9"/>
    <rect id="Rectangle_3405" data-name="Rectangle 3405" width="14.552" height="7.938" transform="translate(87.243 78.936) rotate(180)" fill="#ccc"/>
    <rect id="Rectangle_3406" data-name="Rectangle 3406" width="5.733" height="6.174" transform="translate(86.361 78.936) rotate(180)" fill="#fff"/>
    <rect id="Rectangle_3407" data-name="Rectangle 3407" width="5.733" height="6.174" transform="translate(79.305 78.936) rotate(180)" fill="#fff"/>
    <path id="Tracé_1904" data-name="Tracé 1904" d="M414.694,444.923a8.388,8.388,0,0,1-8.379-8.379v-.22a1.987,1.987,0,0,1,1.984-1.984h12.788a1.987,1.987,0,0,1,1.984,1.984v.22A8.388,8.388,0,0,1,414.694,444.923Z" transform="translate(-334.727 -357.388)" fill="#ccc"/>
    <path id="Tracé_1905" data-name="Tracé 1905" d="M422.115,415.836H408.653a1.1,1.1,0,0,1-.986-1.6l2.646-5.292a1.1,1.1,0,0,1,.986-.609h8.17a1.1,1.1,0,0,1,.986.609l2.646,5.292a1.1,1.1,0,0,1-.986,1.6Z" transform="translate(-335.418 -342.853)" fill="#5681b9"/>
    <rect id="Rectangle_3408" data-name="Rectangle 3408" width="14.552" height="7.938" transform="translate(103.559 115.979) rotate(180)" fill="#ccc"/>
    <rect id="Rectangle_3409" data-name="Rectangle 3409" width="5.733" height="6.174" transform="translate(102.677 115.979) rotate(180)" fill="#fff"/>
    <rect id="Rectangle_3410" data-name="Rectangle 3410" width="5.733" height="6.174" transform="translate(95.621 115.979) rotate(180)" fill="#fff"/>
    <path id="Tracé_1906" data-name="Tracé 1906" d="M451.694,528.923a8.388,8.388,0,0,1-8.379-8.379v-.221a1.987,1.987,0,0,1,1.984-1.984h12.789a1.987,1.987,0,0,1,1.984,1.984v.221A8.388,8.388,0,0,1,451.694,528.923Z" transform="translate(-355.411 -404.345)" fill="#ccc"/>
    <path id="Tracé_1907" data-name="Tracé 1907" d="M459.115,499.836H445.653a1.1,1.1,0,0,1-.986-1.6l2.646-5.292a1.1,1.1,0,0,1,.986-.609h8.17a1.1,1.1,0,0,1,.986.609l2.646,5.292a1.1,1.1,0,0,1-.986,1.6Z" transform="translate(-356.101 -389.811)" fill="#5681b9"/>
    <rect id="Rectangle_3411" data-name="Rectangle 3411" width="14.552" height="7.938" transform="translate(126.931 124.798)" fill="#ccc"/>
    <rect id="Rectangle_3412" data-name="Rectangle 3412" width="5.733" height="6.174" transform="translate(127.813 126.562)" fill="#fff"/>
    <rect id="Rectangle_3413" data-name="Rectangle 3413" width="5.733" height="6.174" transform="translate(134.869 126.562)" fill="#fff"/>
    <path id="Tracé_1908" data-name="Tracé 1908" d="M531.858,557.339a1.545,1.545,0,0,0-1.543,1.543v.221a7.938,7.938,0,0,0,15.875,0v-.221a1.545,1.545,0,0,0-1.543-1.543Z" transform="translate(-404.045 -426.147)" fill="#ccc"/>
    <path id="Tracé_1909" data-name="Tracé 1909" d="M534.858,531.339a.658.658,0,0,0-.592.366L531.621,537a.661.661,0,0,0,.591.957h13.462a.661.661,0,0,0,.592-.957L543.62,531.7a.658.658,0,0,0-.592-.366Z" transform="translate(-404.736 -411.612)" fill="#5681b9"/>
    <path id="Tracé_1910" data-name="Tracé 1910" d="M727.184,577.367a.441.441,0,1,0,0-.882h-4.189v-1.764h4.189a.441.441,0,1,0,0-.882h-35.72a.441.441,0,0,0,0,.882h4.189v1.764h-4.189a.441.441,0,0,0,0,.882h4.189v1.764h-4.189a.441.441,0,0,0,0,.882h4.189v1.764H691.9a.882.882,0,0,0,0,1.764h3.568a.657.657,0,0,0-.041.22v6.174a.661.661,0,0,0,1.323,0v-6.174a.658.658,0,0,0-.041-.22h25.217a.657.657,0,0,0-.041.22v6.174a.661.661,0,0,0,1.323,0v-6.174a.657.657,0,0,0-.04-.22h3.568a.882.882,0,0,0,0-1.764h-3.748v-1.764h4.189a.441.441,0,0,0,0-.882h-4.189v-1.764Zm-30.648-2.646h25.577v1.764H696.535Zm25.577,7.056H696.535v-1.764h25.577Zm0-2.646H696.535v-1.764h25.577Z" transform="translate(-493.884 -435.371)" fill="#3f3d56"/>
    <path id="Tracé_1911" data-name="Tracé 1911" d="M387.184,577.367a.441.441,0,1,0,0-.882h-4.189v-1.764h4.189a.441.441,0,1,0,0-.882h-35.72a.441.441,0,1,0,0,.882h4.189v1.764h-4.189a.441.441,0,1,0,0,.882h4.189v1.764h-4.189a.441.441,0,0,0,0,.882h4.189v1.764H351.9a.882.882,0,1,0,0,1.764h3.568a.657.657,0,0,0-.04.22v6.174a.661.661,0,0,0,1.323,0v-6.174a.657.657,0,0,0-.04-.22h25.217a.658.658,0,0,0-.04.22v6.174a.661.661,0,0,0,1.323,0v-6.174a.655.655,0,0,0-.04-.22h3.568a.882.882,0,0,0,0-1.764h-3.748v-1.764h4.189a.441.441,0,1,0,0-.882h-4.189v-1.764Zm-30.648-2.646h25.577v1.764H356.535Zm25.577,7.056H356.535v-1.764h25.577Zm0-2.646H356.535v-1.764h25.577Z" transform="translate(-303.818 -435.371)" fill="#3f3d56"/>
    <path id="Tracé_1912" data-name="Tracé 1912" d="M745.507,572.985h-1.323a.662.662,0,0,1-.661-.661V571a.662.662,0,0,1,.661-.661h1.323a.662.662,0,0,1,.661.661v1.323a.662.662,0,0,1-.661.661Z" transform="translate(-523.232 -433.414)" fill="#ccc"/>
    <path id="Tracé_1913" data-name="Tracé 1913" d="M746.02,539.746a.421.421,0,0,1-.075-.006.441.441,0,0,1-.36-.509l4.361-25.377a.441.441,0,0,1,.869.149l-4.361,25.377A.441.441,0,0,1,746.02,539.746Z" transform="translate(-524.381 -401.633)" fill="#ccc"/>
    <path id="Tracé_1914" data-name="Tracé 1914" d="M740.49,539.746a.441.441,0,0,1-.434-.366L735.7,514a.441.441,0,0,1,.869-.149l4.361,25.377a.441.441,0,0,1-.36.509.421.421,0,0,1-.075.006Z" transform="translate(-518.852 -401.633)" fill="#ccc"/>
    <path id="Tracé_1915" data-name="Tracé 1915" d="M756.723,496.729c.425-3.012-1.183-5.729-3.593-6.069s-4.707,1.826-5.132,4.837c-.359,2.54.732,4.864,2.527,5.736l-.1.724,2.181.308.1-.724C754.673,501.2,756.364,499.269,756.723,496.729Z" transform="translate(-525.696 -388.853)" fill="#5681b9"/>
    <path id="Tracé_1916" data-name="Tracé 1916" d="M733.768,495.374c-.522-3-2.888-5.087-5.285-4.669s-3.917,3.185-3.4,6.181c.44,2.527,2.193,4.4,4.169,4.68l.125.72,2.17-.378-.125-.72C733.193,500.259,734.208,497.9,733.768,495.374Z" transform="translate(-512.869 -388.867)" fill="#ccc"/>
    <path id="Tracé_1917" data-name="Tracé 1917" d="M745.964,537.651a.441.441,0,0,1-.441-.441V511.122a.441.441,0,0,1,.882,0V537.21A.441.441,0,0,1,745.964,537.651Z" transform="translate(-524.35 -400.064)" fill="#ccc"/>
    <path id="Tracé_1918" data-name="Tracé 1918" d="M744.724,493.337c0-3.041-1.972-5.507-4.406-5.507s-4.406,2.466-4.406,5.507c0,2.565,1.4,4.714,3.3,5.326v.731h2.2v-.731C743.319,498.052,744.724,495.9,744.724,493.337Z" transform="translate(-518.978 -387.29)" fill="#5681b9"/>
    <path id="Tracé_1919" data-name="Tracé 1919" d="M557.288,612.045H244.5a.525.525,0,1,1,0-1.05H557.288a.525.525,0,1,1,0,1.05Z" transform="translate(-243.977 -456.141)" fill="#ccc"/>
    <path id="Tracé_1920" data-name="Tracé 1920" d="M551.6,346.5h-1l-.477-3.869h1.48Z" transform="translate(-307.526 -191.538)" fill="#a0616a"/>
    <path id="Tracé_1921" data-name="Tracé 1921" d="M547.888,350.757h2.078v1.218h-3.152v-.143a1.075,1.075,0,0,1,1.075-1.075Z" transform="translate(-305.678 -196.079)" fill="#2f2e41"/>
    <path id="Tracé_1922" data-name="Tracé 1922" d="M566.234,344.369l-.912.417-2.041-3.321,1.346-.615Z" transform="translate(-314.883 -190.541)" fill="#a0616a"/>
    <path id="Tracé_1923" data-name="Tracé 1923" d="M1.075,0H3.152V1.218H0V1.075A1.075,1.075,0,0,1,1.075,0Z" transform="translate(248.559 154.789) rotate(-24.548)" fill="#2f2e41"/>
    <path id="Tracé_1924" data-name="Tracé 1924" d="M794.963,590.31H794a.369.369,0,0,1-.367-.341l-.523-13.954a.368.368,0,0,1,.4-.393l5.542.589a.369.369,0,0,1,.332.36l.116,6.155a.287.287,0,0,0,.019.1l2.273,5.9a.368.368,0,0,1-.216.478l-.971.358a.368.368,0,0,1-.455-.177l-2.793-5.43a.374.374,0,0,1-.033-.094l-.477-2.3a.286.286,0,0,0-.565.026l-.962,8.4A.368.368,0,0,1,794.963,590.31Z" transform="translate(-550.954 -436.366)" fill="#2f2e41"/>
    <circle id="Ellipse_447" data-name="Ellipse 447" cx="2.009" cy="2.009" r="2.009" transform="translate(242.477 124.719)" fill="#a0616a"/>
    <path id="Tracé_1925" data-name="Tracé 1925" d="M796.653,565.2a7.266,7.266,0,0,1-3.673-1.05h0a.366.366,0,0,1-.173-.339l.489-6.985a3.028,3.028,0,0,1,1.381-2.344,2.915,2.915,0,0,1,2.6-.31,2.053,2.053,0,0,1,.529.274,3.493,3.493,0,0,1,1.431,3.331,32.946,32.946,0,0,0,.1,6.793l0,.029-.027.012A6.3,6.3,0,0,1,796.653,565.2Z" transform="translate(-550.782 -424.281)" fill="#5681b9"/>
    <path id="Tracé_1926" data-name="Tracé 1926" d="M805.646,576.677a.823.823,0,0,0,.066-1.26l1.179-2.675-1.5.254-.89,2.5a.827.827,0,0,0,1.143,1.18Z" transform="translate(-557.217 -434.757)" fill="#a0616a"/>
    <path id="Tracé_1927" data-name="Tracé 1927" d="M805.834,567.081a.367.367,0,0,1-.271-.12l-.44-.48a.37.37,0,0,1-.082-.353l1.007-3.407-1.532-3.217a.68.68,0,0,1,1.212-.615l2.071,3.36a.937.937,0,0,1,.056.878l-1.686,3.736a.367.367,0,0,1-.277.212A.379.379,0,0,1,805.834,567.081Z" transform="translate(-557.291 -426.814)" fill="#5681b9"/>
    <path id="Tracé_1928" data-name="Tracé 1928" d="M796.744,545.424c-.208.036-.38-.254-.406-.458a3.589,3.589,0,0,1,.057-.6.494.494,0,0,0-.3-.509c-.221-.063-.425.114-.651.093-.315-.03-.473-.4-.511-.7s-.068-.651-.341-.821-.608-.046-.92-.041a1.257,1.257,0,0,1-1.189-.89.3.3,0,0,0,.342-.137.3.3,0,0,0-.091-.358l.6.293a.321.321,0,0,1,.212-.419,1.13,1.13,0,0,1,.555-.006c.937.146,2.022.074,2.643.788a3.31,3.31,0,0,1,.736,2.045A5.678,5.678,0,0,1,796.744,545.424Z" transform="translate(-550.603 -416.924)" fill="#2f2e41"/>
    <path id="Tracé_1929" data-name="Tracé 1929" d="M777.445,558.865a.823.823,0,0,1,1.182.44l2.924-.021-.827,1.274-2.649-.175a.827.827,0,0,1-.629-1.517Z" transform="translate(-541.959 -426.94)" fill="#a0616a"/>
    <path id="Tracé_1930" data-name="Tracé 1930" d="M781.421,558.382a.367.367,0,0,1,.062-.29l.38-.528a.37.37,0,0,1,.329-.152l3.42-.143,2.958-1.721a.68.68,0,0,1,.849,1.062l-2.867,2.712a.937.937,0,0,1-.848.234l-4-.889a.367.367,0,0,1-.264-.228A.377.377,0,0,1,781.421,558.382Z" transform="translate(-544.413 -425.068)" fill="#5681b9"/>
    <path id="Tracé_1931" data-name="Tracé 1931" d="M664.5,602.329a.847.847,0,0,0-.66-1.119l-.508-2.967-1.142,1.069.657,2.654a.852.852,0,0,0,1.652.363Z" transform="translate(-477.767 -449.013)" fill="#ffb8b8"/>
    <path id="Tracé_1932" data-name="Tracé 1932" d="M660.566,591.29l-1.121.294a.211.211,0,0,1-.256-.146l-2.015-7.138-.609-1.821a1.1,1.1,0,0,1,1.172-1.436h0a1.1,1.1,0,0,1,.92.777l1.61,5.441.454,3.8a.212.212,0,0,1-.111.211A.206.206,0,0,1,660.566,591.29Z" transform="translate(-474.59 -439.393)" fill="#5681b9"/>
    <circle id="Ellipse_448" data-name="Ellipse 448" cx="2.069" cy="2.069" r="2.069" transform="translate(179.811 136.308)" fill="#ffb8b8"/>
    <path id="Tracé_1933" data-name="Tracé 1933" d="M397.373,372.585l-.99-.295.665-3.958,1.461.435Z" transform="translate(-221.585 -205.904)" fill="#ffb8b8"/>
    <path id="Tracé_1934" data-name="Tracé 1934" d="M638.484,637.731l-3.192-.95.012-.04a1.3,1.3,0,0,1,1.612-.873h0l1.949.58Z" transform="translate(-462.729 -470.016)" fill="#2f2e41"/>
    <path id="Tracé_1935" data-name="Tracé 1935" d="M421.288,372.811h-1.033l-.491-3.983h1.019Z" transform="translate(-234.656 -206.181)" fill="#ffb8b8"/>
    <path id="Tracé_1936" data-name="Tracé 1936" d="M663.573,638.273h-3.33v-.042a1.3,1.3,0,0,1,1.3-1.3h2.034Z" transform="translate(-476.677 -470.642)" fill="#2f2e41"/>
    <path id="Tracé_1937" data-name="Tracé 1937" d="M641.578,612.943h-1.037a.379.379,0,0,1-.373-.448c-.661-.294,2.9-17.368,3.74-17.038l.028-.04,4.236.346c1.9,3.8,3.1,10.081,4.222,16.641a.379.379,0,0,1-.349.472l-1.165.057a.377.377,0,0,1-.37-.238l-4.464-11.159a.121.121,0,0,0-.12-.079.124.124,0,0,0-.116.085l-3.874,11.147a.379.379,0,0,1-.358.255Z" transform="translate(-465.409 -447.434)" fill="#2f2e41"/>
    <path id="Tracé_1938" data-name="Tracé 1938" d="M652.865,587.3l-.032,0-4.51-.34.791-5.031a2.635,2.635,0,0,1,2.251-2.208h0l.1-.014a2.6,2.6,0,0,1,2.366.947,2.636,2.636,0,0,1,.451,2.541Z" transform="translate(-470.013 -438.637)" fill="#5681b9"/>
    <path id="Tracé_1939" data-name="Tracé 1939" d="M658.481,572.165c-1.423.651-3.353.534-5.56,0a3.2,3.2,0,0,0,.273-2.237,1.806,1.806,0,0,1-.059-1.446,2.781,2.781,0,0,1,2.566-1.708h0a2.78,2.78,0,0,1,2.78,2.78Z" transform="translate(-472.584 -431.421)" fill="#2f2e41"/>
    <path id="Tracé_1940" data-name="Tracé 1940" d="M408.446,307.363h1.531v2.175h-3.706a2.175,2.175,0,0,1,2.175-2.175Z" transform="translate(-227.113 -171.821)" fill="#2f2e41"/>
    <path id="Tracé_1941" data-name="Tracé 1941" d="M646.287,603.3a.847.847,0,0,0-.058-1.3l.942-2.859-1.51.409L645,602.207a.852.852,0,0,0,1.289,1.1Z" transform="translate(-468.075 -449.517)" fill="#ffb8b8"/>
    <path id="Tracé_1942" data-name="Tracé 1942" d="M646.454,591.517l-1.128-.265a.212.212,0,0,1-.158-.249l1.565-7.249.316-1.894a1.1,1.1,0,0,1,1.708-.72h0a1.1,1.1,0,0,1,.449,1.118l-1.128,5.561-1.379,3.57a.212.212,0,0,1-.2.135A.2.2,0,0,1,646.454,591.517Z" transform="translate(-468.247 -439.341)" fill="#5681b9"/>
    <path id="Tracé_1943" data-name="Tracé 1943" d="M720.569,564.9a.852.852,0,0,0-.128.044l-3.39-2.187.047-.979-1.468-.264-.251,1.725a.651.651,0,0,0,.374.686l4.175,1.906a.854.854,0,1,0,.641-.931Z" transform="translate(-507.495 -428.482)" fill="#ffb8b8"/>
    <path id="Tracé_1944" data-name="Tracé 1944" d="M716.182,559.9l-1.818-.336a.366.366,0,0,1-.28-.478l.6-1.744a1.016,1.016,0,1,1,2,.375l-.065,1.836a.366.366,0,0,1-.432.347Z" transform="translate(-506.764 -425.687)" fill="#3f3d56"/>
    <path id="Tracé_1945" data-name="Tracé 1945" d="M726.523,552.637a.857.857,0,0,0-.019.133l-3.494,2.016-.849-.489-.905,1.185,1.419,1.012a.651.651,0,0,0,.781-.019l3.6-2.842a.854.854,0,1,0-.535-1Z" transform="translate(-510.784 -423.15)" fill="#ffb8b8"/>
    <path id="Tracé_1946" data-name="Tracé 1946" d="M720.717,556.465l-1.129,1.464a.366.366,0,0,1-.553.03l-1.278-1.328A1.016,1.016,0,1,1,719,555.026l1.6.9a.366.366,0,0,1,.111.543Z" transform="translate(-508.608 -424.734)" fill="#ccc"/>
    <circle id="Ellipse_449" data-name="Ellipse 449" cx="1.998" cy="1.998" r="1.998" transform="translate(205.487 124.242)" fill="#ffb8b8"/>
    <path id="Tracé_1947" data-name="Tracé 1947" d="M474.781,346.254h1l.474-3.846h-1.472Z" transform="translate(-265.411 -191.412)" fill="#ffb8b8"/>
    <path id="Tracé_1948" data-name="Tracé 1948" d="M718.182,610.231h1.964a1.251,1.251,0,0,1,1.252,1.252v.041h-3.215Z" transform="translate(-509.066 -455.714)" fill="#2f2e41"/>
    <path id="Tracé_1949" data-name="Tracé 1949" d="M467.035,346.254h1l.475-3.846h-1.472Z" transform="translate(-261.081 -191.412)" fill="#ffb8b8"/>
    <path id="Tracé_1950" data-name="Tracé 1950" d="M710.435,610.231H712.4a1.251,1.251,0,0,1,1.251,1.251v.041h-3.215Z" transform="translate(-504.735 -455.714)" fill="#2f2e41"/>
    <path id="Tracé_1951" data-name="Tracé 1951" d="M713.461,591.13l-1.017-7.869a.04.04,0,0,0-.041-.038.039.039,0,0,0-.04.039l-.292,7.755a.365.365,0,0,1-.366.352H710.5a.364.364,0,0,1-.366-.357l-.314-12.921,5.405.054.135,12.963a.366.366,0,0,1-.128.27.361.361,0,0,1-.281.085l-1.171,0a.366.366,0,0,1-.316-.336Z" transform="translate(-504.39 -437.747)" fill="#2f2e41"/>
    <path id="Tracé_1952" data-name="Tracé 1952" d="M709.023,563.808a.366.366,0,0,1-.231-.287l-.054-7.1c-.239-1.581-.521-3.13.861-3.932l.122-.365a.2.2,0,0,1,.187-.139l2.622-.075a.2.2,0,0,1,.193.123l.2.455.069.039a3.856,3.856,0,0,1,1.919,3.807l-.15,1.266-.107,5.916a.369.369,0,0,1-.192.316,4.977,4.977,0,0,1-2.4.56A9.009,9.009,0,0,1,709.023,563.808Z" transform="translate(-503.676 -423.111)" fill="#ccc"/>
    <path id="Tracé_1953" data-name="Tracé 1953" d="M711.575,544.95a2.131,2.131,0,1,1,.4-4.215,2.45,2.45,0,0,1,1.462-.4,1.433,1.433,0,0,1,1.21.827,1.023,1.023,0,0,1-.49,1.3,1.849,1.849,0,0,1-.975.014,1.455,1.455,0,0,0-.964.085c-.283.168-.411.619-.157.829a.874.874,0,0,1,.251.961.955.955,0,0,1-.735.6Z" transform="translate(-504.155 -416.639)" fill="#2f2e41"/>
    <path id="Tracé_1954" data-name="Tracé 1954" d="M207.664,373.023h.972l.462-3.748h-1.435Z" transform="translate(-116.088 -206.431)" fill="#ffb8b8"/>
    <path id="Tracé_1955" data-name="Tracé 1955" d="M450.67,638.106v-1.621h2.095a1.4,1.4,0,0,1,1.4,1.4v.221Z" transform="translate(-359.522 -470.391)" fill="#2f2e41"/>
    <path id="Tracé_1956" data-name="Tracé 1956" d="M195.786,373.023h.971l.462-3.748h-1.434Z" transform="translate(-109.448 -206.431)" fill="#ffb8b8"/>
    <path id="Tracé_1957" data-name="Tracé 1957" d="M438.792,638.106v-1.621h2.095a1.4,1.4,0,0,1,1.4,1.4v.221Z" transform="translate(-352.882 -470.391)" fill="#2f2e41"/>
    <circle id="Ellipse_450" data-name="Ellipse 450" cx="2.088" cy="2.088" r="2.088" transform="translate(87.097 135.77)" fill="#ffb8b8"/>
    <path id="Tracé_1958" data-name="Tracé 1958" d="M458.327,600.719a.8.8,0,0,0-1.028-.661l-1.167-1.4-1.023.5,1.675,1.952a.8.8,0,0,0,1.542-.394Z" transform="translate(-362.004 -449.245)" fill="#ffb8b8"/>
    <path id="Tracé_1959" data-name="Tracé 1959" d="M437.252,602.683a.8.8,0,0,0-.513-1.11l-.234-1.806-1.132-.125.367,2.546a.8.8,0,0,0,1.513.495Z" transform="translate(-350.97 -449.795)" fill="#ffb8b8"/>
    <path id="Tracé_1960" data-name="Tracé 1960" d="M437.614,580.894h0a1.027,1.027,0,0,0-1.764.249l-1.711,4.271a2.654,2.654,0,0,0-.162,1.377l.557,3.754a.34.34,0,0,0,.436.275l.734-.226a.34.34,0,0,0,.238-.365h0a12.352,12.352,0,0,1,.992-6.48l.807-1.8A1.027,1.027,0,0,0,437.614,580.894Z" transform="translate(-350.175 -439.093)" fill="#ccc"/>
    <path id="Tracé_1961" data-name="Tracé 1961" d="M442.18,571.069a2.228,2.228,0,1,1,.417-4.405,2.561,2.561,0,0,1,1.528-.419,1.5,1.5,0,0,1,1.264.864,1.069,1.069,0,0,1-.512,1.358,1.931,1.931,0,0,1-1.019.015,1.52,1.52,0,0,0-1.008.089c-.3.176-.429.646-.164.866a.913.913,0,0,1,.262,1A1,1,0,0,1,442.18,571.069Z" transform="translate(-353.504 -431.124)" fill="#2f2e41"/>
    <path id="Tracé_1962" data-name="Tracé 1962" d="M438.721,602.974l-.37,14.055a.34.34,0,0,0,.357.349l1.22-.062a.34.34,0,0,0,.318-.286L441.7,607.9a.17.17,0,0,1,.334-.01L444,616.679a.34.34,0,0,0,.446.246l1.211-.074a.34.34,0,0,0,.225-.344l-1.057-13.666Z" transform="translate(-352.636 -451.583)" fill="#2f2e41"/>
    <path id="Tracé_1963" data-name="Tracé 1963" d="M437.818,582.64a3.831,3.831,0,0,1,3.5-4.208c.92-.065,2.347-.089,2.818,1.117,1.418,3.631-1.064,3.543-.209,6.688s1.61,3.326.437,3.553-6.449,1.568-6.232-.646A46.783,46.783,0,0,0,437.818,582.64Z" transform="translate(-352.326 -437.924)" fill="#ccc"/>
    <path id="Tracé_1964" data-name="Tracé 1964" d="M449.819,580.07h0a1.027,1.027,0,0,0-1.385,1.12l.666,4.165a4.069,4.069,0,0,0,.873,1.939l2.164,2.637a.34.34,0,0,0,.516.012l.514-.571a.34.34,0,0,0,.017-.435l-.151-.2a11.45,11.45,0,0,1-2.3-5.626l-.265-2.209A1.027,1.027,0,0,0,449.819,580.07Z" transform="translate(-358.265 -438.815)" fill="#ccc"/>
    <path id="Tracé_1965" data-name="Tracé 1965" d="M461.118,596.389a.819.819,0,0,0,.293-1.221l.612-5.986H460.7l-.487,5.845a.823.823,0,0,0,.9,1.362Z" transform="translate(-364.695 -443.948)" fill="#a0616a"/>
    <circle id="Ellipse_451" data-name="Ellipse 451" cx="1.872" cy="1.872" r="1.872" transform="translate(95.766 138.187)" fill="#a0616a"/>
    <path id="Tracé_1966" data-name="Tracé 1966" d="M464.008,589.163a.342.342,0,0,1-.33-.251,18.933,18.933,0,0,0-1.16-2.739,2.268,2.268,0,0,1,1.288-3.132h0a2.268,2.268,0,0,1,2.913,1.444,11.222,11.222,0,0,1,.425,3.742.344.344,0,0,1-.269.317l-2.794.61A.339.339,0,0,1,464.008,589.163Z" transform="translate(-366.018 -440.443)" fill="#5681b9"/>
    <path id="Tracé_1967" data-name="Tracé 1967" d="M228.343,372.988h.934l.445-3.6h-1.379Z" transform="translate(-127.648 -206.492)" fill="#a0616a"/>
    <path id="Tracé_1968" data-name="Tracé 1968" d="M474.744,637.866h-3.378V636.29h2.023a1.355,1.355,0,0,1,1.355,1.355Z" transform="translate(-371.092 -470.282)" fill="#2f2e41"/>
    <path id="Tracé_1969" data-name="Tracé 1969" d="M207.156,370.807l.819.45,2.126-2.944-1.208-.665Z" transform="translate(-115.804 -205.522)" fill="#a0616a"/>
    <path id="Tracé_1970" data-name="Tracé 1970" d="M452.068,636.23l-2.96-1.627.759-1.381,1.772.975a1.355,1.355,0,0,1,.535,1.84Z" transform="translate(-358.649 -468.566)" fill="#2f2e41"/>
    <path id="Tracé_1971" data-name="Tracé 1971" d="M461.524,611.359a.343.343,0,0,1-.34-.3l-1.169-9a.191.191,0,0,0-.356-.068l-4.87,8.836a.345.345,0,0,1-.422.155l-1.062-.4a.343.343,0,0,1-.2-.45l3.374-8.287a.263.263,0,0,0,.017-.066,12.594,12.594,0,0,1,1.965-5.8.266.266,0,0,0,.038-.242l-.047-.142a.343.343,0,0,1,.066-.334c1.245-1.418,3.414-.644,3.436-.636l.011,0,.007.009c2.433,3.336,1.533,14.172,1.328,16.31a.342.342,0,0,1-.315.309l-1.438.111Z" transform="translate(-360.872 -446.863)" fill="#2f2e41"/>
    <path id="Tracé_1972" data-name="Tracé 1972" d="M475.631,581.594a.8.8,0,0,0-.018.125l-3.274,1.889-.8-.458-.848,1.111,1.33.948a.61.61,0,0,0,.732-.018l3.376-2.663a.8.8,0,1,0-.5-.933Z" transform="translate(-370.716 -439.361)" fill="#a0616a"/>
    <path id="Tracé_1973" data-name="Tracé 1973" d="M470.191,585.182l-1.058,1.371a.343.343,0,0,1-.519.028l-1.2-1.244a.953.953,0,0,1,1.168-1.5l1.5.84a.343.343,0,0,1,.1.509Z" transform="translate(-368.677 -440.846)" fill="#5681b9"/>
    <path id="Tracé_1974" data-name="Tracé 1974" d="M462.357,588.528l-1.7-.308a.343.343,0,0,1-.264-.447l.553-1.636a.952.952,0,1,1,1.874.344l-.054,1.721a.343.343,0,0,1-.4.327Z" transform="translate(-364.945 -441.809)" fill="#6c63ff"/>
    <path id="Tracé_1975" data-name="Tracé 1975" d="M457.518,573.565c.481.329,1.113.668,1.6.317a.894.894,0,0,0,.294-1.031,2.2,2.2,0,0,0-1.5-1.2,4.307,4.307,0,0,0-2.508-.319,1.78,1.78,0,0,0-1.413,1.857c.12.678.76,1.242.669,1.924s-.864,1.048-1.546,1.171a3.472,3.472,0,0,0-1.935.652,1.818,1.818,0,0,0,.119,2.4,4.382,4.382,0,0,0,2.336,1.162,5.684,5.684,0,0,0,3.455-.036,2.509,2.509,0,0,0,1.611-2.779,3.877,3.877,0,0,0-.746-1.272,3.544,3.544,0,0,1-.722-1.283,1.334,1.334,0,0,1,.241-1.167.338.338,0,0,0,.045-.4Z" transform="translate(-359.584 -433.936)" fill="#2f2e41"/>
  </g>
</svg>
