<svg xmlns="http://www.w3.org/2000/svg" width="178.219" height="122.186" viewBox="0 0 178.219 122.186">
  <g id="Groupe_1927" data-name="Groupe 1927" transform="translate(0 0)">
    <g id="Groupe_1926" data-name="Groupe 1926" transform="translate(41.238 63.066)">
      <path id="Tracé_1636" data-name="Tracé 1636" d="M559.147,250.878H564.4l.02-.02a4.369,4.369,0,0,0,.709-4.982l-1.6-3.128.635-11.208a.749.749,0,0,0-.748-.791h-.983a.747.747,0,0,0-.749.72l-.428,11.078-2.215,3.459a4.371,4.371,0,0,0-.016,4.689h0Z" transform="translate(-558.354 -230.749)" fill="#3f3d56"/>
      <path id="Tracé_1637" data-name="Tracé 1637" d="M561.447,292.807h0a.272.272,0,0,0,.23.126h4a.27.27,0,0,0,.2-.09,3.534,3.534,0,0,0,.855-2.757.265.265,0,0,0-.2-.224,11.7,11.7,0,0,0-2.93-.348,12.378,12.378,0,0,0-2.36.218.267.267,0,0,0-.205.185,3.538,3.538,0,0,0,.4,2.89Z" transform="translate(-560.202 -273.453)" fill="#5681b9"/>
    </g>
    <path id="Tracé_1638" data-name="Tracé 1638" d="M.242,311.613H177.977a.275.275,0,0,0,0-.547H.242a.275.275,0,0,0,0,.547Z" transform="translate(0 -226.049)" fill="#3f3d56"/>
    <path id="b" d="M216.927,108.372c2.939-.88,4.867-3.109,4.307-4.979s-3.4-2.673-6.336-1.792a7.678,7.678,0,0,0-3.155,1.788l-12.405,3.885,1.947,5.783,12.023-4.444a7.679,7.679,0,0,0,3.619-.24Z" transform="translate(-74.713 -73.572)" fill="#a0616a"/>
    <path id="Tracé_1639" data-name="Tracé 1639" d="M235.183,116.694l-.149,10.214s12.84-.171,17.332.184S284.86,117.2,284.86,117.2l-4.65-6.595-30.89,7.456-14.136-1.366Z" transform="translate(-147.999 -80.375)" fill="#e6e6e6"/>
    <rect id="Rectangle_3378" data-name="Rectangle 3378" width="1.913" height="25.964" transform="translate(141.3 22.429)" fill="#5681b9"/>
    <path id="Tracé_1640" data-name="Tracé 1640" d="M195.964,199.429H207.03l.041-.043a9.2,9.2,0,0,0,1.492-10.484l-3.367-6.584,1.337-23.587a1.575,1.575,0,0,0-1.574-1.664h-2.069a1.572,1.572,0,0,0-1.577,1.514l-.9,23.314-4.662,7.28a9.2,9.2,0,0,0-.033,9.868h0l.245.386Z" transform="translate(-61.572 -114.139)" fill="#3f3d56"/>
    <path id="Tracé_1641" data-name="Tracé 1641" d="M200.8,287.671h0a.572.572,0,0,0,.483.265h8.424a.568.568,0,0,0,.427-.189,7.441,7.441,0,0,0,1.8-5.8.56.56,0,0,0-.415-.471,24.636,24.636,0,0,0-6.166-.733,26.027,26.027,0,0,0-4.968.459.562.562,0,0,0-.432.389,7.449,7.449,0,0,0,.847,6.082Z" transform="translate(-65.46 -204.013)" fill="#5681b9"/>
    <path id="Tracé_1642" data-name="Tracé 1642" d="M346.435,74.979l-1.64,11.206,13.119,1.367-.82-14.485Z" transform="translate(-251.051 -53.096)" fill="#a0616a"/>
    <circle id="Ellipse_296" data-name="Ellipse 296" cx="8.848" cy="8.848" r="8.848" transform="translate(99.007 7.525)" fill="#a0616a"/>
    <path id="c" d="M224.656,201.255c2.5-2.247,5.723-2.752,7.194-1.128s.634,4.76-1.87,7.007a8.282,8.282,0,0,1-3.492,1.917l-10.727,9.382-4.425-5.221,11.044-8.7a8.233,8.233,0,0,1,2.276-3.261Z" transform="translate(-89.237 -144.739)" fill="#a0616a"/>
    <path id="Tracé_1643" data-name="Tracé 1643" d="M300.585,110.979l-13.392-1.913-7.926,6.013-.82,33.07L270.795,200.9l50.835.547s-3.826-34.163-5.739-36.077-3.28-10.659-3.28-10.659l-3.826-37.716Z" transform="translate(-194.542 -79.257)" fill="#e6e6e6"/>
    <path id="Tracé_1644" data-name="Tracé 1644" d="M239.339,137.518s7.106-.547,8.746,4.373,3.553,21.045,3.553,21.045l4.373.547,3.826-4.1,4.1,9.839s-14.485,15.852-19.951,8.746S239.339,137.518,239.339,137.518Z" transform="translate(-128.239 -99.92)" fill="#e6e6e6"/>
    <path id="Tracé_1645" data-name="Tracé 1645" d="M316.768,63.016s7.106-3.826,6.286-9.566-6.013-7.106-2.46-13.665,1.64-14.212,1.64-14.212l.886-1.367s7.186,2.733,9.436,0,1.157-5.193,4.436-5.739,7.653-6.013,5.466-9.566-1.913-5.739-5.466-6.286S324.967-1.758,323.6.975s-6.013,5.739-5.193,8.473.82,11.493.82,11.493-11.628,4.632-9.913,8.868,4.72,4.236,1.988,12.435,5.466,20.771,5.466,20.771h0Z" transform="translate(-226.44 0)" fill="#2f2e41"/>
    <path id="Tracé_1646" data-name="Tracé 1646" d="M596.19,264.884a6.453,6.453,0,0,0,1.659-.19c.511-.143.771-.346.771-.6v0l-.954-11.991.48-2.274a.784.784,0,0,0-.235-.8.248.248,0,0,0-.129-.035l-3.159.054c-.21,0-.38.289-.378.637a.981.981,0,0,0,.02.193l.449,2.227-.954,11.991C593.761,264.717,595.288,264.884,596.19,264.884Z" transform="translate(-559.801 -180.936)" fill="#e6e6e6"/>
    <path id="Tracé_1647" data-name="Tracé 1647" d="M531.57,264.884a6.448,6.448,0,0,0,1.659-.19c.511-.143.771-.346.771-.6v0l-.953-11.991.48-2.274a.784.784,0,0,0-.235-.8.25.25,0,0,0-.13-.035L530,249.04c-.211,0-.38.289-.378.637a.976.976,0,0,0,.019.193l.449,2.227-.954,11.991C529.14,264.717,530.668,264.884,531.57,264.884Z" transform="translate(-477.52 -180.936)" fill="#e6e6e6"/>
    <path id="Tracé_1648" data-name="Tracé 1648" d="M507.214,276.342h4.871v-8.166h-4.871a1,1,0,0,1,0-2.006h33.955a1,1,0,0,1,0,2.006h-4.155v8.166h4.155a1,1,0,0,1,0,2.006H507.214a1,1,0,0,1,0-2.006Zm27.794,0-2.29-6.1-18.627-2.065v8.166Z" transform="translate(-479.423 -193.424)" fill="#f2f2f2"/>
  </g>
</svg>
