<svg xmlns="http://www.w3.org/2000/svg" width="177.889" height="131.289" viewBox="0 0 177.889 131.289">
  <g id="Groupe_1938" data-name="Groupe 1938" transform="translate(0.002)">
    <path id="Tracé_1838" data-name="Tracé 1838" d="M228.69,329.281l-.359-.27c1.959-2.6,4.4-5.838,4.773-9.489a11.943,11.943,0,0,0-4.5-10.093,19.624,19.624,0,0,0-10.667-4.085c-.848-.086-1.72-.137-2.563-.186a24.688,24.688,0,0,1-6.128-.875c-2.73-.874-5.537-3.154-5.653-6.277a5.358,5.358,0,0,1,2.869-4.888l.21.4a4.909,4.909,0,0,0-2.63,4.477c.108,2.9,2.76,5.036,5.341,5.863a24.355,24.355,0,0,0,6.016.854c.848.049,1.725.1,2.582.187a20.067,20.067,0,0,1,10.909,4.187,12.4,12.4,0,0,1,4.663,10.484C233.163,323.344,230.683,326.636,228.69,329.281Z" transform="translate(-203.591 -262.707)" fill="#f1f1f1"/>
    <ellipse id="Ellipse_434" data-name="Ellipse 434" cx="3.93" cy="1.909" rx="3.93" ry="1.909" transform="translate(1.281 29.544) rotate(-24.605)" fill="#f1f1f1"/>
    <ellipse id="Ellipse_435" data-name="Ellipse 435" cx="3.93" cy="1.909" rx="3.93" ry="1.909" transform="translate(9.376 39.669) rotate(-24.605)" fill="#f1f1f1"/>
    <ellipse id="Ellipse_436" data-name="Ellipse 436" cx="3.93" cy="1.909" rx="3.93" ry="1.909" transform="translate(3.683 44.499) rotate(-24.605)" fill="#f1f1f1"/>
    <ellipse id="Ellipse_437" data-name="Ellipse 437" cx="3.93" cy="1.909" rx="3.93" ry="1.909" transform="translate(18.287 49.421) rotate(-24.605)" fill="#f1f1f1"/>
    <ellipse id="Ellipse_438" data-name="Ellipse 438" cx="3.93" cy="1.909" rx="3.93" ry="1.909" transform="translate(25.434 46.148) rotate(-24.605)" fill="#f1f1f1"/>
    <path id="Tracé_1839" data-name="Tracé 1839" d="M905.289,596.168l.2-.4c-2.931-1.419-6.578-3.186-8.579-6.263a11.943,11.943,0,0,1-.6-11.036,19.625,19.625,0,0,1,7.625-8.5c.715-.464,1.468-.907,2.2-1.336a24.684,24.684,0,0,0,5.052-3.576c2.03-2.024,3.486-5.334,2.163-8.165a5.358,5.358,0,0,0-4.784-3.038l-.005.449a4.909,4.909,0,0,1,4.384,2.782c1.229,2.631-.156,5.741-2.075,7.654a24.357,24.357,0,0,1-4.963,3.507c-.732.431-1.489.877-2.212,1.346a20.068,20.068,0,0,0-7.794,8.706,12.4,12.4,0,0,0,.638,11.457C898.6,592.928,902.308,594.724,905.289,596.168Z" transform="translate(-739.567 -464.879)" fill="#f1f1f1"/>
    <ellipse id="Ellipse_439" data-name="Ellipse 439" cx="3.93" cy="1.909" rx="3.93" ry="1.909" transform="translate(162.154 87.819) rotate(-2.563)" fill="#f1f1f1"/>
    <ellipse id="Ellipse_440" data-name="Ellipse 440" cx="3.93" cy="1.909" rx="3.93" ry="1.909" transform="translate(159.575 100.524) rotate(-2.563)" fill="#f1f1f1"/>
    <ellipse id="Ellipse_441" data-name="Ellipse 441" cx="3.93" cy="1.909" rx="3.93" ry="1.909" transform="translate(166.845 102.221) rotate(-2.563)" fill="#f1f1f1"/>
    <ellipse id="Ellipse_442" data-name="Ellipse 442" cx="3.93" cy="1.909" rx="3.93" ry="1.909" transform="translate(156.099 113.268) rotate(-2.563)" fill="#f1f1f1"/>
    <ellipse id="Ellipse_443" data-name="Ellipse 443" cx="3.93" cy="1.909" rx="3.93" ry="1.909" transform="translate(148.247 113.62) rotate(-2.563)" fill="#f1f1f1"/>
    <path id="Tracé_1840" data-name="Tracé 1840" d="M649.581,414.68a2.36,2.36,0,0,1,.238.286l11.134-.272,1.3-2.374,3.838,1.492-1.891,4.425a1.8,1.8,0,0,1-1.868,1.078l-12.58-1.52a2.357,2.357,0,1,1-.171-3.116Z" transform="translate(-546.291 -355.138)" fill="#ffb7b7"/>
    <path id="Tracé_1841" data-name="Tracé 1841" d="M602.892,517.461h-3.661l-1.742-14.121h5.4Z" transform="translate(-463.305 -390.299)" fill="#ffb7b7"/>
    <path id="Tracé_1842" data-name="Tracé 1842" d="M788.534,723.342h-11.8v-.149a4.6,4.6,0,0,1,4.594-4.595h7.211Z" transform="translate(-648.015 -592.631)" fill="#2f2e41"/>
    <path id="Tracé_1843" data-name="Tracé 1843" d="M461.9,513.69l-3.367-1.438,3.946-13.67,4.969,2.123Z" transform="translate(-355.553 -386.61)" fill="#ffb7b7"/>
    <path id="Tracé_1844" data-name="Tracé 1844" d="M637.245,713.6l-10.856-4.638.059-.137a4.6,4.6,0,0,1,6.03-2.42h0l6.63,2.833Z" transform="translate(-531.438 -582.89)" fill="#2f2e41"/>
    <path id="Tracé_1845" data-name="Tracé 1845" d="M541.394,276.917l-.265,4.29,7.739.828,8.1.867-2.383-6.514Z" transform="translate(-419.603 -214.316)" fill="#ffb7b7"/>
    <path id="Tracé_1846" data-name="Tracé 1846" d="M733.363,367.537l-3.114-18.2,5.211-1.708,1.53-2.1,7.448.441,1.094,2.449,3.971,1.876-.61,11.334-1.071,5.272-.132-.068c-5.369-2.78-14.109.62-14.2.654Z" transform="translate(-611.973 -303.346)" fill="#2f2e41"/>
    <path id="Tracé_1847" data-name="Tracé 1847" d="M716.91,377.972l-5.3-2.121.022-.094c.023-.1,2.279-9.522,2.578-11.037a2.641,2.641,0,0,1,1.5-2.032l.035-.013,2.1.638.921,7.238Z" transform="translate(-597.52 -316.642)" fill="#2f2e41"/>
    <path id="Tracé_1848" data-name="Tracé 1848" d="M664.893,507.425l-7.055-1.447,11.276-31.116,3.859-10.613s2.448-8.51,3.554-11.8l.667-4.419,15.8,1.749s4.413,6.48,3.072,17.043l.606,39.7-7.055.362-5.909-40.041-10.372,21.95s-3.269,9.367-5.608,11.4Z" transform="translate(-555.823 -382.827)" fill="#2f2e41"/>
    <path id="Tracé_1849" data-name="Tracé 1849" d="M778.273,418.54a2.367,2.367,0,0,1,.372.02l7.37-8.35-.857-2.566,3.7-1.8,1.959,4.4a1.8,1.8,0,0,1-.48,2.1l-9.667,8.191a2.357,2.357,0,1,1-2.4-1.993Z" transform="translate(-647.439 -350.116)" fill="#ffb7b7"/>
    <path id="Tracé_1850" data-name="Tracé 1850" d="M807.4,380.7l-3.075-7.232,1.2-5.038,1.292-1.632a.744.744,0,0,1,.6.006c.477.192.882.78,1.206,1.747l2.881,8.208Z" transform="translate(-669.416 -319.791)" fill="#2f2e41"/>
    <path id="Tracé_1851" data-name="Tracé 1851" d="M746.991,289.542V284.09a7.306,7.306,0,1,1,14.612,0v5.452a.983.983,0,0,1-.981.981h-12.65A.983.983,0,0,1,746.991,289.542Z" transform="translate(-624.955 -250.04)" fill="#2f2e41"/>
    <circle id="Ellipse_444" data-name="Ellipse 444" cx="5.357" cy="5.357" r="5.357" transform="translate(122.485 29.643)" fill="#ffb7b7"/>
    <path id="Tracé_1852" data-name="Tracé 1852" d="M739.294,291.3a5.786,5.786,0,0,1,5.78-5.78h1.091a5.786,5.786,0,0,1,5.779,5.78v.109h-2.3l-.786-2.2-.157,2.2H747.5l-.4-1.111-.079,1.111h-7.735Z" transform="translate(-618.986 -256.817)" fill="#2f2e41"/>
    <path id="Tracé_1853" data-name="Tracé 1853" d="M769.838,306.268a.967.967,0,0,1-.077-1.027c1.156-2.2,2.774-6.259.626-8.764l-.154-.18h6.235v9.361l-5.664,1a1,1,0,0,1-.174.015A.977.977,0,0,1,769.838,306.268Z" transform="translate(-642.524 -265.172)" fill="#2f2e41"/>
    <path id="Tracé_1854" data-name="Tracé 1854" d="M381.283,266.492H314.5a5.977,5.977,0,0,1-5.97-5.97v-96.85a5.977,5.977,0,0,1,5.97-5.97h66.782a5.977,5.977,0,0,1,5.97,5.97v96.85A5.977,5.977,0,0,1,381.283,266.492Z" transform="translate(-284.964 -157.702)" fill="#3f3d56"/>
    <path id="Tracé_1855" data-name="Tracé 1855" d="M395.254,275.835H328.237a1.843,1.843,0,0,1-1.84-1.84V176.5a1.843,1.843,0,0,1,1.84-1.84h67.018a1.842,1.842,0,0,1,1.84,1.84v97.491A1.843,1.843,0,0,1,395.254,275.835Z" transform="translate(-298.818 -170.854)" fill="#fff"/>
    <circle id="Ellipse_445" data-name="Ellipse 445" cx="0.508" cy="0.508" r="0.508" transform="translate(62.166 1.32)" fill="#fff"/>
    <path id="Tracé_1856" data-name="Tracé 1856" d="M510.51,412.094A11.454,11.454,0,0,1,499.07,401.2c-.009.186-.014.373-.014.561a11.454,11.454,0,0,0,22.907,0c0-.188-.005-.375-.014-.561A11.454,11.454,0,0,1,510.51,412.094Z" transform="translate(-432.701 -346.517)" fill="#cbcbcb"/>
    <path id="Tracé_1857" data-name="Tracé 1857" d="M377.51,292.094A11.454,11.454,0,0,1,366.07,281.2c-.009.186-.014.373-.014.561a11.454,11.454,0,1,0,22.907,0c0-.188-.005-.375-.014-.561a11.454,11.454,0,0,1-11.44,10.892Z" transform="translate(-329.571 -253.467)" fill="#cbcbcb"/>
    <path id="Tracé_1858" data-name="Tracé 1858" d="M380.51,532.094A11.454,11.454,0,0,1,369.07,521.2c-.009.186-.014.373-.014.561a11.454,11.454,0,1,0,22.907,0c0-.188-.005-.375-.014-.561A11.454,11.454,0,0,1,380.51,532.094Z" transform="translate(-331.897 -439.567)" fill="#cbcbcb"/>
    <path id="Tracé_1859" data-name="Tracé 1859" d="M510.1,370.514a11.577,11.577,0,1,1,11.577-11.577A11.577,11.577,0,0,1,510.1,370.514Zm0-22.6a11.026,11.026,0,1,0,11.025,11.026A11.026,11.026,0,0,0,510.1,347.911Z" transform="translate(-432.289 -304.767)" fill="#3f3d56"/>
    <path id="Tracé_1860" data-name="Tracé 1860" d="M536.7,378.13l1.378-.276a12.929,12.929,0,0,1-1.378,1.378h0a5.548,5.548,0,0,0,0,.827c-2.646,11.356-12.4,6.34-12.4,6.34,3.556.083,3.859-1.378,3.859-1.378a2.823,2.823,0,0,1-2.481-1.654.852.852,0,0,0,1.1-.276,2.5,2.5,0,0,1-1.93-2.756,2.867,2.867,0,0,0,1.351.524c-.248-.3-2.343-2.812-1.075-4.107a6.875,6.875,0,0,0,5.6,3L531,379.7a2.163,2.163,0,0,1-.055-.606,2.894,2.894,0,0,1,2.894-2.894h0c1.929,0,2.343,1.1,2.343,1.1l1.378-.827C537.529,376.476,537.391,377.854,536.7,378.13Z" transform="translate(-452.275 -327.13)" fill="#5681b9"/>
    <path id="Tracé_1861" data-name="Tracé 1861" d="M377.548,250.848a11.577,11.577,0,1,1,11.577-11.577A11.577,11.577,0,0,1,377.548,250.848Zm0-22.6a11.026,11.026,0,1,0,11.026,11.026A11.026,11.026,0,0,0,377.548,228.245Z" transform="translate(-329.505 -211.976)" fill="#3f3d56"/>
    <path id="Tracé_1862" data-name="Tracé 1862" d="M397.4,249.723a2.919,2.919,0,0,1,2.91,2.91v5.82a2.919,2.919,0,0,1-2.91,2.91h-5.82a2.919,2.919,0,0,1-2.91-2.91v-5.82a2.919,2.919,0,0,1,2.91-2.91h5.82m0-1.164h-5.82a4.086,4.086,0,0,0-4.074,4.074v5.82a4.086,4.086,0,0,0,4.074,4.074h5.82a4.086,4.086,0,0,0,4.074-4.074v-5.82a4.086,4.086,0,0,0-4.074-4.074Z" transform="translate(-346.201 -228.155)" fill="#5681b9"/>
    <path id="Tracé_1863" data-name="Tracé 1863" d="M432.446,260.685a.871.871,0,1,1,.873-.872.871.871,0,0,1-.873.872Z" transform="translate(-380.376 -236.206)" fill="#5681b9"/>
    <path id="Tracé_1864" data-name="Tracé 1864" d="M406.544,265.273a2.328,2.328,0,1,1-2.328,2.328,2.328,2.328,0,0,1,2.328-2.328h0m0-1.164a3.492,3.492,0,1,0,3.492,3.492h0a3.492,3.492,0,0,0-3.492-3.492Z" transform="translate(-358.258 -240.213)" fill="#5681b9"/>
    <path id="Tracé_1865" data-name="Tracé 1865" d="M380,490.18A11.577,11.577,0,1,1,391.579,478.6,11.577,11.577,0,0,1,380,490.18Zm0-22.6A11.026,11.026,0,1,0,391.028,478.6,11.026,11.026,0,0,0,380,467.577Z" transform="translate(-331.408 -397.558)" fill="#3f3d56"/>
    <path id="Tracé_1866" data-name="Tracé 1866" d="M401.411,492.651a7.568,7.568,0,1,0-8.75,7.476v-5.288h-1.922v-2.188h1.922v-1.668a2.671,2.671,0,0,1,2.859-2.945,11.631,11.631,0,0,1,1.694.148v1.863h-.955a1.094,1.094,0,0,0-1.234,1.183v1.42h2.1l-.335,2.188h-1.764v5.289a7.57,7.57,0,0,0,6.386-7.477Z" transform="translate(-345.248 -411.561)" fill="#5681b9" fill-rule="evenodd"/>
    <path id="Tracé_1867" data-name="Tracé 1867" d="M698.472,740.151H612.907a.225.225,0,1,1,0-.449h85.566a.225.225,0,1,1,0,.449Z" transform="translate(-520.809 -608.996)" fill="#cbcbcb"/>
  </g>
</svg>
