<svg id="Groupe_1931" data-name="Groupe 1931" xmlns="http://www.w3.org/2000/svg" width="244.857" height="176.876" viewBox="0 0 244.857 176.876">
  <path id="Tracé_1710" data-name="Tracé 1710" d="M498.5,694.813H254.354a.354.354,0,1,1,0-.708H498.5a.354.354,0,1,1,0,.708Z" transform="translate(-254 -519.293)" fill="#ccc"/>
  <path id="Tracé_1711" data-name="Tracé 1711" d="M610.163,521.7H466.5a2.3,2.3,0,1,0,0,4.6h4.069v55.022a2.3,2.3,0,0,0,4.6,0l.035-55.022H601.14v55.022a2.3,2.3,0,0,0,4.6,0v-53.81l.669-1.213h3.754a2.3,2.3,0,0,0,0-4.6Z" transform="translate(-389.825 -407.893)" fill="#ccc"/>
  <path id="Tracé_1712" data-name="Tracé 1712" d="M610.524,469.747H567.008a3.182,3.182,0,0,1-3.178-3.178V442.61a3.182,3.182,0,0,1,3.178-3.178h43.516a3.182,3.182,0,0,1,3.178,3.178v23.958A3.182,3.182,0,0,1,610.524,469.747Z" transform="translate(-454.2 -354.733)" fill="#3f3d56"/>
  <path id="Tracé_1713" data-name="Tracé 1713" d="M614.991,446.345H571.476a.734.734,0,0,0-.732.732v23.958a.734.734,0,0,0,.732.732h43.515a.734.734,0,0,0,.732-.732V447.077a.734.734,0,0,0-.732-.732Z" transform="translate(-458.667 -359.2)" fill="#fff"/>
  <path id="Tracé_1714" data-name="Tracé 1714" d="M628.717,493.686s-5.209-1.2-8.074,1,3.647,7.2,3.647,7.2Z" transform="translate(-490.439 -389.579)" fill="#2f2e41"/>
  <circle id="Ellipse_417" data-name="Ellipse 417" cx="4.914" cy="4.914" r="4.914" transform="translate(129.908 92.011)" fill="#a0616a"/>
  <path id="Tracé_1715" data-name="Tracé 1715" d="M619.265,451.343a3.5,3.5,0,0,1,3.229-1.718,6.863,6.863,0,0,1,1.952.546l3.212,1.253a2.6,2.6,0,0,1,1.934,3.958l-1.2,3.748a11.411,11.411,0,0,0-.681-2.476,3.834,3.834,0,0,0-1.665-1.9,5.427,5.427,0,0,0-2.755-.374,5.505,5.505,0,0,0-3.712,1.168,3.855,3.855,0,0,0-.978,1.91,11.5,11.5,0,0,0-.205,2.163,17.929,17.929,0,0,1-1.369-2.935,7.261,7.261,0,0,1-.509-2.376,3.342,3.342,0,0,1,.766-2.26,2.192,2.192,0,0,1,2.2-.694Z" transform="translate(-488.243 -361.315)" fill="#2f2e41"/>
  <path id="Tracé_1716" data-name="Tracé 1716" d="M626.344,497.4a.875.875,0,0,0-.732-.633.3.3,0,0,0-.035-.021l-7.336-4.111a.933.933,0,0,0-1.248.321l-2.006,3.248-3.022-3.022-.048-.048a.933.933,0,0,0-1.195-.1l-6.029,4.222c-.011,0-.021,0-.032,0a1.285,1.285,0,0,0-1.072,1.2l-.156,3.146h24.075Z" transform="translate(-479.79 -389.037)" fill="#5681b9"/>
  <path id="Tracé_1717" data-name="Tracé 1717" d="M610.62,515.921h-4.645a.489.489,0,0,0-.489-.489h-1.467a.489.489,0,0,0-.489.489h-1.467a.489.489,0,0,0-.489-.489h-1.467a.489.489,0,0,0-.489.489h-1.467a.489.489,0,0,0-.489-.489H596.2a.489.489,0,0,0-.489.489h-1.467a.489.489,0,0,0-.489-.489h-1.467a.489.489,0,0,0-.489.489h-1.467a.489.489,0,0,0-.489-.489h-1.467a.489.489,0,0,0-.489.489h-1.467a.489.489,0,0,0-.489-.489h-1.467a.489.489,0,0,0-.489.489h-1.467a.489.489,0,0,0-.489-.489H580.55a.489.489,0,0,0-.489.489h-1.467a.489.489,0,0,0-.489-.489h-1.467a.489.489,0,0,0-.489.489h-1.467a.489.489,0,0,0-.489-.489h-1.467a.489.489,0,0,0-.489.489h-1.467a.489.489,0,0,0-.489-.489h-1.467a.489.489,0,0,0-.489.489H566.86a.489.489,0,0,0-.489-.489H564.9a.489.489,0,0,0-.489.489H559.77a1.467,1.467,0,0,0,0,2.934h50.85a1.467,1.467,0,0,0,0-2.934Z" transform="translate(-450.629 -403.841)" fill="#3f3d56"/>
  <path id="Tracé_1718" data-name="Tracé 1718" d="M487.31,492.735v9.74h-24.4a4.873,4.873,0,1,1,0-9.74Z" transform="translate(-385.73 -389.173)" fill="#f2f2f2"/>
  <path id="Tracé_1719" data-name="Tracé 1719" d="M486.952,501.994a.375.375,0,0,1-.375.375H461.517a5.132,5.132,0,0,1,0-10.264h25.061a.375.375,0,0,1,0,.749H461.517a4.383,4.383,0,0,0,0,8.766h25.061A.375.375,0,0,1,486.952,501.994Z" transform="translate(-384.773 -388.768)" fill="#5681b9"/>
  <path id="Tracé_1720" data-name="Tracé 1720" d="M493.057,498.818H466.834a.075.075,0,0,1,0-.15h26.222a.075.075,0,1,1,0,.15Z" transform="translate(-391.477 -393.009)" fill="#ccc"/>
  <path id="Tracé_1721" data-name="Tracé 1721" d="M493.057,503.9H466.834a.075.075,0,0,1,0-.15h26.222a.075.075,0,1,1,0,.15Z" transform="translate(-391.477 -396.293)" fill="#ccc"/>
  <path id="Tracé_1722" data-name="Tracé 1722" d="M493.057,508.981H466.834a.075.075,0,0,1,0-.15h26.222a.075.075,0,0,1,0,.15Z" transform="translate(-391.477 -399.576)" fill="#ccc"/>
  <path id="Tracé_1723" data-name="Tracé 1723" d="M493.057,514.063H466.834a.075.075,0,0,1,0-.15h26.222a.075.075,0,1,1,0,.15Z" transform="translate(-391.477 -402.86)" fill="#ccc"/>
  <path id="Tracé_1724" data-name="Tracé 1724" d="M474.31,463.735v9.74h-24.4a4.873,4.873,0,1,1,0-9.74Z" transform="translate(-377.33 -370.435)" fill="#f2f2f2"/>
  <path id="Tracé_1725" data-name="Tracé 1725" d="M473.952,472.994a.375.375,0,0,1-.375.375H448.517a5.132,5.132,0,0,1,0-10.264h25.061a.375.375,0,0,1,0,.749H448.517a4.383,4.383,0,1,0,0,8.766h25.061A.375.375,0,0,1,473.952,472.994Z" transform="translate(-376.373 -370.03)" fill="#3f3d56"/>
  <path id="Tracé_1726" data-name="Tracé 1726" d="M480.057,469.818H453.834a.075.075,0,1,1,0-.15h26.222a.075.075,0,1,1,0,.15Z" transform="translate(-383.076 -374.271)" fill="#ccc"/>
  <path id="Tracé_1727" data-name="Tracé 1727" d="M480.057,474.9H453.834a.075.075,0,1,1,0-.15h26.222a.075.075,0,1,1,0,.15Z" transform="translate(-383.076 -377.555)" fill="#ccc"/>
  <path id="Tracé_1728" data-name="Tracé 1728" d="M480.057,479.981H453.834a.075.075,0,1,1,0-.15h26.222a.075.075,0,1,1,0,.15Z" transform="translate(-383.076 -380.838)" fill="#ccc"/>
  <path id="Tracé_1729" data-name="Tracé 1729" d="M480.057,485.063H453.834a.075.075,0,1,1,0-.15h26.222a.075.075,0,1,1,0,.15Z" transform="translate(-383.076 -384.122)" fill="#ccc"/>
  <path id="Tracé_1730" data-name="Tracé 1730" d="M544.333,600.013V591.52a1.415,1.415,0,0,0-1.415-1.415h-32.2a1.415,1.415,0,0,0-1.415,1.415v8.492Z" transform="translate(-418.966 -452.092)" fill="#ccc"/>
  <rect id="Rectangle_3384" data-name="Rectangle 3384" width="35.03" height="10.969" transform="translate(90.336 151.105)" fill="#ccc"/>
  <path id="Tracé_1731" data-name="Tracé 1731" d="M509.3,667.1V675.6a1.415,1.415,0,0,0,1.415,1.415h32.2a1.415,1.415,0,0,0,1.415-1.415V667.1Z" transform="translate(-418.967 -501.846)" fill="#ccc"/>
  <circle id="Ellipse_418" data-name="Ellipse 418" cx="1.062" cy="1.062" r="1.062" transform="translate(106.613 142.259)" fill="#fff"/>
  <circle id="Ellipse_419" data-name="Ellipse 419" cx="1.062" cy="1.062" r="1.062" transform="translate(106.613 156.413)" fill="#fff"/>
  <circle id="Ellipse_420" data-name="Ellipse 420" cx="1.062" cy="1.062" r="1.062" transform="translate(106.67 170.266)" fill="#fff"/>
  <path id="Tracé_1732" data-name="Tracé 1732" d="M543.31,562.735v9.74h-24.4a4.873,4.873,0,1,1,0-9.74Z" transform="translate(-421.915 -434.404)" fill="#f2f2f2"/>
  <path id="Tracé_1733" data-name="Tracé 1733" d="M542.952,571.994a.375.375,0,0,1-.375.375H517.517a5.132,5.132,0,0,1,0-10.264h25.061a.375.375,0,0,1,0,.749H517.517a4.383,4.383,0,1,0,0,8.766h25.061a.375.375,0,0,1,.375.375Z" transform="translate(-420.958 -433.999)" fill="#3f3d56"/>
  <path id="Tracé_1734" data-name="Tracé 1734" d="M549.057,568.818H522.834a.075.075,0,0,1,0-.15h26.222a.075.075,0,0,1,0,.15Z" transform="translate(-427.661 -438.241)" fill="#ccc"/>
  <path id="Tracé_1735" data-name="Tracé 1735" d="M549.057,573.9H522.834a.075.075,0,0,1,0-.15h26.222a.075.075,0,0,1,0,.15Z" transform="translate(-427.661 -441.524)" fill="#ccc"/>
  <path id="Tracé_1736" data-name="Tracé 1736" d="M549.057,578.981H522.834a.075.075,0,1,1,0-.15h26.222a.075.075,0,0,1,0,.15Z" transform="translate(-427.661 -444.808)" fill="#ccc"/>
  <path id="Tracé_1737" data-name="Tracé 1737" d="M549.057,584.063H522.834a.075.075,0,0,1,0-.15h26.222a.075.075,0,0,1,0,.15Z" transform="translate(-427.661 -448.091)" fill="#ccc"/>
  <path id="Tracé_1738" data-name="Tracé 1738" d="M504.11,264.822v-62.1a2.664,2.664,0,0,1,2.661-2.661h49.088a2.664,2.664,0,0,1,2.661,2.661v62.1a2.664,2.664,0,0,1-2.661,2.661H506.772a2.664,2.664,0,0,1-2.662-2.661Zm2.661-64.169a2.072,2.072,0,0,0-2.07,2.07v62.1a2.072,2.072,0,0,0,2.07,2.07h49.088a2.072,2.072,0,0,0,2.07-2.07v-62.1a2.072,2.072,0,0,0-2.07-2.07Z" transform="translate(-415.611 -200.062)" fill="#e6e6e6"/>
  <path id="Tracé_1739" data-name="Tracé 1739" d="M588.776,254.945V242.194a1.332,1.332,0,0,1,1.331-1.331h10.805a1.332,1.332,0,0,1,1.331,1.331v12.751a1.332,1.332,0,0,1-1.331,1.331H590.107A1.332,1.332,0,0,1,588.776,254.945Z" transform="translate(-470.319 -226.426)" fill="#5681b9"/>
  <path id="Tracé_1740" data-name="Tracé 1740" d="M529.44,271.659V258.908a1.332,1.332,0,0,1,1.331-1.331h10.805a1.332,1.332,0,0,1,1.331,1.331v12.751a1.332,1.332,0,0,1-1.331,1.331H530.771A1.332,1.332,0,0,1,529.44,271.659Z" transform="translate(-431.978 -237.226)" fill="#ccc"/>
  <path id="Tracé_1741" data-name="Tracé 1741" d="M577.076,322.638V309.887a1.332,1.332,0,0,1,1.331-1.331h10.805a1.332,1.332,0,0,1,1.331,1.331v12.751a1.332,1.332,0,0,1-1.331,1.331H578.407A1.332,1.332,0,0,1,577.076,322.638Z" transform="translate(-462.759 -270.167)" fill="#5681b9"/>
  <path id="Tracé_1742" data-name="Tracé 1742" d="M733.012,513.1H721.895a.687.687,0,0,0-.3.071l-2.806,1.4a.511.511,0,0,0,0,.941l2.806,1.4a.686.686,0,0,0,.3.071h11.118a.583.583,0,0,0,.616-.541v-2.809A.583.583,0,0,0,733.012,513.1Z" transform="translate(-554.124 -402.336)" fill="#3f3d56"/>
  <path id="Tracé_1743" data-name="Tracé 1743" d="M756.134,513.645v2.81a.583.583,0,0,1-.616.541H753.3V513.1h2.215a.584.584,0,0,1,.616.541Z" transform="translate(-576.63 -402.336)" fill="#5681b9"/>
  <path id="Tracé_1744" data-name="Tracé 1744" d="M755.034,453.123a3.893,3.893,0,0,1,5.269,2.447,3.76,3.76,0,0,1,.113.508l15.547,7.71,3.6-2.384,4.477,5.154-5.494,4.462a3.945,3.945,0,0,1-4.706.182l-15.774-10.908a3.725,3.725,0,0,1-.359.131,3.893,3.893,0,0,1-4.958-3.029,3.8,3.8,0,0,1-.057-.474A3.9,3.9,0,0,1,755.034,453.123Z" transform="translate(-576.229 -363.374)" fill="#ffb8b8"/>
  <path id="Tracé_1745" data-name="Tracé 1745" d="M784.609,587.853H767.622c0,.488-17.508.885-17.508.885a4.553,4.553,0,0,0-.747.708,4.392,4.392,0,0,0-1.026,2.831v.708a4.425,4.425,0,0,0,4.423,4.423h31.846a4.427,4.427,0,0,0,4.423-4.423v-.708A4.429,4.429,0,0,0,784.609,587.853Z" transform="translate(-573.423 -450.637)" fill="#3f3d56"/>
  <rect id="Rectangle_3385" data-name="Rectangle 3385" width="4.6" height="29.723" transform="translate(197.308 176.317) rotate(180)" fill="#3f3d56"/>
  <path id="Tracé_1746" data-name="Tracé 1746" d="M761.617,689.8c0,.5,6.97.192,15.569.192s15.569.3,15.569-.192-6.97-4.438-15.569-4.438S761.617,689.3,761.617,689.8Z" transform="translate(-582.002 -513.64)" fill="#3f3d56"/>
  <path id="Tracé_1747" data-name="Tracé 1747" d="M507.663,467.446h-4.338L501.261,456.2h6.4Z" transform="translate(-323.895 -294.775)" fill="#ffb8b8"/>
  <path id="Tracé_1748" data-name="Tracé 1748" d="M750.937,689.672H736.949v-.177a5.444,5.444,0,0,1,5.444-5.444h8.543Z" transform="translate(-566.063 -512.796)" fill="#2f2e41"/>
  <path id="Tracé_1749" data-name="Tracé 1749" d="M738.115,595.253l-8.648-19.393a7.107,7.107,0,0,1,3.12-9.124l18.758-10.059,8.56-.728,7.9-.718.057.1a7.992,7.992,0,0,1,.623,6.271c-.87,2.439-3.135,4.344-6.73,5.662-8.391,3.077-18.084,5.706-21.862,6.694a1.221,1.221,0,0,0-.782.623,1.238,1.238,0,0,0-.069.99l8.034,18.051a1.592,1.592,0,0,1-1.348,2.133l-6,.437q-.076.007-.152.007A1.591,1.591,0,0,1,738.115,595.253Z" transform="translate(-560.835 -429.558)" fill="#2f2e41"/>
  <path id="Tracé_1750" data-name="Tracé 1750" d="M513.663,467.446h-4.338L507.261,456.2h6.4Z" transform="translate(-327.772 -294.775)" fill="#ffb8b8"/>
  <path id="Tracé_1751" data-name="Tracé 1751" d="M756.937,689.672H742.949v-.177a5.444,5.444,0,0,1,5.444-5.444h8.543Z" transform="translate(-569.94 -512.796)" fill="#2f2e41"/>
  <path id="Tracé_1752" data-name="Tracé 1752" d="M745.115,598.253l-8.648-19.393a7.107,7.107,0,0,1,3.12-9.123l18.758-10.059,8.56-.728,7.9-.718.057.1a7.992,7.992,0,0,1,.623,6.271c-.87,2.439-3.135,4.344-6.73,5.662-8.391,3.077-18.084,5.706-21.863,6.694a1.221,1.221,0,0,0-.782.623,1.238,1.238,0,0,0-.069.99l8.034,18.051a1.592,1.592,0,0,1-1.348,2.133l-6,.437q-.076.007-.152.007A1.591,1.591,0,0,1,745.115,598.253Z" transform="translate(-565.358 -431.496)" fill="#2f2e41"/>
  <path id="Tracé_1753" data-name="Tracé 1753" d="M734.129,459.029a59.27,59.27,0,0,1-8.519-15.9,1.522,1.522,0,0,1,.719-1.833l12.436-6.663a1.5,1.5,0,0,1,1.318-.054,1.528,1.528,0,0,1,.871,1.021,36.208,36.208,0,0,0,7.942,14.823,1.528,1.528,0,0,1,.367,1.29,1.5,1.5,0,0,1-.775,1.068l-12.436,6.663a1.522,1.522,0,0,1-1.924-.416Z" transform="translate(-558.682 -351.516)" fill="#ccc"/>
  <path id="Tracé_1754" data-name="Tracé 1754" d="M736.915,460.329a.46.46,0,0,0,.574.119l12.436-6.664a.441.441,0,0,0,.231-.317.466.466,0,0,0-.115-.4,37.275,37.275,0,0,1-8.176-15.259.466.466,0,0,0-.268-.317.441.441,0,0,0-.393.016l-12.436,6.663a.459.459,0,0,0-.219.544,58.21,58.21,0,0,0,8.366,15.614Z" transform="translate(-560.62 -353.455)" fill="#fff"/>
  <path id="Tracé_1755" data-name="Tracé 1755" d="M844.038,483.919l-9.739,3.7-2.378-6.6a3.952,3.952,0,0,1,1.77-4.777h0a3.952,3.952,0,0,1,5.047.985Z" transform="translate(-627.278 -378.184)" fill="#6c63ff"/>
  <path id="Tracé_1756" data-name="Tracé 1756" d="M794.232,509.787a1.769,1.769,0,0,1-.737-1.256c-1.247-11.645-.379-20.758,2.656-27.86a8.843,8.843,0,0,1,5.862-5.017l7.873-.4.041.02a9.2,9.2,0,0,1,5.031,9.762c-2.532,6.675-4.652,13.624-3.035,19.23a1.812,1.812,0,0,1-.171,1.409,1.728,1.728,0,0,1-1.1.817l-15,3.567a1.757,1.757,0,0,1-1.421-.275Z" transform="translate(-602.244 -377.882)" fill="#5681b9"/>
  <circle id="Ellipse_421" data-name="Ellipse 421" cx="8.691" cy="8.691" r="8.691" transform="translate(196.323 77.053)" fill="#ffb8b8"/>
  <path id="Tracé_1757" data-name="Tracé 1757" d="M749.847,457.433l-6.773,2.99a1.063,1.063,0,0,1-1.4-.542l-.167-.38a1.063,1.063,0,0,1,.542-1.4l6.773-2.99a1.063,1.063,0,0,1,1.4.542l.168.379A1.063,1.063,0,0,1,749.847,457.433Z" transform="translate(-568.949 -364.806)" fill="#ccc"/>
  <path id="Tracé_1758" data-name="Tracé 1758" d="M756.847,470.433l-6.773,2.99a1.063,1.063,0,0,1-1.4-.542l-.168-.38a1.063,1.063,0,0,1,.542-1.4l6.773-2.99a1.063,1.063,0,0,1,1.4.542l.168.379A1.063,1.063,0,0,1,756.847,470.433Z" transform="translate(-573.472 -373.207)" fill="#ccc"/>
  <path id="Tracé_1759" data-name="Tracé 1759" d="M750.026,490.031l-15.1-11.912a3.716,3.716,0,0,1-.367.108,3.9,3.9,0,0,1-3.12-.6,3.892,3.892,0,1,1,6.018-4.081,3.737,3.737,0,0,1,.081.514l15.032,8.672,3.741-2.154L760.455,486l-5.808,4.14a3.872,3.872,0,0,1-4.621-.113Z" transform="translate(-561.428 -374.838)" fill="#ffb8b8"/>
  <path id="Tracé_1760" data-name="Tracé 1760" d="M805.953,494.783l-8.615-5.859,4.049-5.735a3.952,3.952,0,0,1,4.928-1.288h0a3.952,3.952,0,0,1,2.086,4.7Z" transform="translate(-605.083 -381.927)" fill="#6c63ff"/>
  <path id="Tracé_1761" data-name="Tracé 1761" d="M807.832,419.145c-2.234,1.529-5.167,3.1-7.448,1.472a4.151,4.151,0,0,1-1.362-4.786c1.092-3.124,4.094-4.5,6.964-5.553,3.731-1.37,7.794-2.461,11.645-1.479s7.256,4.711,6.56,8.624c-.559,3.147-3.528,5.766-3.106,8.934.424,3.189,4.01,4.867,7.176,5.437s6.709.753,8.984,3.027c2.9,2.9,2.178,8.086-.553,11.149s-6.853,4.451-10.847,5.4c-5.292,1.251-11.015,1.908-16.04-.168s-8.936-7.662-7.481-12.9a18,18,0,0,1,3.464-5.9,16.451,16.451,0,0,0,3.352-5.958,6.194,6.194,0,0,0-1.119-5.419,1.57,1.57,0,0,1-.21-1.835Z" transform="translate(-606.004 -334.696)" fill="#2f2e41"/>
  <path id="Tracé_1762" data-name="Tracé 1762" d="M318.865,491.534a13.822,13.822,0,0,1-13.347-2.351c-4.675-3.924-6.141-10.388-7.333-16.374l-3.528-17.7,7.385,5.085c5.311,3.657,10.742,7.431,14.419,12.728s5.282,12.528,2.328,18.259" transform="translate(-280.271 -364.86)" fill="#e6e6e6"/>
  <path id="Tracé_1763" data-name="Tracé 1763" d="M341.971,554.045c.747-5.445,1.516-10.959.992-16.462a25.891,25.891,0,0,0-4.992-13.575,22.583,22.583,0,0,0-5.794-5.25c-.579-.366-1.113.552-.536.917a21.468,21.468,0,0,1,8.492,10.246,34.412,34.412,0,0,1,1.827,14.824c-.193,3.021-.6,6.022-1.012,9.019a.55.55,0,0,0,.371.653.534.534,0,0,0,.653-.371Z" transform="translate(-304.008 -405.936)" fill="#f2f2f2"/>
  <path id="Tracé_1764" data-name="Tracé 1764" d="M285.382,571.293a10.175,10.175,0,0,1-8.865,4.576c-4.488-.213-8.229-3.345-11.6-6.319l-9.962-8.8,6.593-.315c4.741-.227,9.6-.439,14.121,1.024s8.681,4.981,9.507,9.655" transform="translate(-254.619 -432.819)" fill="#e6e6e6"/>
  <path id="Tracé_1765" data-name="Tracé 1765" d="M326.964,597.482c-3.6-6.366-7.771-13.441-15.227-15.7a16.991,16.991,0,0,0-6.4-.661c-.68.059-.51,1.107.169,1.048a15.787,15.787,0,0,1,10.221,2.7,26.566,26.566,0,0,1,7.025,7.581c1.163,1.771,2.205,3.618,3.248,5.462C326.327,598.5,327.3,598.079,326.964,597.482Z" transform="translate(-286.888 -446.243)" fill="#f2f2f2"/>
  <path id="Tracé_1766" data-name="Tracé 1766" d="M352.853,627.916a7.7,7.7,0,0,0-4.721-6.453v-3.68h-6.173v3.8a7.7,7.7,0,0,0-4.464,6.337l-1.451,16.872H354.3Z" transform="translate(-307.013 -469.977)" fill="#f2f2f2"/>
</svg>
