<svg xmlns="http://www.w3.org/2000/svg" width="149.218" height="126.209" viewBox="0 0 149.218 126.209">
  <g id="Groupe_1929" data-name="Groupe 1929" transform="translate(0.001 0)">
    <path id="Tracé_1676" data-name="Tracé 1676" d="M587.231,239.23c4.95-3.657,11.919-5.059,17.373-2.206a28.356,28.356,0,0,0-14.111,13.412c-1.138,2.317-2.163,5.012-4.512,6.082a6.339,6.339,0,0,1-4.7,0,18.824,18.824,0,0,1-4.187-2.356l-.4-.048C579.059,248.431,582.281,242.886,587.231,239.23Z" transform="translate(-507.424 -221.502)" fill="#f0f0f0"/>
    <path id="Tracé_1677" data-name="Tracé 1677" d="M604.85,241.766a24.237,24.237,0,0,0-14.038,5.029,10.437,10.437,0,0,0-2.287,2.337,5.985,5.985,0,0,0-.987,2.992,12.391,12.391,0,0,1-.343,2.979,3.665,3.665,0,0,1-2.046,2.191,9.523,9.523,0,0,1-3.735.639,9.35,9.35,0,0,0-4.151.712c-.155.08-.271-.165-.116-.245,2.228-1.153,4.831-.4,7.172-1.087a3.712,3.712,0,0,0,2.534-2.062,9.611,9.611,0,0,0,.406-3.018,6.387,6.387,0,0,1,.856-2.961,9.648,9.648,0,0,1,2.189-2.417,23.515,23.515,0,0,1,6.363-3.678,24.666,24.666,0,0,1,8.208-1.682c.174-.005.149.265-.024.27Z" transform="translate(-507.714 -226.122)" fill="#fff"/>
    <path id="Tracé_1678" data-name="Tracé 1678" d="M640.872,244.235a3.636,3.636,0,0,1,.854-4.63c.136-.11.313.1.177.206a3.367,3.367,0,0,0-.786,4.309c.088.151-.158.266-.245.116Z" transform="translate(-556.534 -224.641)" fill="#fff"/>
    <path id="Tracé_1679" data-name="Tracé 1679" d="M622.045,283.924a7.008,7.008,0,0,0,5.082-.512c.155-.08.271.166.116.245a7.29,7.29,0,0,1-5.289.522C621.786,284.132,621.878,283.877,622.045,283.924Z" transform="translate(-542.251 -258.431)" fill="#fff"/>
    <path id="Tracé_1680" data-name="Tracé 1680" d="M673.181,245.675a2.058,2.058,0,0,0,1.415,1.346c.169.045.076.3-.091.255a2.306,2.306,0,0,1-1.569-1.485.14.14,0,0,1,.065-.181A.136.136,0,0,1,673.181,245.675Z" transform="translate(-581.622 -229.285)" fill="#fff"/>
    <path id="Tracé_1681" data-name="Tracé 1681" d="M607.779,301.886c-.106-.025-.212-.051-.32-.075a27.106,27.106,0,0,0-4.349-.648c-.113-.009-.228-.017-.341-.023a28.576,28.576,0,0,0-10.433,1.354,27.752,27.752,0,0,0-3.9,1.608c-1.735.876-3.548,1.963-5.416,2.207a4.76,4.76,0,0,1-.587.047l-6.912-7.273c-.007-.024-.017-.047-.024-.072l-.289-.278.191-.112.11-.064c.025-.014.049-.028.071-.042l.023-.012c.021-.014.043-.025.063-.037q.549-.314,1.105-.621s0,0,0,0a40.8,40.8,0,0,1,8.9-3.721c.093-.025.188-.052.284-.074a26.479,26.479,0,0,1,4.254-.761,23.4,23.4,0,0,1,2.367-.1,19.467,19.467,0,0,1,6,1.017,15.458,15.458,0,0,1,9.063,7.406C607.69,301.7,607.735,301.793,607.779,301.886Z" transform="translate(-506.276 -265.981)" fill="#f0f0f0"/>
    <path id="Tracé_1682" data-name="Tracé 1682" d="M608.24,315.638A24.236,24.236,0,0,0,594,311.2a10.437,10.437,0,0,0-3.233.489,5.986,5.986,0,0,0-2.589,1.795,12.389,12.389,0,0,1-2.068,2.172,3.665,3.665,0,0,1-2.953.518,9.524,9.524,0,0,1-3.367-1.739,9.351,9.351,0,0,0-3.743-1.931c-.172-.029-.117-.295.055-.266,2.473.42,4.1,2.588,6.381,3.45a3.712,3.712,0,0,0,3.264-.121,9.612,9.612,0,0,0,2.141-2.165,6.388,6.388,0,0,1,2.466-1.849,9.649,9.649,0,0,1,3.2-.612,23.515,23.515,0,0,1,7.294.894,24.667,24.667,0,0,1,7.566,3.6c.142.1-.04.3-.182.2Z" transform="translate(-506.844 -279.661)" fill="#fff"/>
    <path id="Tracé_1683" data-name="Tracé 1683" d="M661.981,300.9a3.636,3.636,0,0,1,3.47-3.183c.174-.006.192.265.017.271a3.367,3.367,0,0,0-3.222,2.967C662.226,301.131,661.96,301.075,661.981,300.9Z" transform="translate(-573.183 -269.475)" fill="#fff"/>
    <path id="Tracé_1684" data-name="Tracé 1684" d="M629.769,320.057a7.008,7.008,0,0,0,4.366,2.651c.172.03.117.3-.055.266a7.29,7.29,0,0,1-4.537-2.768C629.436,320.067,629.664,319.919,629.769,320.057Z" transform="translate(-548.15 -286.657)" fill="#fff"/>
    <path id="Tracé_1685" data-name="Tracé 1685" d="M694.309,318.889a2.058,2.058,0,0,0,.32,1.927c.107.138-.12.286-.227.149a2.306,2.306,0,0,1-.359-2.131.14.14,0,0,1,.16-.105A.136.136,0,0,1,694.309,318.889Z" transform="translate(-597.816 -285.673)" fill="#fff"/>
    <path id="Tracé_1686" data-name="Tracé 1686" d="M453.271,197.513h-.536V182.838a8.493,8.493,0,0,0-8.493-8.493h-31.09a8.493,8.493,0,0,0-8.493,8.493v80.5a8.493,8.493,0,0,0,8.493,8.493h31.09a8.493,8.493,0,0,0,8.493-8.493V207.958h.536Z" transform="translate(-374.77 -174.345)" fill="#3f3d56"/>
    <path id="Tracé_1687" data-name="Tracé 1687" d="M452.478,184H448.42a3.013,3.013,0,0,1-2.79,4.151H427.819a3.013,3.013,0,0,1-2.79-4.151h-3.791a6.343,6.343,0,0,0-6.343,6.343v80.387a6.343,6.343,0,0,0,6.343,6.343h31.24a6.343,6.343,0,0,0,6.343-6.343h0V190.339A6.343,6.343,0,0,0,452.479,184Z" transform="translate(-382.663 -181.787)" fill="#fff"/>
    <path id="Tracé_1688" data-name="Tracé 1688" d="M454.467,359.779a17.515,17.515,0,1,1,17.277-14.653,17.5,17.5,0,0,1-17.277,14.653Zm0-34.339a16.641,16.641,0,0,0-7.641,1.833,16.839,16.839,0,1,0,7.641-1.833Z" transform="translate(-399.672 -290.32)" fill="#f0f0f0"/>
    <path id="Tracé_1689" data-name="Tracé 1689" d="M335,333.264a3.314,3.314,0,0,1,2.752,4.272l5.819,4.847-2.083,4.254-8.121-6.96A3.332,3.332,0,0,1,335,333.264Z" transform="translate(-318.15 -296.861)" fill="#ffb6b6"/>
    <path id="Tracé_1690" data-name="Tracé 1690" d="M401.343,371.1a17.444,17.444,0,0,0-1.008-4.343c-1.258-3.294-9.389-6-10.481-6.35l-.277-3.079-11.3-1.216-1.433,3.938-4.052,1.52a1.99,1.99,0,0,0-1.186,1.216h0l-3.635,1.051-3.587,1.037-12.463-8.782-.588.385-3.933,2.566-.607.4,16.128,14.551,5.991-1.406,4.505-1.06.385,1.561-1,5.485a17.164,17.164,0,0,0,22.2,1.774l2.559-2.271a17.145,17.145,0,0,0,3.848-6.76Z" transform="translate(-330.152 -314.486)" fill="#5681b9"/>
    <circle id="Ellipse_402" data-name="Ellipse 402" cx="8.134" cy="8.134" r="8.134" transform="translate(44.49 26.222) rotate(-18.319)" fill="#ffb6b6"/>
    <path id="Tracé_1691" data-name="Tracé 1691" d="M479.834,263.124a5.49,5.49,0,0,1,3.324-2.214,5.242,5.242,0,0,1,3.865.709,7.916,7.916,0,0,1,3.916-.667,4.175,4.175,0,0,1,3.23,2.125,5.814,5.814,0,0,0,.467.906,3.034,3.034,0,0,0,2.425.847l-1.342.783,1.337.623-1.82.695a5.23,5.23,0,0,1,1.219,5.3,10.568,10.568,0,0,1-2.963,4.493,6.751,6.751,0,0,1,.211-2.942,3.331,3.331,0,0,0-.5-2.966,3.367,3.367,0,0,0-1.876-.759,91.044,91.044,0,0,0-10.276-1.22,2.907,2.907,0,0,0-1.37.14,3.24,3.24,0,0,0-1.418,2.3,18.264,18.264,0,0,1,.277-4.762A8.723,8.723,0,0,1,479.834,263.124Z" transform="translate(-431.49 -241.009)" fill="#2f2e41"/>
    <path id="Tracé_1692" data-name="Tracé 1692" d="M494.828,505.313h-9.615a1.259,1.259,0,1,1,0-2.518h9.615a1.259,1.259,0,0,1,0,2.518Z" transform="translate(-435.912 -427.604)" fill="#5681b9"/>
    <path id="Tracé_1693" data-name="Tracé 1693" d="M301.46,213.274H275.013a.92.92,0,0,1,0-1.84H301.46a.92.92,0,1,1,0,1.84Z" transform="translate(-274.094 -202.943)" fill="#5681b9"/>
    <path id="Tracé_1694" data-name="Tracé 1694" d="M316.729,238.937H275.013a.92.92,0,1,1,0-1.84h41.716a.92.92,0,1,1,0,1.84Z" transform="translate(-274.094 -222.731)" fill="#5681b9"/>
    <path id="Tracé_1695" data-name="Tracé 1695" d="M308.714,263.114h-33.7a.92.92,0,1,1,0-1.84h33.7a.92.92,0,0,1,0,1.84Z" transform="translate(-274.095 -241.374)" fill="#cacaca"/>
    <path id="Tracé_1696" data-name="Tracé 1696" d="M294.017,287.2h-19a.92.92,0,1,1,0-1.84h19a.92.92,0,1,1,0,1.84Z" transform="translate(-274.095 -259.948)" fill="#cacaca"/>
    <path id="Tracé_1697" data-name="Tracé 1697" d="M304.514,311.289h-29.5a.92.92,0,1,1,0-1.84h29.5a.92.92,0,0,1,0,1.84Z" transform="translate(-274.094 -278.52)" fill="#cacaca"/>
    <path id="Tracé_1698" data-name="Tracé 1698" d="M484.278,505.431h-2.37l-1.128-9.143h3.5Z" transform="translate(-370.717 -382.674)" fill="#9f616a"/>
    <path id="Tracé_1699" data-name="Tracé 1699" d="M743.746,708.426H734.7v-.115a3.523,3.523,0,0,1,3.522-3.522h0l1.653-1.254,3.084,1.254h.79Z" transform="translate(-629.253 -582.389)" fill="#2f2e41"/>
    <path id="Tracé_1700" data-name="Tracé 1700" d="M757.833,460.4l-1.045-12.746-.821-4.784,4.6-1.016,1.526,6.55-1.329,12.35a2.127,2.127,0,1,1-2.928-.354Z" transform="translate(-645.654 -380.616)" fill="#9f616a"/>
    <path id="Tracé_1701" data-name="Tracé 1701" d="M429.278,505.431h-2.37l-1.128-9.143h3.5Z" transform="translate(-328.308 -382.674)" fill="#9f616a"/>
    <path id="Tracé_1702" data-name="Tracé 1702" d="M692.17,534.5l-1.051,1.818s-1.155.315-.777,4.079.394,26.063,2.22,28.807l.33,2.356,3.449.33.087-2.091,4.113-29.047s2.422,28.515,4.426,29.213l.724,2.376h3.161l-.187-2.8.2-35.337Z" transform="translate(-594.994 -451.825)" fill="#2f2e41"/>
    <path id="Tracé_1703" data-name="Tracé 1703" d="M693.292,424.829l-.073-.019c2.169-8.112,1.543-18.617.012-29.9v-.047l5.536-5.071h4.807l4.766,3.076a7.611,7.611,0,0,1,3.788,4.836l0,.023-1.888,6.589,1.422,19.057,0,.022-.008.021c-.46,1.167-1.694,1-3.122.808s-6.679,1.565-8.29,1.565A32.6,32.6,0,0,1,693.292,424.829Z" transform="translate(-597.271 -340.473)" fill="#e4e4e4"/>
    <path id="Tracé_1704" data-name="Tracé 1704" d="M753.017,411.423l2.065-.9,2.721,3.336,2.205,10.69-7.554-1.145Z" transform="translate(-642.946 -356.456)" fill="#e4e4e4"/>
    <path id="Tracé_1705" data-name="Tracé 1705" d="M607.1,459.452l9.441-8.627,3.281-3.577,3.617,3.015-4.247,5.215-10.581,6.506a2.127,2.127,0,1,1-1.512-2.532Z" transform="translate(-528.798 -384.773)" fill="#9f616a"/>
    <path id="Tracé_1706" data-name="Tracé 1706" d="M656.5,423.756l2.615-3.4c.022-.049,2.191-4.9,4.072-7,1.929-2.161,3.448-1.056,3.463-1.044l.038.028.1,7.98-7.24,8.652Z" transform="translate(-568.955 -357.61)" fill="#e4e4e4"/>
    <circle id="Ellipse_403" data-name="Ellipse 403" cx="4.407" cy="4.407" r="4.407" transform="translate(98.367 47.484) rotate(-80.783)" fill="#9f616a"/>
    <path id="Tracé_1707" data-name="Tracé 1707" d="M705.994,342.976a12.82,12.82,0,0,0-.231-2.235c-.2-.686-.588-1.273-.392-1.273s.294-.49.294-.49.2-.1.294,0,.2-.686.2-.686.1-.294.2-.1.1.1.2-.2.588-.49.588-.49,1.861.1,2.155-.294,3.624-.1,4.309.392,3.721,2.253,3.232,3.721a32.247,32.247,0,0,1-2.253,5.19c-.559.536-.945.73-3.588,1.255a7.528,7.528,0,0,1-3.157-1.879c0-.294.318-1.226-.193-1.353-.773-.193-.86.784-1.056.491A13.994,13.994,0,0,1,705.994,342.976Z" transform="translate(-606.6 -299.79)" fill="#2f2e41"/>
    <path id="Tracé_1708" data-name="Tracé 1708" d="M688.746,708.426H679.7v-.115a3.523,3.523,0,0,1,3.522-3.522h0l1.653-1.254,3.084,1.254h.79Z" transform="translate(-586.844 -582.389)" fill="#2f2e41"/>
    <path id="Tracé_1709" data-name="Tracé 1709" d="M424.687,723.819H276.5a.273.273,0,0,1,0-.545H424.687a.273.273,0,0,1,0,.545Z" transform="translate(-275.743 -597.609)" fill="#cacaca"/>
  </g>
</svg>
