<svg xmlns="http://www.w3.org/2000/svg" width="283.816" height="123.121" viewBox="0 0 283.816 123.121">
  <g id="Groupe_1932" data-name="Groupe 1932" transform="translate(0)">
    <path id="Tracé_1767" data-name="Tracé 1767" d="M579.126,412.839H412.609a2.666,2.666,0,0,0,0,5.332h4.717v63.777a2.666,2.666,0,0,0,5.332,0l.041-63.776H556.344l12.323,63.777a2.666,2.666,0,0,0,5.332,0l.776-63.777h4.351a2.666,2.666,0,0,0,0-5.332Z" transform="translate(-323.115 -362.048)" fill="#ccc"/>
    <path id="Tracé_1768" data-name="Tracé 1768" d="M435.1,371.842v11.289H406.819a5.648,5.648,0,1,1-.393-11.289q.2-.007.393,0Z" transform="translate(-316.745 -332.93)" fill="#f2f2f2"/>
    <path id="Tracé_1769" data-name="Tracé 1769" d="M434.308,382.415a.434.434,0,0,1-.434.434H404.825a5.949,5.949,0,0,1,0-11.9h29.048a.434.434,0,1,1,0,.868H404.825a5.08,5.08,0,0,0,0,10.16h29.048a.434.434,0,0,1,.434.434Z" transform="translate(-315.256 -332.3)" fill="#5681b9"/>
    <path id="Tracé_1770" data-name="Tracé 1770" d="M444.039,380.414H413.644a.087.087,0,1,1,0-.174h30.4a.087.087,0,1,1,0,.174Z" transform="translate(-325.681 -338.897)" fill="#ccc"/>
    <path id="Tracé_1771" data-name="Tracé 1771" d="M444.039,387.606H413.644a.087.087,0,0,1,0-.174h30.4a.087.087,0,1,1,0,.174Z" transform="translate(-325.681 -344.005)" fill="#ccc"/>
    <path id="Tracé_1772" data-name="Tracé 1772" d="M444.039,394.8H413.644a.087.087,0,0,1,0-.174h30.4a.087.087,0,1,1,0,.174Z" transform="translate(-325.681 -349.112)" fill="#ccc"/>
    <path id="Tracé_1773" data-name="Tracé 1773" d="M444.039,401.989H413.644a.087.087,0,0,1,0-.174h30.4a.087.087,0,1,1,0,.174Z" transform="translate(-325.681 -354.22)" fill="#ccc"/>
    <path id="Tracé_1774" data-name="Tracé 1774" d="M416.7,330.8V342.09H388.421a5.648,5.648,0,1,1-.393-11.289q.2-.007.393,0Z" transform="translate(-303.679 -303.783)" fill="#f2f2f2"/>
    <path id="Tracé_1775" data-name="Tracé 1775" d="M415.91,341.373a.434.434,0,0,1-.434.434H386.427a5.949,5.949,0,0,1,0-11.9h29.048a.434.434,0,0,1,0,.868H386.427a5.08,5.08,0,1,0,0,10.16h29.048a.434.434,0,0,1,.434.434Z" transform="translate(-302.189 -303.153)" fill="#3f3d56"/>
    <path id="Tracé_1776" data-name="Tracé 1776" d="M425.641,339.373H395.246a.087.087,0,1,1,0-.174h30.4a.087.087,0,1,1,0,.174Z" transform="translate(-312.615 -309.75)" fill="#ccc"/>
    <path id="Tracé_1777" data-name="Tracé 1777" d="M425.641,346.565H395.246a.087.087,0,1,1,0-.174h30.4a.087.087,0,1,1,0,.174Z" transform="translate(-312.615 -314.858)" fill="#ccc"/>
    <path id="Tracé_1778" data-name="Tracé 1778" d="M425.641,353.756H395.246a.087.087,0,1,1,0-.174h30.4a.087.087,0,0,1,0,.174Z" transform="translate(-312.615 -319.965)" fill="#ccc"/>
    <path id="Tracé_1779" data-name="Tracé 1779" d="M425.641,360.948H395.246a.087.087,0,1,1,0-.174h30.4a.087.087,0,1,1,0,.174Z" transform="translate(-312.615 -325.073)" fill="#ccc"/>
    <path id="Tracé_1780" data-name="Tracé 1780" d="M514.371,522.541V512.7a1.641,1.641,0,0,0-1.641-1.641H475.408a1.641,1.641,0,0,0-1.641,1.641v9.843Z" transform="translate(-368.442 -431.802)" fill="#ccc"/>
    <rect id="Rectangle_3386" data-name="Rectangle 3386" width="40.604" height="12.714" transform="translate(105.325 94.43)" fill="#ccc"/>
    <path id="Tracé_1781" data-name="Tracé 1781" d="M473.768,620.029v9.843a1.641,1.641,0,0,0,1.641,1.641h37.323a1.641,1.641,0,0,0,1.641-1.641v-9.843Z" transform="translate(-368.443 -509.193)" fill="#ccc"/>
    <circle id="Ellipse_422" data-name="Ellipse 422" cx="1.23" cy="1.23" r="1.23" transform="translate(124.191 84.177)" fill="#fff"/>
    <circle id="Ellipse_423" data-name="Ellipse 423" cx="1.23" cy="1.23" r="1.23" transform="translate(124.191 100.583)" fill="#fff"/>
    <circle id="Ellipse_424" data-name="Ellipse 424" cx="1.23" cy="1.23" r="1.23" transform="translate(124.258 116.64)" fill="#fff"/>
    <path id="Tracé_1782" data-name="Tracé 1782" d="M514.354,472.323v11.289H486.07a5.648,5.648,0,1,1-.393-11.289q.2-.007.393,0Z" transform="translate(-373.029 -404.291)" fill="#f2f2f2"/>
    <path id="Tracé_1783" data-name="Tracé 1783" d="M513.551,482.895a.434.434,0,0,1-.434.434H484.069a5.949,5.949,0,0,1-.007-11.9h29.055a.434.434,0,0,1,0,.868H484.069a5.08,5.08,0,0,0,0,10.16h29.048A.434.434,0,0,1,513.551,482.895Z" transform="translate(-371.531 -403.661)" fill="#3f3d56"/>
    <path id="Tracé_1784" data-name="Tracé 1784" d="M523.291,480.894H492.9a.087.087,0,0,1,0-.174h30.4a.087.087,0,1,1,0,.174Z" transform="translate(-381.965 -410.257)" fill="#ccc"/>
    <path id="Tracé_1785" data-name="Tracé 1785" d="M523.291,488.086H492.9a.087.087,0,0,1,0-.174h30.4a.087.087,0,1,1,0,.174Z" transform="translate(-381.965 -415.365)" fill="#ccc"/>
    <path id="Tracé_1786" data-name="Tracé 1786" d="M523.291,495.277H492.9a.087.087,0,0,1,0-.174h30.4a.087.087,0,1,1,0,.174Z" transform="translate(-381.965 -420.472)" fill="#ccc"/>
    <path id="Tracé_1787" data-name="Tracé 1787" d="M523.291,502.469H492.9a.087.087,0,1,1,0-.174h30.4a.087.087,0,1,1,0,.174Z" transform="translate(-381.965 -425.58)" fill="#ccc"/>
    <path id="Tracé_1788" data-name="Tracé 1788" d="M442.069,317.811H429.183a.8.8,0,0,0-.353.082l-3.253,1.628a.593.593,0,0,0,0,1.091l3.253,1.628a.8.8,0,0,0,.353.082H442.07a.676.676,0,0,0,.714-.628v-3.256a.676.676,0,0,0-.714-.628Z" transform="translate(-333.962 -294.559)" fill="#3f3d56"/>
    <path id="Tracé_1789" data-name="Tracé 1789" d="M477.789,318.439V321.7a.676.676,0,0,1-.714.628h-2.567v-4.511h2.567a.676.676,0,0,1,.714.627Z" transform="translate(-368.968 -294.56)" fill="#5681b9"/>
    <path id="Tracé_1790" data-name="Tracé 1790" d="M214.133,471.845a10.242,10.242,0,0,0,9.89-1.742c3.464-2.907,4.55-7.7,5.434-12.133l2.614-13.118-5.472,3.768c-3.935,2.71-7.959,5.506-10.684,9.431s-3.914,9.283-1.725,13.53" transform="translate(-183.285 -384.783)" fill="#e6e6e6"/>
    <path id="Tracé_1791" data-name="Tracé 1791" d="M216.281,528.57a52.949,52.949,0,0,1-.735-12.2,19.185,19.185,0,0,1,3.7-10.058,16.733,16.733,0,0,1,4.293-3.89c.429-.271.824.409.4.679a15.907,15.907,0,0,0-6.292,7.592,25.5,25.5,0,0,0-1.354,10.984c.143,2.238.445,4.462.75,6.683a.408.408,0,0,1-.275.484.4.4,0,0,1-.484-.275Z" transform="translate(-184.965 -425.626)" fill="#f2f2f2"/>
    <path id="Tracé_1792" data-name="Tracé 1792" d="M236.8,548.161a7.539,7.539,0,0,0,6.569,3.39c3.325-.158,6.1-2.479,8.593-4.682l7.381-6.517-4.885-.234c-3.513-.168-7.117-.325-10.463.758s-6.432,3.691-7.044,7.154" transform="translate(-200.151 -452.356)" fill="#e6e6e6"/>
    <path id="Tracé_1793" data-name="Tracé 1793" d="M212.867,570.968c2.666-4.717,5.758-9.959,11.283-11.635a12.59,12.59,0,0,1,4.746-.49c.5.043.378.82-.125.777a11.7,11.7,0,0,0-7.574,2,19.685,19.685,0,0,0-5.205,5.617c-.862,1.313-1.634,2.681-2.406,4.047-.247.437-.968.121-.719-.32Z" transform="translate(-183.116 -465.705)" fill="#f2f2f2"/>
    <path id="Tracé_1794" data-name="Tracé 1794" d="M195.619,599.532a5.709,5.709,0,0,1,3.5-4.781v-2.727h4.574v2.813a5.706,5.706,0,0,1,3.308,4.7l1.075,12.5H194.544Z" transform="translate(-170.14 -489.304)" fill="#f2f2f2"/>
    <path id="Tracé_1795" data-name="Tracé 1795" d="M693.038,393.836l-1.361-.573-.933-6.821h-12.43l-1.012,6.793-1.217.609a.289.289,0,0,0,.129.548h16.711a.289.289,0,0,0,.112-.556Z" transform="translate(-512.014 -343.302)" fill="#e6e6e6"/>
    <path id="Tracé_1796" data-name="Tracé 1796" d="M658.607,365.511H597.549a1.21,1.21,0,0,1-1.207-1.21v-8.61h63.471v8.61A1.21,1.21,0,0,1,658.607,365.511Z" transform="translate(-455.494 -321.462)" fill="#ccc"/>
    <path id="Tracé_1797" data-name="Tracé 1797" d="M659.741,275.88H596.15V239.04a1.46,1.46,0,0,1,1.458-1.458h60.674a1.46,1.46,0,0,1,1.458,1.458Z" transform="translate(-455.357 -237.582)" fill="#3f3d56"/>
    <path id="Tracé_1798" data-name="Tracé 1798" d="M662.495,279.758H606.5a1.125,1.125,0,0,1-1.124-1.124v-30.7a1.126,1.126,0,0,1,1.124-1.124h55.995a1.126,1.126,0,0,1,1.124,1.124v30.7A1.125,1.125,0,0,1,662.495,279.758Z" transform="translate(-461.909 -244.134)" fill="#fff"/>
    <path id="Tracé_1799" data-name="Tracé 1799" d="M748.874,395.7a3.366,3.366,0,0,1,5.12.659l7.574-1.347,1.941,4.4-10.723,1.751a3.385,3.385,0,0,1-3.912-5.466Z" transform="translate(-563.036 -349.24)" fill="#ffb6b6"/>
    <path id="Tracé_1800" data-name="Tracé 1800" d="M775.776,362.506l7.9-.1,1-.014,16.065-.2s4.362-4.162,8.161-8.447l-.532-3.851a15.734,15.734,0,0,0-5.276-9.742c-5.441,3.635-8.6,10.831-8.6,10.831l-9.961,2.382-1,.238-6.189,1.479Z" transform="translate(-582.926 -310.427)" fill="#5681b9"/>
    <path id="Tracé_1801" data-name="Tracé 1801" d="M834.03,498.962H819.292c0,.632-16.112,1.144-16.112,1.144a5.885,5.885,0,0,0-.966.915,5.68,5.68,0,0,0-1.327,3.661v.915a5.723,5.723,0,0,0,5.72,5.72h27.423a5.725,5.725,0,0,0,5.72-5.72v-.915A5.728,5.728,0,0,0,834.03,498.962Z" transform="translate(-600.76 -423.212)" fill="#e4e4e4"/>
    <rect id="Rectangle_3387" data-name="Rectangle 3387" width="5.949" height="34.339" transform="translate(216.603 87.878)" fill="#e4e4e4"/>
    <path id="Tracé_1802" data-name="Tracé 1802" d="M799.312,644.514c0,.643,9.015.249,20.136.249s20.136.394,20.136-.249-9.015-5.74-20.136-5.74S799.312,643.871,799.312,644.514Z" transform="translate(-599.642 -522.506)" fill="#e4e4e4"/>
    <path id="Tracé_1803" data-name="Tracé 1803" d="M659.174,365.609h-4.428l-2.106-17.078h6.535Z" transform="translate(-463.5 -247.524)" fill="#ffb6b6"/>
    <path id="Tracé_1804" data-name="Tracé 1804" d="M754.433,645.791H740.157v-.181a5.557,5.557,0,0,1,5.557-5.557h8.72Z" transform="translate(-557.63 -523.414)" fill="#2f2e41"/>
    <path id="Tracé_1805" data-name="Tracé 1805" d="M614.019,365.609h-4.428l-2.106-17.078h6.535Z" transform="translate(-431.431 -247.524)" fill="#ffb6b6"/>
    <path id="Tracé_1806" data-name="Tracé 1806" d="M709.278,645.791H695v-.181a5.557,5.557,0,0,1,5.556-5.557h8.72Z" transform="translate(-525.561 -523.414)" fill="#2f2e41"/>
    <circle id="Ellipse_425" data-name="Ellipse 425" cx="7.698" cy="7.698" r="7.698" transform="translate(214.551 4.368)" fill="#ffb6b6"/>
    <path id="Tracé_1807" data-name="Tracé 1807" d="M807.023,455.239s2.583,13.659-7.245,15.4-24.015,2.962-24.015,2.962l-6.371,29.725-8.559-.764s1.138-35.782,3.938-38.581S785.263,452.8,785.263,452.8Z" transform="translate(-572.314 -390.426)" fill="#2f2e41"/>
    <path id="Tracé_1808" data-name="Tracé 1808" d="M754.8,441.471l-4.3,4.312s-31.037,5-32.234,12.168c-1.808,10.823-3.943,34.357-3.943,34.357l9.331-.7,3.659-26.753,14.93-3.4,16.987-9.257Z" transform="translate(-539.281 -382.383)" fill="#2f2e41"/>
    <path id="Tracé_1809" data-name="Tracé 1809" d="M864.073,249.769c-.76-1.434-1.726-4.291-3.259-4.821a12.194,12.194,0,0,0-2.625-.559l-2.607,1,1.419-1.1q-.414-.025-.828-.04l-1.759.677.9-.7a7.186,7.186,0,0,0-4.6,1.152c-1.083.851-2.157,4.075-2.33,5.442a10.409,10.409,0,0,0,.191,3.921l.445.424a5.466,5.466,0,0,0,.349-1.113,5.269,5.269,0,0,1,2.522-3.422l.024-.014a4.728,4.728,0,0,1,2.511-.37l4.069.146a3.465,3.465,0,0,1,3.915,2.331,34.294,34.294,0,0,1,1.12,3.653s.419-.545.62-.139a14.027,14.027,0,0,0,.584-3.256A6.377,6.377,0,0,0,864.073,249.769Z" transform="translate(-634.415 -242.299)" fill="#2f2e41"/>
    <path id="Tracé_1810" data-name="Tracé 1810" d="M973.057,290.861a3.366,3.366,0,0,0-3.047,4.167l-6.191,4.567,1.857,4.439,8.652-6.572a3.385,3.385,0,0,0-1.272-6.6Z" transform="translate(-716.474 -275.414)" fill="#ffb6b6"/>
    <path id="Tracé_1811" data-name="Tracé 1811" d="M913.753,311.6l-15.52,17.236s-7.422-2.376-13.161-4.952l-2.579-7.92a15.748,15.748,0,0,1-.754-5.7c7.957-2.117,17.212,5.761,17.212,5.761l11.617-9.1Z" transform="translate(-658.166 -286.831)" fill="#5681b9"/>
    <path id="Tracé_1812" data-name="Tracé 1812" d="M845.607,358.6a42.016,42.016,0,0,0-8.72-2.317l-.133-.016.037-.128c3.2-11.224,2.4-18.4.832-29.19a10.894,10.894,0,0,1,6.245-11.448l.019-.009,8.82-.56h.02l6.415,1.887a4.4,4.4,0,0,1,3.149,4.3c-.069,3.547.078,7.507.234,11.7.35,9.406.712,19.132-1.342,25.443l-.011.033-.027.022a10.462,10.462,0,0,1-6.689,2.35C851.577,360.664,848.639,359.649,845.607,358.6Z" transform="translate(-626.233 -292.516)" fill="#5681b9"/>
    <path id="Tracé_1813" data-name="Tracé 1813" d="M393.744,660.408h-283a.41.41,0,0,1,0-.82h283a.41.41,0,0,1,0,.82Z" transform="translate(-110.337 -537.287)" fill="#ccc"/>
  </g>
</svg>
