<svg id="Groupe_2507" data-name="Groupe 2507" xmlns="http://www.w3.org/2000/svg" width="352.034" height="254.705" viewBox="0 0 352.034 254.705">
  <path id="Tracé_4709" data-name="Tracé 4709" d="M352.034,262.538h0a.448.448,0,0,1-.448.448H0v-.9H351.586a.448.448,0,0,1,.448.448Z" transform="translate(0 -122.304)" fill="#e6e6e6"/>
  <g id="Groupe_2497" data-name="Groupe 2497" transform="translate(50.19 0)">
    <circle id="Ellipse_818" data-name="Ellipse 818" cx="13.287" cy="13.287" r="13.287" transform="translate(52.126 4.858)" fill="#ffb6b6"/>
    <path id="Tracé_4710" data-name="Tracé 4710" d="M203.832,64.188l-17.489,5-2.5,5.621-5.621,26.858v42.473s-6.871,14.99-3.123,28.107c4.006,14.02,18.114-2.528,28.732-.639s27.483,3.762,27.483,3.762l-9.994-45.6-2.5-55.59-14.991-9.994Z" transform="translate(-131.378 -29.953)" fill="#e6e6e6"/>
    <path id="Tracé_4711" data-name="Tracé 4711" d="M207.217,22.5l-2.7-1.351s-.675-6.078-2.026-7.429-1.351-2.026-1.351-2.026l2.026-2.7s-10.13,5.4-12.156,2.026.675-4.727.675-4.727l-3.377-2.7s4.052,2.7,4.727.675,4.727-3.4,4.727-3.4,8.848,2,8.139,0,1.991.024,2.667.7S215.321,8.989,216,8.314s4.052,1.351,3.377,2.026a1.266,1.266,0,0,0,0,2.026c.675.675,4.727,8.1,1.351,10.805s-8.1,6.078-7.429,8.779,0-8.779-6.078-9.455Z" transform="translate(-138.063 0)" fill="#2f2e41"/>
    <g id="Groupe_2494" data-name="Groupe 2494" transform="translate(0 44.212)">
      <path id="uuid-9ec032c4-1053-42c3-862e-530ead60710b" d="M97.759,95.672c-3.41-2.94-4.658-7.082-2.786-9.252s6.152-1.546,9.563,1.4A11.268,11.268,0,0,1,107.69,92.1l14.292,12.638-6.074,6.58L102.464,98.163a11.269,11.269,0,0,1-4.705-2.49Z" transform="translate(-94.103 -83.936)" fill="#ffb6b6"/>
      <path id="Tracé_4712" data-name="Tracé 4712" d="M154.916,83.75l9.414-.856,8.256,39.375A13.637,13.637,0,0,1,161.7,138.482l-6.785,1.246-43.247-38.078,6.318-10.533,31.893,20.006,5.036-27.372Z" transform="translate(-102.3 -82.895)" fill="#e6e6e6"/>
    </g>
    <g id="Groupe_2495" data-name="Groupe 2495" transform="translate(4.885 81.743)">
      <path id="Tracé_4713" data-name="Tracé 4713" d="M147.259,412.813s-7.467,13.867-6.934,13.334,9.6,2.667,9.6,2.667l5.333-13.867Z" transform="translate(-120.545 -274.381)" fill="#ffb6b6"/>
      <path id="Tracé_4714" data-name="Tracé 4714" d="M129.654,230.817s-3.822,15.279-3.437,14.631,9.961.221,9.961.221l1.755-14.754-8.279-.1Z" transform="translate(-113.962 -189.453)" fill="#ffb6b6"/>
      <path id="Tracé_4715" data-name="Tracé 4715" d="M216.213,217.746c-16.874,2.371-32.116.3-44.535-9.434,0,0-9.067,30.4,7.467,33.6s34.935-2.3,37.068-7.634S216.213,217.746,216.213,217.746Z" transform="translate(-134.031 -178.951)" fill="#2f2e41"/>
      <path id="Tracé_4716" data-name="Tracé 4716" d="M174.783,244l-18.4,43.368L147.849,337.5l11.2,2.667,20.034-46.135,27.167-44.168Z" transform="translate(-124.069 -195.605)" fill="#2f2e41"/>
      <path id="Tracé_4717" data-name="Tracé 4717" d="M163.059,189.29s-4.267-33.068-12.267-35.2a26.119,26.119,0,0,0-10.26-.563,6.352,6.352,0,0,0-5.393,5.188l-7.27,41.343h10.281l3.309-11.2,8.8,15.367,12.8-14.934Z" transform="translate(-114.745 -153.262)" fill="#2f2e41"/>
      <path id="Tracé_4718" data-name="Tracé 4718" d="M125.443,248.334l-10.165-1.067-1.569,5.867s-16.534,14.934-8,16,16.534-4.8,16.534-4.8l11.739-6.734s-4.539-12.1-7.739-12.1-.8,2.833-.8,2.833Z" transform="translate(-103.263 -196.305)" fill="#2f2e41"/>
      <path id="Tracé_4719" data-name="Tracé 4719" d="M135.443,435.367,125.278,434.3l-1.569,5.867s-16.534,14.934-8,16,16.534-4.8,16.534-4.8l11.739-6.734S143.176,432,139.976,432s-4.533,3.367-4.533,3.367Z" transform="translate(-107.929 -283.335)" fill="#2f2e41"/>
    </g>
    <g id="Groupe_2496" data-name="Groupe 2496" transform="translate(73.697 43.089)">
      <path id="uuid-0c2c35cf-ee7e-4b84-8f52-274d32364181" d="M242.451,264.974c-1.226,4.2-4.388,6.978-7.063,6.2s-3.849-4.82-2.623-9.025a10.958,10.958,0,0,1,2.52-4.52l5.418-17.745,8.273,2.72-6.22,17.2A10.959,10.959,0,0,1,242.451,264.974Z" transform="translate(-232.279 -155.029)" fill="#ffb6b6"/>
      <path id="Tracé_4720" data-name="Tracé 4720" d="M249.608,82.006l-4.314-1.217h0a49.09,49.09,0,0,0-5.054,26.18l2.129,25.185-7.025,44.267,13.769,3.562,10.85-55.553L249.608,82.006Z" transform="translate(-233.71 -80.789)" fill="#e6e6e6"/>
    </g>
  </g>
  <g id="Groupe_2498" data-name="Groupe 2498" transform="translate(14.685 90.707)">
    <path id="Tracé_4721" data-name="Tracé 4721" d="M77.779,205.083c-.189-.578-1.621-.324-1.758-.841s1.237-.947,2.291-2.4c.19-.262,1.387-1.912.928-2.606-.871-1.315-6.927,1.961-8.381.122a24.3,24.3,0,0,0-1.4-2.385c-.378-.513-.621-.76-.911-.753-.411.01-.558.525-1.2,1.457-.969,1.4-1.319,1.222-1.958,2.368-.474.85-.53,1.393-.872,1.425-.484.045-.684-1.013-1.275-1.054s-1.207,1-1.506,1.821a8.081,8.081,0,0,0-.137,3.874,9.57,9.57,0,0,1-1.492,5.513L47.093,232.352c2.794-4.225,10.725-15.748,13.92-19.974.922-1.22,1.914-2.445,3.439-2.676,1.469-.222,3.256.5,5.751.463.291,0,1.1-.029,1.3-.459.163-.355-.242-.664-.095-1,.2-.448,1.086-.256,2.3-.553a6.613,6.613,0,0,0,1.933-.855c.15-.09,2.391-1.447,2.14-2.217Z" transform="translate(-36.661 -182.273)" fill="#f2f2f2"/>
    <path id="Tracé_4722" data-name="Tracé 4722" d="M34.578,219.806c-.338-.074-.626.7-.92.62s-.108-.88-.517-1.816c-.074-.169-.538-1.233-1.011-1.207-.9.048-1.036,3.966-2.358,4.149a13.834,13.834,0,0,0-1.575,0c-.361.038-.552.085-.632.23-.114.2.1.426.367,1.012.406.879.219,1,.6,1.644.28.478.531.662.448.839-.117.251-.695.043-.885.321s.145.882.459,1.265a4.6,4.6,0,0,0,1.862,1.185,5.449,5.449,0,0,1,2.275,2.323l6.419,12.366c-1.268-2.59-4.635-9.807-5.787-12.6a3.251,3.251,0,0,1-.321-2.46c.315-.785,1.187-1.452,1.886-2.689.082-.144.3-.549.15-.77-.127-.183-.4-.073-.517-.242-.163-.226.188-.607.391-1.287a3.765,3.765,0,0,0,.138-1.2c0-.1-.02-1.591-.471-1.69h0Z" transform="translate(-27.534 -192.157)" fill="#f2f2f2"/>
    <path id="Tracé_4723" data-name="Tracé 4723" d="M52.749,221.41l.2-1.863.124-.117a3.445,3.445,0,0,0,1.065-1.7c.021-.094.038-.189.055-.285a2.913,2.913,0,0,1,.518-1.354c.206-.276.751-.9,1.314-.681a.675.675,0,0,1,.325.26l.056-.056a2.049,2.049,0,0,1,.576-.406,2.4,2.4,0,0,0,.475-.306c.1-.077.174-.146.239-.2a.874.874,0,0,1,.8-.3.933.933,0,0,1,.575.681,4.487,4.487,0,0,1,.225.885,1.408,1.408,0,0,0,.033.171c.08.2,1.087.254,1.466.276.852.046,1.588.086,1.766.669.127.417-.138.872-.81,1.388a3.041,3.041,0,0,1-.6.354.623.623,0,0,1,.207.447h0c.012.465-.465.822-1.418,1.063a3.1,3.1,0,0,1-.973.12,3.628,3.628,0,0,1-.515-.068.613.613,0,0,1-.134.253.921.921,0,0,1-1.02.168,7.515,7.515,0,0,1-1.277-.509,3.292,3.292,0,0,0-.809-.311,1.881,1.881,0,0,0-1.283.547l-1.177.883h0Z" transform="translate(-39.3 -190.744)" fill="#f2f2f2"/>
    <path id="Tracé_4724" data-name="Tracé 4724" d="M51.831,200.238l-1.853.277-.145-.09a3.445,3.445,0,0,0-1.919-.6c-.1,0-.192.011-.29.019a2.913,2.913,0,0,1-1.441-.158c-.319-.129-1.06-.5-.992-1.1a.675.675,0,0,1,.169-.381l-.068-.04a2.049,2.049,0,0,1-.539-.455,2.4,2.4,0,0,0-.416-.382c-.1-.074-.186-.131-.259-.179a.874.874,0,0,1-.493-.693.933.933,0,0,1,.513-.729,4.489,4.489,0,0,1,.8-.442,1.412,1.412,0,0,0,.157-.076c.175-.129-.03-1.116-.1-1.488-.171-.835-.32-1.558.2-1.878.371-.229.879-.088,1.548.432a3.041,3.041,0,0,1,.5.492.623.623,0,0,1,.38-.314h0c.447-.13.913.241,1.388,1.1a3.1,3.1,0,0,1,.363.91,3.627,3.627,0,0,1,.065.515.612.612,0,0,1,.279.066.921.921,0,0,1,.421.944,7.519,7.519,0,0,1-.168,1.364,3.291,3.291,0,0,0-.1.861c.05.422.4.736.854,1.1l1.152.914h0Z" transform="translate(-35.025 -180.183)" fill="#f2f2f2"/>
    <path id="Tracé_4725" data-name="Tracé 4725" d="M59.514,191.081l.2-1.863.124-.117a3.445,3.445,0,0,0,1.065-1.7c.021-.094.038-.189.055-.285a2.913,2.913,0,0,1,.518-1.354c.206-.276.751-.9,1.314-.681a.675.675,0,0,1,.325.26l.056-.056a2.049,2.049,0,0,1,.576-.406,2.4,2.4,0,0,0,.475-.306c.1-.077.174-.146.239-.2a.874.874,0,0,1,.8-.3.933.933,0,0,1,.575.681,4.488,4.488,0,0,1,.225.885,1.406,1.406,0,0,0,.033.171c.08.2,1.087.254,1.466.276.852.046,1.588.086,1.766.669.127.417-.138.872-.81,1.388a3.04,3.04,0,0,1-.6.354.623.623,0,0,1,.207.447h0c.012.465-.465.822-1.418,1.063a3.1,3.1,0,0,1-.973.12,3.624,3.624,0,0,1-.515-.068.613.613,0,0,1-.134.253.921.921,0,0,1-1.02.168,7.518,7.518,0,0,1-1.277-.509,3.293,3.293,0,0,0-.809-.311,1.881,1.881,0,0,0-1.283.547l-1.177.883h0Z" transform="translate(-42.457 -176.591)" fill="#f2f2f2"/>
    <path id="Tracé_4726" data-name="Tracé 4726" d="M47.546,225.668l-.328-.324.006-.46-.006.46-.455-.048c0-.043,0-.143,0-.3a65.119,65.119,0,0,1,.291-7.473,75.008,75.008,0,0,1,1.26-8.442c.583-2.809,1.188-4.9,1.675-6.578.367-1.267.737-2.469,1.1-3.639a70.889,70.889,0,0,0,2.44-9.451,9.038,9.038,0,0,0-.148-4.166,8.565,8.565,0,0,0-1.585-3l.717-.579a9.5,9.5,0,0,1,1.753,3.321,9.9,9.9,0,0,1,.172,4.575,71.578,71.578,0,0,1-2.468,9.569c-.36,1.166-.729,2.363-1.094,3.624-.482,1.664-1.082,3.736-1.657,6.509a74.09,74.09,0,0,0-1.245,8.338,64.09,64.09,0,0,0-.287,7.371c.009.451.011.545-.134.691h0Z" transform="translate(-36.499 -175.484)" fill="#f2f2f2"/>
    <path id="Tracé_4727" data-name="Tracé 4727" d="M50.5,177.9c-.037-.008-.074-.017-.111-.028a2.944,2.944,0,0,1-1.8-1.831,6.438,6.438,0,0,1-.352-1.958,11.5,11.5,0,0,1,0-1.948c.054-.669.126-.937.308-1.148a1.4,1.4,0,0,1,.762-.437.52.52,0,0,1,.094-.257c.237-.341.633-.2.848-.128a2.259,2.259,0,0,0,.4.114,1.157,1.157,0,0,0,.6-.063,2.561,2.561,0,0,1,.818-.128,2.745,2.745,0,0,1,1.389.428,4.035,4.035,0,0,1,1.57,2.4,7.03,7.03,0,0,1,.364,1.855,2.059,2.059,0,0,1-.149,1.144c-.206.4-.522.592-1.306.986a12.354,12.354,0,0,1-1.567.727,3.46,3.46,0,0,1-1.856.272Z" transform="translate(-37.173 -170.069)" fill="#f2f2f2"/>
  </g>
  <path id="Tracé_4728" data-name="Tracé 4728" d="M433.2,38.543s5.086,2.983,3.418,5.933-3.994,6.968-2.416,8.234,4.182,6.845,4.182,6.845S449.5,58,448.461,66.638s-6.267,9.814-1.79,13.613-4.653,8.343-4.653,8.343-6.3-1.964-7.74-8,1.282,4.618.37,5.382-4.454,5.8-6.96-.9-.024-9.294-3.336-13.246-5.563-10.346-5.464-11.463-3.788-11.315,2.194-15.292A81.044,81.044,0,0,1,433.2,38.543Z" transform="translate(-194.936 -17.986)" fill="#2f2e41"/>
  <g id="Groupe_2499" data-name="Groupe 2499" transform="translate(234.748 54.367)">
    <path id="uuid-40eda929-ef4c-4923-ad7d-cda70967e632" d="M526.917,197.572c2.953,2.444,6.608,2.9,8.163,1.022s.422-5.384-2.533-7.829a9.594,9.594,0,0,0-4.047-2.038l-12.643-10.2-4.659,6.035,12.959,9.412a9.6,9.6,0,0,0,2.76,3.595Z" transform="translate(-473.298 -137.677)" fill="#ffb6b6"/>
    <path id="Tracé_4729" data-name="Tracé 4729" d="M455.863,106.214s-9.922-6.636-13.171-3.382-2.473,11.381-2.473,11.381l26.02,30.324,20.632,13.115,5.533-8.663L475.057,133.51l-19.194-27.3Z" transform="translate(-440.138 -101.934)" fill="#3f3d56"/>
  </g>
  <path id="Tracé_4730" data-name="Tracé 4730" d="M428.215,80.409l3.6,12.8h-19.76l6.507-15.767Z" transform="translate(-192.285 -36.136)" fill="#ffb6b6"/>
  <path id="Tracé_4731" data-name="Tracé 4731" d="M428.215,80.409l3.6,12.8h-19.76l6.507-15.767Z" transform="translate(-192.285 -36.136)" opacity="0.1"/>
  <g id="Groupe_2500" data-name="Groupe 2500" transform="translate(190.769 62.756)">
    <path id="uuid-c7296f43-523d-4c33-91d5-0d02a2c7186e" d="M361.539,242.337c-.255,3.825,1.512,7.057,3.946,7.219s4.614-2.807,4.868-6.634a9.594,9.594,0,0,0-.714-4.474l.876-16.22-7.62-.249L362.84,238A9.594,9.594,0,0,0,361.539,242.337Z" transform="translate(-359.469 -166.342)" fill="#ffb6b6"/>
    <path id="Tracé_4732" data-name="Tracé 4732" d="M382.694,130.393s-.421-11.929-4.961-12.661-10.677,4.651-10.677,4.651l-9.377,38.842,1.431,24.406,10.263-.58,2.409-23.123,10.913-31.535Z" transform="translate(-357.679 -117.664)" fill="#3f3d56"/>
  </g>
  <path id="Tracé_4733" data-name="Tracé 4733" d="M480.1,408.813s7.467,13.867,6.934,13.334-9.6,2.667-9.6,2.667L472.1,410.946Z" transform="translate(-220.306 -190.772)" fill="#ffb6b6"/>
  <path id="Tracé_4734" data-name="Tracé 4734" d="M500.522,226.817s3.822,15.279,3.437,14.631-9.961.221-9.961.221l-1.755-14.753,8.279-.1Z" transform="translate(-229.704 -105.844)" fill="#ffb6b6"/>
  <path id="Tracé_4735" data-name="Tracé 4735" d="M412.9,99H394.262L373.97,112.867,368.1,161.4l3.2,9.6,5.867,11.2s-5.867-24.534,8.534-14.934,15.467,11.2,15.467,11.2l19.2-9.6,7.2-39.735-5.333-21.867Z" transform="translate(-171.775 -46.198)" fill="#3f3d56"/>
  <path id="Tracé_4736" data-name="Tracé 4736" d="M382.273,213.746c16.874,2.371,32.116.3,44.535-9.434,0,0,9.067,30.4-7.467,33.6s-34.935-2.3-37.068-7.634S382.273,213.746,382.273,213.746Z" transform="translate(-177.945 -95.342)" fill="#2f2e41"/>
  <path id="Tracé_4737" data-name="Tracé 4737" d="M414.571,240l18.4,43.368,8.534,50.135-11.2,2.667L410.27,290.035,383.1,245.867Z" transform="translate(-178.774 -111.996)" fill="#2f2e41"/>
  <path id="Tracé_4738" data-name="Tracé 4738" d="M446.6,185.29s4.267-33.068,12.267-35.2a26.119,26.119,0,0,1,10.26-.563,6.352,6.352,0,0,1,5.393,5.188l7.27,41.343H471.513l-3.309-11.2-8.8,15.367L446.6,185.29Z" transform="translate(-208.406 -69.653)" fill="#2f2e41"/>
  <path id="Tracé_4739" data-name="Tracé 4739" d="M488.132,244.334l10.165-1.067,1.569,5.867s16.534,14.934,8,16-16.534-4.8-16.534-4.8L479.593,253.6s4.539-12.1,7.739-12.1S488.132,244.334,488.132,244.334Z" transform="translate(-223.801 -112.696)" fill="#2f2e41"/>
  <path id="Tracé_4740" data-name="Tracé 4740" d="M478.132,431.367,488.3,430.3l1.569,5.867s16.534,14.934,8,16-16.534-4.8-16.534-4.8l-11.739-6.734S470.4,428,473.6,428s4.534,3.367,4.534,3.367Z" transform="translate(-219.135 -199.726)" fill="#2f2e41"/>
  <circle id="Ellipse_819" data-name="Ellipse 819" cx="11.899" cy="11.899" r="11.899" transform="translate(219.336 23.254)" fill="#ffb6b6"/>
  <path id="Tracé_4741" data-name="Tracé 4741" d="M411.771,38.53s1.983,5.553-1.19,6.743-7.536,2.777-7.14,4.76-1.19,7.933-1.19,7.933,9.52,5.95,3.173,11.9-11.106,3.5-10.115,9.285-8.925,3.407-8.925,3.407-3.57-5.553-.793-11.106-1.983,4.363-3.173,4.363-7.14,1.587-4.76-5.156,5.95-7.14,5.95-12.3,2.38-11.5,3.173-12.3,4.363-11.106,11.5-10.313a81.045,81.045,0,0,1,13.486,2.777Z" transform="translate(-175.974 -16.664)" fill="#2f2e41"/>
  <path id="Tracé_4742" data-name="Tracé 4742" d="M241.013,408.813s-7.467,13.867-6.934,13.334,9.6,2.667,9.6,2.667l5.334-13.867Z" transform="translate(-109.22 -190.772)" fill="#a0616a"/>
  <path id="Tracé_4743" data-name="Tracé 4743" d="M309.967,213.746c-16.874,2.371-32.116.3-44.535-9.434,0,0-9.067,30.4,7.467,33.6s34.935-2.3,37.068-7.634S309.967,213.746,309.967,213.746Z" transform="translate(-122.706 -95.342)" fill="#2f2e41"/>
  <path id="Tracé_4744" data-name="Tracé 4744" d="M268.537,240l-18.4,43.368L241.6,333.5l11.2,2.667,20.034-46.135,27.167-44.169Z" transform="translate(-112.744 -111.996)" fill="#2f2e41"/>
  <path id="Tracé_4745" data-name="Tracé 4745" d="M229.2,431.367,219.032,430.3l-1.569,5.867s-16.534,14.934-8,16,16.534-4.8,16.534-4.8l11.739-6.734S236.93,428,233.73,428s-4.533,3.367-4.533,3.367Z" transform="translate(-96.604 -199.726)" fill="#2f2e41"/>
  <path id="Tracé_4746" data-name="Tracé 4746" d="M276.517,394.749s-2.825,15.494-2.482,14.822,9.955-.425,9.955-.425l.8-14.836-8.268.439Z" transform="translate(-127.865 -184.004)" fill="#a0616a"/>
  <path id="Tracé_4747" data-name="Tracé 4747" d="M265.832,217.061l-4.124,46.93,7.35,50.322,11.477-.919,4.824-50.065,12.216-50.395Z" transform="translate(-122.126 -99.365)" fill="#2f2e41"/>
  <path id="Tracé_4748" data-name="Tracé 4748" d="M274.428,414.85l-10,2.121.318,6.065s-11.12,19.306-2.674,17.688,14.247-9.667,14.247-9.667l9.089-10.027s-4.663-11.769-7.707-10.781-3.274,4.6-3.274,4.6Z" transform="translate(-120.818 -191.414)" fill="#2f2e41"/>
  <path id="Tracé_4749" data-name="Tracé 4749" d="M274.061,38.543s-5.086,2.983-3.418,5.933,3.994,6.968,2.416,8.234-4.182,6.845-4.182,6.845S257.758,58,258.8,66.638s6.267,9.814,1.79,13.613,4.653,8.343,4.653,8.343,6.3-1.964,7.74-8-1.282,4.618-.37,5.382,4.454,5.8,6.96-.9.024-9.294,3.336-13.246,5.563-10.346,5.464-11.463,3.788-11.315-2.194-15.292a81.045,81.045,0,0,0-12.121-6.532Z" transform="translate(-120.737 -17.986)" fill="#2f2e41"/>
  <path id="Tracé_4750" data-name="Tracé 4750" d="M288.7,80.409l-3.6,12.8h19.759l-6.506-15.767Z" transform="translate(-133.043 -36.136)" fill="#a0616a"/>
  <path id="Tracé_4751" data-name="Tracé 4751" d="M288.7,80.409l-3.6,12.8h19.759l-6.506-15.767Z" transform="translate(-133.043 -36.136)" opacity="0.1"/>
  <g id="Groupe_2501" data-name="Groupe 2501" transform="translate(175.806 62.756)">
    <path id="uuid-30591428-cd87-4ca8-90c0-8a5e265d7e31" d="M364.791,242.337c.255,3.825-1.512,7.057-3.946,7.219s-4.614-2.807-4.868-6.634a9.593,9.593,0,0,1,.714-4.474l-.876-16.22,7.62-.249L363.49,238a9.6,9.6,0,0,1,1.3,4.341Z" transform="translate(-341.846 -166.342)" fill="#a0616a"/>
    <path id="Tracé_4752" data-name="Tracé 4752" d="M329.624,130.393s.421-11.929,4.961-12.661,10.677,4.651,10.677,4.651l9.377,38.842-1.431,24.406-10.263-.58-2.409-23.123-10.913-31.535Z" transform="translate(-329.624 -117.664)" fill="#98984b"/>
  </g>
  <path id="Tracé_4753" data-name="Tracé 4753" d="M273.237,99h18.642l20.293,13.867,5.867,48.535-3.2,9.6-5.867,11.2s5.867-24.534-8.534-14.934l-.428.286a25.2,25.2,0,0,1-30.082-1.56l-6.824-5.659,3.733-18.667-2.933-34.4L273.237,99Z" transform="translate(-122.777 -46.198)" fill="#98984b"/>
  <g id="Groupe_2502" data-name="Groupe 2502" transform="translate(94.969 54.414)">
    <path id="uuid-53b096d6-03cc-438c-8f9a-f5acbbdd06bd" d="M186.9,196.418c-2.99,2.4-6.651,2.8-8.178.9s-.34-5.39,2.652-7.789a9.593,9.593,0,0,1,4.077-1.976l12.8-10,4.567,6.105-13.1,9.214a9.594,9.594,0,0,1-2.814,3.553Z" transform="translate(-178.061 -137.266)" fill="#a0616a"/>
    <path id="Tracé_4754" data-name="Tracé 4754" d="M234.73,106.142s10.022-6.484,13.221-3.181,2.3,11.417,2.3,11.417L223.774,144.3l-20.829,12.8-5.4-8.746,17.579-15.213,19.607-27Z" transform="translate(-187.153 -102.023)" fill="#98984b"/>
  </g>
  <circle id="Ellipse_820" data-name="Ellipse 820" cx="11.899" cy="11.899" r="11.899" transform="translate(148.456 23.254)" fill="#a0616a"/>
  <path id="Tracé_4755" data-name="Tracé 4755" d="M288.749,45.844S287,40,289.917,40s14.609.584,15.778,1.753,15,12.9,6.817,22.248,0,13.867,0,13.867,6.039,14.14.2,15.308-29.813-5.514-23.959-16.362C295.1,65.042,298.058,46.461,288.749,45.844Z" transform="translate(-134.318 -18.666)" fill="#2f2e41"/>
  <g id="Groupe_2503" data-name="Groupe 2503" transform="translate(308.029 91.24)">
    <path id="Tracé_4756" data-name="Tracé 4756" d="M627.78,206.083c-.189-.578-1.621-.324-1.758-.841s1.237-.947,2.291-2.4c.19-.262,1.387-1.912.928-2.606-.871-1.315-6.927,1.961-8.381.122a24.317,24.317,0,0,0-1.4-2.385c-.378-.513-.621-.76-.911-.753-.411.01-.558.525-1.2,1.457-.97,1.4-1.319,1.222-1.958,2.368-.474.85-.53,1.393-.872,1.425-.484.045-.684-1.013-1.275-1.054s-1.207,1-1.506,1.821a8.081,8.081,0,0,0-.137,3.874,9.571,9.571,0,0,1-1.492,5.513l-13.009,20.727c2.794-4.225,10.725-15.748,13.92-19.974.922-1.22,1.914-2.445,3.439-2.676,1.469-.222,3.256.5,5.751.463.292,0,1.1-.029,1.3-.459.163-.355-.242-.664-.095-1,.2-.448,1.086-.256,2.3-.553a6.613,6.613,0,0,0,1.933-.855c.15-.09,2.391-1.447,2.14-2.217Z" transform="translate(-586.661 -183.273)" fill="#f2f2f2"/>
    <path id="Tracé_4757" data-name="Tracé 4757" d="M584.578,220.806c-.338-.074-.626.7-.92.62s-.108-.88-.517-1.816c-.074-.169-.538-1.233-1.011-1.207-.9.048-1.036,3.966-2.358,4.149a13.845,13.845,0,0,0-1.575,0c-.361.038-.552.085-.632.23-.114.2.1.426.367,1.012.406.879.219,1,.6,1.644.281.478.531.662.448.839-.117.251-.694.043-.885.321s.145.882.459,1.265a4.6,4.6,0,0,0,1.862,1.185,5.449,5.449,0,0,1,2.275,2.323l6.419,12.365c-1.268-2.59-4.635-9.807-5.787-12.6a3.251,3.251,0,0,1-.321-2.46c.315-.785,1.187-1.452,1.886-2.689.082-.144.3-.549.15-.77-.127-.183-.4-.073-.517-.242-.163-.226.188-.607.391-1.287a3.764,3.764,0,0,0,.138-1.2c0-.1-.02-1.591-.471-1.69h0Z" transform="translate(-577.533 -193.157)" fill="#f2f2f2"/>
    <path id="Tracé_4758" data-name="Tracé 4758" d="M602.749,222.41l.2-1.863.124-.117a3.446,3.446,0,0,0,1.065-1.7c.021-.094.038-.189.055-.285a2.914,2.914,0,0,1,.518-1.354c.206-.276.751-.9,1.314-.681a.675.675,0,0,1,.325.26l.056-.056a2.049,2.049,0,0,1,.576-.406,2.392,2.392,0,0,0,.475-.306c.1-.077.174-.146.239-.2a.874.874,0,0,1,.8-.3.933.933,0,0,1,.575.681,4.484,4.484,0,0,1,.225.885,1.435,1.435,0,0,0,.033.171c.08.2,1.087.254,1.466.276.851.046,1.588.086,1.766.669.127.417-.138.872-.81,1.388a3.041,3.041,0,0,1-.6.354.623.623,0,0,1,.207.447h0c.012.465-.465.822-1.418,1.063a3.1,3.1,0,0,1-.972.12,3.627,3.627,0,0,1-.515-.068.612.612,0,0,1-.134.253.921.921,0,0,1-1.02.168,7.521,7.521,0,0,1-1.277-.509,3.289,3.289,0,0,0-.809-.311,1.881,1.881,0,0,0-1.283.547l-1.177.883h0Z" transform="translate(-589.3 -191.744)" fill="#f2f2f2"/>
    <path id="Tracé_4759" data-name="Tracé 4759" d="M601.831,201.238l-1.853.277-.145-.09a3.445,3.445,0,0,0-1.919-.6c-.1,0-.192.011-.29.019a2.912,2.912,0,0,1-1.441-.158c-.319-.129-1.06-.5-.992-1.1a.675.675,0,0,1,.169-.381l-.068-.04a2.049,2.049,0,0,1-.539-.455,2.4,2.4,0,0,0-.416-.382c-.1-.074-.186-.131-.259-.179a.875.875,0,0,1-.493-.693.933.933,0,0,1,.513-.729,4.488,4.488,0,0,1,.8-.442,1.411,1.411,0,0,0,.157-.076c.175-.129-.03-1.116-.1-1.488-.171-.835-.32-1.558.2-1.878.371-.229.879-.088,1.548.432a3.048,3.048,0,0,1,.5.492.623.623,0,0,1,.38-.314h0c.447-.13.913.241,1.388,1.1a3.1,3.1,0,0,1,.363.91,3.627,3.627,0,0,1,.065.515.613.613,0,0,1,.279.066.921.921,0,0,1,.421.944,7.537,7.537,0,0,1-.168,1.364,3.287,3.287,0,0,0-.1.861c.05.422.4.736.854,1.1l1.152.914h0Z" transform="translate(-585.024 -181.183)" fill="#f2f2f2"/>
    <path id="Tracé_4760" data-name="Tracé 4760" d="M609.513,192.081l.2-1.863.124-.117a3.444,3.444,0,0,0,1.065-1.7c.021-.094.038-.189.055-.285a2.914,2.914,0,0,1,.518-1.354c.206-.276.751-.9,1.314-.681a.675.675,0,0,1,.325.26l.056-.056a2.046,2.046,0,0,1,.576-.406,2.4,2.4,0,0,0,.475-.306c.1-.077.174-.146.239-.2a.874.874,0,0,1,.8-.3.933.933,0,0,1,.575.681,4.488,4.488,0,0,1,.225.885,1.433,1.433,0,0,0,.033.171c.08.2,1.087.254,1.466.276.852.046,1.589.086,1.766.669.127.417-.138.872-.81,1.388a3.042,3.042,0,0,1-.6.354.623.623,0,0,1,.207.447h0c.012.465-.465.822-1.418,1.063a3.1,3.1,0,0,1-.972.12,3.629,3.629,0,0,1-.515-.068.612.612,0,0,1-.134.253.921.921,0,0,1-1.02.168,7.52,7.52,0,0,1-1.277-.509,3.287,3.287,0,0,0-.809-.311,1.881,1.881,0,0,0-1.283.547l-1.177.883h0Z" transform="translate(-592.457 -177.591)" fill="#f2f2f2"/>
    <path id="Tracé_4761" data-name="Tracé 4761" d="M597.547,226.668l-.328-.324.006-.46-.006.46-.455-.048c0-.043,0-.143,0-.3a65.147,65.147,0,0,1,.291-7.473,75,75,0,0,1,1.26-8.442c.583-2.809,1.188-4.9,1.674-6.578.367-1.267.737-2.469,1.1-3.639a70.9,70.9,0,0,0,2.44-9.451,9.039,9.039,0,0,0-.148-4.166,8.565,8.565,0,0,0-1.585-3l.717-.579a9.5,9.5,0,0,1,1.753,3.321,9.9,9.9,0,0,1,.172,4.575,71.582,71.582,0,0,1-2.468,9.569c-.36,1.166-.729,2.363-1.094,3.624-.482,1.664-1.081,3.736-1.657,6.509a74.1,74.1,0,0,0-1.245,8.338,64.136,64.136,0,0,0-.287,7.371c.009.451.011.545-.134.691h0Z" transform="translate(-586.499 -176.484)" fill="#f2f2f2"/>
    <path id="Tracé_4762" data-name="Tracé 4762" d="M600.5,178.9c-.037-.008-.074-.017-.111-.028a2.944,2.944,0,0,1-1.8-1.831,6.436,6.436,0,0,1-.352-1.958,11.506,11.506,0,0,1,0-1.948c.054-.669.126-.937.308-1.148a1.4,1.4,0,0,1,.762-.437.52.52,0,0,1,.094-.257c.237-.341.633-.2.848-.128a2.258,2.258,0,0,0,.4.114,1.157,1.157,0,0,0,.6-.063,2.56,2.56,0,0,1,.818-.128,2.745,2.745,0,0,1,1.389.428,4.035,4.035,0,0,1,1.57,2.4,7.03,7.03,0,0,1,.364,1.855,2.06,2.06,0,0,1-.149,1.144c-.206.4-.522.592-1.306.986a12.345,12.345,0,0,1-1.567.727,3.46,3.46,0,0,1-1.856.272h0Z" transform="translate(-587.173 -171.069)" fill="#f2f2f2"/>
  </g>
  <g id="Groupe_2504" data-name="Groupe 2504" transform="translate(87.772 85.247)">
    <path id="Tracé_4763" data-name="Tracé 4763" d="M166.633,187.09l-.6-18.983a1.1,1.1,0,0,1,1.165-1.132l15.064.9a1.1,1.1,0,0,1,1.024,1.245l-2.548,18.868a1.1,1.1,0,0,1-1.162.95l-11.914-.788a1.107,1.107,0,0,1-.343-.078,1.1,1.1,0,0,1-.684-.984Z" transform="translate(-165.25 -163.164)" fill="#98984b"/>
    <path id="Tracé_4764" data-name="Tracé 4764" d="M165.366,163c.211-.022.493-.049.832-.078a.865.865,0,0,1-.089-.573l.269-1.422a.87.87,0,0,1,.739-.7c2.218-.3,9.847-1.1,14.651,1.078a.867.867,0,0,1,.5.766l.044,1.517a.866.866,0,0,1-.145.506c.4.107.8.221,1.192.345a.658.658,0,0,1,.454.554l.075.646a.66.66,0,0,1-.7.735l-18.009-1.216a.66.66,0,0,1-.6-.818l.207-.839a.661.661,0,0,1,.573-.5Z" transform="translate(-164.567 -159.832)" fill="#3f3d56"/>
  </g>
  <g id="Groupe_2505" data-name="Groupe 2505" transform="translate(42.437 31.378)">
    <path id="Tracé_4765" data-name="Tracé 4765" d="M81.633,86.09l-.6-18.983A1.1,1.1,0,0,1,82.2,65.974l15.064.9a1.1,1.1,0,0,1,1.024,1.245L95.735,86.99a1.1,1.1,0,0,1-1.162.95l-11.914-.788a1.107,1.107,0,0,1-.343-.078,1.1,1.1,0,0,1-.684-.984Z" transform="translate(-80.25 -62.164)" fill="#98984b"/>
    <path id="Tracé_4766" data-name="Tracé 4766" d="M80.367,62c.211-.022.493-.049.832-.078a.865.865,0,0,1-.089-.573l.269-1.422a.87.87,0,0,1,.739-.7c2.218-.3,9.847-1.1,14.651,1.078a.866.866,0,0,1,.5.766l.044,1.517a.866.866,0,0,1-.145.506c.4.107.8.221,1.192.345a.658.658,0,0,1,.454.554l.075.646a.66.66,0,0,1-.7.735L80.183,64.154a.66.66,0,0,1-.6-.818l.207-.839a.661.661,0,0,1,.573-.5Z" transform="translate(-79.567 -58.832)" fill="#3f3d56"/>
  </g>
  <g id="Groupe_2506" data-name="Groupe 2506" transform="translate(278.712 90.047)">
    <path id="Tracé_4767" data-name="Tracé 4767" d="M524.633,196.09l-.6-18.983a1.1,1.1,0,0,1,1.165-1.132l15.064.9a1.1,1.1,0,0,1,1.024,1.245l-2.548,18.868a1.1,1.1,0,0,1-1.162.95l-11.914-.788a1.1,1.1,0,0,1-1.026-1.062Z" transform="translate(-523.25 -172.164)" fill="#98984b"/>
    <path id="Tracé_4768" data-name="Tracé 4768" d="M523.366,172c.211-.022.493-.049.832-.078a.865.865,0,0,1-.089-.573l.269-1.422a.87.87,0,0,1,.74-.7c2.218-.3,9.847-1.1,14.651,1.078a.866.866,0,0,1,.5.766l.044,1.517a.865.865,0,0,1-.145.506c.4.107.8.221,1.192.345a.658.658,0,0,1,.454.554l.075.646a.661.661,0,0,1-.7.735l-18.009-1.216a.66.66,0,0,1-.6-.818l.208-.839a.66.66,0,0,1,.573-.5Z" transform="translate(-522.567 -168.832)" fill="#3f3d56"/>
  </g>
</svg>
