<svg xmlns="http://www.w3.org/2000/svg" width="291.797" height="196.027" viewBox="0 0 291.797 196.027">
  <g id="Groupe_2493" data-name="Groupe 2493" transform="translate(0 -72.44)">
    <path id="Tracé_4659" data-name="Tracé 4659" d="M305.7,558.348v5.029c0,1.733-4.146,3.142-9.241,3.142H32.7a21.631,21.631,0,0,1-6.215-.821c-.175-.053-.346-.109-.509-.169-1.56-.562-2.517-1.32-2.517-2.152v-5.029c80.295-4.509,179.042-2.982,282.241,0Z" transform="translate(-13.906 -307.606)" fill="#f2f2f2"/>
    <path id="Tracé_4660" data-name="Tracé 4660" d="M305.7,572.971V578c0,1.732-4.146,3.142-9.241,3.142H32.7a21.633,21.633,0,0,1-6.215-.821c-.175-.053-.346-.109-.509-.169-1.56-.562-2.517-1.32-2.517-2.152v-5.028c73.908-3.363,174.483-2.28,282.241,0Z" transform="translate(-13.906 -316.691)" fill="#fff"/>
    <path id="Tracé_4661" data-name="Tracé 4661" d="M305.7,583.211v5.028c0,1.732-4.146,3.142-9.241,3.142H32.7a21.633,21.633,0,0,1-6.215-.821c-.175-.053-.346-.109-.509-.169-1.56-.562-2.517-1.32-2.517-2.152v-5.029c79.969-2.824,177.4-2.154,282.241,0Z" transform="translate(-13.906 -322.914)" fill="#f2f2f2"/>
    <path id="Tracé_4662" data-name="Tracé 4662" d="M664.342,531.631a.437.437,0,0,0,.317-.758l-.03-.119.012-.029a1.175,1.175,0,0,1,2.167.008,10.434,10.434,0,0,1,.917,2.611,3.477,3.477,0,0,1-.061,1.2,13.933,13.933,0,0,0,1.267-5.787,13.447,13.447,0,0,0-.083-1.5q-.069-.612-.192-1.216a14.1,14.1,0,0,0-2.8-5.974,3.751,3.751,0,0,1-1.56-1.619,2.864,2.864,0,0,1-.26-.782,3.53,3.53,0,0,0,.229-1.218c.106-.161.3-.24.411-.4.575-.779,1.367-.643,1.78.416.883.446.892,1.185.35,1.9-.345.452-.392,1.065-.695,1.549.031.04.064.078.095.118a14.191,14.191,0,0,1,1.481,2.346,5.9,5.9,0,0,1,.352-2.739,9.877,9.877,0,0,1,1.525-2.2,1.21,1.21,0,0,1,2.156.594l0,.031q-.124.07-.243.148a.593.593,0,0,0,.239,1.08l.012,0a5.914,5.914,0,0,1-.156.883c.714,2.76-.827,3.765-3.027,3.81-.049.025-.1.05-.144.073a14.475,14.475,0,0,1,.779,3.668,13.722,13.722,0,0,1-.01,2.217l0-.026a3.628,3.628,0,0,1,1.239-2.1c.953-.783,2.3-1.071,3.329-1.7a.681.681,0,0,1,1.043.663l0,.027a4,4,0,0,0-.447.215q-.124.07-.243.148a.593.593,0,0,0,.239,1.08l.012,0,.025,0a5.914,5.914,0,0,1-1.087,1.7c-.446,2.409-2.363,2.637-4.412,1.936h0a14.479,14.479,0,0,1-.972,2.839h-3.474c-.012-.039-.024-.078-.035-.117a3.953,3.953,0,0,0,.961-.057l-.773-.951a.2.2,0,0,1-.016-.019l-.393-.484h0a5.779,5.779,0,0,1,.169-1.473Z" transform="translate(-393.594 -283.921)" fill="#f2f2f2"/>
    <path id="Tracé_4663" data-name="Tracé 4663" d="M285.342,522.631a.437.437,0,0,0,.317-.758l-.03-.119.012-.029a1.175,1.175,0,0,1,2.167.008,10.426,10.426,0,0,1,.917,2.611,3.475,3.475,0,0,1-.061,1.2,13.933,13.933,0,0,0,1.267-5.787,13.446,13.446,0,0,0-.083-1.5q-.069-.613-.192-1.216a14.1,14.1,0,0,0-2.8-5.974,3.751,3.751,0,0,1-1.56-1.619,2.86,2.86,0,0,1-.26-.782,3.531,3.531,0,0,0,.229-1.218c.106-.161.3-.24.411-.4.575-.779,1.367-.643,1.78.416.883.446.892,1.185.35,1.9-.345.452-.392,1.064-.695,1.549l.095.118a14.186,14.186,0,0,1,1.481,2.346,5.9,5.9,0,0,1,.352-2.739,9.881,9.881,0,0,1,1.525-2.2,1.21,1.21,0,0,1,2.156.594l0,.031q-.124.07-.243.148a.593.593,0,0,0,.239,1.08l.012,0a5.9,5.9,0,0,1-.156.883c.714,2.76-.827,3.765-3.027,3.81-.049.025-.1.05-.144.073a14.477,14.477,0,0,1,.779,3.668,13.735,13.735,0,0,1-.01,2.217l0-.026a3.628,3.628,0,0,1,1.239-2.1c.953-.783,2.3-1.071,3.329-1.7a.681.681,0,0,1,1.043.663l0,.027a3.987,3.987,0,0,0-.447.215q-.124.07-.243.148a.593.593,0,0,0,.239,1.08l.012,0,.025,0a5.909,5.909,0,0,1-1.087,1.7c-.446,2.409-2.362,2.637-4.412,1.936h0a14.477,14.477,0,0,1-.972,2.839h-3.474c-.012-.039-.024-.079-.035-.117a3.95,3.95,0,0,0,.961-.057l-.773-.951-.016-.019-.393-.484h0a5.78,5.78,0,0,1,.169-1.473h0Z" transform="translate(-168.951 -278.587)" fill="#f2f2f2"/>
    <g id="Groupe_2481" data-name="Groupe 2481" transform="translate(198.249 148.434)">
      <g id="Groupe_2477" data-name="Groupe 2477" transform="translate(29.419 91.374)">
        <path id="Tracé_4664" data-name="Tracé 4664" d="M570.411,543.91h-2.146l-1.021-8.277h3.167Z" transform="translate(-563.888 -535.633)" fill="#ffb6b6"/>
        <path id="Tracé_4665" data-name="Tracé 4665" d="M565.6,556.261H559v-.083a2.568,2.568,0,0,1,2.568-2.568h0l1.205-.914,2.249.915h.576Z" transform="translate(-559.003 -545.746)" fill="#2f2e41"/>
      </g>
      <g id="Groupe_2478" data-name="Groupe 2478" transform="translate(55.398 82.539)">
        <path id="Tracé_4666" data-name="Tracé 4666" d="M631.157,519.285l-1.386,1.638-6.978-4.566,2.045-2.418Z" transform="translate(-622.792 -513.939)" fill="#ffb6b6"/>
        <path id="Tracé_4667" data-name="Tracé 4667" d="M640.027,527.98l-4.262,5.038-.064-.054a2.568,2.568,0,0,1-.3-3.62h0l.08-1.511,2.151-1.126.372-.44,2.025,1.713Z" transform="translate(-629.905 -521.246)" fill="#2f2e41"/>
      </g>
      <path id="Tracé_4668" data-name="Tracé 4668" d="M573.932,406.476l-11.5,1.335-4.534,7.768-.65,2.6.294,1.788-.728,1.246.434,2.384-1.734,18.855,4.768,21.24h4.443l-1.409-19.723,3.684-16.9,3.251,16.471,15.035,13.093,3.5-5.021-11.6-9.806-1.084-3.467,1.46-2.932,1.141-19.391Z" transform="translate(-527.514 -367.704)" fill="#2f2e41"/>
      <path id="Tracé_4669" data-name="Tracé 4669" d="M567.615,374.822s7.254,2.259,8.018-.3-.19-5.714-.913-6.05.134-2.538.937-4.011.679-2.283.218-2.459S568.233,344,568.233,344l-2.441-.513-1.958-2.4-4.155.5-1.7,3.144-2.847,1.509-1.04,9.569s.511,4.1,1.552,8.414c.324,1.342.7,2.7,1.126,3.971,1.006,2.983,2.3,5.43,3.888,5.813A23.238,23.238,0,0,0,567.615,374.822Z" transform="translate(-526.674 -328.942)" fill="#98984b"/>
      <g id="Groupe_2479" data-name="Groupe 2479" transform="translate(0 16.615)">
        <path id="Tracé_4670" data-name="Tracé 4670" d="M502.962,377.8l-1.48.272-.342.063-.549.1-11.422,2.1a1.573,1.573,0,0,1-1.916-.156,1.508,1.508,0,0,1-.082-2.13c.01-.01.02-.019.03-.029a1.581,1.581,0,0,1,2.2-.078,1.6,1.6,0,0,1,.167.187l.308-.1.967-.315.73-.238,1.453-.475.563-.183,1.827-.6,1.762-.574,2.135-.7,1.641-.536.327.552Z" transform="translate(-486.77 -365.318)" fill="#ffb6b6"/>
        <path id="Tracé_4671" data-name="Tracé 4671" d="M523.859,365.015a2.714,2.714,0,0,1-.6.028c-.613-.148.065-.548-1.289.031-1.1.468-1.192-.374-1.351-.015-.263.593-.633-.01-.935-.233-.134-.1-.253-.124-.342.063a1.038,1.038,0,0,0-.082.273c-.072.361-.248.218-.467-.17a20.587,20.587,0,0,1-1.1-2.754c-.079-.226-.139-.411-.178-.527-.028-.086-.042-.135-.042-.135a.977.977,0,0,1,.5-.46,3.4,3.4,0,0,1,1.451-.31,5.238,5.238,0,0,1,1.033.11.69.69,0,0,0,.383-.026h0a.538.538,0,0,0,.267-.371c.118-.378.611-.332,1.1-.209a4.931,4.931,0,0,0,1.053.265c.2-.057,5.368-4.629,8.672-7.561a3.727,3.727,0,0,1,5.192.238l1.4,1.5a2.676,2.676,0,0,1,1.065,1.714,2.873,2.873,0,0,1-.316,1.691,6.786,6.786,0,0,1-1.525,1.924C534.518,363.084,526.217,364.759,523.859,365.015Z" transform="translate(-504.968 -352.073)" fill="#98984b"/>
      </g>
      <g id="Groupe_2480" data-name="Groupe 2480" transform="translate(38.265 13.876)">
        <path id="Tracé_4672" data-name="Tracé 4672" d="M608.14,386.389l.547,1.4.126.324.2.52,4.221,10.82a1.573,1.573,0,0,1,.209,1.911,1.508,1.508,0,0,1-2.076.483l-.034-.023a1.582,1.582,0,0,1-.493-2.148,1.607,1.607,0,0,1,.152-.2l-.157-.284-.492-.89-.371-.672-.741-1.337-.286-.519-.93-1.682-.9-1.622-1.087-1.965L605.2,389l.48-.426Z" transform="translate(-595.232 -369.674)" fill="#ffb6b6"/>
        <path id="Tracé_4673" data-name="Tracé 4673" d="M593.577,359.325a2.713,2.713,0,0,1,.141.588c-.029.629-.55.039.274,1.26.667.992-.142,1.241.241,1.329.632.146.11.623-.053.962-.073.15-.074.271.126.324a1.035,1.035,0,0,0,.284.029c.369,0,.261.2-.079.49a20.606,20.606,0,0,1-2.5,1.6c-.207.12-.378.214-.484.274-.079.043-.125.067-.125.067a.977.977,0,0,1-.547-.407,3.394,3.394,0,0,1-.578-1.367,5.225,5.225,0,0,1-.087-1.036.69.69,0,0,0-.1-.372v0a.537.537,0,0,0-.414-.192c-.393-.044-.442-.538-.413-1.04a4.931,4.931,0,0,0,.061-1.084c-.137-.266-4.859-5-4.859-5l-3.744-8.894a2.676,2.676,0,0,1,1.482-1.37,2.874,2.874,0,0,1,1.72-.009,6.787,6.787,0,0,1,2.178,1.135c3.563,2.614,6.775,10.449,7.472,12.717Z" transform="translate(-580.724 -345.347)" fill="#98984b"/>
      </g>
      <circle id="Ellipse_816" data-name="Ellipse 816" cx="4.997" cy="4.997" r="4.997" transform="translate(28.745 1.601)" fill="#ffb6b6"/>
      <path id="Tracé_4674" data-name="Tracé 4674" d="M566.458,321.819a13.731,13.731,0,0,1-2.479.775c.414-.638.989-1.775,1.4-2.412a3.729,3.729,0,0,0,.535-1.062,1.248,1.248,0,0,0-.21-1.128.918.918,0,0,0-1.6.684c-.31-.118-.379-.534-.322-.863a2.219,2.219,0,0,0,.1-.986.956.956,0,0,0-.7-.612,2.23,2.23,0,0,0-.966.017,16.465,16.465,0,0,1-2.743.528,3,3,0,0,1-.559-.045,2.354,2.354,0,0,0-.052-1.569,4.057,4.057,0,0,1-.818,1.257,1.722,1.722,0,0,1-.823-.963,2.015,2.015,0,0,1,.14-1.432,3.34,3.34,0,0,1,.346-.579,2.058,2.058,0,0,0,.4-.016,2.24,2.24,0,0,0,.833-.271,3.671,3.671,0,0,1-.77-.3l.032-.039a2.214,2.214,0,0,1,.864-.688.808.808,0,0,1,.979.3A4.755,4.755,0,0,1,566.8,313a2.263,2.263,0,0,0-.64.6,3.853,3.853,0,0,1,.99-.051,1.045,1.045,0,0,1,.039.939c.309.286.925.794.533.886a4.873,4.873,0,0,1-1.266,6.446Z" transform="translate(-528.48 -311.277)" fill="#2f2e41"/>
    </g>
    <g id="Groupe_2486" data-name="Groupe 2486" transform="translate(145.433 145.878)">
      <g id="Groupe_2482" data-name="Groupe 2482" transform="translate(23.267 91.696)">
        <path id="Tracé_4675" data-name="Tracé 4675" d="M414.446,540.411h2.661l1.266-10.263h-3.927Z" transform="translate(-414.353 -530.147)" fill="#a0616a"/>
        <path id="Tracé_4676" data-name="Tracé 4676" d="M414.217,555.728H422.4v-.1a3.185,3.185,0,0,0-3.185-3.185h0l-1.495-1.134-2.789,1.134h-.714v3.288Z" transform="translate(-414.217 -542.688)" fill="#2f2e41"/>
      </g>
      <g id="Groupe_2483" data-name="Groupe 2483" transform="translate(0 89.94)">
        <path id="Tracé_4677" data-name="Tracé 4677" d="M359.506,535.55l2.519.859,4.511-9.305-3.717-1.267Z" transform="translate(-358.521 -525.836)" fill="#a0616a"/>
        <path id="Tracé_4678" data-name="Tracé 4678" d="M357.088,551.534l7.744,2.641.033-.1a3.185,3.185,0,0,0-1.986-4.042h0l-1.049-1.556-3.005.173-.676-.231Z" transform="translate(-357.088 -539.223)" fill="#2f2e41"/>
      </g>
      <path id="Tracé_4679" data-name="Tracé 4679" d="M389.634,418.039s2.56,7.863,2.088,8.9-1.279.229-.473,1.035,1.51-.051.755,1.318-1.9,12.64-2.4,13.186-1.195.56-.58,1.09,1.421-.545.615.53-2.946,25.874-2.946,25.874h-4.179s-1.041-1.2-.452-1.981-.052-1.082,0-1.6a17.7,17.7,0,0,0-.181-2.158c-.036-.513-.743-12.733.954-19.791L379.739,431l-3.748,16.245s-6.014,12-7.738,16.377c0,0,1.39,1.158.774,1.828s-1.154.133-.616.671-.806,2.419-.806,2.419l-6.2-.269,6.781-23.83s-.436-2.655,0-3.11.436,1.158.436-.455v-2.15s.253-13.223.286-14,3.259-6.422,3.259-6.422l17.466-.258Z" transform="translate(-359.647 -372.002)" fill="#2f2e41"/>
      <path id="Tracé_4680" data-name="Tracé 4680" d="M404.568,348.512v15.5a14.9,14.9,0,0,0-.765,4.655c.017,2.636.6,5.673.594,7a1.736,1.736,0,0,1-.057.523c-2.566,7.438-16.145.679-17.379.046l-.09-.046.268-8.331-.046-2.4-.317-16.433.284-.227,2.491-1.986.244-.194.748,1.091,6.671-.459,2.546-.7.794.323,3.58,1.456Z" transform="translate(-374.685 -329.633)" fill="#3f3d56"/>
      <g id="Groupe_2484" data-name="Groupe 2484" transform="translate(26.057 17.824)">
        <path id="Tracé_4681" data-name="Tracé 4681" d="M471.156,397.839l-3.779-3.157-2.1,1.907,4.114,3.2a1.648,1.648,0,1,0,1.769-1.946Z" transform="translate(-447.269 -375.982)" fill="#a0616a"/>
        <path id="Tracé_4682" data-name="Tracé 4682" d="M421.522,349.506h0c-.877,1.225-.3,3.209.21,4.625.66,1.82,8.673,9.747,10.721,10.169,1.588.328,1.248.294,1.666,1.314s-.83.727.7,1.483,1.806.162,1.879.969-.389,1.094.7,1.483a5.056,5.056,0,0,1,1.629.911c.345.213,2.238,2.239,2.238,2.239s1.99-2.3,3.568-2.847c0,0-2.569-1.4-2.547-2.049s.389-1.094-.359-1.27-1.424.455-.94-.485-3.86-4.86-3.86-4.86c-1.605-3.628-5.847-7.519-10.578-11.458a4.168,4.168,0,0,0-5.037-.225Z" transform="translate(-421.067 -348.766)" fill="#3f3d56"/>
      </g>
      <g id="Groupe_2485" data-name="Groupe 2485" transform="translate(6.192 18.925)">
        <path id="Tracé_4683" data-name="Tracé 4683" d="M378.661,419.61l-.212-4.919-2.827-.271.409,5.193a1.648,1.648,0,1,0,2.63,0Z" transform="translate(-374.265 -388.782)" fill="#a0616a"/>
        <path id="Tracé_4684" data-name="Tracé 4684" d="M379.642,351.47l-.079.009a4.565,4.565,0,0,0-3.508,2.414c-.9,1.714-3.748,13.321-3.05,14.914.65,1.486.623,1.12.151,2.117s-1.1-.124-.622,1.52,1.1,1.444.549,2.042-1.071.449-.622,1.52a5.057,5.057,0,0,1,.424,1.818c.075.4-.147,3.163-.147,3.163s3.038-.077,4.508.719c0,0-.7-2.839-.2-3.262s1.071-.449.7-1.121-1.3-.746-.275-1.021.992-6.127.992-6.127Z" transform="translate(-372.291 -351.47)" fill="#3f3d56"/>
      </g>
      <path id="Tracé_4685" data-name="Tracé 4685" d="M398.932,321.126c-.119.028-.238.051-.358.07a4.969,4.969,0,0,1-1.1.057,5.2,5.2,0,1,1,5.315-6.5c.011.042.022.083.031.125a5.2,5.2,0,0,1-3.887,6.249Z" transform="translate(-378.105 -308.47)" fill="#a0616a"/>
      <path id="Tracé_4686" data-name="Tracé 4686" d="M392.632,317.044c-.724-.566-.794-1.646-1.411-2.326a3.406,3.406,0,0,1-.977-3.71c.478-1.192.377-2.658,1.407-3.426-.506-.183-.625-.564-.179-.571.3,0,1.424.571.883-.146s.482-.434.415-.727-.5-.456-.693-.223a1.516,1.516,0,0,1,2.377.272c.609-.912,1.255-1.54,2.186-.961.915.568.9,1.271,1.886,1.1.462-.079.506.794.822,1.141a1.41,1.41,0,0,0,1.239.528.752.752,0,0,0,.555-1.053l1.087,2.479.438-.537c.7.453.467,1.637-.233,2.083s-2.037-.585-2.417.153c-.6,1.164-2,.576-2.97-.246-1.171-1-2.583,2.036-2.02,3.466-.585-.575-1.667-.1-1.97.664a3.794,3.794,0,0,0,.144,2.409l-.569-.371Z" transform="translate(-376.608 -305.002)" fill="#2f2e41"/>
      <path id="Tracé_4687" data-name="Tracé 4687" d="M404.753,342.3l-.182.231-.488.62-1.806,5.334-8.528-6.242.244-.194,1.3-2.761,6.671-.459,2,3.147Z" transform="translate(-378.819 -325.052)" fill="#e6e6e6"/>
    </g>
    <g id="Groupe_2487" data-name="Groupe 2487" transform="translate(50.575 208.547)">
      <path id="Tracé_4689" data-name="Tracé 4689" d="M153.925,462.151l.375,7.25,3.446.942s-1.474-8.488-1.566-8.744a1.741,1.741,0,1,0-2.255.552Z" transform="translate(-141.264 -458.876)" fill="#ffb6b6"/>
      <path id="Tracé_4690" data-name="Tracé 4690" d="M124.44,506.7l-.081.171C124.086,506.938,124.131,506.861,124.44,506.7Z" transform="translate(-124.178 -487.224)" fill="#6c63ff"/>
      <path id="Tracé_4691" data-name="Tracé 4691" d="M144.195,487.365a18.451,18.451,0,0,0-5.616-.57,26.624,26.624,0,0,0-5.27.774c-.281-.965-.546-1.988-.737-2.953l2.061-1.34,2.269-.794,4.749-1.662-.061-2.578.5-.232,2.814-1.3.065-.029,2.024,5.49A3.989,3.989,0,0,1,144.195,487.365Z" transform="translate(-129.153 -469.43)" fill="#98984b"/>
    </g>
    <path id="Tracé_4692" data-name="Tracé 4692" d="M103.355,147.972c-.822-7.77-11.962-7.546-9.477-15.025a41.992,41.992,0,0,0-12.739,8.691c10.034-32.829-28.821-7.862-28.821-7.862s-10.735-4.625-13.763-6.723C26.467,118.824,7.8,139.274,23.3,150.341,6.063,142.2,4.616,154.818,1.626,169.487a24.151,24.151,0,0,0,6.2,10.582c-4.867-.268-9.6-3.782-7.173,3.349,4.368,8.773,11.687,10.365,10.219,21.262.109,9.475,18.773,11.9,39.081,9.9-11.59,33.009-17.889,63.648-12.338,88.976H57.493c-6.867-30.537-8.37-60.469-2.461-89.565,22.543-3,45.38-11.127,45.908-20.894,2.712-7.087,1.776-14.923-2-22.315,4.545-8.361,6.321-16.417,4.418-22.806Z" transform="translate(0 -52.247)" fill="#f2f2f2"/>
    <path id="Tracé_4693" data-name="Tracé 4693" d="M136.135,509.766l.692,2.973s.007,2.741.492,3.246,11.082-.507,11.082-.507a37.9,37.9,0,0,1-1.109-7.759Z" transform="translate(-80.691 -279.279)" fill="#ffb6b6"/>
    <g id="Groupe_2489" data-name="Groupe 2489" transform="translate(56.619 226.201)">
      <g id="Groupe_2488" data-name="Groupe 2488" transform="translate(34.592 22.246)">
        <path id="Tracé_4694" data-name="Tracé 4694" d="M229.071,566.011l1.824-1.315-4.249-7.851-2.693,1.941Z" transform="translate(-223.953 -556.845)" fill="#ffb6b6"/>
        <path id="Tracé_4695" data-name="Tracé 4695" d="M240.775,568.686a1.522,1.522,0,0,0-.1-.126.979.979,0,0,0-.375-.244l-.008,0a1,1,0,0,0-.5-.053l-.753.118-2.916.452-.615.1-1.108-1.165-.428.456-1.474,1.58-.375.4-.289.31,3.564,4.448,1.222-1.161-.876-1.36,1.654.623.933-.888.623-.586,1.686-1.6a1.017,1.017,0,0,0,.3-.57A.985.985,0,0,0,240.775,568.686Z" transform="translate(-228.622 -563.316)" fill="#2f2e41"/>
      </g>
      <path id="Tracé_4696" data-name="Tracé 4696" d="M177.637,526.237l-3.3,1.478a36.282,36.282,0,0,1-9.016-15.859c-4.925,6.376-9.263,9.986-15.152,13.151-1.989,1.077-9.183,1.464-10.3-.553q-.078-.141-.146-.288c-1.029-2.267-.119-8.168-.7-11.166,2.126-3.9,7.315-.75,10.864-2.287l3.971,1.725,7.365-8.756a4.184,4.184,0,0,1,5.924-.431q.142.121.273.253c1.485,2.518,2.9,4.994,4.2,7.389.418.773,1.733,1.812,1.213,2.293s.807,1.584,1.183,2.358c2.316,4.767,3.285,7.205,3.629,10.693Z" transform="translate(-139.019 -502.223)" fill="#2f2e41"/>
    </g>
    <path id="Tracé_4697" data-name="Tracé 4697" d="M128.65,466.157l4.371-.258a.887.887,0,0,1,.873.547l1.235,2.995,5.134,4.243a10.646,10.646,0,0,1,2.037,5.928c0,3.341-.072,9.569-.072,9.569s-2.173-2.672-4-1.561c-.312.189-.421.575-.747.771-.163.1-.539,0-.7.1a36.191,36.191,0,0,1-5.4,2.7c-1.307.265-1.716-.743-.834-2.148.288-.459-.235-.93-.235-.93a1.043,1.043,0,0,1-.45-1.654L126.3,473.416a5.445,5.445,0,0,1,.774-4.582,1.645,1.645,0,0,1,.845-.735c.611-.13.286-1.5.728-1.942Z" transform="translate(-74.745 -254.491)" fill="#98984b"/>
    <g id="Groupe_2490" data-name="Groupe 2490" transform="translate(56.909 237.487)">
      <path id="Tracé_4698" data-name="Tracé 4698" d="M249.223,572.622l.83-2.088-7.84-4.267-1.225,3.082Z" transform="translate(-199.749 -551.469)" fill="#ffb6b6"/>
      <path id="Tracé_4699" data-name="Tracé 4699" d="M186.517,546.521l-.984,3.752c-6.663-1.733-13.529-5.8-20.491-10.982-7.683,2.377-14.971,3.8-21.6,3a4.266,4.266,0,0,1-3.688-4.657q.017-.161.046-.32c.462-2.446,4.32-4.593,5.567-7.379l8.2,1.953.609,1.576,1.847-.488,1.559-.412,1.785-.472,5.852-1.546a4.179,4.179,0,0,1,5.084,3.059q.047.18.077.364l8.1,6.307s.723,1.691,1.279,1,1.6,1.243,1.6,1.243l5.151,4.009Z" transform="translate(-139.733 -529.933)" fill="#2f2e41"/>
      <path id="Tracé_4700" data-name="Tracé 4700" d="M265.51,568.708a1,1,0,0,0-.929.1l-3.608,2.407-1.495-.595-.24.733-.754,2.277-.183.558,5.1,2.541.623-1.568-1.368-.867,1.763-.126,1.649-4.154A1.006,1.006,0,0,0,265.51,568.708Z" transform="translate(-210.011 -552.874)" fill="#2f2e41"/>
    </g>
    <path id="Tracé_4701" data-name="Tracé 4701" d="M117.188,439.989a3.292,3.292,0,0,1-.574,1.443,1.129,1.129,0,0,1-1.4.335c-.539-.343-.5-1.131-.389-1.761l.341-2a3.826,3.826,0,0,1,.308-1.113,1.293,1.293,0,0,1,.861-.716,1.2,1.2,0,0,1,1.09.431,2.235,2.235,0,0,1,.469,1.117,4.033,4.033,0,0,1-.774,3.069Z" transform="translate(-68.022 -236.866)" fill="#2f2e41"/>
    <path id="Tracé_4702" data-name="Tracé 4702" d="M108.564,437.634a2.145,2.145,0,0,0-3.053.06,3.859,3.859,0,0,0-.865,3.21c.143,1.138.742,5.81.932,6.707.237,1.122-1.527,1.941-2.654,1.73a2.525,2.525,0,0,0,1.314,1.868,3.459,3.459,0,0,0,2.3.308,3.979,3.979,0,0,0,.914-.3,3.579,3.579,0,0,1-.237-1.062,2.955,2.955,0,0,0,.614.863,3.515,3.515,0,0,0,1.055-.968,3.049,3.049,0,0,0,.435-2.694,10.554,10.554,0,0,0-1.951-2.65c-.663-.883-1-2.262-.189-3.009.619-.569.582-.443,1.412-.311l-.032-3.756Z" transform="translate(-61.005 -237.376)" fill="#2f2e41"/>
    <path id="Tracé_4703" data-name="Tracé 4703" d="M128.59,440.444a4.972,4.972,0,0,1-4.972,4.971c-2.746,0-5.354-3.182-5.354-5.928s2.608-4.016,5.354-4.016a4.972,4.972,0,0,1,4.972,4.972Z" transform="translate(-70.098 -236.457)" fill="#2f2e41"/>
    <circle id="Ellipse_817" data-name="Ellipse 817" cx="4.743" cy="4.743" r="4.743" transform="translate(50.276 200.555)" fill="#ffb6b6"/>
    <path id="Tracé_4704" data-name="Tracé 4704" d="M131.633,442.409c-1.4.383-2.822.785-3.369,0a4.317,4.317,0,0,0-.595-1.465,5.93,5.93,0,0,1-.35,1.465,10.21,10.21,0,0,1-1.474.111c-.2.346-1.119.919-1.152,1.334a1.629,1.629,0,0,0-.222-.117.367.367,0,0,0-.3-.027.261.261,0,0,0-.124.193.721.721,0,0,0,.011.239,1.817,1.817,0,0,0,.239.776.708.708,0,0,0,.48.308c.2,1.119.639,2.631.639,2.631-4.78.191-6.21-3.338-6.21-6.4l.574-1.147h1.912V437.82h5.354a4.59,4.59,0,0,1,4.589,4.589Z" transform="translate(-70.655 -237.849)" fill="#2f2e41"/>
    <g id="Groupe_2491" data-name="Groupe 2491" transform="translate(53.698 218.115)">
      <path id="Tracé_4705" data-name="Tracé 4705" d="M153.036,521.865a1.756,1.756,0,0,1-1.6-2.164l-11.33-8.5,2.964-1.315,10.611,8.537a1.766,1.766,0,0,1-.643,3.447Z" transform="translate(-136.741 -498.675)" fill="#ffb6b6"/>
      <path id="Tracé_4706" data-name="Tracé 4706" d="M145.778,499.117l-.5.171-2.851.973-.171-.081c-1.136-.558-7.543-3.739-7.926-4.851-.187-.546-.851-2.35-1.45-4.39-.281-.965-.546-1.988-.737-2.953a7.71,7.71,0,0,1-.1-3.771,2.6,2.6,0,0,1,3.1-1.776l1.328,3.413,1.678,4.313,1.356,3.486C141.29,494.127,143.473,496.368,145.778,499.117Z" transform="translate(-131.848 -482.368)" fill="#98984b"/>
    </g>
    <g id="Groupe_2492" data-name="Groupe 2492" transform="translate(59.669 207.673)">
      <path id="Tracé_4707" data-name="Tracé 4707" d="M151.315,456.9a.945.945,0,0,0-.155.016.535.535,0,0,0-.269-.163.526.526,0,0,0-.163-.02l-3.6.094a.536.536,0,0,0-.4.187.438.438,0,0,0-.073.1.551.551,0,0,0-.045.456,7.454,7.454,0,0,0,.627,4.6.57.57,0,0,0,.546.387l2.342-.061a.112.112,0,0,0,.037,0,.556.556,0,0,0,.493-.407,4.718,4.718,0,0,0,.33-3.547.836.836,0,0,0,.375.077.847.847,0,0,0,.758-.505.819.819,0,0,0,.077-.371.858.858,0,0,0-.876-.835Zm.037,1.466a.58.58,0,0,1-.3-.073l.183-.656.053-.191a.566.566,0,0,0,0-.3c.012,0,.024,0,.037,0a.612.612,0,0,1,.623.595.639.639,0,0,1-.029.2A.609.609,0,0,1,151.352,458.365Z" transform="translate(-146.508 -456.731)" fill="#3f3d56"/>
      <path id="Tracé_4708" data-name="Tracé 4708" d="M147.807,456.833c.077.439.94.748,1.978.694.955-.044,1.735-.379,1.878-.776a.537.537,0,0,0-.163-.022l-3.6.093A.515.515,0,0,0,147.807,456.833Z" transform="translate(-147.278 -456.729)" fill="#98984b"/>
    </g>
  </g>
</svg>
