<svg xmlns="http://www.w3.org/2000/svg" width="270.403" height="256.246" viewBox="0 0 270.403 256.246">
  <g id="Groupe_2476" data-name="Groupe 2476" transform="translate(0.042 0.007)">
    <path id="Tracé_4634" data-name="Tracé 4634" d="M376.685,194.64a48.793,48.793,0,0,1-20.927,40.09,48.2,48.2,0,0,1-5.707,3.432c-.657.337-1.318.657-1.992.96-.607.278-1.217.539-1.836.788a49.032,49.032,0,0,1-24.246,3.234q-2.135-.253-4.216-.695l-.181-.038a47.725,47.725,0,0,1-8.487-2.641,48.86,48.86,0,1,1,67.592-45.132Z" transform="translate(-279 -145.79)" fill="#f1f1f1"/>
    <path id="Tracé_4635" data-name="Tracé 4635" d="M383.025,234.207c-.042-.051-.088-.1-.135-.143a14.085,14.085,0,0,0-19.811-.2c-.029.025-.055.051-.08.076s-.063.059-.093.088A14.078,14.078,0,0,0,358.77,244v8.844a1.9,1.9,0,0,0,1.9,1.9h24.427a1.9,1.9,0,0,0,1.9-1.9V244A14.045,14.045,0,0,0,383.025,234.207Z" transform="translate(-325.199 -194.475)" fill="#2f2e41"/>
    <circle id="Ellipse_810" data-name="Ellipse 810" cx="10.344" cy="10.344" r="10.344" transform="translate(37.902 39.488)" fill="#ffb7b7"/>
    <path id="Tracé_4636" data-name="Tracé 4636" d="M389.063,246.173l-1.221-8.533a1.068,1.068,0,0,0-.375-.67,1.107,1.107,0,0,0-.223-.139,21.36,21.36,0,0,0-18.851-.008,1.03,1.03,0,0,0-.232.147c-.025.021-.05.046-.076.072a1.066,1.066,0,0,0-.295.636l-.817,8.545a1.055,1.055,0,0,0,.27.809,1.043,1.043,0,0,0,.607.328.774.774,0,0,0,.173.017h2.072a1.063,1.063,0,0,0,.956-.606l.9-1.921a.629.629,0,0,1,1.2.19l.177,1.415a1.058,1.058,0,0,0,1.045.922h13.658a1.013,1.013,0,0,0,.51-.135,1.067,1.067,0,0,0,.286-.227A1.056,1.056,0,0,0,389.063,246.173Z" transform="translate(-329.944 -197.221)" fill="#2f2e41"/>
    <path id="Tracé_4637" data-name="Tracé 4637" d="M442,327.214l2.931,9.813a48.2,48.2,0,0,1-5.707,3.432c-.657.337-1.318.657-1.992.96L434.2,328.4l-1.179-5.05,7.581-.842Z" transform="translate(-368.177 -248.087)" fill="#ffb7b7"/>
    <path id="Tracé_4638" data-name="Tracé 4638" d="M359.358,329.81l-.253,13.258L359,348.935a47.723,47.723,0,0,1-8.487-2.641l1.007-12.559.253-3.167Z" transform="translate(-320.417 -252.312)" fill="#ffb7b7"/>
    <path id="Tracé_4639" data-name="Tracé 4639" d="M392.947,314.567l-7.615,1.141.093,1.251.918,12.6a49.032,49.032,0,0,1-24.246,3.234q-2.135-.253-4.216-.695c.623-2.62,1.163-4.978.5-5.441a5.051,5.051,0,0,1-.569-.463c-3.1-2.961-1.958-9.645-1.958-9.645l-5.631.312-1.95.109s.842-13.477,4.633-13.477h4.633l22.322-2.106s6.317-2.106,8,.842c.884,1.546,2.46,4.822,3.761,7.594,1.179,2.519,2.135,4.62,2.135,4.62Z" transform="translate(-319.121 -235.439)" fill="#2f2e41"/>
    <path id="Tracé_4640" data-name="Tracé 4640" d="M786.7,195.182A48.791,48.791,0,0,1,766.114,234.5l-.337.236c-.118.084-.24.168-.362.248q-1.061.733-2.165,1.4-1.554.948-3.18,1.781l-.105.051q-.935.48-1.887.91l-.059.025c-.147.067-.3.139-.455.2-1.175.522-2.375,1-3.6,1.419q-1.561.55-3.167.986a47.9,47.9,0,0,1-6.675,1.339,48.674,48.674,0,0,1-5.8.4c-.16,0-.32,0-.48,0-1.057,0-2.11-.034-3.15-.1-.91-.059-1.811-.139-2.7-.248-1.377-.164-2.738-.383-4.077-.67-.059-.008-.118-.021-.177-.034s-.1-.021-.143-.03c-1.348-.282-2.674-.628-3.976-1.023q-1.838-.556-3.609-1.255c-.3-.118-.6-.236-.9-.362-.745-.312-1.482-.636-2.207-.986-.211-.1-.417-.2-.623-.3-.7-.341-1.39-.7-2.064-1.078q-1.219-.676-2.4-1.419c-.99-.623-1.958-1.28-2.9-1.975A48.856,48.856,0,1,1,786.7,195.182Z" transform="translate(-516.344 -145.793)" fill="#f1f1f1"/>
    <path id="Tracé_4641" data-name="Tracé 4641" d="M775.2,334.985c-1.348-.282-2.674-.628-3.976-1.023l4.469-27.708,4.628-.143,8.394-.265,4.3-.135s3.053,13.418,5.382,28.618a47.9,47.9,0,0,1-6.675,1.339,48.683,48.683,0,0,1-5.8.4c-.16,0-.32,0-.48,0-1.057,0-2.11-.034-3.15-.1-.91-.059-1.811-.139-2.7-.248-1.377-.164-2.738-.383-4.077-.67-.059-.008-.118-.021-.177-.034S775.242,334.993,775.2,334.985Z" transform="translate(-563.941 -238.362)" fill="#cbcbcb"/>
    <path id="Tracé_4642" data-name="Tracé 4642" d="M764.917,334.678c-.059-.008-.118-.021-.177-.034s-.1-.021-.143-.029c-1.348-.282-2.674-.628-3.976-1.023q-1.839-.556-3.609-1.255c-.3-.118-.6-.236-.9-.362-.745-.312-1.482-.636-2.207-.986-.211-.1-.417-.2-.623-.3l-.371-20.746,11.371-4.873s.038.3,5.437.67C770.746,309.092,764.917,334.678,764.917,334.678Z" transform="translate(-553.342 -237.992)" fill="#2f2e41"/>
    <path id="Tracé_4643" data-name="Tracé 4643" d="M829.293,307.474l-2.144,11.266.2,10.188q-.935.48-1.887.91l-.059.025c-.147.067-.3.139-.455.2-1.175.522-2.375,1-3.6,1.419q-1.561.55-3.167.986a47.9,47.9,0,0,1-6.675,1.339,48.69,48.69,0,0,1-5.8.4l-.223-18.055c-.472-5.82,1.091-9.67,3.007-12.163,10.213-1.365,9.986-1.487,9.986-1.487l10.828,4.873Z" transform="translate(-583.73 -236.504)" fill="#2f2e41"/>
    <path id="Tracé_4644" data-name="Tracé 4644" d="M752.162,318.266l-.771,20.767c-.3-.118-.6-.236-.9-.362-.745-.312-1.482-.636-2.207-.986-.211-.1-.417-.2-.623-.3-.7-.341-1.39-.7-2.064-1.078q-1.219-.676-2.4-1.419l4.089-18.249Z" transform="translate(-547.722 -244.689)" fill="#2f2e41"/>
    <path id="Tracé_4645" data-name="Tracé 4645" d="M859.926,331.947l-.337.236c-.118.084-.24.168-.362.248q-1.061.733-2.165,1.4-1.554.948-3.18,1.781l-.105.051q-.963.495-1.944.936h0l-.771-20.839,4.658-1.55.215-.072Z" transform="translate(-610.155 -243.242)" fill="#2f2e41"/>
    <ellipse id="Ellipse_811" data-name="Ellipse 811" cx="12.046" cy="12.015" rx="12.046" ry="12.015" transform="translate(206.682 56.483) rotate(-73.66)" fill="#9f616a"/>
    <path id="Tracé_4646" data-name="Tracé 4646" d="M774.329,243.426v-4.688s-3.781-4.453.378-5.574c0,0,1.134-11.216,10.964-5.982,0,0,13.61-2.243,12.1,5.608,0,0,3.4-2.05,2.268,3.185l-2.194,8.432s1.059-5.57-2.343-6.317l-1.89-1.122s-5.293,5.234-13.232-1.122c0,0-3.4-.812-3.025,2.553S774.329,243.426,774.329,243.426Z" transform="translate(-564.83 -192.101)" fill="#2f2e41"/>
    <path id="Tracé_4647" data-name="Tracé 4647" d="M581.69,544.638a48.793,48.793,0,0,1-20.927,40.09c-.118.084-.24.168-.362.248q-1.061.733-2.165,1.4-1.554.948-3.18,1.781c-.657.337-1.318.657-1.992.96-.169.076-.341.156-.514.227q-1.763.783-3.6,1.419a48.093,48.093,0,0,1-9.843,2.325,48.959,48.959,0,0,1-6.275.4c-1.057,0-2.11-.034-3.15-.1-.91-.059-1.811-.139-2.7-.249q-2.154-.259-4.254-.7c-.046-.008-.1-.021-.143-.03a47.724,47.724,0,0,1-8.487-2.641c-.745-.312-1.482-.636-2.207-.986q-1.371-.644-2.687-1.377a48.858,48.858,0,1,1,72.486-42.769Z" transform="translate(-397.667 -348.381)" fill="#f1f1f1"/>
    <circle id="Ellipse_812" data-name="Ellipse 812" cx="10.909" cy="10.909" r="10.909" transform="translate(122.917 186.478)" fill="#ffb8b8"/>
    <path id="Tracé_4648" data-name="Tracé 4648" d="M580.254,680.751c-1.436-.173-2.856-.4-4.254-.7l1.327-29.852.19-.2,2.716-2.868h8.638l3.188,3.087.27.265,6.819,6.532,3.079,21.361a48.1,48.1,0,0,1-9.843,2.325,48.992,48.992,0,0,1-6.275.4c-1.057,0-2.11-.034-3.15-.1C582.048,680.941,581.147,680.861,580.254,680.751Z" transform="translate(-450.94 -435.99)" fill="#cbcbcb"/>
    <path id="Tracé_4649" data-name="Tracé 4649" d="M546.374,680.137q-1.371-.644-2.687-1.377c-.088-8.086-.147-13.456-.147-13.456l1.028-.628.038-.017,11.662-7.084,2.447-3.976.013.143.72,8.381a146.035,146.035,0,0,1,4.721,22.621c-.91-.059-1.811-.139-2.7-.249-1.436-.173-2.856-.4-4.254-.7-.046-.008-.1-.021-.143-.029a47.716,47.716,0,0,1-8.487-2.641C547.836,680.811,547.1,680.487,546.374,680.137Z" transform="translate(-432.151 -439.735)" fill="#2f2e41"/>
    <path id="Tracé_4650" data-name="Tracé 4650" d="M623.338,682.121a48.1,48.1,0,0,1-9.843,2.325,38.436,38.436,0,0,1-.51-8.234c.91-14.543-1.188-22.612-.278-22.612l.463.362,5.724,4.523,7.534,2.763h0l5.185,1.9.914.337v.434c0,1.5.013,6.747.089,13.814q-1.554.948-3.18,1.781c-.657.337-1.318.657-1.992.96-.169.076-.341.156-.514.227C625.76,681.224,624.56,681.7,623.338,682.121Z" transform="translate(-472.052 -439.735)" fill="#2f2e41"/>
    <path id="Tracé_4651" data-name="Tracé 4651" d="M568.457,596.654s.927-1.628.711-7.066,8.065-2.362,14.984-2.881,5.455,9.078,5.455,9.078.5-.57,1.568-5.2-1.358-9.248-1.358-9.248c-.715-4.867-4.566-3.307-4.566-3.307a2.02,2.02,0,0,1,1.5,2.266c-1.57-2.753-5.422-1.193-5.422-1.193-5.137-3.224-10.343,1.021-10.343,1.021-6.206,1.408-2.566,6.344-2.566,6.344C562.177,589.62,568.457,596.654,568.457,596.654Z" transform="translate(-444.951 -395.853)" fill="#2f2e41"/>
    <path id="Tracé_4652" data-name="Tracé 4652" d="M531.32,690.566c.16-3.7.232-6.09.147-6.423-.434-1.735,5.488-4.06,6.027-4.266l.038-.017,1.2.644.564,14.833q-1.371-.644-2.687-1.377A48.493,48.493,0,0,1,531.32,690.566Z" transform="translate(-425.077 -454.935)" fill="#2f2e41"/>
    <path id="Tracé_4653" data-name="Tracé 4653" d="M649.891,688.152q-1.554.948-3.18,1.782c-.657.337-1.318.657-1.992.96-.169.076-.341.156-.514.227l-1.9-18.712,1.108-.809s.1.025.282.067h0a21.922,21.922,0,0,1,5.185,1.9,3.249,3.249,0,0,1,.914.771.937.937,0,0,1,.215.665c-.05.489.792,5.121,2.039,11.746Q650.994,687.482,649.891,688.152Z" transform="translate(-489.323 -450.154)" fill="#2f2e41"/>
    <path id="Tracé_4654" data-name="Tracé 4654" d="M133.117,378.007H115V296.788h.842v80.376h17.274Z" transform="translate(-66.591 -171.797)" fill="#c7c7c7"/>
    <path id="Tracé_4655" data-name="Tracé 4655" d="M502.109,376.972H483.992v-.842h17.274V295h.842Z" transform="translate(-280.178 -170.762)" fill="#c7c7c7"/>
    <circle id="Ellipse_813" data-name="Ellipse 813" cx="11.134" cy="11.134" r="11.134" transform="translate(210.372 84.853)" fill="#98984b"/>
    <path id="Tracé_4656" data-name="Tracé 4656" d="M518.9,226.175l-3.333-4.285,1.938-1.507,1.578,2.029,5.331-5.627,1.782,1.688Z" transform="translate(-298.456 -125.488)" fill="#fff"/>
    <circle id="Ellipse_814" data-name="Ellipse 814" cx="11.134" cy="11.134" r="11.134" transform="translate(37.696 85.722)" fill="#98984b"/>
    <path id="Tracé_4657" data-name="Tracé 4657" d="M108.9,228.238l-3.333-4.285,1.938-1.507,1.578,2.029,5.331-5.627,1.782,1.688Z" transform="translate(-61.131 -126.682)" fill="#fff"/>
    <circle id="Ellipse_815" data-name="Ellipse 815" cx="11.134" cy="11.134" r="11.134" transform="translate(124.034 233.97)" fill="#98984b"/>
    <path id="Tracé_4658" data-name="Tracé 4658" d="M313.9,580.238l-3.333-4.285,1.938-1.507,1.578,2.029,5.331-5.627,1.782,1.688Z" transform="translate(-179.793 -330.434)" fill="#fff"/>
  </g>
</svg>
