<svg xmlns="http://www.w3.org/2000/svg" width="321.031" height="216.094" viewBox="0 0 321.031 216.094">
  <g id="Groupe_2508" data-name="Groupe 2508" transform="translate(0 -34.652)">
    <path id="Tracé_4769" data-name="Tracé 4769" d="M227.372,687.412c0,.012,0,.029-.008.041H201.02c-.5-.313-.984-.638-1.463-.967a49.449,49.449,0,0,1-8.158-6.927,39.3,39.3,0,0,1-6.906-10.166c-3.475-7.414-4.544-15.849-1.854-23.47a0,0,0,0,1,0,0h0c.065-.191.138-.386.211-.581.11.191.215.378.329.565l0,0a55.011,55.011,0,0,0,5.122,7.223v0c.146.175.293.35.443.52a0,0,0,0,0,0,0h0a57.352,57.352,0,0,0,16.426,13.235l.057.033a.5.5,0,0,0,.065.033s.008,0,.012.008c1.386.748,2.809,1.431,4.256,2.049v0c1.138.492,2.3.939,3.463,1.354a73.281,73.281,0,0,1,7.552,2.821,12.891,12.891,0,0,1,5.687,4.752c.1.179.2.354.3.532l-.776,5.374,1.549-.008-.146,2.642-.041.764Z" transform="translate(-181.125 -437.52)" fill="#f0f0f0"/>
    <path id="Tracé_4770" data-name="Tracé 4770" d="M222.96,687.175H222.4c-.053-.325-.106-.646-.167-.967a20.714,20.714,0,0,0-.642-2.6c-.122-.382-.26-.756-.419-1.126a7.474,7.474,0,0,0-4.727-4.573,8.7,8.7,0,0,0-2.036-.289c-1.362-.057-2.744.118-4.1.191-.333.016-.671.028-1,.024h-.008a12.2,12.2,0,0,1-5.118-1.032,19.309,19.309,0,0,1-5.357-3.8,41.431,41.431,0,0,1-2.9-3.073v0c-.122-.134-.24-.272-.358-.415a49.177,49.177,0,0,1-5.614-8.357,46.887,46.887,0,0,1-2.167-4.626.216.216,0,0,1-.02-.045,49.323,49.323,0,0,1-3.049-10.837,0,0,0,0,1,0,0h0c-.033-.167-.057-.337-.081-.5-.053-.346.5-.362.545-.016.024.171.049.333.077.5l0,0a48.991,48.991,0,0,0,2.886,10.39v0c.069.171.138.337.207.5a48.573,48.573,0,0,0,7.744,12.764l0,.008c.033.041.069.077.106.118a.015.015,0,0,1,0,.012s0,0,0,0c.752.89,1.541,1.744,2.362,2.573a21.052,21.052,0,0,0,5.219,4.016,11.608,11.608,0,0,0,5.231,1.276c.183,0,.366,0,.549,0q.219,0,.439-.012c1.378-.065,2.776-.24,4.162-.215a11.246,11.246,0,0,1,1.878.2,7.381,7.381,0,0,1,4.87,3.569,12.9,12.9,0,0,1,1.228,2.776c.1.317.187.638.272.963v0c.13.52.244,1.049.341,1.581a.237.237,0,0,1,.008.053C222.854,686.529,222.907,686.854,222.96,687.175Z" transform="translate(-183.217 -437.242)" fill="#fff"/>
    <path id="Tracé_4771" data-name="Tracé 4771" d="M198.989,704.556a7.324,7.324,0,0,1-9.464-.608c-.252-.245.117-.648.369-.4a6.782,6.782,0,0,0,8.805.547c.281-.211.569.253.29.463Z" transform="translate(-186.06 -472.022)" fill="#fff"/>
    <path id="Tracé_4772" data-name="Tracé 4772" d="M241.282,709.786a14.117,14.117,0,0,0-2.233-10.043c-.2-.292.267-.581.463-.29a14.683,14.683,0,0,1,2.3,10.455c-.055.348-.587.224-.532-.122Z" transform="translate(-215.476 -469.567)" fill="#fff"/>
    <path id="Tracé_4773" data-name="Tracé 4773" d="M192.75,667.582a4.146,4.146,0,0,0,2.355-3.151c.051-.348.583-.224.532.122a4.645,4.645,0,0,1-2.6,3.492.282.282,0,0,1-.377-.087A.275.275,0,0,1,192.75,667.582Z" transform="translate(-187.949 -448.729)" fill="#fff"/>
    <path id="Tracé_4774" data-name="Tracé 4774" d="M271.443,649.867l-.224,2.061-3.557-.053-.537,3.715-.094.638v0l-.366,2.541-.776,5.374,1.549-.008-.146,2.642-.041.764.215.163.049.041.016.012c-.045.089-.093.179-.142.272.028-.1.049-.187.069-.285H257.168c-.191-.321-.378-.642-.561-.967a70.943,70.943,0,0,1-4.191-8.585c-.073-.183-.15-.366-.215-.553v0a53.4,53.4,0,0,1-2.532-8.325v0a46.347,46.347,0,0,1-.76-4.707,39.221,39.221,0,0,1,.606-12.239.47.47,0,0,0,.016-.061c1.622-7.678,5.577-14.776,11.841-19.271.26-.2.528-.378.8-.557,0,0,0,0,.008,0h0a0,0,0,0,0,0,0l.508-.329c-.024.219-.053.439-.073.658a54.029,54.029,0,0,0-.26,8.845v.008c0,.228.016.455.033.687v.008a57.552,57.552,0,0,0,5.166,20.487.249.249,0,0,0,.02.049c.008.02.016.037.024.057a54.844,54.844,0,0,0,3.841,6.93Z" transform="translate(-221.221 -417.815)" fill="#f0f0f0"/>
    <path id="Tracé_4775" data-name="Tracé 4775" d="M274.143,611.985c-.081.15-.166.3-.243.458q-.911,1.722-1.676,3.517a47.959,47.959,0,0,0-2.271,6.515c-.049.173-.1.351-.14.527a48.479,48.479,0,0,0-1.5,14.875c0,.049,0,.094.008.143q.1,1.753.336,3.493a21.049,21.049,0,0,0,1.747,6.348c.128.263.263.52.4.768a11.117,11.117,0,0,0,1.221,1.708,11.351,11.351,0,0,0,1.07,1.091c.23.208.467.411.714.6.143.112.29.222.437.333.121.082.239.169.361.251,1.262.864,2.623,1.632,3.8,2.622l-.092.639a32.973,32.973,0,0,0-3.8-2.667,15.4,15.4,0,0,1-2.23-1.794c-.09-.092-.184-.183-.271-.279a10.875,10.875,0,0,1-1.253-1.554c-.188-.277-.365-.564-.532-.865a19.469,19.469,0,0,1-1.983-6.258,42.031,42.031,0,0,1-.467-4.205c-.015-.183-.025-.363-.032-.547a49.831,49.831,0,0,1,4.122-22.287q.732-1.679,1.6-3.306c.073-.149.152-.294.233-.444C273.862,611.36,274.308,611.676,274.143,611.985Z" transform="translate(-232.502 -417.462)" fill="#fff"/>
    <path id="Tracé_4776" data-name="Tracé 4776" d="M258.038,667.785a7.324,7.324,0,0,1-7.191-6.183c-.054-.347.484-.447.537-.1a6.782,6.782,0,0,0,6.7,5.738C258.436,667.241,258.387,667.785,258.038,667.785Z" transform="translate(-222.504 -446.986)" fill="#fff"/>
    <path id="Tracé_4777" data-name="Tracé 4777" d="M282.327,697.422a14.116,14.116,0,0,0,4.264-9.363c.019-.351.563-.3.544.047a14.684,14.684,0,0,1-4.456,9.734c-.253.245-.6-.175-.351-.418Z" transform="translate(-241.138 -462.733)" fill="#fff"/>
    <path id="Tracé_4778" data-name="Tracé 4778" d="M272.408,636.649a4.145,4.145,0,0,0,3.777-1.1c.25-.248.6.172.351.418a4.645,4.645,0,0,1-4.176,1.224.282.282,0,0,1-.249-.3A.275.275,0,0,1,272.408,636.649Z" transform="translate(-235.128 -431.666)" fill="#fff"/>
    <path id="Tracé_4779" data-name="Tracé 4779" d="M311.989,749.051a.482.482,0,0,1-.484.484H197.572a.484.484,0,1,1,0-.967H311.5a.482.482,0,0,1,.484.484Z" transform="translate(-190.599 -498.788)" fill="#ccc"/>
    <path id="Tracé_4780" data-name="Tracé 4780" d="M853.767,252.956H780.106a2.4,2.4,0,0,1,0-4.8h73.661a2.4,2.4,0,1,1,0,4.8Z" transform="translate(-535.205 -201.783)" fill="#98984b"/>
    <path id="Tracé_4781" data-name="Tracé 4781" d="M853.767,276.309H780.106a2.4,2.4,0,0,1,0-4.8h73.661a2.4,2.4,0,0,1,0,4.8Z" transform="translate(-535.205 -215.644)" fill="#98984b"/>
    <path id="Tracé_4782" data-name="Tracé 4782" d="M812.036,299.662h-31.93a2.4,2.4,0,0,1,0-4.8h31.93a2.4,2.4,0,0,1,0,4.8Z" transform="translate(-535.205 -229.504)" fill="#98984b"/>
    <path id="Tracé_4783" data-name="Tracé 4783" d="M853.767,385.77H780.106a2.4,2.4,0,0,1,0-4.8h73.661a2.4,2.4,0,1,1,0,4.8Z" transform="translate(-535.205 -280.61)" fill="#e6e6e6"/>
    <path id="Tracé_4784" data-name="Tracé 4784" d="M853.767,409.122H780.106a2.4,2.4,0,0,1,0-4.8h73.661a2.4,2.4,0,0,1,0,4.8Z" transform="translate(-535.205 -294.47)" fill="#e6e6e6"/>
    <path id="Tracé_4785" data-name="Tracé 4785" d="M812.036,432.476h-31.93a2.4,2.4,0,1,1,0-4.8h31.93a2.4,2.4,0,0,1,0,4.8Z" transform="translate(-535.205 -308.331)" fill="#e6e6e6"/>
    <path id="Tracé_4786" data-name="Tracé 4786" d="M853.767,525.885H780.106a2.4,2.4,0,1,1,0-4.8h73.661a2.4,2.4,0,1,1,0,4.8Z" transform="translate(-535.205 -363.771)" fill="#e6e6e6"/>
    <path id="Tracé_4787" data-name="Tracé 4787" d="M853.767,549.238H780.106a2.4,2.4,0,1,1,0-4.8h73.661a2.4,2.4,0,1,1,0,4.8Z" transform="translate(-535.205 -377.632)" fill="#e6e6e6"/>
    <path id="Tracé_4788" data-name="Tracé 4788" d="M812.036,572.592h-31.93a2.4,2.4,0,1,1,0-4.8h31.93a2.4,2.4,0,1,1,0,4.8Z" transform="translate(-535.205 -391.493)" fill="#e6e6e6"/>
    <path id="Tracé_4789" data-name="Tracé 4789" d="M640.022,401.473H595.677a4.488,4.488,0,0,1-4.483-4.483V367.9a4.488,4.488,0,0,1,4.483-4.483h44.346a4.488,4.488,0,0,1,4.483,4.483v29.092A4.488,4.488,0,0,1,640.022,401.473Z" transform="translate(-424.508 -270.195)" fill="#e6e6e6"/>
    <path id="Tracé_4790" data-name="Tracé 4790" d="M642.042,372.359H603.931a4.087,4.087,0,0,0-4.083,4.081v22.624a4.089,4.089,0,0,0,4.083,4.083h24.3a17.908,17.908,0,0,0,17.89-17.89V376.44A4.085,4.085,0,0,0,642.042,372.359Z" transform="translate(-429.644 -275.503)" fill="#fff"/>
    <path id="Tracé_4791" data-name="Tracé 4791" d="M645.622,375.848h0l-.114.205a7.307,7.307,0,0,0-1.717-7.461,11.375,11.375,0,0,0-6.8-3.087,11.042,11.042,0,0,0-5.493.427c-2.531.975-4.464,3.232-6.078,5.579a6.084,6.084,0,0,0-1.391,3.64,7.9,7.9,0,0,0,1.413,3.359,4.315,4.315,0,0,1,.677,3.521,6.917,6.917,0,0,1-1.25,1.744,2.34,2.34,0,0,0-.595,2.027,1.654,1.654,0,0,0,1.232,1.071,4.358,4.358,0,0,0,1.637-.039l14.111-2.132a6.014,6.014,0,0,0,4.365-8.855Z" transform="translate(-443.994 -271.343)" fill="#2f2e41"/>
    <circle id="Ellipse_821" data-name="Ellipse 821" cx="6.899" cy="6.899" r="6.899" transform="translate(184.232 99.463)" fill="#ffb9b9"/>
    <path id="Tracé_4792" data-name="Tracé 4792" d="M649.129,426.9a17.788,17.788,0,0,1-10.546,3.448H617.412c-.043-.035-.083-.069-.126-.106l1.974-5.509a5.925,5.925,0,0,1,5.033-3.456l1.256-.077,3-2.583s8.07-.288,7.951-.426l4.888,2.94,0-.02,1.922.118a5.922,5.922,0,0,1,5.033,3.456Z" transform="translate(-439.994 -302.705)" fill="#98984b"/>
    <path id="Tracé_4793" data-name="Tracé 4793" d="M644.307,376.826c-.178-.942-1.139-1.373-1.962-1.582a18.9,18.9,0,0,0-7.313-.4,8,8,0,0,0-4.891,2.2,6.578,6.578,0,0,0-1.663,4.236,5.044,5.044,0,0,0,.6,2.691,2.494,2.494,0,0,0,2.074,1.337l.083.288a12.559,12.559,0,0,0,8.708-5.833,7.473,7.473,0,0,1-2.183,3.527,13.6,13.6,0,0,0,5.872-4.526A2.562,2.562,0,0,0,644.307,376.826Z" transform="translate(-446.632 -276.866)" fill="#2f2e41"/>
    <path id="Tracé_4794" data-name="Tracé 4794" d="M640.022,268.659H595.677a4.488,4.488,0,0,1-4.483-4.483V235.085a4.488,4.488,0,0,1,4.483-4.483h44.346a4.488,4.488,0,0,1,4.483,4.483v29.092a4.488,4.488,0,0,1-4.483,4.482Z" transform="translate(-424.508 -191.367)" fill="#ccc"/>
    <path id="Tracé_4795" data-name="Tracé 4795" d="M642.042,239.545H603.931a4.088,4.088,0,0,0-4.083,4.081V266.25a4.089,4.089,0,0,0,4.083,4.083h24.3a17.9,17.9,0,0,0,17.89-17.89v-8.817a4.085,4.085,0,0,0-4.081-4.081Z" transform="translate(-429.644 -196.675)" fill="#fff"/>
    <circle id="Ellipse_822" data-name="Ellipse 822" cx="3.25" cy="3.25" r="3.25" transform="translate(180.932 40.759)" fill="#2f2e41"/>
    <circle id="Ellipse_823" data-name="Ellipse 823" cx="8.233" cy="8.233" r="8.233" transform="translate(181.149 43.142)" fill="#2f2e41"/>
    <circle id="Ellipse_824" data-name="Ellipse 824" cx="6.691" cy="6.691" r="6.691" transform="translate(183.373 46.226)" fill="#9e616a"/>
    <path id="Tracé_4796" data-name="Tracé 4796" d="M642.868,245.846a7.664,7.664,0,0,0-11.652,6.689c3.409.856,6.991,1.511,10.626.2l.859-2.1.506,2.1c1.107.453,2.217.835,3.327,0A7.825,7.825,0,0,0,642.868,245.846Z" transform="translate(-448.261 -199.75)" fill="#2f2e41"/>
    <path id="Tracé_4797" data-name="Tracé 4797" d="M611.987,219.863a6.648,6.648,0,0,0-6.938,1.069,7.519,7.519,0,0,0-2.4,6.691c.369,2.5,1.885,4.644,3.284,6.743s2.764,4.4,2.763,6.921a6.861,6.861,0,0,1-6.848,6.857c2.132.918,4.357,1.854,6.676,1.745s4.749-1.6,5.127-3.89c.272-1.65-.537-3.259-1.212-4.79a33.879,33.879,0,0,1-2.368-7.794,7.835,7.835,0,0,1,.045-3.859,4.532,4.532,0,0,1,4.5-2.974l.766-.689a5.964,5.964,0,0,0-3.4-6.031Z" transform="translate(-430.832 -184.677)" fill="#2f2e41"/>
    <path id="Tracé_4798" data-name="Tracé 4798" d="M645.311,295.105a17.761,17.761,0,0,1-9.172,2.537H613.2l-.037-.03,1.974-5.511a5.923,5.923,0,0,1,5.033-3.454l1.256-.077,3-2.583s8.07-.29,7.951-.428l4.888,2.94,0-.018,1.922.118a5.916,5.916,0,0,1,5.032,3.454Z" transform="translate(-437.55 -223.984)" fill="#98984b"/>
    <path id="Tracé_4799" data-name="Tracé 4799" d="M640.022,541.589H595.677a4.488,4.488,0,0,1-4.483-4.483V508.015a4.488,4.488,0,0,1,4.483-4.483h44.346a4.488,4.488,0,0,1,4.483,4.483v29.092A4.488,4.488,0,0,1,640.022,541.589Z" transform="translate(-424.508 -353.356)" fill="#e6e6e6"/>
    <path id="Tracé_4800" data-name="Tracé 4800" d="M642.043,512.475H603.932a4.087,4.087,0,0,0-4.083,4.081V539.18a4.089,4.089,0,0,0,4.083,4.083h24.3a17.908,17.908,0,0,0,17.89-17.89v-8.817A4.085,4.085,0,0,0,642.043,512.475Z" transform="translate(-429.645 -358.664)" fill="#fff"/>
    <circle id="Ellipse_825" data-name="Ellipse 825" cx="9.18" cy="9.18" r="9.18" transform="translate(184.129 149.844)" fill="#2f2e41"/>
    <circle id="Ellipse_826" data-name="Ellipse 826" cx="8.2" cy="8.2" r="8.2" transform="translate(185.112 153.008)" fill="#ffb8b8"/>
    <path id="Tracé_4801" data-name="Tracé 4801" d="M650.945,566.871a17.807,17.807,0,0,1-11.126,3.89H619.368l1.94-5.412a5.925,5.925,0,0,1,5.032-3.456l1.256-.077,3-2.583s8.07-.288,7.951-.426l4.888,2.94,0-.02,1.922.118a5.923,5.923,0,0,1,5.033,3.456Z" transform="translate(-441.23 -386.163)" fill="#98984b"/>
    <path id="Tracé_4802" data-name="Tracé 4802" d="M651,509.713a18.122,18.122,0,0,0,.079-1.842,8.67,8.67,0,0,0-.654-3.55,5.455,5.455,0,0,0-2.854-2.758,5.208,5.208,0,0,0-3.9,0,7.866,7.866,0,0,0-3.709-1.35,4.148,4.148,0,0,0-3.536,1.5,5.771,5.771,0,0,1-.618.8,3.014,3.014,0,0,1-2.522.4l1.172,1-1.418.371,1.655,1a5.2,5.2,0,0,0-2.137,4.966,10.5,10.5,0,0,0,2.094,4.921,6.708,6.708,0,0,0,.319-2.913,6.586,6.586,0,0,1,.058-.958c3.519.844,7.2,1.385,10.926.045l.748-1.832.315.032.434,1.8a4.008,4.008,0,0,0,2.953.384c.048.278.077.562.1.835.085-.326.158-.655.224-.985a2.916,2.916,0,0,0,.373-.238A8.015,8.015,0,0,0,651,509.713Z" transform="translate(-449.039 -351.38)" fill="#2f2e41"/>
    <circle id="Ellipse_827" data-name="Ellipse 827" cx="2.751" cy="2.751" r="2.751" transform="translate(297.663 65.311)" fill="#98984b"/>
    <circle id="Ellipse_828" data-name="Ellipse 828" cx="2.751" cy="2.751" r="2.751" transform="translate(306.596 65.311)" fill="#98984b"/>
    <circle id="Ellipse_829" data-name="Ellipse 829" cx="2.751" cy="2.751" r="2.751" transform="translate(315.529 65.311)" fill="#98984b"/>
    <circle id="Ellipse_830" data-name="Ellipse 830" cx="2.751" cy="2.751" r="2.751" transform="translate(297.663 118.908)" fill="#e6e6e6"/>
    <circle id="Ellipse_831" data-name="Ellipse 831" cx="2.751" cy="2.751" r="2.751" transform="translate(306.596 118.908)" fill="#e6e6e6"/>
    <circle id="Ellipse_832" data-name="Ellipse 832" cx="2.751" cy="2.751" r="2.751" transform="translate(315.529 118.908)" fill="#e6e6e6"/>
    <circle id="Ellipse_833" data-name="Ellipse 833" cx="2.751" cy="2.751" r="2.751" transform="translate(297.663 175.964)" fill="#e6e6e6"/>
    <circle id="Ellipse_834" data-name="Ellipse 834" cx="2.751" cy="2.751" r="2.751" transform="translate(306.596 175.964)" fill="#e6e6e6"/>
    <circle id="Ellipse_835" data-name="Ellipse 835" cx="2.751" cy="2.751" r="2.751" transform="translate(315.529 175.964)" fill="#e6e6e6"/>
    <path id="Tracé_4807" data-name="Tracé 4807" d="M702.863,293.846l-14.179-8.977a1.783,1.783,0,0,0-2.736,1.522l.139,15.479a1.783,1.783,0,0,0,3.431.662l1.845-4.487,5.144,10.141a2.032,2.032,0,0,0,3.625-1.839l-5.261-10.371,6.742,1.135a1.783,1.783,0,0,0,1.249-3.264Z" transform="translate(-480.746 -223.411)" fill="#3f3d56"/>
    <path id="Tracé_4808" data-name="Tracé 4808" d="M277,519.152a3.482,3.482,0,0,0-.694-5.294l2.854-12.04-6.04,2.207-1.784,11.1A3.5,3.5,0,0,0,277,519.152Z" transform="translate(-234.414 -352.338)" fill="#ffb8b8"/>
    <path id="Tracé_4809" data-name="Tracé 4809" d="M292.229,386.965,289.8,393.2s1.039,6.233-.693,7.618-1.039,1.385-1.039,2.424A5.326,5.326,0,0,1,286,407.049c-1.385,1.039-7.618,22.161-7.618,22.161h-6.233a19.526,19.526,0,0,0,0-4.848c-.346-2.424,1.039-8.657,1.731-9.7s0-2.424,0-4.5,1.385-3.116,1.385-6.579,4.155-30.472,3.809-33.588,3.463-5.887,3.463-5.887H286Z" transform="translate(-235.115 -270.607)" fill="#e6e6e6"/>
    <path id="Tracé_4810" data-name="Tracé 4810" d="M109.389,556.712h4.486l2.135-17.306h-6.622Z" transform="translate(-64.924 -314.06)" fill="#ffb6b6"/>
    <path id="Tracé_4811" data-name="Tracé 4811" d="M285.593,722.848l7.168-.428v3.071l6.815,4.706a1.918,1.918,0,0,1-1.09,3.5h-8.534l-1.471-3.038-.574,3.038h-3.218Z" transform="translate(-242.592 -483.27)" fill="#2f2e41"/>
    <path id="Tracé_4812" data-name="Tracé 4812" d="M171.389,556.712h4.486l2.135-17.306h-6.622Z" transform="translate(-101.722 -314.06)" fill="#ffb6b6"/>
    <path id="Tracé_4813" data-name="Tracé 4813" d="M347.593,722.848l7.168-.428v3.071l6.815,4.706a1.918,1.918,0,0,1-1.09,3.5h-8.534l-1.471-3.038-.574,3.038h-3.218Z" transform="translate(-279.39 -483.27)" fill="#2f2e41"/>
    <path id="Tracé_4814" data-name="Tracé 4814" d="M284.021,548.99h.049l2.489-28.138a7.358,7.358,0,0,1,.1-6.953l.124-.224-.32-1.485A9.458,9.458,0,0,1,287,506.5l-.821-26.248c-2.876-18.638,10.829-30.793,10.829-30.793h20.531l4.408,15.144c1.655,16.124,6.83,33.082,6.145,48.713-.522,11.891-6.386,22.562-8.383,34.142l.126.064a1.065,1.065,0,0,1,.435,1.4c-.214.619-.755.994-1.209.837l-10.843-.377a1.065,1.065,0,0,1-.435-1.4c.214-.619.755-.994,1.209-.837l.737.373,5.338-28.372.174-4.959-.359-5.627-8.572-24.088-6.291,31.122L293.592,549.3a1.182,1.182,0,0,1-.8,2.058h-8.774a1.186,1.186,0,1,1,0-2.371Z" transform="translate(-241.492 -321.263)" fill="#2f2e41"/>
    <path id="Tracé_4815" data-name="Tracé 4815" d="M279.715,395.158c-.674,0-1.057-.132-1.205-.416-.218-.416.16-.959.6-1.589a4.862,4.862,0,0,0,.757-1.364c.261-1.046,2.026-27.457.97-32.734a9.1,9.1,0,0,1,.624-4.652c1.8-5.1,4.253-6.661,9.143-9.781l1.24-.794c.556-.357.525-1.542.492-2.8-.036-1.394-.074-2.836.609-3.737l.044-.059.072-.017c1.652-.382,7.208-1.091,10.5.005l.045.015.034.034c.782.782.853,2.3.922,3.76a5.347,5.347,0,0,0,.552,2.83,10.25,10.25,0,0,0,7.254,3.694l.19-.006.019.189c1.471,14.958,3.841,37.534,4.345,38.422a.265.265,0,0,1,.008.275C316.187,387.821,282.255,395.158,279.715,395.158ZM316.578,386.387Z" transform="translate(-238.887 -254.303)" fill="#e6e6e6"/>
    <circle id="Ellipse_836" data-name="Ellipse 836" cx="10.027" cy="10.027" r="10.027" transform="translate(52.882 58.63)" fill="#ffb8b8"/>
    <path id="Tracé_4816" data-name="Tracé 4816" d="M252.128,276.406c1.7-1.977,2.5-4.6,3.857-6.845s3.714-4.254,6.205-3.732a5.566,5.566,0,0,1,3.717,3.565,17.544,17.544,0,0,1,.916,5.378,9.182,9.182,0,0,1,5.835-8.585,8.593,8.593,0,0,1,9.618,3.152,5.2,5.2,0,0,1,6.9-.145,5.791,5.791,0,0,1,.93,7.147,5.234,5.234,0,0,1-6.691,1.784l-.791.727a3.428,3.428,0,0,1-1.869,3.981c-1.176.475-2.837.4-3.277,1.631a2.587,2.587,0,0,0,.879,2.446,4.124,4.124,0,0,1,1.411,2.265c.111,1.384-1.319,2.354-2.619,2.646a8.167,8.167,0,0,1-8.421-3.514q-.052-.08-.114-.16a12.106,12.106,0,0,1-2.435-9.257c.1-.639,0-1.115-.442-1.267-1.906-.655-7.245.719-8.86,1.961s-2.91,2.885-4.466,4.207-3.54,2.341-5.516,1.981a6.12,6.12,0,0,1-3.835-2.823,17,17,0,0,1-1.894-4.607A8.913,8.913,0,0,0,252.128,276.406Z" transform="translate(-216.763 -212.225)" fill="#2f2e41"/>
    <path id="Tracé_4817" data-name="Tracé 4817" d="M372.283,519.152a3.482,3.482,0,0,1,.694-5.294l-2.854-12.04,6.04,2.207,1.784,11.1a3.5,3.5,0,0,1-5.664,4.032Z" transform="translate(-293.299 -352.338)" fill="#ffb8b8"/>
    <path id="Tracé_4818" data-name="Tracé 4818" d="M339.7,386.965l2.424,6.233s-1.039,6.233.693,7.618,1.039,1.385,1.039,2.424a5.327,5.327,0,0,0,2.078,3.809c1.385,1.039,7.618,22.161,7.618,22.161h6.233a19.531,19.531,0,0,1,0-4.848c.346-2.424-1.039-8.657-1.731-9.7s0-2.424,0-4.5-1.385-3.116-1.385-6.579-4.155-30.472-3.809-33.588-3.463-5.887-3.463-5.887h-3.463Z" transform="translate(-275.244 -270.607)" fill="#e6e6e6"/>
  </g>
</svg>
