<svg id="Groupe_2475" data-name="Groupe 2475" xmlns="http://www.w3.org/2000/svg" width="417.336" height="235.231" viewBox="0 0 417.336 235.231">
  <path id="Tracé_4587" data-name="Tracé 4587" d="M332.133,94.358l2.6-9.532-11.7-4.333-1.3,8.665Z" transform="translate(-172.687 -43.204)" fill="#a0616a"/>
  <path id="Tracé_4588" data-name="Tracé 4588" d="M339.211,97.011l2.6-9.532-6.889-2.906,2.141,11.237Z" transform="translate(-179.765 -45.394)" opacity="0.1"/>
  <g id="Groupe_2467" data-name="Groupe 2467" transform="translate(144.437 41.408)">
    <path id="Tracé_4589" data-name="Tracé 4589" d="M392.625,160.188c1.4-2.193-.263-5.75-3.708-7.946a10.226,10.226,0,0,0-4.548-1.622l-2-1.238-26.377-17.864s-17.873-20.377-21.77-21.965a7.661,7.661,0,0,0-7.132.878l-1.75,4.409,28.027,27.494,23.85,12.619,3.247,1.792a10.226,10.226,0,0,0,3.392,3.437c3.445,2.2,7.371,2.2,8.768.006Z" transform="translate(-319.06 -99.923)" fill="#a0616a"/>
    <path id="Tracé_4590" data-name="Tracé 4590" d="M317.357,89.383a10.669,10.669,0,0,0-5.55,6.876c-1.056,4.826,32.96,36.08,32.96,36.08l11.657-6.4L317.357,89.383Z" transform="translate(-311.783 -89.383)" fill="#e6e6e6"/>
  </g>
  <path id="Tracé_4591" data-name="Tracé 4591" d="M340.853,53.878a12.131,12.131,0,1,1-12.131-12.131A12.131,12.131,0,0,1,340.853,53.878Z" transform="translate(-169.927 -22.407)" fill="#a0616a"/>
  <path id="Tracé_4592" data-name="Tracé 4592" d="M404.035,445.593l8.232,20.363,4.766-4.766,1.733-9.1-6.932-8.665Z" transform="translate(-216.861 -238.004)" fill="#a0616a"/>
  <path id="Tracé_4593" data-name="Tracé 4593" d="M298.938,439.166l-3.655,12.052,6.729,5.545,7.392-4.7-.964-12.845Z" transform="translate(-158.49 -235.717)" fill="#a0616a"/>
  <path id="Tracé_4594" data-name="Tracé 4594" d="M326,186.707l1.083,17.547-26.862-4.766,1.733-10.832Z" transform="translate(-161.142 -100.213)" fill="#a0616a"/>
  <path id="Tracé_4595" data-name="Tracé 4595" d="M322.457,214.761l-27.078-8.882s-9.965,19.93.867,32.494,46.792,84.051,46.792,84.051l10.831-5.2-15.6-45.492-17.33-42.026,1.516-14.947Z" transform="translate(-156.296 -110.503)" fill="#2f2e41"/>
  <path id="Tracé_4596" data-name="Tracé 4596" d="M292.306,255.7l8.96,45.8-5.555,40.866,12.932,1.367,10.837-50.322-3.905-33.346Z" transform="translate(-156.892 -137.246)" fill="#2f2e41"/>
  <path id="Tracé_4597" data-name="Tracé 4597" d="M427.685,456.605h7.5s8.756-3.466,10.807,0-9.155,13.3-9.155,13.3-15.654,8.8-17.821,8.367-3.033-5.632-3.033-5.632l-2.6-6.066,3.9,1.3s5.2-3.033,3.9-8.232l6.5-3.033Z" transform="translate(-221.881 -244.251)" fill="#2f2e41"/>
  <path id="Tracé_4598" data-name="Tracé 4598" d="M291.819,461.64l-1.758-3.96-2.845,6s-6.44,6.179,2.137,9.48,18.914,6.3,18.914,6.3,13.286-2.108,12.5-6.023-2.223-5.006-2.223-5.006l-5.3-.187-8.532-8.537-5.984,3.605-6.906-1.674Z" transform="translate(-152.914 -245.655)" fill="#2f2e41"/>
  <path id="Tracé_4599" data-name="Tracé 4599" d="M312.787,50.1l3.9-.433,7.149-7.149s6.5,3.466,6.5.867c0-12.131-7.365-11.7-13.431-12.564s-5.416-1.083-7.365,2.166c-.892,1.486-4.116,2.383-4.116,2.383s-6.066-8.232-9.1,1.733.867,40.726-2.166,43.325,12.453,5.2,10.775-4.984-4.71-25.777-2.977-29.243,2.166-2.6,2.166-2.6c-2.148-.877-3.551,14.569,4.547,15.325l.219-7.526s1.3-3.9,3.9-1.3Z" transform="translate(-157.673 -16.246)" fill="#2f2e41"/>
  <path id="Tracé_4600" data-name="Tracé 4600" d="M311.381,99.318l-13-5.2-17.33,51.99,35.657-1.3,3.21-15.517s3.135-8.076.535-12.842-9.075-17.133-9.075-17.133Z" transform="translate(-150.852 -50.517)" fill="#e6e6e6"/>
  <g id="Groupe_2468" data-name="Groupe 2468" transform="translate(122.607 45.661)">
    <path id="Tracé_4601" data-name="Tracé 4601" d="M268.76,199.341c2.59.222,4.974-2.9,5.323-6.968a10.226,10.226,0,0,0-.669-4.782l.172-2.344L277.2,153.6s6.72-25.891,6.323-30.081-1.025-5.3-1.025-5.3l-4.718.492-11.38,37.575-.133,26.982-.084,3.708a10.224,10.224,0,0,0-1.475,4.6c-.35,4.071,1.467,7.551,4.057,7.773Z" transform="translate(-264.66 -109.11)" fill="#a0616a"/>
    <path id="Tracé_4602" data-name="Tracé 4602" d="M291.407,100.621a10.669,10.669,0,0,0-8.665-1.733c-4.766,1.3-16.7,45.925-16.7,45.925l11.072,7.365,14.3-51.557Z" transform="translate(-265.4 -98.564)" fill="#e6e6e6"/>
  </g>
  <g id="Groupe_2473" data-name="Groupe 2473" transform="translate(348.081 0)">
    <path id="Tracé_4603" data-name="Tracé 4603" d="M862.043,63.035l-7.6-14.114-10.585,8.414,4.072,10.586Z" transform="translate(-801.011 -26.258)" fill="#ffb6b6"/>
    <path id="Tracé_4604" data-name="Tracé 4604" d="M862.043,63.035l-7.6-14.114-10.585,8.414,4.072,10.586Z" transform="translate(-801.011 -26.258)" opacity="0.1"/>
    <circle id="Ellipse_808" data-name="Ellipse 808" cx="12.643" cy="12.643" r="12.643" transform="translate(30.231 6.227)" fill="#ffb6b6"/>
    <g id="Groupe_2469" data-name="Groupe 2469" transform="translate(10.021 19.977)">
      <path id="uuid-3dc7f3b0-930d-4ec2-8f7c-5a97dd96fd74" d="M781.7,48.6c-1.007-3.609-3.685-6.015-5.981-5.374s-3.342,4.086-2.335,7.7a9.377,9.377,0,0,0,2.111,3.893l4.458,15.238,7.106-2.244L781.91,53.025A9.376,9.376,0,0,0,781.7,48.6Z" transform="translate(-773.001 -43.122)" fill="#ffb6b6"/>
      <path id="Tracé_4605" data-name="Tracé 4605" d="M820.578,74.013,797.559,91.245,785.981,73.181l-7.644-.128s1.033,30.031,11.7,32.569S829.986,93.928,831,85.1s-10.422-11.09-10.422-11.09Z" transform="translate(-775.865 -59.187)" fill="#e6e6e6"/>
    </g>
    <g id="Groupe_2470" data-name="Groupe 2470" transform="translate(0 205.016)">
      <path id="Tracé_4606" data-name="Tracé 4606" d="M789.691,468.085h-6.62l-3.15-25.536h9.771Z" transform="translate(-766.694 -442.549)" fill="#ffb6b6"/>
      <path id="Tracé_4607" data-name="Tracé 4607" d="M751.684,488.694h0a5.687,5.687,0,0,0-.315,1.871h0a2.247,2.247,0,0,0,2.247,2.247h20.5a1.533,1.533,0,0,0,1.533-1.533v-.854a6.553,6.553,0,0,0-1.074-5.728s-2.6,2.476-6.473-1.4l-1.144-2.072-8.278,6.054-4.588.565c-1,.124-1.894-.019-2.41.85h0Z" transform="translate(-751.369 -463.308)" fill="#2f2e41"/>
    </g>
    <g id="Groupe_2471" data-name="Groupe 2471" transform="translate(20.728 205.016)">
      <path id="Tracé_4608" data-name="Tracé 4608" d="M834.435,468.085h-6.62l-3.149-25.536h9.771Z" transform="translate(-811.438 -442.549)" fill="#ffb6b6"/>
      <path id="Tracé_4609" data-name="Tracé 4609" d="M796.428,488.694h0a5.683,5.683,0,0,0-.315,1.871h0a2.247,2.247,0,0,0,2.247,2.247h20.5a1.533,1.533,0,0,0,1.533-1.533v-.854a6.554,6.554,0,0,0-1.074-5.728s-2.6,2.476-6.473-1.4l-1.144-2.072-8.278,6.054-4.588.565c-1,.124-1.894-.019-2.41.85h0Z" transform="translate(-796.113 -463.308)" fill="#2f2e41"/>
    </g>
    <path id="Tracé_4610" data-name="Tracé 4610" d="M776.339,213.61,770.311,230.6l4.223,97.483,10.748.768,8.061-72.149,1.152,74.836,11.9.768,8.739-113.389a9.669,9.669,0,0,0-5.728-11.9c-8.445-3.839-33.065,6.59-33.065,6.59Z" transform="translate(-761.536 -110.66)" fill="#2f2e41"/>
    <path id="Tracé_4611" data-name="Tracé 4611" d="M779.493,139.858l41.76,4.027S819.9,127.327,831.3,109.956s-4.343-38.271-4.343-38.271L811.482,70.6l-16.828,7.6-2.794,31.819-12.366,29.84Z" transform="translate(-766.464 -37.893)" fill="#e6e6e6"/>
    <path id="Tracé_4612" data-name="Tracé 4612" d="M837.257,29.449s7.6-14.114,2.171-20.086S830.471-2.308,823.957.949s-20.9,12.214-15.471,14.386A23.643,23.643,0,0,0,818.8,16.963s-.855,4.057,2.015,5.557a16.359,16.359,0,0,1,4.77,3.943s3.257-3.8,4.886-1.629,6.786,4.614,6.786,4.614Z" transform="translate(-781.382 0)" fill="#2f2e41"/>
    <path id="Tracé_4613" data-name="Tracé 4613" d="M772.762,56.891,757.019,66.12s-3.39,6.382,5.769,10.655l16.759-11.469,4.551,4.008,6.034-3.737L785.79,52.006l-4.886-3.8-4.343.543L773.3,46.577l-6.514,7.057,5.971,3.257Z" transform="translate(-754.073 -25)" fill="#2f2e41"/>
    <g id="Groupe_2472" data-name="Groupe 2472" transform="translate(14.057 30.08)">
      <path id="uuid-379f57e5-a8a0-4df7-80a8-31866b6f202a" d="M790.411,70.408c-1.007-3.609-3.685-6.015-5.981-5.374s-3.342,4.086-2.335,7.7a9.377,9.377,0,0,0,2.111,3.893l4.458,15.238,7.106-2.244-5.149-14.784a9.377,9.377,0,0,0-.209-4.425Z" transform="translate(-781.712 -64.93)" fill="#ffb6b6"/>
      <path id="Tracé_4614" data-name="Tracé 4614" d="M829.289,95.82,806.27,113.053,794.692,94.988l-7.644-.128s1.033,30.031,11.7,32.569,39.951-11.694,40.966-20.519-10.422-11.09-10.422-11.09Z" transform="translate(-784.576 -80.995)" fill="#e6e6e6"/>
    </g>
  </g>
  <path id="Tracé_4615" data-name="Tracé 4615" d="M117.953,295.018c0,1.713-4.161-32.309-4.161-32.309l-30.277,3.67A9.5,9.5,0,0,0,75.331,277.6l5.662,29.408a7.422,7.422,0,0,0,2.2,1.671V375.3h4.161V310.34a69.916,69.916,0,0,0,12.483,2.323V375.3H104V313.028a123.532,123.532,0,0,0,21.784-.386V375.3h4.161V312.074c1.26-.2,2.487-.433,3.672-.69V375.3h4.161V310.316a30.947,30.947,0,0,0,6-2.447c15.42-8.567-25.823-14.564-25.823-12.85Z" transform="translate(-40.34 -141.006)" fill="#e6e6e6"/>
  <path id="Tracé_4616" data-name="Tracé 4616" d="M228.536,466.677l5.128,5.127,7.08,3.663-.732,6.349-13.429-1.465-1.709-3.418.488-2.93-.977-4.639Z" transform="translate(-120.436 -250.483)" fill="#ffb6b6"/>
  <path id="Tracé_4617" data-name="Tracé 4617" d="M238.866,487.843l.419-5.387,14.475,6.852a2.65,2.65,0,0,1-2.37,3.662c-3.49.488-26.686.488-26.686-.733s-.634-7.471-.634-7.471l14.064,4.053Z" transform="translate(-120.267 -258.953)" fill="#2f2e41"/>
  <path id="Tracé_4618" data-name="Tracé 4618" d="M177.624,432.039l-3.708,6.231-1.809,7.764-6.333.852-1.883-13.377,2.893-2.5,2.96-.247L174,428.676Z" transform="translate(-87.967 -230.087)" fill="#ffb6b6"/>
  <path id="Tracé_4619" data-name="Tracé 4619" d="M163.389,447.15l5.324-.919-3.081,15.715a2.65,2.65,0,0,1-4.133-1.4c-1.332-3.263-7.037-25.746-5.854-26.046s7.085-2.453,7.085-2.453l-.469,14.628,1.127.47Z" transform="translate(-83.455 -231.899)" fill="#2f2e41"/>
  <path id="Tracé_4620" data-name="Tracé 4620" d="M157.967,184.249l-.734,14.931,11.749.245V186.58Z" transform="translate(-84.393 -98.894)" fill="#ffb6b6"/>
  <path id="Tracé_4621" data-name="Tracé 4621" d="M157.967,184.249l-.734,14.931,11.749.245V186.58Z" transform="translate(-84.393 -98.894)" opacity="0.1"/>
  <path id="Tracé_4622" data-name="Tracé 4622" d="M112.667,317.394s-5.385,13.952-1.469,19.581,22.274,8.812,22.274,8.812l7.588,7.1,20.071,38.673,11.749-2.692-16.644-39.652s-9.791-15.91-13.462-18.113-10.508-10.474-10.508-10.474l-19.6-3.233Z" transform="translate(-58.918 -170.357)" fill="#2f2e41"/>
  <path id="Tracé_4623" data-name="Tracé 4623" d="M164.057,320.036l7.54,5.34s26.727,7.143,18.161,23.788A118.725,118.725,0,0,1,168.462,377.8L157.2,371.437l18.113-25.456L143.5,326.645l20.56-6.609Z" transform="translate(-77.02 -171.776)" fill="#2f2e41"/>
  <path id="uuid-8b72ca2c-8770-47cf-940c-27f120eabdaa" d="M312.045,273.074c3.543.713,6.047,3.119,5.593,5.374s-3.694,3.5-7.238,2.791a9.045,9.045,0,0,1-3.895-1.755l-14.974-3.21,1.284-5.918,14.958,2.831a9.046,9.046,0,0,1,4.272-.112Z" transform="translate(-156.476 -145.11)" fill="#ffb6b6"/>
  <path id="Tracé_4624" data-name="Tracé 4624" d="M142.7,205.119H127.466l-11.2,7.588.979,29.862s2.047,7.5-4.9,14.441c-4.161,4.161-2.692,6.609-2.692,6.609l24.721,1.958,14.808-4.283L143.8,247.831l.979-4.161s10.035-7.1,8.322-14.441-3.916-22.518-3.916-22.518l-6.486-1.591Z" transform="translate(-58.72 -110.095)" fill="#98984b"/>
  <path id="Tracé_4625" data-name="Tracé 4625" d="M218.516,232.2,188.97,208.518s-5.752,1.563-5.008,6.985,13.858,19.138,13.858,19.138l22.545,10.229,25.814,1.319,1.063-7.549L218.516,232.2Z" transform="translate(-98.704 -111.919)" fill="#98984b"/>
  <circle id="Ellipse_809" data-name="Ellipse 809" cx="10.28" cy="10.28" r="10.28" transform="translate(70.27 71.771)" fill="#ffb6b6"/>
  <path id="Tracé_4626" data-name="Tracé 4626" d="M147.856,158.307s4.9-4.651,6.853-6.853,10.28,3.427,8.567-.734-4.161-5.14-4.161-5.14-4.406-8.812-12.973-3.672c0,0,0-5.385-6.853-3.182s-10.035,22.518-8.077,24.477,3.916,3.427,2.448,7.1,0,20.071,5.385,22.274,6.364,3.76,4.9,7.265-5.14,11.337,1.713,9.379-.49.49,2.448-5.874,10.035-9.3,4.406-14.931-5.385-17.378-6.609-18.6-3.529-11.416-3.529-11.416,4.019-2.535,5.487-.088Z" transform="translate(-70.12 -74.175)" fill="#2f2e41"/>
  <path id="Tracé_4627" data-name="Tracé 4627" d="M410.913,505.627H0V504.7H410.913a.463.463,0,0,1,.463.463h0A.463.463,0,0,1,410.913,505.627Z" transform="translate(0 -270.892)" fill="#3f3d56"/>
  <g id="Groupe_2474" data-name="Groupe 2474" transform="translate(92.394 78.415)">
    <path id="Tracé_4628" data-name="Tracé 4628" d="M306,326.3H213.43a11.121,11.121,0,0,1-11.108-11.109V183.256a11.121,11.121,0,0,1,11.108-11.109H306a11.121,11.121,0,0,1,11.108,11.109V315.186A11.121,11.121,0,0,1,306,326.3Z" transform="translate(-200.988 -170.813)" fill="#fff"/>
    <path id="Tracé_4629" data-name="Tracé 4629" d="M304.454,326.084h-92.57a12.456,12.456,0,0,1-12.442-12.443V181.711a12.457,12.457,0,0,1,12.442-12.443h92.57A12.457,12.457,0,0,1,316.9,181.711V313.641a12.456,12.456,0,0,1-12.442,12.442Zm-92.57-155.89a11.529,11.529,0,0,0-11.515,11.516V313.641a11.529,11.529,0,0,0,11.515,11.516h92.57a11.529,11.529,0,0,0,11.516-11.516V181.711a11.529,11.529,0,0,0-11.516-11.516h-92.57Z" transform="translate(-199.443 -169.268)" fill="#3f3d56"/>
    <path id="Tracé_4630" data-name="Tracé 4630" d="M243.365,269.069l72.364-2.188c5.026-.152,5.508-8.013.436-7.86L243.8,261.209c-5.026.152-5.508,8.014-.436,7.86Z" transform="translate(-221.098 -217.441)" fill="#98984b"/>
    <path id="Tracé_4631" data-name="Tracé 4631" d="M243.365,325.713l72.364-2.188c5.026-.152,5.508-8.013.436-7.86L243.8,317.853c-5.026.152-5.508,8.013-.436,7.86Z" transform="translate(-221.098 -247.844)" fill="#98984b"/>
    <path id="Tracé_4632" data-name="Tracé 4632" d="M243.365,382.357l72.364-2.188c5.026-.152,5.508-8.013.436-7.86L243.8,374.5c-5.026.152-5.508,8.013-.436,7.86Z" transform="translate(-221.098 -278.247)" fill="#98984b"/>
  </g>
  <path id="uuid-0373391a-705f-4801-95e2-9fea66d9d55f" d="M191.779,344.045c2.59,2.521,3.388,5.9,1.783,7.548s-5,.94-7.594-1.583a9.045,9.045,0,0,1-2.32-3.587L172.811,335.6l4.29-4.275,11.029,10.493a9.045,9.045,0,0,1,3.649,2.224Z" transform="translate(-92.754 -177.837)" fill="#ffb6b6"/>
  <path id="Tracé_4633" data-name="Tracé 4633" d="M135.075,257.539,124.06,221.313s-5.63-1.958-8.077,2.937.631,23.62.631,23.62l12.831,21.172,20.56,15.665,5.14-5.63Z" transform="translate(-61.745 -118.58)" fill="#98984b"/>
</svg>
