<svg width="55" height="62" viewBox="0 0 55 62" fill="none" xmlns="http://www.w3.org/2000/svg">
<path d="M27.082 0C25.996 0.0425441 24.929 0.301661 23.942 0.762516C22.955 1.22337 22.0674 1.87692 21.3301 2.68573C19.5179 4.6164 18.0879 6.88113 17.1175 9.3573C16.8236 10.0511 16.5467 10.7942 16.284 11.5469C15.5018 11.3991 14.7427 11.2691 13.9957 11.1788C12.6132 11.0015 11.219 10.9363 9.82627 10.9838C8.59738 11.031 7.3778 11.2199 6.19115 11.5469C5.13051 11.7895 4.12748 12.2415 3.23948 12.8772C2.35148 13.5129 1.59592 14.3197 1.01607 15.2515C0.509929 16.226 0.198398 17.2919 0.0993071 18.3885C0.000215885 19.485 0.115502 20.5905 0.438574 21.6419C1.18135 24.1927 2.40073 26.5754 4.03048 28.6604C4.47896 29.2673 4.96998 29.892 5.48398 30.5017C4.96931 31.1114 4.47828 31.7142 4.03048 32.3212C2.40046 34.406 1.18105 36.7887 0.438574 39.3397C0.0711441 40.3853 -0.0679537 41.4993 0.0308744 42.6047C0.129703 43.7101 0.464107 44.7806 1.01101 45.7423C1.55791 46.7041 2.30428 47.5342 3.19862 48.1753C4.09295 48.8164 5.11396 49.2533 6.19115 49.4558C8.74686 50.0757 11.3962 50.1935 13.9957 49.8027C14.742 49.7124 15.5012 49.6036 16.284 49.4558C16.5467 50.2085 16.8243 50.9283 17.1175 51.6222C18.0877 54.105 19.5176 56.3769 21.3301 58.3156C22.0402 59.1578 22.9222 59.834 23.9151 60.2976C24.908 60.7612 25.9883 61.0013 27.0816 61.0013C28.1749 61.0013 29.2553 60.7612 30.2482 60.2976C31.2411 59.834 32.123 59.1578 32.8332 58.3156C34.6455 56.3768 36.0754 54.1049 37.0458 51.6222C37.3396 50.9283 37.6165 50.2085 37.8793 49.4558C38.6614 49.6036 39.4206 49.7124 40.1676 49.8027C42.7671 50.1935 45.4164 50.0757 47.9721 49.4558C49.0493 49.2533 50.0703 48.8164 50.9646 48.1753C51.859 47.5342 52.6053 46.7041 53.1522 45.7423C53.6991 44.7806 54.0335 43.7101 54.1324 42.6047C54.2312 41.4993 54.0921 40.3853 53.7247 39.3397C52.9819 36.7888 51.7625 34.4062 50.1328 32.3212C49.6843 31.7142 49.1932 31.1114 48.6793 30.5017C49.1939 29.892 49.685 29.27 50.1328 28.6604C51.7629 26.5756 52.9823 24.1929 53.7247 21.6419C54.048 20.5906 54.1634 19.485 54.0643 18.3884C53.9652 17.2919 53.6535 16.2259 53.1472 15.2515C52.5673 14.3197 51.8117 13.5129 50.9237 12.8772C50.0357 12.2415 49.0327 11.7895 47.9721 11.5469C46.7854 11.2201 45.5658 11.0312 44.337 10.9838C42.9443 10.9365 41.5501 11.0017 40.1676 11.1788C39.4212 11.2691 38.6621 11.3998 37.8793 11.5469C37.6165 10.7942 37.3389 10.0532 37.0458 9.3573C36.0756 6.88098 34.6456 4.6162 32.8332 2.68573C32.096 1.87688 31.2085 1.2233 30.2217 0.76244C29.2348 0.301579 28.1678 0.0424847 27.082 0ZM27.082 2.77264C28.3511 2.77264 29.6134 3.36179 30.9096 4.65778C32.4619 6.33882 33.6878 8.30106 34.5231 10.4419C34.7527 10.9838 34.9743 11.5634 35.1863 12.1525C32.4145 12.8878 29.7044 13.844 27.0813 15.012C24.4581 13.8443 21.748 12.8881 18.9762 12.1525C19.1869 11.5634 19.4098 10.9831 19.6395 10.4419C20.4751 8.3012 21.7009 6.33902 23.253 4.65778C24.5491 3.36179 25.8115 2.77264 27.0806 2.77264H27.082ZM9.95325 13.7783C11.1953 13.7276 12.4394 13.7784 13.6735 13.9302C14.2557 13.9987 14.8561 14.1013 15.4694 14.2115C14.7059 17.0084 14.1623 19.8623 13.8437 22.7463C11.5325 24.4693 9.35899 26.3742 7.34342 28.4434C6.94897 27.9645 6.57817 27.4855 6.23168 27.0133C4.81104 25.2012 3.73778 23.1356 3.06733 20.9234C2.60804 19.1382 2.72961 17.7477 3.36653 16.6344C4.00346 15.5211 5.16046 14.6973 6.91588 14.208C7.90988 13.9492 8.92936 13.8039 9.95528 13.7749L9.95325 13.7783ZM42.4323 13.7783C43.053 13.7544 43.6386 13.7544 44.2066 13.7783C45.2325 13.8074 46.252 13.9527 47.246 14.2115C49.0021 14.7007 50.1604 15.5239 50.7953 16.6379C51.4302 17.7518 51.5545 19.1423 51.0946 20.9268C50.4238 23.1389 49.3506 25.2044 47.9302 27.0168C47.5844 27.4855 47.2129 27.9706 46.8185 28.4469C44.803 26.3775 42.6295 24.4726 40.3182 22.7497C39.9999 19.8657 39.4565 17.0119 38.6931 14.2149C39.3064 14.104 39.9089 14.0034 40.4891 13.9337C41.1605 13.8522 41.8143 13.8057 42.435 13.7817L42.4323 13.7783ZM18.1421 14.7965C20.0288 15.292 21.8851 15.8996 23.7015 16.616C22.5485 17.2037 21.3936 17.8032 20.2372 18.4792C19.0809 19.1553 17.9962 19.8669 16.9229 20.5806C17.2163 18.6301 17.6223 16.6988 18.1387 14.7965H18.1421ZM36.0178 14.7965C36.5341 16.6989 36.94 18.6302 37.2336 20.5806C36.1603 19.8676 35.0688 19.1518 33.9193 18.4792C32.7697 17.8066 31.608 17.2044 30.455 16.616C32.2713 15.8996 34.1277 15.292 36.0144 14.7965H36.0178ZM27.082 18.0454C28.8887 18.8802 30.7292 19.8128 32.5529 20.883C34.3765 21.9532 36.0928 23.098 37.7063 24.2626C37.8988 26.2757 38.0272 28.3511 38.0272 30.501C38.0272 32.651 37.9191 34.7366 37.728 36.7395C36.1105 37.9077 34.3855 39.0269 32.5529 40.0971C30.7232 41.1673 28.8853 42.1219 27.082 42.9567C25.2752 42.1219 23.4347 41.1673 21.611 40.0971C19.7874 39.0269 18.0536 37.9075 16.436 36.7395C16.2448 34.7359 16.1367 32.6421 16.1367 30.501C16.1367 28.36 16.2651 26.275 16.4576 24.2626C18.0705 23.0994 19.7847 21.9512 21.611 20.883C23.4374 19.8149 25.2786 18.8802 27.082 18.0454ZM27.082 25.6489C26.1347 25.6489 25.2087 25.9335 24.4211 26.4666C23.6335 26.9998 23.0196 27.7576 22.6571 28.6442C22.2946 29.5308 22.1998 30.5064 22.3846 31.4476C22.5694 32.3888 23.0255 33.2534 23.6953 33.932C24.3651 34.6106 25.2185 35.0727 26.1476 35.2599C27.0766 35.4471 28.0396 35.351 28.9148 34.9838C29.7899 34.6165 30.5379 33.9946 31.0642 33.1967C31.5905 32.3988 31.8714 31.4607 31.8714 30.501C31.8659 29.2159 31.3595 27.985 30.4625 27.0762C29.5655 26.1675 28.3505 25.6545 27.082 25.6489ZM13.5256 26.5152C13.4513 27.8249 13.3972 29.1441 13.3972 30.501C13.3972 31.8579 13.4519 33.1854 13.5256 34.4869C12.0025 33.2461 10.5532 31.9152 9.1853 30.501C10.5526 29.0872 12.0012 27.7565 13.5235 26.5159L13.5256 26.5152ZM40.6384 26.5152C42.1614 27.7559 43.6107 29.0869 44.9786 30.501C43.6101 31.9152 42.1601 33.2462 40.6363 34.4869C40.7099 33.1868 40.7647 31.8504 40.7647 30.501C40.7647 29.1517 40.7106 27.8249 40.6363 26.5159L40.6384 26.5152ZM27.082 28.4216C27.4879 28.4216 27.8848 28.5435 28.2223 28.772C28.5599 29.0005 28.823 29.3253 28.9783 29.7052C29.1337 30.0852 29.1743 30.5033 29.0951 30.9067C29.0159 31.3101 28.8204 31.6806 28.5334 31.9714C28.2463 32.2623 27.8806 32.4603 27.4824 32.5405C27.0842 32.6208 26.6715 32.5796 26.2965 32.4222C25.9214 32.2648 25.6008 31.9983 25.3753 31.6563C25.1497 31.3144 25.0293 30.9123 25.0293 30.501C25.0266 30.2272 25.0779 29.9555 25.1801 29.702C25.2823 29.4485 25.4334 29.2181 25.6245 29.0245C25.8157 28.8309 26.043 28.6778 26.2933 28.5743C26.5435 28.4707 26.8117 28.4188 27.082 28.4216ZM7.3468 32.5593C9.36297 34.6212 11.5365 36.5188 13.8471 38.2346C14.1586 41.1179 14.6948 43.9717 15.4505 46.7694C14.8426 46.8782 14.2516 46.9815 13.6762 47.0506C11.4273 47.3868 9.13603 47.2914 6.92195 46.7694C5.16585 46.2801 4.00751 45.4782 3.37261 44.3649C2.73772 43.2516 2.61343 41.8393 3.0734 40.054C3.74415 37.8419 4.81739 35.7764 6.23776 33.9641C6.58357 33.4954 6.95505 33.0321 7.3495 32.5559L7.3468 32.5593ZM46.8185 32.5593C47.2129 33.0383 47.5837 33.4988 47.9302 33.9675C49.3508 35.7797 50.4241 37.8452 51.0946 40.0574C51.5539 41.8427 51.4323 43.2543 50.7953 44.3683C50.1584 45.4823 49.0014 46.2842 47.246 46.7728C45.032 47.295 42.7407 47.3904 40.4918 47.054C39.9163 46.9856 39.3233 46.8816 38.7175 46.7728C39.4731 43.9751 40.0093 41.1213 40.3209 38.238C42.6315 36.5222 44.805 34.6245 46.8212 32.5627L46.8185 32.5593ZM16.904 40.4222C17.9847 41.1386 19.085 41.8263 20.2399 42.5016C21.3949 43.177 22.5512 43.8017 23.7042 44.3868C21.8879 45.1032 20.0315 45.7107 18.1448 46.2062C17.6196 44.3046 17.2055 42.3732 16.9047 40.4222H16.904ZM37.2599 40.4222C36.959 42.3732 36.5449 44.3045 36.0198 46.2062C34.1326 45.7108 32.2758 45.1032 30.4591 44.3868C31.612 43.799 32.767 43.1784 33.9233 42.5016C35.0796 41.8249 36.1812 41.1393 37.2592 40.4222H37.2599ZM27.082 45.99C29.7052 47.1578 32.4153 48.1139 35.187 48.8495C34.977 49.4353 34.7527 49.9991 34.5238 50.539C33.6882 52.6796 32.4623 54.6418 30.9102 56.3231C29.6141 57.6191 28.3518 58.2294 27.0826 58.2294C25.8135 58.2294 24.5512 57.6191 23.255 56.3231C21.7027 54.642 20.4768 52.6798 19.6415 50.539C19.4132 49.9991 19.189 49.4353 18.9782 48.8495C21.7501 48.1142 24.4602 47.1581 27.0833 45.99H27.082Z" fill="#98984B"/>
</svg>
