<svg width="68" height="68" viewBox="0 0 68 68" fill="none" xmlns="http://www.w3.org/2000/svg">
<g clip-path="url(#clip0_4_117)">
<path d="M61.601 0H6.39901C2.86493 0 0 2.86493 0 6.39901V61.601C0 65.1351 2.86493 68 6.39901 68H61.601C65.1351 68 68 65.1351 68 61.601V6.39901C68 2.86493 65.1351 0 61.601 0Z" fill="white"/>
<path d="M53.1663 49.4914C51.8213 48.5294 50.4808 47.556 49.1153 46.6236C48.9915 46.5591 48.8938 46.4536 48.8389 46.3252C48.7841 46.1968 48.7754 46.0533 48.8144 45.9192C49.2133 43.8675 49.0743 41.8158 48.6069 39.7641L53.0888 36.1737C51.7688 34.0171 50.4671 31.8947 49.1677 29.7701L43.9245 32.125C43.1696 31.467 42.3545 30.8816 41.4898 30.3765L37.3021 37.3614C38.6265 38.0742 39.6881 39.1922 40.3315 40.5517C40.975 41.9112 41.1665 43.4409 40.8782 44.917C40.5898 46.3932 39.8367 47.7384 38.7289 48.7558C37.6211 49.7732 36.2169 50.4095 34.7216 50.5715C33.2263 50.7336 31.7183 50.4129 30.4183 49.6564C29.1184 48.8999 28.0945 47.7473 27.4967 46.3671C26.8988 44.987 26.7582 43.4517 27.0955 41.986C27.4327 40.5202 28.2302 39.2008 29.3712 38.2208L25.1196 31.3043C24.6865 31.6257 24.2647 31.97 23.8567 32.3324C23.7678 32.3989 23.6651 32.4445 23.5561 32.4658C23.4472 32.4871 23.3349 32.4836 23.2275 32.4555C21.7024 31.897 20.1887 31.3043 18.6682 30.7093C18.4083 30.6067 18.2122 30.5041 18.023 30.8484C16.9128 32.9229 15.7889 34.9882 14.6354 37.1197C14.8155 37.2565 14.9797 37.391 15.1506 37.5141C16.14 38.2231 17.0906 38.9959 18.1324 39.6228C19.0443 40.1722 19.3224 40.7968 19.1036 41.8682C18.773 43.4845 19.0283 45.1236 19.3521 46.733C19.3895 46.8456 19.3873 46.9676 19.3458 47.0787C19.3043 47.1898 19.2261 47.2835 19.1241 47.344C18.4402 47.8934 17.7426 48.4519 17.0519 49.0059L14.9569 50.6769C16.2859 52.8539 17.5853 54.974 18.8688 57.0736C20.4964 56.3441 22.0831 55.6465 23.6561 54.9216C23.791 54.8432 23.9487 54.8134 24.103 54.837C24.2572 54.8607 24.3988 54.9364 24.5041 55.0515C25.9712 56.2859 27.6792 57.2012 29.5193 57.7392C29.6551 57.7663 29.7772 57.8398 29.8646 57.9472C29.9519 58.0545 29.9991 58.189 29.9981 58.3274C30.226 59.9505 30.4768 61.5736 30.7025 63.199C30.7412 63.4658 30.8347 63.5706 31.1128 63.5501C31.5574 63.525 32.0019 63.5501 32.4464 63.5296C34.2132 63.4749 35.9822 63.3882 37.7489 63.3768C38.2049 63.3768 38.2892 63.2446 38.3211 62.832C38.4488 61.275 38.6175 59.7226 38.777 58.1701C38.8067 57.9011 38.8523 57.6367 39.1919 57.5158C41.0769 56.8525 42.7995 55.7965 44.246 54.4178C44.3193 54.3662 44.4033 54.3321 44.4918 54.3179C44.5803 54.3036 44.6708 54.3097 44.7566 54.3357C46.325 54.9345 47.8881 55.5485 49.4459 56.1777C49.708 56.2825 49.8425 56.2848 49.9884 55.9953C50.3532 55.2544 50.7635 54.534 51.1579 53.8068C51.8577 52.5211 52.553 51.2354 53.2688 49.9588C53.4193 49.724 53.3441 49.61 53.1663 49.4914Z" fill="#98984B" stroke="#98984B" stroke-width="0.94" stroke-miterlimit="10"/>
<path d="M30.4996 22.6575V21.308C30.4926 20.7391 30.557 20.1716 30.6911 19.6188C30.8189 19.1141 31.0152 18.6294 31.2747 18.178C31.5571 17.695 31.897 17.248 32.2868 16.8467C32.7552 16.3652 33.2556 15.9158 33.7846 15.5017C34.2952 15.1005 34.7268 14.7418 35.0794 14.4257C35.4 14.1463 35.6876 13.8312 35.9366 13.4865C36.1497 13.1907 36.3108 12.8607 36.413 12.5108C36.5149 12.124 36.564 11.7253 36.5589 11.3254C36.5684 11.0058 36.5106 10.6879 36.3893 10.3922C36.2679 10.0964 36.0857 9.82952 35.8545 9.60877C35.3864 9.15284 34.6721 8.92487 33.7116 8.92487C32.7842 8.94529 31.8676 9.12815 31.0034 9.46515C29.9799 9.84204 28.9776 10.2743 28.0011 10.76L26.1409 6.72728C26.6936 6.40872 27.2628 6.11957 27.8461 5.86101C28.472 5.58459 29.1119 5.34109 29.7632 5.13152C30.4232 4.91999 31.0964 4.75245 31.7785 4.62999C32.4406 4.51128 33.1119 4.45026 33.7846 4.44762C34.92 4.43689 36.051 4.59045 37.1425 4.90355C38.0672 5.1646 38.9301 5.60881 39.6798 6.2098C40.3643 6.77106 40.9103 7.48247 41.2755 8.28885C41.6584 9.16927 41.848 10.1215 41.8318 11.0814C41.8403 11.7738 41.7544 12.464 41.5765 13.1331C41.408 13.727 41.1522 14.2924 40.8173 14.811C40.4582 15.3579 40.0358 15.8607 39.559 16.3087C39.0529 16.7874 38.4662 17.295 37.7991 17.8315C37.2861 18.2327 36.8712 18.5815 36.5475 18.8801C36.2651 19.1319 36.0113 19.414 35.7907 19.7213C35.6159 19.9725 35.4892 20.2538 35.4168 20.5511C35.3447 20.8843 35.311 21.2247 35.3165 21.5656V22.6598L30.4996 22.6575ZM29.8977 28.8993C29.8845 28.4045 29.9681 27.912 30.144 27.4494C30.2894 27.0787 30.5243 26.7497 30.8279 26.4919C31.129 26.2426 31.4805 26.0614 31.8583 25.9608C32.2715 25.8494 32.6978 25.7942 33.1257 25.7966C33.5364 25.7952 33.9453 25.8504 34.3408 25.9608C34.7117 26.065 35.0565 26.2459 35.353 26.4919C35.6544 26.7516 35.889 27.08 36.0369 27.4494C36.2193 27.9104 36.3061 28.4037 36.2922 28.8993C36.3061 29.38 36.2192 29.8584 36.0369 30.3035C35.8851 30.6693 35.6531 30.9962 35.3579 31.2602C35.0628 31.5242 34.712 31.7184 34.3317 31.8286C33.9373 31.9454 33.5279 32.0038 33.1166 32.0019C32.6881 32.0037 32.2615 31.9454 31.8491 31.8286C31.4691 31.7208 31.1174 31.531 30.8187 31.2724C30.5196 31.006 30.2857 30.6746 30.1348 30.3035C29.9621 29.8562 29.8814 29.3785 29.8977 28.8993V28.8993Z" fill="#98984B"/>
</g>
<defs>
<clipPath id="clip0_4_117">
<rect width="68" height="68" fill="white"/>
</clipPath>
</defs>
</svg>
