<svg width="89" height="89" viewBox="0 0 89 89" fill="none" xmlns="http://www.w3.org/2000/svg">
<g clip-path="url(#clip0_4_58)">
<path d="M78.3742 0H10.6258C4.75735 0 0 4.75735 0 10.6258V78.3742C0 84.2426 4.75735 89 10.6258 89H78.3742C84.2426 89 89 84.2426 89 78.3742V10.6258C89 4.75735 84.2426 0 78.3742 0Z" fill="white"/>
<path d="M67.234 64.6166C66.786 64.1243 66.3842 63.7163 66.0172 63.2778C65.9126 63.1146 65.7491 62.998 65.5608 62.952C65.3725 62.9061 65.1737 62.9343 65.0056 63.0309C64.0807 63.4017 63.1269 63.6958 62.1538 63.9103C61.8842 63.9311 61.6318 64.0509 61.4452 64.2467C61.2586 64.4425 61.1511 64.7004 61.1434 64.9708C60.9313 66.4137 60.9022 66.4137 59.4649 66.3178C58.7575 66.2705 58.0515 66.1792 57.3441 66.1496C56.8752 66.13 56.6105 65.9244 56.7105 65.4718C57.0373 63.9948 56.4192 63.1976 55.0062 62.8207C54.5264 62.6711 54.0886 62.4104 53.7284 62.0599C53.0929 61.4683 52.5979 61.5785 51.9635 62.0848C50.8933 62.9396 50.863 62.9014 50.0127 61.8463C49.5503 61.2725 49.1064 60.6832 48.6217 60.1295C48.2948 59.756 48.243 59.4099 48.6774 59.1448C49.8965 58.4056 50.0313 57.4602 49.3564 56.2665C49.1792 55.8839 49.0591 55.4774 49 55.0599C48.6713 53.5476 48.6808 53.4981 47.2045 53.3818C46.5186 53.3276 46.3391 53.0625 46.4152 52.4486C46.5345 51.4851 46.6001 50.5137 46.7637 49.559C46.7985 49.3567 47.1981 49.0287 47.3583 49.0666C48.8697 49.4173 49.6018 48.7348 49.9817 47.3385C50.1682 46.7869 50.4698 46.2813 50.8664 45.855C51.3 45.3441 51.2103 44.9745 50.855 44.4708C49.7768 42.9423 49.7116 43.3831 51.1928 42.1318C51.6549 41.7413 52.1536 41.3921 52.5941 40.9797C53.0486 40.554 53.3724 40.626 53.7772 41.0661C54.8888 42.2738 54.8967 42.2428 56.4211 41.699C57.057 41.4512 57.7189 41.2765 58.3943 41.1782C59.0343 41.1051 59.2108 40.7946 59.3085 40.2314C59.5872 38.6268 59.6069 38.6297 61.226 38.7774C61.3566 38.7896 61.4854 38.8191 61.6153 38.8396C62.2591 38.9388 63.1279 38.8252 63.487 39.1994C63.8301 39.5569 63.6006 40.4295 63.7123 41.0604C63.7858 41.3428 63.9654 41.5859 64.2137 41.7391C65.1825 42.3113 66.1732 42.8507 67.1784 43.3562C67.4253 43.4455 67.6952 43.4486 67.9441 43.3649C68.1579 43.2639 68.3541 43.1294 68.5255 42.9665C69.6075 42.1951 69.6037 42.1989 70.4013 43.2256C70.8694 43.8285 71.3432 44.4277 71.8333 45.0128C72.1173 45.3536 72.212 45.7077 71.8003 45.9493C70.446 46.7473 70.4426 47.7498 71.1606 49.003C71.4131 49.5253 71.5519 50.0952 71.5678 50.6751C71.6174 51.2947 71.8806 51.584 72.4767 51.6275C72.738 51.6464 72.9993 51.7207 73.2584 51.7184C73.9632 51.7123 74.1673 51.9957 74.034 52.7073C73.8982 53.5378 73.824 54.3772 73.8121 55.2186C73.7913 55.8117 73.5754 56.1563 72.9615 56.0397C71.7174 55.8037 70.9542 56.1892 70.5785 57.4788C70.3204 58.1693 69.9481 58.8116 69.4772 59.3789C69.3364 59.5302 69.2601 59.7303 69.2643 59.937C69.2685 60.1436 69.3531 60.3405 69.4999 60.4859C70.5202 61.922 70.5043 61.9364 69.1034 63.0896C68.5012 63.5941 67.8919 64.0834 67.234 64.6166ZM53.0921 52.552C53.0813 53.4912 53.2556 54.4234 53.6051 55.2952C53.9546 56.167 54.4723 56.9615 55.1289 57.6332C55.7854 58.3049 56.5678 58.8407 57.4314 59.21C58.295 59.5793 59.2229 59.7749 60.1621 59.7856H60.1799C64.0838 59.8011 67.47 56.5165 67.4261 52.6486C67.3795 48.5989 64.4466 45.3495 60.1996 45.357C59.2547 45.3424 58.3166 45.5192 57.4418 45.8768C56.567 46.2344 55.7737 46.7653 55.1096 47.4377C54.4455 48.1101 53.9244 48.91 53.5777 49.7891C53.231 50.6682 53.0658 51.6085 53.0921 52.5531V52.552Z" fill="#98984B"/>
<path d="M31.239 44.1561C31.0152 44.8723 31.442 45.2445 32.1858 45.5395C32.9385 45.8511 33.6544 46.2449 34.3207 46.7136C34.4756 46.849 34.6755 46.9217 34.8812 46.9175C35.087 46.9133 35.2837 46.8325 35.433 46.6909C36.7559 45.7778 36.7669 45.7941 37.8118 47.0893C38.0432 47.376 38.27 47.6661 38.5037 47.9513C39.2441 48.8542 39.2767 48.8917 38.3583 49.6556C37.7144 50.1911 37.5607 50.6652 37.9625 51.4549C38.2962 52.1692 38.5181 52.9306 38.6203 53.7124C38.6212 53.9443 38.7119 54.1668 38.8735 54.333C39.035 54.4993 39.2548 54.5964 39.4865 54.6039C41.0608 54.8797 41.0434 54.9069 40.8181 56.5021C40.7423 57.0475 40.7563 57.6049 40.7098 58.1552C40.6719 58.6097 40.4859 58.9203 39.947 58.776C39.9214 58.77 39.8953 58.7663 39.869 58.765C38.3495 58.6317 38.37 58.6408 37.7383 60.0314C37.4724 60.6322 37.1413 61.202 36.751 61.7304C36.5763 61.9052 36.4781 62.142 36.4777 62.3891C36.4773 62.6362 36.5749 62.8735 36.7491 63.0488C37.6448 64.2739 37.6201 64.2966 36.4533 65.2665C36.0488 65.6032 35.5962 65.8873 35.2255 66.2558C34.7661 66.7121 34.3889 66.7345 33.992 66.2088C33.8655 66.041 33.6935 65.9059 33.5754 65.7347C33.2247 65.2211 32.8289 65.1507 32.2332 65.3832C31.3839 65.7258 30.5022 65.9816 29.6014 66.1467C28.7554 66.2906 28.8523 66.9291 28.7553 67.4487C28.5452 68.5781 28.5736 68.5701 27.4522 68.4247C26.7235 68.3304 25.9907 68.2467 25.2556 68.219C24.6148 68.194 24.5008 67.8707 24.6178 67.337C24.6515 67.1829 24.6674 67.0254 24.6966 66.8705C24.8318 66.1426 24.583 65.7259 23.8395 65.4574C23.0779 65.1664 22.3589 64.7742 21.702 64.2913C21.5253 64.1199 21.2888 64.024 21.0426 64.024C20.7965 64.024 20.56 64.1199 20.3833 64.2913C19.0199 65.3177 19.2933 65.3385 18.1662 63.9603C17.7996 63.5123 17.4577 63.0431 17.0736 62.6113C16.7006 62.1947 16.7778 61.8648 17.1963 61.5585C17.2178 61.543 17.2384 61.5264 17.2581 61.5088C18.47 60.3825 18.4321 60.8824 17.8091 59.1736C17.5762 58.5058 17.4046 57.8183 17.2963 57.1195C17.2111 56.6165 17.0036 56.3525 16.4862 56.3593C16.3545 56.3615 16.2228 56.3547 16.092 56.3389C14.9017 56.1897 14.9001 56.1768 15.0399 54.9755C15.1217 54.2722 15.2035 53.5659 15.2292 52.8592C15.2467 52.3396 15.4781 52.1115 15.9621 52.1986C17.1861 52.4187 17.9337 52.0245 18.256 50.744C18.4619 50.1452 18.785 49.5932 19.2062 49.1204C19.359 48.9594 19.4425 48.7449 19.4388 48.523C19.435 48.3011 19.3443 48.0895 19.1862 47.9338C18.2655 46.6606 18.2772 46.6522 19.499 45.6498C19.6416 45.5336 19.785 45.4175 19.9292 45.3014C21.2665 44.2337 21.2506 44.252 22.5378 45.3946C22.6766 45.4875 22.8328 45.5513 22.9969 45.5818C23.1611 45.6123 23.3298 45.6091 23.4926 45.5722C24.4345 45.3544 25.3434 44.9919 26.2891 44.8011C26.5119 44.7884 26.7206 44.6882 26.8696 44.5221C27.0187 44.356 27.0959 44.1377 27.0844 43.9149C27.0954 43.7308 27.0909 43.5445 27.1166 43.3631C27.2503 42.4163 27.4003 42.3231 28.3638 42.4826C28.9309 42.5937 29.5055 42.663 30.0828 42.6901C31.4295 42.7082 31.2458 42.7651 31.239 44.1561ZM34.6911 55.4723C34.7279 53.709 34.0628 52.0032 32.8419 50.7303C31.6211 49.4573 29.9446 48.7214 28.1812 48.6845C28.1055 48.683 28.0287 48.683 27.9509 48.6845C26.153 48.6834 24.4283 49.3965 23.1561 50.6671C21.884 51.9377 21.1687 53.6615 21.1676 55.4595C21.1665 57.2574 21.8797 58.9822 23.1503 60.2543C24.4208 61.5264 26.1447 62.2417 27.9426 62.2428C29.7171 62.258 31.425 61.5677 32.6906 60.3237C33.9562 59.0797 34.6758 57.384 34.6911 55.6095C34.6915 55.5659 34.6915 55.5182 34.6911 55.4723Z" fill="#98984B"/>
<path d="M45.9699 23.4074L48.1479 26.0982C47.7563 26.3997 47.3885 26.7309 47.0477 27.0889C46.9646 27.2025 46.9055 27.3319 46.8739 27.469C46.8423 27.6062 46.8389 27.7484 46.864 27.8869C47.0803 28.7761 47.3511 29.6533 47.6472 30.5206C47.7428 30.7407 47.921 30.9145 48.1434 31.0046C48.4701 31.1056 48.8084 31.1641 49.15 31.1788C49.5571 31.2167 49.6802 31.3954 49.6139 31.8086C49.4845 32.506 49.4085 33.2124 49.3867 33.9215C49.3822 34.5774 49.0746 34.8282 48.5157 34.6744C47.5189 34.4006 47.089 34.8733 46.8216 35.7349C46.7172 36.1182 46.5274 36.473 46.2664 36.7726C45.523 37.5402 45.6343 38.2196 46.338 38.9157C46.4766 39.0835 46.6013 39.2622 46.711 39.4501C45.9331 40.0871 45.1874 40.7396 44.3864 41.316C44.2535 41.3497 44.1141 41.3489 43.9815 41.3136C43.849 41.2784 43.7276 41.2099 43.629 41.1146C42.9935 40.1677 42.2656 40.181 41.3494 40.684C40.9144 40.8672 40.4536 40.9823 39.9834 41.0249C39.4456 41.1245 39.1123 41.2982 39.051 41.9591C38.9411 43.1403 38.8817 43.1418 37.6876 43.06C37.1634 43.0244 36.6408 42.9609 36.1189 42.8999C35.6167 42.8416 35.3955 42.6291 35.4895 42.0542C35.6849 40.8585 35.6409 40.8767 34.5302 40.3799C33.9524 40.1252 33.4031 39.8104 32.8914 39.4406C32.813 39.3649 32.7202 39.3056 32.6185 39.2661C32.5169 39.2266 32.4084 39.2077 32.2994 39.2106C32.1904 39.2135 32.083 39.2381 31.9836 39.2829C31.8842 39.3277 31.7947 39.3919 31.7204 39.4717C30.7444 40.2318 30.7251 40.2076 29.9446 39.2823C29.8594 39.1827 29.7738 39.0816 29.6939 38.977C29.3575 38.5392 28.777 38.106 28.7633 37.6583C28.7512 37.2652 29.3996 36.8695 29.7101 36.4408C29.8336 36.2568 29.8804 36.032 29.8408 35.814C29.611 34.9018 29.3515 33.9967 29.0621 33.0989C28.9681 32.9025 28.8103 32.7438 28.6145 32.6486C28.4206 32.568 28.2154 32.5177 28.0063 32.4993C26.9932 32.302 26.9254 32.2063 27.0833 31.2057C27.183 30.6907 27.2564 30.1709 27.3033 29.6484C27.3329 29.1072 27.5662 28.8629 28.0937 28.9636C29.0538 29.1461 29.6166 28.8057 29.879 27.832C30.0304 27.3268 30.2835 26.8579 30.6229 26.4542C30.7191 26.3673 30.796 26.2612 30.8485 26.1426C30.901 26.024 30.928 25.8958 30.9276 25.7661C30.9273 25.6364 30.8997 25.5083 30.8466 25.39C30.7935 25.2717 30.7161 25.1659 30.6195 25.0795C29.8885 24.1736 29.9226 24.1504 30.8141 23.4407C31.2466 23.0968 31.6912 22.7632 32.0919 22.3852C32.4328 22.0648 32.721 22.0064 32.9929 22.4192C33.5682 23.2903 34.2393 23.5108 35.2156 22.9745C35.7493 22.6814 36.4416 22.6904 37.0206 22.4594C37.1557 22.384 37.2741 22.2822 37.3688 22.1599C37.4635 22.0376 37.5325 21.8974 37.5717 21.7478C37.8951 20.5101 37.8747 20.5037 39.1244 20.5908C39.2816 20.6018 39.4392 20.6158 39.5948 20.6407C40.0803 20.7165 40.7439 20.6408 41.0006 20.9275C41.2574 21.2142 41.0805 21.8743 41.162 22.3564C41.2066 22.5963 41.3423 22.8097 41.5407 22.9517C42.3519 23.4337 43.1813 23.8841 44.0289 24.3027C44.1383 24.3465 44.2556 24.3671 44.3734 24.3634C44.4912 24.3596 44.6069 24.3314 44.7133 24.2807C45.1483 24.0136 45.5679 23.7221 45.9699 23.4074ZM38.3064 37.6693C39.8695 37.6842 41.3745 37.0775 42.4903 35.9827C43.606 34.888 44.2413 33.3948 44.2561 31.8317C44.2561 31.8188 44.2561 31.806 44.2561 31.7939C44.2429 28.6342 41.5191 25.8358 38.3651 25.8808C36.8005 25.8771 35.2984 26.4951 34.1894 27.5988C33.0803 28.7025 32.4551 30.2016 32.4513 31.7662V31.8112C32.445 32.5742 32.589 33.331 32.8751 34.0383C33.1612 34.7456 33.5838 35.3896 34.1188 35.9336C34.6539 36.4775 35.2908 36.9108 35.9932 37.2086C36.6957 37.5064 37.4499 37.663 38.2129 37.6693H38.306H38.3064Z" fill="#98984B"/>
</g>
<defs>
<clipPath id="clip0_4_58">
<rect width="89" height="89" fill="white"/>
</clipPath>
</defs>
</svg>
