<svg width="87" height="87" viewBox="0 0 87 87" fill="none" xmlns="http://www.w3.org/2000/svg">
<g clip-path="url(#clip0_4_46)">
<path d="M76.6193 0H10.3807C4.64762 0 0 4.64762 0 10.3807V76.6193C0 82.3524 4.64762 87 10.3807 87H76.6193C82.3524 87 87 82.3524 87 76.6193V10.3807C87 4.64762 82.3524 0 76.6193 0Z" fill="white"/>
<path d="M46.9525 45.6665C46.7646 45.4611 46.597 45.2898 46.4434 45.1063C46.3997 45.038 46.3313 44.9891 46.2524 44.9699C46.1736 44.9507 46.0904 44.9626 46.0201 45.0031C45.6333 45.1588 45.2344 45.2825 44.8273 45.3731C44.7144 45.3816 44.6087 45.4318 44.5307 45.5138C44.4526 45.5958 44.4078 45.7038 44.4048 45.817C44.3156 46.4205 44.3038 46.4209 43.7018 46.3806C43.4058 46.3606 43.1098 46.3224 42.8138 46.3102C42.6174 46.3021 42.5067 46.2159 42.5493 46.0265C42.6862 45.409 42.4265 45.0753 41.8371 44.9165C41.6364 44.8536 41.4533 44.7442 41.3028 44.5972C41.0368 44.3497 40.8296 44.396 40.5628 44.608C40.1151 44.9654 40.1022 44.9495 39.7466 44.5081C39.5531 44.2676 39.3674 44.0215 39.1646 43.7895C39.0278 43.6337 39.0059 43.4888 39.1876 43.3785C39.6978 43.0692 39.754 42.6755 39.4714 42.1752C39.3977 42.0151 39.3478 41.8451 39.3234 41.6706C39.1857 41.0379 39.1898 41.0172 38.5723 40.9676C38.2856 40.9451 38.2104 40.8341 38.2423 40.5773C38.2915 40.174 38.3196 39.767 38.388 39.3682C38.4025 39.2838 38.5697 39.1461 38.6367 39.1613C39.269 39.3093 39.575 39.0226 39.7341 38.4384C39.8123 38.208 39.9384 37.9966 40.104 37.8183C40.1803 37.7443 40.224 37.6431 40.2256 37.5368C40.2272 37.4306 40.1865 37.3281 40.1126 37.2519L40.0996 37.2393C39.6486 36.6007 39.6212 36.7846 40.2409 36.261C40.4341 36.0979 40.6431 35.9517 40.827 35.78C41.0172 35.6021 41.1526 35.6321 41.322 35.8171C41.7867 36.3221 41.7904 36.308 42.4272 36.0819C42.6932 35.9783 42.9701 35.9052 43.2526 35.864C43.5201 35.8333 43.5941 35.7035 43.6348 35.4674C43.7514 34.7962 43.7603 34.7973 44.437 34.8591C44.4914 34.8639 44.5454 34.8765 44.5998 34.8851C44.8699 34.9269 45.2324 34.8791 45.3827 35.0356C45.5262 35.1836 45.4319 35.5513 45.477 35.8125C45.5079 35.9306 45.583 36.0322 45.6868 36.0964C46.0925 36.3361 46.5059 36.5618 46.927 36.7735C47.03 36.8105 47.1425 36.8118 47.2463 36.7772C47.3356 36.7347 47.4176 36.6783 47.4894 36.6102C47.9419 36.2876 47.9404 36.2892 48.2752 36.7187C48.4717 36.9711 48.6682 37.2215 48.8742 37.4665C48.993 37.6085 49.0322 37.7573 48.8605 37.8594C48.2941 38.1924 48.2926 38.6123 48.593 39.1362C48.6987 39.3547 48.7569 39.5932 48.7636 39.8358C48.7847 40.0948 48.8946 40.2166 49.1443 40.2343C49.2553 40.2421 49.3622 40.2713 49.4714 40.2713C49.7674 40.2687 49.851 40.3871 49.7959 40.685C49.7391 41.0324 49.708 41.3834 49.703 41.7353C49.6941 41.9836 49.605 42.1282 49.3471 42.079C49.242 42.0418 49.1301 42.0285 49.0192 42.0397C48.9084 42.051 48.8014 42.0867 48.706 42.1443C48.6106 42.202 48.5292 42.28 48.4677 42.3729C48.4061 42.4657 48.3659 42.5712 48.35 42.6814C48.2425 42.9705 48.0869 43.2393 47.8897 43.4765C47.8309 43.5398 47.799 43.6235 47.8007 43.7098C47.8024 43.7962 47.8377 43.8785 47.8989 43.9394C48.3259 44.5402 48.3192 44.5462 47.7332 45.0286C47.4827 45.2377 47.2278 45.4422 46.9525 45.6665ZM41.0364 40.6195C41.0274 41.4129 41.3339 42.1773 41.8885 42.7448C42.4431 43.3122 43.2004 43.6361 43.9937 43.6452H44.0015C44.7969 43.6431 45.5597 43.3294 46.1264 42.7712C46.693 42.2131 47.0183 41.455 47.0324 40.6598C47.0427 40.2587 46.9718 39.8597 46.8238 39.4868C46.6759 39.1138 46.454 38.7747 46.1716 38.4897C45.8891 38.2048 45.552 37.9799 45.1804 37.8287C44.8088 37.6774 44.4104 37.6029 44.0093 37.6096C43.2326 37.5976 42.4829 37.8945 41.9252 38.4352C41.3675 38.9758 41.0474 39.7159 41.0353 40.4926C41.0353 40.5351 41.0353 40.5773 41.0368 40.6191L41.0364 40.6195Z" fill="#98984B"/>
<path d="M34.0307 37.1068C33.9375 37.4061 34.1158 37.5619 34.4273 37.6855C34.7421 37.816 35.0415 37.9807 35.3201 38.1768C35.3851 38.2338 35.469 38.2645 35.5554 38.2627C35.6418 38.2609 35.7245 38.2268 35.787 38.1672C36.342 37.7854 36.3446 37.792 36.7819 38.3337C36.8788 38.4535 36.9736 38.5749 37.0712 38.694C37.3809 39.0718 37.3946 39.0869 37.0102 39.4062C36.9507 39.4409 36.8987 39.487 36.857 39.5418C36.8153 39.5966 36.7849 39.6591 36.7673 39.7257C36.7498 39.7923 36.7456 39.8617 36.7549 39.9299C36.7642 39.9981 36.7868 40.0638 36.8215 40.1233C36.8285 40.1355 36.8363 40.1477 36.8444 40.1603C36.9844 40.4589 37.0773 40.7775 37.1197 41.1045C37.12 41.2015 37.158 41.2946 37.2255 41.3642C37.2931 41.4338 37.385 41.4746 37.4819 41.4778C38.1405 41.5929 38.1331 41.6036 38.0391 42.2718C38.0069 42.4997 38.0147 42.7328 37.9936 42.9629C37.9774 43.1535 37.9004 43.2822 37.6743 43.2219C37.6636 43.2195 37.6527 43.218 37.6418 43.2175C37.0061 43.1616 37.0146 43.1657 36.7505 43.7474C36.6393 43.9987 36.5008 44.237 36.3376 44.4581C36.2646 44.5313 36.2236 44.6304 36.2236 44.7338C36.2236 44.8372 36.2646 44.9365 36.3376 45.0097C36.7127 45.5221 36.7024 45.5314 36.2147 45.9377C36.0456 46.0783 35.8562 46.1966 35.7012 46.3513C35.5088 46.5422 35.3512 46.5518 35.1854 46.3317C35.1325 46.2617 35.0604 46.2055 35.0112 46.1334C34.9852 46.0871 34.9503 46.0464 34.9086 46.0136C34.8669 45.9808 34.8191 45.9566 34.768 45.9423C34.7169 45.9279 34.6635 45.9238 34.6108 45.9302C34.5582 45.9365 34.5072 45.9531 34.461 45.9791L34.4495 45.9861C34.0944 46.1295 33.7256 46.2365 33.3488 46.3054C32.9951 46.3657 33.0354 46.6329 32.9951 46.8501C32.907 47.3225 32.9189 47.3195 32.4501 47.257C32.1452 47.2178 31.8385 47.183 31.5318 47.1712C31.2636 47.1612 31.2158 47.0258 31.265 46.8012C31.2791 46.7365 31.2858 46.6706 31.2983 46.6058C31.3345 46.4888 31.3227 46.3621 31.2656 46.2537C31.2084 46.1453 31.1105 46.0641 30.9935 46.0279C30.9758 46.0225 30.9579 46.0182 30.9398 46.015C30.6212 45.8932 30.3204 45.729 30.0456 45.5269C29.9716 45.4552 29.8726 45.4152 29.7695 45.4152C29.6665 45.4152 29.5675 45.4552 29.4935 45.5269C28.9234 45.9565 29.0377 45.965 28.5663 45.3885C28.4132 45.201 28.2704 45.0049 28.109 44.8236C28.0737 44.7963 28.0461 44.7604 28.0288 44.7192C28.0115 44.6781 28.0051 44.6331 28.0103 44.5888C28.0155 44.5444 28.032 44.5022 28.0583 44.4661C28.0846 44.43 28.1198 44.4014 28.1605 44.3829C28.169 44.3765 28.1771 44.3696 28.1849 44.3622C28.6914 43.8909 28.6759 44.1003 28.4154 43.3855C28.318 43.1061 28.2462 42.8184 28.2008 42.526C28.1638 42.3155 28.078 42.2052 27.8619 42.2078C27.8069 42.2087 27.7519 42.206 27.6972 42.1997C27.1992 42.1371 27.1985 42.1316 27.2573 41.6284C27.2914 41.3324 27.3258 41.039 27.3358 40.7441C27.3432 40.5269 27.4397 40.4315 27.6421 40.4678C27.7453 40.5038 27.8553 40.516 27.9639 40.5035C28.0725 40.491 28.1769 40.4541 28.2692 40.3955C28.3615 40.337 28.4394 40.2583 28.497 40.1655C28.5546 40.0726 28.5905 39.9679 28.6019 39.8591C28.688 39.6085 28.8232 39.3775 28.9996 39.1798C29.0635 39.1125 29.0984 39.0228 29.0968 38.93C29.0952 38.8372 29.0572 38.7488 28.9911 38.6837C28.6059 38.1509 28.6104 38.1476 29.1221 37.728C29.1816 37.6788 29.2416 37.6303 29.3019 37.5826C29.8613 37.136 29.8546 37.1434 30.3933 37.6196C30.4514 37.6585 30.5168 37.6851 30.5855 37.6978C30.6542 37.7106 30.7248 37.7091 30.7929 37.6936C31.1859 37.6026 31.5673 37.4509 31.9625 37.3706C32.0557 37.3656 32.1431 37.3239 32.2055 37.2545C32.2679 37.1851 32.3003 37.0938 32.2955 37.0006C32.3003 36.9236 32.298 36.8459 32.3088 36.7697C32.3646 36.3738 32.4275 36.3346 32.8304 36.3997C33.0677 36.4461 33.3079 36.4751 33.5493 36.4867C34.1121 36.5011 34.0337 36.5252 34.0307 37.1068ZM35.4736 41.8408C35.4813 41.4755 35.4169 41.1123 35.2842 40.7719C35.1515 40.4315 34.9531 40.1207 34.7002 39.857C34.4473 39.5933 34.145 39.382 33.8105 39.2352C33.476 39.0883 33.1158 39.0088 32.7505 39.0011C32.7183 39.0011 32.6862 39.0011 32.654 39.0011C32.2912 38.9927 31.9303 39.0558 31.5919 39.1869C31.2535 39.318 30.9442 39.5144 30.6817 39.765C30.4192 40.0156 30.2087 40.3155 30.0621 40.6474C29.9154 40.9794 29.8357 41.337 29.8273 41.6998C29.8273 41.7454 29.8273 41.7913 29.8273 41.8374C29.8191 42.2018 29.8829 42.5642 30.0148 42.9039C30.1468 43.2436 30.3443 43.5539 30.5962 43.8173C30.8482 44.0806 31.1495 44.2918 31.483 44.4386C31.8165 44.5855 32.1757 44.6653 32.54 44.6734C32.577 44.6734 32.614 44.6734 32.651 44.6734C33.3932 44.6795 34.1075 44.3906 34.6368 43.8703C35.1661 43.3499 35.4671 42.6407 35.4736 41.8985C35.4736 41.8796 35.4736 41.8615 35.4736 41.8422V41.8408Z" fill="#98984B"/>
<path d="M39.4884 28.4269L40.3993 29.5524C40.2357 29.6788 40.0818 29.8172 39.939 29.9667C39.9045 30.0142 39.8799 30.0682 39.8667 30.1254C39.8535 30.1826 39.8521 30.242 39.8624 30.2998C39.9527 30.6697 40.0659 31.0397 40.1898 31.4016C40.2298 31.4937 40.3043 31.5663 40.3974 31.6039C40.534 31.6466 40.6755 31.6714 40.8185 31.6779C40.9887 31.6946 41.0404 31.769 41.0123 31.9418C40.9583 32.2336 40.9267 32.529 40.9176 32.8256C40.9158 33.1002 40.787 33.2049 40.5535 33.1409C40.1362 33.0258 39.9564 33.2237 39.8446 33.5848C39.801 33.7452 39.7216 33.8936 39.6123 34.0189C39.5434 34.0727 39.4882 34.142 39.4512 34.2212C39.4142 34.3004 39.3964 34.3873 39.3993 34.4747C39.4022 34.5621 39.4258 34.6476 39.468 34.7242C39.5102 34.8007 39.5699 34.8662 39.6423 34.9153C39.7 34.985 39.7521 35.0593 39.798 35.1373C39.4724 35.4037 39.1594 35.6775 38.8257 35.9176C38.7701 35.9316 38.7118 35.9313 38.6564 35.9165C38.601 35.9017 38.5502 35.8731 38.509 35.8332C38.243 35.4366 37.9381 35.443 37.5555 35.6531C37.3735 35.7296 37.1809 35.7778 36.9843 35.7959C36.7593 35.8377 36.6198 35.9102 36.5943 36.187C36.5484 36.6813 36.5233 36.6817 36.0245 36.6476C35.8055 36.6325 35.5868 36.6058 35.3685 36.5802C35.1584 36.5558 35.0659 36.4671 35.1051 36.227C35.1869 35.7267 35.1684 35.7345 34.7037 35.5266C34.4621 35.42 34.2324 35.2883 34.0185 35.1336C33.9528 35.0704 33.8647 35.0359 33.7735 35.0375C33.6824 35.0392 33.5956 35.0769 33.5323 35.1425L33.5286 35.1465C33.1216 35.4644 33.1112 35.4544 32.7857 35.0678C32.7487 35.0256 32.7143 34.9838 32.6806 34.9401C32.54 34.757 32.2973 34.5764 32.2917 34.3889C32.2865 34.2246 32.5577 34.0588 32.6872 33.8798C32.7387 33.8028 32.7582 33.7089 32.7416 33.6178C32.6457 33.2357 32.5373 32.8571 32.4164 32.4819C32.3771 32.3998 32.3111 32.3334 32.2292 32.2936C32.1481 32.2595 32.0622 32.2382 31.9746 32.2304C31.551 32.1482 31.5225 32.1074 31.5887 31.6901C31.6304 31.4746 31.6611 31.2572 31.6809 31.0386C31.6931 30.8118 31.7919 30.7104 32.0113 30.7522C32.0817 30.7763 32.1562 30.7863 32.2306 30.7817C32.3049 30.777 32.3775 30.7577 32.4444 30.7249C32.5113 30.6922 32.571 30.6465 32.6202 30.5906C32.6695 30.5347 32.7072 30.4697 32.7313 30.3992C32.7444 30.3602 32.7533 30.3199 32.7579 30.279C32.8213 30.0676 32.9272 29.8715 33.0691 29.7026C33.1068 29.6685 33.1374 29.6273 33.1592 29.5814C33.181 29.5354 33.1935 29.4856 33.1961 29.4349C33.1986 29.3841 33.1911 29.3333 33.174 29.2854C33.1569 29.2375 33.1306 29.1934 33.0964 29.1557C33.0872 29.1458 33.0776 29.1361 33.0676 29.1268C32.762 28.7483 32.7757 28.7383 33.149 28.4412C33.3295 28.2977 33.5156 28.1579 33.6836 27.9992C33.8257 27.8652 33.9467 27.8407 34.0606 28.0135C34.1286 28.1615 34.2525 28.2764 34.4052 28.3329C34.5578 28.3895 34.7267 28.3831 34.8746 28.3151C34.9157 28.2965 34.9545 28.2733 34.9904 28.2459C35.2376 28.1595 35.4896 28.0876 35.7452 28.0306C35.8017 27.999 35.8512 27.9563 35.8908 27.9051C35.9304 27.854 35.9593 27.7954 35.9757 27.7328C36.1107 27.2148 36.1015 27.2125 36.6254 27.2488C36.6912 27.2532 36.7571 27.2591 36.8218 27.2695C37.0253 27.3017 37.3028 27.2696 37.4112 27.3894C37.5196 27.5093 37.4445 27.7846 37.4786 27.9873C37.4973 28.0874 37.5537 28.1763 37.6362 28.2359C37.9755 28.4376 38.3236 28.6263 38.6773 28.8006C38.7231 28.8188 38.7722 28.8274 38.8215 28.8258C38.8708 28.8242 38.9192 28.8124 38.9637 28.7913C39.1454 28.6799 39.3205 28.5582 39.4884 28.4269ZM36.2828 34.3929C36.6066 34.3961 36.9278 34.3354 37.2281 34.2143C37.5285 34.0933 37.802 33.9143 38.0332 33.6875C38.2643 33.4608 38.4486 33.1907 38.5753 32.8927C38.7021 32.5948 38.769 32.2748 38.7721 31.951V31.9351C38.7613 31.284 38.4985 30.6625 38.039 30.2012C37.5794 29.7399 36.9589 29.4746 36.3079 29.4613C35.6535 29.4598 35.0252 29.7182 34.5613 30.1798C34.0974 30.6414 33.8359 31.2684 33.8342 31.9229V31.9418C33.8317 32.261 33.892 32.5777 34.0119 32.8736C34.1317 33.1695 34.3087 33.439 34.5327 33.6665C34.7566 33.894 35.0232 34.0752 35.3172 34.1997C35.6112 34.3242 35.9269 34.3897 36.2461 34.3922H36.2832L36.2828 34.3929Z" fill="#98984B"/>
<path fill-rule="evenodd" clip-rule="evenodd" d="M69.5558 63.0803L57.6522 51.1763C57.5889 51.1134 57.5153 51.0694 57.4494 51.0109C59.6842 47.6145 60.9581 43.6766 61.1359 39.6148C61.3138 35.553 60.389 31.5187 58.4597 27.9399C56.5304 24.3611 53.6684 21.3712 50.1774 19.2873C46.6864 17.2034 42.6965 16.1032 38.6308 16.1033C35.1199 16.103 31.6576 16.9234 28.5201 18.4989C25.3825 20.0744 22.6567 22.3615 20.5601 25.1776C18.4635 27.9937 17.0541 31.2608 16.4445 34.7183C15.8348 38.1758 16.0418 41.7281 17.0488 45.0914C18.0558 48.4548 19.835 51.5361 22.2445 54.0897C24.6539 56.6433 27.6269 58.5984 30.9261 59.7989C34.2254 60.9994 37.7596 61.4121 41.2466 61.0041C44.7337 60.5962 48.0772 59.3787 51.0102 57.4491C51.069 57.5153 51.1127 57.5889 51.177 57.6522L63.0807 69.5559C63.9393 70.4143 65.1038 70.8965 66.318 70.8965C67.5323 70.8965 68.6968 70.4143 69.5554 69.5559C70.4139 68.6972 70.8962 67.5327 70.8962 66.3185C70.8962 65.1043 70.4139 63.9398 69.5554 63.0811L69.5558 63.0803ZM38.6308 53.3497C36.698 53.3497 34.7841 52.9689 32.9984 52.2292C31.2128 51.4896 29.5903 50.4055 28.2236 49.0388C26.8569 47.6721 25.7729 46.0495 25.0332 44.2638C24.2936 42.4781 23.913 40.5643 23.913 38.6315C23.9129 36.6987 24.2935 34.7849 25.0331 32.9992C25.7727 31.2135 26.8567 29.5909 28.2234 28.2242C29.59 26.8574 31.2125 25.7732 32.9981 25.0335C34.7837 24.2938 36.6976 23.9131 38.6304 23.9131C42.5338 23.9132 46.2773 25.4637 49.0374 28.2238C51.7976 30.9839 53.3483 34.7273 53.3485 38.6307C53.3486 40.5635 52.9679 42.4774 52.2283 44.2631C51.4887 46.0488 50.4046 47.6713 49.0379 49.038C47.6712 50.4047 46.0488 51.4888 44.2631 52.2285C42.4774 52.9682 40.5636 53.3488 38.6308 53.3488V53.3497Z" fill="#98984B"/>
</g>
<defs>
<clipPath id="clip0_4_46">
<rect width="87" height="87" fill="white"/>
</clipPath>
</defs>
</svg>
