<svg width="62" height="62" viewBox="0 0 62 62" fill="none" xmlns="http://www.w3.org/2000/svg">
<g clip-path="url(#clip0_4_16)">
<path d="M55.7374 0H6.26263C2.80387 0 0 2.80387 0 6.26263V55.7374C0 59.1961 2.80387 62 6.26263 62H55.7374C59.1961 62 62 59.1961 62 55.7374V6.26263C62 2.80387 59.1961 0 55.7374 0Z" fill="white"/>
<path d="M35.3204 41.0272C35.0502 40.8962 34.7812 40.7696 34.5097 40.6349C33.2514 40.0226 31.9891 39.4013 30.7308 38.7957C30.5005 38.6842 30.2492 38.6086 29.9906 38.5101C30.0548 38.1725 30.035 37.8243 29.933 37.4961C29.831 37.168 29.6499 36.8699 29.4057 36.6282C29.8415 36.6775 30.2817 36.5888 30.6644 36.3746C30.7071 36.3503 30.8324 36.4128 30.8875 36.4667C31.5514 37.1299 32.2026 37.7988 32.8621 38.465L35.2331 40.8729C35.2785 40.9132 35.3092 40.9675 35.3204 41.0272V41.0272Z" fill="#98984B"/>
<path d="M28.0634 33.6078C27.9607 33.8583 27.8586 34.0919 27.7447 34.3592C27.6306 34.2071 27.5198 34.0624 27.4121 33.9159C27.3045 33.7693 27.2003 33.6278 27.0864 33.4775L27.5167 33.1073C27.7096 33.2846 27.89 33.4528 28.0634 33.6078Z" fill="#98984B"/>
<path d="M30.0544 35.6043C29.8732 35.6901 29.6695 35.7167 29.4723 35.6804C29.2751 35.6441 29.0943 35.5467 28.9555 35.402C28.8249 35.2673 28.7374 35.0968 28.7041 34.9122C28.6708 34.7276 28.6932 34.5373 28.7684 34.3655C29.1908 34.7689 29.6123 35.179 30.0544 35.6043Z" fill="#98984B"/>
<path d="M31.5642 31.2391C31.5518 31.2574 31.538 31.2699 31.526 31.2882C31.4734 31.2418 31.4171 31.2036 31.367 31.1585C30.4981 30.365 29.6293 29.5665 28.7605 28.763C28.3975 28.3357 27.9175 28.0239 27.3795 27.8661C27.6807 27.6433 27.9368 27.4535 28.208 27.2563C29.3379 28.5952 30.4501 29.9172 31.5642 31.2391Z" fill="#98984B"/>
<path d="M26.9395 32.3902C26.6652 32.6222 26.3756 32.8354 26.0727 33.0286C25.8599 33.1289 25.6178 33.1483 25.3916 33.0833C25.1654 33.0183 24.9706 32.8732 24.8435 32.6752C24.7132 32.4906 24.6499 32.267 24.6641 32.0415C24.6783 31.816 24.7692 31.6021 24.9217 31.4353C25.0896 31.2599 25.275 31.1028 25.4153 30.9731C25.9185 31.4385 26.4076 31.8939 26.9395 32.3902Z" fill="#98984B"/>
<path d="M30.1032 9.56875C28.3057 10.8175 26.4947 12.0486 24.6828 13.2793C24.3315 13.5149 23.9014 13.6023 23.486 13.5227C23.0706 13.4431 22.7033 13.2028 22.464 12.8541C22.2287 12.504 22.1386 12.0762 22.2124 11.661C22.2863 11.2457 22.5184 10.8753 22.8599 10.6278C22.905 10.5945 22.9474 10.5654 23.0054 10.5213C21.8668 10.6884 20.7541 11.0001 19.6943 11.4488C19.4502 11.5422 19.2123 11.6512 18.9822 11.7751C18.6966 11.8998 18.4187 12.0337 18.1485 12.17L18.1674 12.1844C20.0183 13.7373 22.0813 15.0181 24.2941 15.9881C25.6718 16.6514 27.0272 17.3483 28.3942 18.0271C28.4508 18.0542 28.5034 18.0847 28.5979 18.1363C28.5082 18.1986 28.4443 18.2452 28.3793 18.2909C26.3598 19.5872 24.3428 20.8833 22.3282 22.1792C22.0436 22.3579 21.817 22.6153 21.6759 22.9202C21.5348 23.2252 21.4852 23.5646 21.5332 23.8971C21.5812 24.2297 21.7247 24.5412 21.9463 24.7938C22.1679 25.0464 22.4581 25.2292 22.7816 25.3201C23.0212 25.3917 23.2736 25.4094 23.5209 25.3722C23.7682 25.3349 24.0041 25.2436 24.212 25.1046C24.2232 25.1189 24.2353 25.1353 24.2476 25.1497C23.7048 25.5809 23.1604 26.0114 22.6144 26.4411C22.4602 26.5658 22.3012 26.6822 22.1466 26.8035C21.7393 27.1209 21.4734 27.5859 21.4066 28.0978C21.3398 28.6098 21.4774 29.1275 21.7896 29.5387C22.1018 29.9499 22.5634 30.2216 23.0745 30.2948C23.5856 30.368 24.105 30.2369 24.5201 29.9299C24.6841 29.8052 24.8433 29.6863 25.0212 29.5543C25.0661 29.6662 25.0721 29.79 25.0381 29.9057C25.0042 30.0214 24.9324 30.1224 24.8341 30.1924C24.5688 30.393 24.3281 30.6242 24.117 30.8812C23.8687 31.1986 23.7252 31.5853 23.7066 31.9879C23.688 32.3904 23.7951 32.7888 24.0131 33.1277C24.2287 33.4628 24.5413 33.7243 24.9093 33.8773C25.2772 34.0304 25.6831 34.0677 26.0727 33.9843C26.2012 33.9587 26.2852 33.9562 26.3723 34.0751C27.2037 35.2025 28.0299 36.3297 28.8665 37.4571C28.9534 37.5643 29.0179 37.6879 29.0562 37.8206C29.0945 37.9532 29.1058 38.0922 29.0895 38.2293C29.0898 38.3455 29.0554 38.4592 28.9908 38.5559C28.9262 38.6526 28.8343 38.7279 28.7268 38.7722C28.6557 38.8043 28.5895 38.8463 28.5302 38.8969C28.3674 39.0445 28.1527 39.1214 27.9332 39.1108C27.7137 39.1001 27.5074 39.0027 27.3598 38.8399C27.3292 38.8065 27.3014 38.7707 27.2766 38.7329C26.9008 38.282 26.5533 37.8148 26.1868 37.355C24.5329 35.283 22.8762 33.2145 21.2168 31.1496C20.951 30.8344 20.6671 30.5349 20.3665 30.2527C20.0963 29.9916 19.913 29.9825 19.7045 30.1643C19.6064 30.2504 19.5465 30.372 19.538 30.5022C19.5294 30.6325 19.5729 30.7608 19.659 30.859L19.6646 30.8652C20.9367 32.8724 22.2082 34.8764 23.4791 36.8774C23.6589 37.1684 23.8466 37.4523 24.0208 37.7404C24.0808 37.8278 24.1229 37.9262 24.1449 38.03C24.1668 38.1337 24.1681 38.2408 24.1486 38.345C24.1292 38.4492 24.0893 38.5486 24.0315 38.6375C23.9736 38.7263 23.8988 38.8029 23.8113 38.8628C23.8005 38.8701 23.7905 38.8771 23.7784 38.8836C23.6909 38.9384 23.5934 38.9754 23.4916 38.9925C23.3897 39.0096 23.2855 39.0065 23.1849 38.9833C23.0843 38.9602 22.9892 38.9174 22.9051 38.8575C22.821 38.7976 22.7495 38.7217 22.6947 38.6342C22.6866 38.6213 22.6791 38.6084 22.6718 38.5951C20.6145 35.3933 18.5574 32.1919 16.5007 28.9908C14.6247 26.0706 12.7471 23.1509 10.8678 20.2318C10.809 20.1525 10.7803 20.0548 10.787 19.9562C10.6216 20.3521 10.4872 20.7603 10.385 21.177C10.2395 21.661 10.1004 22.0915 9.98425 22.528C9.63484 23.8392 9.45777 25.1903 9.45754 26.5473C9.4858 26.9729 9.34458 27.3925 9.06467 27.7145C8.78476 28.0364 8.38889 28.2346 7.96341 28.2658C7.53793 28.297 7.11738 28.1587 6.7935 27.881C6.46962 27.6033 6.2687 27.2089 6.23456 26.7836C6.23062 26.7293 6.22935 26.6749 6.23081 26.6206C6.22057 22.7729 7.36076 19.0099 9.50493 15.815C10.8348 13.8018 12.5238 12.0506 14.4876 10.649C14.6677 10.5218 14.8504 10.3984 15.0355 10.279C16.2498 9.47895 17.5473 8.81284 18.9051 8.29232C20.2584 7.77474 21.6661 7.41214 23.101 7.21148C23.1513 7.20275 23.2027 7.19319 23.3216 7.16763C23.0514 7.03917 22.8435 6.93462 22.6327 6.83693C22.2418 6.66554 21.935 6.34588 21.7798 5.94826C21.6245 5.55065 21.6336 5.10765 21.805 4.71672C21.9764 4.32579 22.296 4.01896 22.6936 3.86372C23.0913 3.70848 23.5342 3.71755 23.9252 3.88894C23.9505 3.89996 23.9757 3.91181 24.0004 3.92428C25.9628 4.85823 27.9222 5.7976 29.8785 6.74236C30.1473 6.85684 30.3796 7.0427 30.5503 7.27981C30.721 7.51692 30.8236 7.79622 30.8468 8.08745C30.8701 8.37868 30.8132 8.67072 30.6823 8.93191C30.5514 9.19311 30.3515 9.41348 30.1043 9.56916L30.1032 9.56875Z" fill="#98984B"/>
<path d="M56.093 22.0076C55.7909 22.0034 55.4941 22.0881 55.2397 22.2511C54.9852 22.414 54.7842 22.6482 54.6616 22.9244C54.5502 23.1449 54.4467 23.3677 54.3384 23.5908C54.2716 23.3852 54.224 23.1739 54.1962 22.9595C54.1604 22.7427 54.1247 22.5243 54.0823 22.3112C53.9421 21.6333 53.7671 20.963 53.5581 20.3029C52.752 17.7611 51.4399 15.4087 49.7009 13.3872C47.9619 11.3658 45.8318 9.71704 43.4389 8.54031C41.7025 7.67265 39.8384 7.08847 37.9173 6.80992C36.8567 6.66703 35.7885 6.58763 34.7184 6.57214C34.5149 6.5758 34.3141 6.6195 34.1275 6.70076C33.9409 6.78202 33.7721 6.89925 33.6308 7.04575C33.4895 7.19225 33.3784 7.36514 33.304 7.55457C33.2295 7.744 33.1931 7.94624 33.1968 8.14975C33.1968 8.16659 33.1967 8.18342 33.1984 8.20026C33.2046 8.61435 33.3728 9.00954 33.6669 9.30115C33.9609 9.59277 34.3575 9.75763 34.7716 9.76041C36.3498 9.76661 37.9193 9.99429 39.4342 10.4368C39.7109 10.5199 39.9796 10.617 40.2976 10.7149C40.6203 10.8024 40.938 10.9069 41.2496 11.0279C39.011 12.4812 36.7677 13.9324 34.5197 15.3816C30.6549 17.8817 26.7888 20.3815 22.9215 22.8812C22.8251 22.9284 22.739 22.9942 22.6682 23.0749C22.5973 23.1555 22.5431 23.2494 22.5087 23.351C22.4743 23.4527 22.4603 23.5602 22.4675 23.6673C22.4748 23.7744 22.5032 23.879 22.551 23.975C22.5988 24.0711 22.6652 24.1568 22.7463 24.2272C22.8273 24.2975 22.9215 24.3511 23.0234 24.3849C23.1252 24.4188 23.2328 24.4321 23.3398 24.4242C23.4469 24.4163 23.5513 24.3873 23.6471 24.3388C23.6962 24.3145 23.7427 24.2852 23.7857 24.2513C25.7318 23.0115 27.6774 21.7699 29.6225 20.5264C29.9983 20.2909 30.3741 20.0448 30.7574 19.8118C30.8536 19.7442 30.9721 19.7159 31.0886 19.7328C31.205 19.7497 31.3106 19.8104 31.3836 19.9026C31.5516 20.0986 31.5613 20.2395 31.3591 20.4788C31.1454 20.7377 30.9098 20.9776 30.6547 21.1959C28.9845 22.5677 27.3078 23.9353 25.6246 25.2985C24.6804 26.0582 23.7197 26.8015 22.7696 27.5581C22.66 27.6378 22.5672 27.7384 22.4964 27.854C22.4257 27.9696 22.3784 28.098 22.3573 28.2319C22.3362 28.3658 22.3417 28.5025 22.3734 28.6343C22.4052 28.766 22.4625 28.8903 22.5423 28.9998C22.622 29.1094 22.7226 29.2023 22.8382 29.273C22.9538 29.3437 23.0822 29.391 23.2161 29.4121C23.35 29.4332 23.4867 29.4277 23.6185 29.396C23.7502 29.3643 23.8745 29.3069 23.9841 29.2271C24.0019 29.2143 24.0194 29.2005 24.0364 29.1856C24.9408 28.5167 25.8427 27.8403 26.7437 27.1694C27.0613 26.9301 27.3825 26.6978 27.692 26.4675C27.4851 25.9989 27.4438 25.474 27.5747 24.9788C27.6735 24.6393 27.8623 24.3328 28.1211 24.0919C28.38 23.851 28.6992 23.6846 29.0449 23.6104C29.3906 23.5362 29.75 23.5569 30.0849 23.6704C30.4198 23.7838 30.7177 23.9858 30.9472 24.2549C31.5952 24.968 32.2358 25.6951 32.8825 26.4199C33.1762 26.7491 33.4755 27.0754 33.7704 27.4049C33.7584 27.3264 33.7265 27.2522 33.6777 27.1896C32.9889 26.2501 32.292 25.3108 31.611 24.3663C31.3042 23.9501 31.1727 23.4303 31.2447 22.9183C31.3168 22.4063 31.5866 21.9429 31.9964 21.6276C32.4062 21.3124 32.9233 21.1703 33.4366 21.2318C33.95 21.2934 34.4187 21.5538 34.7423 21.957C34.9252 22.1857 35.105 22.4206 35.2865 22.6527C35.6745 23.1469 36.0631 23.6416 36.4522 24.137C36.4624 24.0812 36.4514 24.0236 36.4214 23.9755C36.1967 23.5763 36.1351 23.1056 36.2496 22.662C36.3641 22.2184 36.6458 21.8362 37.0356 21.5956C37.4287 21.357 37.8998 21.2824 38.3474 21.3879C38.795 21.4933 39.1833 21.7703 39.4286 22.1593C40.2068 23.3835 40.9853 24.6052 41.764 25.8242C42.3689 26.7693 42.9696 27.7136 43.5844 28.6792C43.6083 28.6538 43.6306 28.6269 43.6509 28.5986C44.3655 27.1675 45.0914 25.7383 45.78 24.2923C46.7053 22.2034 47.9093 20.2495 49.3592 18.4838C49.4839 18.7569 49.6012 19.0387 49.7111 19.3292C49.967 19.8022 50.1768 20.2989 50.3374 20.8122C50.6495 21.6096 50.8546 22.4448 50.9474 23.296C50.9192 23.2659 50.8931 23.2339 50.8693 23.2002C50.7504 23.0251 50.5983 22.8752 50.4215 22.7589C50.2447 22.6426 50.0467 22.5623 49.8389 22.5225C49.6311 22.4827 49.4175 22.4843 49.2102 22.527C49.003 22.5698 48.8062 22.653 48.6311 22.7718C48.456 22.8907 48.306 23.0428 48.1898 23.2196C48.0735 23.3964 47.9932 23.5944 47.9534 23.8022C47.9136 24.01 47.9151 24.2237 47.9579 24.4309C48.0007 24.6381 48.0839 24.8349 48.2027 25.01C48.2162 25.0308 48.2302 25.0497 48.2443 25.0688C49.4552 26.8346 50.6642 28.6018 51.8711 30.3703C52.0272 30.6308 52.253 30.8425 52.523 30.9814C52.7931 31.1203 53.0966 31.1809 53.3992 31.1564C53.7019 31.1319 53.9917 31.0233 54.2359 30.8427C54.4801 30.6622 54.6689 30.417 54.7811 30.1348C55.1681 29.3086 55.5691 28.4888 55.9611 27.6653C56.504 26.5332 57.0531 25.4109 57.5773 24.2736C57.6926 24.0277 57.7431 23.7565 57.724 23.4856C57.7049 23.2147 57.6168 22.9533 57.4681 22.726C57.3194 22.4988 57.115 22.3135 56.8745 22.1875C56.6339 22.0616 56.3651 21.9993 56.0937 22.0065L56.093 22.0076ZM53.3752 25.4145C53.3762 25.3986 53.3762 25.3827 53.3752 25.3669V25.3386C53.3762 25.3497 53.3762 25.3608 53.3752 25.3719V25.4145Z" fill="#98984B"/>
<path d="M54.9158 34.7664C54.9317 36.97 54.5682 39.1598 53.8411 41.24V41.24C53.5711 42.0125 53.2489 42.7658 52.8767 43.4946C51.726 45.8306 50.119 47.9123 48.1506 49.6171C46.1822 51.3218 43.8922 52.615 41.4159 53.4202C40.3033 53.7969 39.156 54.0615 37.9909 54.2101C37.9628 54.2176 37.936 54.2259 37.8389 54.2483C38.1143 54.388 38.3455 54.4944 38.5685 54.611C38.8476 54.7469 39.0813 54.9609 39.2413 55.2269C39.4013 55.4928 39.4808 55.7995 39.4701 56.1097C39.4595 56.42 39.3591 56.7205 39.1812 56.9748C39.0033 57.2292 38.7554 57.4266 38.4677 57.543C38.2604 57.634 38.0354 57.6774 37.8092 57.6702C37.5829 57.6631 37.3612 57.6054 37.1601 57.5014C35.1924 56.5628 33.2262 55.62 31.2614 54.6732C30.9961 54.5567 30.7674 54.3704 30.5996 54.1342C30.4317 53.898 30.3311 53.6207 30.3084 53.3319C30.2857 53.043 30.3418 52.7534 30.4707 52.4939C30.5995 52.2344 30.7964 52.0147 31.0403 51.8582C32.8236 50.6277 34.6112 49.4035 36.4029 48.1856C36.7439 47.9365 37.1693 47.8316 37.5871 47.8937C38.0049 47.9557 38.3815 48.1797 38.6355 48.5172C38.8895 48.8546 39.0004 49.2785 38.9443 49.6972C38.8883 50.1158 38.6697 50.4955 38.3359 50.7543C38.2993 50.782 38.2615 50.808 38.2224 50.8322C38.2056 50.8466 38.19 50.863 38.1698 50.8798C38.6539 50.9488 41.2492 50.1559 42.1209 49.6668C42.4437 49.5324 42.7592 49.3811 43.066 49.2135C41.3699 47.8014 39.4906 46.625 37.4793 45.7163C34.7588 44.4013 32.0544 43.046 29.3423 41.7083C29.2056 41.6567 29.0804 41.5786 28.9739 41.4786C28.8674 41.3785 28.7817 41.2585 28.7216 41.1253C28.6615 40.9921 28.6282 40.8484 28.6236 40.7023C28.6191 40.5563 28.6433 40.4108 28.695 40.2741C28.6998 40.2616 28.7046 40.2494 28.7098 40.2371C28.7829 40.1195 28.8792 40.0179 28.9927 39.9384C29.0758 39.8696 29.2005 39.8395 29.2708 39.763C29.3975 39.6319 29.5672 39.5508 29.7488 39.5346C29.9305 39.5184 30.1119 39.5682 30.2598 39.6749C31.2317 40.1332 32.1974 40.6086 33.1593 41.0777C34.0793 41.5235 34.9911 41.9744 35.9148 42.4079C36.0848 42.4943 36.2803 42.5163 36.4652 42.4698C36.6502 42.4233 36.8121 42.3115 36.921 42.155C37.0299 41.9985 37.0785 41.8078 37.0579 41.6183C37.0372 41.4287 36.9487 41.253 36.8086 41.1236C35.1387 39.4386 33.471 37.7556 31.8055 36.0746C29.9648 34.2203 28.1242 32.3624 26.2837 30.5008C26.134 30.362 26.0321 30.1792 25.9927 29.9788C25.9533 29.7784 25.9784 29.5707 26.0644 29.3855C26.1429 29.2005 26.2763 29.0441 26.4466 28.9374C26.6168 28.8307 26.8157 28.7788 27.0164 28.7888C27.1559 28.7901 27.2936 28.8199 27.4211 28.8763C27.5486 28.9327 27.6633 29.0146 27.758 29.117C29.0731 30.3275 30.3826 31.5488 31.7104 32.7442C32.7619 33.6916 33.8396 34.6118 34.9044 35.538C35.0668 35.6648 35.2375 35.7807 35.4154 35.8849C35.4989 35.9482 35.6036 35.9771 35.7078 35.9655C35.812 35.9539 35.9077 35.9027 35.9753 35.8225C36.0492 35.7607 36.0956 35.6721 36.1041 35.5761C36.1127 35.4802 36.0828 35.3847 36.021 35.3108L36.0185 35.3077C35.7419 34.8636 35.4414 34.4348 35.1185 34.0231C33.272 31.806 31.4172 29.5966 29.5543 27.3949C29.2531 27.0372 28.9468 26.6853 28.6425 26.3238C28.5519 26.2251 28.4817 26.1096 28.4359 25.9837C28.3901 25.8579 28.3695 25.7243 28.3754 25.5905C28.3813 25.4567 28.4135 25.3253 28.4702 25.204C28.5269 25.0827 28.607 24.9737 28.7058 24.8834C28.7156 24.8745 28.7256 24.8657 28.7356 24.8572C28.9453 24.6765 29.2183 24.5864 29.4944 24.6069C29.7706 24.6274 30.0272 24.7568 30.208 24.9665C30.2147 24.9744 30.2215 24.9825 30.2288 24.9906C32.2955 27.2627 34.3478 29.5379 36.4228 31.7962C36.952 32.3686 37.5338 32.8878 38.1044 33.4152C38.254 33.5607 38.4413 33.6656 38.6591 33.4933C38.7485 33.4493 38.8169 33.3717 38.849 33.2773C38.8812 33.183 38.8746 33.0797 38.8306 32.9903C38.8179 32.9647 38.8024 32.9406 38.7844 32.9184C38.5442 32.4633 38.2752 32.0241 37.979 31.6033C36.5386 29.6181 35.0788 27.6441 33.6253 25.6714C33.2152 25.1139 32.7939 24.5623 32.3842 24.0073C32.2937 23.9054 32.2241 23.7867 32.1795 23.658C32.1348 23.5292 32.116 23.3929 32.124 23.2569C32.1321 23.1209 32.1668 22.9878 32.2263 22.8651C32.2858 22.7425 32.3688 22.6328 32.4707 22.5423C32.4915 22.5243 32.5122 22.507 32.533 22.4906C32.7613 22.3244 33.0463 22.2558 33.3252 22.2997C33.6042 22.3436 33.8542 22.4966 34.0204 22.7248C34.0296 22.7375 34.0385 22.7504 34.0473 22.7637C35.9947 25.2035 37.9476 27.6388 39.906 30.0695C40.2426 30.4727 40.6041 30.8545 40.9881 31.2127C41.0275 31.2704 41.0812 31.3168 41.1441 31.3473C41.2069 31.3778 41.2766 31.3913 41.3463 31.3865C41.416 31.3817 41.4831 31.3587 41.5412 31.3199C41.5992 31.2811 41.6461 31.2277 41.6771 31.1651C41.7325 31.0815 41.7598 30.9824 41.7552 30.8822C41.7505 30.782 41.7142 30.6859 41.6514 30.6077C40.821 29.3001 39.9875 27.9987 39.1571 26.6911C38.5211 25.6963 37.8844 24.6993 37.247 23.7001C37.1826 23.6128 37.1363 23.5134 37.1108 23.4079C37.0853 23.3024 37.0812 23.1929 37.0987 23.0858C37.1161 22.9787 37.1548 22.8762 37.2125 22.7843C37.2701 22.6923 37.3456 22.6129 37.4344 22.5505C37.5232 22.4882 37.6236 22.4442 37.7296 22.4212C37.8357 22.3982 37.9453 22.3966 38.052 22.4166C38.1586 22.4365 38.2602 22.4776 38.3508 22.5374C38.4413 22.5972 38.519 22.6745 38.5793 22.7647C38.5957 22.788 38.6109 22.8121 38.6246 22.8371C40.1112 25.1373 41.5988 27.4349 43.0874 29.7297C45.5185 33.4873 47.95 37.2449 50.382 41.0024C50.4063 41.0383 50.4285 41.0755 50.4486 41.1138C50.565 40.8347 50.6741 40.5503 50.7766 40.2523C50.9636 39.5784 51.1524 38.9703 51.2962 38.3552C51.5677 37.1727 51.7031 35.9631 51.6996 34.7498C51.7057 34.3266 51.8785 33.9229 52.1804 33.6263C52.4824 33.3297 52.8891 33.1642 53.3123 33.1657C53.7355 33.1672 54.1411 33.3357 54.4409 33.6344C54.7407 33.9331 54.9106 34.338 54.9137 34.7612V34.7612L54.9158 34.7664Z" fill="#98984B"/>
<path d="M20.1657 50.3076C20.1384 50.3248 20.1087 50.3377 20.0774 50.3459C20.429 50.4796 20.7962 50.6013 21.179 50.7111C21.6174 50.8418 22.0105 50.9746 22.4102 51.0823C23.7853 51.4669 25.2078 51.6554 26.6356 51.6422C26.9057 51.6375 27.1727 51.6997 27.4128 51.8235C27.6528 51.9472 27.8585 52.1286 28.0113 52.3513C28.164 52.574 28.2592 52.8312 28.2882 53.0997C28.3172 53.3682 28.2792 53.6398 28.1775 53.89C28.0462 54.1778 27.8358 54.4225 27.5709 54.5954C27.3059 54.7684 26.9973 54.8625 26.6809 54.8669C25.3399 54.8656 24.0024 54.7297 22.6885 54.4612C19.3795 53.7739 16.3032 52.2462 13.7559 50.0253C11.2085 47.8043 9.2759 44.9649 8.14414 41.7804C7.71077 40.572 7.40352 39.3221 7.2273 38.0505C7.21712 37.9796 7.19902 37.9108 7.1747 37.7686C7.03502 38.0505 6.92424 38.2785 6.812 38.5038C6.63469 38.891 6.31082 39.1919 5.91165 39.3404C5.51247 39.4888 5.07069 39.4725 4.68348 39.2952C4.29627 39.1179 3.99536 38.794 3.84694 38.3949C3.69852 37.9957 3.71477 37.5539 3.89208 37.1667C3.90039 37.1486 3.90913 37.1307 3.91786 37.1129C4.77338 35.3045 5.64305 33.5058 6.50814 31.7026C6.61726 31.474 6.7143 31.2381 6.84255 31.0238C6.98172 30.7937 7.17657 30.6023 7.40912 30.4672C7.64168 30.3322 7.90448 30.2578 8.17332 30.2509C8.44217 30.2441 8.70841 30.305 8.94755 30.428C9.18668 30.551 9.39103 30.7323 9.54175 30.955C10.6496 32.5555 11.7412 34.162 12.8429 35.7672C12.9838 35.9782 13.1285 36.1829 13.2679 36.3935C13.5111 36.7415 13.6068 37.1715 13.534 37.5898C13.4613 38.0081 13.226 38.3806 12.8796 38.626C12.5332 38.8714 12.1038 38.9699 11.685 38.8998C11.2663 38.8298 10.8923 38.5969 10.6446 38.2521C10.6064 38.2045 10.5646 38.1638 10.4835 38.0692C10.7285 39.4625 11.1537 40.8181 11.7487 42.1016C11.86 42.4088 11.9875 42.7098 12.1308 43.0034C12.6061 42.3772 13.0958 41.7696 13.5548 41.1359C14.3735 39.9241 15.0899 38.6463 15.6967 37.3157L17.7775 33.141C17.8059 33.0918 17.8372 33.0443 17.8713 32.9988C18.0837 33.3283 18.2822 33.6394 18.4819 33.9533C19.6093 35.7005 20.7328 37.4542 21.8677 39.197C22.1125 39.5775 22.4957 39.8479 22.9362 39.9512C23.3767 40.0545 23.8401 39.9825 24.2286 39.7505C24.617 39.5185 24.9001 39.1447 25.0181 38.7078C25.136 38.271 25.0796 37.8055 24.8607 37.4095C24.8244 37.3539 24.8057 37.2888 24.8069 37.2224C25.0206 37.491 25.2359 37.7541 25.4457 38.0226C25.7427 38.3984 26.0339 38.7742 26.3307 39.15C26.639 39.6287 27.1238 39.9663 27.6797 40.0893C27.6557 40.4003 27.6583 40.7127 27.6871 41.0232C27.7396 41.3305 27.8651 41.6207 28.0532 41.8693C28.2414 42.1179 28.4865 42.3176 28.768 42.4516C29.435 42.7885 30.1051 43.1155 30.8049 43.4599C30.7243 43.5222 30.6653 43.574 30.6052 43.6145C27.1271 45.847 23.6473 48.078 20.1657 50.3076Z" fill="#98984B"/>
<path d="M50.3317 20.8153C50.1305 20.4052 49.9233 19.9134 49.7054 19.3322C49.9612 19.8054 50.1709 20.302 50.3317 20.8153V20.8153Z" fill="#98984B"/>
<path d="M19.6922 11.4482C19.4794 11.5483 19.2414 11.6579 18.981 11.7743C19.2109 11.6506 19.4485 11.5417 19.6922 11.4482V11.4482Z" fill="#98984B"/>
<path d="M35.3204 41.0272C35.0502 40.8962 34.7812 40.7696 34.5097 40.6349C33.2514 40.0226 31.9891 39.4013 30.7308 38.7957C30.5005 38.6842 30.2492 38.6086 29.9906 38.5101C30.0548 38.1725 30.035 37.8243 29.933 37.4961C29.831 37.168 29.6499 36.8699 29.4057 36.6282C29.8415 36.6775 30.2817 36.5888 30.6644 36.3746C30.7071 36.3503 30.8324 36.4128 30.8875 36.4667C31.5514 37.1299 32.2026 37.7988 32.8621 38.465L35.2331 40.8729C35.2785 40.9132 35.3092 40.9675 35.3204 41.0272V41.0272Z" fill="#98984B"/>
<path d="M28.0634 33.6078C27.9607 33.8583 27.8586 34.0919 27.7447 34.3592C27.6306 34.2071 27.5198 34.0624 27.4121 33.9159C27.3045 33.7693 27.2003 33.6278 27.0864 33.4775L27.5167 33.1073C27.7096 33.2846 27.89 33.4528 28.0634 33.6078Z" fill="#98984B"/>
<path d="M30.0544 35.6043C29.8732 35.6901 29.6695 35.7167 29.4723 35.6804C29.2751 35.6441 29.0943 35.5467 28.9555 35.402C28.8249 35.2673 28.7374 35.0968 28.7041 34.9122C28.6708 34.7276 28.6932 34.5373 28.7684 34.3655C29.1908 34.7689 29.6123 35.179 30.0544 35.6043Z" fill="#98984B"/>
<path d="M31.5642 31.2391C31.5518 31.2574 31.538 31.2699 31.526 31.2882C31.4734 31.2418 31.4171 31.2036 31.367 31.1585C30.4981 30.365 29.6293 29.5665 28.7605 28.763C28.3975 28.3357 27.9175 28.0239 27.3795 27.8661C27.6807 27.6433 27.9368 27.4535 28.208 27.2563C29.3379 28.5952 30.4501 29.9172 31.5642 31.2391Z" fill="#98984B"/>
<path d="M26.9395 32.3902C26.6652 32.6222 26.3756 32.8354 26.0727 33.0286C25.8599 33.1289 25.6178 33.1483 25.3916 33.0833C25.1654 33.0183 24.9706 32.8732 24.8435 32.6752C24.7132 32.4906 24.6499 32.267 24.6641 32.0415C24.6783 31.816 24.7692 31.6021 24.9217 31.4353C25.0896 31.2599 25.275 31.1028 25.4153 30.9731C25.9185 31.4385 26.4076 31.8939 26.9395 32.3902Z" fill="#98984B"/>
<path d="M30.1032 9.56875C28.3057 10.8175 26.4947 12.0486 24.6828 13.2793C24.3315 13.5149 23.9014 13.6023 23.486 13.5227C23.0706 13.4431 22.7033 13.2028 22.464 12.8541C22.2287 12.504 22.1386 12.0762 22.2124 11.661C22.2863 11.2457 22.5184 10.8753 22.8599 10.6278C22.905 10.5945 22.9474 10.5654 23.0054 10.5213C21.8668 10.6884 20.7541 11.0001 19.6943 11.4488C19.4502 11.5422 19.2123 11.6512 18.9822 11.7751C18.6966 11.8998 18.4187 12.0337 18.1485 12.17L18.1674 12.1844C20.0183 13.7373 22.0813 15.0181 24.2941 15.9881C25.6718 16.6514 27.0272 17.3483 28.3942 18.0271C28.4508 18.0542 28.5034 18.0847 28.5979 18.1363C28.5082 18.1986 28.4443 18.2452 28.3793 18.2909C26.3598 19.5872 24.3428 20.8833 22.3282 22.1792C22.0436 22.3579 21.817 22.6153 21.6759 22.9202C21.5348 23.2252 21.4852 23.5646 21.5332 23.8971C21.5812 24.2297 21.7247 24.5412 21.9463 24.7938C22.1679 25.0464 22.4581 25.2292 22.7816 25.3201C23.0212 25.3917 23.2736 25.4094 23.5209 25.3722C23.7682 25.3349 24.0041 25.2436 24.212 25.1046C24.2232 25.1189 24.2353 25.1353 24.2476 25.1497C23.7048 25.5809 23.1604 26.0114 22.6144 26.4411C22.4602 26.5658 22.3012 26.6822 22.1466 26.8035C21.7393 27.1209 21.4734 27.5859 21.4066 28.0978C21.3398 28.6098 21.4774 29.1275 21.7896 29.5387C22.1018 29.9499 22.5634 30.2216 23.0745 30.2948C23.5856 30.368 24.105 30.2369 24.5201 29.9299C24.6841 29.8052 24.8433 29.6863 25.0212 29.5543C25.0661 29.6662 25.0721 29.79 25.0381 29.9057C25.0042 30.0214 24.9324 30.1224 24.8341 30.1924C24.5688 30.393 24.3281 30.6242 24.117 30.8812C23.8687 31.1986 23.7252 31.5853 23.7066 31.9879C23.688 32.3904 23.7951 32.7888 24.0131 33.1277C24.2287 33.4628 24.5413 33.7243 24.9093 33.8773C25.2772 34.0304 25.6831 34.0677 26.0727 33.9843C26.2012 33.9587 26.2852 33.9562 26.3723 34.0751C27.2037 35.2025 28.0299 36.3297 28.8665 37.4571C28.9534 37.5643 29.0179 37.6879 29.0562 37.8206C29.0945 37.9532 29.1058 38.0922 29.0895 38.2293C29.0898 38.3455 29.0554 38.4592 28.9908 38.5559C28.9262 38.6526 28.8343 38.7279 28.7268 38.7722C28.6557 38.8043 28.5895 38.8463 28.5302 38.8969C28.3674 39.0445 28.1527 39.1214 27.9332 39.1108C27.7137 39.1001 27.5074 39.0027 27.3598 38.8399C27.3292 38.8065 27.3014 38.7707 27.2766 38.7329C26.9008 38.282 26.5533 37.8148 26.1868 37.355C24.5329 35.283 22.8762 33.2145 21.2168 31.1496C20.951 30.8344 20.6671 30.5349 20.3665 30.2527C20.0963 29.9916 19.913 29.9825 19.7045 30.1643C19.6064 30.2504 19.5465 30.372 19.538 30.5022C19.5294 30.6325 19.5729 30.7608 19.659 30.859L19.6646 30.8652C20.9367 32.8724 22.2082 34.8764 23.4791 36.8774C23.6589 37.1684 23.8466 37.4523 24.0208 37.7404C24.0808 37.8278 24.1229 37.9262 24.1449 38.03C24.1668 38.1337 24.1681 38.2408 24.1486 38.345C24.1292 38.4492 24.0893 38.5486 24.0315 38.6375C23.9736 38.7263 23.8988 38.8029 23.8113 38.8628C23.8005 38.8701 23.7905 38.8771 23.7784 38.8836C23.6909 38.9384 23.5934 38.9754 23.4916 38.9925C23.3897 39.0096 23.2855 39.0065 23.1849 38.9833C23.0843 38.9602 22.9892 38.9174 22.9051 38.8575C22.821 38.7976 22.7495 38.7217 22.6947 38.6342C22.6866 38.6213 22.6791 38.6084 22.6718 38.5951C20.6145 35.3933 18.5574 32.1919 16.5007 28.9908C14.6247 26.0706 12.7471 23.1509 10.8678 20.2318C10.809 20.1525 10.7803 20.0548 10.787 19.9562C10.6216 20.3521 10.4872 20.7603 10.385 21.177C10.2395 21.661 10.1004 22.0915 9.98425 22.528C9.63484 23.8392 9.45777 25.1903 9.45754 26.5473C9.4858 26.9729 9.34458 27.3925 9.06467 27.7145C8.78476 28.0364 8.38889 28.2346 7.96341 28.2658C7.53793 28.297 7.11738 28.1587 6.7935 27.881C6.46962 27.6033 6.2687 27.2089 6.23456 26.7836C6.23062 26.7293 6.22935 26.6749 6.23081 26.6206C6.22057 22.7729 7.36076 19.0099 9.50493 15.815C10.8348 13.8018 12.5238 12.0506 14.4876 10.649C14.6677 10.5218 14.8504 10.3984 15.0355 10.279C16.2498 9.47895 17.5473 8.81284 18.9051 8.29232C20.2584 7.77474 21.6661 7.41214 23.101 7.21148C23.1513 7.20275 23.2027 7.19319 23.3216 7.16763C23.0514 7.03917 22.8435 6.93462 22.6327 6.83693C22.2418 6.66554 21.935 6.34588 21.7798 5.94826C21.6245 5.55065 21.6336 5.10765 21.805 4.71672C21.9764 4.32579 22.296 4.01896 22.6936 3.86372C23.0913 3.70848 23.5342 3.71755 23.9252 3.88894C23.9505 3.89996 23.9757 3.91181 24.0004 3.92428C25.9628 4.85823 27.9222 5.7976 29.8785 6.74236C30.1473 6.85684 30.3796 7.0427 30.5503 7.27981C30.721 7.51692 30.8236 7.79622 30.8468 8.08745C30.8701 8.37868 30.8132 8.67072 30.6823 8.93191C30.5514 9.19311 30.3515 9.41348 30.1043 9.56916L30.1032 9.56875Z" fill="#98984B"/>
<path d="M56.093 22.0076C55.7909 22.0034 55.4941 22.0881 55.2397 22.2511C54.9852 22.414 54.7842 22.6482 54.6616 22.9244C54.5502 23.1449 54.4467 23.3677 54.3384 23.5908C54.2716 23.3852 54.224 23.1739 54.1962 22.9595C54.1604 22.7427 54.1247 22.5243 54.0823 22.3112C53.9421 21.6333 53.7671 20.963 53.5581 20.3029C52.752 17.7611 51.4399 15.4087 49.7009 13.3872C47.9619 11.3658 45.8318 9.71704 43.4389 8.54031C41.7025 7.67265 39.8384 7.08847 37.9173 6.80992C36.8567 6.66703 35.7885 6.58763 34.7184 6.57214C34.5149 6.5758 34.3141 6.6195 34.1275 6.70076C33.9409 6.78202 33.7721 6.89925 33.6308 7.04575C33.4895 7.19225 33.3784 7.36514 33.304 7.55457C33.2295 7.744 33.1931 7.94624 33.1968 8.14975C33.1968 8.16659 33.1967 8.18342 33.1984 8.20026C33.2046 8.61435 33.3728 9.00954 33.6669 9.30115C33.9609 9.59277 34.3575 9.75763 34.7716 9.76041C36.3498 9.76661 37.9193 9.99429 39.4342 10.4368C39.7109 10.5199 39.9796 10.617 40.2976 10.7149C40.6203 10.8024 40.938 10.9069 41.2496 11.0279C39.011 12.4812 36.7677 13.9324 34.5197 15.3816C30.6549 17.8817 26.7888 20.3815 22.9215 22.8812C22.8251 22.9284 22.739 22.9942 22.6682 23.0749C22.5973 23.1555 22.5431 23.2494 22.5087 23.351C22.4743 23.4527 22.4603 23.5602 22.4675 23.6673C22.4748 23.7744 22.5032 23.879 22.551 23.975C22.5988 24.0711 22.6652 24.1568 22.7463 24.2272C22.8273 24.2975 22.9215 24.3511 23.0234 24.3849C23.1252 24.4188 23.2328 24.4321 23.3398 24.4242C23.4469 24.4163 23.5513 24.3873 23.6471 24.3388C23.6962 24.3145 23.7427 24.2852 23.7857 24.2513C25.7318 23.0115 27.6774 21.7699 29.6225 20.5264C29.9983 20.2909 30.3741 20.0448 30.7574 19.8118C30.8536 19.7442 30.9721 19.7159 31.0886 19.7328C31.205 19.7497 31.3106 19.8104 31.3836 19.9026C31.5516 20.0986 31.5613 20.2395 31.3591 20.4788C31.1454 20.7377 30.9098 20.9776 30.6547 21.1959C28.9845 22.5677 27.3078 23.9353 25.6246 25.2985C24.6804 26.0582 23.7197 26.8015 22.7696 27.5581C22.66 27.6378 22.5672 27.7384 22.4964 27.854C22.4257 27.9696 22.3784 28.098 22.3573 28.2319C22.3362 28.3658 22.3417 28.5025 22.3734 28.6343C22.4052 28.766 22.4625 28.8903 22.5423 28.9998C22.622 29.1094 22.7226 29.2023 22.8382 29.273C22.9538 29.3437 23.0822 29.391 23.2161 29.4121C23.35 29.4332 23.4867 29.4277 23.6185 29.396C23.7502 29.3643 23.8745 29.3069 23.9841 29.2271C24.0019 29.2143 24.0194 29.2005 24.0364 29.1856C24.9408 28.5167 25.8427 27.8403 26.7437 27.1694C27.0613 26.9301 27.3825 26.6978 27.692 26.4675C27.4851 25.9989 27.4438 25.474 27.5747 24.9788C27.6735 24.6393 27.8623 24.3328 28.1211 24.0919C28.38 23.851 28.6992 23.6846 29.0449 23.6104C29.3906 23.5362 29.75 23.5569 30.0849 23.6704C30.4198 23.7838 30.7177 23.9858 30.9472 24.2549C31.5952 24.968 32.2358 25.6951 32.8825 26.4199C33.1762 26.7491 33.4755 27.0754 33.7704 27.4049C33.7584 27.3264 33.7265 27.2522 33.6777 27.1896C32.9889 26.2501 32.292 25.3108 31.611 24.3663C31.3042 23.9501 31.1727 23.4303 31.2447 22.9183C31.3168 22.4063 31.5866 21.9429 31.9964 21.6276C32.4062 21.3124 32.9233 21.1703 33.4366 21.2318C33.95 21.2934 34.4187 21.5538 34.7423 21.957C34.9252 22.1857 35.105 22.4206 35.2865 22.6527C35.6745 23.1469 36.0631 23.6416 36.4522 24.137C36.4624 24.0812 36.4514 24.0236 36.4214 23.9755C36.1967 23.5763 36.1351 23.1056 36.2496 22.662C36.3641 22.2184 36.6458 21.8362 37.0356 21.5956C37.4287 21.357 37.8998 21.2824 38.3474 21.3879C38.795 21.4933 39.1833 21.7703 39.4286 22.1593C40.2068 23.3835 40.9853 24.6052 41.764 25.8242C42.3689 26.7693 42.9696 27.7136 43.5844 28.6792C43.6083 28.6538 43.6306 28.6269 43.6509 28.5986C44.3655 27.1675 45.0914 25.7383 45.78 24.2923C46.7053 22.2034 47.9093 20.2495 49.3592 18.4838C49.4839 18.7569 49.6012 19.0387 49.7111 19.3292C49.967 19.8022 50.1768 20.2989 50.3374 20.8122C50.6495 21.6096 50.8546 22.4448 50.9474 23.296C50.9192 23.2659 50.8931 23.2339 50.8693 23.2002C50.7504 23.0251 50.5983 22.8752 50.4215 22.7589C50.2447 22.6426 50.0467 22.5623 49.8389 22.5225C49.6311 22.4827 49.4175 22.4843 49.2102 22.527C49.003 22.5698 48.8062 22.653 48.6311 22.7718C48.456 22.8907 48.306 23.0428 48.1898 23.2196C48.0735 23.3964 47.9932 23.5944 47.9534 23.8022C47.9136 24.01 47.9151 24.2237 47.9579 24.4309C48.0007 24.6381 48.0839 24.8349 48.2027 25.01C48.2162 25.0308 48.2302 25.0497 48.2443 25.0688C49.4552 26.8346 50.6642 28.6018 51.8711 30.3703C52.0272 30.6308 52.253 30.8425 52.523 30.9814C52.7931 31.1203 53.0966 31.1809 53.3992 31.1564C53.7019 31.1319 53.9917 31.0233 54.2359 30.8427C54.4801 30.6622 54.6689 30.417 54.7811 30.1348C55.1681 29.3086 55.5691 28.4888 55.9611 27.6653C56.504 26.5332 57.0531 25.4109 57.5773 24.2736C57.6926 24.0277 57.7431 23.7565 57.724 23.4856C57.7049 23.2147 57.6168 22.9533 57.4681 22.726C57.3194 22.4988 57.115 22.3135 56.8745 22.1875C56.6339 22.0616 56.3651 21.9993 56.0937 22.0065L56.093 22.0076ZM53.3752 25.4145C53.3762 25.3986 53.3762 25.3827 53.3752 25.3669V25.3386C53.3762 25.3497 53.3762 25.3608 53.3752 25.3719V25.4145Z" fill="#98984B"/>
<path d="M54.9158 34.7664C54.9317 36.97 54.5682 39.1598 53.8411 41.24V41.24C53.5711 42.0125 53.2489 42.7658 52.8767 43.4946C51.726 45.8306 50.119 47.9123 48.1506 49.6171C46.1822 51.3218 43.8922 52.615 41.4159 53.4202C40.3033 53.7969 39.156 54.0615 37.9909 54.2101C37.9628 54.2176 37.936 54.2259 37.8389 54.2483C38.1143 54.388 38.3455 54.4944 38.5685 54.611C38.8476 54.7469 39.0813 54.9609 39.2413 55.2269C39.4013 55.4928 39.4808 55.7995 39.4701 56.1097C39.4595 56.42 39.3591 56.7205 39.1812 56.9748C39.0033 57.2292 38.7554 57.4266 38.4677 57.543C38.2604 57.634 38.0354 57.6774 37.8092 57.6702C37.5829 57.6631 37.3612 57.6054 37.1601 57.5014C35.1924 56.5628 33.2262 55.62 31.2614 54.6732C30.9961 54.5567 30.7674 54.3704 30.5996 54.1342C30.4317 53.898 30.3311 53.6207 30.3084 53.3319C30.2857 53.043 30.3418 52.7534 30.4707 52.4939C30.5995 52.2344 30.7964 52.0147 31.0403 51.8582C32.8236 50.6277 34.6112 49.4035 36.4029 48.1856C36.7439 47.9365 37.1693 47.8316 37.5871 47.8937C38.0049 47.9557 38.3815 48.1797 38.6355 48.5172C38.8895 48.8546 39.0004 49.2785 38.9443 49.6972C38.8883 50.1158 38.6697 50.4955 38.3359 50.7543C38.2993 50.782 38.2615 50.808 38.2224 50.8322C38.2056 50.8466 38.19 50.863 38.1698 50.8798C38.6539 50.9488 41.2492 50.1559 42.1209 49.6668C42.4437 49.5324 42.7592 49.3811 43.066 49.2135C41.3699 47.8014 39.4906 46.625 37.4793 45.7163C34.7588 44.4013 32.0544 43.046 29.3423 41.7083C29.2056 41.6567 29.0804 41.5786 28.9739 41.4786C28.8674 41.3785 28.7817 41.2585 28.7216 41.1253C28.6615 40.9921 28.6282 40.8484 28.6236 40.7023C28.6191 40.5563 28.6433 40.4108 28.695 40.2741C28.6998 40.2616 28.7046 40.2494 28.7098 40.2371C28.7829 40.1195 28.8792 40.0179 28.9927 39.9384C29.0758 39.8696 29.2005 39.8395 29.2708 39.763C29.3975 39.6319 29.5672 39.5508 29.7488 39.5346C29.9305 39.5184 30.1119 39.5682 30.2598 39.6749C31.2317 40.1332 32.1974 40.6086 33.1593 41.0777C34.0793 41.5235 34.9911 41.9744 35.9148 42.4079C36.0848 42.4943 36.2803 42.5163 36.4652 42.4698C36.6502 42.4233 36.8121 42.3115 36.921 42.155C37.0299 41.9985 37.0785 41.8078 37.0579 41.6183C37.0372 41.4287 36.9487 41.253 36.8086 41.1236C35.1387 39.4386 33.471 37.7556 31.8055 36.0746C29.9648 34.2203 28.1242 32.3624 26.2837 30.5008C26.134 30.362 26.0321 30.1792 25.9927 29.9788C25.9533 29.7784 25.9784 29.5707 26.0644 29.3855C26.1429 29.2005 26.2763 29.0441 26.4466 28.9374C26.6168 28.8307 26.8157 28.7788 27.0164 28.7888C27.1559 28.7901 27.2936 28.8199 27.4211 28.8763C27.5486 28.9327 27.6633 29.0146 27.758 29.117C29.0731 30.3275 30.3826 31.5488 31.7104 32.7442C32.7619 33.6916 33.8396 34.6118 34.9044 35.538C35.0668 35.6648 35.2375 35.7807 35.4154 35.8849C35.4989 35.9482 35.6036 35.9771 35.7078 35.9655C35.812 35.9539 35.9077 35.9027 35.9753 35.8225C36.0492 35.7607 36.0956 35.6721 36.1041 35.5761C36.1127 35.4802 36.0828 35.3847 36.021 35.3108L36.0185 35.3077C35.7419 34.8636 35.4414 34.4348 35.1185 34.0231C33.272 31.806 31.4172 29.5966 29.5543 27.3949C29.2531 27.0372 28.9468 26.6853 28.6425 26.3238C28.5519 26.2251 28.4817 26.1096 28.4359 25.9837C28.3901 25.8579 28.3695 25.7243 28.3754 25.5905C28.3813 25.4567 28.4135 25.3253 28.4702 25.204C28.5269 25.0827 28.607 24.9737 28.7058 24.8834C28.7156 24.8745 28.7256 24.8657 28.7356 24.8572C28.9453 24.6765 29.2183 24.5864 29.4944 24.6069C29.7706 24.6274 30.0272 24.7568 30.208 24.9665C30.2147 24.9744 30.2215 24.9825 30.2288 24.9906C32.2955 27.2627 34.3478 29.5379 36.4228 31.7962C36.952 32.3686 37.5338 32.8878 38.1044 33.4152C38.254 33.5607 38.4413 33.6656 38.6591 33.4933C38.7485 33.4493 38.8169 33.3717 38.849 33.2773C38.8812 33.183 38.8746 33.0797 38.8306 32.9903C38.8179 32.9647 38.8024 32.9406 38.7844 32.9184C38.5442 32.4633 38.2752 32.0241 37.979 31.6033C36.5386 29.6181 35.0788 27.6441 33.6253 25.6714C33.2152 25.1139 32.7939 24.5623 32.3842 24.0073C32.2937 23.9054 32.2241 23.7867 32.1795 23.658C32.1348 23.5292 32.116 23.3929 32.124 23.2569C32.1321 23.1209 32.1668 22.9878 32.2263 22.8651C32.2858 22.7425 32.3688 22.6328 32.4707 22.5423C32.4915 22.5243 32.5122 22.507 32.533 22.4906C32.7613 22.3244 33.0463 22.2558 33.3252 22.2997C33.6042 22.3436 33.8542 22.4966 34.0204 22.7248C34.0296 22.7375 34.0385 22.7504 34.0473 22.7637C35.9947 25.2035 37.9476 27.6388 39.906 30.0695C40.2426 30.4727 40.6041 30.8545 40.9881 31.2127C41.0275 31.2704 41.0812 31.3168 41.1441 31.3473C41.2069 31.3778 41.2766 31.3913 41.3463 31.3865C41.416 31.3817 41.4831 31.3587 41.5412 31.3199C41.5992 31.2811 41.6461 31.2277 41.6771 31.1651C41.7325 31.0815 41.7598 30.9824 41.7552 30.8822C41.7505 30.782 41.7142 30.6859 41.6514 30.6077C40.821 29.3001 39.9875 27.9987 39.1571 26.6911C38.5211 25.6963 37.8844 24.6993 37.247 23.7001C37.1826 23.6128 37.1363 23.5134 37.1108 23.4079C37.0853 23.3024 37.0812 23.1929 37.0987 23.0858C37.1161 22.9787 37.1548 22.8762 37.2125 22.7843C37.2701 22.6923 37.3456 22.6129 37.4344 22.5505C37.5232 22.4882 37.6236 22.4442 37.7296 22.4212C37.8357 22.3982 37.9453 22.3966 38.052 22.4166C38.1586 22.4365 38.2602 22.4776 38.3508 22.5374C38.4413 22.5972 38.519 22.6745 38.5793 22.7647C38.5957 22.788 38.6109 22.8121 38.6246 22.8371C40.1112 25.1373 41.5988 27.4349 43.0874 29.7297C45.5185 33.4873 47.95 37.2449 50.382 41.0024C50.4063 41.0383 50.4285 41.0755 50.4486 41.1138C50.565 40.8347 50.6741 40.5503 50.7766 40.2523C50.9636 39.5784 51.1524 38.9703 51.2962 38.3552C51.5677 37.1727 51.7031 35.9631 51.6996 34.7498C51.7057 34.3266 51.8785 33.9229 52.1804 33.6263C52.4824 33.3297 52.8891 33.1642 53.3123 33.1657C53.7355 33.1672 54.1411 33.3357 54.4409 33.6344C54.7407 33.9331 54.9106 34.338 54.9137 34.7612V34.7612L54.9158 34.7664Z" fill="#98984B"/>
<path d="M20.1657 50.3076C20.1384 50.3248 20.1087 50.3377 20.0774 50.3459C20.429 50.4796 20.7962 50.6013 21.179 50.7111C21.6174 50.8418 22.0105 50.9746 22.4102 51.0823C23.7853 51.4669 25.2078 51.6554 26.6356 51.6422C26.9057 51.6375 27.1727 51.6997 27.4128 51.8235C27.6528 51.9472 27.8585 52.1286 28.0113 52.3513C28.164 52.574 28.2592 52.8312 28.2882 53.0997C28.3172 53.3682 28.2792 53.6398 28.1775 53.89C28.0462 54.1778 27.8358 54.4225 27.5709 54.5954C27.3059 54.7684 26.9973 54.8625 26.6809 54.8669C25.3399 54.8656 24.0024 54.7297 22.6885 54.4612C19.3795 53.7739 16.3032 52.2462 13.7559 50.0253C11.2085 47.8043 9.2759 44.9649 8.14414 41.7804C7.71077 40.572 7.40352 39.3221 7.2273 38.0505C7.21712 37.9796 7.19902 37.9108 7.1747 37.7686C7.03502 38.0505 6.92424 38.2785 6.812 38.5038C6.63469 38.891 6.31082 39.1919 5.91165 39.3404C5.51247 39.4888 5.07069 39.4725 4.68348 39.2952C4.29627 39.1179 3.99536 38.794 3.84694 38.3949C3.69852 37.9957 3.71477 37.5539 3.89208 37.1667C3.90039 37.1486 3.90913 37.1307 3.91786 37.1129C4.77338 35.3045 5.64305 33.5058 6.50814 31.7026C6.61726 31.474 6.7143 31.2381 6.84255 31.0238C6.98172 30.7937 7.17657 30.6023 7.40912 30.4672C7.64168 30.3322 7.90448 30.2578 8.17332 30.2509C8.44217 30.2441 8.70841 30.305 8.94755 30.428C9.18668 30.551 9.39103 30.7323 9.54175 30.955C10.6496 32.5555 11.7412 34.162 12.8429 35.7672C12.9838 35.9782 13.1285 36.1829 13.2679 36.3935C13.5111 36.7415 13.6068 37.1715 13.534 37.5898C13.4613 38.0081 13.226 38.3806 12.8796 38.626C12.5332 38.8714 12.1038 38.9699 11.685 38.8998C11.2663 38.8298 10.8923 38.5969 10.6446 38.2521C10.6064 38.2045 10.5646 38.1638 10.4835 38.0692C10.7285 39.4625 11.1537 40.8181 11.7487 42.1016C11.86 42.4088 11.9875 42.7098 12.1308 43.0034C12.6061 42.3772 13.0958 41.7696 13.5548 41.1359C14.3735 39.9241 15.0899 38.6463 15.6967 37.3157L17.7775 33.141C17.8059 33.0918 17.8372 33.0443 17.8713 32.9988C18.0837 33.3283 18.2822 33.6394 18.4819 33.9533C19.6093 35.7005 20.7328 37.4542 21.8677 39.197C22.1125 39.5775 22.4957 39.8479 22.9362 39.9512C23.3767 40.0545 23.8401 39.9825 24.2286 39.7505C24.617 39.5185 24.9001 39.1447 25.0181 38.7078C25.136 38.271 25.0796 37.8055 24.8607 37.4095C24.8244 37.3539 24.8057 37.2888 24.8069 37.2224C25.0206 37.491 25.2359 37.7541 25.4457 38.0226C25.7427 38.3984 26.0339 38.7742 26.3307 39.15C26.639 39.6287 27.1238 39.9663 27.6797 40.0893C27.6557 40.4003 27.6583 40.7127 27.6871 41.0232C27.7396 41.3305 27.8651 41.6207 28.0532 41.8693C28.2414 42.1179 28.4865 42.3176 28.768 42.4516C29.435 42.7885 30.1051 43.1155 30.8049 43.4599C30.7243 43.5222 30.6653 43.574 30.6052 43.6145C27.1271 45.847 23.6473 48.078 20.1657 50.3076Z" fill="#98984B"/>
<path d="M50.3317 20.8153C50.1305 20.4052 49.9233 19.9134 49.7054 19.3322C49.9612 19.8054 50.1709 20.302 50.3317 20.8153V20.8153Z" fill="#98984B"/>
<path d="M19.6922 11.4482C19.4794 11.5483 19.2414 11.6579 18.981 11.7743C19.2109 11.6506 19.4485 11.5417 19.6922 11.4482V11.4482Z" fill="#98984B"/>
</g>
<defs>
<clipPath id="clip0_4_16">
<rect width="62" height="62" fill="white"/>
</clipPath>
</defs>
</svg>
