<svg xmlns="http://www.w3.org/2000/svg" width="91.518" height="91.365" viewBox="0 0 91.518 91.365">
  <path id="noun-writer-4003653" d="M178.134,48.814,167.353,38.033a3.033,3.033,0,0,0-4.294,0L160.591,40.5V20.552a3.054,3.054,0,0,0-3.046-3.046h-67A3.054,3.054,0,0,0,87.5,20.552v85.274a3.054,3.054,0,0,0,3.046,3.046h67a3.054,3.054,0,0,0,3.046-3.046V70.652L178.134,53.11a3.014,3.014,0,0,0,.883-2.162,3.072,3.072,0,0,0-.882-2.133Zm-46.962,39.2-3.9.914.914-3.9ZM154.5,76.742V102.78H93.59V23.6H154.5V46.56L124.259,76.8a.03.03,0,0,1-.031.031,2.96,2.96,0,0,0-.578.883,2.218,2.218,0,0,1-.091.243,3.148,3.148,0,0,0-.122.3l-3.228,14.009a2.958,2.958,0,0,0,.823,2.832,3.014,3.014,0,0,0,2.163.883,2.555,2.555,0,0,0,.67-.091l14.009-3.228a3.146,3.146,0,0,0,.3-.122,2.218,2.218,0,0,0,.243-.091,2.96,2.96,0,0,0,.883-.578.03.03,0,0,0,.031-.031Zm-17.3,8.71-6.487-6.487L156.571,53.11l6.487,6.487ZM167.353,55.3l-6.487-6.487,4.325-4.325,6.487,6.487Zm-49.4,38.342a3.054,3.054,0,0,1-3.046,3.046H102.727a3.046,3.046,0,0,1,0-6.091h12.182A3.054,3.054,0,0,1,117.955,93.644Zm0-12.182a3.054,3.054,0,0,1-3.046,3.046H102.727a3.046,3.046,0,0,1,0-6.091h12.182A3.054,3.054,0,0,1,117.955,81.462ZM99.682,69.28a3.054,3.054,0,0,1,3.046-3.046H121a3.046,3.046,0,1,1,0,6.091H102.727A3.054,3.054,0,0,1,99.682,69.28Zm0-12.182a3.054,3.054,0,0,1,3.046-3.046h33.5a3.046,3.046,0,0,1,0,6.091h-33.5A3.054,3.054,0,0,1,99.682,57.1Zm0-12.182a3.054,3.054,0,0,1,3.046-3.046h42.637a3.046,3.046,0,1,1,0,6.091H102.727A3.054,3.054,0,0,1,99.682,44.916Zm0-12.182a3.054,3.054,0,0,1,3.046-3.046h42.637a3.046,3.046,0,1,1,0,6.091H102.727A3.054,3.054,0,0,1,99.682,32.734Z" transform="translate(-87.499 -17.507)" fill="#98984b"/>
</svg>
