<svg width="88" height="88" viewBox="0 0 88 88" fill="none" xmlns="http://www.w3.org/2000/svg">
<path d="M79.1111 0H8.88889C3.97969 0 0 3.97969 0 8.88889V79.1111C0 84.0203 3.97969 88 8.88889 88H79.1111C84.0203 88 88 84.0203 88 79.1111V8.88889C88 3.97969 84.0203 0 79.1111 0Z" fill="white"/>
<path d="M44.5993 22.239C44.766 22.2231 44.9335 22.2183 45.1008 22.2249C45.4481 22.2484 45.7924 22.3043 46.1293 22.3919C47.675 22.8025 49.1867 23.3317 50.651 23.9749C52.2252 24.6116 53.7915 25.2639 55.3728 25.8825C62.4084 28.6463 69.4546 31.3787 76.4831 34.1492C78.0269 34.7599 80.1791 35.4603 81.3096 36.7324C81.4085 36.8026 81.4894 36.8951 81.5458 37.0024C81.6022 37.1097 81.6325 37.2289 81.6342 37.3501C81.636 37.4713 81.6091 37.5913 81.5557 37.7002C81.5024 37.8091 81.4241 37.9038 81.3273 37.9768C80.5976 38.6444 79.7516 39.1726 78.8314 39.5351C78.7049 39.5847 78.5986 39.6751 78.5291 39.792C78.4597 39.9088 78.4311 40.0454 78.4479 40.1803C78.4603 43.7892 78.4798 47.3999 78.4373 51.0074C78.4053 51.3532 78.4585 51.7015 78.5922 52.0219C78.7259 52.3424 78.9361 52.6252 79.2043 52.8457C79.8534 53.3985 80.4283 54.0455 81.0558 54.6704L75.7101 60.2273L70.2435 54.7609C71.3601 53.7449 72.5086 52.694 73.6657 51.6541C73.752 51.5834 73.8204 51.4934 73.8655 51.3914C73.9105 51.2893 73.9309 51.1781 73.925 51.0667C73.9181 48.0788 73.9163 45.0899 73.9197 42.1002V41.7094C73.7427 41.7769 73.6031 41.8256 73.4671 41.8864L48.7794 52.153C46.9441 52.9766 44.9153 53.2712 42.9215 53.0038C41.5894 52.7625 40.2864 52.3811 39.0344 51.8659C31.1624 48.9158 23.2763 45.9992 15.5572 42.6599C13.4478 41.7468 11.3794 40.7326 9.33493 39.6838C8.65049 39.3016 8.03337 38.8098 7.50818 38.2278C7.38934 38.1189 7.29312 37.9876 7.22501 37.8415C7.1569 37.6954 7.11822 37.5373 7.11121 37.3763C7.1042 37.2152 7.12898 37.0544 7.18413 36.9029C7.23929 36.7514 7.32374 36.6123 7.43266 36.4934C7.47657 36.4457 7.52411 36.4014 7.57486 36.361C7.75908 36.1525 7.97313 35.9725 8.21003 35.8267C8.83955 35.4278 9.49834 35.0771 10.1808 34.7776C13.3274 33.5545 16.4874 32.3705 19.6455 31.1831C26.6253 28.5547 33.6073 25.9319 40.5918 23.3147C41.7221 22.8686 42.8921 22.5302 44.086 22.304C44.2571 22.2774 44.4279 22.2532 44.5993 22.239Z" fill="#98984B"/>
<path d="M43.9895 66.302C43.2712 66.2516 42.5531 66.2135 41.8338 66.1528C35.1057 65.6381 28.7094 63.0218 23.5492 58.6737C23.4387 58.5761 23.3687 58.4407 23.353 58.2941C23.3424 56.0667 23.3474 53.8363 23.353 51.6087C23.3624 51.5554 23.3764 51.5031 23.3949 51.4523C23.6233 51.5408 23.8392 51.6231 24.0599 51.7013C27.1523 52.7831 30.2706 54.2337 33.3665 55.3047C36.2897 56.333 39.2882 57.133 42.3351 57.6975C45.0844 58.2017 47.8814 57.4488 50.5029 56.6016C55.3206 54.944 59.9731 52.8408 64.4001 50.3191C64.5421 50.2528 64.6875 50.1937 64.8355 50.1421V50.5552C64.8355 53.0752 64.8302 55.5953 64.8426 58.1162C64.8483 58.2463 64.824 58.376 64.7714 58.4951C64.7189 58.6143 64.6395 58.7198 64.5396 58.8033C62.0504 61.0644 59.1716 62.8551 56.0431 64.0885C52.7963 65.4016 49.3435 66.1322 45.8431 66.2469C45.6815 66.2522 45.5186 66.2832 45.3578 66.3044L43.9895 66.302Z" fill="#98984B"/>
</svg>
