<svg width="50" height="76" viewBox="0 0 50 76" fill="none" xmlns="http://www.w3.org/2000/svg">
<path d="M28.6047 73.0861C28.7491 73.8203 29.4107 73.7036 29.6391 73.7163C30.3085 73.6799 30.9796 73.7503 31.627 73.9247C31.9057 74.0291 32.2377 73.6649 32.3807 73.6836C32.8802 73.748 33.3796 73.6776 33.8432 73.7235C34.1379 73.7525 34.161 73.8103 34.4021 73.5923C34.7127 73.309 35.0256 73.7422 35.0873 73.9279C35.1074 73.9904 35.1396 74.0483 35.1822 74.0984C35.2247 74.1484 35.2767 74.1896 35.3351 74.2195C35.3936 74.2495 35.4573 74.2676 35.5228 74.2729C35.5883 74.2781 35.6542 74.2705 35.7166 74.2503C35.7303 74.2457 35.743 74.2407 35.7566 74.2353C36.0536 73.9887 36.3324 74.089 36.6261 74.1326C36.8673 74.1685 37.097 74.2747 37.1796 73.9174C37.1958 73.869 37.2249 73.826 37.2639 73.7931C37.3029 73.7602 37.3502 73.7385 37.4006 73.7307C37.451 73.7228 37.5026 73.7291 37.5497 73.7486C37.5969 73.7682 37.6377 73.8003 37.6677 73.8415C37.9806 74.2252 38.1858 73.6722 38.5555 73.7612C39.4136 73.9673 40.3263 73.9278 41.2162 74.0477C41.8369 74.1299 42.2574 73.6731 42.6601 73.2917C42.819 73.7389 43.4506 73.7703 43.6559 73.7576C44.1921 73.7263 44.6194 73.6972 44.9413 74.148C45.2592 73.7848 45.8217 74.5894 46.1387 73.9047C46.333 73.4852 46.8238 73.6354 47.1172 73.8738C47.2311 73.9653 47.3631 74.0318 47.5045 74.0688C47.6459 74.1058 47.7935 74.1126 47.9377 74.0886C48.0312 74.0809 48.2042 73.9424 48.216 74.1136C48.2614 74.7656 48.8331 74.5839 49.1931 74.598C49.2907 74.5862 49.3896 74.5946 49.4838 74.6224C49.578 74.6502 49.6656 74.6969 49.7411 74.7597C49.8167 74.8226 49.8786 74.9002 49.9231 74.9878C49.9676 75.0754 49.9938 75.1711 50 75.2691H0.381814C0.225164 74.5653 1.07789 74.4591 1.30174 74.4745C1.99191 74.5254 2.52768 73.8692 3.22284 74.1966C3.27778 73.8047 3.84398 74.1876 3.91163 73.8157C4.02564 73.8889 4.15345 73.9379 4.28715 73.9598C4.42085 73.9817 4.55762 73.9759 4.689 73.9429C4.84747 73.8834 5.05858 74.0264 5.17936 73.803C5.29061 73.5977 5.34832 73.6313 5.46365 73.8456C5.52618 73.938 5.61827 74.0064 5.72482 74.0394C5.83137 74.0724 5.94598 74.0682 6.04979 74.0273C6.1742 73.9751 6.32223 73.9668 6.37581 74.0213C6.98062 74.6693 7.59635 74.0645 8.20252 74.0423C8.23612 74.0423 8.29875 73.8974 8.32917 73.9691C8.63067 74.6725 8.88948 74.0241 9.14966 73.9455C9.8787 73.7162 10.6651 73.7499 11.3718 74.0408C11.8147 74.1625 12.2691 74.2368 12.7276 74.2624C13.6085 74.4386 14.4217 73.6631 15.2726 73.7893C15.9169 73.8847 16.4986 73.6027 17.1634 73.8084C17.8374 73.9618 18.5387 73.9489 19.2066 73.7707C19.328 73.7216 19.4582 73.6983 19.5891 73.7022C19.7199 73.7061 19.8485 73.7371 19.9667 73.7934C20.0743 73.8638 20.1815 73.9296 20.2464 73.7893C20.6188 72.9902 20.8149 73.9224 21.1091 73.8588C21.1071 73.8913 21.1115 73.9239 21.122 73.9547C21.1326 73.9855 21.1491 74.0139 21.1707 74.0383C21.1922 74.0627 21.2184 74.0826 21.2476 74.0969C21.2769 74.1112 21.3086 74.1197 21.3411 74.1218C21.3691 74.1235 21.3973 74.1204 21.4243 74.1127C21.98 73.9415 22.573 74.2166 23.1379 73.8987C23.6528 73.609 24.2966 73.7326 24.8797 73.778C25.7822 73.9132 26.6919 73.9965 27.604 74.0273C27.8484 73.995 28.0764 73.8867 28.2559 73.7178C28.4355 73.5489 28.5575 73.328 28.6047 73.0861Z" fill="#98984B"/>
<path d="M17.4294 34.4982C20.1111 35.2474 22.3918 36.4762 23.655 39.0843C24.1749 40.2136 24.3711 41.4652 24.2217 42.6994C24.1853 43.0963 24.119 43.49 24.0573 43.9504C23.6822 43.8197 23.3376 43.6961 22.9907 43.579C21.3456 43.0812 19.8802 42.117 18.772 40.8033C18.1803 40.083 17.7446 39.2478 17.4926 38.3503C17.2406 37.4528 17.1778 36.5128 17.3081 35.5898C17.349 35.2311 17.3863 34.8733 17.4294 34.4982Z" fill="#98984B"/>
<path d="M17.4289 7.53403C19.192 8.07072 20.8344 8.7146 22.1293 10.0023C22.9853 10.8151 23.619 11.8334 23.9702 12.9603C24.3214 14.0872 24.3784 15.2852 24.1358 16.4404C24.1208 16.5262 24.1113 16.6139 24.0958 16.6997C24.0804 16.7855 24.0613 16.864 24.0409 16.9653C21.5104 16.2574 19.3273 15.1037 18.0087 12.7126C17.3672 11.4735 17.122 10.0672 17.3063 8.68414C17.3381 8.31136 17.3853 7.94086 17.4289 7.53403Z" fill="#98984B"/>
<path d="M31.7699 25.7232C32.3066 28.1429 31.9598 30.3186 30.3592 32.2071C29.5096 33.1946 28.4351 33.9636 27.2262 34.4492C26.5842 34.7157 25.924 34.9373 25.2011 35.2057C25.1512 34.8102 25.1103 34.4706 25.0649 34.1318C24.8083 32.5359 25.1536 30.9016 26.0338 29.5459C27.0052 28.0456 28.4472 26.9103 30.1335 26.3184C30.677 26.1195 31.2242 25.9221 31.7699 25.7232Z" fill="#98984B"/>
<path d="M17.4289 25.7249C19.4844 26.3466 21.3466 27.1499 22.7087 28.8285C23.3627 29.6285 23.8304 30.564 24.0777 31.5673C24.325 32.5706 24.3458 33.6163 24.1386 34.6286C24.1114 34.798 24.0782 34.9664 24.0419 35.1703C22.82 34.8418 21.6521 34.338 20.5747 33.6746C19.0767 32.7217 17.9739 31.2592 17.4698 29.5568C17.2532 28.6812 17.1975 27.7734 17.3054 26.8778C17.334 26.51 17.384 26.1404 17.4289 25.7249Z" fill="#98984B"/>
<path d="M25.2247 43.9377C24.016 38.7438 27.6834 35.4518 31.7967 34.5523C32.1545 36.4548 32.1082 38.291 31.0444 40.0083C29.9606 41.6897 28.3218 42.9381 26.4129 43.5363C26.0274 43.6735 25.6383 43.797 25.2247 43.9377Z" fill="#98984B"/>
<path d="M31.7776 7.46591C32.149 9.56366 32.0955 11.4539 30.9099 13.2402C29.7548 14.982 28.1306 15.9781 26.2276 16.6379C25.9098 16.7473 25.592 16.8573 25.2006 16.9944C25.1338 16.4881 25.0375 16.0036 25.0107 15.515C24.8414 12.4274 26.2594 10.2166 28.8748 8.73497C29.8191 8.26054 30.7881 7.83694 31.7776 7.46591Z" fill="#98984B"/>
<path d="M24.0478 26.5001C22.9955 26.1203 21.97 25.6699 20.9784 25.152C18.8257 23.8461 17.3681 22.019 17.2832 19.3696C17.2582 18.5872 17.3445 17.8012 17.3845 16.9122C18.2068 17.2246 18.9573 17.4747 19.6784 17.7889C21.4626 18.5338 22.9008 19.9233 23.7068 21.6807C24.1919 22.7715 24.371 23.9739 24.2248 25.1588C24.1835 25.5666 24.1177 25.9752 24.0478 26.5001Z" fill="#98984B"/>
<path d="M24.0119 61.4449C22.0517 60.8319 20.211 60.0541 18.8493 58.4095C18.2344 57.6845 17.7791 56.8381 17.5131 55.9255C17.2471 55.0128 17.1764 54.0543 17.3055 53.1124C17.3441 52.7664 17.3809 52.4209 17.4236 52.0277C17.6482 52.067 17.8693 52.1245 18.0846 52.1998C19.0486 52.563 19.9832 53.0003 20.8798 53.5075C23.2995 55.0808 24.495 57.3215 24.2163 60.2556C24.1822 60.6153 24.1214 60.9722 24.0696 61.33C24.0554 61.3707 24.036 61.4092 24.0119 61.4449Z" fill="#98984B"/>
<path d="M25.207 26.4215C24.934 25.2014 24.9283 23.9367 25.1902 22.7141C25.622 21.1488 26.561 19.7711 27.8601 18.797C28.7847 18.1109 29.8208 17.5895 30.9227 17.2559C31.2038 17.1583 31.4916 17.0796 31.7722 16.9934C32.4043 19.7341 31.7981 22.1148 29.7744 24.0709C28.7406 24.9999 27.5164 25.692 26.1873 26.0987C25.8808 26.2068 25.5712 26.3021 25.207 26.4215Z" fill="#98984B"/>
<path d="M31.8008 52.074C32.0619 53.5538 32.164 55.034 31.5769 56.4606C30.9258 58.1163 29.691 59.4764 28.1057 60.2839C27.1935 60.7529 26.2227 61.108 25.2655 61.5193C24.0219 56.8226 27.1476 53.0802 31.8008 52.074Z" fill="#98984B"/>
<path d="M24.0387 52.7765C22.9943 52.3756 21.9713 51.9209 20.9738 51.4143C18.4647 49.9822 16.9131 47.4976 17.3104 44.3255C17.3558 43.9795 17.3863 43.6327 17.4262 43.2599C20.2169 44.0363 22.5571 45.3363 23.7708 48.1133C24.1855 49.1237 24.3386 50.2223 24.2158 51.3076C24.1785 51.7544 24.1095 52.198 24.0387 52.7765Z" fill="#98984B"/>
<path d="M31.8018 43.2227C31.9908 44.2559 32.0322 45.3107 31.9248 46.3556C31.6693 47.895 30.9013 49.3031 29.7454 50.3514C28.664 51.3215 27.3732 52.0288 25.9735 52.4178C25.7387 52.495 25.5058 52.5762 25.1884 52.6838C25.1253 52.1231 25.0404 51.61 25.0132 51.0946C24.8615 48.2291 26.1937 46.1504 28.5185 44.6343C29.0318 44.3278 29.5705 44.0661 30.1286 43.852C30.6639 43.6231 31.2178 43.4402 31.8018 43.2227Z" fill="#98984B"/>
<path d="M24.6348 0.495178C27.7256 4.01867 27.4954 7.92229 24.6452 11.1343C21.915 8.29234 21.4128 4.02049 24.6348 0.495178Z" fill="#98984B"/>
<path d="M23.9116 8.90567H25.3287V74.2489H23.9116V8.90567Z" fill="#98984B"/>
<path d="M35.6971 47.9335C37.6255 48.4724 39.2655 49.356 40.1741 51.2308C40.5483 52.043 40.6898 52.9429 40.5828 53.8307C40.5555 54.1154 40.5092 54.3993 40.4647 54.7303C40.195 54.6358 39.9471 54.5486 39.6974 54.4632C38.5144 54.1043 37.4608 53.4104 36.6638 52.4654C36.238 51.9476 35.9246 51.3469 35.7433 50.7015C35.5621 50.0561 35.517 49.38 35.6109 48.7162C35.639 48.4601 35.6671 48.2032 35.6971 47.9335Z" fill="#98984B"/>
<path d="M35.6966 30.6819C36.9534 30.9832 38.1151 31.5932 39.0766 32.4568C39.6924 33.0415 40.1482 33.774 40.4008 34.5847C40.6534 35.3954 40.6943 36.2573 40.5196 37.0882C40.5087 37.1504 40.5019 37.2126 40.491 37.2748C40.4801 37.337 40.466 37.3938 40.4506 37.4664C38.6307 36.9574 37.0615 36.1278 36.113 34.4083C35.6516 33.517 35.4752 32.5055 35.6076 31.5106C35.6321 31.2409 35.6648 30.9744 35.6966 30.6819Z" fill="#98984B"/>
<path d="M46.0097 42.1746C46.3961 43.9145 46.1459 45.4793 44.9958 46.8373C44.3845 47.5476 43.6115 48.1006 42.7418 48.4497C42.2805 48.6418 41.8056 48.8007 41.2852 48.9946C41.2498 48.7099 41.2212 48.4656 41.1876 48.2227C41.0034 47.0755 41.2516 45.9008 41.8841 44.9262C42.5823 43.8472 43.6192 43.0307 44.8319 42.605C45.2233 42.4584 45.6169 42.3172 46.0097 42.1746Z" fill="#98984B"/>
<path d="M35.6966 42.1778C37.1764 42.6246 38.5118 43.2017 39.4935 44.4099C39.9638 44.9852 40.3 45.6581 40.4778 46.3796C40.6556 47.101 40.6705 47.853 40.5214 48.5809C40.501 48.7031 40.4761 48.8244 40.452 48.9706C39.5732 48.7342 38.7332 48.3717 37.9583 47.8944C37.1302 47.4008 36.4658 46.6744 36.0477 45.8058C35.6296 44.9372 35.4764 43.9647 35.6072 43.0096C35.6271 42.7413 35.6644 42.4752 35.6966 42.1778Z" fill="#98984B"/>
<path d="M41.3028 54.7203C40.4338 50.9852 43.071 48.6177 46.0287 47.9711C46.2857 49.3388 46.2526 50.6596 45.4875 51.8941C44.7081 53.1035 43.5294 54.0013 42.1565 54.4315C41.88 54.53 41.6003 54.6199 41.3028 54.7203Z" fill="#98984B"/>
<path d="M46.0151 30.6311C46.2825 32.1399 46.2421 33.4994 45.3912 34.7839C44.5787 35.9572 43.3912 36.8192 42.0239 37.2281L41.2856 37.4833C41.2375 37.1201 41.1685 36.7709 41.1494 36.4194C41.0273 34.1995 42.0471 32.6099 43.9273 31.5437C44.6066 31.2027 45.3035 30.8981 46.0151 30.6311Z" fill="#98984B"/>
<path d="M40.4565 43.2848C39.6996 43.0116 38.9619 42.6877 38.2484 42.3154C36.7005 41.3764 35.6521 40.0628 35.5904 38.158C35.5727 37.5954 35.6358 37.0301 35.6635 36.3908C36.2537 36.6155 36.7946 36.7954 37.3131 37.0211C38.5959 37.5568 39.6299 38.5558 40.2095 39.8194C40.5581 40.604 40.6869 41.4687 40.5819 42.3208C40.5537 42.6155 40.5065 42.907 40.4565 43.2848Z" fill="#98984B"/>
<path d="M40.4307 66.2102C39.0231 65.7697 37.6973 65.2113 36.7179 64.0271C36.2757 63.5057 35.9485 62.8971 35.7574 62.2408C35.5662 61.5845 35.5155 60.8953 35.6086 60.218C35.6358 59.9697 35.6635 59.7186 35.6935 59.438C35.8551 59.4663 36.0141 59.5077 36.1689 59.5619C36.8623 59.823 37.5344 60.1373 38.1795 60.5018C39.0118 60.9856 39.6831 61.7037 40.1098 62.5667C40.5365 63.4297 40.6996 64.3993 40.5787 65.3544C40.5542 65.6136 40.5102 65.8701 40.4734 66.1262C40.4629 66.156 40.4485 66.1841 40.4307 66.2102Z" fill="#98984B"/>
<path d="M41.2907 43.2262C41.0939 42.3489 41.0897 41.4395 41.2785 40.5605C41.5894 39.4356 42.2645 38.4454 43.1982 37.7452C43.8633 37.2521 44.6084 36.8774 45.4008 36.6373C45.6029 36.567 45.8095 36.5106 46.0111 36.4489C46.2649 37.3471 46.265 38.298 46.0115 39.1963C45.758 40.0945 45.2608 40.905 44.5749 41.538C43.8313 42.2061 42.9508 42.7041 41.995 42.9969C41.7743 43.0723 41.5518 43.1408 41.2907 43.2262Z" fill="#98984B"/>
<path d="M46.0319 59.4675C46.2846 60.5123 46.2287 61.6081 45.8712 62.6218C45.4024 63.8125 44.5141 64.7904 43.3738 65.3711C42.7159 65.708 42.0194 65.9614 41.3306 66.2597C40.4384 62.8838 42.6855 60.1903 46.0319 59.4675Z" fill="#98984B"/>
<path d="M40.4489 60.5241C39.6979 60.2356 38.9623 59.9086 38.2448 59.5446C37.3327 59.0714 36.5897 58.3271 36.1181 57.4142C35.6464 56.5013 35.4694 55.4647 35.6113 54.4469C35.6426 54.1981 35.6662 53.9474 35.6935 53.6795C37.7 54.238 39.3832 55.1729 40.2559 57.1694C40.5533 57.8963 40.6627 58.6866 40.5737 59.467C40.5506 59.7889 40.5006 60.1077 40.4489 60.5241Z" fill="#98984B"/>
<path d="M46.0319 53.6582C46.1688 54.4017 46.1994 55.161 46.1227 55.9131C45.9388 57.0197 45.3866 58.0318 44.5558 58.7854C43.7779 59.4829 42.8495 59.9912 41.8428 60.2707C41.6743 60.3256 41.5058 60.3846 41.2779 60.4622C41.2325 60.059 41.1712 59.6904 41.1521 59.3185C41.0423 57.258 41.9999 55.7627 43.6731 54.673C44.0421 54.4526 44.4295 54.2647 44.8309 54.1109C45.2137 53.9466 45.6123 53.8149 46.0319 53.6582Z" fill="#98984B"/>
<path d="M40.8798 25.62C43.1047 28.1536 42.938 30.9611 40.887 33.2709C38.9219 31.2268 38.5614 28.1564 40.8798 25.62Z" fill="#98984B"/>
<path d="M40.3589 31.6682H41.3778V74.6121H40.3589V31.6682Z" fill="#98984B"/>
<path d="M1.76025 47.6679C3.68864 48.2069 5.3292 49.0905 6.23732 50.9653C6.61157 51.7774 6.75299 52.6774 6.64593 53.5651C6.62005 53.8503 6.57237 54.1337 6.52787 54.4647C6.25861 54.3707 6.01072 54.283 5.76054 54.1977C4.57733 53.839 3.52346 53.1451 2.72651 52.1998C2.30086 51.682 1.9875 51.0812 1.80631 50.4358C1.62512 49.7904 1.58007 49.1144 1.67401 48.4506C1.70216 48.1946 1.73028 47.9376 1.76025 47.6679Z" fill="#98984B"/>
<path d="M1.76068 30.4168C3.01741 30.7182 4.17917 31.3282 5.14073 32.1917C5.75646 32.7764 6.2123 33.509 6.46489 34.3197C6.71747 35.1304 6.75837 35.9921 6.58372 36.8231C6.57282 36.8849 6.56602 36.9475 6.55512 37.0092C6.54422 37.071 6.53014 37.1282 6.51516 37.2013C4.69529 36.6928 3.12562 35.8627 2.17754 34.1432C1.71604 33.2517 1.53961 32.2401 1.67216 31.245C1.69532 30.9753 1.72798 30.7093 1.76068 30.4168Z" fill="#98984B"/>
<path d="M12.0728 41.909C12.4588 43.6494 12.209 45.2136 11.0589 46.5713C10.4476 47.2816 9.67462 47.8346 8.80494 48.1836C8.34362 48.3757 7.86866 48.5346 7.34876 48.7285C7.31289 48.4443 7.28476 48.2 7.25115 47.9566C7.06695 46.8095 7.31519 45.6347 7.94771 44.6601C8.64617 43.5812 9.68314 42.7647 10.8959 42.339C11.2868 42.1928 11.6796 42.052 12.0728 41.909Z" fill="#98984B"/>
<path d="M1.75787 41.9121C3.23583 42.3589 4.57306 42.936 5.55474 44.1443C6.02505 44.7196 6.36134 45.3924 6.53923 46.1138C6.71712 46.8353 6.73216 47.5873 6.58319 48.3153C6.56275 48.437 6.53776 48.5587 6.51324 48.705C5.6345 48.4685 4.79461 48.1061 4.01957 47.6292C2.94258 46.9437 2.14967 45.8919 1.78697 44.6679C1.63133 44.0386 1.59118 43.3863 1.66847 42.7427C1.68981 42.4743 1.72745 42.2095 1.75787 41.9121Z" fill="#98984B"/>
<path d="M7.36559 54.4547C6.49652 50.7196 9.13373 48.3521 12.0915 47.7056C12.3485 49.0732 12.3153 50.394 11.5507 51.6286C10.7711 52.8379 9.59227 53.7358 8.21922 54.1659C7.94315 54.2645 7.66436 54.3544 7.36559 54.4547Z" fill="#98984B"/>
<path d="M12.0764 30.3668C12.3439 31.8756 12.3034 33.2351 11.4525 34.5196C10.6402 35.6931 9.45266 36.5551 8.08523 36.9638L7.34738 37.219C7.2988 36.8558 7.23027 36.5066 7.2112 36.1556C7.08905 33.9357 8.10889 32.346 9.98915 31.2799C10.6682 30.9386 11.3649 30.6338 12.0764 30.3668Z" fill="#98984B"/>
<path d="M6.51965 43.0201C5.76268 42.7471 5.02496 42.4234 4.31155 42.0511C2.76366 41.1121 1.71524 39.7981 1.65349 37.8937C1.63487 37.3312 1.69891 36.7659 1.72615 36.1266C2.31643 36.3514 2.85673 36.5312 3.37572 36.7568C4.65857 37.2925 5.69268 38.2915 6.27217 39.5551C6.62082 40.3397 6.74955 41.2044 6.64453 42.0565C6.61683 42.3503 6.57005 42.6423 6.51965 43.0201Z" fill="#98984B"/>
<path d="M6.49337 65.9446C5.08579 65.5041 3.75994 64.9457 2.78053 63.7615C2.33849 63.2401 2.01127 62.6314 1.82015 61.9751C1.62902 61.3188 1.57828 60.6295 1.67127 59.9523C1.69851 59.7035 1.72622 59.4529 1.75619 59.1718C1.91773 59.2003 2.07671 59.2418 2.23158 59.2959C2.92471 59.5574 3.59672 59.8717 4.2417 60.2361C5.07411 60.7198 5.74559 61.438 6.17228 62.301C6.59898 63.164 6.76202 64.1336 6.64098 65.0887C6.61646 65.3479 6.57284 65.6046 6.53561 65.8606C6.52551 65.8905 6.51129 65.9187 6.49337 65.9446Z" fill="#98984B"/>
<path d="M7.3533 42.9611C7.15671 42.0836 7.15254 41.1741 7.34105 40.2949C7.65203 39.1699 8.32736 38.1797 9.26126 37.4796C9.92629 36.9867 10.6712 36.6119 11.4634 36.3718C11.6655 36.3014 11.8721 36.2451 12.0737 36.1833C12.3275 37.0815 12.3277 38.0325 12.0742 38.9307C11.8207 39.829 11.3235 40.6395 10.6375 41.2724C9.89366 41.9406 9.01308 42.4387 8.05711 42.7318C7.8378 42.8067 7.61529 42.8752 7.3533 42.9611Z" fill="#98984B"/>
<path d="M12.095 59.2018C12.3473 60.2467 12.2914 61.3424 11.9342 62.3562C11.4655 63.5469 10.5772 64.5248 9.4369 65.1055C8.78079 65.4424 8.0829 65.6958 7.39364 65.9941C6.50232 62.6182 8.74855 59.9247 12.095 59.2018Z" fill="#98984B"/>
<path d="M6.51335 60.2562C5.76226 59.968 5.0266 59.6411 4.30934 59.2768C3.39718 58.8036 2.65408 58.0593 2.18244 57.1464C1.7108 56.2334 1.5338 55.1967 1.67578 54.179C1.70711 53.9302 1.73028 53.6796 1.75798 53.4117C3.76446 53.9702 5.44719 54.9051 6.32035 56.9025C6.61792 57.6292 6.72722 58.4194 6.63817 59.1996C6.61365 59.5233 6.56375 59.8416 6.51335 60.2562Z" fill="#98984B"/>
<path d="M12.0955 53.3926C12.2315 54.1361 12.2613 54.8952 12.1841 55.6471C12.0003 56.7538 11.4481 57.7661 10.6171 58.5198C9.83925 59.2175 8.91059 59.7258 7.90368 60.0051C7.73523 60.06 7.56722 60.1191 7.33882 60.1972C7.29342 59.794 7.23258 59.4253 7.21306 59.0534C7.10318 56.9924 8.06079 55.4972 9.734 54.4079C10.103 54.1874 10.4904 53.9991 10.8918 53.8453C11.2769 53.6805 11.6742 53.5502 12.0955 53.3926Z" fill="#98984B"/>
<path d="M6.94146 25.3544C9.16635 27.8881 8.9997 30.6956 6.94872 33.0054C4.98673 30.9616 4.6244 27.8917 6.94146 25.3544Z" fill="#98984B"/>
<path d="M6.42206 31.4026H7.44097V74.3465H6.42206V31.4026Z" fill="#98984B"/>
</svg>
