<svg width="73" height="74" viewBox="0 0 73 74" fill="none" xmlns="http://www.w3.org/2000/svg">
<path d="M65.6576 0.379272H7.65264C3.59755 0.379272 0.310242 3.66658 0.310242 7.72167V65.7267C0.310242 69.7817 3.59755 73.069 7.65264 73.069H65.6576C69.7127 73.069 73 69.7817 73 65.7267V7.72167C73 3.66658 69.7127 0.379272 65.6576 0.379272Z" fill="white"/>
<path d="M56.4283 59.2806C56.4509 61.4833 55.6485 63.2228 53.1872 63.753H52.3355C51.547 63.6368 50.8168 63.2702 50.2526 62.7072C49.6885 62.1442 49.3204 61.4147 49.2026 60.6265C49.1455 60.2762 49.1239 59.9211 49.138 59.5664C49.1322 53.617 49.1302 47.6667 49.1322 41.7156C49.1437 41.4863 49.1224 41.2566 49.069 41.0333C47.8825 37.1713 46.684 33.3129 45.4558 29.3376C44.5308 30.1305 43.6086 30.9185 42.6892 31.7014L42.6561 31.7301L42.5932 31.7859C42.5732 31.8042 42.5503 31.8247 42.5201 31.849C40.703 33.4806 38.7907 35.0029 36.7934 36.408C36.1373 36.7947 35.3544 36.9049 34.617 36.7144C33.8797 36.524 33.2481 36.0484 32.8614 35.3923C32.8022 35.2922 32.7493 35.1885 32.703 35.0818C32.5134 34.6926 32.4299 34.2601 32.4611 33.8282C32.4923 33.3963 32.6371 32.9803 32.8807 32.6223C33.1921 32.1898 33.5534 31.7954 33.9571 31.4474C35.3961 30.1015 36.836 28.7681 38.3318 27.495C40.5344 25.6189 42.7389 23.7425 44.9451 21.8658C45.2132 21.6328 45.4978 21.4195 45.7968 21.2278C46.5177 20.7912 47.3748 20.637 48.2027 20.7948C49.0306 20.9526 49.7709 21.4113 50.2807 22.0824C50.7995 22.708 51.1936 23.4273 51.4416 24.2013C53.0422 29.2184 54.5935 34.2509 56.1341 39.2858C56.3041 39.8623 56.3906 40.4602 56.3912 41.0613C56.4129 47.1355 56.3578 53.21 56.4283 59.2806Z" fill="#98984B"/>
<path d="M49.6944 14.6125C49.6896 15.6803 49.3684 16.7226 48.7713 17.6078C48.1741 18.4929 47.3279 19.1812 46.3396 19.5854C45.3514 19.9897 44.2654 20.0918 43.2191 19.8789C42.1728 19.6659 41.2132 19.1475 40.4615 18.3892C39.7098 17.6309 39.1998 16.6667 38.9961 15.6186C38.7924 14.5704 38.9041 13.4854 39.317 12.5007C39.73 11.5161 40.4256 10.6759 41.316 10.0866C42.2064 9.4973 43.2515 9.18525 44.3193 9.18992H44.3344C45.7607 9.20942 47.1222 9.78895 48.125 10.8034C49.1277 11.8179 49.6914 13.1861 49.6944 14.6125Z" fill="#98984B"/>
<path d="M42.5205 31.851C42.1145 32.2099 41.052 33.1455 39.8771 34.1095C40.757 33.3583 41.6381 32.6054 42.5205 31.851Z" fill="#98984B"/>
<path d="M28.3025 19.9496C27.6879 20.4409 27.0456 20.9953 26.3986 21.6165L42.3374 37.227C42.4251 37.3129 42.495 37.4152 42.5431 37.528C42.5912 37.6409 42.6166 37.7621 42.6179 37.8848C42.6192 38.0075 42.5962 38.1293 42.5505 38.2431C42.5047 38.3569 42.4369 38.4607 42.3511 38.5483C42.2652 38.636 42.1629 38.7058 42.0501 38.754C41.9372 38.8021 41.816 38.8275 41.6933 38.8288C41.5706 38.83 41.4488 38.8072 41.335 38.7614C41.2211 38.7156 41.1174 38.6478 41.0298 38.562L25.0968 22.9555C23.1953 25.0449 21.6298 27.4168 20.4564 29.9867C20.4482 30.0036 20.4345 30.0171 20.4175 30.025C20.4005 30.0329 20.3813 30.0348 20.3631 30.0302C20.3449 30.0256 20.3289 30.0149 20.3176 29.9999C20.3064 29.9849 20.3007 29.9665 20.3015 29.9478C20.4807 26.8621 21.6735 23.9218 23.6946 21.5833L23.6702 21.5606C23.4941 21.3884 23.393 21.1537 23.3889 20.9074C23.3848 20.6611 23.478 20.4231 23.6482 20.2451C23.8185 20.0671 24.0521 19.9634 24.2984 19.9566C24.5446 19.9498 24.7836 20.0403 24.9635 20.2086C24.9689 20.2137 24.9742 20.2189 24.9793 20.2242L25.0295 20.273C25.7707 19.6484 26.5744 19.1019 27.4277 18.6422C27.6006 18.5493 27.802 18.524 27.9925 18.5714C28.183 18.6189 28.349 18.7355 28.4582 18.8986C28.5674 19.0618 28.612 19.2597 28.5832 19.4539C28.5544 19.6481 28.4544 19.8247 28.3025 19.9491V19.9496Z" fill="#98984B"/>
<path d="M33.0555 55.0345C25.5522 56.9655 26.2268 61.496 26.2872 61.5311" stroke="#98984B" stroke-width="0.334" stroke-miterlimit="10"/>
<path d="M26.6057 59.457C26.6057 59.457 26.9176 55.4429 19.8021 52.4046" stroke="#98984B" stroke-width="0.334" stroke-miterlimit="10"/>
<path d="M25.4906 56.4891V56.5066C18.1158 59.4216 17.0901 51.1466 17.0901 51.1466C28.6761 48.5959 25.6173 56.1888 25.4906 56.4891Z" fill="#98984B" stroke="#98984B" stroke-width="0.334" stroke-miterlimit="10"/>
<path d="M35.7743 53.6411C35.7743 53.6411 35.1736 61.4767 27.945 57.5771L27.8819 57.5428V57.5625C27.8819 57.5625 26.2402 51.9323 35.7743 53.6411Z" fill="#98984B"/>
<path d="M28.1617 59.9078C28.2219 61.0091 28.4965 60.8338 28.5896 60.8518C28.8672 60.9033 29.141 60.7961 29.4128 61.1655C29.5295 61.3205 29.6655 60.7756 29.7264 60.8034C29.9333 60.9008 30.1382 60.7946 30.3305 60.8638C30.4523 60.9069 30.4628 60.9944 30.5618 60.6669C30.6912 60.2434 30.8203 60.8923 30.8466 61.1699C30.901 61.7572 31.0852 61.7462 31.1235 61.6309C31.2468 61.2639 31.3621 61.4116 31.4846 61.4759C31.5838 61.5303 31.6784 61.6904 31.713 61.1545C31.7205 61.0393 31.8209 60.6228 31.9157 61.0407C32.0449 61.6156 32.1292 60.788 32.2827 60.9201C32.6373 61.2293 33.0169 61.1699 33.3842 61.3497C33.641 61.4745 33.815 60.7892 33.9817 60.2175C34.048 60.8872 34.3092 60.9342 34.3943 60.9157C34.6136 60.8697 34.793 60.827 34.9268 61.5033C35.0588 60.9584 35.294 62.1641 35.4224 61.136C35.5033 60.5082 35.7066 60.7322 35.8277 61.0899C35.9364 61.4084 36.0414 61.4474 36.1688 61.4099C36.2078 61.3997 36.2797 61.1906 36.2841 61.4475C36.3024 62.4247 36.5395 62.1541 36.6894 62.1744C36.895 62.2029 36.9881 62.4878 37.0242 63.1786H16.4716C16.407 62.1244 16.7608 61.9651 16.8517 61.9892C17.1381 62.0623 17.3608 61.0839 17.6483 61.573C17.6713 60.9857 17.9054 61.5598 17.9339 61.0025C18.0361 61.1677 18.1389 61.3504 18.2556 61.1933C18.3217 61.1046 18.4077 61.3183 18.4581 60.9835C18.5044 60.6757 18.5312 60.7264 18.5763 61.048C18.6092 61.272 18.7225 61.4701 18.8185 61.3197C18.8702 61.2418 18.9324 61.2293 18.9538 61.3107C19.2043 62.2823 19.4597 61.3756 19.7107 61.3424C19.7256 61.3424 19.7511 61.1231 19.7631 61.233C19.8893 62.286 19.9956 61.3137 20.1043 61.1984C20.4176 60.8606 20.735 60.9011 21.0249 61.341C21.2106 61.6229 21.4022 61.5408 21.5866 61.6728C21.9536 61.9373 22.2877 60.7749 22.6394 60.9642C22.9075 61.1068 23.1484 60.6837 23.4221 60.993C23.6799 61.28 23.9867 61.145 24.2687 60.9357C24.3752 60.8563 24.4832 60.73 24.5838 60.9686C24.6286 61.0751 24.6728 61.1728 24.7005 60.9627C24.8538 59.766 24.9362 61.1626 25.058 61.0663C25.0492 61.388 25.1418 61.5003 25.1886 61.4475C25.4184 61.1904 25.6646 61.6039 25.8988 61.1272C26.111 60.6935 26.3783 60.8784 26.6198 60.9459C26.9978 61.0524 27.3738 61.3712 27.7474 61.3197C27.8436 61.3071 28.1081 60.9423 28.1617 59.9078Z" fill="#98984B"/>
</svg>
