<svg width="79" height="79" viewBox="0 0 79 79" fill="none" xmlns="http://www.w3.org/2000/svg">
<g clip-path="url(#clip0_4_67)">
<path d="M69.5738 0H9.42619C4.22025 0 0 4.22025 0 9.42619V69.5738C0 74.7797 4.22025 79 9.42619 79H69.5738C74.7797 79 79 74.7797 79 69.5738V9.42619C79 4.22025 74.7797 0 69.5738 0Z" fill="white"/>
<path d="M68.8222 37.8503C68.8222 37.8187 68.8223 37.7831 68.8199 37.7528C68.8018 37.7213 68.7792 37.6927 68.7527 37.6678C68.5065 37.5023 68.2099 37.4287 67.9148 37.4598C67.4861 37.4514 66.8061 37.5572 66.7551 37.1779C66.7409 37.0771 66.5336 37.1588 66.4231 37.1632C66.0931 37.1922 65.7608 37.1496 65.4488 37.0382C65.1011 36.8981 64.5185 36.8107 64.2857 37.055C63.9104 37.4538 63.2442 36.9855 62.8649 37.1971C62.4826 36.9344 61.9736 36.9512 61.3383 36.9697C61.0944 36.9764 60.3435 36.9572 60.1557 36.6985C59.6361 37.0003 59.043 37.1523 58.4422 37.1373C57.3876 37.0671 56.3008 37.0907 55.2842 36.9721C54.8444 36.9193 54.6001 37.2408 54.2296 37.0187C54.1402 36.9649 54.0362 36.9403 53.9322 36.9484C53.8282 36.9566 53.7293 36.997 53.6494 37.0641C53.5486 37.2717 53.2798 37.2082 52.9899 37.1894C52.6464 37.1246 52.2922 37.145 51.9584 37.2489C51.8476 37.2942 51.3201 37.2976 51.1639 37.0684C51.0637 36.9573 50.9322 36.8791 50.7866 36.8443C50.6411 36.8096 50.4885 36.8197 50.3488 36.8735C50.1428 36.9734 49.909 37.0003 49.6856 36.9498C49.133 36.9243 48.5434 36.9647 47.9494 36.927C47.7787 36.9166 47.3853 37.1286 47.0533 37.0671C46.2709 36.9663 45.4818 36.926 44.6932 36.9465C44.4214 36.9401 43.6362 37.0079 43.4652 36.5796C43.3087 36.9827 42.5534 37.1255 42.2749 37.1286C41.2042 37.1497 40.1217 37.0248 39.0395 36.9844C38.3505 36.9076 37.654 36.9312 36.9717 37.0543C36.2998 37.2388 35.5942 37.0772 34.9361 37.1773C34.7997 37.1984 34.5403 37.1561 34.5608 37.0308C34.211 37.0671 33.9782 36.5242 33.5361 36.9905C33.4582 37.0711 33.3315 37.0332 33.2045 36.9929C32.9078 36.926 32.6005 36.9217 32.3021 36.9801C31.4976 37.0833 30.6836 37.0904 29.8774 37.0013C29.0896 36.8827 28.3968 37.047 27.6322 36.9905C26.6209 36.9166 25.6564 37.3681 24.6085 37.2664C24.0702 37.2514 23.533 37.2083 22.9992 37.137C22.1292 36.9665 21.2362 36.9478 20.3599 37.0819C20.0514 37.1272 19.746 37.5039 19.3855 37.0947C19.3486 37.0544 19.2747 37.137 19.2334 37.137C18.5127 37.1498 17.7827 37.5008 17.0644 37.1242C16.937 37.0948 16.8044 37.0963 16.6777 37.1286C16.4408 37.183 16.1921 37.1451 15.9822 37.0224C15.8442 36.8974 15.7749 36.8783 15.6439 36.9969C15.5011 37.1283 15.2502 37.0422 15.0613 37.0795C14.7516 37.118 14.4373 37.0928 14.1378 37.0053C14.0571 37.2216 13.3849 36.9992 13.3204 37.226C12.4959 37.0375 11.8579 37.4192 11.0382 37.3893C10.8366 37.3809 10.2093 37.4148 9.99666 37.6097V37.8785L9.98993 38.2749C9.98993 38.4893 9.99229 38.7012 9.99666 38.9153C10.3031 53.3531 23.1178 65.3759 39.4252 65.3971C55.6547 65.4142 68.8239 53.2892 68.831 38.2793V38.2749C68.8269 38.1345 68.8269 37.9924 68.8222 37.8503ZM65.7552 44.59C65.6784 44.7129 65.6285 44.8508 65.6089 44.9945C65.5893 45.1381 65.6005 45.2842 65.6417 45.4232C65.7455 45.9386 65.4297 46.3304 65.1905 46.7503C65.0904 46.9428 65.0115 47.1455 64.9553 47.355C64.906 47.6376 64.8225 47.9131 64.7067 48.1755C64.4572 48.5857 64.3332 49.06 64.3499 49.5398C64.3244 50.4199 64.0258 51.2702 63.4955 51.9729C60.9528 55.7466 57.504 58.822 53.4649 60.9177C49.861 62.8232 45.9017 63.9623 41.8361 64.2632C38.173 64.5582 34.4866 64.1912 30.9535 63.1797C29.4926 62.7606 28.0667 62.2276 26.6891 61.5856C24.226 60.4514 21.9396 58.9676 19.9006 57.18C16.7844 54.4854 14.3575 51.0849 12.8221 47.262C11.6754 44.4036 11.0913 41.3507 11.102 38.2709H23.1998C23.327 38.417 23.4189 38.5902 23.4685 38.7775C23.5539 39.0798 23.7242 39.3584 23.8324 39.6554C23.8669 39.7685 23.9296 39.871 24.0146 39.9533C24.0996 40.0355 24.204 40.0949 24.3182 40.1258C24.6014 40.2124 24.926 40.2974 24.6935 40.6898C24.7567 40.7127 24.8212 40.7317 24.8867 40.7469C25.2675 40.7657 25.6267 40.9295 25.8905 41.2048C26.031 41.3728 26.1667 41.3362 26.2544 41.1377C26.2823 41.0559 26.3271 40.9808 26.3857 40.9173C26.4939 40.8219 26.6599 40.6606 26.7382 40.6861C26.9 40.751 27.0355 40.8682 27.1229 41.0191C27.2755 41.3123 27.4102 41.6146 27.526 41.9242C27.561 42.0103 27.5783 42.1026 27.5767 42.1956C27.5807 42.5597 27.5615 42.9238 27.5193 43.2855C27.4743 43.4474 27.3675 43.5852 27.222 43.6691C27.0204 43.7921 26.849 43.8876 26.8524 44.1506C26.8524 44.248 26.7281 44.378 26.625 44.4388C26.3034 44.6669 26.0763 45.0048 25.9866 45.3887C25.9605 45.5133 25.9758 45.6431 26.0303 45.7582C26.0967 45.9012 26.1236 46.0595 26.1082 46.2164C26.0928 46.3734 26.0356 46.5234 25.9426 46.6508C25.8772 46.741 25.8448 46.851 25.8509 46.9622C25.857 47.0734 25.9013 47.1792 25.9762 47.2617C26.5725 48.1483 27.1551 49.0403 27.7447 49.9286C27.8057 50.0248 27.8785 50.1131 27.9614 50.1913C28.2595 50.4456 28.4818 50.7771 28.6038 51.1495C28.6432 51.2559 28.7119 51.3491 28.802 51.4182C29.2597 51.8346 29.7744 52.1838 30.3306 52.455C30.6693 52.6012 30.9777 52.8112 31.3026 52.9828C31.3822 53.0174 31.4504 53.0737 31.4993 53.1454C31.5482 53.2171 31.5758 53.3012 31.5788 53.388C31.6527 54.4352 31.7239 55.4848 31.8254 56.532C31.8626 56.8863 31.9415 57.235 32.0605 57.5708C32.1403 57.7591 32.1798 57.9619 32.1766 58.1664C32.1734 58.3708 32.1276 58.5724 32.042 58.7581C31.9377 58.967 31.8794 59.1959 31.8711 59.4293C31.8628 59.6627 31.9047 59.8951 31.994 60.111C32.2403 60.7933 32.4425 61.4912 32.6891 62.1738C32.7526 62.324 32.8612 62.4506 32.9999 62.5363C33.936 63.1894 35.0658 63.5063 36.205 63.4353C36.27 63.4323 36.3337 63.4156 36.3918 63.3863C35.8828 63.0839 35.222 63.0345 34.8 62.5427C34.9019 62.5199 34.9987 62.4782 35.0852 62.4197C35.1474 62.3583 35.1524 62.2481 35.186 62.1483C35.3009 62.11 35.4363 62.07 35.658 61.9998C35.3473 61.8452 35.1054 61.727 34.8198 61.5842C35.0214 61.5035 35.1746 61.4354 35.3332 61.3796C35.4918 61.3238 35.5173 61.2432 35.4676 61.1038C35.3869 60.8834 35.3224 60.6586 35.2351 60.3788C35.5784 60.4574 35.857 60.5208 36.1886 60.5971C36.1886 60.4214 36.1953 60.2749 36.1862 60.1308C36.1771 59.9867 36.2299 59.9121 36.3982 59.9017C36.8564 59.8789 37.3147 59.8382 37.7757 59.819C37.9554 59.8127 38.0337 59.7595 37.99 59.5899C37.9872 59.5816 37.9856 59.5731 37.9853 59.5644C38.0072 59.3258 37.9342 59.0882 37.7819 58.9032C37.6297 58.7182 37.4106 58.6007 37.1723 58.5763C36.9928 58.5434 36.8195 58.4825 36.6589 58.3959C36.5525 58.32 36.4586 58.228 36.3804 58.1234C36.414 58.0871 36.4425 58.0512 36.4748 58.0172C36.7741 58.1674 37.0735 58.3197 37.3752 58.4668C37.6757 58.6282 37.9846 58.7732 38.3008 58.9012C38.452 58.9253 38.6068 58.913 38.7523 58.8652C39.0068 58.8381 39.2515 58.7521 39.4669 58.614C39.6823 58.4758 39.8626 58.2893 39.9934 58.0693C40.0737 57.9328 40.189 57.8201 40.3273 57.7428C40.6001 57.5859 40.88 57.4565 40.9744 57.1259C40.9996 57.0325 41.176 56.9667 41.2966 56.9076C41.4086 56.8688 41.5047 56.7941 41.5701 56.6952C41.6354 56.5963 41.6664 56.4786 41.6581 56.3603C41.6376 56.1899 41.6813 56.018 41.7806 55.8781C41.88 55.7382 42.028 55.6403 42.1956 55.6036C42.6448 55.432 43.0799 55.2264 43.5197 55.0325C43.7848 54.8831 44.0941 54.8321 44.3932 54.8884C44.6075 54.9411 44.7291 54.7991 44.8491 54.666C45.3082 54.0912 45.6863 53.4561 45.9729 52.7785C46.2436 52.3088 46.3196 51.7518 46.1845 51.2267C46.1826 51.1724 46.1953 51.1185 46.2212 51.0707C46.2471 51.0229 46.2854 50.9829 46.332 50.9549C46.5155 50.8932 46.6804 50.7863 46.8116 50.644C46.9428 50.5018 47.036 50.3287 47.0826 50.1408C47.2327 49.8033 47.4744 49.5147 47.7804 49.3076C48.031 49.0861 48.1954 48.7832 48.2445 48.4524C48.2937 48.1215 48.2245 47.784 48.0491 47.4992C48.0058 47.4543 47.9528 47.4199 47.8942 47.3986C47.8356 47.3772 47.7729 47.3696 47.7108 47.3762C47.5629 47.4194 47.4058 47.4201 47.2575 47.3781C47.1092 47.336 46.9758 47.2531 46.8726 47.1387C46.7231 46.9986 46.5387 46.8927 46.3935 46.7523C46.2832 46.6498 46.1481 46.5777 46.0015 46.5431C45.8549 46.5086 45.7018 46.5127 45.5573 46.5551C45.4078 46.5976 45.2542 46.6238 45.099 46.6334C44.9247 46.6426 44.7508 46.6091 44.5924 46.5359C44.4977 46.4648 44.3863 46.4192 44.2689 46.4036C44.1515 46.388 44.0321 46.403 43.9221 46.4469C43.8885 46.466 43.8514 46.4782 43.813 46.4829C43.7747 46.4875 43.7357 46.4846 43.6985 46.4742C43.6612 46.4639 43.6264 46.4463 43.5959 46.4225C43.5655 46.3987 43.54 46.3691 43.521 46.3354C43.5173 46.328 43.5133 46.321 43.5099 46.3132C43.3721 46.1139 43.1939 45.9457 42.9869 45.8197C42.7798 45.6937 42.5486 45.6126 42.3082 45.5818C42.1628 45.5671 42.0172 45.6076 41.9003 45.6954C41.8333 45.7632 41.742 45.8017 41.6467 45.8023C41.5513 45.8029 41.4596 45.7657 41.3917 45.6987L41.3799 45.6867C40.956 45.3683 40.657 44.9114 40.5349 44.3955C40.2285 43.1998 40.4708 43.4921 39.2314 42.8501C38.8438 42.6556 38.3969 42.6151 37.9806 42.7365C37.7923 42.8021 37.5874 42.8019 37.3993 42.736C37.2111 42.6702 37.0508 42.5426 36.9445 42.374C36.8524 42.249 36.7281 42.1429 36.6314 42.0199C36.5319 41.866 36.4018 41.7343 36.2492 41.6329C36.0966 41.5315 35.9248 41.4627 35.7444 41.4307C35.6464 41.4217 35.5536 41.3828 35.4786 41.3191C35.4036 41.2554 35.3501 41.1701 35.3254 41.0748C35.2801 40.9179 35.2344 40.6995 35.1135 40.6381C34.8221 40.4775 34.5029 40.374 34.1728 40.333C33.7044 40.3091 33.2348 40.3204 32.7681 40.3667C32.5046 40.3717 32.2468 40.2905 32.0337 40.1355C31.6191 39.8872 31.184 39.6651 30.7536 39.4441C30.6417 39.39 30.5191 39.3616 30.3948 39.3609C30.2704 39.3602 30.1475 39.3873 30.035 39.44C29.9694 39.4695 29.9021 39.495 29.8334 39.5163C28.9908 39.7387 28.2816 40.121 27.8808 40.8772C27.8795 40.9188 27.8623 40.9583 27.8327 40.9874C27.8031 41.0165 27.7633 41.0331 27.7218 41.0337C27.6802 41.0342 27.6401 41.0188 27.6097 40.9904C27.5793 40.9621 27.561 40.9232 27.5586 40.8817C27.307 40.6186 26.9697 40.4539 26.6075 40.4173C26.4855 40.4179 26.368 40.4641 26.2782 40.5467C26.1709 40.6557 26.0247 40.7176 25.8717 40.7188C25.7187 40.72 25.5715 40.6604 25.4625 40.5531C25.4224 40.5136 25.3884 40.4682 25.3617 40.4187C25.2919 40.2892 25.2118 40.1657 25.1222 40.0491C24.6777 39.5637 24.7284 39.0379 24.9565 38.495L25.0533 38.2661H56.4896C56.523 38.307 56.5534 38.3502 56.5807 38.3955C56.6893 38.6371 56.8839 38.8298 57.1266 38.9361C57.1907 38.9755 57.245 39.029 57.2853 39.0926C57.3256 39.1562 57.3508 39.2282 57.3591 39.303C57.3769 39.4809 57.4454 39.6499 57.5564 39.7901C57.6674 39.9303 57.8163 40.0357 57.9853 40.0938C58.4251 40.3015 58.8397 40.5625 59.2539 40.8104C59.3225 40.8638 59.4049 40.8965 59.4914 40.9046C59.5779 40.9126 59.6649 40.8956 59.7421 40.8558C60.0403 40.7102 60.3308 40.5496 60.6126 40.3744C60.7163 40.2869 60.8389 40.2248 60.9707 40.1928C61.1025 40.1608 61.2399 40.1598 61.3722 40.1899C61.459 40.2188 61.553 40.2174 61.6388 40.1858C61.7247 40.1542 61.7972 40.0944 61.8446 40.0162C61.9551 39.8697 62.0838 39.7363 62.1876 39.5858C62.4501 39.2321 62.8175 38.9702 63.2375 38.8373C63.5852 38.706 63.7461 38.7439 63.9145 39.0557C64.0411 39.2952 64.1772 39.3483 64.452 39.2509C64.8367 39.1108 64.9126 39.1703 64.9976 39.5348C65.1079 39.9998 65.0992 40.4851 64.9721 40.9458C64.905 41.1675 64.8932 41.4023 64.9378 41.6296C64.9824 41.8569 65.0819 42.0698 65.2278 42.2497C65.6981 42.8686 65.7529 43.5936 65.815 44.3125C65.8278 44.408 65.8092 44.5051 65.7619 44.589L65.7552 44.59Z" fill="#98984B"/>
<path d="M15.8367 37.2153C15.8079 37.2071 15.7783 37.2015 15.7484 37.1988C15.6247 37.1964 15.5011 37.1988 15.3788 37.1961C15.3407 37.1953 15.3038 37.1823 15.2736 37.159C15.2433 37.1357 15.2214 37.1034 15.2108 37.0667C15.1923 36.9995 15.2374 36.9495 15.3247 36.9401C15.5535 36.9146 15.7816 36.8857 16.0104 36.8618C16.0712 36.8555 16.0931 36.8282 16.0907 36.7708C16.082 36.5242 16.0749 36.2769 16.0659 36.03C16.0534 35.6812 16.043 35.3318 16.0249 34.9838C16.0192 34.8682 15.9913 34.7536 15.9795 34.638C15.9674 34.549 15.9626 34.4592 15.9651 34.3693C15.9881 33.961 15.9633 33.5513 15.8912 33.1488C15.8606 33.0325 15.8175 32.9198 15.7628 32.8128C15.752 32.7876 15.7334 32.7666 15.7098 32.7529C15.6861 32.7392 15.6586 32.7334 15.6315 32.7365C15.5529 32.7338 15.4748 32.7498 15.4037 32.7832C15.3325 32.8166 15.2703 32.8665 15.2222 32.9287C15.1368 33.0361 15.0292 33.1239 14.9069 33.1861C14.7845 33.2483 14.6502 33.2834 14.513 33.2892C14.3814 33.3034 14.2483 33.2866 14.1244 33.2399C14.0004 33.1932 13.8893 33.118 13.7998 33.0204C13.7105 32.9024 13.6562 32.7616 13.6432 32.6142C13.6078 32.4261 13.6288 32.2317 13.7037 32.0555C13.8115 31.7974 13.9231 31.5405 14.0326 31.2828C14.0857 31.1585 14.1462 31.0362 14.1875 30.9082C14.222 30.7981 14.2445 30.6845 14.2547 30.5695C14.2684 30.4274 14.2399 30.3959 14.1082 30.3488C14.063 30.3257 14.0105 30.321 13.9619 30.3357C13.9133 30.3504 13.8723 30.3834 13.8475 30.4277C13.7716 30.5416 13.6593 30.6265 13.529 30.6683C13.435 30.6998 13.3524 30.7585 13.2917 30.8369C13.231 30.9152 13.1949 31.0099 13.188 31.1088C13.1754 31.2051 13.171 31.3023 13.1749 31.3994C13.1725 31.4467 13.1668 31.4941 13.1628 31.5415L13.1349 31.5495C13.0993 31.5139 13.0679 31.4742 13.0415 31.4313C12.9693 31.2798 12.8974 31.1269 12.8399 30.9696C12.8213 30.9108 12.8256 30.847 12.852 30.7912C12.9689 30.5688 13.0953 30.3512 13.2216 30.1345C13.2526 30.082 13.295 30.0371 13.3457 30.0032C13.3965 29.9693 13.4541 29.9472 13.5145 29.9386C13.7448 29.8961 13.9825 29.9187 14.2006 30.0041C14.3008 30.0462 14.387 30.116 14.4491 30.2052C14.5112 30.2944 14.5466 30.3994 14.5513 30.508C14.569 30.7056 14.5317 30.9042 14.4435 31.0819C14.3102 31.3965 14.1738 31.7101 14.0343 32.0226C13.9929 32.115 13.9712 32.2149 13.9705 32.3161C13.9698 32.4173 13.9902 32.5176 14.0303 32.6105C14.0635 32.7022 14.1302 32.7779 14.2169 32.8225C14.3037 32.867 14.404 32.8771 14.4979 32.8508C14.592 32.8349 14.6765 32.7837 14.7341 32.7076C14.7917 32.6316 14.8182 32.5364 14.808 32.4415C14.7973 32.2853 14.7832 32.128 14.7879 31.9711C14.8067 31.7024 14.9259 31.4506 15.1218 31.2657C15.2249 31.1565 15.357 31.0734 15.4699 30.974C15.7439 30.7556 16.0716 30.6149 16.4186 30.5665C16.6461 30.5086 16.8864 30.5287 17.101 30.6236C17.2023 30.6616 17.2917 30.7259 17.36 30.8098L17.1829 30.7819L17.365 30.9555L17.1635 30.9166L17.1547 30.9395C17.1898 30.9639 17.2263 30.9863 17.2639 31.0066C17.5259 31.1172 17.7528 31.2971 17.9201 31.527C17.9592 31.5745 18.008 31.6133 18.0632 31.6406C18.1693 31.7031 18.2802 31.7578 18.3887 31.8173C18.6394 31.9679 18.8709 32.1485 19.0781 32.3549C19.185 32.453 19.2888 32.5548 19.3852 32.6626C19.4335 32.7236 19.4723 32.7916 19.5001 32.8642C19.2454 32.7153 18.962 32.6223 18.6686 32.5914C18.3681 32.5716 18.0669 32.6182 17.7863 32.7278C17.8902 32.7812 17.9738 32.8323 18.0635 32.8676C18.098 32.8765 18.1286 32.8962 18.1509 32.9239C18.1732 32.9517 18.1859 32.9858 18.1872 33.0214C18.1878 33.0497 18.1771 33.0772 18.1576 33.0977C18.138 33.1183 18.111 33.1302 18.0827 33.131H18.081C17.9758 33.1384 17.8712 33.1535 17.7682 33.1763C17.3274 33.2902 16.8876 33.4115 16.4475 33.527C16.432 33.5302 16.4177 33.5378 16.4064 33.5489C16.3951 33.5601 16.3873 33.5743 16.384 33.5899C16.362 33.6478 16.3537 33.71 16.3595 33.7716C16.3653 33.8333 16.3852 33.8929 16.4176 33.9457C16.4351 33.9672 16.4433 33.9948 16.4405 34.0224C16.4376 34.05 16.424 34.0753 16.4025 34.0928L16.3958 34.0978C16.3697 34.1149 16.3378 34.121 16.3072 34.1147C16.2766 34.1084 16.2498 34.0902 16.2325 34.0642C16.2097 34.038 16.1858 34.0118 16.1546 33.9762C16.179 34.0789 16.1956 34.1835 16.2043 34.2887C16.2043 34.4567 16.1848 34.6247 16.1801 34.7927C16.1734 35.0463 16.165 35.3003 16.1717 35.5536C16.1814 35.9231 16.2033 36.2944 16.2228 36.6647C16.2249 36.7066 16.2364 36.7476 16.2564 36.7846C16.2747 36.8126 16.2874 36.844 16.2937 36.8769C16.2999 36.9099 16.2996 36.9438 16.2927 36.9766C16.2859 37.0094 16.2726 37.0406 16.2537 37.0683C16.2347 37.096 16.2105 37.1197 16.1824 37.138C16.1611 37.1521 16.1378 37.1629 16.1132 37.1699C16.0598 37.1881 16.0047 37.2035 15.9506 37.2183L15.8367 37.2153ZM17.79 32.9512C17.6604 32.9014 17.5794 32.7671 17.4316 32.8504C17.0228 32.9102 16.6103 32.9406 16.1972 32.9415C16.0434 32.9415 16.042 32.9374 16.0504 33.0943C16.0496 33.1038 16.0496 33.1133 16.0504 33.1228C16.0625 33.2293 16.0753 33.3362 16.086 33.4272C16.6441 33.2434 17.2112 33.1208 17.7887 32.9512H17.79Z" fill="#98984B"/>
<path d="M24.8437 17.9238C24.969 17.9319 25.094 17.9379 25.2196 17.949C25.37 17.9567 25.5198 17.9734 25.6681 17.999C25.8699 18.044 26.0477 18.1625 26.167 18.3313C26.1815 18.3529 26.1895 18.3782 26.1901 18.4042C26.1907 18.4302 26.1839 18.4558 26.1704 18.4781C26.0871 18.6649 26.0068 18.8527 25.9201 19.0382C25.8746 19.1366 25.8547 19.2449 25.8622 19.353C25.8698 19.4612 25.9045 19.5657 25.9632 19.6569C26.0219 19.748 26.1027 19.8229 26.1981 19.8745C26.2935 19.9261 26.4003 19.9527 26.5087 19.952C26.7227 19.9668 26.9367 19.9802 27.1504 19.9964C27.2125 19.9979 27.2732 20.0153 27.3267 20.0469C27.3802 20.0784 27.4247 20.1231 27.4561 20.1767C27.4792 20.2134 27.5093 20.2452 27.5447 20.2701C27.5801 20.2951 27.6201 20.3128 27.6624 20.3222C27.8015 20.3612 27.9399 20.4028 28.0787 20.4428L28.0757 20.4627C28.0142 20.4586 27.952 20.4576 27.8909 20.4495C27.6943 20.4224 27.494 20.4491 27.3113 20.5268C27.0839 20.6219 26.848 20.6968 26.6236 20.7956C26.3495 20.9179 26.3548 20.9256 26.338 21.2216C26.3313 21.3045 26.3442 21.3877 26.3758 21.4646C26.4074 21.5415 26.4567 21.6099 26.5198 21.664C26.6428 21.7736 26.7795 21.8687 26.9099 21.9695C26.972 22.0182 27.0342 22.0672 27.0946 22.118C27.123 22.1402 27.1446 22.17 27.1569 22.2039C27.1691 22.2378 27.1717 22.2745 27.1642 22.3098C27.1262 22.5231 27.0903 22.7365 27.0493 22.9481C27.0381 22.9987 27.0187 23.0472 26.9918 23.0916C26.9055 23.238 26.8205 23.3855 26.7231 23.5256C26.5682 23.7511 26.4046 23.9705 26.2457 24.1935C25.9686 24.5975 25.6248 24.9513 25.229 25.2397C25.095 25.3274 24.9565 25.408 24.8141 25.4813C24.7816 25.4935 24.7478 25.5017 24.7133 25.5058C24.7251 25.4759 24.7397 25.4473 24.757 25.4202C25.0529 25.0245 25.2696 24.5753 25.3953 24.0975C25.4834 23.8287 25.5714 23.5599 25.6641 23.2911C25.7156 23.1993 25.7509 23.0993 25.7686 22.9955C25.7687 22.993 25.7698 22.9906 25.7716 22.9888C25.906 22.844 25.7911 22.7176 25.7205 22.6118C25.6194 22.4659 25.5018 22.3321 25.3701 22.213C25.1753 22.013 25.0248 21.7742 24.9283 21.5122C24.8897 21.4212 24.8752 21.4071 24.7792 21.4276C24.5971 21.4665 24.418 21.5082 24.2383 21.5508C24.21 21.5598 24.1828 21.5719 24.1573 21.5871L21.4538 22.931C21.353 22.98 21.2492 23.0173 21.1467 23.059C21.1228 23.0652 21.0984 23.0696 21.0738 23.0721C21.0943 23.0479 21.1168 23.0255 21.141 23.005C21.238 22.9339 21.339 22.8682 21.4434 22.8083C21.7078 22.6703 21.9849 22.5541 22.2416 22.4032C22.4744 22.2668 22.6874 22.0961 22.9092 21.9405C22.9119 21.9385 22.9109 21.9315 22.9135 21.9177C22.8823 21.9265 22.8554 21.9348 22.8285 21.9405C22.4433 22.0465 22.0659 22.1792 21.699 22.3377C21.6053 22.375 21.5072 22.4012 21.4104 22.4304C21.3849 22.4356 21.3589 22.4388 21.3328 22.4398L21.3228 22.4183C21.3729 22.3826 21.4256 22.3504 21.4803 22.3222C21.8287 22.171 22.1771 22.0199 22.5282 21.8757C22.9711 21.7079 23.4023 21.5107 23.819 21.2854C24.1046 21.1227 24.3663 20.9212 24.5964 20.6864C24.6279 20.6514 24.651 20.6097 24.6638 20.5644C24.6766 20.519 24.6789 20.4713 24.6703 20.425C24.6545 20.2742 24.6297 20.1227 24.6223 19.9718C24.618 19.7767 24.6494 19.5825 24.715 19.3986C24.7486 19.2908 24.7822 19.1816 24.8232 19.0768C24.8443 18.9832 24.8389 18.8857 24.8077 18.795C24.8063 18.7902 24.8038 18.7858 24.8005 18.7822C24.7972 18.7785 24.7931 18.7756 24.7886 18.7737C24.5816 18.6817 24.3777 18.5813 24.166 18.501C23.9854 18.435 23.8007 18.3808 23.613 18.3387C23.3833 18.2886 23.1475 18.2728 22.9132 18.2917C22.8817 18.2946 22.85 18.2892 22.8212 18.2762C22.8497 18.261 22.8773 18.2426 22.9068 18.2308C23.3181 18.0604 23.7549 17.9598 24.1993 17.9331C24.216 17.9305 24.2324 17.9264 24.2483 17.9208L24.8437 17.9238Z" fill="#98984B"/>
<path d="M35.8324 26.1909C35.8024 26.2138 35.7748 26.2397 35.7501 26.2682C35.5151 26.574 35.3552 26.9307 35.2834 27.3096C35.2673 27.4104 35.2545 27.5112 35.2438 27.6147C35.225 27.788 35.2082 27.9614 35.1914 28.1348C35.1716 28.3345 35.1823 28.536 35.2233 28.7325C35.2777 28.9982 35.3177 29.2673 35.3577 29.5361C35.3735 29.6787 35.4201 29.8163 35.4941 29.9393C35.7122 30.2622 35.8768 30.6182 35.9816 30.9935C36.0222 31.1551 36.0488 31.3208 36.0726 31.4857C36.0868 31.5746 36.0917 31.6646 36.0871 31.7544C36.0856 31.8256 36.0682 31.8955 36.0363 31.9591C35.9932 32.046 35.9304 32.1217 35.8529 32.18C35.7754 32.2383 35.6853 32.2777 35.5898 32.2951C35.5395 32.3005 35.492 32.3213 35.4539 32.3548C35.4159 32.3882 35.3891 32.4326 35.3772 32.4818C35.3673 32.5151 35.3503 32.5459 35.3274 32.5721C35.3045 32.5982 35.2762 32.6189 35.2445 32.633C35.1905 32.658 35.1384 32.687 35.0886 32.7197C35.0541 32.7436 35.0252 32.7746 35.0037 32.8106C34.9822 32.8466 34.9687 32.8867 34.9639 32.9284L35.2199 32.8511C35.2755 32.8318 35.3349 32.8264 35.3931 32.8353C35.4512 32.8442 35.5063 32.8671 35.5535 32.9021C35.6812 32.9814 35.8216 33.0382 35.9685 33.0701C36.2037 33.1406 36.4388 33.2102 36.6669 33.3006C36.9056 33.3936 37.1621 33.4316 37.4175 33.4118C37.6644 33.3866 37.9132 33.3858 38.1603 33.4094C38.3441 33.4346 38.5299 33.4199 38.7113 33.4572C38.7597 33.4568 38.8077 33.449 38.8537 33.4343C38.8748 33.432 38.8961 33.4337 38.9166 33.439C39.0375 33.4662 39.1571 33.5008 39.2804 33.5203C39.3461 33.5242 39.412 33.5209 39.477 33.5106L39.4793 33.477C39.2214 33.4379 38.9725 33.3532 38.7442 33.227C38.5265 33.0876 38.3122 32.9415 38.0972 32.7987L38.1055 32.7806C38.1341 32.7876 38.163 32.793 38.1909 32.8017C38.2272 32.8135 38.2631 32.8316 38.2856 32.7806C38.2885 32.7769 38.2922 32.7739 38.2964 32.7719C38.3006 32.7698 38.3052 32.7688 38.3098 32.7687C38.5022 32.7563 38.6922 32.7194 38.8753 32.6589C39.0197 32.6273 39.1618 32.5849 39.3073 32.5564C39.4056 32.5386 39.5051 32.5283 39.605 32.5255C39.81 32.5301 40.0149 32.5142 40.2168 32.4781C40.3425 32.4635 40.4697 32.4673 40.5944 32.4895C40.7151 32.5062 40.8365 32.5165 40.9582 32.5205C41.1127 32.5113 41.2665 32.4932 41.4188 32.4661C41.5368 32.4483 41.654 32.4207 41.7693 32.3941C41.8011 32.3835 41.8317 32.3693 41.8603 32.3518L41.8533 32.3273C41.7888 32.3323 41.7239 32.3354 41.6597 32.3438C41.2796 32.3844 40.8958 32.3772 40.5175 32.3223C40.0222 32.2632 39.527 32.2026 39.0318 32.1405C38.9393 32.1293 38.8474 32.115 38.756 32.0978C38.4286 32.0511 38.0951 32.073 37.7766 32.162C37.7185 32.1751 37.6607 32.1902 37.6019 32.2003C37.5862 32.2055 37.5695 32.2076 37.553 32.2063C37.5364 32.2051 37.5203 32.2006 37.5054 32.1931C37.4906 32.1856 37.4774 32.1753 37.4666 32.1627C37.4558 32.1501 37.4475 32.1355 37.4424 32.1197C37.4412 32.1164 37.4403 32.113 37.4397 32.1096C37.3572 31.8879 37.3062 31.6557 37.2881 31.4199C37.236 30.9277 37.0937 30.4494 36.8682 30.0088C36.7442 29.7776 36.6328 29.5398 36.5346 29.2966C36.4694 29.1127 36.4189 28.924 36.3837 28.7322C36.2977 28.336 36.2245 27.9363 36.1354 27.5415C36.0654 27.2845 36.0283 27.0196 36.0249 26.7533C36.0217 26.677 36.0134 26.601 36.0001 26.5258C35.9998 26.4736 35.9942 26.4217 35.9832 26.3706C35.9579 26.3087 35.9283 26.2487 35.8946 26.1909H35.8324Z" fill="#98984B"/>
<path d="M46.8407 17.7621C47.3987 15.4003 50.249 14.3591 52.3092 15.7537C52.6714 15.999 52.8276 16.0091 53.1326 15.6711C53.4261 15.3291 53.8198 15.0881 54.2578 14.9822C54.6959 14.8763 55.1561 14.9109 55.5734 15.0811C55.9003 15.1947 56.066 15.2206 56.2759 14.8604C56.5353 14.405 56.933 14.0438 57.4112 13.8294C57.8895 13.6149 58.4236 13.5583 58.9363 13.6676C59.4489 13.7769 59.9134 14.0465 60.2626 14.4373C60.6119 14.8282 60.8276 15.3201 60.8787 15.8417C60.9254 16.2425 61.0655 16.3276 61.4307 16.3548C61.9622 16.3815 62.4755 16.557 62.9121 16.8613C63.3487 17.1656 63.691 17.5865 63.9 18.076C63.9431 18.2158 64.0376 18.3341 64.1645 18.4071C64.2913 18.4801 64.4411 18.5023 64.5837 18.4693C66.1527 18.3514 67.1609 19.2051 67.3463 20.7986C67.3467 20.9222 67.3853 21.0427 67.4569 21.1435C67.5285 21.2442 67.6295 21.3204 67.7461 21.3614C68.1498 21.5416 68.4876 21.8428 68.7126 22.2234C68.9376 22.6039 69.0388 23.045 69.0021 23.4855C68.9655 23.9261 68.7928 24.3444 68.5081 24.6826C68.2233 25.0207 67.8405 25.2621 67.4125 25.3731C67.29 25.3935 67.1772 25.4526 67.0907 25.5418C67.0043 25.631 66.9487 25.7455 66.9321 25.8686C66.8508 26.238 66.6776 26.5809 66.4285 26.8655C66.1795 27.1501 65.8626 27.3672 65.5073 27.4968C64.7503 27.7944 64.1883 28.3555 63.4579 28.8897C63.9086 29.0478 64.3918 29.0906 64.8633 29.0143C65.3348 28.938 65.7798 28.7451 66.1577 28.4529C65.6245 29.0946 65.2993 29.2717 64.7275 29.2928C63.7196 29.3352 62.7117 29.1705 61.8284 29.9943C61.4471 30.3498 60.6915 30.0706 60.1251 29.9694C60.0432 29.9407 59.9564 29.9285 59.8698 29.9334C59.7831 29.9384 59.6983 29.9605 59.6202 29.9984C59.5421 30.0363 59.4723 30.0894 59.4148 30.1544C59.3573 30.2194 59.3133 30.2952 59.2852 30.3773C58.8746 31.2512 58.2647 32.0165 57.5046 32.6118C57.2432 32.8299 57.0506 33.1191 56.95 33.4443C56.8494 33.7696 56.8452 34.1169 56.9378 34.4445C57.134 35.3661 57.0917 36.3595 57.7263 37.2142H54.797C55.8295 35.8949 55.2338 34.469 55.2576 33.098C55.2596 32.9636 55.2842 32.755 55.1306 32.7284C54.2541 32.5742 53.8573 31.5683 52.9106 31.5189C52.4799 31.4688 52.0601 31.3494 51.6675 31.1652C52.8357 31.2044 53.9759 31.5326 54.9862 32.1203C54.8323 31.3453 54.5326 30.9484 53.8698 30.9078C53.6997 30.8938 53.5348 30.8423 53.387 30.757C53.2391 30.6718 53.112 30.5548 53.0147 30.4146C52.8194 30.2266 52.5805 30.0899 52.3195 30.0166C52.0584 29.9433 51.7833 29.9358 51.5187 29.9946C50.5477 30.1891 49.7381 29.5173 48.7997 29.734C49.3147 28.9313 49.8177 29.3308 50.3303 29.6607C50.4258 29.7271 50.5438 29.7528 50.6583 29.7322C51.3108 29.5463 52.0005 29.5339 52.6593 29.6963C52.6856 29.5986 52.6721 29.4944 52.6217 29.4066C52.5713 29.3188 52.4882 29.2545 52.3905 29.228C51.1289 28.7731 49.8533 28.3756 48.4869 28.4637C48.3038 28.4941 48.1268 28.5539 47.9628 28.6408C47.4508 28.892 46.8634 28.9428 46.3159 28.7832C45.7683 28.6237 45.3002 28.2652 45.0033 27.7783C44.7792 27.4228 44.6089 27.4013 44.2376 27.496C43.7524 27.6235 43.2373 27.5702 42.7884 27.346C42.3396 27.1219 41.9875 26.7423 41.7978 26.2778C41.608 25.8134 41.5936 25.2957 41.7572 24.8214C41.9207 24.3471 42.2511 23.9485 42.6868 23.6997C43.0779 23.485 43.1128 23.3005 43.0433 22.8933C42.9283 22.2987 43.0457 21.6826 43.3714 21.1719C43.6971 20.6613 44.2063 20.295 44.794 20.1485C45.1676 20.0575 45.1676 20.0575 45.4243 20.5923C45.5811 19.6053 45.9806 18.8598 46.7722 18.3867C47.5449 17.9255 48.3663 17.9093 49.3833 18.2503C48.5084 17.5193 47.6863 17.5824 46.8407 17.7621ZM50.1835 28.1529C50.8263 28.3545 51.3739 28.5672 51.941 28.6935C52.2525 28.7353 52.5464 28.8626 52.79 29.0614C53.0336 29.2601 53.2173 29.5224 53.3208 29.8193C53.3583 29.9429 53.429 30.0539 53.5253 30.1401C53.6216 30.2263 53.7397 30.2845 53.8667 30.3081C54.3216 30.4089 54.7691 30.5433 55.217 30.6736C55.4149 30.7311 55.6013 30.798 55.5661 30.4721C55.4811 29.695 55.3272 28.9417 54.712 28.3847C54.6324 28.2854 54.5246 28.2127 54.4027 28.1762C54.2808 28.1396 54.1508 28.141 54.0297 28.1801C52.4483 28.7113 51.9467 28.5497 50.9331 27.1722C50.8481 27.6342 50.4627 27.8129 50.1819 28.1519L50.1835 28.1529ZM62.3042 26.2883C61.7646 26.5234 61.2808 26.8258 60.7023 26.8124C60.3327 26.803 60.1983 26.9824 60.0552 27.2962C59.7925 27.8646 59.4868 28.4227 58.8175 28.6535C58.5548 28.7445 58.1641 28.8635 58.4644 29.2891C58.6633 29.5717 58.8713 29.9181 59.2727 29.4964C59.3402 29.4323 59.4241 29.388 59.5151 29.3686C59.6061 29.3492 59.7007 29.3555 59.7885 29.3866C60.3559 29.5042 61.3413 28.9464 61.389 28.3834C61.4787 27.6102 61.7967 26.8813 62.3025 26.2897L62.3042 26.2883ZM57.1975 31.403C58.332 31.0335 58.3969 30.9938 58.2484 30.1203C58.1204 29.3684 57.7428 28.6831 57.6007 27.9177C57.5335 27.5421 57.0665 27.8169 56.8037 27.8613C56.4886 27.9161 56.6693 28.1714 56.7601 28.295C57.3396 29.0977 57.306 30.0027 57.2341 30.9179C57.2203 31.0758 57.2089 31.2327 57.1958 31.4044L57.1975 31.403ZM56.8259 29.7232C56.8333 29.0802 56.492 28.5809 56.2743 28.0477C56.0935 27.6043 55.5409 27.6946 55.2408 27.3997C55.0913 27.2529 54.9237 27.104 54.7513 27.4138C54.6925 27.4801 54.6622 27.567 54.6672 27.6556C54.6722 27.7441 54.712 27.8271 54.7779 27.8865C54.794 27.9011 54.8116 27.914 54.8303 27.9251C55.3789 28.4291 55.9349 28.9471 55.9692 29.776C55.9843 30.1398 56.1896 30.37 56.5403 30.3495C56.9979 30.3239 56.6922 29.9046 56.8242 29.7242L56.8259 29.7232ZM64.5481 27.7316C63.1397 27.3345 61.8268 28.1257 61.054 29.781C62.5024 29.5122 63.2926 28.3867 64.5464 27.7316H64.5481ZM58.5709 19.8619C58.4492 19.1059 58.0566 18.42 57.4664 17.9321C56.8762 17.4442 56.1286 17.1877 55.3631 17.2105C53.8808 17.2333 52.5635 18.2997 52.3616 19.6412C53.8983 16.7983 57.429 17.1332 58.5692 19.8629L58.5709 19.8619ZM65.0551 24.0777C66.1516 23.2781 66.4997 22.1099 66.0892 20.9897C65.8983 20.4638 65.5424 20.0137 65.0747 19.7067C64.6069 19.3996 64.0523 19.2523 63.4938 19.2865C65.98 20.4264 66.4671 21.789 65.0537 24.0793L65.0551 24.0777ZM58.0687 27.7161C58.1694 27.8915 58.0065 28.2473 58.3643 28.3037C58.753 28.3652 59.9336 27.2985 59.8295 26.9636C59.7213 26.6128 59.2943 26.6861 59.0231 26.5433C58.8679 26.465 58.068 27.4477 58.0673 27.7191L58.0687 27.7161ZM48.8114 28.1647C49.6013 28.2655 50.034 27.702 50.5524 27.3059C49.8553 27.3365 48.9764 26.9699 48.8098 28.167L48.8114 28.1647ZM63.2684 27.3372C62.5293 26.4502 62.3794 26.4546 61.904 27.2998C61.8897 27.3182 61.8783 27.3388 61.8704 27.3607C61.852 27.4709 61.7912 27.605 61.8325 27.6863C61.8953 27.8112 62.0341 27.7394 62.1432 27.7027C62.4947 27.5875 62.8488 27.4746 63.2681 27.3392L63.2684 27.3372ZM44.9109 22.9646C44.6947 23.2378 44.573 23.5738 44.5643 23.9221C44.5555 24.2705 44.66 24.6123 44.8622 24.8961C45.0116 25.1484 45.2334 25.3499 45.4988 25.4744C45.7642 25.599 46.061 25.6408 46.3505 25.5945C45.0382 25.0432 44.7093 24.4267 44.9092 22.9669L44.9109 22.9646Z" fill="#98984B"/>
<path d="M23.3553 37.4269C23.3385 37.4223 23.3213 37.4191 23.3039 37.4175C23.2324 37.4175 23.1605 37.4175 23.0889 37.4175C23.0669 37.4169 23.0457 37.4093 23.0283 37.3958C23.0109 37.3823 22.9982 37.3637 22.9922 37.3426C22.9814 37.3023 23.0073 37.2754 23.0577 37.269C23.1921 37.2542 23.3231 37.2374 23.4558 37.2236C23.4894 37.22 23.5038 37.2041 23.5012 37.1705C23.4958 37.0267 23.4917 36.8837 23.4867 36.7402C23.4793 36.5386 23.4729 36.3347 23.4639 36.1321C23.4608 36.0649 23.4444 35.9977 23.4373 35.9305C23.4303 35.8787 23.4276 35.8265 23.4293 35.7743C23.4424 35.5371 23.4279 35.2992 23.3862 35.0654C23.3685 34.9976 23.3435 34.9319 23.3117 34.8695C23.3054 34.8549 23.2946 34.8427 23.2809 34.8347C23.2671 34.8267 23.2512 34.8233 23.2354 34.8251C23.1897 34.8235 23.1443 34.8328 23.1029 34.8523C23.0615 34.8717 23.0254 34.9008 22.9975 34.937C22.9478 34.9994 22.8853 35.0503 22.8142 35.0865C22.743 35.1226 22.665 35.143 22.5853 35.1463C22.5089 35.1545 22.4316 35.1447 22.3597 35.1175C22.2878 35.0903 22.2233 35.0465 22.1714 34.9898C22.1196 34.9214 22.0881 34.84 22.0804 34.7546C22.0593 34.6455 22.071 34.5325 22.1139 34.43C22.1768 34.2799 22.2413 34.131 22.3051 33.9815C22.3357 33.9093 22.3723 33.8384 22.3948 33.7638C22.4151 33.6999 22.4284 33.6341 22.4345 33.5673C22.4422 33.4847 22.4257 33.4665 22.3491 33.4389C22.323 33.4254 22.2926 33.4226 22.2644 33.4311C22.2362 33.4395 22.2123 33.4586 22.1979 33.4843C22.1539 33.5504 22.0888 33.5997 22.0132 33.6241C21.9585 33.6423 21.9104 33.6763 21.8752 33.7219C21.8399 33.7675 21.8189 33.8226 21.815 33.8801C21.8075 33.9357 21.8049 33.9919 21.8072 34.048C21.8072 34.0759 21.8025 34.1032 21.8005 34.1307L21.784 34.1354C21.7635 34.1151 21.7454 34.0926 21.7299 34.0682C21.6879 33.9802 21.6459 33.8918 21.6127 33.7994C21.6016 33.7652 21.604 33.7282 21.6194 33.6957C21.6866 33.5663 21.7605 33.44 21.8348 33.3144C21.8527 33.2838 21.8773 33.2576 21.9067 33.2379C21.9362 33.2182 21.9697 33.2054 22.0048 33.2004C22.1385 33.1758 22.2765 33.1889 22.4032 33.2384C22.4616 33.2629 22.5119 33.3034 22.5481 33.3554C22.5843 33.4073 22.605 33.4685 22.6078 33.5317C22.6181 33.6464 22.5964 33.7618 22.5453 33.865C22.4676 34.0468 22.3887 34.2288 22.3085 34.4109C22.2844 34.4645 22.2718 34.5225 22.2714 34.5812C22.271 34.6399 22.2828 34.698 22.3061 34.7519C22.3253 34.8053 22.364 34.8494 22.4145 34.8753C22.465 34.9012 22.5234 34.9069 22.5779 34.8913C22.6325 34.8821 22.6815 34.8524 22.7149 34.8082C22.7483 34.7641 22.7636 34.7088 22.7577 34.6538C22.749 34.5631 22.7451 34.4721 22.7459 34.381C22.7569 34.2251 22.8261 34.079 22.9398 33.9718C22.9999 33.9083 23.0762 33.8602 23.1413 33.8038C23.3005 33.6774 23.4907 33.5962 23.692 33.5686C23.8242 33.5351 23.9638 33.5469 24.0884 33.6023C24.1472 33.6246 24.1991 33.662 24.2389 33.7108L24.1358 33.6943L24.2416 33.7951L24.1237 33.7722L24.1187 33.7857C24.139 33.7997 24.1602 33.8125 24.1822 33.824C24.3343 33.8882 24.466 33.9928 24.5631 34.1264C24.5858 34.1543 24.6141 34.1772 24.6461 34.1936C24.7079 34.2298 24.7724 34.2607 24.8349 34.296C24.9805 34.3836 25.1149 34.4884 25.2354 34.6081C25.2972 34.6649 25.3574 34.724 25.4135 34.7868C25.4418 34.8225 25.4644 34.8623 25.4807 34.9048C25.3329 34.8138 25.1657 34.7591 24.9927 34.7452C24.8197 34.7313 24.6459 34.7585 24.4855 34.8248C24.5457 34.8557 24.5944 34.8853 24.6465 34.9058C24.6665 34.911 24.6843 34.9226 24.6972 34.9387C24.7101 34.9549 24.7174 34.9748 24.718 34.9955C24.7183 35.0037 24.7169 35.0118 24.7139 35.0194C24.711 35.0271 24.7066 35.034 24.701 35.04C24.6954 35.0459 24.6887 35.0507 24.6812 35.054C24.6737 35.0573 24.6657 35.0591 24.6576 35.0593C24.5963 35.0633 24.5354 35.072 24.4754 35.0852C24.2191 35.1524 23.9641 35.2216 23.7085 35.2898C23.6994 35.2916 23.691 35.296 23.6844 35.3025C23.6779 35.309 23.6734 35.3174 23.6715 35.3265C23.6587 35.3601 23.6538 35.3962 23.6572 35.432C23.6606 35.4678 23.6721 35.5024 23.691 35.5331C23.7011 35.5456 23.7059 35.5615 23.7042 35.5775C23.7026 35.5935 23.6947 35.6082 23.6822 35.6184L23.6782 35.6214C23.6708 35.6265 23.6624 35.6302 23.6536 35.632C23.6448 35.6338 23.6357 35.6338 23.6269 35.6321C23.618 35.6303 23.6096 35.6268 23.6022 35.6217C23.5947 35.6167 23.5884 35.6101 23.5835 35.6025L23.5381 35.5515C23.5522 35.6114 23.5617 35.6723 23.5667 35.7336C23.5667 35.831 23.5552 35.9284 23.5529 36.0259C23.5489 36.1734 23.5442 36.3216 23.5479 36.4681C23.5539 36.6834 23.5667 36.8984 23.5774 37.1131C23.579 37.1374 23.5858 37.161 23.5976 37.1823C23.6103 37.2017 23.6183 37.2239 23.621 37.2469C23.6236 37.27 23.6207 37.2934 23.6126 37.3152C23.6046 37.337 23.5915 37.3565 23.5745 37.3723C23.5574 37.3881 23.5369 37.3997 23.5146 37.4061C23.4833 37.4168 23.4518 37.4245 23.4199 37.434L23.3553 37.4269ZM24.4896 34.9508C24.4143 34.9219 24.3673 34.8439 24.2813 34.892C24.044 34.9268 23.8045 34.9443 23.5646 34.9444C23.4756 34.9444 23.4736 34.9421 23.4796 35.0331V35.05C23.4867 35.1118 23.4941 35.1739 23.5002 35.2266C23.825 35.1205 24.1543 35.0493 24.4899 34.9498L24.4896 34.9508Z" fill="#98984B"/>
</g>
<defs>
<clipPath id="clip0_4_67">
<rect width="79" height="79" fill="white"/>
</clipPath>
</defs>
</svg>
