<svg width="58" height="50" viewBox="0 0 58 50" fill="none" xmlns="http://www.w3.org/2000/svg">
<path d="M31.1619 14.2113C30.7954 12.1691 29.6326 10.3562 27.9294 9.17127C26.2262 7.98638 24.122 7.52661 22.0798 7.89309L22.0686 7.89544C20.548 8.17155 19.1433 8.89217 18.032 9.96621C16.9207 11.0402 16.1526 12.4195 15.8248 13.9299C15.4969 15.4402 15.6241 17.0138 16.1901 18.4519C16.7562 19.89 17.7358 21.1281 19.0051 22.0098C20.2745 22.8915 21.7766 23.3772 23.3219 23.4056C24.8671 23.434 26.3861 23.0038 27.687 22.1693C28.9878 21.3348 30.0122 20.1336 30.6307 18.7172C31.2492 17.3009 31.4341 15.733 31.1619 14.2116V14.2113ZM28.0142 19.4822C27.5816 19.8119 27.1106 20.0879 26.6116 20.304C25.5959 20.7537 24.4733 20.9053 23.3748 20.741C22.2618 20.5791 21.2486 20.0097 20.5317 19.1431C20.271 18.8325 20.0422 18.4964 19.849 18.1399C19.8369 18.1021 19.8104 18.0706 19.7752 18.0524C19.7399 18.0342 19.6989 18.0308 19.6611 18.0428L19.6493 18.0468C19.3521 18.1257 19.0549 18.1954 18.7578 18.2695C18.7041 18.2918 18.6459 18.3009 18.588 18.296C18.5301 18.2912 18.4742 18.2724 18.425 18.2415C18.3759 18.2105 18.3349 18.1681 18.3055 18.118C18.2761 18.0679 18.2592 18.0114 18.2561 17.9534C18.2094 17.7547 18.1587 17.5499 18.1075 17.3441C18.0914 17.3007 18.084 17.2545 18.0857 17.2082C18.0874 17.1619 18.0983 17.1163 18.1176 17.0742C18.137 17.0321 18.1644 16.9942 18.1984 16.9627C18.2324 16.9312 18.2722 16.9067 18.3157 16.8906C18.343 16.8804 18.3714 16.8737 18.4003 16.8706C18.6789 16.8053 18.9578 16.7353 19.2502 16.6676L19.1016 16.0732L18.9903 16.101C18.7442 16.1612 18.4981 16.2218 18.2456 16.2776C18.1571 16.308 18.0601 16.302 17.976 16.2608C17.8919 16.2197 17.8276 16.1469 17.7972 16.0583C17.7905 16.0389 17.7855 16.019 17.7823 15.9987C17.7264 15.7757 17.6709 15.5587 17.6242 15.3299C17.6074 15.2817 17.6015 15.2304 17.6069 15.1796C17.6124 15.1288 17.629 15.0799 17.6557 15.0363C17.6823 14.9928 17.7183 14.9557 17.7611 14.9277C17.8038 14.8998 17.8522 14.8816 17.9028 14.8747C18.2412 14.7958 18.5797 14.7122 18.9199 14.6286C18.994 14.6147 19.0214 14.5866 19.0214 14.5125C19.0579 13.9075 19.1945 13.3128 19.4255 12.7525C19.8044 11.8352 20.471 11.0658 21.325 10.5602C21.739 10.3161 22.1801 10.1213 22.6393 9.97976C22.6681 9.96949 22.696 9.95705 22.7229 9.94253L23.3592 9.7892C23.5728 9.7672 23.7959 9.73807 24.0233 9.72149C24.5739 9.67099 25.1288 9.69754 25.672 9.80036C25.7438 9.80356 25.8139 9.8232 25.877 9.85779C25.94 9.89238 25.9942 9.94097 26.0355 9.99984C26.0768 10.0587 26.104 10.1263 26.115 10.1973C26.126 10.2684 26.1206 10.341 26.0991 10.4096C26.048 10.7115 25.9976 11.0131 25.9414 11.3106C25.9416 11.3674 25.9307 11.4236 25.9091 11.4762C25.8876 11.5287 25.8559 11.5765 25.8159 11.6167C25.7758 11.657 25.7283 11.689 25.6759 11.7109C25.6235 11.7327 25.5673 11.7441 25.5105 11.7442C25.4852 11.7444 25.46 11.7423 25.4351 11.7381C24.9707 11.7381 24.5107 11.7242 24.0511 11.7567C23.2899 11.7806 22.5555 12.0439 21.9526 12.5091C21.5326 12.8569 21.2456 13.3391 21.1402 13.8742C21.1264 13.9348 21.1172 13.9998 21.1033 14.0691C21.1033 14.0739 21.1033 14.0782 21.1125 14.0972C21.1522 14.0869 21.1925 14.0796 21.2333 14.0752C21.9069 13.9077 22.5794 13.7499 23.2489 13.5875C23.5461 13.513 23.695 13.6061 23.76 13.8941C23.8155 14.0972 23.8669 14.3027 23.9086 14.5119C23.9243 14.5545 23.9316 14.5998 23.9298 14.6453C23.928 14.6907 23.9173 14.7353 23.8982 14.7766C23.8792 14.8179 23.8522 14.855 23.8188 14.8859C23.7853 14.9167 23.7461 14.9406 23.7035 14.9563C23.6782 14.9656 23.652 14.9719 23.6253 14.9752C22.8309 15.1702 22.0365 15.356 21.2475 15.5506C21.2059 15.5597 21.1639 15.5692 21.1175 15.5784L21.2661 16.173C21.3081 16.1639 21.3497 16.1544 21.387 16.1453C22.1655 15.9547 22.9378 15.773 23.7136 15.5831C24.0294 15.5086 24.177 15.5923 24.2477 15.908L24.3916 16.4834C24.4278 16.5693 24.4285 16.6661 24.3935 16.7524C24.3584 16.8388 24.2906 16.9077 24.2047 16.9441C24.1696 16.9589 24.1324 16.9681 24.0944 16.9712C23.3745 17.1479 22.664 17.3194 21.9488 17.4914L21.8236 17.5252C22.0491 17.8975 22.3516 18.2173 22.7107 18.4631C23.2401 18.7953 23.8733 18.921 24.4894 18.8161C25.194 18.7136 25.8712 18.472 26.4816 18.1054C26.6349 18.0218 26.7927 17.9429 26.9507 17.8637C26.9954 17.8302 27.0467 17.8066 27.1012 17.7942C27.1557 17.7819 27.2122 17.7812 27.267 17.7922C27.3217 17.8032 27.3736 17.8256 27.4191 17.858C27.4647 17.8904 27.5028 17.932 27.5312 17.9801C27.7448 18.254 27.9536 18.5285 28.1489 18.8067C28.1923 18.8569 28.2236 18.9165 28.2405 18.9807C28.2574 19.0449 28.2594 19.1121 28.2463 19.1772C28.2332 19.2424 28.2055 19.3036 28.1651 19.3564C28.1248 19.4091 28.0729 19.4519 28.0135 19.4816L28.0142 19.4822ZM31.1619 14.2113C30.7954 12.1691 29.6326 10.3562 27.9294 9.17127C26.2262 7.98638 24.122 7.52661 22.0798 7.89309L22.0686 7.89544C20.548 8.17155 19.1433 8.89217 18.032 9.96621C16.9207 11.0402 16.1526 12.4195 15.8248 13.9299C15.4969 15.4402 15.6241 17.0138 16.1901 18.4519C16.7562 19.89 17.7358 21.1281 19.0051 22.0098C20.2745 22.8915 21.7766 23.3772 23.3219 23.4056C24.8671 23.434 26.3861 23.0038 27.687 22.1693C28.9878 21.3348 30.0122 20.1336 30.6307 18.7172C31.2492 17.3009 31.4341 15.733 31.1619 14.2116V14.2113ZM28.0142 19.4822C27.5816 19.8119 27.1106 20.0879 26.6116 20.304C25.5959 20.7537 24.4733 20.9053 23.3748 20.741C22.2618 20.5791 21.2486 20.0097 20.5317 19.1431C20.271 18.8325 20.0422 18.4964 19.849 18.1399C19.8369 18.1021 19.8104 18.0706 19.7752 18.0524C19.7399 18.0342 19.6989 18.0308 19.6611 18.0428L19.6493 18.0468C19.3521 18.1257 19.0549 18.1954 18.7578 18.2695C18.7041 18.2918 18.6459 18.3009 18.588 18.296C18.5301 18.2912 18.4742 18.2724 18.425 18.2415C18.3759 18.2105 18.3349 18.1681 18.3055 18.118C18.2761 18.0679 18.2592 18.0114 18.2561 17.9534C18.2094 17.7547 18.1587 17.5499 18.1075 17.3441C18.0914 17.3007 18.084 17.2545 18.0857 17.2082C18.0874 17.1619 18.0983 17.1163 18.1176 17.0742C18.137 17.0321 18.1644 16.9942 18.1984 16.9627C18.2324 16.9312 18.2722 16.9067 18.3157 16.8906C18.343 16.8804 18.3714 16.8737 18.4003 16.8706C18.6789 16.8053 18.9578 16.7353 19.2502 16.6676L19.1016 16.0732L18.9903 16.101C18.7442 16.1612 18.4981 16.2218 18.2456 16.2776C18.1571 16.308 18.0601 16.302 17.976 16.2608C17.8919 16.2197 17.8276 16.1469 17.7972 16.0583C17.7905 16.0389 17.7855 16.019 17.7823 15.9987C17.7264 15.7757 17.6709 15.5587 17.6242 15.3299C17.6074 15.2817 17.6015 15.2304 17.6069 15.1796C17.6124 15.1288 17.629 15.0799 17.6557 15.0363C17.6823 14.9928 17.7183 14.9557 17.7611 14.9277C17.8038 14.8998 17.8522 14.8816 17.9028 14.8747C18.2412 14.7958 18.5797 14.7122 18.9199 14.6286C18.994 14.6147 19.0214 14.5866 19.0214 14.5125C19.0579 13.9075 19.1945 13.3128 19.4255 12.7525C19.8044 11.8352 20.471 11.0658 21.325 10.5602C21.739 10.3161 22.1801 10.1213 22.6393 9.97976C22.6681 9.96949 22.696 9.95705 22.7229 9.94253L23.3592 9.7892C23.5728 9.7672 23.7959 9.73807 24.0233 9.72149C24.5739 9.67099 25.1288 9.69754 25.672 9.80036C25.7438 9.80356 25.8139 9.8232 25.877 9.85779C25.94 9.89238 25.9942 9.94097 26.0355 9.99984C26.0768 10.0587 26.104 10.1263 26.115 10.1973C26.126 10.2684 26.1206 10.341 26.0991 10.4096C26.048 10.7115 25.9976 11.0131 25.9414 11.3106C25.9416 11.3674 25.9307 11.4236 25.9091 11.4762C25.8876 11.5287 25.8559 11.5765 25.8159 11.6167C25.7758 11.657 25.7283 11.689 25.6759 11.7109C25.6235 11.7327 25.5673 11.7441 25.5105 11.7442C25.4852 11.7444 25.46 11.7423 25.4351 11.7381C24.9707 11.7381 24.5107 11.7242 24.0511 11.7567C23.2899 11.7806 22.5555 12.0439 21.9526 12.5091C21.5326 12.8569 21.2456 13.3391 21.1402 13.8742C21.1264 13.9348 21.1172 13.9998 21.1033 14.0691C21.1033 14.0739 21.1033 14.0782 21.1125 14.0972C21.1522 14.0869 21.1925 14.0796 21.2333 14.0752C21.9069 13.9077 22.5794 13.7499 23.2489 13.5875C23.5461 13.513 23.695 13.6061 23.76 13.8941C23.8155 14.0972 23.8669 14.3027 23.9086 14.5119C23.9243 14.5545 23.9316 14.5998 23.9298 14.6453C23.928 14.6907 23.9173 14.7353 23.8982 14.7766C23.8792 14.8179 23.8522 14.855 23.8188 14.8859C23.7853 14.9167 23.7461 14.9406 23.7035 14.9563C23.6782 14.9656 23.652 14.9719 23.6253 14.9752C22.8309 15.1702 22.0365 15.356 21.2475 15.5506C21.2059 15.5597 21.1639 15.5692 21.1175 15.5784L21.2661 16.173C21.3081 16.1639 21.3497 16.1544 21.387 16.1453C22.1655 15.9547 22.9378 15.773 23.7136 15.5831C24.0294 15.5086 24.177 15.5923 24.2477 15.908L24.3916 16.4834C24.4278 16.5693 24.4285 16.6661 24.3935 16.7524C24.3584 16.8388 24.2906 16.9077 24.2047 16.9441C24.1696 16.9589 24.1324 16.9681 24.0944 16.9712C23.3745 17.1479 22.664 17.3194 21.9488 17.4914L21.8236 17.5252C22.0491 17.8975 22.3516 18.2173 22.7107 18.4631C23.2401 18.7953 23.8733 18.921 24.4894 18.8161C25.194 18.7136 25.8712 18.472 26.4816 18.1054C26.6349 18.0218 26.7927 17.9429 26.9507 17.8637C26.9954 17.8302 27.0467 17.8066 27.1012 17.7942C27.1557 17.7819 27.2122 17.7812 27.267 17.7922C27.3217 17.8032 27.3736 17.8256 27.4191 17.858C27.4647 17.8904 27.5028 17.932 27.5312 17.9801C27.7448 18.254 27.9536 18.5285 28.1489 18.8067C28.1923 18.8569 28.2236 18.9165 28.2405 18.9807C28.2574 19.0449 28.2594 19.1121 28.2463 19.1772C28.2332 19.2424 28.2055 19.3036 28.1651 19.3564C28.1248 19.4091 28.0729 19.4519 28.0135 19.4816L28.0142 19.4822ZM31.1619 14.2113C30.7954 12.1691 29.6326 10.3562 27.9294 9.17127C26.2262 7.98638 24.122 7.52661 22.0798 7.89309L22.0686 7.89544C20.548 8.17155 19.1433 8.89217 18.032 9.96621C16.9207 11.0402 16.1526 12.4195 15.8248 13.9299C15.4969 15.4402 15.6241 17.0138 16.1901 18.4519C16.7562 19.89 17.7358 21.1281 19.0051 22.0098C20.2745 22.8915 21.7766 23.3772 23.3219 23.4056C24.8671 23.434 26.3861 23.0038 27.687 22.1693C28.9878 21.3348 30.0122 20.1336 30.6307 18.7172C31.2492 17.3009 31.4341 15.733 31.1619 14.2116V14.2113ZM28.0142 19.4822C27.5816 19.8119 27.1106 20.0879 26.6116 20.304C25.5959 20.7537 24.4733 20.9053 23.3748 20.741C22.2618 20.5791 21.2486 20.0097 20.5317 19.1431C20.271 18.8325 20.0422 18.4964 19.849 18.1399C19.8369 18.1021 19.8104 18.0706 19.7752 18.0524C19.7399 18.0342 19.6989 18.0308 19.6611 18.0428L19.6493 18.0468C19.3521 18.1257 19.0549 18.1954 18.7578 18.2695C18.7041 18.2918 18.6459 18.3009 18.588 18.296C18.5301 18.2912 18.4742 18.2724 18.425 18.2415C18.3759 18.2105 18.3349 18.1681 18.3055 18.118C18.2761 18.0679 18.2592 18.0114 18.2561 17.9534C18.2094 17.7547 18.1587 17.5499 18.1075 17.3441C18.0914 17.3007 18.084 17.2545 18.0857 17.2082C18.0874 17.1619 18.0983 17.1163 18.1176 17.0742C18.137 17.0321 18.1644 16.9942 18.1984 16.9627C18.2324 16.9312 18.2722 16.9067 18.3157 16.8906C18.343 16.8804 18.3714 16.8737 18.4003 16.8706C18.6789 16.8053 18.9578 16.7353 19.2502 16.6676L19.1016 16.0732L18.9903 16.101C18.7442 16.1612 18.4981 16.2218 18.2456 16.2776C18.1571 16.308 18.0601 16.302 17.976 16.2608C17.8919 16.2197 17.8276 16.1469 17.7972 16.0583C17.7905 16.0389 17.7855 16.019 17.7823 15.9987C17.7264 15.7757 17.6709 15.5587 17.6242 15.3299C17.6074 15.2817 17.6015 15.2304 17.6069 15.1796C17.6124 15.1288 17.629 15.0799 17.6557 15.0363C17.6823 14.9928 17.7183 14.9557 17.7611 14.9277C17.8038 14.8998 17.8522 14.8816 17.9028 14.8747C18.2412 14.7958 18.5797 14.7122 18.9199 14.6286C18.994 14.6147 19.0214 14.5866 19.0214 14.5125C19.0579 13.9075 19.1945 13.3128 19.4255 12.7525C19.8044 11.8352 20.471 11.0658 21.325 10.5602C21.739 10.3161 22.1801 10.1213 22.6393 9.97976C22.6681 9.96949 22.696 9.95705 22.7229 9.94253L23.3592 9.7892C23.5728 9.7672 23.7959 9.73807 24.0233 9.72149C24.5739 9.67099 25.1288 9.69754 25.672 9.80036C25.7438 9.80356 25.8139 9.8232 25.877 9.85779C25.94 9.89238 25.9942 9.94097 26.0355 9.99984C26.0768 10.0587 26.104 10.1263 26.115 10.1973C26.126 10.2684 26.1206 10.341 26.0991 10.4096C26.048 10.7115 25.9976 11.0131 25.9414 11.3106C25.9416 11.3674 25.9307 11.4236 25.9091 11.4762C25.8876 11.5287 25.8559 11.5765 25.8159 11.6167C25.7758 11.657 25.7283 11.689 25.6759 11.7109C25.6235 11.7327 25.5673 11.7441 25.5105 11.7442C25.4852 11.7444 25.46 11.7423 25.4351 11.7381C24.9707 11.7381 24.5107 11.7242 24.0511 11.7567C23.2899 11.7806 22.5555 12.0439 21.9526 12.5091C21.5326 12.8569 21.2456 13.3391 21.1402 13.8742C21.1264 13.9348 21.1172 13.9998 21.1033 14.0691C21.1033 14.0739 21.1033 14.0782 21.1125 14.0972C21.1522 14.0869 21.1925 14.0796 21.2333 14.0752C21.9069 13.9077 22.5794 13.7499 23.2489 13.5875C23.5461 13.513 23.695 13.6061 23.76 13.8941C23.8155 14.0972 23.8669 14.3027 23.9086 14.5119C23.9243 14.5545 23.9316 14.5998 23.9298 14.6453C23.928 14.6907 23.9173 14.7353 23.8982 14.7766C23.8792 14.8179 23.8522 14.855 23.8188 14.8859C23.7853 14.9167 23.7461 14.9406 23.7035 14.9563C23.6782 14.9656 23.652 14.9719 23.6253 14.9752C22.8309 15.1702 22.0365 15.356 21.2475 15.5506C21.2059 15.5597 21.1639 15.5692 21.1175 15.5784L21.2661 16.173C21.3081 16.1639 21.3497 16.1544 21.387 16.1453C22.1655 15.9547 22.9378 15.773 23.7136 15.5831C24.0294 15.5086 24.177 15.5923 24.2477 15.908L24.3916 16.4834C24.4278 16.5693 24.4285 16.6661 24.3935 16.7524C24.3584 16.8388 24.2906 16.9077 24.2047 16.9441C24.1696 16.9589 24.1324 16.9681 24.0944 16.9712C23.3745 17.1479 22.664 17.3194 21.9488 17.4914L21.8236 17.5252C22.0491 17.8975 22.3516 18.2173 22.7107 18.4631C23.2401 18.7953 23.8733 18.921 24.4894 18.8161C25.194 18.7136 25.8712 18.472 26.4816 18.1054C26.6349 18.0218 26.7927 17.9429 26.9507 17.8637C26.9954 17.8302 27.0467 17.8066 27.1012 17.7942C27.1557 17.7819 27.2122 17.7812 27.267 17.7922C27.3217 17.8032 27.3736 17.8256 27.4191 17.858C27.4647 17.8904 27.5028 17.932 27.5312 17.9801C27.7448 18.254 27.9536 18.5285 28.1489 18.8067C28.1923 18.8569 28.2236 18.9165 28.2405 18.9807C28.2574 19.0449 28.2594 19.1121 28.2463 19.1772C28.2332 19.2424 28.2055 19.3036 28.1651 19.3564C28.1248 19.4091 28.0729 19.4519 28.0135 19.4816L28.0142 19.4822ZM31.1619 14.2113C30.7954 12.1691 29.6326 10.3562 27.9294 9.17127C26.2262 7.98638 24.122 7.52661 22.0798 7.89309L22.0686 7.89544C20.548 8.17155 19.1433 8.89217 18.032 9.96621C16.9207 11.0402 16.1526 12.4195 15.8248 13.9299C15.4969 15.4402 15.6241 17.0138 16.1901 18.4519C16.7562 19.89 17.7358 21.1281 19.0051 22.0098C20.2745 22.8915 21.7766 23.3772 23.3219 23.4056C24.8671 23.434 26.3861 23.0038 27.687 22.1693C28.9878 21.3348 30.0122 20.1336 30.6307 18.7172C31.2492 17.3009 31.4341 15.733 31.1619 14.2116V14.2113ZM28.0142 19.4822C27.5816 19.8119 27.1106 20.0879 26.6116 20.304C25.5959 20.7537 24.4733 20.9053 23.3748 20.741C22.2618 20.5791 21.2486 20.0097 20.5317 19.1431C20.271 18.8325 20.0422 18.4964 19.849 18.1399C19.8369 18.1021 19.8104 18.0706 19.7752 18.0524C19.7399 18.0342 19.6989 18.0308 19.6611 18.0428L19.6493 18.0468C19.3521 18.1257 19.0549 18.1954 18.7578 18.2695C18.7041 18.2918 18.6459 18.3009 18.588 18.296C18.5301 18.2912 18.4742 18.2724 18.425 18.2415C18.3759 18.2105 18.3349 18.1681 18.3055 18.118C18.2761 18.0679 18.2592 18.0114 18.2561 17.9534C18.2094 17.7547 18.1587 17.5499 18.1075 17.3441C18.0914 17.3007 18.084 17.2545 18.0857 17.2082C18.0874 17.1619 18.0983 17.1163 18.1176 17.0742C18.137 17.0321 18.1644 16.9942 18.1984 16.9627C18.2324 16.9312 18.2722 16.9067 18.3157 16.8906C18.343 16.8804 18.3714 16.8737 18.4003 16.8706C18.6789 16.8053 18.9578 16.7353 19.2502 16.6676L19.1016 16.0732L18.9903 16.101C18.7442 16.1612 18.4981 16.2218 18.2456 16.2776C18.1571 16.308 18.0601 16.302 17.976 16.2608C17.8919 16.2197 17.8276 16.1469 17.7972 16.0583C17.7905 16.0389 17.7855 16.019 17.7823 15.9987C17.7264 15.7757 17.6709 15.5587 17.6242 15.3299C17.6074 15.2817 17.6015 15.2304 17.6069 15.1796C17.6124 15.1288 17.629 15.0799 17.6557 15.0363C17.6823 14.9928 17.7183 14.9557 17.7611 14.9277C17.8038 14.8998 17.8522 14.8816 17.9028 14.8747C18.2412 14.7958 18.5797 14.7122 18.9199 14.6286C18.994 14.6147 19.0214 14.5866 19.0214 14.5125C19.0579 13.9075 19.1945 13.3128 19.4255 12.7525C19.8044 11.8352 20.471 11.0658 21.325 10.5602C21.739 10.3161 22.1801 10.1213 22.6393 9.97976C22.6681 9.96949 22.696 9.95705 22.7229 9.94253L23.3592 9.7892C23.5728 9.7672 23.7959 9.73807 24.0233 9.72149C24.5739 9.67099 25.1288 9.69754 25.672 9.80036C25.7438 9.80356 25.8139 9.8232 25.877 9.85779C25.94 9.89238 25.9942 9.94097 26.0355 9.99984C26.0768 10.0587 26.104 10.1263 26.115 10.1973C26.126 10.2684 26.1206 10.341 26.0991 10.4096C26.048 10.7115 25.9976 11.0131 25.9414 11.3106C25.9416 11.3674 25.9307 11.4236 25.9091 11.4762C25.8876 11.5287 25.8559 11.5765 25.8159 11.6167C25.7758 11.657 25.7283 11.689 25.6759 11.7109C25.6235 11.7327 25.5673 11.7441 25.5105 11.7442C25.4852 11.7444 25.46 11.7423 25.4351 11.7381C24.9707 11.7381 24.5107 11.7242 24.0511 11.7567C23.2899 11.7806 22.5555 12.0439 21.9526 12.5091C21.5326 12.8569 21.2456 13.3391 21.1402 13.8742C21.1264 13.9348 21.1172 13.9998 21.1033 14.0691C21.1033 14.0739 21.1033 14.0782 21.1125 14.0972C21.1522 14.0869 21.1925 14.0796 21.2333 14.0752C21.9069 13.9077 22.5794 13.7499 23.2489 13.5875C23.5461 13.513 23.695 13.6061 23.76 13.8941C23.8155 14.0972 23.8669 14.3027 23.9086 14.5119C23.9243 14.5545 23.9316 14.5998 23.9298 14.6453C23.928 14.6907 23.9173 14.7353 23.8982 14.7766C23.8792 14.8179 23.8522 14.855 23.8188 14.8859C23.7853 14.9167 23.7461 14.9406 23.7035 14.9563C23.6782 14.9656 23.652 14.9719 23.6253 14.9752C22.8309 15.1702 22.0365 15.356 21.2475 15.5506C21.2059 15.5597 21.1639 15.5692 21.1175 15.5784L21.2661 16.173C21.3081 16.1639 21.3497 16.1544 21.387 16.1453C22.1655 15.9547 22.9378 15.773 23.7136 15.5831C24.0294 15.5086 24.177 15.5923 24.2477 15.908L24.3916 16.4834C24.4278 16.5693 24.4285 16.6661 24.3935 16.7524C24.3584 16.8388 24.2906 16.9077 24.2047 16.9441C24.1696 16.9589 24.1324 16.9681 24.0944 16.9712C23.3745 17.1479 22.664 17.3194 21.9488 17.4914L21.8236 17.5252C22.0491 17.8975 22.3516 18.2173 22.7107 18.4631C23.2401 18.7953 23.8733 18.921 24.4894 18.8161C25.194 18.7136 25.8712 18.472 26.4816 18.1054C26.6349 18.0218 26.7927 17.9429 26.9507 17.8637C26.9954 17.8302 27.0467 17.8066 27.1012 17.7942C27.1557 17.7819 27.2122 17.7812 27.267 17.7922C27.3217 17.8032 27.3736 17.8256 27.4191 17.858C27.4647 17.8904 27.5028 17.932 27.5312 17.9801C27.7448 18.254 27.9536 18.5285 28.1489 18.8067C28.1923 18.8569 28.2236 18.9165 28.2405 18.9807C28.2574 19.0449 28.2594 19.1121 28.2463 19.1772C28.2332 19.2424 28.2055 19.3036 28.1651 19.3564C28.1248 19.4091 28.0729 19.4519 28.0135 19.4816L28.0142 19.4822ZM31.1619 14.2113C30.7954 12.1691 29.6326 10.3562 27.9294 9.17127C26.2262 7.98638 24.122 7.52661 22.0798 7.89309L22.0686 7.89544C20.548 8.17155 19.1433 8.89217 18.032 9.96621C16.9207 11.0402 16.1526 12.4195 15.8248 13.9299C15.4969 15.4402 15.6241 17.0138 16.1901 18.4519C16.7562 19.89 17.7358 21.1281 19.0051 22.0098C20.2745 22.8915 21.7766 23.3772 23.3219 23.4056C24.8671 23.434 26.3861 23.0038 27.687 22.1693C28.9878 21.3348 30.0122 20.1336 30.6307 18.7172C31.2492 17.3009 31.4341 15.733 31.1619 14.2116V14.2113ZM28.0142 19.4822C27.5816 19.8119 27.1106 20.0879 26.6116 20.304C25.5959 20.7537 24.4733 20.9053 23.3748 20.741C22.2618 20.5791 21.2486 20.0097 20.5317 19.1431C20.271 18.8325 20.0422 18.4964 19.849 18.1399C19.8369 18.1021 19.8104 18.0706 19.7752 18.0524C19.7399 18.0342 19.6989 18.0308 19.6611 18.0428L19.6493 18.0468C19.3521 18.1257 19.0549 18.1954 18.7578 18.2695C18.7041 18.2918 18.6459 18.3009 18.588 18.296C18.5301 18.2912 18.4742 18.2724 18.425 18.2415C18.3759 18.2105 18.3349 18.1681 18.3055 18.118C18.2761 18.0679 18.2592 18.0114 18.2561 17.9534C18.2094 17.7547 18.1587 17.5499 18.1075 17.3441C18.0914 17.3007 18.084 17.2545 18.0857 17.2082C18.0874 17.1619 18.0983 17.1163 18.1176 17.0742C18.137 17.0321 18.1644 16.9942 18.1984 16.9627C18.2324 16.9312 18.2722 16.9067 18.3157 16.8906C18.343 16.8804 18.3714 16.8737 18.4003 16.8706C18.6789 16.8053 18.9578 16.7353 19.2502 16.6676L19.1016 16.0732L18.9903 16.101C18.7442 16.1612 18.4981 16.2218 18.2456 16.2776C18.1571 16.308 18.0601 16.302 17.976 16.2608C17.8919 16.2197 17.8276 16.1469 17.7972 16.0583C17.7905 16.0389 17.7855 16.019 17.7823 15.9987C17.7264 15.7757 17.6709 15.5587 17.6242 15.3299C17.6074 15.2817 17.6015 15.2304 17.6069 15.1796C17.6124 15.1288 17.629 15.0799 17.6557 15.0363C17.6823 14.9928 17.7183 14.9557 17.7611 14.9277C17.8038 14.8998 17.8522 14.8816 17.9028 14.8747C18.2412 14.7958 18.5797 14.7122 18.9199 14.6286C18.994 14.6147 19.0214 14.5866 19.0214 14.5125C19.0579 13.9075 19.1945 13.3128 19.4255 12.7525C19.8044 11.8352 20.471 11.0658 21.325 10.5602C21.739 10.3161 22.1801 10.1213 22.6393 9.97976C22.6681 9.96949 22.696 9.95705 22.7229 9.94253L23.3592 9.7892C23.5728 9.7672 23.7959 9.73807 24.0233 9.72149C24.5739 9.67099 25.1288 9.69754 25.672 9.80036C25.7438 9.80356 25.8139 9.8232 25.877 9.85779C25.94 9.89238 25.9942 9.94097 26.0355 9.99984C26.0768 10.0587 26.104 10.1263 26.115 10.1973C26.126 10.2684 26.1206 10.341 26.0991 10.4096C26.048 10.7115 25.9976 11.0131 25.9414 11.3106C25.9416 11.3674 25.9307 11.4236 25.9091 11.4762C25.8876 11.5287 25.8559 11.5765 25.8159 11.6167C25.7758 11.657 25.7283 11.689 25.6759 11.7109C25.6235 11.7327 25.5673 11.7441 25.5105 11.7442C25.4852 11.7444 25.46 11.7423 25.4351 11.7381C24.9707 11.7381 24.5107 11.7242 24.0511 11.7567C23.2899 11.7806 22.5555 12.0439 21.9526 12.5091C21.5326 12.8569 21.2456 13.3391 21.1402 13.8742C21.1264 13.9348 21.1172 13.9998 21.1033 14.0691C21.1033 14.0739 21.1033 14.0782 21.1125 14.0972C21.1522 14.0869 21.1925 14.0796 21.2333 14.0752C21.9069 13.9077 22.5794 13.7499 23.2489 13.5875C23.5461 13.513 23.695 13.6061 23.76 13.8941C23.8155 14.0972 23.8669 14.3027 23.9086 14.5119C23.9243 14.5545 23.9316 14.5998 23.9298 14.6453C23.928 14.6907 23.9173 14.7353 23.8982 14.7766C23.8792 14.8179 23.8522 14.855 23.8188 14.8859C23.7853 14.9167 23.7461 14.9406 23.7035 14.9563C23.6782 14.9656 23.652 14.9719 23.6253 14.9752C22.8309 15.1702 22.0365 15.356 21.2475 15.5506C21.2059 15.5597 21.1639 15.5692 21.1175 15.5784L21.2661 16.173C21.3081 16.1639 21.3497 16.1544 21.387 16.1453C22.1655 15.9547 22.9378 15.773 23.7136 15.5831C24.0294 15.5086 24.177 15.5923 24.2477 15.908L24.3916 16.4834C24.4278 16.5693 24.4285 16.6661 24.3935 16.7524C24.3584 16.8388 24.2906 16.9077 24.2047 16.9441C24.1696 16.9589 24.1324 16.9681 24.0944 16.9712C23.3745 17.1479 22.664 17.3194 21.9488 17.4914L21.8236 17.5252C22.0491 17.8975 22.3516 18.2173 22.7107 18.4631C23.2401 18.7953 23.8733 18.921 24.4894 18.8161C25.194 18.7136 25.8712 18.472 26.4816 18.1054C26.6349 18.0218 26.7927 17.9429 26.9507 17.8637C26.9954 17.8302 27.0467 17.8066 27.1012 17.7942C27.1557 17.7819 27.2122 17.7812 27.267 17.7922C27.3217 17.8032 27.3736 17.8256 27.4191 17.858C27.4647 17.8904 27.5028 17.932 27.5312 17.9801C27.7448 18.254 27.9536 18.5285 28.1489 18.8067C28.1923 18.8569 28.2236 18.9165 28.2405 18.9807C28.2574 19.0449 28.2594 19.1121 28.2463 19.1772C28.2332 19.2424 28.2055 19.3036 28.1651 19.3564C28.1248 19.4091 28.0729 19.4519 28.0135 19.4816L28.0142 19.4822ZM31.1619 14.2113C30.7954 12.1691 29.6326 10.3562 27.9294 9.17127C26.2262 7.98638 24.122 7.52661 22.0798 7.89309L22.0686 7.89544C20.548 8.17155 19.1433 8.89217 18.032 9.96621C16.9207 11.0402 16.1526 12.4195 15.8248 13.9299C15.4969 15.4402 15.6241 17.0138 16.1901 18.4519C16.7562 19.89 17.7358 21.1281 19.0051 22.0098C20.2745 22.8915 21.7766 23.3772 23.3219 23.4056C24.8671 23.434 26.3861 23.0038 27.687 22.1693C28.9878 21.3348 30.0122 20.1336 30.6307 18.7172C31.2492 17.3009 31.4341 15.733 31.1619 14.2116V14.2113ZM28.0142 19.4822C27.5816 19.8119 27.1106 20.0879 26.6116 20.304C25.5959 20.7537 24.4733 20.9053 23.3748 20.741C22.2618 20.5791 21.2486 20.0097 20.5317 19.1431C20.271 18.8325 20.0422 18.4964 19.849 18.1399C19.8369 18.1021 19.8104 18.0706 19.7752 18.0524C19.7399 18.0342 19.6989 18.0308 19.6611 18.0428L19.6493 18.0468C19.3521 18.1257 19.0549 18.1954 18.7578 18.2695C18.7041 18.2918 18.6459 18.3009 18.588 18.296C18.5301 18.2912 18.4742 18.2724 18.425 18.2415C18.3759 18.2105 18.3349 18.1681 18.3055 18.118C18.2761 18.0679 18.2592 18.0114 18.2561 17.9534C18.2094 17.7547 18.1587 17.5499 18.1075 17.3441C18.0914 17.3007 18.084 17.2545 18.0857 17.2082C18.0874 17.1619 18.0983 17.1163 18.1176 17.0742C18.137 17.0321 18.1644 16.9942 18.1984 16.9627C18.2324 16.9312 18.2722 16.9067 18.3157 16.8906C18.343 16.8804 18.3714 16.8737 18.4003 16.8706C18.6789 16.8053 18.9578 16.7353 19.2502 16.6676L19.1016 16.0732L18.9903 16.101C18.7442 16.1612 18.4981 16.2218 18.2456 16.2776C18.1571 16.308 18.0601 16.302 17.976 16.2608C17.8919 16.2197 17.8276 16.1469 17.7972 16.0583C17.7905 16.0389 17.7855 16.019 17.7823 15.9987C17.7264 15.7757 17.6709 15.5587 17.6242 15.3299C17.6074 15.2817 17.6015 15.2304 17.6069 15.1796C17.6124 15.1288 17.629 15.0799 17.6557 15.0363C17.6823 14.9928 17.7183 14.9557 17.7611 14.9277C17.8038 14.8998 17.8522 14.8816 17.9028 14.8747C18.2412 14.7958 18.5797 14.7122 18.9199 14.6286C18.994 14.6147 19.0214 14.5866 19.0214 14.5125C19.0579 13.9075 19.1945 13.3128 19.4255 12.7525C19.8044 11.8352 20.471 11.0658 21.325 10.5602C21.739 10.3161 22.1801 10.1213 22.6393 9.97976C22.6681 9.96949 22.696 9.95705 22.7229 9.94253L23.3592 9.7892C23.5728 9.7672 23.7959 9.73807 24.0233 9.72149C24.5739 9.67099 25.1288 9.69754 25.672 9.80036C25.7438 9.80356 25.8139 9.8232 25.877 9.85779C25.94 9.89238 25.9942 9.94097 26.0355 9.99984C26.0768 10.0587 26.104 10.1263 26.115 10.1973C26.126 10.2684 26.1206 10.341 26.0991 10.4096C26.048 10.7115 25.9976 11.0131 25.9414 11.3106C25.9416 11.3674 25.9307 11.4236 25.9091 11.4762C25.8876 11.5287 25.8559 11.5765 25.8159 11.6167C25.7758 11.657 25.7283 11.689 25.6759 11.7109C25.6235 11.7327 25.5673 11.7441 25.5105 11.7442C25.4852 11.7444 25.46 11.7423 25.4351 11.7381C24.9707 11.7381 24.5107 11.7242 24.0511 11.7567C23.2899 11.7806 22.5555 12.0439 21.9526 12.5091C21.5326 12.8569 21.2456 13.3391 21.1402 13.8742C21.1264 13.9348 21.1172 13.9998 21.1033 14.0691C21.1033 14.0739 21.1033 14.0782 21.1125 14.0972C21.1522 14.0869 21.1925 14.0796 21.2333 14.0752C21.9069 13.9077 22.5794 13.7499 23.2489 13.5875C23.5461 13.513 23.695 13.6061 23.76 13.8941C23.8155 14.0972 23.8669 14.3027 23.9086 14.5119C23.9243 14.5545 23.9316 14.5998 23.9298 14.6453C23.928 14.6907 23.9173 14.7353 23.8982 14.7766C23.8792 14.8179 23.8522 14.855 23.8188 14.8859C23.7853 14.9167 23.7461 14.9406 23.7035 14.9563C23.6782 14.9656 23.652 14.9719 23.6253 14.9752C22.8309 15.1702 22.0365 15.356 21.2475 15.5506C21.2059 15.5597 21.1639 15.5692 21.1175 15.5784L21.2661 16.173C21.3081 16.1639 21.3497 16.1544 21.387 16.1453C22.1655 15.9547 22.9378 15.773 23.7136 15.5831C24.0294 15.5086 24.177 15.5923 24.2477 15.908L24.3916 16.4834C24.4278 16.5693 24.4285 16.6661 24.3935 16.7524C24.3584 16.8388 24.2906 16.9077 24.2047 16.9441C24.1696 16.9589 24.1324 16.9681 24.0944 16.9712C23.3745 17.1479 22.664 17.3194 21.9488 17.4914L21.8236 17.5252C22.0491 17.8975 22.3516 18.2173 22.7107 18.4631C23.2401 18.7953 23.8733 18.921 24.4894 18.8161C25.194 18.7136 25.8712 18.472 26.4816 18.1054C26.6349 18.0218 26.7927 17.9429 26.9507 17.8637C26.9954 17.8302 27.0467 17.8066 27.1012 17.7942C27.1557 17.7819 27.2122 17.7812 27.267 17.7922C27.3217 17.8032 27.3736 17.8256 27.4191 17.858C27.4647 17.8904 27.5028 17.932 27.5312 17.9801C27.7448 18.254 27.9536 18.5285 28.1489 18.8067C28.1923 18.8569 28.2236 18.9165 28.2405 18.9807C28.2574 19.0449 28.2594 19.1121 28.2463 19.1772C28.2332 19.2424 28.2055 19.3036 28.1651 19.3564C28.1248 19.4091 28.0729 19.4519 28.0135 19.4816L28.0142 19.4822ZM31.1619 14.2113C30.7954 12.1691 29.6326 10.3562 27.9294 9.17127C26.2262 7.98638 24.122 7.52661 22.0798 7.89309L22.0686 7.89544C20.548 8.17155 19.1433 8.89217 18.032 9.96621C16.9207 11.0402 16.1526 12.4195 15.8248 13.9299C15.4969 15.4402 15.6241 17.0138 16.1901 18.4519C16.7562 19.89 17.7358 21.1281 19.0051 22.0098C20.2745 22.8915 21.7766 23.3772 23.3219 23.4056C24.8671 23.434 26.3861 23.0038 27.687 22.1693C28.9878 21.3348 30.0122 20.1336 30.6307 18.7172C31.2492 17.3009 31.4341 15.733 31.1619 14.2116V14.2113ZM28.0142 19.4822C27.5816 19.8119 27.1106 20.0879 26.6116 20.304C25.5959 20.7537 24.4733 20.9053 23.3748 20.741C22.2618 20.5791 21.2486 20.0097 20.5317 19.1431C20.271 18.8325 20.0422 18.4964 19.849 18.1399C19.8369 18.1021 19.8104 18.0706 19.7752 18.0524C19.7399 18.0342 19.6989 18.0308 19.6611 18.0428L19.6493 18.0468C19.3521 18.1257 19.0549 18.1954 18.7578 18.2695C18.7041 18.2918 18.6459 18.3009 18.588 18.296C18.5301 18.2912 18.4742 18.2724 18.425 18.2415C18.3759 18.2105 18.3349 18.1681 18.3055 18.118C18.2761 18.0679 18.2592 18.0114 18.2561 17.9534C18.2094 17.7547 18.1587 17.5499 18.1075 17.3441C18.0914 17.3007 18.084 17.2545 18.0857 17.2082C18.0874 17.1619 18.0983 17.1163 18.1176 17.0742C18.137 17.0321 18.1644 16.9942 18.1984 16.9627C18.2324 16.9312 18.2722 16.9067 18.3157 16.8906C18.343 16.8804 18.3714 16.8737 18.4003 16.8706C18.6789 16.8053 18.9578 16.7353 19.2502 16.6676L19.1016 16.0732L18.9903 16.101C18.7442 16.1612 18.4981 16.2218 18.2456 16.2776C18.1571 16.308 18.0601 16.302 17.976 16.2608C17.8919 16.2197 17.8276 16.1469 17.7972 16.0583C17.7905 16.0389 17.7855 16.019 17.7823 15.9987C17.7264 15.7757 17.6709 15.5587 17.6242 15.3299C17.6074 15.2817 17.6015 15.2304 17.6069 15.1796C17.6124 15.1288 17.629 15.0799 17.6557 15.0363C17.6823 14.9928 17.7183 14.9557 17.7611 14.9277C17.8038 14.8998 17.8522 14.8816 17.9028 14.8747C18.2412 14.7958 18.5797 14.7122 18.9199 14.6286C18.994 14.6147 19.0214 14.5866 19.0214 14.5125C19.0579 13.9075 19.1945 13.3128 19.4255 12.7525C19.8044 11.8352 20.471 11.0658 21.325 10.5602C21.739 10.3161 22.1801 10.1213 22.6393 9.97976C22.6681 9.96949 22.696 9.95705 22.7229 9.94253L23.3592 9.7892C23.5728 9.7672 23.7959 9.73807 24.0233 9.72149C24.5739 9.67099 25.1288 9.69754 25.672 9.80036C25.7438 9.80356 25.8139 9.8232 25.877 9.85779C25.94 9.89238 25.9942 9.94097 26.0355 9.99984C26.0768 10.0587 26.104 10.1263 26.115 10.1973C26.126 10.2684 26.1206 10.341 26.0991 10.4096C26.048 10.7115 25.9976 11.0131 25.9414 11.3106C25.9416 11.3674 25.9307 11.4236 25.9091 11.4762C25.8876 11.5287 25.8559 11.5765 25.8159 11.6167C25.7758 11.657 25.7283 11.689 25.6759 11.7109C25.6235 11.7327 25.5673 11.7441 25.5105 11.7442C25.4852 11.7444 25.46 11.7423 25.4351 11.7381C24.9707 11.7381 24.5107 11.7242 24.0511 11.7567C23.2899 11.7806 22.5555 12.0439 21.9526 12.5091C21.5326 12.8569 21.2456 13.3391 21.1402 13.8742C21.1264 13.9348 21.1172 13.9998 21.1033 14.0691C21.1033 14.0739 21.1033 14.0782 21.1125 14.0972C21.1522 14.0869 21.1925 14.0796 21.2333 14.0752C21.9069 13.9077 22.5794 13.7499 23.2489 13.5875C23.5461 13.513 23.695 13.6061 23.76 13.8941C23.8155 14.0972 23.8669 14.3027 23.9086 14.5119C23.9243 14.5545 23.9316 14.5998 23.9298 14.6453C23.928 14.6907 23.9173 14.7353 23.8982 14.7766C23.8792 14.8179 23.8522 14.855 23.8188 14.8859C23.7853 14.9167 23.7461 14.9406 23.7035 14.9563C23.6782 14.9656 23.652 14.9719 23.6253 14.9752C22.8309 15.1702 22.0365 15.356 21.2475 15.5506C21.2059 15.5597 21.1639 15.5692 21.1175 15.5784L21.2661 16.173C21.3081 16.1639 21.3497 16.1544 21.387 16.1453C22.1655 15.9547 22.9378 15.773 23.7136 15.5831C24.0294 15.5086 24.177 15.5923 24.2477 15.908L24.3916 16.4834C24.4278 16.5693 24.4285 16.6661 24.3935 16.7524C24.3584 16.8388 24.2906 16.9077 24.2047 16.9441C24.1696 16.9589 24.1324 16.9681 24.0944 16.9712C23.3745 17.1479 22.664 17.3194 21.9488 17.4914L21.8236 17.5252C22.0491 17.8975 22.3516 18.2173 22.7107 18.4631C23.2401 18.7953 23.8733 18.921 24.4894 18.8161C25.194 18.7136 25.8712 18.472 26.4816 18.1054C26.6349 18.0218 26.7927 17.9429 26.9507 17.8637C26.9954 17.8302 27.0467 17.8066 27.1012 17.7942C27.1557 17.7819 27.2122 17.7812 27.267 17.7922C27.3217 17.8032 27.3736 17.8256 27.4191 17.858C27.4647 17.8904 27.5028 17.932 27.5312 17.9801C27.7448 18.254 27.9536 18.5285 28.1489 18.8067C28.1923 18.8569 28.2236 18.9165 28.2405 18.9807C28.2574 19.0449 28.2594 19.1121 28.2463 19.1772C28.2332 19.2424 28.2055 19.3036 28.1651 19.3564C28.1248 19.4091 28.0729 19.4519 28.0135 19.4816L28.0142 19.4822ZM31.1619 14.2113C30.7954 12.1691 29.6326 10.3562 27.9294 9.17127C26.2262 7.98638 24.122 7.52661 22.0798 7.89309L22.0686 7.89544C20.548 8.17155 19.1433 8.89217 18.032 9.96621C16.9207 11.0402 16.1526 12.4195 15.8248 13.9299C15.4969 15.4402 15.6241 17.0138 16.1901 18.4519C16.7562 19.89 17.7358 21.1281 19.0051 22.0098C20.2745 22.8915 21.7766 23.3772 23.3219 23.4056C24.8671 23.434 26.3861 23.0038 27.687 22.1693C28.9878 21.3348 30.0122 20.1336 30.6307 18.7172C31.2492 17.3009 31.4341 15.733 31.1619 14.2116V14.2113ZM28.0142 19.4822C27.5816 19.8119 27.1106 20.0879 26.6116 20.304C25.5959 20.7537 24.4733 20.9053 23.3748 20.741C22.2618 20.5791 21.2486 20.0097 20.5317 19.1431C20.271 18.8325 20.0422 18.4964 19.849 18.1399C19.8369 18.1021 19.8104 18.0706 19.7752 18.0524C19.7399 18.0342 19.6989 18.0308 19.6611 18.0428L19.6493 18.0468C19.3521 18.1257 19.0549 18.1954 18.7578 18.2695C18.7041 18.2918 18.6459 18.3009 18.588 18.296C18.5301 18.2912 18.4742 18.2724 18.425 18.2415C18.3759 18.2105 18.3349 18.1681 18.3055 18.118C18.2761 18.0679 18.2592 18.0114 18.2561 17.9534C18.2094 17.7547 18.1587 17.5499 18.1075 17.3441C18.0914 17.3007 18.084 17.2545 18.0857 17.2082C18.0874 17.1619 18.0983 17.1163 18.1176 17.0742C18.137 17.0321 18.1644 16.9942 18.1984 16.9627C18.2324 16.9312 18.2722 16.9067 18.3157 16.8906C18.343 16.8804 18.3714 16.8737 18.4003 16.8706C18.6789 16.8053 18.9578 16.7353 19.2502 16.6676L19.1016 16.0732L18.9903 16.101C18.7442 16.1612 18.4981 16.2218 18.2456 16.2776C18.1571 16.308 18.0601 16.302 17.976 16.2608C17.8919 16.2197 17.8276 16.1469 17.7972 16.0583C17.7905 16.0389 17.7855 16.019 17.7823 15.9987C17.7264 15.7757 17.6709 15.5587 17.6242 15.3299C17.6074 15.2817 17.6015 15.2304 17.6069 15.1796C17.6124 15.1288 17.629 15.0799 17.6557 15.0363C17.6823 14.9928 17.7183 14.9557 17.7611 14.9277C17.8038 14.8998 17.8522 14.8816 17.9028 14.8747C18.2412 14.7958 18.5797 14.7122 18.9199 14.6286C18.994 14.6147 19.0214 14.5866 19.0214 14.5125C19.0579 13.9075 19.1945 13.3128 19.4255 12.7525C19.8044 11.8352 20.471 11.0658 21.325 10.5602C21.739 10.3161 22.1801 10.1213 22.6393 9.97976C22.6681 9.96949 22.696 9.95705 22.7229 9.94253L23.3592 9.7892C23.5728 9.7672 23.7959 9.73807 24.0233 9.72149C24.5739 9.67099 25.1288 9.69754 25.672 9.80036C25.7438 9.80356 25.8139 9.8232 25.877 9.85779C25.94 9.89238 25.9942 9.94097 26.0355 9.99984C26.0768 10.0587 26.104 10.1263 26.115 10.1973C26.126 10.2684 26.1206 10.341 26.0991 10.4096C26.048 10.7115 25.9976 11.0131 25.9414 11.3106C25.9416 11.3674 25.9307 11.4236 25.9091 11.4762C25.8876 11.5287 25.8559 11.5765 25.8159 11.6167C25.7758 11.657 25.7283 11.689 25.6759 11.7109C25.6235 11.7327 25.5673 11.7441 25.5105 11.7442C25.4852 11.7444 25.46 11.7423 25.4351 11.7381C24.9707 11.7381 24.5107 11.7242 24.0511 11.7567C23.2899 11.7806 22.5555 12.0439 21.9526 12.5091C21.5326 12.8569 21.2456 13.3391 21.1402 13.8742C21.1264 13.9348 21.1172 13.9998 21.1033 14.0691C21.1033 14.0739 21.1033 14.0782 21.1125 14.0972C21.1522 14.0869 21.1925 14.0796 21.2333 14.0752C21.9069 13.9077 22.5794 13.7499 23.2489 13.5875C23.5461 13.513 23.695 13.6061 23.76 13.8941C23.8155 14.0972 23.8669 14.3027 23.9086 14.5119C23.9243 14.5545 23.9316 14.5998 23.9298 14.6453C23.928 14.6907 23.9173 14.7353 23.8982 14.7766C23.8792 14.8179 23.8522 14.855 23.8188 14.8859C23.7853 14.9167 23.7461 14.9406 23.7035 14.9563C23.6782 14.9656 23.652 14.9719 23.6253 14.9752C22.8309 15.1702 22.0365 15.356 21.2475 15.5506C21.2059 15.5597 21.1639 15.5692 21.1175 15.5784L21.2661 16.173C21.3081 16.1639 21.3497 16.1544 21.387 16.1453C22.1655 15.9547 22.9378 15.773 23.7136 15.5831C24.0294 15.5086 24.177 15.5923 24.2477 15.908L24.3916 16.4834C24.4278 16.5693 24.4285 16.6661 24.3935 16.7524C24.3584 16.8388 24.2906 16.9077 24.2047 16.9441C24.1696 16.9589 24.1324 16.9681 24.0944 16.9712C23.3745 17.1479 22.664 17.3194 21.9488 17.4914L21.8236 17.5252C22.0491 17.8975 22.3516 18.2173 22.7107 18.4631C23.2401 18.7953 23.8733 18.921 24.4894 18.8161C25.194 18.7136 25.8712 18.472 26.4816 18.1054C26.6349 18.0218 26.7927 17.9429 26.9507 17.8637C26.9954 17.8302 27.0467 17.8066 27.1012 17.7942C27.1557 17.7819 27.2122 17.7812 27.267 17.7922C27.3217 17.8032 27.3736 17.8256 27.4191 17.858C27.4647 17.8904 27.5028 17.932 27.5312 17.9801C27.7448 18.254 27.9536 18.5285 28.1489 18.8067C28.1923 18.8569 28.2236 18.9165 28.2405 18.9807C28.2574 19.0449 28.2594 19.1121 28.2463 19.1772C28.2332 19.2424 28.2055 19.3036 28.1651 19.3564C28.1248 19.4091 28.0729 19.4519 28.0135 19.4816L28.0142 19.4822ZM31.1619 14.2113C30.7954 12.1691 29.6326 10.3562 27.9294 9.17127C26.2262 7.98638 24.122 7.52661 22.0798 7.89309L22.0686 7.89544C20.548 8.17155 19.1433 8.89217 18.032 9.96621C16.9207 11.0402 16.1526 12.4195 15.8248 13.9299C15.4969 15.4402 15.6241 17.0138 16.1901 18.4519C16.7562 19.89 17.7358 21.1281 19.0051 22.0098C20.2745 22.8915 21.7766 23.3772 23.3219 23.4056C24.8671 23.434 26.3861 23.0038 27.687 22.1693C28.9878 21.3348 30.0122 20.1336 30.6307 18.7172C31.2492 17.3009 31.4341 15.733 31.1619 14.2116V14.2113ZM28.0142 19.4822C27.5816 19.8119 27.1106 20.0879 26.6116 20.304C25.5959 20.7537 24.4733 20.9053 23.3748 20.741C22.2618 20.5791 21.2486 20.0097 20.5317 19.1431C20.271 18.8325 20.0422 18.4964 19.849 18.1399C19.8369 18.1021 19.8104 18.0706 19.7752 18.0524C19.7399 18.0342 19.6989 18.0308 19.6611 18.0428L19.6493 18.0468C19.3521 18.1257 19.0549 18.1954 18.7578 18.2695C18.7041 18.2918 18.6459 18.3009 18.588 18.296C18.5301 18.2912 18.4742 18.2724 18.425 18.2415C18.3759 18.2105 18.3349 18.1681 18.3055 18.118C18.2761 18.0679 18.2592 18.0114 18.2561 17.9534C18.2094 17.7547 18.1587 17.5499 18.1075 17.3441C18.0914 17.3007 18.084 17.2545 18.0857 17.2082C18.0874 17.1619 18.0983 17.1163 18.1176 17.0742C18.137 17.0321 18.1644 16.9942 18.1984 16.9627C18.2324 16.9312 18.2722 16.9067 18.3157 16.8906C18.343 16.8804 18.3714 16.8737 18.4003 16.8706C18.6789 16.8053 18.9578 16.7353 19.2502 16.6676L19.1016 16.0732L18.9903 16.101C18.7442 16.1612 18.4981 16.2218 18.2456 16.2776C18.1571 16.308 18.0601 16.302 17.976 16.2608C17.8919 16.2197 17.8276 16.1469 17.7972 16.0583C17.7905 16.0389 17.7855 16.019 17.7823 15.9987C17.7264 15.7757 17.6709 15.5587 17.6242 15.3299C17.6074 15.2817 17.6015 15.2304 17.6069 15.1796C17.6124 15.1288 17.629 15.0799 17.6557 15.0363C17.6823 14.9928 17.7183 14.9557 17.7611 14.9277C17.8038 14.8998 17.8522 14.8816 17.9028 14.8747C18.2412 14.7958 18.5797 14.7122 18.9199 14.6286C18.994 14.6147 19.0214 14.5866 19.0214 14.5125C19.0579 13.9075 19.1945 13.3128 19.4255 12.7525C19.8044 11.8352 20.471 11.0658 21.325 10.5602C21.739 10.3161 22.1801 10.1213 22.6393 9.97976C22.6681 9.96949 22.696 9.95705 22.7229 9.94253L23.3592 9.7892C23.5728 9.7672 23.7959 9.73807 24.0233 9.72149C24.5739 9.67099 25.1288 9.69754 25.672 9.80036C25.7438 9.80356 25.8139 9.8232 25.877 9.85779C25.94 9.89238 25.9942 9.94097 26.0355 9.99984C26.0768 10.0587 26.104 10.1263 26.115 10.1973C26.126 10.2684 26.1206 10.341 26.0991 10.4096C26.048 10.7115 25.9976 11.0131 25.9414 11.3106C25.9416 11.3674 25.9307 11.4236 25.9091 11.4762C25.8876 11.5287 25.8559 11.5765 25.8159 11.6167C25.7758 11.657 25.7283 11.689 25.6759 11.7109C25.6235 11.7327 25.5673 11.7441 25.5105 11.7442C25.4852 11.7444 25.46 11.7423 25.4351 11.7381C24.9707 11.7381 24.5107 11.7242 24.0511 11.7567C23.2899 11.7806 22.5555 12.0439 21.9526 12.5091C21.5326 12.8569 21.2456 13.3391 21.1402 13.8742C21.1264 13.9348 21.1172 13.9998 21.1033 14.0691C21.1033 14.0739 21.1033 14.0782 21.1125 14.0972C21.1522 14.0869 21.1925 14.0796 21.2333 14.0752C21.9069 13.9077 22.5794 13.7499 23.2489 13.5875C23.5461 13.513 23.695 13.6061 23.76 13.8941C23.8155 14.0972 23.8669 14.3027 23.9086 14.5119C23.9243 14.5545 23.9316 14.5998 23.9298 14.6453C23.928 14.6907 23.9173 14.7353 23.8982 14.7766C23.8792 14.8179 23.8522 14.855 23.8188 14.8859C23.7853 14.9167 23.7461 14.9406 23.7035 14.9563C23.6782 14.9656 23.652 14.9719 23.6253 14.9752C22.8309 15.1702 22.0365 15.356 21.2475 15.5506C21.2059 15.5597 21.1639 15.5692 21.1175 15.5784L21.2661 16.173C21.3081 16.1639 21.3497 16.1544 21.387 16.1453C22.1655 15.9547 22.9378 15.773 23.7136 15.5831C24.0294 15.5086 24.177 15.5923 24.2477 15.908L24.3916 16.4834C24.4278 16.5693 24.4285 16.6661 24.3935 16.7524C24.3584 16.8388 24.2906 16.9077 24.2047 16.9441C24.1696 16.9589 24.1324 16.9681 24.0944 16.9712C23.3745 17.1479 22.664 17.3194 21.9488 17.4914L21.8236 17.5252C22.0491 17.8975 22.3516 18.2173 22.7107 18.4631C23.2401 18.7953 23.8733 18.921 24.4894 18.8161C25.194 18.7136 25.8712 18.472 26.4816 18.1054C26.6349 18.0218 26.7927 17.9429 26.9507 17.8637C26.9954 17.8302 27.0467 17.8066 27.1012 17.7942C27.1557 17.7819 27.2122 17.7812 27.267 17.7922C27.3217 17.8032 27.3736 17.8256 27.4191 17.858C27.4647 17.8904 27.5028 17.932 27.5312 17.9801C27.7448 18.254 27.9536 18.5285 28.1489 18.8067C28.1923 18.8569 28.2236 18.9165 28.2405 18.9807C28.2574 19.0449 28.2594 19.1121 28.2463 19.1772C28.2332 19.2424 28.2055 19.3036 28.1651 19.3564C28.1248 19.4091 28.0729 19.4519 28.0135 19.4816L28.0142 19.4822ZM31.1619 14.2113C30.7954 12.1691 29.6326 10.3562 27.9294 9.17127C26.2262 7.98638 24.122 7.52661 22.0798 7.89309L22.0686 7.89544C20.548 8.17155 19.1433 8.89217 18.032 9.96621C16.9207 11.0402 16.1526 12.4195 15.8248 13.9299C15.4969 15.4402 15.6241 17.0138 16.1901 18.4519C16.7562 19.89 17.7358 21.1281 19.0051 22.0098C20.2745 22.8915 21.7766 23.3772 23.3219 23.4056C24.8671 23.434 26.3861 23.0038 27.687 22.1693C28.9878 21.3348 30.0122 20.1336 30.6307 18.7172C31.2492 17.3009 31.4341 15.733 31.1619 14.2116V14.2113ZM28.0142 19.4822C27.5816 19.8119 27.1106 20.0879 26.6116 20.304C25.5959 20.7537 24.4733 20.9053 23.3748 20.741C22.2618 20.5791 21.2486 20.0097 20.5317 19.1431C20.271 18.8325 20.0422 18.4964 19.849 18.1399C19.8369 18.1021 19.8104 18.0706 19.7752 18.0524C19.7399 18.0342 19.6989 18.0308 19.6611 18.0428L19.6493 18.0468C19.3521 18.1257 19.0549 18.1954 18.7578 18.2695C18.7041 18.2918 18.6459 18.3009 18.588 18.296C18.5301 18.2912 18.4742 18.2724 18.425 18.2415C18.3759 18.2105 18.3349 18.1681 18.3055 18.118C18.2761 18.0679 18.2592 18.0114 18.2561 17.9534C18.2094 17.7547 18.1587 17.5499 18.1075 17.3441C18.0914 17.3007 18.084 17.2545 18.0857 17.2082C18.0874 17.1619 18.0983 17.1163 18.1176 17.0742C18.137 17.0321 18.1644 16.9942 18.1984 16.9627C18.2324 16.9312 18.2722 16.9067 18.3157 16.8906C18.343 16.8804 18.3714 16.8737 18.4003 16.8706C18.6789 16.8053 18.9578 16.7353 19.2502 16.6676L19.1016 16.0732L18.9903 16.101C18.7442 16.1612 18.4981 16.2218 18.2456 16.2776C18.1571 16.308 18.0601 16.302 17.976 16.2608C17.8919 16.2197 17.8276 16.1469 17.7972 16.0583C17.7905 16.0389 17.7855 16.019 17.7823 15.9987C17.7264 15.7757 17.6709 15.5587 17.6242 15.3299C17.6074 15.2817 17.6015 15.2304 17.6069 15.1796C17.6124 15.1288 17.629 15.0799 17.6557 15.0363C17.6823 14.9928 17.7183 14.9557 17.7611 14.9277C17.8038 14.8998 17.8522 14.8816 17.9028 14.8747C18.2412 14.7958 18.5797 14.7122 18.9199 14.6286C18.994 14.6147 19.0214 14.5866 19.0214 14.5125C19.0579 13.9075 19.1945 13.3128 19.4255 12.7525C19.8044 11.8352 20.471 11.0658 21.325 10.5602C21.739 10.3161 22.1801 10.1213 22.6393 9.97976C22.6681 9.96949 22.696 9.95705 22.7229 9.94253L23.3592 9.7892C23.5728 9.7672 23.7959 9.73807 24.0233 9.72149C24.5739 9.67099 25.1288 9.69754 25.672 9.80036C25.7438 9.80356 25.8139 9.8232 25.877 9.85779C25.94 9.89238 25.9942 9.94097 26.0355 9.99984C26.0768 10.0587 26.104 10.1263 26.115 10.1973C26.126 10.2684 26.1206 10.341 26.0991 10.4096C26.048 10.7115 25.9976 11.0131 25.9414 11.3106C25.9416 11.3674 25.9307 11.4236 25.9091 11.4762C25.8876 11.5287 25.8559 11.5765 25.8159 11.6167C25.7758 11.657 25.7283 11.689 25.6759 11.7109C25.6235 11.7327 25.5673 11.7441 25.5105 11.7442C25.4852 11.7444 25.46 11.7423 25.4351 11.7381C24.9707 11.7381 24.5107 11.7242 24.0511 11.7567C23.2899 11.7806 22.5555 12.0439 21.9526 12.5091C21.5326 12.8569 21.2456 13.3391 21.1402 13.8742C21.1264 13.9348 21.1172 13.9998 21.1033 14.0691C21.1033 14.0739 21.1033 14.0782 21.1125 14.0972C21.1522 14.0869 21.1925 14.0796 21.2333 14.0752C21.9069 13.9077 22.5794 13.7499 23.2489 13.5875C23.5461 13.513 23.695 13.6061 23.76 13.8941C23.8155 14.0972 23.8669 14.3027 23.9086 14.5119C23.9243 14.5545 23.9316 14.5998 23.9298 14.6453C23.928 14.6907 23.9173 14.7353 23.8982 14.7766C23.8792 14.8179 23.8522 14.855 23.8188 14.8859C23.7853 14.9167 23.7461 14.9406 23.7035 14.9563C23.6782 14.9656 23.652 14.9719 23.6253 14.9752C22.8309 15.1702 22.0365 15.356 21.2475 15.5506C21.2059 15.5597 21.1639 15.5692 21.1175 15.5784L21.2661 16.173C21.3081 16.1639 21.3497 16.1544 21.387 16.1453C22.1655 15.9547 22.9378 15.773 23.7136 15.5831C24.0294 15.5086 24.177 15.5923 24.2477 15.908L24.3916 16.4834C24.4278 16.5693 24.4285 16.6661 24.3935 16.7524C24.3584 16.8388 24.2906 16.9077 24.2047 16.9441C24.1696 16.9589 24.1324 16.9681 24.0944 16.9712C23.3745 17.1479 22.664 17.3194 21.9488 17.4914L21.8236 17.5252C22.0491 17.8975 22.3516 18.2173 22.7107 18.4631C23.2401 18.7953 23.8733 18.921 24.4894 18.8161C25.194 18.7136 25.8712 18.472 26.4816 18.1054C26.6349 18.0218 26.7927 17.9429 26.9507 17.8637C26.9954 17.8302 27.0467 17.8066 27.1012 17.7942C27.1557 17.7819 27.2122 17.7812 27.267 17.7922C27.3217 17.8032 27.3736 17.8256 27.4191 17.858C27.4647 17.8904 27.5028 17.932 27.5312 17.9801C27.7448 18.254 27.9536 18.5285 28.1489 18.8067C28.1923 18.8569 28.2236 18.9165 28.2405 18.9807C28.2574 19.0449 28.2594 19.1121 28.2463 19.1772C28.2332 19.2424 28.2055 19.3036 28.1651 19.3564C28.1248 19.4091 28.0729 19.4519 28.0135 19.4816L28.0142 19.4822ZM31.1619 14.2113C30.7954 12.1691 29.6326 10.3562 27.9294 9.17127C26.2262 7.98638 24.122 7.52661 22.0798 7.89309L22.0686 7.89544C20.548 8.17155 19.1433 8.89217 18.032 9.96621C16.9207 11.0402 16.1526 12.4195 15.8248 13.9299C15.4969 15.4402 15.6241 17.0138 16.1901 18.4519C16.7562 19.89 17.7358 21.1281 19.0051 22.0098C20.2745 22.8915 21.7766 23.3772 23.3219 23.4056C24.8671 23.434 26.3861 23.0038 27.687 22.1693C28.9878 21.3348 30.0122 20.1336 30.6307 18.7172C31.2492 17.3009 31.4341 15.733 31.1619 14.2116V14.2113ZM28.0142 19.4822C27.5816 19.8119 27.1106 20.0879 26.6116 20.304C25.5959 20.7537 24.4733 20.9053 23.3748 20.741C22.2618 20.5791 21.2486 20.0097 20.5317 19.1431C20.271 18.8325 20.0422 18.4964 19.849 18.1399C19.8369 18.1021 19.8104 18.0706 19.7752 18.0524C19.7399 18.0342 19.6989 18.0308 19.6611 18.0428L19.6493 18.0468C19.3521 18.1257 19.0549 18.1954 18.7578 18.2695C18.7041 18.2918 18.6459 18.3009 18.588 18.296C18.5301 18.2912 18.4742 18.2724 18.425 18.2415C18.3759 18.2105 18.3349 18.1681 18.3055 18.118C18.2761 18.0679 18.2592 18.0114 18.2561 17.9534C18.2094 17.7547 18.1587 17.5499 18.1075 17.3441C18.0914 17.3007 18.084 17.2545 18.0857 17.2082C18.0874 17.1619 18.0983 17.1163 18.1176 17.0742C18.137 17.0321 18.1644 16.9942 18.1984 16.9627C18.2324 16.9312 18.2722 16.9067 18.3157 16.8906C18.343 16.8804 18.3714 16.8737 18.4003 16.8706C18.6789 16.8053 18.9578 16.7353 19.2502 16.6676L19.1016 16.0732L18.9903 16.101C18.7442 16.1612 18.4981 16.2218 18.2456 16.2776C18.1571 16.308 18.0601 16.302 17.976 16.2608C17.8919 16.2197 17.8276 16.1469 17.7972 16.0583C17.7905 16.0389 17.7855 16.019 17.7823 15.9987C17.7264 15.7757 17.6709 15.5587 17.6242 15.3299C17.6074 15.2817 17.6015 15.2304 17.6069 15.1796C17.6124 15.1288 17.629 15.0799 17.6557 15.0363C17.6823 14.9928 17.7183 14.9557 17.7611 14.9277C17.8038 14.8998 17.8522 14.8816 17.9028 14.8747C18.2412 14.7958 18.5797 14.7122 18.9199 14.6286C18.994 14.6147 19.0214 14.5866 19.0214 14.5125C19.0579 13.9075 19.1945 13.3128 19.4255 12.7525C19.8044 11.8352 20.471 11.0658 21.325 10.5602C21.739 10.3161 22.1801 10.1213 22.6393 9.97976C22.6681 9.96949 22.696 9.95705 22.7229 9.94253L23.3592 9.7892C23.5728 9.7672 23.7959 9.73807 24.0233 9.72149C24.5739 9.67099 25.1288 9.69754 25.672 9.80036C25.7438 9.80356 25.8139 9.8232 25.877 9.85779C25.94 9.89238 25.9942 9.94097 26.0355 9.99984C26.0768 10.0587 26.104 10.1263 26.115 10.1973C26.126 10.2684 26.1206 10.341 26.0991 10.4096C26.048 10.7115 25.9976 11.0131 25.9414 11.3106C25.9416 11.3674 25.9307 11.4236 25.9091 11.4762C25.8876 11.5287 25.8559 11.5765 25.8159 11.6167C25.7758 11.657 25.7283 11.689 25.6759 11.7109C25.6235 11.7327 25.5673 11.7441 25.5105 11.7442C25.4852 11.7444 25.46 11.7423 25.4351 11.7381C24.9707 11.7381 24.5107 11.7242 24.0511 11.7567C23.2899 11.7806 22.5555 12.0439 21.9526 12.5091C21.5326 12.8569 21.2456 13.3391 21.1402 13.8742C21.1264 13.9348 21.1172 13.9998 21.1033 14.0691C21.1033 14.0739 21.1033 14.0782 21.1125 14.0972C21.1522 14.0869 21.1925 14.0796 21.2333 14.0752C21.9069 13.9077 22.5794 13.7499 23.2489 13.5875C23.5461 13.513 23.695 13.6061 23.76 13.8941C23.8155 14.0972 23.8669 14.3027 23.9086 14.5119C23.9243 14.5545 23.9316 14.5998 23.9298 14.6453C23.928 14.6907 23.9173 14.7353 23.8982 14.7766C23.8792 14.8179 23.8522 14.855 23.8188 14.8859C23.7853 14.9167 23.7461 14.9406 23.7035 14.9563C23.6782 14.9656 23.652 14.9719 23.6253 14.9752C22.8309 15.1702 22.0365 15.356 21.2475 15.5506C21.2059 15.5597 21.1639 15.5692 21.1175 15.5784L21.2661 16.173C21.3081 16.1639 21.3497 16.1544 21.387 16.1453C22.1655 15.9547 22.9378 15.773 23.7136 15.5831C24.0294 15.5086 24.177 15.5923 24.2477 15.908L24.3916 16.4834C24.4278 16.5693 24.4285 16.6661 24.3935 16.7524C24.3584 16.8388 24.2906 16.9077 24.2047 16.9441C24.1696 16.9589 24.1324 16.9681 24.0944 16.9712C23.3745 17.1479 22.664 17.3194 21.9488 17.4914L21.8236 17.5252C22.0491 17.8975 22.3516 18.2173 22.7107 18.4631C23.2401 18.7953 23.8733 18.921 24.4894 18.8161C25.194 18.7136 25.8712 18.472 26.4816 18.1054C26.6349 18.0218 26.7927 17.9429 26.9507 17.8637C26.9954 17.8302 27.0467 17.8066 27.1012 17.7942C27.1557 17.7819 27.2122 17.7812 27.267 17.7922C27.3217 17.8032 27.3736 17.8256 27.4191 17.858C27.4647 17.8904 27.5028 17.932 27.5312 17.9801C27.7448 18.254 27.9536 18.5285 28.1489 18.8067C28.1923 18.8569 28.2236 18.9165 28.2405 18.9807C28.2574 19.0449 28.2594 19.1121 28.2463 19.1772C28.2332 19.2424 28.2055 19.3036 28.1651 19.3564C28.1248 19.4091 28.0729 19.4519 28.0135 19.4816L28.0142 19.4822ZM31.1619 14.2113C30.7954 12.1691 29.6326 10.3562 27.9294 9.17127C26.2262 7.98638 24.122 7.52661 22.0798 7.89309L22.0686 7.89544C20.548 8.17155 19.1433 8.89217 18.032 9.96621C16.9207 11.0402 16.1526 12.4195 15.8248 13.9299C15.4969 15.4402 15.6241 17.0138 16.1901 18.4519C16.7562 19.89 17.7358 21.1281 19.0051 22.0098C20.2745 22.8915 21.7766 23.3772 23.3219 23.4056C24.8671 23.434 26.3861 23.0038 27.687 22.1693C28.9878 21.3348 30.0122 20.1336 30.6307 18.7172C31.2492 17.3009 31.4341 15.733 31.1619 14.2116V14.2113ZM28.0142 19.4822C27.5816 19.8119 27.1106 20.0879 26.6116 20.304C25.5959 20.7537 24.4733 20.9053 23.3748 20.741C22.2618 20.5791 21.2486 20.0097 20.5317 19.1431C20.271 18.8325 20.0422 18.4964 19.849 18.1399C19.8369 18.1021 19.8104 18.0706 19.7752 18.0524C19.7399 18.0342 19.6989 18.0308 19.6611 18.0428L19.6493 18.0468C19.3521 18.1257 19.0549 18.1954 18.7578 18.2695C18.7041 18.2918 18.6459 18.3009 18.588 18.296C18.5301 18.2912 18.4742 18.2724 18.425 18.2415C18.3759 18.2105 18.3349 18.1681 18.3055 18.118C18.2761 18.0679 18.2592 18.0114 18.2561 17.9534C18.2094 17.7547 18.1587 17.5499 18.1075 17.3441C18.0914 17.3007 18.084 17.2545 18.0857 17.2082C18.0874 17.1619 18.0983 17.1163 18.1176 17.0742C18.137 17.0321 18.1644 16.9942 18.1984 16.9627C18.2324 16.9312 18.2722 16.9067 18.3157 16.8906C18.343 16.8804 18.3714 16.8737 18.4003 16.8706C18.6789 16.8053 18.9578 16.7353 19.2502 16.6676L19.1016 16.0732L18.9903 16.101C18.7442 16.1612 18.4981 16.2218 18.2456 16.2776C18.1571 16.308 18.0601 16.302 17.976 16.2608C17.8919 16.2197 17.8276 16.1469 17.7972 16.0583C17.7905 16.0389 17.7855 16.019 17.7823 15.9987C17.7264 15.7757 17.6709 15.5587 17.6242 15.3299C17.6074 15.2817 17.6015 15.2304 17.6069 15.1796C17.6124 15.1288 17.629 15.0799 17.6557 15.0363C17.6823 14.9928 17.7183 14.9557 17.7611 14.9277C17.8038 14.8998 17.8522 14.8816 17.9028 14.8747C18.2412 14.7958 18.5797 14.7122 18.9199 14.6286C18.994 14.6147 19.0214 14.5866 19.0214 14.5125C19.0579 13.9075 19.1945 13.3128 19.4255 12.7525C19.8044 11.8352 20.471 11.0658 21.325 10.5602C21.739 10.3161 22.1801 10.1213 22.6393 9.97976C22.6681 9.96949 22.696 9.95705 22.7229 9.94253L23.3592 9.7892C23.5728 9.7672 23.7959 9.73807 24.0233 9.72149C24.5739 9.67099 25.1288 9.69754 25.672 9.80036C25.7438 9.80356 25.8139 9.8232 25.877 9.85779C25.94 9.89238 25.9942 9.94097 26.0355 9.99984C26.0768 10.0587 26.104 10.1263 26.115 10.1973C26.126 10.2684 26.1206 10.341 26.0991 10.4096C26.048 10.7115 25.9976 11.0131 25.9414 11.3106C25.9416 11.3674 25.9307 11.4236 25.9091 11.4762C25.8876 11.5287 25.8559 11.5765 25.8159 11.6167C25.7758 11.657 25.7283 11.689 25.6759 11.7109C25.6235 11.7327 25.5673 11.7441 25.5105 11.7442C25.4852 11.7444 25.46 11.7423 25.4351 11.7381C24.9707 11.7381 24.5107 11.7242 24.0511 11.7567C23.2899 11.7806 22.5555 12.0439 21.9526 12.5091C21.5326 12.8569 21.2456 13.3391 21.1402 13.8742C21.1264 13.9348 21.1172 13.9998 21.1033 14.0691C21.1033 14.0739 21.1033 14.0782 21.1125 14.0972C21.1522 14.0869 21.1925 14.0796 21.2333 14.0752C21.9069 13.9077 22.5794 13.7499 23.2489 13.5875C23.5461 13.513 23.695 13.6061 23.76 13.8941C23.8155 14.0972 23.8669 14.3027 23.9086 14.5119C23.9243 14.5545 23.9316 14.5998 23.9298 14.6453C23.928 14.6907 23.9173 14.7353 23.8982 14.7766C23.8792 14.8179 23.8522 14.855 23.8188 14.8859C23.7853 14.9167 23.7461 14.9406 23.7035 14.9563C23.6782 14.9656 23.652 14.9719 23.6253 14.9752C22.8309 15.1702 22.0365 15.356 21.2475 15.5506C21.2059 15.5597 21.1639 15.5692 21.1175 15.5784L21.2661 16.173C21.3081 16.1639 21.3497 16.1544 21.387 16.1453C22.1655 15.9547 22.9378 15.773 23.7136 15.5831C24.0294 15.5086 24.177 15.5923 24.2477 15.908L24.3916 16.4834C24.4278 16.5693 24.4285 16.6661 24.3935 16.7524C24.3584 16.8388 24.2906 16.9077 24.2047 16.9441C24.1696 16.9589 24.1324 16.9681 24.0944 16.9712C23.3745 17.1479 22.664 17.3194 21.9488 17.4914L21.8236 17.5252C22.0491 17.8975 22.3516 18.2173 22.7107 18.4631C23.2401 18.7953 23.8733 18.921 24.4894 18.8161C25.194 18.7136 25.8712 18.472 26.4816 18.1054C26.6349 18.0218 26.7927 17.9429 26.9507 17.8637C26.9954 17.8302 27.0467 17.8066 27.1012 17.7942C27.1557 17.7819 27.2122 17.7812 27.267 17.7922C27.3217 17.8032 27.3736 17.8256 27.4191 17.858C27.4647 17.8904 27.5028 17.932 27.5312 17.9801C27.7448 18.254 27.9536 18.5285 28.1489 18.8067C28.1923 18.8569 28.2236 18.9165 28.2405 18.9807C28.2574 19.0449 28.2594 19.1121 28.2463 19.1772C28.2332 19.2424 28.2055 19.3036 28.1651 19.3564C28.1248 19.4091 28.0729 19.4519 28.0135 19.4816L28.0142 19.4822ZM31.1619 14.2113C30.7954 12.1691 29.6326 10.3562 27.9294 9.17127C26.2262 7.98638 24.122 7.52661 22.0798 7.89309L22.0686 7.89544C20.548 8.17155 19.1433 8.89217 18.032 9.96621C16.9207 11.0402 16.1526 12.4195 15.8248 13.9299C15.4969 15.4402 15.6241 17.0138 16.1901 18.4519C16.7562 19.89 17.7358 21.1281 19.0051 22.0098C20.2745 22.8915 21.7766 23.3772 23.3219 23.4056C24.8671 23.434 26.3861 23.0038 27.687 22.1693C28.9878 21.3348 30.0122 20.1336 30.6307 18.7172C31.2492 17.3009 31.4341 15.733 31.1619 14.2116V14.2113ZM28.0142 19.4822C27.5816 19.8119 27.1106 20.0879 26.6116 20.304C25.5959 20.7537 24.4733 20.9053 23.3748 20.741C22.2618 20.5791 21.2486 20.0097 20.5317 19.1431C20.271 18.8325 20.0422 18.4964 19.849 18.1399C19.8369 18.1021 19.8104 18.0706 19.7752 18.0524C19.7399 18.0342 19.6989 18.0308 19.6611 18.0428L19.6493 18.0468C19.3521 18.1257 19.0549 18.1954 18.7578 18.2695C18.7041 18.2918 18.6459 18.3009 18.588 18.296C18.5301 18.2912 18.4742 18.2724 18.425 18.2415C18.3759 18.2105 18.3349 18.1681 18.3055 18.118C18.2761 18.0679 18.2592 18.0114 18.2561 17.9534C18.2094 17.7547 18.1587 17.5499 18.1075 17.3441C18.0914 17.3007 18.084 17.2545 18.0857 17.2082C18.0874 17.1619 18.0983 17.1163 18.1176 17.0742C18.137 17.0321 18.1644 16.9942 18.1984 16.9627C18.2324 16.9312 18.2722 16.9067 18.3157 16.8906C18.343 16.8804 18.3714 16.8737 18.4003 16.8706C18.6789 16.8053 18.9578 16.7353 19.2502 16.6676L19.1016 16.0732L18.9903 16.101C18.7442 16.1612 18.4981 16.2218 18.2456 16.2776C18.1571 16.308 18.0601 16.302 17.976 16.2608C17.8919 16.2197 17.8276 16.1469 17.7972 16.0583C17.7905 16.0389 17.7855 16.019 17.7823 15.9987C17.7264 15.7757 17.6709 15.5587 17.6242 15.3299C17.6074 15.2817 17.6015 15.2304 17.6069 15.1796C17.6124 15.1288 17.629 15.0799 17.6557 15.0363C17.6823 14.9928 17.7183 14.9557 17.7611 14.9277C17.8038 14.8998 17.8522 14.8816 17.9028 14.8747C18.2412 14.7958 18.5797 14.7122 18.9199 14.6286C18.994 14.6147 19.0214 14.5866 19.0214 14.5125C19.0579 13.9075 19.1945 13.3128 19.4255 12.7525C19.8044 11.8352 20.471 11.0658 21.325 10.5602C21.739 10.3161 22.1801 10.1213 22.6393 9.97976C22.6681 9.96949 22.696 9.95705 22.7229 9.94253L23.3592 9.7892C23.5728 9.7672 23.7959 9.73807 24.0233 9.72149C24.5739 9.67099 25.1288 9.69754 25.672 9.80036C25.7438 9.80356 25.8139 9.8232 25.877 9.85779C25.94 9.89238 25.9942 9.94097 26.0355 9.99984C26.0768 10.0587 26.104 10.1263 26.115 10.1973C26.126 10.2684 26.1206 10.341 26.0991 10.4096C26.048 10.7115 25.9976 11.0131 25.9414 11.3106C25.9416 11.3674 25.9307 11.4236 25.9091 11.4762C25.8876 11.5287 25.8559 11.5765 25.8159 11.6167C25.7758 11.657 25.7283 11.689 25.6759 11.7109C25.6235 11.7327 25.5673 11.7441 25.5105 11.7442C25.4852 11.7444 25.46 11.7423 25.4351 11.7381C24.9707 11.7381 24.5107 11.7242 24.0511 11.7567C23.2899 11.7806 22.5555 12.0439 21.9526 12.5091C21.5326 12.8569 21.2456 13.3391 21.1402 13.8742C21.1264 13.9348 21.1172 13.9998 21.1033 14.0691C21.1033 14.0739 21.1033 14.0782 21.1125 14.0972C21.1522 14.0869 21.1925 14.0796 21.2333 14.0752C21.9069 13.9077 22.5794 13.7499 23.2489 13.5875C23.5461 13.513 23.695 13.6061 23.76 13.8941C23.8155 14.0972 23.8669 14.3027 23.9086 14.5119C23.9243 14.5545 23.9316 14.5998 23.9298 14.6453C23.928 14.6907 23.9173 14.7353 23.8982 14.7766C23.8792 14.8179 23.8522 14.855 23.8188 14.8859C23.7853 14.9167 23.7461 14.9406 23.7035 14.9563C23.6782 14.9656 23.652 14.9719 23.6253 14.9752C22.8309 15.1702 22.0365 15.356 21.2475 15.5506C21.2059 15.5597 21.1639 15.5692 21.1175 15.5784L21.2661 16.173C21.3081 16.1639 21.3497 16.1544 21.387 16.1453C22.1655 15.9547 22.9378 15.773 23.7136 15.5831C24.0294 15.5086 24.177 15.5923 24.2477 15.908L24.3916 16.4834C24.4278 16.5693 24.4285 16.6661 24.3935 16.7524C24.3584 16.8388 24.2906 16.9077 24.2047 16.9441C24.1696 16.9589 24.1324 16.9681 24.0944 16.9712C23.3745 17.1479 22.664 17.3194 21.9488 17.4914L21.8236 17.5252C22.0491 17.8975 22.3516 18.2173 22.7107 18.4631C23.2401 18.7953 23.8733 18.921 24.4894 18.8161C25.194 18.7136 25.8712 18.472 26.4816 18.1054C26.6349 18.0218 26.7927 17.9429 26.9507 17.8637C26.9954 17.8302 27.0467 17.8066 27.1012 17.7942C27.1557 17.7819 27.2122 17.7812 27.267 17.7922C27.3217 17.8032 27.3736 17.8256 27.4191 17.858C27.4647 17.8904 27.5028 17.932 27.5312 17.9801C27.7448 18.254 27.9536 18.5285 28.1489 18.8067C28.1923 18.8569 28.2236 18.9165 28.2405 18.9807C28.2574 19.0449 28.2594 19.1121 28.2463 19.1772C28.2332 19.2424 28.2055 19.3036 28.1651 19.3564C28.1248 19.4091 28.0729 19.4519 28.0135 19.4816L28.0142 19.4822ZM31.1619 14.2113C30.7954 12.1691 29.6326 10.3562 27.9294 9.17127C26.2262 7.98638 24.122 7.52661 22.0798 7.89309L22.0686 7.89544C20.548 8.17155 19.1433 8.89217 18.032 9.96621C16.9207 11.0402 16.1526 12.4195 15.8248 13.9299C15.4969 15.4402 15.6241 17.0138 16.1901 18.4519C16.7562 19.89 17.7358 21.1281 19.0051 22.0098C20.2745 22.8915 21.7766 23.3772 23.3219 23.4056C24.8671 23.434 26.3861 23.0038 27.687 22.1693C28.9878 21.3348 30.0122 20.1336 30.6307 18.7172C31.2492 17.3009 31.4341 15.733 31.1619 14.2116V14.2113ZM28.0142 19.4822C27.5816 19.8119 27.1106 20.0879 26.6116 20.304C25.5959 20.7537 24.4733 20.9053 23.3748 20.741C22.2618 20.5791 21.2486 20.0097 20.5317 19.1431C20.271 18.8325 20.0422 18.4964 19.849 18.1399C19.8369 18.1021 19.8104 18.0706 19.7752 18.0524C19.7399 18.0342 19.6989 18.0308 19.6611 18.0428L19.6493 18.0468C19.3521 18.1257 19.0549 18.1954 18.7578 18.2695C18.7041 18.2918 18.6459 18.3009 18.588 18.296C18.5301 18.2912 18.4742 18.2724 18.425 18.2415C18.3759 18.2105 18.3349 18.1681 18.3055 18.118C18.2761 18.0679 18.2592 18.0114 18.2561 17.9534C18.2094 17.7547 18.1587 17.5499 18.1075 17.3441C18.0914 17.3007 18.084 17.2545 18.0857 17.2082C18.0874 17.1619 18.0983 17.1163 18.1176 17.0742C18.137 17.0321 18.1644 16.9942 18.1984 16.9627C18.2324 16.9312 18.2722 16.9067 18.3157 16.8906C18.343 16.8804 18.3714 16.8737 18.4003 16.8706C18.6789 16.8053 18.9578 16.7353 19.2502 16.6676L19.1016 16.0732L18.9903 16.101C18.7442 16.1612 18.4981 16.2218 18.2456 16.2776C18.1571 16.308 18.0601 16.302 17.976 16.2608C17.8919 16.2197 17.8276 16.1469 17.7972 16.0583C17.7905 16.0389 17.7855 16.019 17.7823 15.9987C17.7264 15.7757 17.6709 15.5587 17.6242 15.3299C17.6074 15.2817 17.6015 15.2304 17.6069 15.1796C17.6124 15.1288 17.629 15.0799 17.6557 15.0363C17.6823 14.9928 17.7183 14.9557 17.7611 14.9277C17.8038 14.8998 17.8522 14.8816 17.9028 14.8747C18.2412 14.7958 18.5797 14.7122 18.9199 14.6286C18.994 14.6147 19.0214 14.5866 19.0214 14.5125C19.0579 13.9075 19.1945 13.3128 19.4255 12.7525C19.8044 11.8352 20.471 11.0658 21.325 10.5602C21.739 10.3161 22.1801 10.1213 22.6393 9.97976C22.6681 9.96949 22.696 9.95705 22.7229 9.94253L23.3592 9.7892C23.5728 9.7672 23.7959 9.73807 24.0233 9.72149C24.5739 9.67099 25.1288 9.69754 25.672 9.80036C25.7438 9.80356 25.8139 9.8232 25.877 9.85779C25.94 9.89238 25.9942 9.94097 26.0355 9.99984C26.0768 10.0587 26.104 10.1263 26.115 10.1973C26.126 10.2684 26.1206 10.341 26.0991 10.4096C26.048 10.7115 25.9976 11.0131 25.9414 11.3106C25.9416 11.3674 25.9307 11.4236 25.9091 11.4762C25.8876 11.5287 25.8559 11.5765 25.8159 11.6167C25.7758 11.657 25.7283 11.689 25.6759 11.7109C25.6235 11.7327 25.5673 11.7441 25.5105 11.7442C25.4852 11.7444 25.46 11.7423 25.4351 11.7381C24.9707 11.7381 24.5107 11.7242 24.0511 11.7567C23.2899 11.7806 22.5555 12.0439 21.9526 12.5091C21.5326 12.8569 21.2456 13.3391 21.1402 13.8742C21.1264 13.9348 21.1172 13.9998 21.1033 14.0691C21.1033 14.0739 21.1033 14.0782 21.1125 14.0972C21.1522 14.0869 21.1925 14.0796 21.2333 14.0752C21.9069 13.9077 22.5794 13.7499 23.2489 13.5875C23.5461 13.513 23.695 13.6061 23.76 13.8941C23.8155 14.0972 23.8669 14.3027 23.9086 14.5119C23.9243 14.5545 23.9316 14.5998 23.9298 14.6453C23.928 14.6907 23.9173 14.7353 23.8982 14.7766C23.8792 14.8179 23.8522 14.855 23.8188 14.8859C23.7853 14.9167 23.7461 14.9406 23.7035 14.9563C23.6782 14.9656 23.652 14.9719 23.6253 14.9752C22.8309 15.1702 22.0365 15.356 21.2475 15.5506C21.2059 15.5597 21.1639 15.5692 21.1175 15.5784L21.2661 16.173C21.3081 16.1639 21.3497 16.1544 21.387 16.1453C22.1655 15.9547 22.9378 15.773 23.7136 15.5831C24.0294 15.5086 24.177 15.5923 24.2477 15.908L24.3916 16.4834C24.4278 16.5693 24.4285 16.6661 24.3935 16.7524C24.3584 16.8388 24.2906 16.9077 24.2047 16.9441C24.1696 16.9589 24.1324 16.9681 24.0944 16.9712C23.3745 17.1479 22.664 17.3194 21.9488 17.4914L21.8236 17.5252C22.0491 17.8975 22.3516 18.2173 22.7107 18.4631C23.2401 18.7953 23.8733 18.921 24.4894 18.8161C25.194 18.7136 25.8712 18.472 26.4816 18.1054C26.6349 18.0218 26.7927 17.9429 26.9507 17.8637C26.9954 17.8302 27.0467 17.8066 27.1012 17.7942C27.1557 17.7819 27.2122 17.7812 27.267 17.7922C27.3217 17.8032 27.3736 17.8256 27.4191 17.858C27.4647 17.8904 27.5028 17.932 27.5312 17.9801C27.7448 18.254 27.9536 18.5285 28.1489 18.8067C28.1923 18.8569 28.2236 18.9165 28.2405 18.9807C28.2574 19.0449 28.2594 19.1121 28.2463 19.1772C28.2332 19.2424 28.2055 19.3036 28.1651 19.3564C28.1248 19.4091 28.0729 19.4519 28.0135 19.4816L28.0142 19.4822ZM31.1619 14.2113C30.7954 12.1691 29.6326 10.3562 27.9294 9.17127C26.2262 7.98638 24.122 7.52661 22.0798 7.89309L22.0686 7.89544C20.548 8.17155 19.1433 8.89217 18.032 9.96621C16.9207 11.0402 16.1526 12.4195 15.8248 13.9299C15.4969 15.4402 15.6241 17.0138 16.1901 18.4519C16.7562 19.89 17.7358 21.1281 19.0051 22.0098C20.2745 22.8915 21.7766 23.3772 23.3219 23.4056C24.8671 23.434 26.3861 23.0038 27.687 22.1693C28.9878 21.3348 30.0122 20.1336 30.6307 18.7172C31.2492 17.3009 31.4341 15.733 31.1619 14.2116V14.2113ZM28.0142 19.4822C27.5816 19.8119 27.1106 20.0879 26.6116 20.304C25.5959 20.7537 24.4733 20.9053 23.3748 20.741C22.2618 20.5791 21.2486 20.0097 20.5317 19.1431C20.271 18.8325 20.0422 18.4964 19.849 18.1399C19.8369 18.1021 19.8104 18.0706 19.7752 18.0524C19.7399 18.0342 19.6989 18.0308 19.6611 18.0428L19.6493 18.0468C19.3521 18.1257 19.0549 18.1954 18.7578 18.2695C18.7041 18.2918 18.6459 18.3009 18.588 18.296C18.5301 18.2912 18.4742 18.2724 18.425 18.2415C18.3759 18.2105 18.3349 18.1681 18.3055 18.118C18.2761 18.0679 18.2592 18.0114 18.2561 17.9534C18.2094 17.7547 18.1587 17.5499 18.1075 17.3441C18.0914 17.3007 18.084 17.2545 18.0857 17.2082C18.0874 17.1619 18.0983 17.1163 18.1176 17.0742C18.137 17.0321 18.1644 16.9942 18.1984 16.9627C18.2324 16.9312 18.2722 16.9067 18.3157 16.8906C18.343 16.8804 18.3714 16.8737 18.4003 16.8706C18.6789 16.8053 18.9578 16.7353 19.2502 16.6676L19.1016 16.0732L18.9903 16.101C18.7442 16.1612 18.4981 16.2218 18.2456 16.2776C18.1571 16.308 18.0601 16.302 17.976 16.2608C17.8919 16.2197 17.8276 16.1469 17.7972 16.0583C17.7905 16.0389 17.7855 16.019 17.7823 15.9987C17.7264 15.7757 17.6709 15.5587 17.6242 15.3299C17.6074 15.2817 17.6015 15.2304 17.6069 15.1796C17.6124 15.1288 17.629 15.0799 17.6557 15.0363C17.6823 14.9928 17.7183 14.9557 17.7611 14.9277C17.8038 14.8998 17.8522 14.8816 17.9028 14.8747C18.2412 14.7958 18.5797 14.7122 18.9199 14.6286C18.994 14.6147 19.0214 14.5866 19.0214 14.5125C19.0579 13.9075 19.1945 13.3128 19.4255 12.7525C19.8044 11.8352 20.471 11.0658 21.325 10.5602C21.739 10.3161 22.1801 10.1213 22.6393 9.97976C22.6681 9.96949 22.696 9.95705 22.7229 9.94253L23.3592 9.7892C23.5728 9.7672 23.7959 9.73807 24.0233 9.72149C24.5739 9.67099 25.1288 9.69754 25.672 9.80036C25.7438 9.80356 25.8139 9.8232 25.877 9.85779C25.94 9.89238 25.9942 9.94097 26.0355 9.99984C26.0768 10.0587 26.104 10.1263 26.115 10.1973C26.126 10.2684 26.1206 10.341 26.0991 10.4096C26.048 10.7115 25.9976 11.0131 25.9414 11.3106C25.9416 11.3674 25.9307 11.4236 25.9091 11.4762C25.8876 11.5287 25.8559 11.5765 25.8159 11.6167C25.7758 11.657 25.7283 11.689 25.6759 11.7109C25.6235 11.7327 25.5673 11.7441 25.5105 11.7442C25.4852 11.7444 25.46 11.7423 25.4351 11.7381C24.9707 11.7381 24.5107 11.7242 24.0511 11.7567C23.2899 11.7806 22.5555 12.0439 21.9526 12.5091C21.5326 12.8569 21.2456 13.3391 21.1402 13.8742C21.1264 13.9348 21.1172 13.9998 21.1033 14.0691C21.1033 14.0739 21.1033 14.0782 21.1125 14.0972C21.1522 14.0869 21.1925 14.0796 21.2333 14.0752C21.9069 13.9077 22.5794 13.7499 23.2489 13.5875C23.5461 13.513 23.695 13.6061 23.76 13.8941C23.8155 14.0972 23.8669 14.3027 23.9086 14.5119C23.9243 14.5545 23.9316 14.5998 23.9298 14.6453C23.928 14.6907 23.9173 14.7353 23.8982 14.7766C23.8792 14.8179 23.8522 14.855 23.8188 14.8859C23.7853 14.9167 23.7461 14.9406 23.7035 14.9563C23.6782 14.9656 23.652 14.9719 23.6253 14.9752C22.8309 15.1702 22.0365 15.356 21.2475 15.5506C21.2059 15.5597 21.1639 15.5692 21.1175 15.5784L21.2661 16.173C21.3081 16.1639 21.3497 16.1544 21.387 16.1453C22.1655 15.9547 22.9378 15.773 23.7136 15.5831C24.0294 15.5086 24.177 15.5923 24.2477 15.908L24.3916 16.4834C24.4278 16.5693 24.4285 16.6661 24.3935 16.7524C24.3584 16.8388 24.2906 16.9077 24.2047 16.9441C24.1696 16.9589 24.1324 16.9681 24.0944 16.9712C23.3745 17.1479 22.664 17.3194 21.9488 17.4914L21.8236 17.5252C22.0491 17.8975 22.3516 18.2173 22.7107 18.4631C23.2401 18.7953 23.8733 18.921 24.4894 18.8161C25.194 18.7136 25.8712 18.472 26.4816 18.1054C26.6349 18.0218 26.7927 17.9429 26.9507 17.8637C26.9954 17.8302 27.0467 17.8066 27.1012 17.7942C27.1557 17.7819 27.2122 17.7812 27.267 17.7922C27.3217 17.8032 27.3736 17.8256 27.4191 17.858C27.4647 17.8904 27.5028 17.932 27.5312 17.9801C27.7448 18.254 27.9536 18.5285 28.1489 18.8067C28.1923 18.8569 28.2236 18.9165 28.2405 18.9807C28.2574 19.0449 28.2594 19.1121 28.2463 19.1772C28.2332 19.2424 28.2055 19.3036 28.1651 19.3564C28.1248 19.4091 28.0729 19.4519 28.0135 19.4816L28.0142 19.4822Z" fill="#98984B" stroke="#98984B" stroke-width="1.047" stroke-miterlimit="10"/>
<path d="M57.7077 25.5066C57.7077 26.0919 56.7938 26.626 55.2508 27.0579C54.224 27.3328 53.1798 27.5377 52.1253 27.6712H52.1206C50.0348 27.9348 47.9342 28.0635 45.8318 28.0564C43.0561 28.0884 40.284 27.8458 37.556 27.332H37.5512C37.1427 27.2484 36.7616 27.1557 36.4136 27.0579C35.1366 26.7001 34.2911 26.273 34.0406 25.8055C34.0091 25.7453 33.9857 25.6813 33.9709 25.615C34.0822 25.6614 34.1983 25.7125 34.3192 25.7541C34.5839 25.857 34.881 25.9546 35.2107 26.0469C37.4239 26.5951 39.6889 26.908 41.9679 26.9803H41.9726C42.8273 27.0223 43.7144 27.0453 44.6293 27.0453C45.2564 27.0453 45.8647 27.0311 46.4634 27.0115H46.4973C49.5672 26.91 52.2374 26.5519 54.0489 26.0455C55.5909 25.6136 56.5058 25.0748 56.5058 24.4886C56.5056 24.451 56.5008 24.4136 56.4916 24.3772C57.2711 24.7163 57.7077 25.1018 57.7077 25.5066Z" fill="#98984B"/>
<path d="M56.5985 23.9917H56.5938C56.5978 24.0025 56.5994 24.014 56.5985 24.0255C56.5967 24.1479 56.5595 24.2672 56.4916 24.3691C56.4916 24.3738 56.4916 24.3738 56.4868 24.3738C55.6972 25.6184 50.7329 26.5803 44.7234 26.5803C40.878 26.5803 37.4602 26.1856 35.2909 25.577H35.2862C34.8716 25.4636 34.4651 25.3223 34.0694 25.1543C33.3681 24.8524 32.9457 24.5088 32.8665 24.1514C32.8572 24.1102 32.8526 24.0681 32.8526 24.0258V21.9825C33.4169 22.2742 34.008 22.5106 34.6177 22.6886C34.8499 22.7627 35.096 22.8324 35.3515 22.8974C36.3741 23.1612 37.4117 23.3628 38.4587 23.5012H38.4634C40.4105 23.7676 42.373 23.9056 44.3382 23.9145H44.7234C47.1846 23.929 49.6427 23.7348 52.0712 23.334H52.0759C52.7677 23.2132 53.4132 23.0741 54.0032 22.9255C54.2912 22.8466 54.5698 22.7712 54.8344 22.6886C55.4439 22.5097 56.0349 22.2733 56.5996 21.9825L56.5985 23.9917Z" fill="#98984B"/>
<path d="M56.5986 20.917C56.5986 21.5022 55.6847 22.0407 54.1419 22.474C53.84 22.5572 53.5104 22.6408 53.1604 22.7153H53.1556C52.366 22.8872 51.4603 23.0358 50.4713 23.1519H50.4665C49.2402 23.3005 47.8799 23.4027 46.435 23.4447C45.8779 23.4633 45.3018 23.4725 44.7213 23.4725C43.0825 23.4725 41.5218 23.398 40.0958 23.2727H40.0911C38.7818 23.1613 37.4806 22.9691 36.195 22.6974C35.8791 22.6227 35.5819 22.5485 35.3035 22.4747C33.7658 22.0428 32.8513 21.5036 32.8513 20.9177C32.8513 19.5103 38.1652 18.368 44.7227 18.368C44.9826 18.368 45.2429 18.368 45.5029 18.3771C51.6982 18.4607 56.5986 19.5659 56.5986 20.917Z" fill="#98984B"/>
<path d="M33.0123 33.6553C33.1057 33.6993 33.208 33.7436 33.3142 33.7876C33.208 33.7463 33.1057 33.7016 33.0123 33.6553Z" fill="#98984B"/>
<path d="M54.6601 33.6553C54.5667 33.7016 54.4648 33.7463 54.3582 33.7876C54.4635 33.7443 54.5667 33.6996 54.6601 33.6553Z" fill="#98984B"/>
<path d="M53.0913 31.0091C53.1472 31.023 53.2027 31.0369 53.2538 31.0508C53.4304 31.0048 53.6021 30.9492 53.7645 30.8978C53.5465 30.935 53.3235 30.9723 53.0913 31.0091Z" fill="#98984B"/>
<path d="M53.2545 31.0521C51.0839 31.6614 47.6718 32.0509 43.8355 32.0509C39.9993 32.0509 36.5872 31.6604 34.4163 31.0521C32.8763 30.6216 31.9617 30.0844 31.9617 29.4985C31.9617 29.0037 32.6099 28.5441 33.737 28.1582V28.7982H33.7394C33.7376 28.8107 33.7368 28.8232 33.737 28.8358C33.737 29.4948 34.86 30.0987 36.722 30.562C38.9792 31.1259 42.3236 31.483 46.0542 31.483C48.4076 31.4957 50.7588 31.3373 53.0893 31.0091C53.1462 31.021 53.202 31.0366 53.2545 31.0521Z" fill="#98984B"/>
<path d="M33.7268 37.0373C36.0727 37.7629 39.5522 38.2338 43.4564 38.2625C39.1315 38.2338 35.389 37.7077 33.4272 36.9398C33.5251 36.9753 33.6246 37.0065 33.7268 37.0373Z" fill="#98984B"/>
<path d="M53.9453 37.0373C54.0468 37.0065 54.1483 36.9753 54.2448 36.9398C52.2817 37.7077 48.5409 38.2338 44.2156 38.2625C48.1195 38.2338 51.5993 37.7629 53.9453 37.0373Z" fill="#98984B"/>
<path d="M55.7097 33.6695V35.2695C55.7097 35.8553 54.7958 36.3925 53.2551 36.8233C51.0845 37.4326 47.6724 37.8222 43.8362 37.8222C40 37.8222 36.5879 37.4312 34.417 36.8233C32.8769 36.3925 31.9624 35.8557 31.9624 35.2695V33.6695C32.3333 33.8643 32.7179 34.0319 33.1132 34.1708C33.3085 34.2422 33.5129 34.3085 33.7258 34.3739C36.1472 35.1243 39.778 35.6011 43.8349 35.6011C47.8918 35.6011 51.5228 35.1239 53.9439 34.3739C54.1571 34.3062 54.3612 34.2415 54.5565 34.1708C54.9526 34.032 55.338 33.8645 55.7097 33.6695Z" fill="#98984B"/>
<path d="M55.71 32.5701H55.7076C55.7093 32.5813 55.7101 32.5927 55.71 32.604C55.71 32.6284 55.7076 32.6507 55.7056 32.6751C55.7036 32.6916 55.7007 32.708 55.6968 32.7241L55.69 32.7505C55.6859 32.7678 55.6808 32.7849 55.6748 32.8016C55.6652 32.8275 55.6539 32.8527 55.6409 32.8771C55.6278 32.9059 55.6122 32.9334 55.5942 32.9594C55.5527 33.0237 55.5044 33.0832 55.45 33.1371C55.4205 33.1664 55.3893 33.1953 55.3566 33.2237C55.3255 33.2505 55.2947 33.2769 55.2591 33.3036C55.2324 33.3236 55.2036 33.3435 55.1745 33.3635C55.1525 33.3791 55.1305 33.3947 55.1068 33.4102C55.0757 33.4302 55.0391 33.4525 55.0053 33.4722C54.9714 33.4918 54.9278 33.5185 54.8878 33.5399C54.8751 33.5448 54.8631 33.5515 54.8523 33.5598C54.8056 33.5818 54.7568 33.6066 54.7081 33.6306C54.693 33.6389 54.6774 33.6463 54.6614 33.6526C54.568 33.6966 54.4661 33.7409 54.3595 33.7849C54.2353 33.836 54.1043 33.8864 53.9669 33.9335C53.7492 34.011 53.512 34.0844 53.2561 34.1555C52.8211 34.2774 52.3351 34.3908 51.8047 34.494C51.7404 34.5072 51.6737 34.5208 51.6074 34.5316C51.2902 34.5915 50.9572 34.647 50.6109 34.7008C50.5199 34.712 50.4268 34.7252 50.3337 34.7407L50.2383 34.7543C50.1185 34.7699 49.9987 34.7854 49.8788 34.803C49.759 34.8206 49.6257 34.8318 49.497 34.847C49.4128 34.8558 49.3278 34.867 49.2439 34.8758L48.8688 34.9158H48.8621C48.7335 34.929 48.6025 34.9425 48.4715 34.9533C48.2897 34.9709 48.1053 34.9871 47.9211 35C47.737 35.0129 47.5549 35.0288 47.3684 35.04C47.2753 35.0467 47.1823 35.0535 47.0888 35.0579C46.9356 35.0689 46.7803 35.0777 46.6228 35.0843C45.7285 35.131 44.795 35.1553 43.8375 35.1553C42.88 35.1553 41.9468 35.131 41.0522 35.0843C40.8943 35.0777 40.7389 35.0689 40.5862 35.0579C40.4931 35.0535 40.3997 35.0467 40.3066 35.04C40.1202 35.0289 39.936 35.0156 39.7539 35C39.5698 34.9868 39.3856 34.9712 39.2035 34.9533C39.0725 34.9421 38.9416 34.929 38.8129 34.9158H38.8062L38.4311 34.8758C38.3469 34.867 38.2619 34.8558 38.178 34.847C38.0494 34.8315 37.9207 34.8159 37.7962 34.803C37.6716 34.7902 37.5565 34.7692 37.4367 34.7543L37.3413 34.7407C37.2482 34.7252 37.1551 34.712 37.0641 34.7008C36.7178 34.6477 36.3848 34.5922 36.0676 34.5316C35.9999 34.5208 35.9353 34.5072 35.8689 34.494C35.3392 34.3924 34.8535 34.2787 34.4176 34.1555C34.1624 34.0844 33.9248 34.0113 33.7068 33.9335C33.569 33.8847 33.4384 33.836 33.3138 33.7849C33.2076 33.7409 33.1053 33.6966 33.0119 33.6526C32.9959 33.6461 32.9803 33.6388 32.9652 33.6306C32.9165 33.6062 32.8677 33.5818 32.821 33.5598C32.8108 33.5516 32.7994 33.5449 32.7872 33.5399C32.7472 33.5179 32.7073 33.4959 32.6694 33.4722C32.6315 33.4485 32.5987 33.4299 32.5679 33.4102C32.5435 33.3947 32.5211 33.3791 32.5002 33.3635C32.4714 33.3435 32.4423 33.3236 32.4159 33.3036C32.382 33.2769 32.3482 33.2505 32.3181 33.2237C32.2879 33.197 32.2538 33.1659 32.225 33.1371C32.1706 33.0833 32.1222 33.0237 32.0808 32.9594C32.0627 32.9335 32.0471 32.9059 32.0341 32.8771C32.021 32.8528 32.0097 32.8276 32.0002 32.8016C31.9941 32.7849 31.9889 32.7679 31.9847 32.7505L31.9779 32.7241C31.9739 32.708 31.9709 32.6916 31.9691 32.6751C31.9667 32.6507 31.9647 32.6284 31.9647 32.604C31.9645 32.5927 31.9653 32.5813 31.9671 32.5701H31.9647V30.5623C32.5294 30.8531 33.1204 31.0895 33.7298 31.2684C36.1512 32.0188 39.782 32.4957 43.8389 32.4957C47.8957 32.4957 51.5268 32.0185 53.9479 31.2684C54.5573 31.0895 55.1484 30.8531 55.713 30.5623L55.71 32.5701Z" fill="#98984B"/>
<path d="M55.7097 38.3397H55.7074C55.7091 38.3514 55.7099 38.3634 55.7097 38.3753C55.7097 39.7846 50.3958 40.9276 43.8363 40.9276C37.2767 40.9276 31.9624 39.7846 31.9624 38.3753C31.9622 38.3634 31.963 38.3514 31.9648 38.3397H31.9624V36.3319C32.4324 36.5762 32.9224 36.78 33.427 36.9411C33.5248 36.975 33.6257 37.0088 33.7265 37.0386C36.0725 37.7639 39.5519 38.2351 43.4562 38.2635C43.5827 38.2659 43.7093 38.2659 43.8356 38.2659C43.9618 38.2659 44.0887 38.2659 44.215 38.2635C48.1189 38.2348 51.5987 37.7643 53.9446 37.0386C54.0462 37.0078 54.1477 36.9767 54.2442 36.9411C54.7488 36.7801 55.2388 36.5763 55.7087 36.3319L55.7097 38.3397Z" fill="#98984B"/>
<path d="M56.4913 24.3677V24.3777L56.4861 24.3725C56.4913 24.3729 56.4913 24.3729 56.4913 24.3677Z" fill="#98984B"/>
<path d="M57.7074 26.5657V28.5735H57.7047C57.7065 28.5847 57.7073 28.596 57.707 28.6074C57.707 29.1828 56.8213 29.7148 55.3256 30.141C54.2706 30.4272 53.1966 30.6385 52.1118 30.7732C50.0296 31.0388 47.9323 31.1678 45.8332 31.1594C43.0575 31.1908 40.2855 30.9485 37.5573 30.4361C35.338 29.9744 33.9608 29.3242 33.9608 28.6084C33.9605 28.597 33.9612 28.5857 33.9631 28.5745H33.9608V26.5667C34.5254 26.8575 35.1165 27.0939 35.7259 27.2728C35.9702 27.3483 36.2295 27.4214 36.4983 27.4935C38.8885 28.1149 42.1886 28.5011 45.8353 28.5011C48.2915 28.5151 50.7446 28.3214 53.1682 27.922C54.106 27.7644 55.033 27.5479 55.9436 27.2738C56.5526 27.094 57.1432 26.857 57.7074 26.5657Z" fill="#98984B"/>
<path d="M31.3468 34.0503C31.3468 34.6362 30.4329 35.1733 28.8918 35.6038C27.8647 35.8787 26.82 36.0834 25.7651 36.2165H25.7583C23.6738 36.4819 21.5742 36.6109 19.4729 36.6026C16.6964 36.6338 13.9236 36.3914 11.1947 35.879H11.1923C10.7817 35.7951 10.4023 35.7013 10.0537 35.6042C8.61115 35.2 7.71826 34.7052 7.61029 34.1616C8.01367 34.3321 8.42812 34.4752 8.85078 34.5898C11.0644 35.1375 13.3295 35.4507 15.6086 35.5243H15.611C16.4653 35.5666 17.3551 35.5886 18.2693 35.5886C18.893 35.5886 19.5049 35.5782 20.1049 35.5575H20.136C23.2032 35.4532 25.8774 35.0982 27.6882 34.5898C29.2283 34.1593 30.1432 33.6221 30.1432 33.0362C30.143 32.9981 30.1385 32.9602 30.1296 32.9232C30.9095 33.2623 31.3468 33.6462 31.3468 34.0503Z" fill="#98984B"/>
<path d="M30.2369 32.538H30.2311C30.2351 32.55 30.2367 32.5626 30.2358 32.5752C30.2326 32.6974 30.1956 32.8164 30.1289 32.9188V32.9235H30.1241C29.3345 34.168 24.3702 35.1235 18.3607 35.1235C13.6898 35.1235 9.64375 34.5434 7.70703 33.702C7.00572 33.3957 6.58298 33.0518 6.50411 32.6944C6.49484 32.6548 6.49019 32.6142 6.49023 32.5735V30.5254C6.64322 30.609 6.81516 30.693 6.99794 30.7715C7.40684 30.9515 7.82684 31.1052 8.25535 31.2315C8.48754 31.3056 8.73361 31.3754 8.98915 31.4451C10.0127 31.7041 11.0499 31.9055 12.096 32.0486H12.1007C14.1758 32.3319 16.2681 32.4701 18.3624 32.4622C20.8238 32.4753 23.2819 32.2795 25.7102 31.877H25.7149C26.4067 31.7561 27.0525 31.6214 27.6425 31.4681C27.9305 31.394 28.2091 31.3151 28.4738 31.2311C29.0839 31.0544 29.6752 30.8179 30.2389 30.5251L30.2369 32.538Z" fill="#98984B"/>
<path d="M30.2372 29.4674C30.2372 30.053 29.3233 30.5867 27.7803 31.0186C27.4783 31.1022 27.1487 31.1858 26.7987 31.2613H26.794C26.0043 31.4332 25.0989 31.5818 24.1096 31.7013H24.1048C22.1975 31.9167 20.2794 32.0221 18.36 32.0171C16.7205 32.0171 15.1604 31.9477 13.7345 31.8174H13.7297C12.4203 31.7059 11.119 31.5137 9.83329 31.242C9.51739 31.1723 9.22021 31.0979 8.94177 31.019C8.55207 30.9094 8.16897 30.7777 7.79436 30.6243C6.95868 30.2804 6.48956 29.8861 6.48956 29.4678C6.48956 28.0557 11.8035 26.9133 18.361 26.9133C20.6967 26.8996 23.0301 27.0627 25.3413 27.4011C28.3103 27.8651 30.2372 28.6179 30.2372 29.4674Z" fill="#98984B"/>
<path d="M6.6524 42.202C6.74548 42.246 6.8477 42.2903 6.95432 42.3343C6.8477 42.2927 6.74548 42.2487 6.6524 42.202Z" fill="#98984B"/>
<path d="M28.2998 42.202C28.2067 42.2487 28.1045 42.293 27.9979 42.3343C28.1045 42.2906 28.2067 42.246 28.2998 42.202Z" fill="#98984B"/>
<path d="M26.731 39.5534C26.7859 39.566 26.8402 39.5815 26.8935 39.5998C27.0746 39.5484 27.2418 39.4983 27.4046 39.4465C27.1852 39.4858 26.9632 39.5172 26.731 39.5534Z" fill="#98984B"/>
<path d="M26.8948 39.5988C24.7245 40.208 21.3121 40.5976 17.4759 40.5976C13.6397 40.5976 10.2276 40.207 8.05699 39.5988C6.51696 39.1679 5.60242 38.6311 5.60242 38.0452C5.60242 37.55 6.25058 37.0911 7.37768 36.7049V37.3449H7.38005C7.37784 37.3573 7.37704 37.3699 7.37768 37.3825C7.37768 38.0415 8.50072 38.6453 10.3626 39.1087C12.6199 39.6726 15.9643 40.0297 19.6949 40.0297C22.0485 40.0424 24.4 39.884 26.7306 39.5558C26.7862 39.5677 26.8417 39.5832 26.8948 39.5988Z" fill="#98984B"/>
<path d="M7.36656 45.5843C9.71249 46.3099 13.1919 46.7807 17.0962 46.8095C12.7712 46.7807 9.02912 46.2544 7.06702 45.4868C7.16483 45.5223 7.26468 45.5531 7.36656 45.5843Z" fill="#98984B"/>
<path d="M27.585 45.5843C27.6865 45.5531 27.7881 45.5224 27.8845 45.4865C25.9214 46.2545 22.1806 46.7804 17.8553 46.8092C21.7592 46.7804 25.239 46.31 27.585 45.5843Z" fill="#98984B"/>
<path d="M29.3494 42.2152V43.8154C29.3494 44.4013 28.4355 44.9385 26.8948 45.369C24.7242 45.9783 21.3121 46.3678 17.4759 46.3678C13.6397 46.3678 10.2276 45.9769 8.05669 45.369C6.51666 44.9385 5.60211 44.4013 5.60211 43.8154V42.2152C5.97307 42.41 6.35768 42.5776 6.75291 42.7168C6.9482 42.7878 7.15264 42.8545 7.36554 42.9198C9.78694 43.6702 13.4177 44.1471 17.4746 44.1471C21.5315 44.1471 25.1626 43.6699 27.5836 42.9198C27.7969 42.8521 28.001 42.7875 28.1962 42.7168C28.5923 42.5778 28.9777 42.4101 29.3494 42.2152Z" fill="#98984B"/>
<path d="M29.3495 41.1168H29.3471C29.3488 41.128 29.3496 41.1393 29.3495 41.1506C29.3495 41.175 29.3471 41.1973 29.3451 41.2217C29.3432 41.2382 29.3402 41.2546 29.3363 41.2708L29.3295 41.2972C29.3254 41.3145 29.3203 41.3316 29.3143 41.3483C29.3047 41.3742 29.2934 41.3994 29.2804 41.4238C29.2672 41.4525 29.2515 41.4801 29.2334 41.506C29.1921 41.5703 29.1438 41.6299 29.0896 41.6837C29.06 41.713 29.0289 41.7419 28.9961 41.7704C28.965 41.7968 28.9342 41.8235 28.8987 41.8503C28.8719 41.8702 28.8431 41.8902 28.8144 41.9102C28.7924 41.9257 28.7704 41.9413 28.7467 41.9569C28.7155 41.9768 28.679 41.9992 28.6451 42.0188C28.6113 42.0384 28.5676 42.0652 28.5277 42.0865C28.5155 42.0915 28.5041 42.0982 28.4938 42.1065C28.4471 42.1285 28.3984 42.1532 28.3497 42.1775C28.3346 42.1858 28.319 42.1932 28.3029 42.1996C28.2099 42.2436 28.1077 42.2879 28.001 42.3319C27.8768 42.383 27.7458 42.4334 27.6084 42.4805C27.3908 42.558 27.1535 42.6314 26.8976 42.7025C26.4627 42.8244 25.9767 42.9377 25.4463 43.041C25.382 43.0542 25.3153 43.0677 25.2476 43.0789C24.9304 43.1388 24.5974 43.1943 24.2511 43.2481C24.1601 43.2593 24.067 43.2725 23.9739 43.2881L23.8785 43.3016C23.7583 43.3172 23.6385 43.3328 23.5187 43.3504C23.3989 43.368 23.2659 43.3791 23.1369 43.3944C23.0526 43.4032 22.9677 43.4143 22.8841 43.4234L22.509 43.4634H22.5023C22.3733 43.4766 22.2427 43.4901 22.1113 43.5013C21.9296 43.5189 21.7451 43.5352 21.561 43.5477C21.3769 43.5602 21.1948 43.5764 21.0083 43.5876C20.9152 43.5944 20.8221 43.6008 20.7287 43.6055C20.5755 43.6166 20.4201 43.6254 20.2626 43.6319C19.3684 43.6786 18.4349 43.703 17.4774 43.703C16.5198 43.703 15.5867 43.6786 14.6921 43.6319C14.5342 43.6254 14.3788 43.6166 14.226 43.6055C14.133 43.6008 14.0395 43.5944 13.9465 43.5876C13.7603 43.5765 13.5764 43.5633 13.3948 43.5477C13.2106 43.5345 13.0262 43.5189 12.8441 43.5013C12.7131 43.4901 12.5821 43.4766 12.4535 43.4634H12.4467L12.0717 43.4234C11.9874 43.4146 11.9024 43.4035 11.8185 43.3944C11.6899 43.3788 11.5613 43.3632 11.4371 43.3504C11.3128 43.3375 11.1971 43.3165 11.0773 43.3016L10.9818 43.2881C10.8884 43.2725 10.7953 43.2593 10.7043 43.2481C10.3584 43.1949 10.0262 43.1385 9.70782 43.0789C9.64013 43.0677 9.57548 43.0545 9.50914 43.041C8.97943 42.9394 8.49373 42.8257 8.05778 42.7025C7.80258 42.6314 7.56497 42.5583 7.347 42.4805C7.20924 42.4317 7.07859 42.383 6.95437 42.3319C6.84776 42.2879 6.74554 42.2436 6.65246 42.1996C6.63645 42.1932 6.62085 42.1858 6.60575 42.1775C6.55701 42.1532 6.50827 42.1288 6.46157 42.1065C6.45124 42.0983 6.43985 42.0916 6.42772 42.0865C6.38778 42.0645 6.34784 42.0425 6.30993 42.0188C6.27202 41.9951 6.23919 41.9765 6.20839 41.9569C6.18402 41.9413 6.16168 41.9257 6.1407 41.9102C6.11193 41.8902 6.08316 41.8702 6.05642 41.8503C6.02257 41.8235 5.98872 41.7968 5.9586 41.7704C5.92847 41.744 5.89429 41.7125 5.86552 41.6837C5.81115 41.6299 5.7628 41.5703 5.72134 41.506C5.70338 41.4801 5.68775 41.4525 5.67463 41.4238C5.66159 41.3995 5.65028 41.3742 5.64078 41.3483C5.63462 41.3316 5.62942 41.3145 5.62521 41.2972L5.61844 41.2708C5.61419 41.2547 5.61113 41.2383 5.6093 41.2217C5.60693 41.1973 5.6049 41.175 5.6049 41.1506C5.60466 41.1393 5.60546 41.128 5.60727 41.1168H5.6049V39.1087C6.16956 39.3994 6.76059 39.6358 7.37001 39.8147C9.79142 40.5651 13.4222 41.042 17.4791 41.042C21.5359 41.042 25.167 40.5647 27.5881 39.8147C28.1975 39.6358 28.7886 39.3995 29.3532 39.1087L29.3495 41.1168Z" fill="#98984B"/>
<path d="M29.3494 46.8867H29.3471C29.3488 46.8979 29.3496 46.9092 29.3494 46.9206C29.3494 48.33 24.0355 49.4729 17.4759 49.4729C10.9164 49.4729 5.60212 48.33 5.60212 46.9206C5.60201 46.9092 5.6028 46.8979 5.60449 46.8867H5.60212V44.8782C6.07218 45.1224 6.56213 45.3262 7.06668 45.4875C7.1645 45.5213 7.26536 45.5552 7.36622 45.585C9.71215 46.3106 13.1916 46.7815 17.0958 46.8099C17.2224 46.8123 17.349 46.8122 17.4753 46.8122C17.6015 46.8122 17.7284 46.8123 17.8547 46.8099C21.7586 46.7811 25.2384 46.3106 27.5843 45.585C27.6859 45.5538 27.7874 45.523 27.8839 45.4875C28.3884 45.3263 28.8784 45.1225 29.3484 44.8782L29.3494 46.8867Z" fill="#98984B"/>
<path d="M31.3471 35.1134V37.1215H31.3447C31.3464 37.1327 31.3472 37.144 31.3471 37.1554C31.3471 37.7308 30.4616 38.2628 28.9656 38.689C27.9107 38.9752 26.8369 39.1865 25.7522 39.3216C23.67 39.587 21.5726 39.716 19.4736 39.7078C16.6979 39.7391 13.9258 39.4967 11.1977 38.9841C8.97836 38.5225 7.60113 37.8726 7.60113 37.1564C7.60072 37.1451 7.6014 37.1338 7.60316 37.1226H7.60113V35.1148C8.16579 35.4055 8.75682 35.6419 9.36624 35.8208C9.61062 35.8966 9.87022 35.9694 10.1386 36.0415C12.5289 36.6629 15.829 37.0491 19.4753 37.0491C21.9316 37.0633 24.3846 36.8696 26.8082 36.47C27.7461 36.3124 28.6731 36.0958 29.5837 35.8215C30.1926 35.6419 30.783 35.4048 31.3471 35.1134Z" fill="#98984B"/>
<path d="M45.2425 16.9556L42.1313 0L0.478027 7.65343L4.70414 30.6609L4.79689 31.1763L5.26025 31.0928C4.8331 29.221 5.25551 25.3293 16.6572 26.2164C21.2316 26.5742 24.4176 26.8934 26.6329 27.1641L31.9783 26.1796C31.2167 23.9829 29.8327 17.62 39.4415 17.62H45.3674L45.2425 16.9556ZM21.9383 7.16131C23.6047 6.85991 25.323 7.05937 26.876 7.73441C28.429 8.40946 29.7471 9.52981 30.6635 10.9538C31.5799 12.3779 32.0535 14.0416 32.0244 15.7347C31.9954 17.4279 31.4649 19.0745 30.5002 20.4662C29.5355 21.8579 28.1799 22.9324 26.6046 23.5538C25.0293 24.1751 23.3051 24.3155 21.6501 23.9571C19.9951 23.5987 18.4834 22.7577 17.3063 21.5403C16.1292 20.3229 15.3394 18.7839 15.0369 17.1177C14.6364 14.8827 15.1377 12.5801 16.4312 10.714C17.7247 8.84786 19.7049 7.57028 21.9383 7.16098V7.16131Z" fill="#98984B"/>
</svg>
