<svg width="70" height="70" viewBox="0 0 70 70" fill="none" xmlns="http://www.w3.org/2000/svg">
<g clip-path="url(#clip0_4_129)">
<path d="M63.3565 0H6.64353C2.97441 0 0 2.97441 0 6.64353V63.3565C0 67.0256 2.97441 70 6.64353 70H63.3565C67.0256 70 70 67.0256 70 63.3565V6.64353C70 2.97441 67.0256 0 63.3565 0Z" fill="white"/>
<path d="M42.4896 27.4166C42.3628 27.9517 41.6729 28.4093 41.0322 28.3999H40.99C40.7773 28.3802 40.5746 28.3001 40.4058 28.1692C40.2371 28.0382 40.1092 27.8618 40.0372 27.6607C40.0232 27.6302 40.0091 27.5973 39.9973 27.5668L39.9082 27.1632C39.9071 27.1522 39.9071 27.1412 39.9082 27.1303L39.3989 24.8493L39.1103 23.5398V29.0781C39.1106 29.2592 39.0752 29.4386 39.0061 29.606C38.937 29.7734 38.8356 29.9255 38.7077 30.0536C38.5797 30.1818 38.4277 30.2835 38.2605 30.3529C38.0932 30.4222 37.9139 30.4579 37.7328 30.4579H36.1088H35.379H33.971C33.6057 30.4579 33.2553 30.3128 32.9969 30.0545C32.7386 29.7961 32.5935 29.4458 32.5935 29.0804V29.0804C32.5935 28.306 32.5935 27.5316 32.5935 26.7572V23.9646L32.4151 24.6991L32.3893 24.8L31.9669 26.5366V26.5765L31.7322 27.5785C31.6786 27.7456 31.5893 27.8991 31.4706 28.0283C31.3519 28.1575 31.2066 28.2595 31.0446 28.3271C30.9014 28.3918 30.7452 28.4227 30.5882 28.4174C30.4311 28.4121 30.2774 28.3708 30.1388 28.2966C29.7727 28.1018 29.3996 27.9517 29.2588 27.548C29.0711 27.02 29.2025 26.5061 29.3949 25.9968C29.5354 25.6496 29.6538 25.2937 29.7493 24.9314C29.7486 24.9221 29.7486 24.9127 29.7493 24.9033C29.9792 24.0006 30.1983 23.0948 30.4063 22.1858C30.5847 21.3034 30.7419 20.4164 30.9766 19.5598C31.2793 18.424 32.1711 17.5886 33.8677 18.1518C34.271 18.2849 34.6871 18.3754 35.1091 18.4217C35.6143 18.4815 36.1247 18.4815 36.6298 18.4217C37.0269 18.377 37.4194 18.2985 37.8032 18.187C39.5632 17.666 40.2766 18.2527 40.6896 19.4542C40.9243 20.1277 40.9665 20.8622 41.1378 21.5522C41.4195 22.6833 41.6987 23.8168 42.0155 24.9408C42.0906 25.2177 42.168 25.497 42.2502 25.7716C42.398 26.3043 42.628 26.8252 42.4896 27.4166Z" fill="#98984B"/>
<path d="M38.4438 14.3877C38.4931 15.378 37.8595 16.2791 37.0194 16.7344C36.6635 16.9399 36.2609 17.0506 35.85 17.0559C35.4391 17.0613 35.0337 16.9611 34.6726 16.7649C34.2307 16.5453 33.8576 16.2086 33.594 15.7915C33.3304 15.3743 33.1864 14.8928 33.1778 14.3994C33.178 13.905 33.3083 13.4194 33.5556 12.9914C33.7947 12.5998 34.1315 12.2772 34.533 12.0552C34.9345 11.8331 35.3869 11.7194 35.8456 11.7251C36.3044 11.7308 36.7537 11.8557 37.1496 12.0876C37.5455 12.3195 37.8742 12.6503 38.1035 13.0477C38.33 13.4578 38.4472 13.9192 38.4438 14.3877V14.3877Z" fill="#98984B"/>
<path d="M17.8116 41.7714C17.6848 42.3065 16.9949 42.7641 16.3519 42.7547H16.312C16.0983 42.734 15.895 42.6524 15.7261 42.5198C15.5573 42.3871 15.43 42.2089 15.3592 42.0061C15.3452 41.9733 15.3311 41.9427 15.3193 41.9099L15.2302 41.5039C15.228 41.4931 15.228 41.4819 15.2302 41.4711L14.7139 39.1901L14.4253 37.8829V43.4141C14.4253 43.595 14.3896 43.7742 14.3204 43.9413C14.2512 44.1084 14.1497 44.2603 14.0218 44.3882C13.8939 44.5161 13.742 44.6176 13.5749 44.6868C13.4078 44.756 13.2286 44.7917 13.0477 44.7917H11.4215H10.694H9.28596C9.10447 44.7926 8.92458 44.7576 8.75664 44.6888C8.5887 44.62 8.43601 44.5187 8.30735 44.3907C8.17869 44.2627 8.07659 44.1105 8.00693 43.9429C7.93726 43.7753 7.9014 43.5956 7.9014 43.4141V43.4141C7.9014 42.6319 7.9014 41.8567 7.9014 41.0885V38.2983L7.72539 39.0305L7.69958 39.1314L7.27717 40.868V40.9078L7.0425 41.9099C6.98898 42.077 6.90006 42.2305 6.78181 42.3601C6.66355 42.4897 6.51875 42.5923 6.35726 42.6608C6.21372 42.7246 6.05752 42.7548 5.90055 42.7491C5.74358 42.7434 5.58998 42.702 5.45143 42.628C5.083 42.4356 4.70987 42.283 4.57142 41.8817C4.38368 41.3514 4.51275 40.8398 4.70753 40.3306C4.84667 39.9828 4.96499 39.627 5.06188 39.2652V39.2346C5.29655 38.3335 5.5101 37.4277 5.71896 36.5172C5.91843 35.6465 6.06862 34.7642 6.30329 33.9006C6.60836 32.7671 7.50011 31.9293 9.19678 32.4925C9.60031 32.6246 10.0163 32.715 10.4382 32.7624C10.9426 32.8211 11.4521 32.8211 11.9565 32.7624C12.3536 32.7177 12.7461 32.6392 13.1299 32.5277C14.8899 32.0068 15.6056 32.5911 16.0163 33.795C16.251 34.4661 16.2956 35.203 16.4669 35.8906C16.7485 37.0217 17.0278 38.1575 17.3422 39.2816C17.4173 39.5585 17.4971 39.8354 17.5769 40.1123C17.7177 40.6474 17.95 41.1683 17.8116 41.7714Z" fill="#98984B"/>
<path d="M13.7635 28.7331C13.8127 29.7234 13.1791 30.6222 12.339 31.0798C11.9847 31.2837 11.584 31.3934 11.1752 31.3983C10.7664 31.4032 10.3632 31.3033 10.004 31.108C9.56204 30.8889 9.18867 30.5527 8.92466 30.136C8.66064 29.7193 8.51612 29.2381 8.50684 28.7448C8.50771 28.2503 8.63883 27.7646 8.887 27.3368C9.12609 26.9453 9.46292 26.6226 9.86441 26.4006C10.2659 26.1786 10.7182 26.0648 11.177 26.0705C11.6357 26.0762 12.0851 26.2011 12.481 26.433C12.8769 26.6649 13.2056 26.9958 13.4349 27.3931C13.6577 27.8042 13.7708 28.2657 13.7635 28.7331V28.7331Z" fill="#98984B"/>
<path d="M65.5671 41.4194C65.4403 41.9545 64.7504 42.4121 64.1074 42.4027H64.0652C63.8525 42.383 63.6498 42.303 63.481 42.172C63.3122 42.0411 63.1843 41.8646 63.1124 41.6635C63.0983 41.633 63.0842 41.6001 63.0725 41.5696L62.9833 41.1636C62.9823 41.1535 62.9823 41.1433 62.9833 41.1331L62.4741 38.8521L62.1878 37.5473V43.0856C62.1878 43.2665 62.1522 43.4456 62.0829 43.6127C62.0137 43.7799 61.9123 43.9317 61.7843 44.0596C61.6564 44.1876 61.5046 44.289 61.3374 44.3582C61.1703 44.4275 60.9912 44.4631 60.8103 44.4631H59.1864H58.4565H57.0485C56.8676 44.4631 56.6885 44.4275 56.5214 44.3582C56.3542 44.289 56.2024 44.1876 56.0745 44.0596C55.9465 43.9317 55.8451 43.7799 55.7758 43.6127C55.7066 43.4456 55.671 43.2665 55.671 43.0856V43.0856C55.671 42.3112 55.671 41.5344 55.671 40.7623V37.9698L55.4926 38.7019L55.4668 38.8028L55.0444 40.5394V40.5793L54.8097 41.5813C54.7562 41.7484 54.6673 41.902 54.5491 42.0316C54.4308 42.1612 54.286 42.2637 54.1245 42.3323C53.9806 42.3961 53.824 42.4263 53.6666 42.4206C53.5093 42.4149 53.3553 42.3735 53.2163 42.2994C52.8502 42.107 52.4771 41.9568 52.3363 41.5532C52.1486 41.0228 52.28 40.5112 52.4724 40.002C52.6126 39.6546 52.731 39.2988 52.8268 38.9366C52.8254 38.9273 52.8254 38.9178 52.8268 38.9084C53.0568 38.0057 53.2758 37.0991 53.4839 36.1886C53.6833 35.318 53.8335 34.4356 54.0682 33.572C54.3733 32.4386 55.2627 31.6008 56.9593 32.164C57.3626 32.2971 57.7786 32.3876 58.2007 32.4339C58.7059 32.4925 59.2162 32.4925 59.7214 32.4339C60.1185 32.3892 60.511 32.3107 60.8948 32.1992C62.6548 31.6782 63.3682 32.2626 63.7812 33.4664C64.0159 34.1376 64.0581 34.8744 64.2294 35.562C64.511 36.6955 64.7903 37.829 65.1071 38.953C65.1822 39.2299 65.2596 39.5092 65.3418 39.7838C65.4732 40.3071 65.7079 40.8327 65.5671 41.4194Z" fill="#98984B"/>
<path d="M61.5213 28.3952C61.5706 29.3831 60.937 30.2726 60.0969 30.7419C59.7408 30.947 59.3381 31.0574 58.9272 31.0623C58.5163 31.0672 58.111 30.9666 57.7502 30.7701C57.3085 30.5487 56.9362 30.21 56.6742 29.7911C56.4122 29.3722 56.2705 28.8892 56.2647 28.3952C56.2649 27.9008 56.3952 27.4152 56.6425 26.9872C56.8823 26.5963 57.2194 26.2744 57.621 26.053C58.0225 25.8316 58.4747 25.7183 58.9332 25.7242C59.3917 25.7302 59.8408 25.8551 60.2365 26.0867C60.6322 26.3184 60.9609 26.6489 61.1905 27.0458C61.4157 27.4594 61.5297 27.9243 61.5213 28.3952V28.3952Z" fill="#98984B"/>
<path d="M42.1492 55.0632C42.0225 55.5982 41.3326 56.0558 40.6896 56.0465H40.6497C40.4373 56.0267 40.235 55.9469 40.0663 55.8164C39.8976 55.6859 39.7695 55.5102 39.6969 55.3096C39.6829 55.2767 39.6688 55.2462 39.657 55.2134L39.5679 54.8074C39.5657 54.7966 39.5657 54.7854 39.5679 54.7745L39.0586 52.4935L38.77 51.1864V56.7247C38.77 56.9056 38.7344 57.0847 38.6651 57.2518C38.5959 57.4189 38.4944 57.5708 38.3665 57.6987C38.2386 57.8266 38.0867 57.9281 37.9196 57.9973C37.7525 58.0665 37.5734 58.1022 37.3925 58.1022H35.7662H35.0364H33.6283C33.263 58.1022 32.9126 57.957 32.6543 57.6987C32.396 57.4404 32.2508 57.09 32.2508 56.7247V56.7247C32.2508 55.9502 32.2508 55.1735 32.2508 54.4014V51.6088L32.0748 52.341L32.049 52.4419L31.6266 54.1785V54.2184L31.3919 55.2204C31.3384 55.3872 31.2494 55.5404 31.1312 55.6697C31.0129 55.7989 30.8681 55.901 30.7067 55.969C30.5635 56.0337 30.4073 56.0646 30.2502 56.0593C30.0932 56.054 29.9394 56.0127 29.8009 55.9385C29.4324 55.7437 29.0593 55.5935 28.9208 55.1923C28.7331 54.6619 28.8622 54.148 29.057 53.6387C29.1967 53.2914 29.3143 52.9356 29.409 52.5733C29.4103 52.564 29.4103 52.5545 29.409 52.5452C29.6436 51.6417 29.8572 50.7359 30.066 49.8277C30.2655 48.9571 30.4157 48.0723 30.6504 47.2111C30.9554 46.0753 31.8472 45.2399 33.5439 45.8031C33.9471 45.9362 34.3632 46.0266 34.7853 46.0729C35.2896 46.1328 35.7993 46.1328 36.3036 46.0729C36.7007 46.0283 37.0932 45.9498 37.4769 45.8383C39.237 45.3173 39.9527 45.9016 40.3634 47.1055C40.5981 47.7767 40.6427 48.5135 40.8116 49.2011C41.0932 50.3322 41.3748 51.468 41.6893 52.5898C41.7644 52.8667 41.8442 53.1459 41.924 53.4205C42.0554 53.9509 42.2877 54.4742 42.1492 55.0632Z" fill="#98984B"/>
<path d="M38.1012 42.0366C38.1505 43.0246 37.5169 43.9257 36.6767 44.3833C36.3222 44.5868 35.9216 44.6962 35.5129 44.7011C35.1042 44.706 34.701 44.6063 34.3418 44.4115C33.9013 44.1907 33.5298 43.8535 33.2675 43.4365C33.0052 43.0195 32.8622 42.5386 32.8539 42.046C32.8548 41.5514 32.9859 41.0658 33.2341 40.638C33.4738 40.2471 33.811 39.9252 34.2125 39.7038C34.6141 39.4824 35.0662 39.3691 35.5247 39.3751C35.9832 39.381 36.4323 39.5059 36.828 39.7375C37.2237 39.9692 37.5525 40.2997 37.782 40.6966C38.0017 41.1085 38.1116 41.5699 38.1012 42.0366V42.0366Z" fill="#98984B"/>
<path d="M45.5989 53.7561C45.5989 53.7561 55.2791 54.9951 60.0547 46.4648" stroke="#98984B" stroke-width="1.45" stroke-miterlimit="10"/>
<path d="M10.8536 46.3006C10.8536 46.3006 15.0777 55.0937 24.8353 54.4601" stroke="#98984B" stroke-width="1.45" stroke-miterlimit="10"/>
<path d="M58.3955 23.744C58.3955 23.744 53.7021 15.1832 44.0032 16.3331" stroke="#98984B" stroke-width="1.45" stroke-miterlimit="10"/>
<path d="M26.0931 16.4692C26.0931 16.4692 16.3566 15.8145 12.1044 24.6146" stroke="#98984B" stroke-width="1.45" stroke-miterlimit="10"/>
</g>
<defs>
<clipPath id="clip0_4_129">
<rect width="70" height="70" fill="white"/>
</clipPath>
</defs>
</svg>
