<svg width="74" height="74" viewBox="0 0 74 74" fill="none" xmlns="http://www.w3.org/2000/svg">
<path d="M66.5253 0H7.47475C3.34656 0 0 3.34656 0 7.47475V66.5253C0 70.6535 3.34656 74 7.47475 74H66.5253C70.6535 74 74 70.6535 74 66.5253V7.47475C74 3.34656 70.6535 0 66.5253 0Z" fill="white"/>
<path d="M43.6215 32.1154C43.1945 32.4942 42.0764 33.4749 40.8414 34.4893C41.7703 33.6989 42.6969 32.9076 43.6215 32.1154Z" fill="#98984B"/>
<path d="M38.6161 47.1671C39.0198 47.1671 39.4249 47.1919 39.8273 47.1626C41.5879 47.0993 43.3217 46.7116 44.9415 46.0189C46.306 45.3843 47.6062 44.6416 48.9165 43.9102C49.4757 43.5984 50.0476 43.3166 50.6087 43.0132C51.4276 42.5348 52.2852 42.1262 53.1727 41.7918C53.771 41.5294 54.3957 41.3314 55.036 41.2014C55.9162 41.0444 56.8217 41.1101 57.6699 41.3927C57.9904 41.5014 58.2845 41.6761 58.5332 41.9057C58.7818 42.1353 58.9795 42.4145 59.1133 42.7254C59.2539 43.018 59.2974 43.3479 59.2374 43.667C59.1774 43.986 59.0171 44.2776 58.7799 44.4992C58.2678 44.9919 57.7178 45.4456 57.1795 45.9133C56.9562 46.106 56.7252 46.2869 56.4995 46.4759C55.2811 47.4955 53.9581 48.373 52.6686 49.2946C51.6095 50.0483 50.4889 50.6889 49.3797 51.3465C48.369 51.9447 47.3249 52.4877 46.2688 53.0022C44.8778 53.6837 43.4309 54.2443 41.9439 54.678C41.4335 54.8449 40.9024 54.9405 40.3659 54.9621C39.7623 54.9932 39.1609 55.0555 38.5638 55.1489C38.5286 55.1481 38.4934 55.1496 38.4584 55.1534C37.4298 55.1886 36.402 55.2208 35.3735 55.2618C34.6074 55.2618 33.8419 55.3022 33.0802 55.3828C31.9261 55.5495 30.773 55.3828 29.6239 55.4778C28.1574 55.5967 26.69 55.5669 25.2229 55.5788C25.1032 55.5895 24.9853 55.6145 24.8716 55.6532C23.6998 56.0157 22.6037 56.588 21.6366 57.3424C20.9667 57.7999 20.3508 58.333 19.7087 58.8309C18.814 59.5215 17.9633 60.2672 17.1614 61.0637C16.8744 61.3507 16.8436 61.3448 16.5313 61.0317C15.6858 60.1882 14.85 59.3363 13.9981 58.5012C12.8864 57.4114 11.7624 56.3335 10.6433 55.2514L7.7387 52.4445C7.41123 52.1255 7.39784 52.1096 7.64989 51.7251C8.27382 50.7757 8.90418 49.8295 9.5559 48.8969C10.059 48.1755 10.5926 47.4767 11.1258 46.7719C11.4809 46.304 11.8466 45.8438 12.2231 45.3913C13.0142 44.4166 13.8678 43.4943 14.7783 42.6301C15.4183 41.9971 16.1489 41.4627 16.9461 41.0446C17.6212 40.7407 18.3363 40.5347 19.0696 40.4331C19.8342 40.3031 20.6063 40.218 21.3768 40.1141C21.3939 40.1147 21.411 40.1132 21.4277 40.1096C22.0712 40.0744 22.7132 40.0352 23.3555 40.0057C24.1209 39.9674 24.8922 39.9826 25.6488 39.8771C26.1202 39.8129 26.5846 39.8263 27.051 39.7881C27.6184 39.7424 28.1813 39.6521 28.7479 39.5909C29.1776 39.5437 29.6119 39.5266 30.0416 39.472C30.606 39.4018 31.1697 39.3142 31.7323 39.2259C32.2766 39.1401 32.8177 39.0413 33.362 38.953C34.0757 38.8357 34.7912 38.725 35.5034 38.6057C36.251 38.48 36.9969 38.3499 37.7411 38.2155C38.2644 38.1205 38.7831 37.983 39.311 37.9262C40.1557 37.7922 41.0127 37.7521 41.8663 37.8066C42.2286 37.8714 42.5589 38.0551 42.805 38.3287C43.0512 38.6023 43.199 38.9501 43.2253 39.3172C43.3269 40.0272 43.2191 40.7515 42.9152 41.4011C42.6949 41.8487 42.423 42.2689 42.1049 42.6532C41.0675 43.7579 39.7394 44.5473 38.2733 44.9308C37.1386 45.27 35.9874 45.561 34.8497 45.8934C34.2722 46.0616 33.7061 46.2673 33.136 46.464C33.0755 46.4943 33.0199 46.5334 32.9708 46.5799C33.0268 46.604 33.0849 46.623 33.1444 46.6367C33.9271 46.7607 34.7096 46.8828 35.499 46.9746C36.5322 47.1123 37.5738 47.1766 38.6161 47.1671Z" fill="#98984B" stroke="#98984B" stroke-width="0.554" stroke-miterlimit="10"/>
<path d="M48.8377 32.232C48.7616 31.78 48.7564 31.3191 48.822 30.8655C48.8715 29.706 49.0432 28.555 49.3341 27.4316C50.0231 24.8564 51.3422 22.4931 53.1724 20.5549C55.0681 18.6542 57.3775 17.2176 59.9203 16.3571C62.1466 15.6089 64.4484 15.1076 66.7842 14.8622C68.1455 14.6806 68.5625 31.0672 51.5755 34.1469C51.5755 34.1469 50.2502 34.422 51.0096 33.0077C51.769 31.5934 58.1569 22.8363 58.1569 22.8363C58.1569 22.8363 52.4274 27.378 49.6829 32.4371C49.6816 32.4433 49.1277 33.1355 48.8377 32.232Z" fill="#98984B" stroke="#98984B" stroke-width="0.554" stroke-miterlimit="10"/>
<path d="M46.9109 26.4159C47.0447 26.1913 47.1434 25.9475 47.2033 25.693C47.4177 25.0662 47.5653 24.4185 47.6437 23.7607C47.8113 22.2497 47.6001 20.7208 47.0292 19.3118C46.416 17.909 45.4868 16.667 44.3142 15.6828C43.2865 14.8234 42.1672 14.0799 40.9767 13.4657C40.2912 13.0869 36.6712 21.7075 45.0587 26.8672C45.0587 26.8672 45.7052 27.2889 45.5953 26.3784C45.4854 25.468 43.9061 19.4926 43.9061 19.4926C45.1248 21.6209 45.9743 23.9402 46.4184 26.3522C46.4184 26.3522 46.567 26.8344 46.9109 26.4159Z" fill="#98984B" stroke="#98984B" stroke-width="0.554" stroke-miterlimit="10"/>
<path d="M45.8033 32.8881C45.7371 32.5292 45.6155 32.1827 45.4431 31.8611C45.091 31.0052 44.6494 30.1889 44.1255 29.4259C42.9075 27.6844 41.2757 26.2732 39.3767 25.3191C37.4383 24.4114 35.3163 23.964 33.1764 24.012C31.3046 24.0573 29.4435 24.308 27.6265 24.7594C26.5583 24.9949 30.7082 37.3869 44.2764 35.0708C44.2764 35.0708 45.3431 34.916 44.3885 34.0618C43.4339 33.2077 36.2633 28.3884 36.2633 28.3884C36.2633 28.3884 41.7955 30.2309 45.227 33.2756C45.2283 33.2776 45.8306 33.6445 45.8033 32.8881Z" fill="#98984B" stroke="#98984B" stroke-width="0.554" stroke-miterlimit="10"/>
</svg>
