<svg xmlns="http://www.w3.org/2000/svg" width="79.95" height="89.147" viewBox="0 0 79.95 89.147">
  <g id="noun-science-2412004" transform="translate(-20.19)">
    <path id="Tracé_1758" data-name="Tracé 1758" d="M169,33.6a12.236,12.236,0,0,0-8.516,3.925,30.461,30.461,0,0,0-6.237,9.75c-.435,1.014-.845,2.1-1.234,3.2-1.158-.216-2.282-.406-3.388-.538a38.759,38.759,0,0,0-6.173-.285,23.959,23.959,0,0,0-5.382.823,12.244,12.244,0,0,0-7.662,5.414,12.241,12.241,0,0,0-.855,9.339,30.358,30.358,0,0,0,5.318,10.257c.664.887,1.391,1.8,2.152,2.691-.762.891-1.489,1.772-2.152,2.659a30.339,30.339,0,0,0-5.318,10.257,11.212,11.212,0,0,0,8.517,14.784,30.437,30.437,0,0,0,11.555.507c1.105-.132,2.229-.291,3.388-.507.389,1.1.8,2.152,1.234,3.166a30.612,30.612,0,0,0,6.237,9.782,11.2,11.2,0,0,0,17.031,0,30.622,30.622,0,0,0,6.237-9.782c.435-1.014.845-2.066,1.234-3.166,1.158.216,2.282.375,3.388.507a30.437,30.437,0,0,0,11.555-.507,11.212,11.212,0,0,0,8.517-14.784,30.359,30.359,0,0,0-5.318-10.257c-.664-.887-1.391-1.768-2.152-2.659.762-.891,1.489-1.8,2.152-2.691a30.332,30.332,0,0,0,5.318-10.257,12.235,12.235,0,0,0-.855-9.339,12.245,12.245,0,0,0-7.662-5.414,24,24,0,0,0-5.382-.823,38.842,38.842,0,0,0-6.173.285c-1.105.132-2.229.323-3.388.538-.389-1.1-.8-2.183-1.234-3.2a30.442,30.442,0,0,0-6.237-9.75A12.232,12.232,0,0,0,169,33.6Zm0,4.052c1.879,0,3.748.861,5.667,2.755a26.787,26.787,0,0,1,5.35,8.453c.34.792.668,1.639.982,2.5a80.5,80.5,0,0,0-12,4.179,80.6,80.6,0,0,0-12-4.179c.312-.861.642-1.709.982-2.5a26.807,26.807,0,0,1,5.35-8.453c1.919-1.894,3.788-2.755,5.667-2.755ZM143.64,53.736a34.263,34.263,0,0,1,5.508.222c.862.1,1.751.25,2.659.411A80.3,80.3,0,0,0,149.4,66.842a80.815,80.815,0,0,0-9.624,8.326c-.584-.7-1.133-1.4-1.646-2.09a27.1,27.1,0,0,1-4.685-8.9c-.68-2.609-.5-4.641.443-6.268s2.656-2.831,5.255-3.546a20.351,20.351,0,0,1,4.5-.633Zm48.087,0c.919-.035,1.786-.035,2.627,0a20.364,20.364,0,0,1,4.5.633c2.6.715,4.315,1.918,5.255,3.546s1.124,3.66.443,6.268a27.121,27.121,0,0,1-4.685,8.9c-.512.685-1.062,1.394-1.646,2.09a80.747,80.747,0,0,0-9.624-8.326,80.287,80.287,0,0,0-2.406-12.473c.908-.162,1.8-.309,2.659-.411.994-.119,1.962-.187,2.881-.222Zm-35.963,1.488a73.593,73.593,0,0,1,8.231,2.659c-1.707.859-3.417,1.735-5.129,2.723s-3.318,2.028-4.907,3.071a73.8,73.8,0,0,1,1.8-8.453Zm26.466,0a73.905,73.905,0,0,1,1.8,8.453c-1.589-1.042-3.205-2.088-4.907-3.071s-3.422-1.863-5.129-2.723a73.587,73.587,0,0,1,8.231-2.659ZM169,59.972c2.675,1.22,5.4,2.583,8.1,4.147s5.241,3.237,7.63,4.939c.285,2.942.475,5.975.475,9.117s-.16,6.19-.443,9.117q-3.592,2.561-7.662,4.907c-2.709,1.564-5.43,2.959-8.1,4.179-2.675-1.22-5.4-2.615-8.1-4.179s-5.267-3.2-7.662-4.907c-.283-2.928-.443-5.988-.443-9.117s.19-6.176.475-9.117c2.388-1.7,4.926-3.378,7.63-4.939s5.43-2.927,8.1-4.147Zm0,11.112a7.091,7.091,0,1,0,7.091,7.091A7.122,7.122,0,0,0,169,71.084Zm-20.071,1.266c-.11,1.914-.19,3.842-.19,5.825s.081,3.923.19,5.825a73.361,73.361,0,0,1-6.426-5.825A73.378,73.378,0,0,1,148.926,72.351Zm40.142,0a73.361,73.361,0,0,1,6.426,5.825A73.371,73.371,0,0,1,189.068,84c.109-1.9.19-3.853.19-5.825S189.178,74.264,189.068,72.351ZM169,75.136a3.039,3.039,0,1,1-3.039,3.039A3.009,3.009,0,0,1,169,75.136Zm-29.219,6.047a80.7,80.7,0,0,0,9.624,8.294,80.4,80.4,0,0,0,2.374,12.473c-.9.159-1.775.31-2.627.411a26.836,26.836,0,0,1-10-.411c-2.6-.715-4.315-1.887-5.255-3.514s-1.124-3.691-.443-6.3a27.12,27.12,0,0,1,4.685-8.9c.512-.685,1.062-1.362,1.646-2.058Zm58.44,0c.584.7,1.133,1.373,1.646,2.058a27.1,27.1,0,0,1,4.685,8.9c.68,2.609.5,4.672-.443,6.3s-2.656,2.8-5.255,3.514a26.821,26.821,0,0,1-10,.411c-.852-.1-1.73-.252-2.627-.411a80.419,80.419,0,0,0,2.374-12.473,80.723,80.723,0,0,0,9.624-8.294Zm-44.29,11.491c1.6,1.047,3.229,2.052,4.939,3.039s3.422,1.9,5.129,2.755a73.58,73.58,0,0,1-8.231,2.659,73.443,73.443,0,0,1-1.836-8.453Zm30.138,0a73.52,73.52,0,0,1-1.836,8.453A73.591,73.591,0,0,1,174,98.468c1.707-.859,3.417-1.766,5.129-2.755s3.343-1.991,4.939-3.039ZM169,100.811a80.6,80.6,0,0,0,12,4.179c-.311.856-.643,1.68-.982,2.469a26.807,26.807,0,0,1-5.35,8.453c-1.919,1.894-3.788,2.786-5.667,2.786s-3.748-.892-5.667-2.786a26.787,26.787,0,0,1-5.35-8.453c-.338-.789-.67-1.613-.982-2.469a80.5,80.5,0,0,0,12-4.179Z" transform="translate(-108.834 -33.602)" fill="#98984b"/>
  </g>
</svg>
