<svg xmlns="http://www.w3.org/2000/svg" width="111.969" height="105.61" viewBox="0 0 111.969 105.61">
  <g id="noun-code-1953078" transform="translate(-19.812)">
    <path id="Tracé_1673" data-name="Tracé 1673" d="M236.045,70.527H131.781a3.857,3.857,0,0,0-3.852,3.852v71a3.857,3.857,0,0,0,3.852,3.852H169v16.2c-.008.264-.244,6.47-5.69,6.47a2.117,2.117,0,0,0,0,4.234h41.2a2.117,2.117,0,0,0,0-4.234c-5.3,0-5.666-5.816-5.69-6.411V149.232h37.222a3.857,3.857,0,0,0,3.852-3.852v-71a3.857,3.857,0,0,0-3.852-3.852ZM171.3,171.9a13.094,13.094,0,0,0,1.942-6.411V149.234h21.349v16.319a12.973,12.973,0,0,0,1.936,6.352ZM235.662,145h-103.5V134.5h103.5Zm0-14.734h-103.5v-55.5h103.5Z" transform="translate(-108.117 -70.525)" fill="#98984b"/>
    <path id="Tracé_1674" data-name="Tracé 1674" d="M248,170.615a2.117,2.117,0,1,0,2.994-2.995l-14.435-14.436,14.435-14.435A2.118,2.118,0,1,0,248,135.754l-15.933,15.933a2.116,2.116,0,0,0,0,2.994Z" transform="translate(-185.535 -118.846)" fill="#98984b"/>
    <path id="Tracé_1675" data-name="Tracé 1675" d="M389.167,170.615a2.116,2.116,0,0,0,2.994,0l15.934-15.933a2.117,2.117,0,0,0,0-2.995L392.16,135.755a2.118,2.118,0,0,0-2.995,2.995L403.6,153.185l-14.434,14.437a2.116,2.116,0,0,0,0,2.994Z" transform="translate(-303.033 -118.847)" fill="#98984b"/>
    <path id="Tracé_1676" data-name="Tracé 1676" d="M319.4,171.08a2.114,2.114,0,0,0,2.738-1.214L334.429,138a2.118,2.118,0,1,0-3.952-1.523l-12.287,31.867a2.117,2.117,0,0,0,1.214,2.737Z" transform="translate(-250.308 -118.835)" fill="#98984b"/>
  </g>
</svg>
