<svg width="62" height="62" viewBox="0 0 62 62" fill="none" xmlns="http://www.w3.org/2000/svg">
<g clip-path="url(#clip0_4_106)">
<path d="M56.2695 0H5.73046C2.56562 0 0 2.56562 0 5.73046V56.2695C0 59.4344 2.56562 62 5.73046 62H56.2695C59.4344 62 62 59.4344 62 56.2695V5.73046C62 2.56562 59.4344 0 56.2695 0Z" fill="white"/>
<path d="M41.4185 36.8562C44.7254 33.1068 46.5489 28.2787 46.5462 23.2794C46.5462 11.8101 37.1534 2.53579 25.626 2.53579C14.0591 2.52747 4.70575 11.8018 4.70575 23.2794C4.70575 34.7569 14.0591 44.0229 25.626 44.0229C28.841 44.0293 32.0138 43.2916 34.8962 41.8675L51.2645 59.4788L57.2922 53.9478L41.4185 36.8562ZM30.999 37.671C29.2839 38.3265 27.462 38.6578 25.626 38.6479C17.0521 38.6479 10.1203 31.7742 10.1203 23.2669C10.1203 14.7595 17.0438 7.89835 25.626 7.89835C34.1583 7.89835 41.1317 14.772 41.1317 23.2794C41.1227 26.4286 40.1457 29.499 38.3332 32.0744C36.5207 34.6498 33.9603 36.6057 30.999 37.6772V37.671Z" fill="#98984B"/>
<path d="M33.3684 18.6671C33.3684 17.8357 32.8654 17.3369 32.0486 17.3369H28.3073C28.3073 17.1477 28.3073 16.9877 28.3073 16.8256C28.3078 16.3608 28.1246 15.9147 27.7975 15.5845C27.4704 15.2543 27.026 15.0668 26.5613 15.063C25.6904 15.0484 24.8195 15.0505 23.9465 15.063C23.5217 15.0673 23.1132 15.2277 22.799 15.5136C22.4847 15.7995 22.2865 16.191 22.2421 16.6136C22.2151 16.8401 22.2151 17.0729 22.2006 17.3369H18.4177C18.0955 17.3296 17.7835 17.4501 17.5498 17.6721C17.3162 17.8941 17.1798 18.1995 17.1706 18.5216V18.5944C17.1706 20.4526 17.1706 22.3115 17.1706 24.171C17.1692 24.3451 17.2029 24.5176 17.2697 24.6783C17.3365 24.839 17.4349 24.9846 17.5593 25.1064C17.6273 25.1823 17.6676 25.279 17.6736 25.3807C17.6736 26.1768 17.6736 26.9708 17.6736 27.7648C17.663 27.9767 17.7133 28.1873 17.8187 28.3714C17.924 28.5556 18.08 28.7058 18.268 28.804C18.5003 28.9209 18.7563 28.9827 19.0163 28.9849C23.1844 28.996 27.3511 28.996 31.5165 28.9849H31.6786C31.8383 28.9808 31.9956 28.9454 32.1416 28.8805C32.2876 28.8156 32.4194 28.7226 32.5294 28.6068C32.6394 28.491 32.7255 28.3546 32.7828 28.2055C32.8401 28.0564 32.8675 27.8975 32.8634 27.7378V27.7274C32.8634 26.9479 32.8634 26.1685 32.8634 25.389C32.8636 25.2931 32.8991 25.2007 32.9631 25.1292C33.0981 25.0015 33.2048 24.8469 33.2764 24.6755C33.348 24.504 33.3829 24.3194 33.3788 24.1336C33.3664 22.3087 33.3684 20.4879 33.3684 18.6671ZM26.1477 26.1498C26.1536 26.1851 26.1525 26.2213 26.1445 26.2563C26.1364 26.2912 26.1215 26.3242 26.1006 26.3533C26.0798 26.3825 26.0534 26.4073 26.0229 26.4262C25.9925 26.4451 25.9586 26.4578 25.9232 26.4636C25.8956 26.4678 25.8676 26.4678 25.8401 26.4636C25.4562 26.4636 25.0717 26.4636 24.6865 26.4636C24.6438 26.4687 24.6006 26.4639 24.5602 26.4493C24.5198 26.4348 24.4833 26.4111 24.4536 26.38C24.424 26.349 24.402 26.3114 24.3894 26.2704C24.3767 26.2293 24.3739 26.1859 24.3809 26.1435C24.3809 25.52 24.3809 24.8819 24.3809 24.25C24.3809 24.0172 24.4682 23.9299 24.699 23.9279C25.0772 23.9279 25.4535 23.9279 25.8317 23.9279C26.0604 23.9279 26.1435 24.0172 26.1435 24.2563C26.1435 24.5701 26.1435 24.8798 26.1435 25.202C26.1435 25.5241 26.1435 25.8255 26.1435 26.1477L26.1477 26.1498ZM27.8105 16.9815C27.8105 17.0895 27.8105 17.1893 27.8105 17.3348H22.7618C22.5415 16.1999 23.2793 15.5369 24.1024 15.5701C24.8652 15.6013 25.6322 15.6013 26.3888 15.5701C26.7355 15.5432 27.0788 15.655 27.343 15.8811C27.6073 16.1072 27.771 16.429 27.798 16.7757C27.8044 16.8448 27.8044 16.9144 27.798 16.9835L27.8105 16.9815Z" fill="#98984B"/>
</g>
<defs>
<clipPath id="clip0_4_106">
<rect width="62" height="62" fill="white"/>
</clipPath>
</defs>
</svg>
