<svg xmlns="http://www.w3.org/2000/svg" width="109.857" height="97.354" viewBox="0 0 109.857 97.354">
  <path id="noun-law-4125201" d="M233.842,141.7h-2.065L217.217,113.5a21.183,21.183,0,0,0,5.961-1.833,4.466,4.466,0,0,0,1.261-7.11l-.114-.115a4.361,4.361,0,0,0-4.93-.916,16.326,16.326,0,0,1-6.076,1.489c-5.876,0-8.779-6.146-27.342-7.187a9.324,9.324,0,1,0-11.078,0c-18.6,1.034-21.5,7.19-27.384,7.19a13.977,13.977,0,0,1-6.076-1.489,4.564,4.564,0,0,0-4.93.916l-.114.115a4.475,4.475,0,0,0,1.261,7.11,18.022,18.022,0,0,0,5.961,1.833L129.055,141.7H126.99a1.508,1.508,0,0,0-1.489,1.72c1.262,7.339,10.548,12.953,21.9,12.953s20.637-5.616,21.9-12.953a1.51,1.51,0,0,0-1.489-1.72h-2.066l-14.561-28.089c9.517-.8,14.561-5.616,21.9-5.616v55.72a7.388,7.388,0,0,0-7.337,7.339H157.6c-3.209,0-6.533,3.324-6.533,7.337h58.7c0-4.013-3.324-7.337-8.14-7.337H195.09a7.388,7.388,0,0,0-7.337-7.339V108c7.337,0,12.381,4.817,21.9,5.616L195.09,141.7h-2.065a1.508,1.508,0,0,0-1.489,1.72c1.262,7.339,10.548,12.953,21.9,12.953s20.637-5.616,21.9-12.953a1.51,1.51,0,0,0-1.489-1.72h0Zm-31.413,0,11.005-20.637L224.441,141.7Zm-44.025,0h-22.01L147.4,121.066,158.406,141.7Z" transform="translate(-125.488 -81.039)" fill="#98984b" fill-rule="evenodd"/>
</svg>
