<svg width="66" height="66" viewBox="0 0 66 66" fill="none" xmlns="http://www.w3.org/2000/svg">
<path d="M59.5887 0H5.80519C2.59907 0 0 2.59907 0 5.80519V59.5887C0 62.7949 2.59907 65.3939 5.80519 65.3939H59.5887C62.7949 65.3939 65.3939 62.7949 65.3939 59.5887V5.80519C65.3939 2.59907 62.7949 0 59.5887 0Z" fill="white"/>
<path d="M44.5057 8.33072H7.89221V57.0501H44.5057V8.33072Z" stroke="#98984B" stroke-width="3.85" stroke-miterlimit="10"/>
<path d="M56.7804 19.4259C56.9929 19.5677 57.1719 19.7541 57.3048 19.9722C57.4377 20.1904 57.5213 20.4349 57.5499 20.6887C57.5757 20.9723 57.545 21.2582 57.4595 21.5299C57.3741 21.8016 57.2357 22.0537 57.0523 22.2715C56.828 22.532 56.5767 22.7679 56.3025 22.9752C55.989 23.2274 55.6448 23.4466 55.2984 23.6987L53.025 20.5199C53.9743 19.7986 54.8687 19.0028 56.1797 19.1913L56.7804 19.4259Z" fill="#98984B"/>
<path d="M54.0663 24.1679L53.8207 23.8237C53.9062 23.9421 53.9874 24.0539 54.0663 24.1679Z" fill="#98984B"/>
<path d="M52.4199 21.855L52.3081 21.6949L52.4199 21.855Z" fill="#98984B"/>
<path d="M38.1832 33.7898V34.5462C38.181 34.259 38.1656 34.0222 38.1832 33.7898Z" fill="#98984B"/>
<path d="M54.257 24.4353L53.7331 24.8102L53.014 25.3254L52.615 25.617L42.2542 33.005L40.5705 34.1998C40.1979 34.4658 39.8259 34.7333 39.4547 35.0022C39.1982 35.1885 38.9373 35.0263 38.6676 34.9386C38.5114 34.9031 38.3698 34.8204 38.2621 34.7018C38.1701 34.5134 38.1438 34.2996 38.1875 34.0946C38.2011 33.8784 38.1286 33.6656 37.9858 33.5026C37.9502 33.4445 37.8938 33.4022 37.828 33.3843L37.532 33.2746C37.3676 33.2308 37.2168 33.1464 37.0936 33.0291C37.0107 32.9003 36.9595 32.7536 36.9443 32.6012C36.929 32.4488 36.9501 32.2949 37.0059 32.1522C37.1286 31.8793 37.3311 31.65 37.5868 31.4945C42.3222 28.1535 47.0356 24.7773 51.7578 21.41L51.9771 21.2609L52.2971 21.6993L52.4111 21.8594L52.615 22.1422L52.6917 22.2496L52.7663 22.3526L52.8627 22.4886L52.9592 22.6245C52.9592 22.6245 53.0074 22.6946 53.0096 22.6946C53.0118 22.6946 53.2179 22.9884 53.2289 22.9884L53.6169 23.5365L53.823 23.8237L54.0685 24.1679L54.1496 24.2819L54.257 24.4353Z" fill="#98984B"/>
<path d="M52.7005 22.2496L52.615 22.1422L52.7005 22.2496Z" fill="#98984B"/>
<path d="M53.0184 22.6946L52.9702 22.6267L53.0184 22.6946Z" fill="#98984B"/>
<path d="M35.8857 36.015C35.6248 35.6489 35.3683 35.2959 35.1205 34.9386C35.1044 34.9131 35.0944 34.8841 35.0914 34.8541C35.0883 34.824 35.0923 34.7937 35.103 34.7654C35.57 34.0222 36.0435 33.2856 36.5653 32.5534C36.5653 32.7726 36.5784 32.9765 36.5653 33.1892C36.5569 33.2451 36.5705 33.3021 36.6031 33.3483C36.6358 33.3944 36.6851 33.4262 36.7406 33.4369C37.0322 33.529 37.315 33.6408 37.6044 33.7328C37.6538 33.7425 37.6978 33.7704 37.7275 33.811C37.7571 33.8517 37.7703 33.9021 37.7644 33.9521C37.7644 34.2393 37.7644 34.5286 37.7644 34.8158C37.7644 34.9759 37.8017 35.0701 37.9837 35.114C38.193 35.1822 38.3986 35.2612 38.5997 35.3508L35.8857 36.015Z" fill="#98984B"/>
<path d="M54.9411 23.9552L54.61 24.1744L52.3366 20.9912L52.6633 20.772L54.9411 23.9552Z" fill="#98984B"/>
<path d="M35.4274 36.1246L34.02 36.4622L34.796 35.2411L35.4274 36.1246Z" fill="#98984B"/>
<path d="M11.9502 11.6192H10.2249V54.8994H11.9502V11.6192Z" fill="#98984B"/>
<path d="M42.388 11.6192H40.6144V54.8994H42.388V11.6192Z" fill="#98984B"/>
<path d="M19.2483 11.6192H10.2249V13.0376H19.2483V11.6192Z" fill="#98984B"/>
<path d="M42.3727 11.6192H27.476V13.0376H42.3727V11.6192Z" fill="#98984B"/>
<path d="M42.3113 53.2771H10.3301V54.8994H42.3113V53.2771Z" fill="#98984B"/>
<path d="M28.3485 35.0526H10.3016V35.6599H28.3485V35.0526Z" fill="#98984B"/>
<path d="M29.0391 48.0375V54.4939H28.3945V47.9696C28.6069 48.0064 28.8215 48.0291 29.0369 48.0375H29.0391Z" fill="#98984B"/>
<path d="M29.0391 11.6192H28.3945V25.9962H29.0391V11.6192Z" fill="#98984B"/>
<path d="M29.0391 31.3498V43.0325H28.3945V31.2818C28.6075 31.3196 28.8229 31.3423 29.0391 31.3498Z" fill="#98984B"/>
<path d="M32.4152 23.9486C32.3732 24.1706 32.3498 24.3958 32.3451 24.6217H28.7059V23.9486H32.4152Z" fill="#98984B"/>
<path d="M41.8311 23.9486H37.3676V24.6239H41.8311V23.9486Z" fill="#98984B"/>
<path d="M37.6131 20.2524H37.3062V24.6063H37.6131V20.2524Z" fill="#98984B"/>
<path d="M37.6088 20.2524C37.6088 20.2524 33.86 20.4541 32.6981 23.0542C32.5724 23.3342 32.4819 23.6288 32.4284 23.9311C32.3868 24.1532 32.3626 24.3782 32.3561 24.6041" stroke="#98984B" stroke-width="0.35" stroke-miterlimit="10"/>
<path d="M19.4875 11.6236H19.1016V15.9774H19.4875V11.6236Z" fill="#98984B"/>
<path d="M19.0992 15.9774C19.3057 15.9635 19.5113 15.9387 19.7152 15.9029C20.8267 15.7231 23.144 15.1268 24.0121 13.1757L24.0669 13.0463C24.2424 12.5933 24.3388 12.1136 24.3519 11.6279V11.6279" stroke="#98984B" stroke-width="0.35" stroke-miterlimit="10"/>
<path d="M29.9993 11.6192V13.0376H24.0801C24.2576 12.5852 24.3541 12.105 24.3651 11.6192H29.9993Z" fill="#98984B"/>
<path d="M29.0347 42.7259H24.6808V43.0942H29.0347V42.7259Z" fill="#98984B"/>
<path d="M24.6808 42.7234C24.6808 42.7454 24.6808 42.8791 24.7181 43.0917C24.7181 43.1641 24.74 43.2452 24.7554 43.3329C24.9352 44.429 25.5249 46.7003 27.4059 47.5903C27.4306 47.6045 27.4562 47.6169 27.4826 47.6276L27.6119 47.6824C27.8628 47.783 28.1237 47.8564 28.3902 47.9016C28.6017 47.9388 28.8157 47.9608 29.0304 47.9674V47.9674" stroke="#98984B" stroke-width="0.35" stroke-miterlimit="10"/>
<path d="M29.0435 26.0269H24.6896V26.3952H29.0435V26.0269Z" fill="#98984B"/>
<path d="M29.0435 31.2775C28.8273 31.2703 28.6119 31.2475 28.399 31.2095C28.1356 31.163 27.8778 31.0896 27.6295 30.9903L27.5001 30.9355L27.4234 30.8982C25.5468 30.0059 24.9615 27.7413 24.7817 26.6473C24.7663 26.5597 24.7532 26.4785 24.7444 26.4062C24.7159 26.187 24.7115 26.0598 24.7072 26.0379" stroke="#98984B" stroke-width="0.35" stroke-miterlimit="10"/>
</svg>
