<svg width="76" height="76" viewBox="0 0 76 76" fill="none" xmlns="http://www.w3.org/2000/svg">
<g clip-path="url(#clip0_4_85)">
<path d="M69.2023 0H6.79768C3.04343 0 0 3.04343 0 6.79768V69.2023C0 72.9566 3.04343 76 6.79768 76H69.2023C72.9566 76 76 72.9566 76 69.2023V6.79768C76 3.04343 72.9566 0 69.2023 0Z" fill="white"/>
<path d="M49.4819 32.9463C49.5329 33.4049 49.5787 33.8712 49.6068 34.3324C49.6552 35.0636 49.6832 35.7948 49.7138 36.5363C49.7015 35.3363 49.6241 34.1379 49.4819 32.9463V32.9463Z" fill="#98984B"/>
<path d="M64.1499 34.9744C63.9639 33.0881 63.5613 31.2295 62.9499 29.4354C61.5186 25.1587 59.0124 21.3216 55.6715 18.2922C52.3307 15.2628 48.2674 13.1427 43.8715 12.1354C41.5016 11.5785 39.0635 11.3674 36.6331 11.5087C30.5299 11.873 24.7406 14.3367 20.2464 18.4821C15.7523 22.6275 12.83 28.1995 11.9749 34.2534C11.8781 34.9464 11.8424 35.6445 11.7787 36.3426C11.766 36.4777 11.7431 36.6101 11.7278 36.7452V38.9644C11.7635 39.3516 11.8068 39.7287 11.8399 40.1211C12.0696 42.8569 12.7497 45.5359 13.8527 48.05C14.4617 49.4908 15.1975 50.8747 16.0515 52.1852C17.9443 55.1434 20.4171 57.6873 23.3205 59.6632C26.2717 61.666 29.5707 63.1004 33.0482 63.8926C34.98 64.3153 36.9582 64.4866 38.9338 64.4022C43.8227 64.2473 48.569 62.7179 52.6285 59.9893C54.6487 58.6597 56.4597 57.0368 58.0019 55.1738C61.197 51.2731 63.2888 46.8576 64.0149 41.8358C64.1346 41.0027 64.178 40.1542 64.2697 39.3134C64.2697 39.1784 64.3053 39.0459 64.3206 38.9109V36.7503L64.1499 34.9744ZM54.7789 22.7065H51.0488C50.4577 22.7065 50.4679 22.7065 50.2437 22.1714C49.584 20.5361 48.7476 18.9778 47.7494 17.5242C50.3949 18.7987 52.779 20.5563 54.7789 22.7065V22.7065ZM40.0013 15.4222C40.1944 15.3842 40.3933 15.3873 40.5851 15.4312C40.7769 15.4751 40.9574 15.5588 41.1148 15.677C43.3911 17.5402 45.2197 19.8912 46.4653 22.5562C46.481 22.5973 46.4922 22.64 46.4984 22.6836H40.0013V15.4222ZM29.9628 22.1664C30.9819 20.2529 32.1412 18.4414 33.7005 16.9152C34.1387 16.4846 34.6126 16.0923 35.0865 15.7075C35.4942 15.3712 35.5961 15.3636 36.2407 15.4528V22.6759H29.7055C29.7946 22.4976 29.8736 22.3243 29.9628 22.1664ZM28.3398 17.5114C27.243 19.0652 26.3371 20.7453 25.6416 22.5154C25.6167 22.5645 25.5807 22.607 25.5365 22.6398C25.4923 22.6725 25.441 22.6945 25.3868 22.7039C24.0747 22.7167 22.76 22.7039 21.4453 22.7039C21.4072 22.7077 21.3688 22.7077 21.3307 22.7039C22.1027 21.4275 26.4238 18.2223 28.3398 17.5012V17.5114ZM15.5878 35.3846C15.7959 33.5497 16.2466 31.7505 16.928 30.0341C17.4019 28.8901 17.9828 27.7869 18.5127 26.6633C18.5367 26.5954 18.5818 26.537 18.6414 26.4966C18.701 26.4563 18.772 26.4361 18.8439 26.4391C20.658 26.4391 22.467 26.4391 24.2811 26.4391L24.439 26.4595C23.4767 29.8592 22.9737 33.3725 22.9434 36.9057H15.4578C15.5012 36.3859 15.5241 35.8815 15.5878 35.3846ZM20.3829 51.5075C20.3102 51.5028 20.2392 51.4838 20.1741 51.4514C20.1089 51.419 20.0508 51.374 20.0032 51.3189C18.2606 49.1429 16.9934 46.6259 16.2834 43.9301C16.0286 42.9314 15.8324 41.9071 15.6005 40.8498H22.7345C22.8372 42.6618 23.0929 44.4619 23.4989 46.2309C23.9295 47.9914 24.4314 49.7367 24.9104 51.5024C24.8591 51.5129 24.8072 51.5197 24.755 51.5228C23.2951 51.5228 21.8326 51.5228 20.3752 51.51L20.3829 51.5075ZM23.7537 55.0541C24.4696 55.0541 25.1677 55.1025 25.8582 55.0362C26.4875 54.9827 26.8264 55.1764 27.0888 55.77C27.4277 56.5344 27.9016 57.2452 28.3169 57.979C27.5168 58.0096 24.4594 56.0528 23.7537 55.0541V55.0541ZM36.2382 60.2746C36.0342 60.3234 35.8216 60.3219 35.6183 60.2705C35.4151 60.219 35.2274 60.119 35.0712 59.9791C33.5476 58.6713 32.2224 57.1487 31.1374 55.4592L31.0227 55.2732H36.2382V60.2746ZM44.2028 56.4529C43.1737 57.8121 41.9951 59.0513 40.6893 60.1472C40.4931 60.318 40.1262 60.2874 39.8001 60.3587V55.263H45.0334C44.7404 55.6783 44.483 56.0732 44.2028 56.4478V56.4529ZM46.9086 51.5075C45.8054 51.5075 44.697 51.5075 43.5964 51.5075H39.8001V47.9405H36.2331V51.5075H34.8063H34.7145H29.1908C29.1159 51.5201 29.039 51.503 28.9766 51.4596C28.9142 51.4163 28.8713 51.3502 28.857 51.2756C28.8463 51.2507 28.8369 51.2251 28.829 51.1992C28.829 51.1711 28.8086 51.1406 28.7959 51.1125C28.3118 49.7698 25.1422 40.5568 26.7321 33.3565C27.0095 31.0893 27.4739 28.8489 28.1207 26.6582C28.164 26.5104 28.1971 26.4264 28.3755 26.4264C29.257 26.4264 30.1386 26.4264 31.0151 26.4264H36.2305V30.6711H40.0013L39.9249 26.4264H44.027H47.7519C47.8387 26.4123 47.9275 26.4331 47.999 26.4841C48.0706 26.5352 48.1191 26.6124 48.1341 26.699V26.699C48.7908 28.6896 49.2383 30.7432 49.4692 32.8266C49.4692 32.8266 49.4692 32.8623 49.4819 32.931C49.6216 34.1228 49.6989 35.3211 49.7138 36.521C49.7138 36.6993 49.7291 36.8828 49.7367 37.0662H49.7163C49.7367 39.9988 49.4615 44.0907 48.2258 48.157C48.1596 48.3761 48.0908 48.5953 48.022 48.8144L47.915 49.1354C47.6755 49.8616 47.4207 50.5826 47.1659 51.3036C47.1416 51.3534 47.1059 51.3967 47.0616 51.4299C47.0173 51.4632 46.9657 51.4854 46.9111 51.4947L46.9086 51.5075ZM47.6729 58.2313C47.9277 57.8032 48.1316 57.4491 48.3354 57.0898C48.6411 56.542 48.9418 55.984 49.2526 55.4337C49.2959 55.3573 49.4004 55.2579 49.4768 55.2579C50.3966 55.2579 51.3215 55.2579 52.3253 55.2579C50.9353 56.4826 49.3665 57.4879 47.6729 58.2389V58.2313ZM60.1141 42.2689C59.6631 44.8306 58.7022 47.2756 57.2886 49.459C56.8987 50.0526 56.4478 50.603 56.0146 51.1661C55.9832 51.2043 55.9445 51.2359 55.9007 51.2591C55.857 51.2822 55.8091 51.2965 55.7598 51.3011C54.2311 51.3011 52.6846 51.3011 51.1457 51.3011C51.1141 51.2953 51.0834 51.2859 51.0539 51.2731C52.2923 47.8589 53.0436 44.2875 53.2859 40.6638H60.3842C60.2899 41.2065 60.216 41.7364 60.1116 42.2664L60.1141 42.2689ZM53.2808 37.084C53.2512 33.4598 52.737 29.8557 51.7521 26.3678C52.4374 26.3423 53.0769 26.2888 53.7139 26.2888C54.8222 26.2888 55.9331 26.3219 57.0414 26.3397C57.1837 26.3236 57.3275 26.3513 57.4537 26.4192C57.5798 26.487 57.6822 26.5918 57.7472 26.7194C59.0377 28.9752 59.9322 31.4355 60.3918 33.9935C60.5676 35.0126 60.667 36.0318 60.802 37.0815L53.2808 37.084Z" fill="#98984B"/>
<path d="M38.3554 42.2944C38.3172 42.0513 38.3172 41.8037 38.3554 41.5606C38.4351 39.4932 39.2658 37.5257 40.6918 36.0267C41.637 35.0075 43.0103 34.2432 44.3123 33.7744C45.5082 33.3729 46.7445 33.1038 47.999 32.9718C48.7277 32.875 48.9519 41.6727 39.8331 43.3263C39.8331 43.3263 39.1223 43.4741 39.53 42.7148C39.9376 41.9555 43.367 37.2548 43.367 37.2548C43.367 37.2548 40.2918 39.6931 38.8166 42.4091C38.8089 42.404 38.5108 42.776 38.3554 42.2944Z" fill="#98984B" stroke="#98984B" stroke-width="0.57" stroke-miterlimit="10"/>
<path d="M37.321 39.1682C37.3924 39.0476 37.4457 38.9171 37.479 38.7809C37.5933 38.4443 37.6727 38.0968 37.7159 37.7439C37.8047 36.9322 37.6909 36.1111 37.3847 35.3541C37.0551 34.601 36.5564 33.9341 35.9273 33.4049C35.3777 32.9449 34.7797 32.546 34.1438 32.2151C33.7744 32.0113 31.8329 36.6407 36.335 39.4102C36.335 39.4102 36.6815 39.637 36.6229 39.1555C36.5643 38.6739 35.7159 35.4585 35.7159 35.4585C35.7159 35.4585 36.8446 37.3923 37.0662 39.1427C37.056 39.1351 37.1376 39.3924 37.321 39.1682Z" fill="#98984B" stroke="#98984B" stroke-width="0.57" stroke-miterlimit="10"/>
<path d="M36.7273 42.6435C36.6922 42.4505 36.6278 42.2641 36.5362 42.0906C36.3454 41.6319 36.108 41.1939 35.8279 40.7835C35.1744 39.8491 34.2989 39.0918 33.2801 38.5796C32.2915 38.0701 31.0584 37.8815 29.9526 37.8764C28.9472 37.9019 27.9477 38.0368 26.9716 38.279C26.3983 38.4064 28.6277 45.0588 35.912 43.8155C35.912 43.8155 36.4827 43.7314 35.9706 43.2753C35.4585 42.8193 31.6087 40.2179 31.6087 40.2179C31.6087 40.2179 34.5769 41.2065 36.4216 42.8422C36.419 42.8524 36.7426 43.0588 36.7273 42.6435Z" fill="#98984B" stroke="#98984B" stroke-width="0.57" stroke-miterlimit="10"/>
</g>
<defs>
<clipPath id="clip0_4_85">
<rect width="76" height="76" fill="white"/>
</clipPath>
</defs>
</svg>
