<svg id="Groupe_2348" data-name="Groupe 2348" xmlns="http://www.w3.org/2000/svg" width="688.956" height="449" viewBox="0 0 688.956 449">
  <path id="Tracé_3652" data-name="Tracé 3652" d="M397.24,629.606l-20.233-7.069a69.152,69.152,0,0,1,1.455-33.241c7.676,18.479,31.616,23.646,44.909,38.6a41.6,41.6,0,0,1,9.639,34.742l3.874,14.7a69.7,69.7,0,0,1-49.871-30.312,67.33,67.33,0,0,1-7.453-15.157C388.293,631.25,397.24,629.606,397.24,629.606Z" transform="translate(-236.95 -237.03)" fill="#f2f2f2"/>
  <path id="Tracé_3653" data-name="Tracé 3653" d="M645.26,490.008H539.311a5.653,5.653,0,0,0-5.644,5.659V663.034H650.918V495.667a5.656,5.656,0,0,0-5.659-5.659Zm-52.618,95.1a12.569,12.569,0,0,1-12.511-12.511v-19.3a12.511,12.511,0,1,1,25.021,0v19.3A12.569,12.569,0,0,1,592.642,585.1Z" transform="translate(-250.031 -228.812)" fill="#434343"/>
  <path id="Tracé_3654" data-name="Tracé 3654" d="M533.27,672.813V688.96a3.163,3.163,0,0,0,3.157,3.157H648.093a3.173,3.173,0,0,0,3.157-3.157V672.813Z" transform="translate(-249.998 -243.943)" fill="#ccc"/>
  <path id="Tracé_3655" data-name="Tracé 3655" d="M804.409,205.24H351.52a14.7,14.7,0,0,0-14.678,14.678V525.53a14.692,14.692,0,0,0,14.678,14.678H804.409a14.692,14.692,0,0,0,14.678-14.678V219.918A14.7,14.7,0,0,0,804.409,205.24Z" transform="translate(-233.739 -205.24)" fill="#434343"/>
  <path id="Tracé_3656" data-name="Tracé 3656" d="M801.584,216.794H356.263a7.87,7.87,0,0,0-7.851,7.87V522.7a7.86,7.86,0,0,0,7.851,7.852H801.584a7.86,7.86,0,0,0,7.852-7.851V224.664a7.87,7.87,0,0,0-7.851-7.87Z" transform="translate(-234.697 -206.196)" fill="#fff"/>
  <path id="Tracé_3657" data-name="Tracé 3657" d="M834.995,223.435V482.844A164.2,164.2,0,0,1,666.8,215.565h160.34a7.87,7.87,0,0,1,7.852,7.87Z" transform="translate(-257.578 -206.095)" fill="#98984b"/>
  <path id="Tracé_3658" data-name="Tracé 3658" d="M780.323,261.268H363.635a1.657,1.657,0,1,1,0-3.314H780.323a1.657,1.657,0,1,1,0,3.315Z" transform="translate(-235.819 -209.603)" fill="#cacaca"/>
  <ellipse id="Ellipse_555" data-name="Ellipse 555" cx="9.711" cy="9.928" rx="9.711" ry="9.928" transform="translate(146.468 20.035)" fill="#3f3d56"/>
  <ellipse id="Ellipse_556" data-name="Ellipse 556" cx="9.711" cy="9.928" rx="9.711" ry="9.928" transform="translate(180.016 20.035)" fill="#3f3d56"/>
  <ellipse id="Ellipse_557" data-name="Ellipse 557" cx="9.711" cy="9.928" rx="9.711" ry="9.928" transform="translate(213.563 20.035)" fill="#3f3d56"/>
  <path id="Tracé_3659" data-name="Tracé 3659" d="M793.742,229.766h-23.83a1.8,1.8,0,1,0,0,3.609h23.831a1.8,1.8,0,1,0,0-3.609Z" transform="translate(-269.437 -207.27)" fill="#3f3d56"/>
  <path id="Tracé_3660" data-name="Tracé 3660" d="M793.742,237.15h-23.83a1.8,1.8,0,1,0,0,3.609h23.831a1.8,1.8,0,1,0,0-3.609Z" transform="translate(-269.437 -207.881)" fill="#3f3d56"/>
  <path id="Tracé_3661" data-name="Tracé 3661" d="M793.742,244.525h-23.83a1.8,1.8,0,1,0,0,3.609h23.831a1.8,1.8,0,1,0,0-3.609Z" transform="translate(-269.437 -208.492)" fill="#3f3d56"/>
  <path id="Tracé_3662" data-name="Tracé 3662" d="M477.414,456.737a6.2,6.2,0,0,0-1.236-9.427l5.081-21.44L470.5,429.8l-3.177,19.757a6.234,6.234,0,0,0,10.086,7.18Z" transform="translate(-244.477 -223.503)" fill="#9e616a"/>
  <path id="Tracé_3663" data-name="Tracé 3663" d="M503.354,357.9,499.038,369s1.85,11.1-1.233,13.565-1.85,2.466-1.85,4.316a9.485,9.485,0,0,1-3.7,6.783c-2.466,1.85-13.565,39.462-13.565,39.462h-11.1a34.773,34.773,0,0,0,0-8.632c-.617-4.316,1.85-15.415,3.083-17.265s0-4.316,0-8.016,2.466-5.549,2.466-11.715,7.4-54.26,6.783-59.81,6.166-10.482,6.166-10.482h6.166Z" transform="translate(-244.554 -214.508)" fill="#e6e6e6"/>
  <path id="Tracé_3664" data-name="Tracé 3664" d="M325.812,468.567h8.544l4.066-32.956h-12.61Z" transform="translate(-26.969 -36.058)" fill="#9e616a"/>
  <path id="Tracé_3665" data-name="Tracé 3665" d="M547.051,670.327l13.65-.815v5.848l12.977,8.963a3.653,3.653,0,0,1-2.076,6.659H555.352l-2.8-5.785-1.094,5.785H545.33Z" transform="translate(-250.997 -243.67)" fill="#2f2e41"/>
  <path id="Tracé_3666" data-name="Tracé 3666" d="M209.063,460.864l7.939,3.16,15.966-29.115-11.716-4.664Z" transform="translate(-17.305 -35.614)" fill="#9e616a"/>
  <path id="Tracé_3667" data-name="Tracé 3667" d="M432.2,661.815l12.983,4.291-2.163,5.434,8.742,13.127a3.653,3.653,0,0,1-4.391,5.419l-15.1-6.01-.463-6.411-3.156,4.97-5.693-2.266Z" transform="translate(-240.867 -243.033)" fill="#2f2e41"/>
  <path id="Tracé_3668" data-name="Tracé 3668" d="M523.943,555.933,509.7,489.446l-22.248,73.873L452.22,633.37l-.187.372-11.159-6.008c-1.575-28.444,2.165-55.1,15.846-78.405l6.478-63.973c.2-2.186,5.031-53.5,20.331-62.6l4.481-10.218,44.568-11.007.162.183a34.071,34.071,0,0,1,8.164,17.113L554.221,499.5l.008.045-3.571,56.281,4.884,83.032H537.869Q521.469,608,523.943,555.933Z" transform="translate(-242.322 -221.488)" fill="#2f2e41"/>
  <path id="Tracé_3669" data-name="Tracé 3669" d="M577.212,327.589l27.018-9.452a3.35,3.35,0,0,1,2.212,6.323l-27.018,9.452a3.35,3.35,0,1,1-2.212-6.323Z" transform="translate(-253.45 -214.569)" fill="#2f2e41"/>
  <path id="Tracé_3670" data-name="Tracé 3670" d="M608.96,322.966c.529,1.83,2.809,2.718,4.65,2.231a7.557,7.557,0,0,0,4.235-3.623c.989-1.627,1.669-3.43,2.686-5.04a14.136,14.136,0,0,1,8.533-6.118,14.806,14.806,0,0,0-9.1,1.724,10.988,10.988,0,0,1-3.189,1.5,27.569,27.569,0,0,1-3.639-.047,5.616,5.616,0,0,0-3.814,9.447" transform="translate(-256.168 -213.935)" fill="#6c63ff"/>
  <path id="Tracé_3671" data-name="Tracé 3671" d="M602.954,326.646a6.2,6.2,0,0,1-8,5.142L581.864,349.51l-3.943-10.75,13.037-15.182a6.234,6.234,0,0,1,12,3.067Z" transform="translate(-253.694 -214.705)" fill="#9e616a"/>
  <path id="Tracé_3672" data-name="Tracé 3672" d="M477.366,425.407c-1.2,0-1.882-.235-2.146-.74-.387-.741.285-1.708,1.063-2.83.543-.781,2.128-2.334,1.349-2.429-11.823-1.444-6.148-74.335-1.024-83.97,1.041-1.958-.06-4.961,1.112-8.284,3.2-9.073,7.573-11.862,16.282-17.416q1.06-.676,2.208-1.413c.99-.636.935-2.745.877-4.979-.065-2.482-.132-5.05,1.084-6.654l.079-.1.128-.03c2.942-.68,12.835-1.942,18.694.009l.081.028.06.06c1.392,1.392,1.519,4.088,1.641,6.695.1,2.14.2,4.161.983,5.039,6.02,6.71,12.847,6.579,12.917,6.578l.338-.01.034.336c4.221,8.033.916,37.867,3.85,56.4,2.981,18.828,28.434,34.855,6.639,37.7a.472.472,0,0,1,.015.489C542.312,412.341,481.89,425.407,477.366,425.407ZM543.008,409.787Z" transform="translate(-244.815 -212.713)" fill="#e6e6e6"/>
  <path id="Tracé_3673" data-name="Tracé 3673" d="M549.758,372.162l-11.769-6.62c-20.523-14.225-25.579-25.522-26.211-32.5-.674-7.442,3.291-11.513,3.46-11.682l.092-.067,10.609-5.421a10.678,10.678,0,0,1,14.893,5.86l9.813,26.989,10.88-8.025,4.64-1.829,3.744-5.007,10.283-6,7.639,6.876-9.607,19.214-5.337,1.359-1.132,2.916-.1.064Z" transform="translate(-248.213 -214.301)" fill="#e6e6e6"/>
  <path id="Tracé_3674" data-name="Tracé 3674" d="M526.831,280.528a20.036,20.036,0,1,1,1.018-17.07c.092.229.174.459.257.7a20.009,20.009,0,0,1-1.275,16.372Z" transform="translate(-246.352 -209.017)" fill="#9e616a"/>
  <path id="Tracé_3675" data-name="Tracé 3675" d="M531.068,263.829c-.862-2.412-.486-1.156-1.357-3.559a6,6,0,0,1-.248,3.559H505.606V249.961c6.989-2.77,13.823-5.127,17.95,0a13.869,13.869,0,0,1,13.868,13.868Z" transform="translate(-247.708 -208.691)" fill="#2f2e41"/>
  <path id="Tracé_3676" data-name="Tracé 3676" d="M520.813,302.249c-.018-.257-.046-.523-.083-.78a27.011,27.011,0,0,0-1.55-5.5c-.688-1.935-1.385-3.88-2.082-5.815a16.65,16.65,0,0,1-.78,10.566c-4.027-3.137-1.486-10.31-6.751-10.31-12.658,0-25.682-10.264-25.682-22.931s5.43-22.123,18.088-22.123,22.94,5.8,23.187,18.455C509.568,267.478,523.758,300.965,520.813,302.249Z" transform="translate(-245.911 -208.56)" fill="#2f2e41"/>
  <circle id="Ellipse_558" data-name="Ellipse 558" cx="14.676" cy="14.676" r="14.676" transform="translate(224.881 27.626)" fill="#2f2e41"/>
  <path id="Tracé_3677" data-name="Tracé 3677" d="M482.847,249.83c-2.513,2.926-6.448,4.063-10,5.586a42.059,42.059,0,0,0-24.435,30.727c-.981,5.476-.853,11.144-2.4,16.483s-5.357,10.576-10.832,11.5c-3.706.633-7.42-.8-10.906-2.211q-2.875-1.156-5.751-2.321,3-7.526,5.99-15.052a76.28,76.28,0,0,1-11.108,13q-10.305-4.155-20.628-8.31c16.932.064,14.043-16.372,17.831-32.864,2.082-9.062,19.812-15.2,23.288-23.82a26.376,26.376,0,0,1,47.842-2.4C485.213,241.529,485.314,246.941,482.847,249.83Z" transform="translate(-238.369 -206.958)" fill="#2f2e41"/>
  <path id="Tracé_3678" data-name="Tracé 3678" d="M912.3,694.256l-686.772.282a1.092,1.092,0,0,1,0-2.184l686.772-.282a1.092,1.092,0,0,1,0,2.184Z" transform="translate(-224.434 -245.538)" fill="#cacaca"/>
</svg>
