<svg id="undraw_information_tab_re_f0w3" xmlns="http://www.w3.org/2000/svg" width="438.711" height="360.795" viewBox="0 0 438.711 360.795">
  <path id="Tracé_1817" data-name="Tracé 1817" d="M766.712,240.18c-.95,3.518.142,9.057.553,12.341.44,3.511-5.646,6.653-9.128,6.852a4.958,4.958,0,0,0-.922-3.263,8.488,8.488,0,0,1-.681,3.27H727.475c-3.66-6.887-6.774-16.3-3.412-26.031a9.958,9.958,0,0,1,6.88-8.618l15.845-5.071c6.249,0,13.916.887,17.37,5.539A17.431,17.431,0,0,1,766.712,240.18Z" transform="translate(-416.297 -202.638)" fill="#2f2e41"/>
  <path id="Tracé_1818" data-name="Tracé 1818" d="M822.98,640.328a2.528,2.528,0,0,0,1.79-4.4l-.18-.687A6.791,6.791,0,0,1,837.179,635c3.063,6.983,7.009,14.206,5.154,21.947,12.479-27.114,7.828-60.649-11.214-83.553-5.23-2.816-9.5-7.868-10.649-13.77,2.583.848,5.774-1.277,3.812-3.971-.849-1.029-1.706-2.049-2.555-3.078,9.682-10.51,21.492,5.751,10.859,19.912a81.042,81.042,0,0,1,9.238,14.151,34.076,34.076,0,0,1,1.884-15.846c1.9-4.716,5.514-8.707,8.69-12.8,3.861-4.985,11.925-2.779,12.511,3.5-3.6,1.22-4.014,6.434.118,7.107a34.887,34.887,0,0,1-18.96,27.722,81.362,81.362,0,0,1,4.77,33.964c1.727-13.484,16.151-16.89,26.2-22.338a3.936,3.936,0,0,1,6.04,3.929,22.727,22.727,0,0,0-3.964,2.14,3.436,3.436,0,0,0,1.656,6.257c-4.973,12.653-18.059,21.242-31.583,21.324a83.647,83.647,0,0,1-5.462,16.456l-20.071.191c-.074-.222-.141-.452-.208-.674a22.8,22.8,0,0,0,5.551-.384c-4.971-5.773-8.8-8.706-6.017-16.857Z" transform="translate(-444.742 -298.448)" fill="#f2f2f2"/>
  <path id="Tracé_1819" data-name="Tracé 1819" d="M470.131,475.324H462.3l-3.726-30.2h11.555Z" transform="translate(-133.318 -129.408)" fill="#ffb6b6"/>
  <path id="Tracé_1820" data-name="Tracé 1820" d="M760.191,694.422h-5.614l-1-5.3-2.567,5.3H736.117a3.347,3.347,0,0,1-1.9-6.1l11.891-8.212V674.75l12.507.746Z" transform="translate(-419.246 -334.942)" fill="#2f2e41"/>
  <path id="Tracé_1821" data-name="Tracé 1821" d="M480.054,401.9l-5.5,5.575L450.438,388.93l8.112-8.228Z" transform="translate(-130.952 -110.678)" fill="#ffb6b6"/>
  <path id="Tracé_1822" data-name="Tracé 1822" d="M790.844,610.544l-3.942,4-4.478-3.008,1.973,5.549-10.454,10.6a3.347,3.347,0,0,1-5.68-2.929l2.5-14.233-3.816-3.762,9.313-8.382Z" transform="translate(-429.182 -312.74)" fill="#2f2e41"/>
  <path id="Tracé_1823" data-name="Tracé 1823" d="M680.443,355.982l23.68-37.676a7.183,7.183,0,0,0-2.193-9.836h0a7.183,7.183,0,0,0-10.13,2.457l-23.4,39.89-15.24,23.639a6.268,6.268,0,1,0,5.19,6.146Z" transform="translate(-393.967 -228.122)" fill="#ffb6b6"/>
  <path id="Tracé_1824" data-name="Tracé 1824" d="M716.42,324.343l2-.377a2.735,2.735,0,0,1,3.363-3.875c-2.406-2.509-1.237-6.64.31-9.752a31.25,31.25,0,0,0,2.923-6.924c.831-3.722-.241-8.228-5.2-9.119a8.589,8.589,0,0,0-5.852,1.185c-3.12,1.844-3.822,1.041-5.79,4.009l-1.122,2.085a31.871,31.871,0,0,1-5.118,6.151,15.925,15.925,0,0,0-3.327,4.844,1.6,1.6,0,0,1-.454.574,5.577,5.577,0,0,1-2.773.75c-1.213.159-2.6.673-2.569,2.178a2.612,2.612,0,0,0,.931,1.874,49.353,49.353,0,0,0,17.6,9.91c1.441.456,3.061.833,4.416.164S717.687,325.166,716.42,324.343Z" transform="translate(-407.626 -224.306)" fill="#98984b"/>
  <path id="Tracé_1825" data-name="Tracé 1825" d="M458.246,227.464l-46.1-.709-1.419-10.639L414.98,192h36.173Z" transform="translate(-119.406 -55.819)" fill="#ffb6b6"/>
  <path id="Tracé_1826" data-name="Tracé 1826" d="M549.223,422.133H369.776a16.332,16.332,0,0,1-16.313-16.313V302.974a16.332,16.332,0,0,1,16.313-16.313H549.223a16.332,16.332,0,0,1,16.313,16.313V405.819a16.332,16.332,0,0,1-16.313,16.313Z" transform="translate(-308.973 -222.116)" fill="#fff"/>
  <path id="Tracé_1827" data-name="Tracé 1827" d="M549.223,422.133H369.776a16.332,16.332,0,0,1-16.313-16.313V302.974a16.332,16.332,0,0,1,16.313-16.313H549.223a16.332,16.332,0,0,1,16.313,16.313V405.819a16.332,16.332,0,0,1-16.313,16.313ZM369.776,288.079a14.912,14.912,0,0,0-14.895,14.895V405.819a14.912,14.912,0,0,0,14.895,14.895H549.223a14.912,14.912,0,0,0,14.895-14.895V302.974a14.911,14.911,0,0,0-14.895-14.895Z" transform="translate(-308.973 -222.116)" fill="#e6e6e6"/>
  <path id="Tracé_1828" data-name="Tracé 1828" d="M564.118,391.419H354.171a.709.709,0,1,1,0-1.419H564.118a.709.709,0,1,1,0,1.419Z" transform="translate(-308.973 -252.159)" fill="#e6e6e6"/>
  <circle id="Ellipse_339" data-name="Ellipse 339" cx="6.384" cy="6.384" r="6.384" transform="translate(233.157 20.569)" fill="#f2f2f2"/>
  <circle id="Ellipse_340" data-name="Ellipse 340" cx="6.384" cy="6.384" r="6.384" transform="translate(0 122.209)" fill="#f2f2f2"/>
  <circle id="Ellipse_341" data-name="Ellipse 341" cx="6.384" cy="6.384" r="6.384" transform="translate(131.217 231.438)" fill="#f2f2f2"/>
  <path id="Tracé_1829" data-name="Tracé 1829" d="M421.009,435.379H398.849a.709.709,0,0,1,0-1.419h22.161a.709.709,0,1,1,0,1.419Z" transform="translate(-321.962 -264.94)" fill="#ccc"/>
  <path id="Tracé_1830" data-name="Tracé 1830" d="M421.009,451.379H398.849a.709.709,0,0,1,0-1.419h22.161a.709.709,0,1,1,0,1.419Z" transform="translate(-321.962 -269.591)" fill="#ccc"/>
  <path id="Tracé_1831" data-name="Tracé 1831" d="M592.009,435.379H569.849a.709.709,0,1,1,0-1.419h22.161a.709.709,0,0,1,0,1.419Z" transform="translate(-371.675 -264.94)" fill="#ccc"/>
  <path id="Tracé_1832" data-name="Tracé 1832" d="M592.009,451.379H569.849a.709.709,0,1,1,0-1.419h22.161a.709.709,0,0,1,0,1.419Z" transform="translate(-371.675 -269.591)" fill="#ccc"/>
  <path id="Tracé_1833" data-name="Tracé 1833" d="M535.009,435.379H512.849a.709.709,0,1,1,0-1.419h22.161a.709.709,0,0,1,0,1.419Z" transform="translate(-355.104 -264.94)" fill="#ccc"/>
  <path id="Tracé_1834" data-name="Tracé 1834" d="M535.009,451.379H512.849a.709.709,0,1,1,0-1.419h22.161a.709.709,0,0,1,0,1.419Z" transform="translate(-355.104 -269.591)" fill="#ccc"/>
  <path id="Tracé_1835" data-name="Tracé 1835" d="M478.009,435.379H455.849a.709.709,0,0,1,0-1.419h22.161a.709.709,0,0,1,0,1.419Z" transform="translate(-338.533 -264.94)" fill="#ccc"/>
  <path id="Tracé_1836" data-name="Tracé 1836" d="M478.009,451.379H455.849a.709.709,0,0,1,0-1.419h22.161a.709.709,0,0,1,0,1.419Z" transform="translate(-338.533 -269.591)" fill="#ccc"/>
  <path id="Tracé_1837" data-name="Tracé 1837" d="M689.23,420.079l-1.419,19.151-26.763,47.941a11.6,11.6,0,0,0,1.339,13.77l41.969,38.029s8.251.27,7.556,4.17,3.715,3.715,3.715,3.715l4.963,3.585,2.686-20.423c-9.023-20.148-22.4-26.294-34.045-35.588,0,0,4.909-1.459,3.873-3.15s2.217-1.8,2.217-1.8,2.158-.291,2.29-1.863,2.224-1.809,2.224-1.809l11.742-11.82,30.85-1.419s13.055-32.7-8.511-53.905Z" transform="translate(-397.912 -260.492)" fill="#2f2e41"/>
  <path id="Tracé_1838" data-name="Tracé 1838" d="M442.327,288.478l10.211,121.657,15.04-.911,5.529-113.283Z" transform="translate(-128.594 -83.867)" fill="#2f2e41"/>
  <path id="Tracé_1839" data-name="Tracé 1839" d="M724.507,279.193l17.217-.887,8,12.636s15.046,2.515,14,20.245-18.306,33.288-18.306,33.288l.738,9.233-1.282,3.662.164,2.056,1.748,2.178.18,2.252-1.549,3.563.626,4.763s-15.577,3.092-23.747-3.064-20.228-2.61-20.228-2.61l-.454-5.868,2.363-3.168-1.32-4.132,1.984-3.975,1.034-12.625s-11.318-17,1.675-29.81l5.215-8.865,5.835-7.119Z" transform="translate(-410.041 -219.687)" fill="#98984b"/>
  <path id="Tracé_1840" data-name="Tracé 1840" d="M787.008,366.881,785.741,322.4a7.183,7.183,0,0,0-7.292-6.956h0a7.183,7.183,0,0,0-7.053,7.675l2.733,46.166.478,28.122a6.268,6.268,0,1,0,7.731,2.223Z" transform="translate(-430.324 -230.484)" fill="#ffb6b6"/>
  <path id="Tracé_1841" data-name="Tracé 1841" d="M787.884,326.6h0a2.118,2.118,0,0,0,.324-2.547,2.748,2.748,0,0,1-.326-1.644,2.535,2.535,0,0,1,.063-.326,4.144,4.144,0,0,0-.759-3.756,13.107,13.107,0,0,1-2.377-6.519,31.25,31.25,0,0,0-1.421-7.381c-1.31-3.379-4.442-6.39-8.716-4.949A8.341,8.341,0,0,0,770.336,303c-2.131,3.4-2.154,7.508-2.139,11.439l-.766-1.553a31.9,31.9,0,0,1-2.282,12.548c.953-.185,1.627,1.1,1.319,2.015a5.577,5.577,0,0,1-1.888,2.165c-.919.807-1.787,2.005-.925,3.238a2.611,2.611,0,0,0,1.816,1.04,49.351,49.351,0,0,0,20.14-1.55c1.451-.423,3.007-1.01,3.762-2.319S789.4,326.577,787.884,326.6Z" transform="translate(-428.121 -225.735)" fill="#98984b"/>
  <circle id="Ellipse_342" data-name="Ellipse 342" cx="16.313" cy="16.313" r="16.313" transform="translate(307.631 23.406)" fill="#ffb6b6"/>
  <circle id="Ellipse_343" data-name="Ellipse 343" cx="19.022" cy="19.022" r="19.022" transform="translate(135.824 0)" fill="#98984b"/>
  <path id="Tracé_1842" data-name="Tracé 1842" d="M505.782,226.93a1.644,1.644,0,0,1-1.315-.658l-4.033-5.378a1.644,1.644,0,0,1,2.631-1.973l2.639,3.518,6.777-10.166a1.645,1.645,0,1,1,2.737,1.824l-8.066,12.1a1.645,1.645,0,0,1-1.323.732Z" transform="translate(-351.605 -200.277)" fill="#fff"/>
  <path id="Tracé_1843" data-name="Tracé 1843" d="M523.939,292.949H442.447a7.485,7.485,0,0,1,0-14.97h81.491a7.485,7.485,0,1,1,0,14.97Z" transform="translate(-332.667 -219.592)" fill="#98984b"/>
  <path id="Tracé_1844" data-name="Tracé 1844" d="M833.494,703.34l-181.12.218a.845.845,0,1,1,0-1.689l181.12-.218a.845.845,0,0,1,0,1.689Z" transform="translate(-395.628 -342.763)" fill="#cacaca"/>
  <path id="Tracé_1845" data-name="Tracé 1845" d="M760.182,237.52v3.546H746.067a5.075,5.075,0,0,0-.83-3.979,8.648,8.648,0,0,1-1.007,3.979c-8.162,2.413-15.012,2.367-20.625,0a3.143,3.143,0,0,1-3.143-3.143h0A20.123,20.123,0,0,1,739.9,217.665a19.858,19.858,0,0,1,20.278,19.855Z" transform="translate(-415.668 -202.056)" fill="#2f2e41"/>
  <path id="Tracé_1846" data-name="Tracé 1846" d="M499.67,329.335H471.3a2.837,2.837,0,1,1,0-5.674H499.67a2.837,2.837,0,1,1,0,5.674Z" transform="translate(-342.406 -232.873)" fill="#ccc"/>
  <path id="Tracé_1847" data-name="Tracé 1847" d="M509.67,414.635H481.3a2.837,2.837,0,0,1,0-5.674H509.67a2.837,2.837,0,0,1,0,5.674Z" transform="translate(-345.313 -257.672)" fill="#ccc"/>
  <path id="Tracé_1848" data-name="Tracé 1848" d="M560.378,351.335H470.3a2.837,2.837,0,1,1,0-5.674h90.078a2.837,2.837,0,1,1,0,5.674Z" transform="translate(-342.115 -239.269)" fill="#ccc"/>
  <circle id="Ellipse_344" data-name="Ellipse 344" cx="19.022" cy="19.022" r="19.022" transform="translate(76.178 82.405)" fill="#e6e6e6"/>
</svg>
