<svg xmlns="http://www.w3.org/2000/svg" width="501.851" height="380.232" viewBox="0 0 501.851 380.232">
  <g id="Groupe_1965" data-name="Groupe 1965" transform="translate(-42.909 -294.377)">
    <path id="Tracé_2008" data-name="Tracé 2008" d="M650.79,629.461c-77.418,0-136.84-4.276-178.084-21.421-100.458-41.758-134.515-59.1-134.848-59.27l.678-1.456c.332.17,34.355,17.492,134.738,59.219,58.947,24.5,155.553,22.586,289.1,19.578,1.3-.029,1.508,1.587.116,1.619C721.92,628.644,684.634,629.461,650.79,629.461Z" transform="translate(-221.1 -103.526)" fill="#cacaca"/>
    <path id="Tracé_2009" data-name="Tracé 2009" d="M306.094,746.23l-1.146-1.146c39.36-39.36,54.528-54.408,57.741-57.592L246.711,603.716l.949-1.313,117.529,84.9-.681.673C364.378,688.1,350.943,701.38,306.094,746.23Z" transform="translate(-203.802 -113.981)" fill="#cacaca"/>
    <path id="Tracé_2010" data-name="Tracé 2010" d="M391.823,812.505l-1.105-1.185c3.631-3.388,89.033-82.914,105.674-82.914h.053l300.082,3.056.369,1.624-300.468-3.06h-.047C480.39,730.026,392.708,811.679,391.823,812.505Z" transform="translate(-252.136 -137.895)" fill="#cacaca"/>
    <path id="Tracé_2011" data-name="Tracé 2011" d="M591.032,506.129H534.317V491.8h21.065a4.861,4.861,0,0,0,4.861-4.861V471.418a4.861,4.861,0,0,0-4.861-4.861H534.317V461.7a6.482,6.482,0,1,0-12.963,0v4.861H443.5a4.861,4.861,0,0,0-2.809.894l-10.96,7.761a4.861,4.861,0,0,0,0,7.935l10.96,7.761a4.862,4.862,0,0,0,2.809.894h77.854v14.328H464.639a4.861,4.861,0,0,0-4.861,4.861v15.522a4.861,4.861,0,0,0,4.861,4.861h56.715v53.474a6.482,6.482,0,1,0,12.963,0V531.374h56.715a4.861,4.861,0,0,0,4.861-4.861V510.991a4.861,4.861,0,0,0-4.861-4.861Z" transform="translate(-246.831 -86.046)" fill="#3f3d56"/>
    <path id="Tracé_2012" data-name="Tracé 2012" d="M501.143,484.385h-40.51a2.836,2.836,0,1,1,0-5.671h40.51a2.836,2.836,0,1,1,0,5.671Z" transform="translate(-251.399 -90.506)" fill="#98984b"/>
    <path id="Tracé_2013" data-name="Tracé 2013" d="M563.143,535.385h-40.51a2.836,2.836,0,1,1,0-5.671h40.51a2.836,2.836,0,0,1,0,5.671Z" transform="translate(-265.38 -100.185)" fill="#fff"/>
    <path id="Tracé_2014" data-name="Tracé 2014" d="M308.721,606.129V591.8h21.065a4.861,4.861,0,0,0,4.861-4.861V571.418a4.861,4.861,0,0,0-4.861-4.861H308.721v-4.639a6.629,6.629,0,0,0-6.05-6.69,6.482,6.482,0,0,0-6.913,6.468v4.861L208.572,607.35a2.878,2.878,0,0,0-1.518,1.71c-.687,2.092-2.129,6.556-3.11,10.077a3.782,3.782,0,0,0,3.767,4.786c5.619-.173,9.316-.434,11.881-.506a3.757,3.757,0,0,0,1.434-.328L295.758,591.8v92.824a6.629,6.629,0,0,0,6.05,6.69,6.482,6.482,0,0,0,6.913-6.468V606.129Z" transform="translate(-160.897 -111.325)" fill="#3f3d56"/>
    <path id="Tracé_2015" data-name="Tracé 2015" d="M281.946,599.41,244.98,615.982a2.836,2.836,0,1,1-2.32-5.175l36.966-16.571a2.836,2.836,0,1,1,2.32,5.175Z" transform="translate(-175.292 -116.687)" fill="#fff"/>
    <path id="Tracé_2016" data-name="Tracé 2016" d="M898.716,437.75l-16.893,1.714a50.05,50.05,0,0,0,4.389,25.325L881.144,512h.075a5.481,5.481,0,1,0,9.039-.658l11.266-42.126Z" transform="translate(-427.729 -82.172)" fill="#a0616a"/>
    <path id="Tracé_2017" data-name="Tracé 2017" d="M633.208,618.524l-7.178-1.237-.7-21.667,12.651-4.784Z" transform="translate(-209.202 -55.705)" fill="#a0616a"/>
    <path id="Tracé_2018" data-name="Tracé 2018" d="M832.405,699.657l-22.074-3.8.048-.279a8.719,8.719,0,0,1,10.072-7.112h0l4.559-2.365,7,4.355,1.927.332Z" transform="translate(-409.147 -129.306)" fill="#2f2e41"/>
    <path id="Tracé_2019" data-name="Tracé 2019" d="M718.361,600.878l-6.216,3.8-17.6-22.171,9.176-5.6Z" transform="translate(-227.318 -53.06)" fill="#a0616a"/>
    <path id="Tracé_2020" data-name="Tracé 2020" d="M928.089,681.061l-19.117,11.675-.148-.242a8.719,8.719,0,0,1,2.9-11.985h0l1.874-4.782,8.133-1.33,1.669-1.019Z" transform="translate(-432.866 -126.892)" fill="#2f2e41"/>
    <path id="Tracé_2021" data-name="Tracé 2021" d="M839.117,527.822l-4.307,16.367s-1.176,6.783-.567,7.392a8.177,8.177,0,0,1,1.492,5.042c-.273,1.66-3.06.983-1.667,3.454s-2.913,40.064-2.913,40.064L827.3,646.368l13.774,1.62c1.978-1.158,2.268-2.475,1.1-3.929,0,0,2.825-3.258,1.268-4.526s1.256-1.8,1.41-5.033l8.891-31.745,2.942-7.1-.769-3.7,2.235-4.25,1.075-11.148,2.915,29.3,27.221,31.259,13.4-6.7.786-1.713a3.182,3.182,0,0,0-1.214-4.031h0l-4.547-4.229c.39-1.742-5.8-6.11-5.8-6.11l-10.357-19.495,6.43-54.606s9.723-12.963-3.158-24.693C879.628,510.731,839.117,527.822,839.117,527.822Z" transform="translate(-417.635 -96.773)" fill="#2f2e41"/>
    <path id="Tracé_2022" data-name="Tracé 2022" d="M882.678,485.706c2.283-3.394,7.766,1.48,5.939-4.612s-6.452-7.225-2.312-13.055l5.967-29.062h0a26.739,26.739,0,0,0-6.568-18.971l-8.59-9.831-1.291-3.487-14.621-.609-1.218,4.264c-4.368,5.439-11.517,12.423-11.3,22.695.412,19.767-2.671,46.07-10.264,80.287,0,0,16.981-13.259,22.32-7.515s21.424,4.183,25.443.18a23.8,23.8,0,0,0,5.483-9.748S880.395,489.1,882.678,485.706Z" transform="translate(-419.746 -76.161)" fill="#98984b"/>
    <path id="Tracé_2023" data-name="Tracé 2023" d="M891.508,509.546l-33.335-9.4L836.3,510.68c9.795-18.225,15.754-48.57,13.872-74.348a29.723,29.723,0,0,1,3.108-15.876c3.007-5.788,7.711-9.878,14.619-9.432l8.912-.81,5.672,3.241c8.206,8.6,11.435,21.424,10.157,33.241-1.409,13.043-3.164,28.887-3.518,30.3-.208.831.449,2.291,1.143,3.836,1.173,2.608,2.632,5.853.6,7.88a5.9,5.9,0,0,0-1.988,4.324,5.288,5.288,0,0,0,1.972,3.759c2.59,2.238.788,12.054.71,12.471Z" transform="translate(-419.343 -76.946)" fill="#2f2e41"/>
    <path id="Tracé_2024" data-name="Tracé 2024" d="M874.534,452.487l-16.748-2.8a50.051,50.051,0,0,0-2.437,25.587l-17.327,44.209.073.019a5.482,5.482,0,1,0,8.894,1.746l21.965-37.67Z" transform="translate(-415.493 -84.438)" fill="#a0616a"/>
    <path id="Tracé_2025" data-name="Tracé 2025" d="M859.123,457.39l19.445-4.051,3.176-14.112a10.966,10.966,0,1,0-21.932,0C857.853,447.081,858.195,449.356,859.123,457.39Z" transform="translate(-419.895 -80.371)" fill="#98984b"/>
    <circle id="Ellipse_464" data-name="Ellipse 464" cx="15.23" cy="15.23" r="15.23" transform="translate(436.398 297.63)" fill="#a0616a"/>
    <path id="Tracé_2026" data-name="Tracé 2026" d="M888.257,369.12c-1.185-2.121-5.9.592-7.361-1.349a15.9,15.9,0,0,0-4.341-4.273,9.484,9.484,0,0,0-9.35-.1,18.8,18.8,0,0,1-3.359,1.909c-1.23.393-2.836.1-3.369-1.081l1.127,3.084a4.387,4.387,0,0,1-5.651-1.8l-.2,3.193a1.273,1.273,0,0,0-1.4-.892,2.293,2.293,0,0,0-1.559,1.631c-.962,2.829,1.339,6.132,4.29,6.606,1.825.293,3.66-.292,5.492-.541s3.952-.041,5.109,1.4c1.136,1.416.916,3.433.982,5.247s.859,3.99,2.658,4.232c1.234.166,2.414-.695,3.657-.621,1.775.105,2.913,2.145,2.722,3.913a9.963,9.963,0,0,1-2.375,4.7l5.318.421-.687.191c4.337-.212,7.684-4.421,8.2-8.732S890.375,372.91,888.257,369.12Z" transform="translate(-422.433 -67.836)" fill="#2f2e41"/>
  </g>
</svg>
