<svg xmlns="http://www.w3.org/2000/svg" width="79.949" height="116.054" viewBox="0 0 79.949 116.054">
  <g id="Groupe_2185" data-name="Groupe 2185" transform="translate(-930.526 -158.973)">
    <g id="noun-brochure-4884439" transform="translate(930.527 158.973)">
      <path id="Tracé_1725" data-name="Tracé 1725" d="M291.934,83.122H235.2a2.56,2.56,0,0,0-.928.181l-.362.154a3.532,3.532,0,0,0-.516.335l-.233.283h0a1.843,1.843,0,0,0-.309.464l-.154.362v.233h0a1.482,1.482,0,0,0,0,.335.787.787,0,0,0,0,.233v18.053H217.221a2.579,2.579,0,0,0-2.579,2.579V196.6a2.579,2.579,0,0,0,2.579,2.579h61.9A2.579,2.579,0,0,0,281.7,196.6V181.123h10.316a2.579,2.579,0,0,0,2.579-2.579V85.7a2.578,2.578,0,0,0-2.656-2.579Zm-54.159,6.653,29.657,13.978H237.775ZM276.46,194.019H219.723V108.913H276.46Zm12.895-18.053h-7.737V106.334a1.9,1.9,0,0,0,0-.362,3.575,3.575,0,0,0,0-.566l-.258-.439a2.126,2.126,0,0,0-.283-.387,2.989,2.989,0,0,0-.439-.362,1.386,1.386,0,0,1-.31-.231L246.8,88.281h42.555Z" transform="translate(-214.643 -83.121)" fill="#98984b"/>
      <path id="Tracé_1726" data-name="Tracé 1726" d="M260.709,226.665h36.106a2.579,2.579,0,0,0,2.579-2.579V199.457a2.579,2.579,0,0,0-2.579-2.579H260.709a2.579,2.579,0,0,0-2.579,2.579v24.629a2.579,2.579,0,0,0,2.579,2.579Zm2.579-24.629h30.948v19.471H263.288Z" transform="translate(-245.313 -163.349)" fill="#98984b"/>
      <path id="Tracé_1727" data-name="Tracé 1727" d="M260.709,331.538h36.106a2.579,2.579,0,1,0,0-5.158H260.709a2.579,2.579,0,0,0,0,5.158Z" transform="translate(-245.313 -254.682)" fill="#98984b"/>
      <path id="Tracé_1728" data-name="Tracé 1728" d="M260.709,376.678h36.106a2.579,2.579,0,1,0,0-5.158H260.709a2.579,2.579,0,1,0,0,5.158Z" transform="translate(-245.313 -286.518)" fill="#98984b"/>
      <path id="Tracé_1729" data-name="Tracé 1729" d="M260.709,421.838h36.106a2.579,2.579,0,1,0,0-5.158H260.709a2.579,2.579,0,1,0,0,5.158Z" transform="translate(-245.313 -318.367)" fill="#98984b"/>
    </g>
  </g>
</svg>
