<svg xmlns="http://www.w3.org/2000/svg" width="109.646" height="110.5" viewBox="0 0 109.646 110.5">
  <g id="noun-website-3835345" transform="translate(-0.001 0)">
    <path id="Tracé_1723" data-name="Tracé 1723" d="M126.993,0a54.836,54.836,0,0,1,48.63,80.153l-3.909-1.787a50.238,50.238,0,0,0,5.767-21.4H153.094a113.771,113.771,0,0,1-.9,12.481l-4.09-1.868c.4-3.484.637-7.043.7-10.614H129.138V72.358a68.513,68.513,0,0,1,9.12.869l1.635,4.646a64.7,64.7,0,0,0-10.754-1.234v28.455c4.88-1.168,9.374-6.266,12.852-13.913.493-1.081.959-2.2,1.4-3.353l2.1,6a38.3,38.3,0,0,1-6.75,10.15,50.307,50.307,0,0,0,9.2-3.164l1.428,4.067A54.827,54.827,0,1,1,126.995,0ZM76.506,52.674h24.387a110.2,110.2,0,0,1,2.08-19.643,63.664,63.664,0,0,1-16.16-8.851A50.3,50.3,0,0,0,76.507,52.675Zm28.677,0h19.664V37.3a69.107,69.107,0,0,1-17.779-2.883,105.954,105.954,0,0,0-1.885,18.26Zm23.955,0H148.8a105.936,105.936,0,0,0-1.885-18.26A69.084,69.084,0,0,1,129.137,37.3Zm23.955,0h24.387a50.277,50.277,0,0,0-10.306-28.495,63.567,63.567,0,0,1-16.16,8.851,110.207,110.207,0,0,1,2.08,19.643Zm-28.247,4.294H105.181a106.12,106.12,0,0,0,1.909,18.382,67.851,67.851,0,0,1,17.755-2.982Zm-23.955,0H76.5A50.286,50.286,0,0,0,86.828,85.487,71.484,71.484,0,0,1,103,76.765a109.881,109.881,0,0,1-2.11-19.8Zm23.955,19.686a63.5,63.5,0,0,0-16.823,2.89,67.607,67.607,0,0,0,3.971,11.639c3.478,7.646,7.972,12.744,12.852,13.913Zm-20.885,4.324a67.147,67.147,0,0,0-14.384,7.8,50.494,50.494,0,0,0,25.666,15.194,39.261,39.261,0,0,1-7.154-11.02,71.315,71.315,0,0,1-4.127-11.979ZM89.547,20.89a59.246,59.246,0,0,0,14.376,7.934,71.4,71.4,0,0,1,4.165-12.138,39.252,39.252,0,0,1,7.154-11.02,50.526,50.526,0,0,0-25.7,15.224Zm18.446,9.338a64.764,64.764,0,0,0,16.853,2.779V4.548c-4.88,1.169-9.374,6.266-12.852,13.913a67.983,67.983,0,0,0-4,11.767Zm21.143,2.779a64.746,64.746,0,0,0,16.853-2.779,67.443,67.443,0,0,0-4-11.767c-3.478-7.646-7.972-12.744-12.852-13.913V33.008Zm20.926-4.183a59.168,59.168,0,0,0,14.373-7.934,50.509,50.509,0,0,0-25.7-15.224,39.192,39.192,0,0,1,7.154,11.02,71.7,71.7,0,0,1,4.168,12.138Z" transform="translate(-72.17 0)" fill="#98984b"/>
    <path id="Tracé_1724" data-name="Tracé 1724" d="M423.54,351.43l39.676,18.123-11.639,5.857,7.775,8.513-6.7,6.12-7.775-8.516-6.888,11.059Z" transform="translate(-354.206 -282.086)" fill="#98984b" fill-rule="evenodd"/>
  </g>
</svg>
