<?xml version="1.0" standalone="no"?>
<!DOCTYPE svg PUBLIC "-//W3C//DTD SVG 20010904//EN"
 "http://www.w3.org/TR/2001/REC-SVG-20010904/DTD/svg10.dtd">
<svg version="1.0" xmlns="http://www.w3.org/2000/svg"
 width="30.000000pt" height="30.000000pt" viewBox="0 0 63.000000 63.000000"
 preserveAspectRatio="xMidYMid meet">

<g transform="translate(0.000000,63.000000) scale(0.100000,-0.100000)"
fill="#000000" stroke="none">
<path d="M290 545 c-8 -9 -22 -12 -41 -8 -24 5 -30 1 -39 -21 -5 -14 -21 -31
-36 -36 -22 -9 -25 -14 -19 -38 4 -20 1 -33 -10 -42 -19 -16 -19 -34 0 -50 9
-7 12 -22 9 -40 -5 -23 -2 -30 22 -42 41 -19 43 -63 8 -180 -5 -16 2 -18 54
-18 l60 0 8 43 7 42 11 -40 12 -40 58 -3 c57 -3 58 -2 52 20 -16 56 -29 137
-23 152 4 9 18 21 33 26 22 9 25 14 19 38 -4 20 -1 33 10 42 19 16 19 34 0 50
-9 8 -12 22 -8 41 5 24 1 30 -21 39 -14 5 -31 21 -36 36 -9 22 -14 25 -38 19
-20 -4 -33 -1 -42 10 -16 19 -34 19 -50 0z m49 -29 c6 -7 22 -11 35 -9 17 4
25 0 29 -17 3 -12 15 -24 27 -27 15 -4 20 -12 18 -28 -1 -12 3 -29 10 -38 11
-13 11 -20 1 -39 -7 -13 -12 -33 -10 -44 1 -15 -5 -23 -19 -27 -12 -3 -24 -15
-27 -27 -4 -16 -11 -20 -28 -16 -12 3 -30 -1 -41 -8 -17 -12 -22 -12 -38 0
-11 7 -29 11 -41 8 -17 -4 -24 0 -28 16 -3 12 -15 24 -26 27 -16 4 -21 12 -19
33 1 15 -4 35 -11 44 -11 13 -11 19 0 32 8 9 12 27 11 39 -2 16 3 24 18 28 12
3 24 15 27 27 4 17 12 21 29 17 13 -2 29 2 35 9 6 8 17 14 24 14 7 0 18 -6 24
-14z m-52 -308 c7 -9 6 -31 -1 -63 -10 -47 -13 -50 -44 -53 -29 -3 -33 -1 -28
15 3 10 8 32 12 48 14 61 38 82 61 53z m87 6 c9 -3 21 -25 26 -48 6 -22 14
-49 16 -59 5 -16 1 -18 -28 -15 -31 3 -34 6 -44 53 -7 32 -8 54 -1 63 11 14
10 14 31 6z"/>
<path d="M254 471 c-20 -12 -37 -34 -44 -55 -37 -113 95 -202 179 -122 100 96
-17 249 -135 177z m121 -36 c54 -53 16 -145 -60 -145 -49 0 -85 36 -85 85 0
49 36 85 85 85 25 0 44 -8 60 -25z"/>
</g>
</svg>
