<svg id="Groupe_837" data-name="Groupe 837" xmlns="http://www.w3.org/2000/svg" xmlns:xlink="http://www.w3.org/1999/xlink" width="62.603" height="81.426" viewBox="0 0 62.603 81.426">
  <defs>
    <clipPath id="clip-path">
      <rect id="Rectangle_2912" data-name="Rectangle 2912" width="62.602" height="81.426" fill="#fff"/>
    </clipPath>
  </defs>
  <g id="Groupe_836" data-name="Groupe 836" clip-path="url(#clip-path)">
    <path id="Tracé_1414" data-name="Tracé 1414" d="M62.259,74.154c-2.162-1.544-4.315-3.108-6.509-4.607a.974.974,0,0,1-.484-1.133,23.751,23.751,0,0,0-.336-9.9l7.206-5.772-6.3-10.291L47.42,46.233a25.663,25.663,0,0,0-3.917-2.8L36.771,54.659a11.327,11.327,0,1,1-12.747,1.381L17.191,44.924c-.7.515-1.376,1.068-2.032,1.652a1.207,1.207,0,0,1-1.012.2c-2.451-.9-4.885-1.852-7.315-2.809-.419-.165-.745-.329-1.04.223C4.008,47.526,2.2,50.846.348,54.272c.288.22.552.436.827.632,1.589,1.142,3.121,2.385,4.793,3.389A2.942,2.942,0,0,1,7.53,61.9a19.667,19.667,0,0,0,.4,7.818.839.839,0,0,1-.36.986c-1.115.882-2.22,1.778-3.332,2.668S1.984,75.17.869,76.063c2.136,3.5,4.224,6.9,6.288,10.281,2.615-1.171,5.165-2.295,7.691-3.459a1.1,1.1,0,0,1,1.363.209,22.218,22.218,0,0,0,8.057,4.319.963.963,0,0,1,.773.947c.378,2.609.77,5.217,1.131,7.829.062.429.213.6.659.566.714-.041,1.427-.014,2.142-.035,2.842-.086,5.684-.225,8.522-.246.738-.007.872-.209.923-.875.206-2.5.476-5,.739-7.493.048-.433.12-.855.665-1.05a22.659,22.659,0,0,0,8.123-4.979.961.961,0,0,1,.824-.134q3.779,1.445,7.535,2.963c.422.168.638.171.871-.3.586-1.191,1.245-2.348,1.88-3.515,1.125-2.067,2.243-4.133,3.4-6.186.216-.381.079-.563-.192-.755" transform="translate(-0.127 -15.505)" fill="#fff"/>
    <path id="Tracé_1415" data-name="Tracé 1415" d="M62.259,74.154c-2.162-1.544-4.315-3.108-6.509-4.607a.974.974,0,0,1-.484-1.133,23.751,23.751,0,0,0-.336-9.9l7.206-5.772-6.3-10.291L47.42,46.233a25.663,25.663,0,0,0-3.917-2.8L36.771,54.659a11.327,11.327,0,1,1-12.747,1.381L17.191,44.924c-.7.515-1.376,1.068-2.032,1.652a1.207,1.207,0,0,1-1.012.2c-2.451-.9-4.885-1.852-7.315-2.809-.419-.165-.745-.329-1.04.223C4.008,47.526,2.2,50.846.348,54.272c.288.22.552.436.827.632,1.589,1.142,3.121,2.385,4.793,3.389A2.942,2.942,0,0,1,7.53,61.9a19.667,19.667,0,0,0,.4,7.818.839.839,0,0,1-.36.986c-1.115.882-2.22,1.778-3.332,2.668S1.984,75.17.869,76.063c2.136,3.5,4.224,6.9,6.288,10.281,2.615-1.171,5.165-2.295,7.691-3.459a1.1,1.1,0,0,1,1.363.209,22.218,22.218,0,0,0,8.057,4.319.963.963,0,0,1,.773.947c.378,2.609.77,5.217,1.131,7.829.062.429.213.6.659.566.714-.041,1.427-.014,2.142-.035,2.842-.086,5.684-.225,8.522-.246.738-.007.872-.209.923-.875.206-2.5.476-5,.739-7.493.048-.433.12-.855.665-1.05a22.659,22.659,0,0,0,8.123-4.979.961.961,0,0,1,.824-.134q3.779,1.445,7.535,2.963c.422.168.638.171.871-.3.586-1.191,1.245-2.348,1.88-3.515,1.125-2.067,2.243-4.133,3.4-6.186C62.667,74.527,62.53,74.346,62.259,74.154Z" transform="translate(-0.127 -15.505)" fill="#fff"/>
    <path id="Tracé_1416" data-name="Tracé 1416" d="M51.416,26.978a5.637,5.637,0,0,1,.082-1.744,21.081,21.081,0,0,1,.909-4.346A20.54,20.54,0,0,1,57.821,12.4a22.243,22.243,0,0,1,8.927-4.853,41.036,41.036,0,0,1,8.872-1.394c1.75-.129,1.057,20.817-20.854,23.481,0,0-1.711.251-.636-1.5s9.882-12.446,9.882-12.446S56.36,21.058,52.478,27.311c0,0-.757.842-1.061-.333" transform="translate(-18.763 -2.247)" fill="#fff"/>
    <path id="Tracé_1417" data-name="Tracé 1417" d="M51.416,26.978a5.637,5.637,0,0,1,.082-1.744,21.081,21.081,0,0,1,.909-4.346A20.54,20.54,0,0,1,57.821,12.4a22.243,22.243,0,0,1,8.927-4.853,41.036,41.036,0,0,1,8.872-1.394c1.75-.129,1.057,20.817-20.854,23.481,0,0-1.711.251-.636-1.5s9.882-12.446,9.882-12.446S56.36,21.058,52.478,27.311C52.478,27.311,51.72,28.153,51.416,26.978Z" transform="translate(-18.763 -2.247)" fill="#fff"/>
    <path id="Tracé_1418" data-name="Tracé 1418" d="M43.255,17.261a3.205,3.205,0,0,0,.427-.9,12.04,12.04,0,0,0,.707-2.431,11.721,11.721,0,0,0-.451-5.725,12.691,12.691,0,0,0-3.194-4.837A23.41,23.41,0,0,0,36.651.289c-.846-.533-6.112,10.2,4.206,17.412,0,0,.795.586.722-.584S39.939,8.2,39.939,8.2a27.787,27.787,0,0,1,2.692,8.942s.156.626.624.117" transform="translate(-12.623 -0.099)" fill="#fff"/>
    <path id="Tracé_1419" data-name="Tracé 1419" d="M43.255,17.261a3.205,3.205,0,0,0,.427-.9,12.04,12.04,0,0,0,.707-2.431,11.721,11.721,0,0,0-.451-5.725,12.691,12.691,0,0,0-3.194-4.837A23.41,23.41,0,0,0,36.651.289c-.846-.533-6.112,10.2,4.206,17.412,0,0,.795.586.722-.584S39.939,8.2,39.939,8.2a27.787,27.787,0,0,1,2.692,8.942S42.787,17.771,43.255,17.261Z" transform="translate(-12.623 -0.099)" fill="#fff"/>
    <path id="Tracé_1420" data-name="Tracé 1420" d="M32.128,32.843a4.51,4.51,0,0,0-.383-1.339,16.819,16.819,0,0,0-1.5-3.206,16.375,16.375,0,0,0-5.754-5.6,17.726,17.726,0,0,0-7.815-2.132,32.666,32.666,0,0,0-7.14.542c-1.381.22,2.989,16.347,20.479,14.4,0,0,1.374-.119.22-1.279s-9.946-7.85-9.946-7.85,6.919,2.765,11.077,6.907c0,0,.741.515.762-.453" transform="translate(-3.396 -7.5)" fill="#fff"/>
    <path id="Tracé_1421" data-name="Tracé 1421" d="M32.128,32.843a4.51,4.51,0,0,0-.383-1.339,16.819,16.819,0,0,0-1.5-3.206,16.375,16.375,0,0,0-5.754-5.6,17.726,17.726,0,0,0-7.815-2.132,32.666,32.666,0,0,0-7.14.542c-1.381.22,2.989,16.347,20.479,14.4,0,0,1.374-.119.22-1.279s-9.946-7.85-9.946-7.85,6.919,2.765,11.077,6.907C31.365,33.3,32.107,33.81,32.128,32.843Z" transform="translate(-3.396 -7.5)" fill="#fff"/>
  </g>
</svg>
