<svg xmlns="http://www.w3.org/2000/svg" width="86.267" height="114.845" viewBox="0 0 86.267 114.845">
  <g id="Groupe_2186" data-name="Groupe 2186" transform="translate(-1259.367 -159.156)">
    <g id="noun-poster-4353214" transform="translate(1259.367 159.156)">
      <path id="Tracé_1730" data-name="Tracé 1730" d="M235.249,37.1l-23.44-23.421a1.886,1.886,0,0,0-1.331-.551H153.038a3.51,3.51,0,0,0-3.5,3.5V124.472a3.51,3.51,0,0,0,3.5,3.5H232.3a3.51,3.51,0,0,0,3.5-3.5V38.434a1.883,1.883,0,0,0-.551-1.331Zm-17.241-4.078a.707.707,0,0,0-.706.706v2.821h-4.942V19.557l4.942,4.938v3.588a.706.706,0,0,0,1.412,0V25.906l10.655,10.646H218.714V33.731a.706.706,0,0,0-.706-.706ZM153.3,124.21V16.9h55.3v19.83a3.593,3.593,0,0,0,3.589,3.59h19.852v83.893Zm10.12-101.431a.706.706,0,0,1-.706.706h-3.765a.706.706,0,1,1,0-1.412h3.765A.706.706,0,0,1,163.418,22.779Zm23.064,0a.706.706,0,0,1,.706-.706h3.765a.706.706,0,1,1,0,1.412h-3.765A.706.706,0,0,1,186.482,22.779Zm-18.827,0a.706.706,0,0,1,.706-.706h3.765a.706.706,0,1,1,0,1.412h-3.765A.706.706,0,0,1,167.655,22.779Zm9.414,0a.706.706,0,0,1,.706-.706h3.765a.706.706,0,1,1,0,1.412h-3.765A.706.706,0,0,1,177.069,22.779Zm-13.65,7.531a.706.706,0,0,1-.706.706h-3.765a.706.706,0,1,1,0-1.412h3.765A.706.706,0,0,1,163.419,30.31Zm4.236,0a.706.706,0,0,1,.706-.706h3.765a.706.706,0,1,1,0,1.412h-3.765A.706.706,0,0,1,167.655,30.31Zm59.438,88.3a.706.706,0,0,1-.706.706h-3.765a.706.706,0,1,1,0-1.412h3.765A.706.706,0,0,1,227.093,118.611Zm-9.414,0a.706.706,0,0,1-.706.706h-3.765a.706.706,0,0,1,0-1.412h3.765A.706.706,0,0,1,217.679,118.611Zm-9.414,0a.706.706,0,0,1-.706.706h-3.765a.706.706,0,1,1,0-1.412h3.765A.706.706,0,0,1,208.266,118.611Zm-28.241-15.319a.706.706,0,0,1-.706.706h-3.765a.706.706,0,1,1,0-1.412h3.765A.706.706,0,0,1,180.025,103.293Zm9.414,0a.706.706,0,0,1-.706.706h-3.765a.706.706,0,0,1,0-1.412h3.765A.706.706,0,0,1,189.439,103.293Zm37.654,0a.706.706,0,0,1-.706.706h-3.765a.706.706,0,1,1,0-1.412h3.765A.706.706,0,0,1,227.093,103.293Zm-9.414,0a.706.706,0,0,1-.706.706h-3.765a.706.706,0,0,1,0-1.412h3.765A.706.706,0,0,1,217.679,103.293Zm-9.414,0a.706.706,0,0,1-.706.706h-3.765a.706.706,0,1,1,0-1.412h3.765A.706.706,0,0,1,208.266,103.293Zm-9.414,0a.706.706,0,0,1-.706.706h-3.765a.706.706,0,1,1,0-1.412h3.765A.706.706,0,0,1,198.852,103.293Zm28.241,7.685a.706.706,0,0,1-.706.706h-3.765a.706.706,0,1,1,0-1.412h3.765A.706.706,0,0,1,227.093,110.978Zm-9.414,0a.706.706,0,0,1-.706.706h-3.765a.706.706,0,0,1,0-1.412h3.765A.706.706,0,0,1,217.679,110.978Zm0-15.319h0a.706.706,0,0,1-.706.706h-3.765a.706.706,0,0,1,0-1.412h3.765a.707.707,0,0,1,.706.707Zm-28.241,0h0a.706.706,0,0,1-.706.706h-3.765a.706.706,0,0,1,0-1.412h3.765a.707.707,0,0,1,.706.707Zm37.654,0h0a.706.706,0,0,1-.706.706h-3.765a.706.706,0,1,1,0-1.412h3.765a.707.707,0,0,1,.706.707Zm-28.241,0h0a.706.706,0,0,1-.706.706h-3.765a.706.706,0,1,1,0-1.412h3.765a.707.707,0,0,1,.706.707Zm-28.241,0h0a.706.706,0,0,1-.706.706H166.14a.706.706,0,1,1,0-1.412h3.765a.707.707,0,0,1,.706.707Zm37.654,0h0a.706.706,0,0,1-.706.706h-3.765a.706.706,0,1,1,0-1.412h3.765a.707.707,0,0,1,.706.707Zm-28.241,0h0a.706.706,0,0,1-.706.706h-3.765a.706.706,0,1,1,0-1.412h3.765a.707.707,0,0,1,.706.707Z" transform="translate(-149.533 -13.132)" fill="#98984b"/>
      <g id="Rectangle_3580" data-name="Rectangle 3580" transform="translate(10.976 36.06)" fill="transparent" stroke="#98984b" stroke-linecap="round" stroke-linejoin="bevel" stroke-width="3">
        <rect width="63.964" height="35.979" stroke="#98984b"/>
      </g>
    </g>
  </g>
</svg>
