<svg xmlns="http://www.w3.org/2000/svg" width="319" height="319" viewBox="0 0 319 319">
  <g id="Groupe_2663" data-name="Groupe 2663" transform="translate(-527 -3763)">
    <rect id="Rectangle_4322" data-name="Rectangle 4322" width="319" height="319" transform="translate(527 3763)"/>
    <path id="Soustraction_1" data-name="Soustraction 1" d="M-7443,5156a76.517,76.517,0,0,1-29.972-6.051,77.052,77.052,0,0,1-13.08-7.1,77.54,77.54,0,0,1-11.4-9.4,77.529,77.529,0,0,1-9.4-11.4,77.011,77.011,0,0,1-7.1-13.079A76.526,76.526,0,0,1-7520,5079a76.526,76.526,0,0,1,6.051-29.972,77.052,77.052,0,0,1,7.1-13.08,77.525,77.525,0,0,1,9.4-11.4,77.525,77.525,0,0,1,11.4-9.4,77.052,77.052,0,0,1,13.08-7.1A76.526,76.526,0,0,1-7443,5002a76.52,76.52,0,0,1,29.972,6.051,77.011,77.011,0,0,1,13.079,7.1,77.556,77.556,0,0,1,11.4,9.4,77.528,77.528,0,0,1,9.4,11.4,77.052,77.052,0,0,1,7.1,13.08A76.52,76.52,0,0,1-7366,5079a76.52,76.52,0,0,1-6.051,29.972,77.011,77.011,0,0,1-7.1,13.079,77.5,77.5,0,0,1-9.4,11.4,77.54,77.54,0,0,1-11.4,9.4,77.011,77.011,0,0,1-13.079,7.1A76.513,76.513,0,0,1-7443,5156Zm-39-122h0v90l78-45-78-45Z" transform="translate(8130.001 -1156.999)" fill="#fff"/>
  </g>
</svg>
