<svg id="noun-donation-5141912" xmlns="http://www.w3.org/2000/svg" width="61.658" height="70.81" viewBox="0 0 61.658 70.81">
  <path id="Tracé_1732" data-name="Tracé 1732" d="M312.741,268.828v2.08a6.739,6.739,0,0,0-2.816,1.647,5.516,5.516,0,0,0-1.869,5.206c.5,2.511,2.877,4.831,6.359,6.205,2.609,1.033,4.214,2.427,4.522,3.928a3.045,3.045,0,0,1-.932,2.749,5.191,5.191,0,0,1-3.634.957,7.32,7.32,0,0,1-5.244-2.3,1.5,1.5,0,1,0-2.286,1.931,9.957,9.957,0,0,0,5.9,3.149v1.947a1.5,1.5,0,1,0,2.991,0v-1.8a7.093,7.093,0,0,0,4.377-1.759,6.026,6.026,0,0,0,1.757-5.475c-.365-1.785-1.764-4.294-6.353-6.11-2.457-.969-4.233-2.543-4.524-4A2.656,2.656,0,0,1,312,274.709c2.37-2.292,5.529-.373,5.663-.289a1.5,1.5,0,0,0,1.6-2.53,8.946,8.946,0,0,0-3.533-1.2v-1.859a1.5,1.5,0,1,0-2.99,0Z" transform="translate(-283.407 -234.184)" fill="#98984b"/>
  <path id="Tracé_1733" data-name="Tracé 1733" d="M324.245,121.716a5.582,5.582,0,1,0-5.581-5.584A5.587,5.587,0,0,0,324.245,121.716Zm0-8.172a2.59,2.59,0,1,1-2.589,2.591A2.593,2.593,0,0,1,324.245,113.544Z" transform="translate(-293.415 -105.326)" fill="#98984b"/>
  <path id="Tracé_1734" data-name="Tracé 1734" d="M238.478,108.331a6.581,6.581,0,0,0-.608-1.295l-5.932-11.124a7.027,7.027,0,0,0-5.721-3.432h-7.71c.006-.156.024-.309.024-.465a10.811,10.811,0,0,0-21.622,0c0,.158.016.309.024.465h-7.712a7.029,7.029,0,0,0-5.721,3.432l-5.93,11.124a6.581,6.581,0,0,0-.608,1.295,10.385,10.385,0,0,0-.072,1.306v37.891a4.492,4.492,0,0,0,4.488,4.488h52.682a4.492,4.492,0,0,0,4.488-4.488V109.637a10.4,10.4,0,0,0-.072-1.306ZM207.721,84.2a7.818,7.818,0,1,1-7.819,7.817A7.826,7.826,0,0,1,207.721,84.2ZM186.143,97.322a4.027,4.027,0,0,1,3.08-1.849h8.266a10.87,10.87,0,0,0,2.786,4.363h-5.028a1.5,1.5,0,0,0,0,2.991h24.948a1.5,1.5,0,1,0,0-2.991h-5.028a10.79,10.79,0,0,0,2.786-4.363h8.264a4.02,4.02,0,0,1,3.08,1.849l5.262,9.868H180.882Zm49.416,50.207a1.5,1.5,0,0,1-1.5,1.5H181.379a1.5,1.5,0,0,1-1.5-1.5V110.18h55.676Z" transform="translate(-176.891 -81.206)" fill="#98984b"/>
</svg>
