<svg id="noun-partner-3082015" xmlns="http://www.w3.org/2000/svg" width="84.691" height="56.189" viewBox="0 0 84.691 56.189">
  <path id="Tracé_1731" data-name="Tracé 1731" d="M84.141,58.7a1.466,1.466,0,0,1-.75,1.935L68.947,67.013l7.367,19.559,1.419,2.986,5.053-1.57a1.467,1.467,0,1,1,.872,2.8l-6.269,1.947a1.468,1.468,0,0,1-1.762-.772l-1.445-3.042-1.1.344-.793,3.583a5.164,5.164,0,0,1,1.062,1.84A6.7,6.7,0,0,1,73,98.984c-.778,2.184-3.014,2.616-4.578,2.622a12.7,12.7,0,0,1-2.611-.292,5.784,5.784,0,0,1-.658,2.124,5.1,5.1,0,0,1-2.67,2.292,9.017,9.017,0,0,1-4.393.406,8.537,8.537,0,0,1-1.549,3.182,5.646,5.646,0,0,1-3.457,2.037,10.329,10.329,0,0,1-5.71-.957,6.032,6.032,0,0,1-1.321,1.98,4.306,4.306,0,0,1-3.066,1.229,7.156,7.156,0,0,1-3.9-1.386,10.522,10.522,0,0,1-2.562,1.349,5.271,5.271,0,0,1-3.971.08,5.384,5.384,0,0,1-2.937-2.985l-.013-.039c-.238,0-.5-.007-.765-.026a6.319,6.319,0,0,1-4.153-1.654,9.07,9.07,0,0,1-1.931-3.26c-.049-.138-.092-.27-.131-.4-.286,0-.605,0-.943-.024a6.32,6.32,0,0,1-4.153-1.655A6.31,6.31,0,0,1,16.042,99.4c-.009-.339,0-.661.015-.949-.125-.044-.256-.093-.391-.147a9.084,9.084,0,0,1-3.18-2.061,5.073,5.073,0,0,1-1.048-4.635,7.551,7.551,0,0,1,.812-2.136L9.7,87.765,8.1,92.422a1.468,1.468,0,0,1-1.971.868L.885,91.02a1.467,1.467,0,1,1,1.167-2.692l3.786,1.64L13.8,66.882.858,60.975a1.467,1.467,0,1,1,1.22-2.669l14.151,6.461a1.467,1.467,0,0,1,.778,1.812l-.22.637L25.3,68.671a1.467,1.467,0,1,1-.495,2.892l-8.988-1.536L10.692,84.894l3.8,2.552a8.114,8.114,0,0,1,2.3-.662,4.789,4.789,0,0,1,4.166,1.334l.046.048a10.1,10.1,0,0,1,1.584,1.978,5.751,5.751,0,0,1,.479,1.086,6.3,6.3,0,0,1,5.05,2.222,5.494,5.494,0,0,1,1.409,2.456,7.57,7.57,0,0,1,1.046.051,6.024,6.024,0,0,1,3.686,1.769,8.034,8.034,0,0,1,1.867,3.261,5.945,5.945,0,0,1,.221,1.539c.059.009.118.02.177.033,2.689.6,4.543,1.79,5.067,3.74a5.089,5.089,0,0,1-.572,3.679,4.047,4.047,0,0,0,1.976.693,1.376,1.376,0,0,0,1.021-.407,4.522,4.522,0,0,0,1.055-2.249,1.468,1.468,0,0,1,2.112-.961c2.011,1.057,3.948,1.667,5.385,1.41a2.713,2.713,0,0,0,1.7-1,5.908,5.908,0,0,0,1.055-2.343l-4.266-2.678a1.467,1.467,0,1,1,1.562-2.485l4.933,3.1A6.929,6.929,0,0,0,61.406,103a2.174,2.174,0,0,0,1.173-.976,3.508,3.508,0,0,0,.344-1.834l-5.574-3.881A1.468,1.468,0,1,1,59.027,93.9L65,98.06a11.482,11.482,0,0,0,3.408.611c1.343,0,1.72-.384,1.822-.672a3.906,3.906,0,0,0,.31-2.438,2.867,2.867,0,0,0-.773-1.11L47.378,81.645A1.467,1.467,0,1,1,48.836,79.1L69.681,91.02l.713-3.218a1.467,1.467,0,0,1,1-1.084l1.648-.512L67,70.175l-5.865,1.5A1.467,1.467,0,0,1,59.3,70.223l.016-.761-16.8-2.215L30.82,74.7c-.382,1.371-.929,3.223-1.488,4.894-.319.951-.648,1.866-.96,2.607-.125.3-.252.58-.381.835a4.751,4.751,0,0,0,1.884.424,4.532,4.532,0,0,0,2.8-.878,8.02,8.02,0,0,0,2.656-3.974,1.467,1.467,0,0,1,1.124-.952l5.21-.931a1.467,1.467,0,1,1,.517,2.889l-4.4.786A10.4,10.4,0,0,1,34.4,84.957a7.591,7.591,0,0,1-8.177.456,3.655,3.655,0,0,1-1.186-1.067,2.013,2.013,0,0,1-.344-1.035,1.752,1.752,0,0,1,.51-1.3c.007-.011.045-.065.113-.191.1-.181.216-.434.352-.757.271-.643.574-1.48.882-2.4.615-1.838,1.221-3.925,1.591-5.282a1.468,1.468,0,0,1,.628-.853l12.622-8.043a1.467,1.467,0,0,1,.981-.217l18.638,2.456a1.467,1.467,0,0,1,1.276,1.484l0,.145,3.681-.94-.25-.665a1.467,1.467,0,0,1,.78-1.859L82.2,57.946a1.468,1.468,0,0,1,1.936.749ZM37.956,109.368a3.066,3.066,0,0,0,.8-2.3c-.093-.346-.546-1.12-2.846-1.632a.641.641,0,0,0-.166.056,3.088,3.088,0,0,0-.731.517,13.19,13.19,0,0,0-1.939,2.36c-.27.4-.491.761-.645,1.018l-.081.138a.9.9,0,0,0,.045.191c.076.221.345.761,1.454,1.306a2.683,2.683,0,0,0,1.692-.211,7.466,7.466,0,0,0,2.419-1.44Zm-7.932-1.684c.162-.266.368-.594.608-.952a16.418,16.418,0,0,1,2.32-2.821,2.31,2.31,0,0,0,.342-2.137,5.1,5.1,0,0,0-1.156-2.012m-2.114,7.922a8.748,8.748,0,0,1-.988-.009,3.5,3.5,0,0,1-2.234-.759,6.168,6.168,0,0,1-1.28-2.2c-.075-.213-.134-.409-.18-.579.127-.142.265-.291.41-.449A16.912,16.912,0,0,0,29.1,98.876a4.8,4.8,0,0,1,1.116,0,3.1,3.1,0,0,1,1.917.888M23,102.342c.282-.33.566-.641.846-.948a11.658,11.658,0,0,0,2.8-4.283c.117-.328.041-.9-.65-1.624-1.762-1.835-2.881-1.3-3.092-1.1L19.031,98.1a8.769,8.769,0,0,0-.056,1.223,3.5,3.5,0,0,0,.667,2.258,3.51,3.51,0,0,0,2.234.759,8.79,8.79,0,0,0,1.125,0ZM20.4,92.725a2.863,2.863,0,0,0-.362-1.129,7.642,7.642,0,0,0-1.2-1.445A1.876,1.876,0,0,0,17.15,89.7a5.362,5.362,0,0,0-1.917.663,3.756,3.756,0,0,0-.925,1.866,2.21,2.21,0,0,0,.295,1.99,6.18,6.18,0,0,0,2.149,1.368c.173.069.336.127.483.175Z" transform="translate(0 -57.821)" fill="#98984b" fill-rule="evenodd"/>
</svg>
