<svg id="noun-people-768961" xmlns="http://www.w3.org/2000/svg" width="88.393" height="57.838" viewBox="0 0 88.393 57.838">
  <path id="Tracé_1735" data-name="Tracé 1735" d="M202.432,151.246a8.075,8.075,0,0,0,2.619-6,8.185,8.185,0,1,0-16.369,0,8.073,8.073,0,0,0,2.619,6,14.768,14.768,0,0,0-9.058,11.786,33.076,33.076,0,0,0-6.984-3.056,15.126,15.126,0,0,0,7.42-13.1,15.278,15.278,0,1,0-23.135,13.1,25.149,25.149,0,0,0-6.984,3.056,14.77,14.77,0,0,0-9.058-11.786,8.075,8.075,0,0,0,2.619-6,8.185,8.185,0,1,0-16.369,0,8.073,8.073,0,0,0,2.619,6,14.822,14.822,0,0,0-9.167,13.641,1.637,1.637,0,1,0,3.273,0,11.458,11.458,0,1,1,22.917,0v.327a28.833,28.833,0,0,0-10.913,22.59,1.637,1.637,0,0,0,3.273,0,25.645,25.645,0,1,1,51.291,0,1.637,1.637,0,0,0,3.273,0,28.672,28.672,0,0,0-10.913-22.59v-.327a11.459,11.459,0,1,1,22.918,0,1.637,1.637,0,1,0,3.273,0,14.822,14.822,0,0,0-9.166-13.641Zm-69.406-6a4.911,4.911,0,1,1,4.911,4.911A4.89,4.89,0,0,1,133.026,145.244Zm22.372,1.637a12,12,0,1,1,12,12A11.97,11.97,0,0,1,155.4,146.881Zm36.558-1.637a4.911,4.911,0,1,1,4.911,4.911A4.89,4.89,0,0,1,191.956,145.244Z" transform="translate(-123.205 -131.603)" fill="#98984b"/>
</svg>
