<?xml version="1.0" encoding="UTF-8" standalone="no"?>
<svg
   xmlns:dc="http://purl.org/dc/elements/1.1/"
   xmlns:cc="http://creativecommons.org/ns#"
   xmlns:rdf="http://www.w3.org/1999/02/22-rdf-syntax-ns#"
   xmlns:svg="http://www.w3.org/2000/svg"
   xmlns="http://www.w3.org/2000/svg"
   xmlns:sodipodi="http://sodipodi.sourceforge.net/DTD/sodipodi-0.dtd"
   xmlns:inkscape="http://www.inkscape.org/namespaces/inkscape"
   width="145"
   height="145"
   viewBox="0 0 145 145"
   version="1.1"
   id="svg37"
   sodipodi:docname="Groupe 683.svg"
   inkscape:version="1.0.1 (3bc2e813f5, 2020-09-07)">
  <metadata
     id="metadata41">
    <rdf:RDF>
      <cc:Work
         rdf:about="">
        <dc:format>image/svg+xml</dc:format>
        <dc:type
           rdf:resource="http://purl.org/dc/dcmitype/StillImage" />
        <dc:title></dc:title>
      </cc:Work>
    </rdf:RDF>
  </metadata>
  <sodipodi:namedview
     pagecolor="#ffffff"
     bordercolor="#666666"
     borderopacity="1"
     objecttolerance="10"
     gridtolerance="10"
     guidetolerance="10"
     inkscape:pageopacity="0"
     inkscape:pageshadow="2"
     inkscape:window-width="1360"
     inkscape:window-height="745"
     id="namedview39"
     showgrid="false"
     inkscape:zoom="2.134244"
     inkscape:cx="116.52755"
     inkscape:cy="46.394291"
     inkscape:window-x="-8"
     inkscape:window-y="-8"
     inkscape:window-maximized="1"
     inkscape:current-layer="Groupe_683" />
  <defs
     id="defs15">
    <filter
       id="Rectangle_1932"
       x="0"
       y="0"
       width="308"
       height="383"
       filterUnits="userSpaceOnUse">
      <feOffset
         dy="3"
         input="SourceAlpha"
         id="feOffset2" />
      <feGaussianBlur
         stdDeviation="3"
         result="blur"
         id="feGaussianBlur4" />
      <feFlood
         flood-opacity="0.161"
         id="feFlood6" />
      <feComposite
         operator="in"
         in2="blur"
         id="feComposite8"
         result="result1" />
      <feComposite
         in="SourceGraphic"
         in2="result1"
         id="feComposite10" />
    </filter>
    <clipPath
       id="clip-path">
      <rect
         id="Rectangle_2683"
         data-name="Rectangle 2683"
         width="142.55299"
         height="89.605003"
         fill="#ffffff"
         x="0"
         y="0" />
    </clipPath>
  </defs>
  <g
     id="Groupe_683"
     data-name="Groupe 683"
     transform="translate(-806,-6851)">
    <g
       id="Groupe_624"
       data-name="Groupe 624"
       transform="translate(806.90588,6882.5761)">
      <g
         id="Groupe_623"
         data-name="Groupe 623"
         clip-path="url(#clip-path)">
        <path
           id="Tracé_886"
           data-name="Tracé 886"
           d="m 118.037,56.795 c -0.624,-0.356 -1.2,-0.672 -1.76,-1.006 -0.842,-0.5 -1.674,-1.017 -2.513,-1.523 q -1.71,-1.032 -3.423,-2.057 c -0.843,-0.5 -1.7,-0.988 -2.536,-1.5 -1.148,-0.7 -2.28,-1.424 -3.429,-2.12 -0.79,-0.479 -1.6,-0.918 -2.394,-1.393 -1.23,-0.736 -2.446,-1.5 -3.678,-2.23 -1.152,-0.688 -2.322,-1.347 -3.475,-2.034 -1.5,-0.894 -2.981,-1.811 -4.48,-2.7 -1.152,-0.685 -2.326,-1.33 -3.473,-2.022 -1.488,-0.9 -2.953,-1.832 -4.437,-2.735 -0.785,-0.478 -1.6,-0.913 -2.383,-1.386 -1.173,-0.7 -2.333,-1.431 -3.507,-2.135 -0.81,-0.486 -1.632,-0.951 -2.452,-1.421 -1.212,-0.695 -2.4,-1.442 -3.648,-2.063 a 4.268,4.268 0 0 0 -4.014,0.026 c -1.295,0.669 -2.563,1.391 -3.846,2.083 a 29.958,29.958 0 0 1 -2.939,1.533 22.414,22.414 0 0 1 -3.094,0.875 21.9,21.9 0 0 1 -8.05,0.327 6.517,6.517 0 0 1 -4.287,-2.086 4.492,4.492 0 0 1 -0.958,-2.819 4.3,4.3 0 0 1 2.017,-3.682 c 1.1,-0.885 2.167,-1.809 3.254,-2.711 1.382,-1.147 2.781,-2.274 4.15,-3.436 1.288,-1.094 2.533,-2.238 3.822,-3.331 1.058,-0.9 2.165,-1.737 3.227,-2.629 1.266,-1.064 2.49,-2.177 3.763,-3.231 A 11.378,11.378 0 0 1 66.9,7.24 8.778,8.778 0 0 1 69.892,6.753 c 4.069,0 8.138,0.019 12.206,-0.013 a 11.257,11.257 0 0 1 4.458,0.838 25.817,25.817 0 0 1 3.544,2.054 c 1,0.626 1.967,1.308 2.946,1.968 0.63,0.425 1.241,0.882 1.891,1.272 a 12.881,12.881 0 0 0 1.863,0.954 10.589,10.589 0 0 0 6.4,0.446 11.766,11.766 0 0 0 4.33,-2.009 1.255,1.255 0 0 1 0.162,-0.1 c 1.361,-0.724 1.321,-0.706 2.075,0.958 0.82,1.813 1.715,3.592 2.593,5.377 0.516,1.048 1.067,2.079 1.6,3.121 0.937,1.847 1.884,3.69 2.8,5.549 0.711,1.444 1.354,2.921 2.069,4.363 0.867,1.75 1.792,3.471 2.665,5.218 0.517,1.035 0.957,2.109 1.473,3.144 0.651,1.308 1.358,2.587 2.015,3.892 0.381,0.757 0.725,1.535 1.051,2.317 a 0.491,0.491 0 0 1 -0.162,0.445 c -0.994,0.626 -2,1.239 -3.016,1.825 a 7.239,7.239 0 0 0 -3.7,4.664 c -0.3,1.227 -0.711,2.427 -1.107,3.755"
           fill="#ffffff" />
        <path
           id="Tracé_887"
           data-name="Tracé 887"
           d="m 142.545,38.831 c 0.1,1.521 -0.79,1.871 -1.5,2.326 -1.157,0.743 -2.345,1.438 -3.527,2.141 -1.182,0.703 -2.38,1.389 -3.566,2.09 -0.774,0.458 -1.572,0.884 -2.3,1.4 a 1.5,1.5 0 0 1 -2.417,-0.515 c -0.8,-1.6 -1.579,-3.207 -2.388,-4.8 -0.809,-1.593 -1.661,-3.193 -2.478,-4.8 -0.3,-0.586 -0.539,-1.2 -0.833,-1.792 -0.52,-1.043 -1.069,-2.072 -1.589,-3.116 -0.322,-0.645 -0.6,-1.313 -0.921,-1.958 -0.484,-0.971 -1,-1.925 -1.483,-2.9 -0.483,-0.975 -0.91,-1.938 -1.388,-2.9 -0.714,-1.43 -1.468,-2.839 -2.173,-4.273 -0.535,-1.09 -0.994,-2.216 -1.533,-3.3 -0.657,-1.326 -1.377,-2.621 -2.042,-3.944 -0.5,-0.991 -0.951,-2 -1.429,-3.005 a 10.539,10.539 0 0 1 -0.493,-0.986 1.731,1.731 0 0 1 0.842,-2.174 c 1.212,-0.685 2.427,-1.363 3.625,-2.071 1.621,-0.959 3.227,-1.943 4.839,-2.916 a 20.571,20.571 0 0 1 1.814,-1.074 c 1.276,-0.6 1.875,-0.128 2.4,0.918 0.954,1.885 1.889,3.78 2.83,5.671 q 0.632,1.27 1.255,2.546 c 0.612,1.254 1.214,2.513 1.834,3.763 0.755,1.523 1.537,3.033 2.286,4.558 0.491,1 0.924,2.027 1.42,3.023 0.678,1.36 1.409,2.694 2.086,4.055 0.532,1.07 1,2.171 1.526,3.246 0.488,1 1.015,1.981 1.516,2.975 0.455,0.9 0.9,1.812 1.349,2.716 0.5,0.992 1.019,1.973 1.5,2.975 0.39,0.817 0.733,1.658 0.936,2.121"
           fill="#ffffff" />
        <path
           id="Tracé_888"
           data-name="Tracé 888"
           d="m 0.011,38.784 c 0.205,-0.452 0.565,-1.285 0.958,-2.1 0.465,-0.964 0.955,-1.915 1.44,-2.868 0.5,-0.971 1,-1.936 1.5,-2.908 0.272,-0.535 0.527,-1.078 0.787,-1.619 0.7,-1.449 1.376,-2.907 2.094,-4.345 0.413,-0.826 0.907,-1.611 1.331,-2.432 0.33,-0.64 0.6,-1.314 0.913,-1.961 0.7,-1.435 1.422,-2.86 2.125,-4.294 0.452,-0.922 0.874,-1.859 1.332,-2.778 0.521,-1.045 1.08,-2.071 1.6,-3.117 0.52,-1.046 0.993,-2.116 1.51,-3.163 0.479,-0.971 1,-1.92 1.482,-2.889 0.482,-0.969 1.012,-1.938 1.4,-2.951 0.69,-1.794 2.065,-1.511 3.056,-0.76 a 15.948,15.948 0 0 0 1.428,0.828 c 0.892,0.54 1.774,1.1 2.663,1.64 0.68,0.415 1.36,0.829 2.049,1.227 1.206,0.7 2.46,1.323 3.619,2.092 a 1.743,1.743 0 0 1 0.519,2.639 c -0.316,0.528 -0.548,1.106 -0.825,1.658 q -1.359,2.7 -2.722,5.4 c -0.269,0.534 -0.529,1.072 -0.787,1.612 -0.885,1.853 -1.753,3.715 -2.654,5.56 -0.948,1.941 -1.93,3.864 -2.89,5.8 -0.812,1.635 -1.613,3.274 -2.421,4.91 q -0.859,1.741 -1.724,3.48 c -0.8,1.611 -1.594,3.225 -2.4,4.832 -0.709,1.412 -1.462,2.8 -2.143,4.229 -0.424,0.888 -1.656,0.78 -2.331,0.318 C 10.161,46.305 9.351,45.861 8.565,45.381 7.357,44.645 6.155,43.898 4.941,43.172 3.821,42.5 2.676,41.888 1.582,41.2 0.84,40.73 -0.118,40.381 0.011,38.787"
           fill="#ffffff" />
        <path
           id="Tracé_889"
           data-name="Tracé 889"
           d="m 83.711,81.084 c 0,0.506 0.011,0.86 0,1.214 a 7.31,7.31 0 0 1 -3.578,6.274 7.218,7.218 0 0 1 -5.871,0.722 15.855,15.855 0 0 1 -3.111,-1.487 c -0.886,-0.475 -1.732,-1.024 -2.593,-1.546 -0.434,-0.263 -0.859,-0.538 -1.246,-0.781 0.362,-0.617 0.74,-1.2 1.046,-1.813 0.176,-0.353 0.344,-0.437 0.673,-0.237 q 1.16,0.7 2.326,1.4 a 21.6,21.6 0 0 0 3.257,1.866 4.669,4.669 0 0 0 5.68,-1.925 5.015,5.015 0 0 0 0.55,-3.9 A 4.327,4.327 0 0 0 78.729,78.1 C 77.94,77.586 77.094,77.162 76.284,76.683 a 1.526,1.526 0 0 1 -0.4,-1.652 1.014,1.014 0 0 1 1.3,-0.691 11.583,11.583 0 0 1 2.039,1 c 0.821,0.46 1.618,0.963 2.422,1.454 0.874,0.534 1.72,1.117 2.621,1.6 a 8.455,8.455 0 0 0 3.52,1.488 4.786,4.786 0 0 0 2.533,-9.015 c -1.207,-0.712 -2.391,-1.46 -3.594,-2.179 a 3.424,3.424 0 0 1 -1.382,-1.155 c -0.349,-0.584 0.019,-0.921 0.221,-1.288 a 1.183,1.183 0 0 1 1.465,-0.314 c 1.687,0.98 3.357,1.992 5.039,2.98 1.153,0.677 2.318,1.333 3.474,2 0.818,0.472 1.607,1 2.448,1.418 a 4.659,4.659 0 0 0 4.038,0.03 5.269,5.269 0 0 0 2.192,-2.019 2.209,2.209 0 0 0 0.317,-0.812 5.09,5.09 0 0 0 -0.657,-4.309 5.777,5.777 0 0 0 -1.488,-1.345 c -1.5,-0.969 -3.053,-1.873 -4.589,-2.792 -0.811,-0.483 -1.634,-0.943 -2.45,-1.415 a 1.421,1.421 0 0 1 -0.365,-1.783 1.362,1.362 0 0 1 1.762,-0.451 c 0.88,0.561 1.776,1.1 2.667,1.64 q 2.226,1.352 4.456,2.695 c 0.793,0.476 1.6,0.925 2.4,1.4 q 1.293,0.773 2.569,1.571 a 5.087,5.087 0 0 0 4.412,0.759 4.63,4.63 0 0 0 3.248,-3.515 6.509,6.509 0 0 0 -0.224,-3.019 c 0.373,0.225 0.664,0.408 0.961,0.579 0.5,0.288 1.027,0.542 1.511,0.859 a 1.822,1.822 0 0 1 0.377,2.181 15.018,15.018 0 0 1 -0.924,2.139 6.89,6.89 0 0 1 -2.78,2.692 7.413,7.413 0 0 1 -3.933,0.948 9.067,9.067 0 0 1 -4.09,-1.432 c 0.227,3.206 -0.851,5.823 -3.6,7.446 a 7.44,7.44 0 0 1 -8.264,-0.357 c 0.231,3.212 -0.848,5.809 -3.591,7.459 a 7.164,7.164 0 0 1 -8.238,-0.394"
           fill="#ffffff" />
        <path
           id="Tracé_890"
           data-name="Tracé 890"
           d="m 46.7,52.57 a 4.894,4.894 0 0 1 4.559,3.177 4.52,4.52 0 0 1 -0.5,4.065 c -0.736,1.212 -1.34,2.5 -2.046,3.736 -0.66,1.149 -1.4,2.25 -2.063,3.4 -0.557,0.969 -1,2.005 -1.575,2.961 a 25.2,25.2 0 0 1 -2.313,3.47 c -1.2,1.4 -3.74,1.551 -5.392,0.618 A 4.634,4.634 0 0 1 35.2,68.3 12.164,12.164 0 0 1 36.39,66.022 c 0.5,-0.878 1.02,-1.739 1.525,-2.612 0.783,-1.356 1.569,-2.71 2.338,-4.074 0.463,-0.822 0.87,-1.677 1.35,-2.488 a 16.488,16.488 0 0 1 1.9,-2.934 3.993,3.993 0 0 1 3.2,-1.348"
           fill="#ffffff" />
        <path
           id="Tracé_891"
           data-name="Tracé 891"
           d="m 21.558,49.681 q -2.051,-1.3 -4.1,-2.608 A 6,6 0 0 1 16.647,46.52 0.514,0.514 0 0 1 16.554,46.052 c 0.481,-1.052 0.984,-2.094 1.5,-3.131 0.283,-0.575 0.61,-1.13 0.89,-1.707 0.906,-1.875 1.777,-3.767 2.7,-5.633 1.041,-2.1 2.137,-4.164 3.187,-6.256 0.674,-1.342 1.294,-2.712 1.963,-4.056 0.914,-1.836 1.862,-3.654 2.775,-5.49 0.694,-1.4 1.354,-2.811 2.031,-4.216 0.615,-1.277 1.225,-2.556 1.866,-3.82 a 0.525,0.525 0 0 1 0.493,-0.083 c 0.773,0.416 1.521,0.877 2.285,1.313 a 11.9,11.9 0 0 0 1.509,0.807 10.969,10.969 0 0 0 6.713,0.484 13.107,13.107 0 0 0 4.849,-2.479 c 1.245,-0.96 2.608,-1.771 3.923,-2.642 a 13.63,13.63 0 0 1 1.918,-1.208 6.423,6.423 0 0 1 2.3,-0.637 31.754,31.754 0 0 1 3.594,0.254 l 0.042,0.2 a 8.124,8.124 0 0 1 -0.573,0.639 9.411,9.411 0 0 0 -0.85,0.7 2.96,2.96 0 0 1 -2.114,0.8 5.354,5.354 0 0 0 -1.877,0.827 c -0.968,0.589 -1.885,1.259 -2.825,1.891 -1.018,0.687 -2.007,1.42 -3.063,2.04 a 26.047,26.047 0 0 1 -3.29,1.674 13.344,13.344 0 0 1 -7.956,0.423 20.375,20.375 0 0 1 -3.481,-1.419 3.125,3.125 0 0 0 -0.378,-0.1 c -0.741,1.561 -1.455,3.108 -2.209,4.636 -0.879,1.781 -1.8,3.544 -2.692,5.32 -0.791,1.573 -1.564,3.158 -2.353,4.734 -0.745,1.486 -1.513,2.961 -2.247,4.453 -0.5,1.016 -0.934,2.065 -1.441,3.078 -0.664,1.327 -1.377,2.628 -2.055,3.948 -0.262,0.509 -0.472,1.044 -0.727,1.556 -0.34,0.682 -0.7,1.351 -1.048,2.03 a 1.224,1.224 0 0 0 -0.073,0.326 c 1,0.667 1.969,1.3 2.92,1.969 a 3.351,3.351 0 0 1 0.55,0.639 l -1.748,1.762"
           fill="#ffffff" />
        <path
           id="Tracé_892"
           data-name="Tracé 892"
           d="m 56.327,60.374 a 4.9,4.9 0 0 1 4.494,3.26 4.991,4.991 0 0 1 -0.681,4.345 c -0.472,0.781 -0.879,1.6 -1.334,2.393 -0.927,1.615 -1.874,3.219 -2.8,4.835 -0.458,0.8 -0.892,1.612 -1.328,2.423 a 4.733,4.733 0 0 1 -6.193,1.825 4.408,4.408 0 0 1 -2.606,-4.506 8.586,8.586 0 0 1 0.844,-2.432 10.788,10.788 0 0 1 0.745,-1.333 c 0.524,-0.884 1.06,-1.761 1.584,-2.646 0.274,-0.463 0.532,-0.937 0.8,-1.406 0.747,-1.311 1.566,-2.587 2.212,-3.946 a 5.186,5.186 0 0 1 1.445,-1.822 4.646,4.646 0 0 1 2.819,-0.99"
           fill="#ffffff" />
        <path
           id="Tracé_893"
           data-name="Tracé 893"
           d="m 37.645,58.014 a 9.1,9.1 0 0 1 -0.444,1.14 q -1.083,1.977 -2.219,3.924 A 41.843,41.843 0 0 1 32.226,67.6 4.385,4.385 0 0 1 27.141,68.957 4.48,4.48 0 0 1 24.349,66.3 4.381,4.381 0 0 1 24.816,61.843 c 0.508,-0.768 0.9,-1.611 1.353,-2.415 0.762,-1.35 1.539,-2.692 2.3,-4.045 0.48,-0.86 0.906,-1.752 1.408,-2.6 a 17.585,17.585 0 0 1 1.075,-1.462 l 6.7,6.687"
           fill="#ffffff" />
        <path
           id="Tracé_894"
           data-name="Tracé 894"
           d="m 69.638,74.592 a 5.293,5.293 0 0 1 -1.1,3.288 c -0.528,0.86 -0.972,1.77 -1.491,2.636 a 31.012,31.012 0 0 1 -2.131,3.363 4.694,4.694 0 0 1 -7.408,-0.807 4.717,4.717 0 0 1 0.1,-5.086 c 0.934,-1.615 1.861,-3.233 2.807,-4.84 a 13.679,13.679 0 0 1 1.229,-1.885 3.423,3.423 0 0 1 1.271,-0.911 5.321,5.321 0 0 1 1.973,-0.5 4.348,4.348 0 0 1 4.207,2.5 17.068,17.068 0 0 1 0.714,2.2 l -0.175,0.044"
           fill="#ffffff" />
        <path
           id="Tracé_895"
           data-name="Tracé 895"
           d="m 37.645,58.014 -6.7,-6.687 a 4.534,4.534 0 0 1 0.935,-0.954 4.755,4.755 0 0 1 3.532,-0.671 5,5 0 0 1 3.288,2.573 4.354,4.354 0 0 1 0.433,2.777 6.019,6.019 0 0 1 -0.493,1.511 11.328,11.328 0 0 1 -0.711,1.307 c -0.046,0.078 -0.189,0.1 -0.287,0.144"
           fill="#ffffff" />
        <path
           id="Tracé_896"
           data-name="Tracé 896"
           d="m 21.558,49.681 1.748,-1.762 c 0.113,0.039 0.264,0.044 0.332,0.122 a 11.189,11.189 0 0 1 2.562,5.166 0.987,0.987 0 0 1 -0.027,0.594 c -0.476,0.924 -0.983,1.833 -1.489,2.741 -0.028,0.052 -0.141,0.055 -0.233,0.088 -0.429,-1.488 -0.773,-2.993 -1.312,-4.424 a 12.463,12.463 0 0 0 -1.4,-2.211 c -0.066,-0.1 -0.118,-0.21 -0.177,-0.314"
           fill="#ffffff" />
      </g>
    </g>
  </g>
</svg>
