<?xml version="1.0" encoding="UTF-8" standalone="no"?>
<svg
   xmlns:dc="http://purl.org/dc/elements/1.1/"
   xmlns:cc="http://creativecommons.org/ns#"
   xmlns:rdf="http://www.w3.org/1999/02/22-rdf-syntax-ns#"
   xmlns:svg="http://www.w3.org/2000/svg"
   xmlns="http://www.w3.org/2000/svg"
   xmlns:sodipodi="http://sodipodi.sourceforge.net/DTD/sodipodi-0.dtd"
   xmlns:inkscape="http://www.inkscape.org/namespaces/inkscape"
   width="169"
   height="169"
   viewBox="0 0 169 169"
   version="1.1"
   id="svg106"
   sodipodi:docname="icon C entreprise.svg"
   inkscape:version="1.0.1 (3bc2e813f5, 2020-09-07)">
  <metadata
     id="metadata110">
    <rdf:RDF>
      <cc:Work
         rdf:about="">
        <dc:format>image/svg+xml</dc:format>
        <dc:type
           rdf:resource="http://purl.org/dc/dcmitype/StillImage" />
        <dc:title></dc:title>
      </cc:Work>
    </rdf:RDF>
  </metadata>
  <sodipodi:namedview
     pagecolor="#ffffff"
     bordercolor="#666666"
     borderopacity="1"
     objecttolerance="10"
     gridtolerance="10"
     guidetolerance="10"
     inkscape:pageopacity="0"
     inkscape:pageshadow="2"
     inkscape:window-width="1360"
     inkscape:window-height="745"
     id="namedview108"
     showgrid="false"
     inkscape:zoom="1.4744898"
     inkscape:cx="142"
     inkscape:cy="168.87197"
     inkscape:window-x="-8"
     inkscape:window-y="-8"
     inkscape:window-maximized="1"
     inkscape:current-layer="Groupe_686" />
  <defs
     id="defs24">
    <filter
       id="Rectangle_1987"
       x="0"
       y="0"
       width="284"
       height="392"
       filterUnits="userSpaceOnUse">
      <feOffset
         dx="9"
         dy="9"
         input="SourceAlpha"
         id="feOffset2" />
      <feGaussianBlur
         stdDeviation="4.5"
         result="blur"
         id="feGaussianBlur4" />
      <feFlood
         flood-opacity="0.161"
         id="feFlood6" />
      <feComposite
         operator="in"
         in2="blur"
         id="feComposite8"
         result="result1" />
      <feComposite
         in="SourceGraphic"
         in2="result1"
         id="feComposite10" />
    </filter>
    <filter
       id="Rectangle_1855"
       x="40.5"
       y="273.5"
       width="185"
       height="72"
       filterUnits="userSpaceOnUse">
      <feOffset
         dy="3"
         input="SourceAlpha"
         id="feOffset13" />
      <feGaussianBlur
         stdDeviation="3"
         result="blur-2"
         id="feGaussianBlur15" />
      <feFlood
         flood-color="#98984b"
         flood-opacity="0.129"
         id="feFlood17" />
      <feComposite
         operator="in"
         in2="blur-2"
         id="feComposite19"
         result="result1" />
      <feComposite
         in="SourceGraphic"
         in2="result1"
         id="feComposite21" />
    </filter>
  </defs>
  <g
     id="Groupe_686"
     data-name="Groupe 686"
     transform="translate(-511.5,-2243.5)">
    <g
       id="undraw_Team_spirit_re_yl1v"
       transform="translate(487.43435,2264.4095)">
      <path
         id="Tracé_513"
         data-name="Tracé 513"
         d="m 436.681,618.5 a 3.652,3.652 0 0 1 -0.8,-4.662 c 0.09,-0.151 0.328,-0.018 0.238,0.133 a 3.382,3.382 0 0 0 0.75,4.335 c 0.135,0.112 -0.057,0.305 -0.191,0.194 z"
         transform="translate(-376.453,-511.357)"
         fill="#ffffff" />
      <path
         id="Tracé_521"
         data-name="Tracé 521"
         d="m 514.655,389.258 a 2.178,2.178 0 0 0 -0.286,-3.328 l 3.556,-17.21 -3.837,1.21 -2.861,16.649 a 2.19,2.19 0 0 0 3.428,2.678 z"
         transform="translate(-435.129,-320.998)"
         fill="#ffb6b6" />
      <path
         id="Tracé_522"
         data-name="Tracé 522"
         d="m 525.616,248.382 -2.377,-1.794 c 0,0 -2.1,-0.148 -2.468,3.632 -0.368,3.78 -2.7,18.291 -2.7,18.291 l -3.636,16.843 5.034,1.1 3.9,-18.177 3.9,-12.54 z"
         transform="translate(-437.871,-226.125)"
         fill="#e6e6e6" />
      <path
         id="Tracé_523"
         data-name="Tracé 523"
         d="m 515.588,323.408 -11.4,-8.864 a 0.85,0.85 0 0 1 -0.149,-1.192 l 7.756,-9.975 a 0.85,0.85 0 0 1 1.191,-0.149 l 11.4,8.864 a 0.85,0.85 0 0 1 0.149,1.192 l -7.756,9.975 a 0.85,0.85 0 0 1 -1.191,0.149 z"
         transform="translate(-429.654,-269.985)"
         fill="#3f3d56" />
      <path
         id="Tracé_524"
         data-name="Tracé 524"
         d="m 518.8,325.753 -10.433,-8.112 a 0.755,0.755 0 0 1 -0.132,-1.058 l 7.031,-9.043 a 0.755,0.755 0 0 1 1.058,-0.132 l 10.432,8.112 a 0.755,0.755 0 0 1 0.132,1.058 l -7.031,9.043 a 0.755,0.755 0 0 1 -1.057,0.132 z"
         transform="translate(-432.929,-273.247)"
         fill="#ffffff" />
      <path
         id="Tracé_525"
         data-name="Tracé 525"
         d="m 515.255,335.726 a 0.189,0.189 0 0 1 -0.033,-0.264 l 3.547,-4.562 a 0.18931521,0.18931521 0 1 1 0.3,0.231 l -3.547,4.562 a 0.189,0.189 0 0 1 -0.267,0.033 z"
         transform="translate(-438.449,-291.563)"
         fill="#e4e4e4" />
      <path
         id="Tracé_526"
         data-name="Tracé 526"
         d="m 517.889,337.774 a 0.189,0.189 0 0 1 -0.033,-0.264 l 3.547,-4.562 a 0.18931521,0.18931521 0 0 1 0.3,0.231 l -3.547,4.562 a 0.189,0.189 0 0 1 -0.267,0.033 z"
         transform="translate(-440.495,-293.154)"
         fill="#e4e4e4" />
      <path
         id="Tracé_527"
         data-name="Tracé 527"
         d="m 529.527,337.238 a 0.189,0.189 0 0 1 -0.033,-0.264 L 531.031,335 a 0.18931521,0.18931521 0 0 1 0.3,0.231 l -1.538,1.978 a 0.189,0.189 0 0 1 -0.266,0.029 z"
         transform="translate(-449.535,-294.745)"
         fill="#e4e4e4" />
      <path
         id="Tracé_528"
         data-name="Tracé 528"
         d="m 533.078,336.442 a 0.189,0.189 0 0 1 -0.033,-0.264 l 5.6,-7.2 a 0.18931521,0.18931521 0 1 1 0.3,0.231 l -5.6,7.2 a 0.189,0.189 0 0 1 -0.267,0.033 z"
         transform="translate(-452.294,-290.068)"
         fill="#e4e4e4" />
      <path
         id="Tracé_529"
         data-name="Tracé 529"
         d="m 535.712,338.49 a 0.189,0.189 0 0 1 -0.033,-0.264 l 5.6,-7.2 a 0.18931521,0.18931521 0 1 1 0.3,0.231 l -5.6,7.2 a 0.188,0.188 0 0 1 -0.264,0.033 z"
         transform="translate(-454.34,-291.659)"
         fill="#e4e4e4" />
      <path
         id="Tracé_530"
         data-name="Tracé 530"
         d="m 541.691,343.139 a 0.189,0.189 0 0 1 -0.033,-0.264 l 5.6,-7.2 a 0.18931521,0.18931521 0 0 1 0.3,0.231 l -5.6,7.2 a 0.189,0.189 0 0 1 -0.267,0.033 z"
         transform="translate(-458.984,-295.27)"
         fill="#e4e4e4" />
      <path
         id="Tracé_531"
         data-name="Tracé 531"
         d="m 544.325,345.187 a 0.189,0.189 0 0 1 -0.033,-0.264 l 5.6,-7.2 a 0.18931521,0.18931521 0 1 1 0.3,0.231 l -5.6,7.2 a 0.189,0.189 0 0 1 -0.267,0.033 z"
         transform="translate(-461.03,-296.861)"
         fill="#e4e4e4" />
      <path
         id="Tracé_532"
         data-name="Tracé 532"
         d="m 550.3,349.836 a 0.189,0.189 0 0 1 -0.033,-0.264 l 5.6,-7.2 a 0.18931521,0.18931521 0 0 1 0.3,0.231 l -5.6,7.2 a 0.189,0.189 0 0 1 -0.267,0.033 z"
         transform="translate(-465.675,-300.473)"
         fill="#e4e4e4" />
      <path
         id="Tracé_533"
         data-name="Tracé 533"
         d="m 552.938,351.884 a 0.189,0.189 0 0 1 -0.033,-0.264 l 5.6,-7.2 a 0.18931521,0.18931521 0 1 1 0.3,0.231 l -5.6,7.2 a 0.189,0.189 0 0 1 -0.267,0.033 z"
         transform="translate(-467.721,-302.064)"
         fill="#e4e4e4" />
      <circle
         id="Ellipse_52"
         data-name="Ellipse 52"
         cx="0.077"
         cy="0.077"
         transform="translate(75.781,58.029)"
         fill="#ffffff"
         r="0.077" />
      <path
         id="Tracé_534"
         data-name="Tracé 534"
         d="m 554.6,159.774 a 18.64,18.64 0 0 1 -1.329,4.243 c -3.5,7.4 6.464,4.988 10.024,4.988 3.893,0 7.617,2.047 7.048,-7.048 a 7.214,7.214 0 0 0 -7.048,-7.048 c -3.326,0 -8,1.478 -8.695,4.865 z"
         transform="translate(-467.466,-154.909)"
         fill="#2f2e41" />
      <path
         id="Tracé_535"
         data-name="Tracé 535"
         d="m 436.3,463.564 h -3.316 l -1.578,-12.792 h 4.894 z"
         transform="translate(-336.848,-350.162)"
         fill="#ffb6b6" />
      <path
         id="Tracé_536"
         data-name="Tracé 536"
         d="m 584.4,659.734 h -2.378 l -0.424,-2.245 -1.087,2.245 h -6.308 a 1.418,1.418 0 0 1 -0.806,-2.585 l 5.037,-3.479 v -2.27 l 5.3,0.316 z"
         transform="translate(-483.197,-540.586)"
         fill="#2f2e41" />
      <path
         id="Tracé_537"
         data-name="Tracé 537"
         d="m 501.381,453.607 -2.661,1.979 -8.9,-9.323 3.928,-2.921 z"
         transform="translate(-382.221,-344.39)"
         fill="#ffb6b6" />
      <path
         id="Tracé_538"
         data-name="Tracé 538"
         d="m 690.561,639.217 -1.908,1.419 -1.681,-1.549 0.467,2.451 -5.062,3.764 a 1.418,1.418 0 0 1 -2.189,-1.593 l 1.966,-5.8 -1.354,-1.819 4.44,-2.908 z"
         transform="translate(-566.568,-526.434)"
         fill="#2f2e41" />
      <path
         id="Tracé_539"
         data-name="Tracé 539"
         d="m 404.675,203 15.743,-2.452 -3.131,-9.418 h -12.612 z"
         transform="translate(-316.08,-148.47)"
         fill="#ffb6b6" />
      <path
         id="Tracé_540"
         data-name="Tracé 540"
         d="m 579.875,367.291 c 0,0 6.292,5.436 3.389,20.934 l -3.544,15.185 9.657,16.765 -4.91,2.678 -11.9,-16.54 -5.446,-12.773 -2.88,-22.387 z"
         transform="translate(-476.556,-319.889)"
         fill="#2f2e41" />
      <path
         id="Tracé_541"
         data-name="Tracé 541"
         d="m 425.625,346.3 -0.379,5.861 1.108,17.357 5.5,1.894 1.042,-17.784 z"
         transform="translate(-332.059,-269.008)"
         fill="#2f2e41" />
      <path
         id="Tracé_542"
         data-name="Tracé 542"
         d="m 558.131,226.8 6.086,0.237 2.425,4.026 5.533,1.08 -3.3,16.711 0.607,9.512 -5.51,-0.034 a 16.116,16.116 0 0 0 -10.783,4.051 v 0 l 0.165,-12.347 -2.37,-9.217 0.533,-9.665 4.451,-0.556 z"
         transform="translate(-466.257,-210.758)"
         fill="#e6e6e6" />
      <circle
         id="Ellipse_53"
         data-name="Ellipse 53"
         cx="5.7270002"
         cy="5.7270002"
         transform="translate(89.518,2.64)"
         fill="#ffb6b6"
         r="5.7270002" />
      <path
         id="Tracé_543"
         data-name="Tracé 543"
         d="m 569.758,162.9 a 6.561,6.561 0 0 1 9.974,5.726 c -2.918,0.733 -5.984,1.293 -9.1,0.175 L 569.9,167 l -0.433,1.8 c -0.948,0.387 -1.9,0.715 -2.848,0 a 6.7,6.7 0 0 1 3.139,-5.9 z"
         transform="translate(-478.402,-160.373)"
         fill="#2f2e41" />
      <path
         id="Tracé_544"
         data-name="Tracé 544"
         d="m 641.062,416.118 0.772,7.007 a 0.855,0.855 0 0 0 0.818,0.6 h 3.559 a 0.855,0.855 0 0 0 0.818,-0.6 l 0.639,-5.37 a 1.3,1.3 0 1 0 0.335,-2.443 0.848,0.848 0 0 0 -0.649,-0.3 h -5.474 a 0.855,0.855 0 0 0 -0.817,1.107 z m 6.717,1.273 0.392,-1.273 a 0.847,0.847 0 0 0 0.013,-0.453 c 0.017,0 0.032,-0.005 0.049,-0.005 a 0.9275,0.9275 0 0 1 0,1.855 0.916,0.916 0 0 1 -0.454,-0.123 z"
         transform="translate(-536.203,-356.958)"
         fill="#98984b" />
      <path
         id="Tracé_545"
         data-name="Tracé 545"
         d="m 654.22,382.553 a 2.178,2.178 0 0 1 0.3,-3.327 L 651.055,362 l 3.83,1.23 2.776,16.664 a 2.19,2.19 0 0 1 -3.441,2.661 z"
         transform="translate(-543.995,-315.777)"
         fill="#ffb6b6" />
      <path
         id="Tracé_546"
         data-name="Tracé 546"
         d="m 629.545,252.537 2.377,-1.794 c 0,0 2.1,-0.148 2.468,3.632 0.368,3.78 2.7,18.291 2.7,18.291 l 3.636,16.843 -5.034,1.1 -3.895,-18.177 -3.9,-12.54 z"
         transform="translate(-526.004,-229.353)"
         fill="#e6e6e6" />
      <circle
         id="Ellipse_54"
         data-name="Ellipse 54"
         cx="1.345"
         cy="1.345"
         transform="translate(81.686,36.176)"
         fill="#98984b"
         r="1.345" />
      <path
         id="Tracé_547"
         data-name="Tracé 547"
         d="m 187.543,540.37 h 2.8 l 1.334,-10.814 h -4.138 z"
         transform="translate(-147.411,-411.361)"
         fill="#ffb6b6" />
      <path
         id="Tracé_548"
         data-name="Tracé 548"
         d="m 347.992,724.453 h 0.789 l 3.081,-1.253 1.651,1.253 v 0 a 3.519,3.519 0 0 1 3.519,3.518 v 0.115 h -9.04 z"
         transform="translate(-308.574,-596.36)"
         fill="#2f2e41" />
      <path
         id="Tracé_549"
         data-name="Tracé 549"
         d="m 236.221,533.379 2.735,0.618 3.683,-10.254 -4.036,-0.911 z"
         transform="translate(-185.224,-406.137)"
         fill="#ffb6b6" />
      <path
         id="Tracé_550"
         data-name="Tracé 550"
         d="m 394.865,719.007 0.77,0.174 3.281,-0.543 1.335,1.586 v 0 a 3.519,3.519 0 0 1 2.657,4.207 l -0.025,0.111 -8.818,-1.991 z"
         transform="translate(-344.364,-592.815)"
         fill="#2f2e41" />
      <path
         id="Tracé_551"
         data-name="Tracé 551"
         d="m 328.2,466.911 2.535,28.4 c 0,0 -0.95,17.052 2.115,23.053 h 4.45 l 2.2,-24.61 0.276,-16.518 9.53,13.936 -6.07,26.79 5.471,0.489 9.85,-29.074 -10.822,-27.293 z"
         transform="translate(-293.2,-393.527)"
         fill="#2f2e41" />
      <circle
         id="Ellipse_55"
         data-name="Ellipse 55"
         cx="6.5380001"
         cy="6.5380001"
         transform="translate(31.117,15.076)"
         fill="#ffb8b8"
         r="6.5380001" />
      <path
         id="Tracé_552"
         data-name="Tracé 552"
         d="m 315.611,291.307 -5.364,-2.3 -2.611,-2.77 -6.523,1.052 -1.731,2.967 -5.6,5.209 6.564,29.679 -0.2,6.482 c 0,0 4.2,1.891 22.421,-2.463 0.218,-0.052 -0.239,-0.281 -0.239,-0.281 z"
         transform="translate(-266.462,-256.924)"
         fill="#3f3d56" />
      <path
         id="Tracé_553"
         data-name="Tracé 553"
         d="m 308.981,267.715 q -0.068,-0.093 -0.135,-0.188 c -0.018,0.038 -0.032,0.077 -0.053,0.114 z"
         transform="translate(-278.125,-242.391)"
         fill="#2f2e41" />
      <path
         id="Tracé_554"
         data-name="Tracé 554"
         d="m 321.588,219.38 a 4.172,4.172 0 0 0 -2.183,-2.109 3.983,3.983 0 0 0 -2.986,0 6.015,6.015 0 0 0 -2.836,-1.033 3.172,3.172 0 0 0 -2.7,1.148 4.412,4.412 0 0 1 -0.472,0.614 2.305,2.305 0 0 1 -1.928,0.3 l 0.9,0.768 -1.085,0.283 1.266,0.768 a 3.974,3.974 0 0 0 -1.635,3.8 8.03,8.03 0 0 0 1.6,3.763 5.129,5.129 0 0 0 0.244,-2.228 2.531,2.531 0 0 1 0.775,-2.15 2.558,2.558 0 0 1 1.506,-0.311 69.178,69.178 0 0 1 7.847,0.49 2.209,2.209 0 0 1 1,0.291 2.462,2.462 0 0 1 0.746,1.915 13.878,13.878 0 0 0 0.443,-3.6 6.63,6.63 0 0 0 -0.502,-2.709 z"
         transform="translate(-277.429,-202.548)"
         fill="#2f2e41" />
      <circle
         id="Ellipse_56"
         data-name="Ellipse 56"
         cx="10.29"
         cy="10.29"
         transform="translate(35.904,72.715)"
         fill="#ffffff"
         r="10.29" />
      <path
         id="Tracé_555"
         data-name="Tracé 555"
         d="m 341.743,479.674 a 10.567,10.567 0 0 0 -1.579,0.119 c -0.269,0.039 -0.529,0.089 -0.788,0.151 a 10.514,10.514 0 0 0 -4.457,18.248 c 0.176,0.149 0.354,0.293 0.54,0.43 a 10.517,10.517 0 1 0 6.284,-18.948 z m 0,20.581 A 10,10 0 0 1 335.8,498.3 c -0.187,-0.137 -0.368,-0.279 -0.544,-0.43 a 10.056,10.056 0 0 1 4.487,-17.542 c 0.256,-0.053 0.512,-0.094 0.773,-0.126 a 9.951,9.951 0 0 1 1.23,-0.075 10.062,10.062 0 0 1 0,20.124 z"
         transform="translate(-295.549,-407.188)"
         fill="#3f3d56" />
      <rect
         id="Rectangle_1983"
         data-name="Rectangle 1983"
         width="11.434"
         height="1.372"
         rx="0.68599999"
         transform="rotate(180,25.956,40.4735)"
         fill="#98984b"
         x="0"
         y="0" />
      <rect
         id="Rectangle_1984"
         data-name="Rectangle 1984"
         width="11.434"
         height="1.372"
         rx="0.68599999"
         transform="rotate(180,25.956,41.8455)"
         fill="#98984b"
         x="0"
         y="0" />
      <rect
         id="Rectangle_1985"
         data-name="Rectangle 1985"
         width="11.434"
         height="1.372"
         rx="0.68599999"
         transform="rotate(180,25.956,43.2175)"
         fill="#98984b"
         x="0"
         y="0" />
      <path
         id="Tracé_556"
         data-name="Tracé 556"
         d="m 715.421,536.978 h -2.94 l -1.4,-11.339 h 4.339 z"
         transform="translate(-554.099,-408.319)"
         fill="#9e616a" />
      <path
         id="Tracé_557"
         data-name="Tracé 557"
         d="m 653.111,536.978 h -2.939 l -1.4,-11.339 h 4.339 z"
         transform="translate(-505.696,-408.319)"
         fill="#9e616a" />
      <path
         id="Tracé_558"
         data-name="Tracé 558"
         d="m 800.862,728.086 h -9.04 v -0.114 a 3.519,3.519 0 0 1 3.518,-3.518 v 0 l 1.651,-1.253 3.081,1.253 h 0.789 z"
         transform="translate(-653.344,-596.36)"
         fill="#2f2e41" />
      <path
         id="Tracé_559"
         data-name="Tracé 559"
         d="m 864.862,728.086 h -9.04 v -0.114 a 3.518,3.518 0 0 1 3.518,-3.518 v 0 l 1.651,-1.253 3.081,1.253 h 0.789 z"
         transform="translate(-703.059,-596.36)"
         fill="#2f2e41" />
      <path
         id="Tracé_560"
         data-name="Tracé 560"
         d="m 802.07,424.157 -4.468,27.2 1.216,4.054 -1.6,2.871 2.343,25.214 -0.951,2.094 2.657,1.639 h 5.407 l 0.287,-22.827 1.336,-3.351 v -1.847 l 2.719,-13.919 0.5,19.493 0.791,3.357 -0.664,2.39 0.868,1.674 2.306,15.528 h 6.063 l -0.469,-3.612 v 0 a 2.67,2.67 0 0 0 1.4,-2.955 l -0.348,-1.583 0.791,-4.682 1.441,-26.119 -0.395,-21.076 -7.1,-5.42 z"
         transform="translate(-657.539,-362.604)"
         fill="#2f2e41" />
      <circle
         id="Ellipse_219"
         data-name="Ellipse 219"
         cx="5.6329999"
         cy="5.6329999"
         transform="translate(149.14,15.353)"
         fill="#9e616a"
         r="5.6329999" />
      <path
         id="Tracé_561"
         data-name="Tracé 561"
         d="m 795.147,437.427 a 2.411,2.411 0 0 0 -0.386,-3.677 l 2.191,-8.284 -4.22,1.42 -1.433,7.649 a 2.424,2.424 0 0 0 3.849,2.893 z"
         transform="translate(-652.681,-365.079)"
         fill="#9e616a" />
      <path
         id="Path_1101"
         data-name="Path 1101"
         d="m 797.482,300.206 -0.906,-0.188 -0.773,0.428 c 0,0 -2.158,2.877 -2.158,5.515 0,2.638 -2.638,28.055 -2.638,28.055 l 4.8,2.158 3.836,-19.9 z"
         transform="translate(-652.711,-267.63)"
         fill="#e6e6e6" />
      <path
         id="Path_1104"
         data-name="Path 1104"
         d="m 846.59,215.34 c 0,0 1.473,-2.817 -1.768,-3.073 0,0 -2.763,-2.507 -5.58,-0.458 a 2.829,2.829 0 0 0 -2.376,1.739 1.054,1.054 0 0 0 -1.474,0.768 8.009,8.009 0 0 0 0,4.865 9.527,9.527 0 0 0 1.178,2.561 c 0,0 -1.453,-4.831 2.084,-5.088 3.537,-0.257 7.494,-2.466 7.788,0.351 a 9.734,9.734 0 0 0 0.738,3.511 c 0,0 2.799,-4.024 -0.59,-5.176 z"
         transform="translate(-686.883,-198.484)"
         fill="#2f2e41" />
      <path
         id="Tracé_562"
         data-name="Tracé 562"
         d="m 913.762,476 a 1.724,1.724 0 0 1 -1.152,-0.44 l -17.048,-15.175 a 1.739,1.739 0 0 1 -0.142,-2.452 l 10.921,-12.269 a 1.738,1.738 0 0 1 2.452,-0.142 L 925.84,460.7 a 1.736,1.736 0 0 1 0.143,2.451 l -10.921,12.269 a 1.724,1.724 0 0 1 -1.2,0.579 C 913.83,476 913.8,476 913.762,476 Z"
         transform="translate(-733.477,-380.316)"
         fill="#ffffff" />
      <path
         id="Tracé_563"
         data-name="Tracé 563"
         d="m 913.373,475.721 a 1.834,1.834 0 0 1 -1.226,-0.468 L 895.1,460.078 a 1.851,1.851 0 0 1 -0.152,-2.609 L 905.869,445.2 a 1.851,1.851 0 0 1 2.609,-0.152 l 17.048,15.176 a 1.848,1.848 0 0 1 0.152,2.609 L 914.756,475.1 a 1.837,1.837 0 0 1 -1.273,0.616 c -0.037,0.004 -0.073,0.005 -0.11,0.005 z m -6.124,-30.693 a 1.4,1.4 0 0 0 -1.048,0.469 l -10.921,12.269 a 1.4,1.4 0 0 0 0.115,1.979 l 17.048,15.175 a 1.4,1.4 0 0 0 1.979,-0.115 l 10.921,-12.269 a 1.4,1.4 0 0 0 -0.115,-1.979 L 908.18,445.381 a 1.4,1.4 0 0 0 -0.931,-0.354 z"
         transform="translate(-733.089,-379.928)"
         fill="#3f3d56" />
      <path
         id="Tracé_564"
         data-name="Tracé 564"
         d="m 957.637,484.853 a 0.748,0.748 0 0 1 -0.5,-0.19 L 943.756,472.75 a 0.75147921,0.75147921 0 1 1 1,-1.122 l 13.382,11.912 a 0.751,0.751 0 0 1 -0.5,1.312 z"
         transform="translate(-771.171,-400.79)"
         fill="#98984b" />
      <path
         id="Tracé_565"
         data-name="Tracé 565"
         d="m 946.2,497.7 a 0.749,0.749 0 0 1 -0.5,-0.19 L 932.32,485.6 a 0.75147921,0.75147921 0 0 1 1,-1.122 l 13.38,11.91 a 0.751,0.751 0 0 1 -0.5,1.312 z"
         transform="translate(-762.288,-410.77)"
         fill="#98984b" />
      <path
         id="Tracé_566"
         data-name="Tracé 566"
         d="m 934.764,510.548 a 0.748,0.748 0 0 1 -0.5,-0.19 l -13.382,-11.912 a 0.75185255,0.75185255 0 0 1 1,-1.123 l 13.382,11.912 a 0.751,0.751 0 0 1 -0.5,1.312 z"
         transform="translate(-753.403,-420.75)"
         fill="#98984b" />
      <path
         id="Tracé_567"
         data-name="Tracé 567"
         d="m 914.325,439.4 a 2.411,2.411 0 0 1 1.319,-3.454 l 0.014,-8.569 3.713,2.458 -0.583,7.76 a 2.424,2.424 0 0 1 -4.464,1.8 z"
         transform="translate(-748.267,-366.566)"
         fill="#9e616a" />
      <path
         id="Path_1100"
         data-name="Path 1100"
         d="m 911.084,305.816 1.659,-1.6 1.219,0.88 c 0,0 1.2,1.439 2.158,5.755 0.958,4.316 0,28.055 0,28.055 l -5.275,-0.719 0.719,-12.469 -2.158,-10.55 z"
         transform="translate(-744.683,-270.892)"
         fill="#e6e6e6" />
      <path
         id="Tracé_568"
         data-name="Tracé 568"
         d="m 842.6,284.244 -5.589,-2.669 -3.794,-3.519 -6.917,-0.056 -2.232,2.9 -5.892,2 0.982,20.318 -0.67,1.562 c 0,0 0.466,0.421 0.68,0.657 0.214,0.236 -0.294,2.209 -0.294,2.209 l -0.286,2.147 0.794,0.567 -1.032,1.219 -0.256,1.922 c 0,0 18.015,-4.478 21.419,2.94 a 26.368,26.368 0 0 0 -0.263,-3.438 l -0.443,-2.8 0.439,-2.517 0.669,-0.67 -1.123,-1.123 0.72,-5.329 z"
         transform="translate(-673.747,-250.53)"
         fill="#3f3d56" />
      <path
         id="Tracé_569"
         data-name="Tracé 569"
         d="m 336.606,463.913 a 2.589,2.589 0 0 0 -1.9,-3.487 l -1.241,-9.116 -3.6,3.147 1.731,8.174 a 2.6,2.6 0 0 0 5.008,1.282 z"
         transform="translate(-294.495,-385.154)"
         fill="#ffb8b8" />
      <path
         id="Path_1101-2"
         data-name="Path 1101"
         d="m 290.079,326.838 -0.976,0.187 -0.59,0.742 c 0,0 -0.954,3.742 0.133,6.357 1.087,2.615 8.945,28.9 8.945,28.9 l 5.644,0.164 -4.4,-21.314 z"
         transform="translate(-262.07,-288.464)"
         fill="#3f3d56" />
      <path
         id="Tracé_570"
         data-name="Tracé 570"
         d="m 390.351,457.01 a 2.589,2.589 0 0 1 0.461,-3.943 l -2.247,-8.922 4.513,1.577 1.442,8.23 a 2.6,2.6 0 0 1 -4.169,3.057 z"
         transform="translate(-340.092,-379.589)"
         fill="#ffb8b8" />
      <path
         id="Path_1101-3"
         data-name="Path 1101"
         d="m 378.961,309.672 0.975,-0.19 0.824,0.469 c 0,0 2.281,3.117 2.247,5.949 -0.034,2.832 2.477,30.154 2.477,30.154 l -5.176,2.256 -3.867,-21.416 z"
         transform="translate(-330.674,-274.982)"
         fill="#3f3d56" />
    </g>
    <text
       id="Découvrir"
       transform="translate(590.074,2557)"
       fill="#ffffff"
       font-size="20px"
       font-family="HelveticaNeue-Medium, 'Helvetica Neue'"
       font-weight="500"><tspan
         x="0"
         y="0"
         id="tspan101">Découvrir</tspan></text>
    <path
       id="Tracé_224"
       data-name="Tracé 224"
       d="M 1.7,0.8 6.944,6.044 1.7,11.288"
       transform="translate(690.984,2545.7)"
       fill="none"
       stroke="#ffffff"
       stroke-miterlimit="10"
       stroke-width="2" />
  </g>
</svg>
