<?xml version="1.0" encoding="UTF-8" standalone="no"?>
<svg
   xmlns:dc="http://purl.org/dc/elements/1.1/"
   xmlns:cc="http://creativecommons.org/ns#"
   xmlns:rdf="http://www.w3.org/1999/02/22-rdf-syntax-ns#"
   xmlns:svg="http://www.w3.org/2000/svg"
   xmlns="http://www.w3.org/2000/svg"
   xmlns:sodipodi="http://sodipodi.sourceforge.net/DTD/sodipodi-0.dtd"
   xmlns:inkscape="http://www.inkscape.org/namespaces/inkscape"
   width="138"
   height="138"
   viewBox="0 0 138 138"
   version="1.1"
   id="svg74"
   sodipodi:docname="icon C family.svg"
   inkscape:version="1.0.1 (3bc2e813f5, 2020-09-07)">
  <metadata
     id="metadata78">
    <rdf:RDF>
      <cc:Work
         rdf:about="">
        <dc:format>image/svg+xml</dc:format>
        <dc:type
           rdf:resource="http://purl.org/dc/dcmitype/StillImage" />
        <dc:title></dc:title>
      </cc:Work>
    </rdf:RDF>
  </metadata>
  <sodipodi:namedview
     pagecolor="#ffffff"
     bordercolor="#666666"
     borderopacity="1"
     objecttolerance="10"
     gridtolerance="10"
     guidetolerance="10"
     inkscape:pageopacity="0"
     inkscape:pageshadow="2"
     inkscape:window-width="1360"
     inkscape:window-height="745"
     id="namedview76"
     showgrid="false"
     inkscape:zoom="1.4744898"
     inkscape:cx="142"
     inkscape:cy="6.1038062"
     inkscape:window-x="-8"
     inkscape:window-y="-8"
     inkscape:window-maximized="1"
     inkscape:current-layer="Groupe_685" />
  <defs
     id="defs24">
    <filter
       id="Rectangle_34"
       x="0"
       y="0"
       width="284"
       height="392"
       filterUnits="userSpaceOnUse">
      <feOffset
         dx="9"
         dy="9"
         input="SourceAlpha"
         id="feOffset2" />
      <feGaussianBlur
         stdDeviation="4.5"
         result="blur"
         id="feGaussianBlur4" />
      <feFlood
         flood-opacity="0.161"
         id="feFlood6" />
      <feComposite
         operator="in"
         in2="blur"
         id="feComposite8"
         result="result1" />
      <feComposite
         in="SourceGraphic"
         in2="result1"
         id="feComposite10" />
    </filter>
    <filter
       id="Rectangle_1855"
       x="40.5"
       y="273.5"
       width="185"
       height="72"
       filterUnits="userSpaceOnUse">
      <feOffset
         dy="3"
         input="SourceAlpha"
         id="feOffset13" />
      <feGaussianBlur
         stdDeviation="3"
         result="blur-2"
         id="feGaussianBlur15" />
      <feFlood
         flood-color="#98984b"
         flood-opacity="0.129"
         id="feFlood17" />
      <feComposite
         operator="in"
         in2="blur-2"
         id="feComposite19"
         result="result1" />
      <feComposite
         in="SourceGraphic"
         in2="result1"
         id="feComposite21" />
    </filter>
  </defs>
  <g
     id="Groupe_685"
     data-name="Groupe 685"
     transform="translate(-178.5,-2243.5)">
    <g
       id="undraw_play_time_7k7b"
       transform="translate(165.53633,2228.5769)">
      <path
         id="Tracé_574"
         data-name="Tracé 574"
         d="m 600.213,181.59 c 0,0 0.481,0.551 -0.343,1.617 -0.824,1.066 -0.159,3.379 1.406,3.438 1.565,0.059 2.324,0.714 1.947,1.578 -0.377,0.864 -0.831,2.915 0.874,2.6 1.705,-0.315 2.243,0.367 1.941,0.888 -0.302,0.521 0.76,-1.037 0.76,-1.037 0,0 0.95,1.415 2.116,0.424 1.166,-0.991 1.629,-9.969 -0.747,-10.121 a 60.567,60.567 0 0 0 -7.954,0.613 z"
         transform="translate(-523.362,-161.214)"
         fill="#2f2e41" />
      <path
         id="Tracé_575"
         data-name="Tracé 575"
         d="m 390.505,275.229 0.542,3.791 h 2.437 l -0.812,-4.332 z"
         transform="translate(-301.606,-212.154)"
         fill="#9f616a" />
      <path
         id="Tracé_576"
         data-name="Tracé 576"
         d="m 646.52,377.83 c 0,0 3.249,2.979 2.437,3.249 -0.812,0.27 -3.791,3.52 -4.333,3.791 -0.484,0.242 -5.686,1.9 -4.874,0 a 7.122,7.122 0 0 1 2.708,-2.979 L 643,378.642 Z"
         transform="translate(-554.372,-313.266)"
         fill="#f2f2f2" />
      <path
         id="Tracé_577"
         data-name="Tracé 577"
         d="m 646.52,377.83 c 0,0 3.249,2.979 2.437,3.249 -0.812,0.27 -3.791,3.52 -4.333,3.791 -0.484,0.242 -5.686,1.9 -4.874,0 a 7.122,7.122 0 0 1 2.708,-2.979 L 643,378.642 Z"
         transform="translate(-554.372,-313.266)"
         opacity="0.1" />
      <path
         id="Tracé_578"
         data-name="Tracé 578"
         d="m 404.779,262.739 0.542,3.791 h 2.437 l -0.812,-4.333 z"
         transform="translate(-312.631,-202.508)"
         fill="#9f616a" />
      <path
         id="Tracé_579"
         data-name="Tracé 579"
         d="m 625.047,250.166 3.549,-11.735 c 0,0 -5.957,-5.416 -1.9,-7.04 4.057,-1.624 5.145,6.5 5.145,6.5 l -1.354,14.081 h -5.416 z"
         transform="translate(-543.082,-199.998)"
         fill="#ffb8b8" />
      <path
         id="Tracé_580"
         data-name="Tracé 580"
         d="m 640.94,276.725 c 0,0 -7,8.976 -5.936,10.31 1.064,1.334 2.958,9.457 2.958,9.457 0,0 -0.271,3.249 0.812,3.249 1.083,0 3.791,-0.542 3.791,-1.354 0,-0.812 -2.437,-11.1 -2.437,-11.1 l 7.04,-9.207 z"
         transform="translate(-550.688,-235.178)"
         fill="#98984b" />
      <path
         id="Tracé_581"
         data-name="Tracé 581"
         d="m 651.3,266.242 7.04,-3.791 c 0,0 4.874,2.437 3.52,4.6 -1.354,2.163 -7.582,7.853 -7.582,7.853 0,0 1.9,9.207 1.625,9.477 -0.275,0.27 -3.249,1.354 -4.062,1.083 -0.813,-0.271 -5.145,-10.831 -4.062,-11.373 1.083,-0.542 4.6,-6.228 4.6,-6.228 z"
         transform="translate(-560.508,-224.154)"
         fill="#98984b" />
      <path
         id="Tracé_582"
         data-name="Tracé 582"
         d="m 560.991,712.884 c 0,0 4.874,2.979 5.416,2.979 0.542,0 7.853,1.9 4.6,3.249 -3.253,1.349 -15.705,-0.542 -15.435,-1.354 0.27,-0.812 0,-5.686 0.542,-5.686 0.542,0 4.877,0.812 4.877,0.812 z"
         transform="translate(-489.422,-571.418)"
         fill="#2f2e41" />
      <path
         id="Tracé_583"
         data-name="Tracé 583"
         d="m 584.78,729.536 c 0,0 4.874,2.979 5.416,2.979 0.542,0 7.853,1.9 4.6,3.249 -3.253,1.349 -15.706,-0.542 -15.435,-1.354 0.271,-0.812 0,-5.686 0.542,-5.686 0.542,0 4.877,0.812 4.877,0.812 z"
         transform="translate(-507.796,-584.279)"
         fill="#2f2e41" />
      <path
         id="Tracé_584"
         data-name="Tracé 584"
         d="m 561.529,469.1 a 38.633,38.633 0 0 0 2.166,7.04 c 1.354,2.979 -0.271,17.059 -1.083,19.226 -0.812,2.167 -8.665,27.891 -6.228,28.162 a 61.753,61.753 0 0 0 7.311,0 l 7.853,-24.641 -1.354,-33.036 z"
         transform="translate(-489.689,-381.249)"
         fill="#575a88" />
      <path
         id="Tracé_585"
         data-name="Tracé 585"
         d="m 561.529,469.1 a 38.633,38.633 0 0 0 2.166,7.04 c 1.354,2.979 -0.271,17.059 -1.083,19.226 -0.812,2.167 -8.665,27.891 -6.228,28.162 a 61.753,61.753 0 0 0 7.311,0 l 7.853,-24.641 -1.354,-33.036 z"
         transform="translate(-489.689,-381.249)"
         opacity="0.1" />
      <path
         id="Tracé_586"
         data-name="Tracé 586"
         d="m 574.574,466.428 c 0,0 1.083,7.311 3.52,8.936 2.437,1.625 1.625,3.249 1.625,3.249 l -1.083,14.352 c 0,0 -10.561,26 -7.311,29.245 3.25,3.245 6.228,1.9 7.582,1.625 1.354,-0.275 3.791,-5.957 2.437,-7.582 -1.354,-1.625 2.708,-11.373 3.791,-13 1.083,-1.627 0,-3.791 1.354,-4.333 1.354,-0.542 4.333,-4.062 4.333,-6.5 0,-2.438 3.791,-28.432 1.354,-30.057 -2.437,-1.625 -18.058,3.353 -18.058,3.353 z"
         transform="translate(-501.11,-378.306)"
         fill="#575a88" />
      <circle
         id="Ellipse_57"
         data-name="Ellipse 57"
         cx="5.9569998"
         cy="5.9569998"
         transform="translate(62.362,38.297)"
         fill="#ffb8b8"
         r="5.9569998" />
      <circle
         id="Ellipse_58"
         data-name="Ellipse 58"
         cx="4.8740001"
         cy="4.8740001"
         transform="translate(76.984,17.718)"
         fill="#9f616a"
         r="4.8740001" />
      <path
         id="Tracé_587"
         data-name="Tracé 587"
         d="m 566.282,288.62 c 0,0 3.249,5.957 4.874,5.957 1.625,0 -6.5,6.228 -6.5,6.228 0,0 -2.708,-7.853 -3.249,-8.124 -0.541,-0.271 4.875,-4.061 4.875,-4.061 z"
         transform="translate(-493.901,-244.365)"
         fill="#ffb8b8" />
      <path
         id="Tracé_588"
         data-name="Tracé 588"
         d="m 558.193,306.9 c 0,0 -7.04,2.437 -6.77,3.249 0.27,0.812 -1.9,2.708 -1.9,3.52 0,0.812 -0.542,8.124 2.708,14.081 3.25,5.957 8.394,10.29 5.957,13 -2.437,2.71 -6.228,7.311 -2.166,7.311 4.062,0 10.56,-5.957 16.518,-3.791 5.958,2.166 4.6,-5.957 4.6,-5.957 0,0 0.812,-6.228 -0.812,-8.124 -1.624,-1.896 -7.311,-15.435 -7.311,-17.059 0,-1.624 -5.416,-7.853 -6.77,-7.853 -1.354,0 -4.054,1.623 -4.054,1.623 z"
         transform="translate(-484.728,-257.227)"
         fill="#8985a8" />
      <path
         id="Tracé_589"
         data-name="Tracé 589"
         d="M 624.579,206.546"
         transform="translate(-542.721,-180.975)"
         fill="none"
         stroke="#2f2e41"
         stroke-miterlimit="10"
         stroke-width="1" />
      <path
         id="Tracé_590"
         data-name="Tracé 590"
         d="m 630.526,196.441 a 46.258,46.258 0 0 1 2.321,4.939 c 0.116,0.747 3.907,-4.939 3.907,-4.939 l -4.333,-2.979 z"
         transform="translate(-547.314,-170.87)"
         fill="#9f616a" />
      <path
         id="Tracé_591"
         data-name="Tracé 591"
         d="m 632.053,204.283 4.6,-4.874 5.416,2.437 c 0,0 5.051,11.1 5.369,11.914 0.318,0.814 -8.077,4.6 -8.889,4.6 -0.812,0 -6.5,-8.394 -6.5,-8.394 0,0 -1.349,-4.058 0.004,-5.683 z"
         transform="translate(-548.029,-175.463)"
         fill="#f2f2f2" />
      <path
         id="Tracé_592"
         data-name="Tracé 592"
         d="m 359.579,155.145 v 4.874 h 3.249 l -1.069,-4.874 z"
         transform="translate(-277.72,-119.826)"
         fill="#9f616a" />
      <path
         id="Tracé_593"
         data-name="Tracé 593"
         d="m 625.923,265.424 a 2.02,2.02 0 0 0 -1.908,1.282 c -0.212,0.573 -0.14,1.174 0.866,1.426 2.166,0.542 2.437,0 2.437,0 0,0 3.761,-0.542 2.963,-1.625 -0.798,-1.083 -2.963,-1.083 -2.963,-1.083 z"
         transform="translate(-542.21,-226.45)"
         fill="#9f616a" />
      <path
         id="Tracé_594"
         data-name="Tracé 594"
         d="m 660.794,368.314 c 0,0 3.249,2.979 2.437,3.249 -0.812,0.27 -3.791,3.52 -4.333,3.791 -0.484,0.242 -5.687,1.9 -4.874,0 a 7.122,7.122 0 0 1 2.708,-2.979 l 0.542,-3.249 z"
         transform="translate(-565.396,-305.917)"
         fill="#f2f2f2" />
      <path
         id="Tracé_595"
         data-name="Tracé 595"
         d="m 531.5,262.47 c 0.373,-0.218 0.813,-0.49 0.823,-0.922 a 0.816,0.816 0 0 0 -0.535,-0.717 2.4,2.4 0 0 0 -0.936,-0.126 1.218,1.218 0 0 0 -0.362,0.036 c -0.308,0.1 -0.486,0.408 -0.729,0.621 a 3.046,3.046 0 0 1 -1.292,0.517 8.459,8.459 0 0 0 -2.166,0.9 1.015,1.015 0 0 0 -0.343,0.282 1.384,1.384 0 0 0 -0.138,0.7 7.018,7.018 0 0 1 -1.022,2.539 2.783,2.783 0 0 0 -0.2,2.634 8.985,8.985 0 0 1 0.536,0.76 c 0.342,0.713 -0.085,1.59 0.162,2.341 a 2.049,2.049 0 0 0 0.518,0.777 4.121,4.121 0 0 0 1.706,1.033 c 0.615,0.189 1.379,0.316 1.62,0.913 a 4.852,4.852 0 0 0 0.228,0.792 1.255,1.255 0 0 0 0.89,0.446 3.8,3.8 0 0 0 1.153,0.083 1.43,1.43 0 0 0 0.994,-0.532 2.908,2.908 0 0 1 0.4,-0.594 c 0.392,-0.328 0.988,-0.069 1.491,-0.156 a 1.091,1.091 0 0 0 0.855,-0.8 1.52,1.52 0 0 1 0.173,-0.613 c 0.313,-0.4 1.136,-0.118 1.342,-0.582 0.134,-0.3 -0.147,-0.62 -0.418,-0.808 a 11.894,11.894 0 0 1 -1.334,-0.9 1.553,1.553 0 0 1 -0.566,-1.431 c 0.186,-0.785 1.211,-1.217 1.245,-2.024 a 1.45,1.45 0 0 0 -0.684,-1.142 10.538,10.538 0 0 1 -1.134,-0.794 c -0.243,-0.235 -0.426,-0.53 -0.69,-0.741 a 3.236,3.236 0 0 0 -1.738,-0.49 c -0.326,-0.033 -1.627,-0.184 -1.576,-0.681 0.047,-0.415 1.397,-1.127 1.727,-1.321 z"
         transform="translate(-465.304,-222.801)"
         fill="#2f2e41" />
      <path
         id="Tracé_596"
         data-name="Tracé 596"
         d="m 621.948,219.63 c 0,0 -2.979,1.083 -2.979,2.437 0,1.354 -1.354,5.686 0,5.686 a 16.565,16.565 0 0 0 4.062,-1.039 z"
         transform="translate(-537.923,-191.081)"
         fill="#f2f2f2" />
      <path
         id="Tracé_597"
         data-name="Tracé 597"
         d="m 623.58,232.7 c 0,0 7.853,-2.708 8.124,-2.708 0.271,0 4.062,-2.166 3.791,-2.979 l -1.083,-6.77 c 0,0 -4.333,-8.936 -1.354,-8.936 2.979,0 4.6,7.04 4.6,7.04 0,0 6.5,12.185 2.979,14.893 -3.521,2.708 -18.142,7.582 -18.955,6.77 -0.813,-0.812 1.898,-7.31 1.898,-7.31 z"
         transform="translate(-540.367,-184.65)"
         fill="#ffb8b8" />
      <path
         id="Tracé_598"
         data-name="Tracé 598"
         d="m 651.834,217.8 1.828,1.761 -2.369,2.3 c 0,0 -3.249,-1.354 -2.979,-0.542 0.27,0.812 1.9,3.249 2.979,3.249 1.079,0 6.72,-3.52 6.745,-4.6 0.025,-1.08 -3.5,-4.874 -4.308,-5.145 -0.808,-0.271 -1.896,2.977 -1.896,2.977 z"
         transform="translate(-561.04,-187.352)"
         fill="#9f616a" />
      <path
         id="Tracé_599"
         data-name="Tracé 599"
         d="m 648.735,208.183 c 0,0 3.978,3.512 4.52,3.512 0.542,0 1.526,-5.277 1.526,-5.277 0,0 -3.21,-2.092 -4.4,-1.521 -1.19,0.571 -1.646,3.286 -1.646,3.286 z"
         transform="translate(-561.377,-179.625)"
         fill="#f2f2f2" />
      <path
         id="Tracé_600"
         data-name="Tracé 600"
         d="m 587.706,306.684 c 0,0 0,-3.791 8.123,-3.791 h 3.52 l -1.625,8.936 -5.416,1.625 z"
         transform="translate(-514.241,-255.389)"
         fill="#8985a8" />
      <path
         id="Tracé_601"
         data-name="Tracé 601"
         d="m 615.9,167.788 a 21.03,21.03 0 0 1 -2.382,-0.147 6.646,6.646 0 0 0 -2.267,-3.229 8.577,8.577 0 0 0 -2.278,-1.25 c -1.8,-0.766 -4.808,-0.288 -4.983,0.583 -3.55,1.7 -2.653,4.676 -2.653,4.676 0.552,1.166 1.789,0.649 2.839,0.121 a 2.075,2.075 0 0 0 1.808,1.6 c 1.734,0.065 2.574,0.791 2.157,1.748 -0.417,0.957 -0.92,3.229 0.968,2.884 1.888,-0.345 2.485,0.406 2.151,0.984 -0.334,0.578 0.842,-1.149 0.842,-1.149 0,0 1.052,1.567 2.344,0.47 a 0.98,0.98 0 0 0 0.269,-0.461 1.941,1.941 0 0 0 1.346,0.236 c 1.547,-0.692 0.586,-2.317 0.586,-2.317 0,0 2.065,-0.317 1.4,-0.264 -0.665,0.053 -1.086,-0.81 0.04,-2.365 1.126,-1.555 -1.144,-2.085 -2.187,-2.12 z"
         transform="translate(-524.691,-147.171)"
         fill="#2f2e41" />
      <rect
         id="Rectangle_1986"
         data-name="Rectangle 1986"
         width="0.81199998"
         height="2.437"
         transform="matrix(0.949,0.316,-0.316,0.949,79.963,19.141)"
         fill="#98984b"
         x="0"
         y="0" />
    </g>
    <g
       transform="translate(178.5,2243.5)"
       filter="url(#Rectangle_1855)"
       id="g67" />
    <text
       id="Découvrir"
       transform="translate(257.074,2557)"
       fill="#ffffff"
       font-size="20px"
       font-family="HelveticaNeue-Medium, 'Helvetica Neue'"
       font-weight="500"><tspan
         x="0"
         y="0"
         id="tspan69">Découvrir</tspan></text>
    <path
       id="Tracé_224"
       data-name="Tracé 224"
       d="M 1.7,0.8 6.944,6.044 1.7,11.288"
       transform="translate(357.984,2545.7)"
       fill="none"
       stroke="#ffffff"
       stroke-miterlimit="10"
       stroke-width="2" />
  </g>
</svg>
