<?xml version="1.0" encoding="UTF-8" standalone="no"?>
<svg
   xmlns:dc="http://purl.org/dc/elements/1.1/"
   xmlns:cc="http://creativecommons.org/ns#"
   xmlns:rdf="http://www.w3.org/1999/02/22-rdf-syntax-ns#"
   xmlns:svg="http://www.w3.org/2000/svg"
   xmlns="http://www.w3.org/2000/svg"
   xmlns:sodipodi="http://sodipodi.sourceforge.net/DTD/sodipodi-0.dtd"
   xmlns:inkscape="http://www.inkscape.org/namespaces/inkscape"
   width="135"
   height="135"
   viewBox="0 0 135 135"
   version="1.1"
   id="svg79"
   sodipodi:docname="icon C entrepreneur.svg"
   inkscape:version="1.0.1 (3bc2e813f5, 2020-09-07)">
  <metadata
     id="metadata83">
    <rdf:RDF>
      <cc:Work
         rdf:about="">
        <dc:format>image/svg+xml</dc:format>
        <dc:type
           rdf:resource="http://purl.org/dc/dcmitype/StillImage" />
        <dc:title></dc:title>
      </cc:Work>
    </rdf:RDF>
  </metadata>
  <sodipodi:namedview
     pagecolor="#ffffff"
     bordercolor="#666666"
     borderopacity="1"
     objecttolerance="10"
     gridtolerance="10"
     guidetolerance="10"
     inkscape:pageopacity="0"
     inkscape:pageshadow="2"
     inkscape:window-width="1360"
     inkscape:window-height="745"
     id="namedview81"
     showgrid="false"
     inkscape:zoom="1.4744898"
     inkscape:cx="265.20373"
     inkscape:cy="157.38358"
     inkscape:window-x="-8"
     inkscape:window-y="-8"
     inkscape:window-maximized="1"
     inkscape:current-layer="Groupe_689" />
  <defs
     id="defs24">
    <filter
       id="Rectangle_29"
       x="0"
       y="0"
       width="284"
       height="392"
       filterUnits="userSpaceOnUse">
      <feOffset
         dx="9"
         dy="9"
         input="SourceAlpha"
         id="feOffset2" />
      <feGaussianBlur
         stdDeviation="4.5"
         result="blur"
         id="feGaussianBlur4" />
      <feFlood
         flood-opacity="0.161"
         id="feFlood6" />
      <feComposite
         operator="in"
         in2="blur"
         id="feComposite8"
         result="result1" />
      <feComposite
         in="SourceGraphic"
         in2="result1"
         id="feComposite10" />
    </filter>
    <filter
       id="Rectangle_1855"
       x="52.5"
       y="273.5"
       width="185"
       height="72"
       filterUnits="userSpaceOnUse">
      <feOffset
         dy="3"
         input="SourceAlpha"
         id="feOffset13" />
      <feGaussianBlur
         stdDeviation="3"
         result="blur-2"
         id="feGaussianBlur15" />
      <feFlood
         flood-color="#98984b"
         flood-opacity="0.129"
         id="feFlood17" />
      <feComposite
         operator="in"
         in2="blur-2"
         id="feComposite19"
         result="result1" />
      <feComposite
         in="SourceGraphic"
         in2="result1"
         id="feComposite21" />
    </filter>
  </defs>
  <g
     id="Groupe_689"
     data-name="Groupe 689"
     transform="translate(-1476.5,-2243.5)">
    <g
       id="undraw_Business_deal_re_up4u"
       transform="translate(1433.9353,2222.5983)">
      <circle
         id="Ellipse_20"
         data-name="Ellipse 20"
         cx="4.5669999"
         cy="4.5669999"
         transform="translate(104.318,53.989)"
         fill="#98984b"
         r="4.5669999" />
      <path
         id="Tracé_253"
         data-name="Tracé 253"
         d="m 587.1,349.038 a 0.369,0.369 0 0 0 -0.51,0 15.132,15.132 0 0 0 -2.592,2.647 l -0.554,-1.072 c -0.213,-0.412 -0.836,-0.048 -0.623,0.364 l 0.81,1.568 a 0.365,0.365 0 0 0 0.623,0 14.6,14.6 0 0 1 2.845,-3 0.363,0.363 0 0 0 10e-4,-0.507 z"
         transform="translate(-475.865,-292.385)"
         fill="#ffffff" />
      <path
         id="Tracé_254"
         data-name="Tracé 254"
         d="m 484.22,363.479 -6.887,-10.816 7.975,-4.271 2.093,8.252 14.749,7.97 a 3.189,3.189 0 1 1 -1.815,4.338 z"
         transform="translate(-395.771,-291.972)"
         fill="#a0616a" />
      <path
         id="Tracé_255"
         data-name="Tracé 255"
         d="m 455.187,303.03 c -2.164,3.177 5.526,14.726 5.526,14.726 0.375,-0.808 3.956,8.261 4.556,7.725 1.7,-1.522 4.373,-5.763 5.857,-5.952 0.848,-0.108 -1.967,-6.125 -1.967,-6.125 0,0 -1.287,-3.553 -3.033,-8.091 a 8.15,8.15 0 0 0 -5.92,-5.177 c 0,0 -2.855,-0.283 -5.019,2.894 z"
         transform="translate(-378.656,-255.311)"
         fill="#3f3d56" />
      <path
         id="Tracé_256"
         data-name="Tracé 256"
         d="m 236.173,560.622 h 3.271 L 241,548.005 h -4.828 z"
         transform="translate(-159.536,-409.388)"
         fill="#a0616a" />
      <path
         id="Tracé_257"
         data-name="Tracé 257"
         d="m 453.368,733.766 h 0.921 l 3.594,-1.462 1.927,1.461 v 0 a 4.105,4.105 0 0 1 4.105,4.1 V 738 h -10.546 z"
         transform="translate(-377.567,-583.6)"
         fill="#2f2e41" />
      <path
         id="Tracé_258"
         data-name="Tracé 258"
         d="m 299.39,560.622 h 3.271 l 1.556,-12.616 h -4.827 z"
         transform="translate(-207.557,-409.388)"
         fill="#a0616a" />
      <path
         id="Tracé_259"
         data-name="Tracé 259"
         d="m 516.585,733.766 h 0.921 l 3.594,-1.466 1.927,1.461 v 0 a 4.105,4.105 0 0 1 4.105,4.1 V 738 h -10.547 z"
         transform="translate(-425.587,-583.6)"
         fill="#2f2e41" />
      <path
         id="Tracé_260"
         data-name="Tracé 260"
         d="m 447.5,455.889 -21.275,0.532 c -4.041,2.195 -4.1,6.945 -2.778,12.584 0,0 -0.447,3.352 0.447,4.246 0.894,0.894 1.341,0.894 0.894,2.458 -0.447,1.564 1.914,4.119 1.628,4.406 a 11.562,11.562 0 0 0 -0.957,1.851 l 2.235,12.738 c 0,0 1.564,22.123 2.011,22.57 0.447,0.447 0.894,0 0.447,1.117 -0.447,1.117 -0.894,0.67 -0.447,1.117 a 16.44,16.44 0 0 1 1.117,1.341 h 5.4 c 0,0 0.407,-2.235 0.407,-2.458 0,-0.223 0.447,-1.564 0.447,-1.788 0,-0.224 -0.4,-0.618 -0.4,-0.618 a 7.356,7.356 0 0 1 -0.275,-1.393 c 0,-0.447 -1.341,-17.654 -1.341,-17.654 l 2.682,-22.347 6.481,21.9 c 0,0 0,19.218 0.447,19.665 0.447,0.447 0.447,0.223 0.223,1.117 -0.224,0.894 -1.117,0.67 -0.447,1.341 0.67,0.671 0.894,-0.447 0.67,0.67 l -0.216,1.116 6.7,0.1 c 0,0 0.894,-1.884 0.447,-2.554 -0.447,-0.67 -0.42,-0.487 0.125,-1.585 0.545,-1.098 0.769,-1.321 0.545,-1.544 -0.224,-0.223 -0.223,-1.412 -0.223,-1.412 l -1.117,-21.382 c 0,0 -0.223,-22.57 -0.223,-23.241 a 2.23,2.23 0 0 1 0.186,-1.005 v -0.91 l -0.856,-3.224 z"
         transform="translate(-354.253,-373.629)"
         fill="#2f2e41" />
      <circle
         id="Ellipse_21"
         data-name="Ellipse 21"
         cx="6.6100001"
         cy="6.6100001"
         transform="translate(73.857,24.801)"
         fill="#a0616a"
         r="6.6100001" />
      <path
         id="Tracé_261"
         data-name="Tracé 261"
         d="m 433.294,279.874 a 6.824,6.824 0 0 1 2.765,3.985 37.765,37.765 0 0 1 1.623,9.023 l 0.517,9.168 6.4,19.522 c -5.544,4.691 -26.384,1.066 -26.384,1.066 0,0 -0.64,-0.213 0,-0.853 0.64,-0.64 1.262,-0.073 0.623,-0.713 -0.639,-0.64 -0.2,0.073 0.015,-0.567 0.215,-0.64 0,-0.213 -0.213,-0.426 -0.213,-0.213 1.651,-2.132 1.651,-2.132 l -1.706,-11.206 -2.132,-22.6 c 2.559,-3.2 7.705,-5.084 7.705,-5.084 l 1.33,-2.393 6.648,0.532 z"
         transform="translate(-349.521,-237.484)"
         fill="#3f3d56" />
      <path
         id="Tracé_262"
         data-name="Tracé 262"
         d="m 454.371,213.242 a 3.063,3.063 0 0 1 1.088,1.529 21.531,21.531 0 0 0 0.014,-3 c -0.078,-0.7 -0.572,-0.86 -1.144,-1.043 -0.517,-0.165 -1.1,-0.352 -1.259,-1.033 -2.078,-2.021 -5.7,-1.92 -8.171,-1.214 -1.362,0.388 -2.146,0.887 -2.216,1.179 l -0.015,0.06 -0.055,0.028 c -1.05,0.525 -1.254,2.183 -1.241,3.481 0.026,2.446 0.87,5.224 1.346,5.45 0.025,0.012 0.032,0.007 0.042,0 v 0 c 0.716,-0.573 1.59,0.044 1.975,0.378 a 6.875,6.875 0 0 1 6.156,-5.831 10.792,10.792 0 0 0 1.484,-0.249 3.123,3.123 0 0 1 0.758,-0.1 2.157,2.157 0 0 1 1.238,0.365 z"
         transform="translate(-368.454,-185.343)"
         fill="#2f2e41" />
      <path
         id="Tracé_263"
         data-name="Tracé 263"
         d="m 650.037,397.469 12.716,-12.913 3.35,-10.327 -5.391,-2.181 c -2.671,2.694 -5.42,10.941 -5.42,10.941 l -8.679,11.648 c -0.069,0.026 -0.138,0.053 -0.206,0.085 a 2.569,2.569 0 1 0 3.63,2.746 z"
         transform="translate(-523.084,-309.942)"
         fill="#ffb8b8" />
      <path
         id="Tracé_264"
         data-name="Tracé 264"
         d="m 704.453,337.851 6.818,1.972 h 0.025 c 2.506,-0.487 4.488,-4.651 5.71,-8.06 a 4.71,4.71 0 0 0 -2.552,-5.9 v 0 a 4.721,4.721 0 0 0 -4.927,0.751 l -3.4,2.927 z"
         transform="translate(-568.296,-274.563)"
         fill="#98984b" />
      <path
         id="Tracé_265"
         data-name="Tracé 265"
         d="m 442.422,554.2 h -3.667 l -1.744,-14.143 h 5.411 z"
         transform="translate(-312.098,-403.352)"
         fill="#ffb8b8" />
      <path
         id="Tracé_266"
         data-name="Tracé 266"
         d="m 646.715,731.073 h -1.032 l -4.029,-1.639 -2.16,1.638 v 0 a 4.6,4.6 0 0 0 -4.6,4.6 v 0.15 h 11.823 z"
         transform="translate(-515.456,-581.42)"
         fill="#2f2e41" />
      <path
         id="Tracé_267"
         data-name="Tracé 267"
         d="m 510.1,554.2 h -3.667 l -1.744,-14.143 h 5.412 z"
         transform="translate(-363.512,-403.352)"
         fill="#ffb8b8" />
      <path
         id="Tracé_268"
         data-name="Tracé 268"
         d="m 714.4,731.073 h -1.032 l -4.029,-1.639 -2.16,1.638 v 0 a 4.6,4.6 0 0 0 -4.6,4.6 v 0.15 H 714.4 Z"
         transform="translate(-566.87,-581.42)"
         fill="#2f2e41" />
      <path
         id="Tracé_269"
         data-name="Tracé 269"
         d="m 675.066,483.071 a 38.921,38.921 0 0 1 -0.642,10.061 c -1.07,4.924 -1.07,18.79 -1.07,18.79 l -2.354,27.022 -7.064,-0.642 -1.927,-45.169 -6.85,15.2 0.642,2.141 -0.855,0.535 c 0,0 0.641,4.174 0.213,4.174 a 5.115,5.115 0 0 0 -1.5,0.642 l 0.856,22.05 -7.278,-0.214 -2.569,-31.041 2.783,-17.768 0.214,-3.425 0.963,0.04 0.49,-1.431 0.9,-2.462 z"
         transform="translate(-522.881,-393.139)"
         fill="#2f2e41" />
      <path
         id="Tracé_270"
         data-name="Tracé 270"
         d="m 687.613,336.674 0.038,-0.054 c 2.038,-2.853 -1.027,-9.708 -1.489,-10.7 l 1.947,-0.632 -0.438,-3.727 -0.208,-1.661 1.488,-1.488 v -0.037 l 0.856,-7.493 1.245,-4.976 a 10.926,10.926 0 0 0 -3.1,-10.588 l -2.878,-2.713 -3.5,-5.175 h -5.64 L 674,291.083 a 8.221,8.221 0 0 0 -6.361,8.393 l 0.438,9.58 -1.716,11.928 v 2.159 l -1.931,2.146 0.422,2.108 -1.47,0.63 -0.649,3.028 c -0.269,0.354 -2.041,2.718 -2.041,3.364 0,0.1 0.072,0.191 0.225,0.295 1.208,0.818 7.884,2.485 10.839,1.3 3.148,-1.259 15.659,0.629 15.786,0.649 z"
         transform="translate(-535.058,-241.898)"
         fill="#98984b" />
      <circle
         id="Ellipse_22"
         data-name="Ellipse 22"
         cx="7.4699998"
         cy="7.4699998"
         transform="translate(135.503,25.156)"
         fill="#ffb8b8"
         r="7.4699998" />
      <path
         id="Tracé_271"
         data-name="Tracé 271"
         d="m 699.953,226.636 a 20.314,20.314 0 0 0 3.448,-0.331 10.3,10.3 0 0 0 4.29,-3.317 v 0 a 9.98,9.98 0 0 0 0.97,-3.095 9.081,9.081 0 0 0 -1.774,-7.166 2.87,2.87 0 0 0 -1.184,-0.959 c -0.042,-0.015 -0.085,-0.028 -0.128,-0.04 a 3.54,3.54 0 0 1 -1.788,-1.044 2.938,2.938 0 0 0 -0.3,-0.294 4.36,4.36 0 0 0 -1.842,-0.866 c -1.089,-0.261 -2.646,0.066 -4.628,0.975 a 4.893,4.893 0 0 1 -2.953,0.167 0.277,0.277 0 0 0 -0.259,0.1 1.957,1.957 0 0 1 -1.316,0.565 c -0.3,0.021 -0.609,0.449 -0.979,1.005 -0.084,0.126 -0.182,0.274 -0.253,0.364 l -0.014,-0.169 -0.166,0.193 a 2.376,2.376 0 0 0 1.172,3.841 4.633,4.633 0 0 0 0.935,0.124 c 0.191,0.012 0.389,0.025 0.579,0.053 a 3.582,3.582 0 0 1 2.721,2.255 0.937,0.937 0 0 0 1.425,0.418 1.547,1.547 0 0 1 1.4,-0.293 1.027,1.027 0 0 1 0.467,0.5 1.339,1.339 0 0 0 0.523,0.579 c 0.778,0.376 0.876,2.127 0.638,3.6 -0.229,1.415 -0.728,2.448 -1.213,2.511 -0.373,0.048 -0.416,0.076 -0.441,0.143 l -0.023,0.06 0.044,0.054 a 1.529,1.529 0 0 0 0.649,0.067 z"
         transform="translate(-557.696,-186.42)"
         fill="#2f2e41" />
      <path
         id="Tracé_272"
         data-name="Tracé 272"
         d="m 609.063,365.829 -3.591,-4.575 c -3.657,1.007 -10.147,6.791 -10.147,6.791 L 582,373.829 a 2.568,2.568 0 1 0 1.56,4.16 l 17.458,-4.87 z"
         transform="translate(-473.003,-301.742)"
         fill="#ffb8b8" />
      <path
         id="Tracé_273"
         data-name="Tracé 273"
         d="m 681.6,334.68 5.665,-6.315 0.315,-4.475 a 4.721,4.721 0 0 0 -2.343,-4.4 v 0 a 4.71,4.71 0 0 0 -6.258,1.483 c -2,3.017 -4.155,7.1 -3.047,9.4 l 0.011,0.023 z"
         transform="translate(-546.403,-269.547)"
         fill="#98984b" />
      <path
         id="Tracé_274"
         data-name="Tracé 274"
         d="m 433.3,385.772 -14.724,-7.541 a 2.323,2.323 0 0 1 -0.773,-3.171 l 9.6,-18.746 a 2.323,2.323 0 0 1 3.025,-1.226 l 14.724,7.541 a 2.323,2.323 0 0 1 0.773,3.172 l -9.6,18.746 a 2.323,2.323 0 0 1 -3.025,1.225 z"
         transform="translate(-350.313,-296.903)"
         fill="#e6e6e6" />
      <path
         id="Tracé_275"
         data-name="Tracé 275"
         d="m 437.964,389.938 -10,-5.123 a 2.176,2.176 0 0 1 -0.724,-2.97 l 7.976,-15.573 a 2.176,2.176 0 0 1 2.834,-1.148 l 12.083,6.188 a 2.176,2.176 0 0 1 0.724,2.97 l -4.333,8.46 c -2.595,5.058 -4.191,9.433 -8.56,7.196 z"
         transform="translate(-357.496,-304.535)"
         fill="#ffffff" />
      <path
         id="Tracé_276"
         data-name="Tracé 276"
         d="m 464.619,416.066 -8.861,-4.538 a 0.554,0.554 0 0 1 0.5,-0.976 l 8.861,4.538 a 0.554,0.554 0 0 1 -0.5,0.976 z"
         transform="translate(-379.205,-339.168)"
         fill="#98984b" />
      <path
         id="Tracé_277"
         data-name="Tracé 277"
         d="m 453.672,420.586 -2.022,-1.036 a 0.554,0.554 0 0 1 0.5,-0.976 l 2.022,1.036 a 0.554,0.554 0 0 1 -0.5,0.976 z"
         transform="translate(-376.084,-345.262)"
         fill="#98984b" />
      <path
         id="Tracé_278"
         data-name="Tracé 278"
         d="m 453.144,430.443 -5.6,-2.87 a 0.554,0.554 0 0 1 0.5,-0.976 l 5.6,2.87 a 0.554,0.554 0 0 1 -0.5,0.976 z"
         transform="translate(-372.963,-351.356)"
         fill="#98984b" />
      <path
         id="Tracé_279"
         data-name="Tracé 279"
         d="m 479.206,387.584 -8.861,-4.538 a 0.554,0.554 0 0 1 0.5,-0.976 l 8.861,4.538 a 0.554,0.554 0 0 1 -0.5,0.976 z"
         transform="translate(-390.286,-317.533)"
         fill="#98984b" />
      <path
         id="Tracé_280"
         data-name="Tracé 280"
         d="m 468.259,392.1 -2.022,-1.036 a 0.554,0.554 0 0 1 0.5,-0.976 l 2.022,1.036 a 0.554,0.554 0 0 1 -0.5,0.976 z"
         transform="translate(-387.165,-323.626)"
         fill="#98984b" />
      <path
         id="Tracé_281"
         data-name="Tracé 281"
         d="m 467.731,401.961 -5.6,-2.87 a 0.554,0.554 0 0 1 0.5,-0.976 l 5.6,2.87 a 0.554,0.554 0 0 1 -0.5,0.976 z"
         transform="translate(-384.044,-329.72)"
         fill="#98984b" />
      <path
         id="Tracé_282"
         data-name="Tracé 282"
         d="m 421.974,371.043 -3.326,-12.384 8.889,-1.683 -0.478,8.5 11.679,12.024 a 3.189,3.189 0 1 1 -3.032,3.594 z"
         transform="translate(-351.192,-298.493)"
         fill="#a0616a" />
      <path
         id="Tracé_283"
         data-name="Tracé 283"
         d="m 411.228,301.408 c -3.017,2.382 0.855,15.706 0.855,15.706 0.6,-0.658 1.3,9.067 2.029,8.736 2.083,-0.941 5.9,-4.186 7.372,-3.922 0.842,0.151 -0.04,-6.433 -0.04,-6.433 0,0 -0.162,-3.775 -0.467,-8.628 a 8.15,8.15 0 0 0 -4.095,-6.714 c 0,0 -2.637,-1.127 -5.654,1.255 z"
         transform="translate(-344.682,-255.127)"
         fill="#3f3d56" />
      <path
         id="Tracé_284"
         data-name="Tracé 284"
         d="M 596.039,476.563 588,472.769 a 1.257,1.257 0 0 1 -0.69,-0.852 1.231,1.231 0 0 1 0.229,-1.049 24.178,24.178 0 0 0 4.667,-10.157 1.249,1.249 0 0 1 1.224,-1.007 c 4.1,0.014 7.161,1.51 9.1,4.447 a 1.265,1.265 0 0 1 0.166,1.052 39.549,39.549 0 0 1 -5.074,10.915 1.255,1.255 0 0 1 -1.583,0.445 z"
         transform="translate(-479.289,-376.527)"
         fill="#e6e6e6" />
      <path
         id="Tracé_285"
         data-name="Tracé 285"
         d="m 612.983,494.7 -6.144,-2.9 a 0.6374451,0.6374451 0 1 1 0.544,-1.153 l 6.144,2.9 a 0.6374451,0.6374451 0 1 1 -0.544,1.153 z"
         transform="translate(-493.869,-399.985)"
         fill="#ffffff" />
      <path
         id="Tracé_286"
         data-name="Tracé 286"
         d="m 616.953,486.291 -6.144,-2.9 a 0.6374451,0.6374451 0 1 1 0.544,-1.153 l 6.144,2.9 a 0.6374451,0.6374451 0 0 1 -0.544,1.153 z"
         transform="translate(-496.885,-393.598)"
         fill="#ffffff" />
    </g>
    <g
       transform="translate(1476.5,2243.5)"
       filter="url(#Rectangle_1855)"
       id="g71" />
    <text
       id="Découvrir"
       transform="translate(1567.074,2558)"
       fill="#ffffff"
       font-size="20px"
       font-family="HelveticaNeue-Medium, 'Helvetica Neue'"
       font-weight="500"><tspan
         x="0"
         y="0"
         id="tspan73">Découvrir</tspan></text>
    <path
       id="Tracé_224"
       data-name="Tracé 224"
       d="M 1.7,0.8 6.944,6.044 1.7,11.288"
       transform="translate(1667.984,2387.7)"
       fill="none"
       stroke="#ffffff"
       stroke-miterlimit="10"
       stroke-width="2" />
    <path
       id="Tracé_224-2"
       data-name="Tracé 224"
       d="M 1.7,0.8 6.944,6.044 1.7,11.288"
       transform="translate(1670.606,2545.7)"
       fill="none"
       stroke="#ffffff"
       stroke-miterlimit="10"
       stroke-width="2" />
  </g>
</svg>
