<?xml version="1.0" encoding="UTF-8" standalone="no"?>
<svg
   xmlns:dc="http://purl.org/dc/elements/1.1/"
   xmlns:cc="http://creativecommons.org/ns#"
   xmlns:rdf="http://www.w3.org/1999/02/22-rdf-syntax-ns#"
   xmlns:svg="http://www.w3.org/2000/svg"
   xmlns="http://www.w3.org/2000/svg"
   xmlns:sodipodi="http://sodipodi.sourceforge.net/DTD/sodipodi-0.dtd"
   xmlns:inkscape="http://www.inkscape.org/namespaces/inkscape"
   width="105"
   height="105"
   viewBox="0 0 105 105"
   version="1.1"
   id="svg32"
   sodipodi:docname="Groupe 684.svg"
   inkscape:version="1.0.1 (3bc2e813f5, 2020-09-07)">
  <metadata
     id="metadata36">
    <rdf:RDF>
      <cc:Work
         rdf:about="">
        <dc:format>image/svg+xml</dc:format>
        <dc:type
           rdf:resource="http://purl.org/dc/dcmitype/StillImage" />
        <dc:title></dc:title>
      </cc:Work>
    </rdf:RDF>
  </metadata>
  <sodipodi:namedview
     pagecolor="#ffffff"
     bordercolor="#666666"
     borderopacity="1"
     objecttolerance="10"
     gridtolerance="10"
     guidetolerance="10"
     inkscape:pageopacity="0"
     inkscape:pageshadow="2"
     inkscape:window-width="1360"
     inkscape:window-height="745"
     id="namedview34"
     showgrid="false"
     inkscape:zoom="3.0182768"
     inkscape:cx="104.44723"
     inkscape:cy="75.046226"
     inkscape:window-x="-8"
     inkscape:window-y="-8"
     inkscape:window-maximized="1"
     inkscape:current-layer="Groupe_684" />
  <defs
     id="defs15">
    <filter
       id="Rectangle_1935"
       x="0"
       y="0"
       width="308"
       height="383"
       filterUnits="userSpaceOnUse">
      <feOffset
         dy="3"
         input="SourceAlpha"
         id="feOffset2" />
      <feGaussianBlur
         stdDeviation="3"
         result="blur"
         id="feGaussianBlur4" />
      <feFlood
         flood-opacity="0.161"
         id="feFlood6" />
      <feComposite
         operator="in"
         in2="blur"
         id="feComposite8"
         result="result1" />
      <feComposite
         in="SourceGraphic"
         in2="result1"
         id="feComposite10" />
    </filter>
    <clipPath
       id="clip-path">
      <rect
         id="Rectangle_2682"
         data-name="Rectangle 2682"
         width="103.914"
         height="94.418999"
         fill="#ffffff"
         x="0"
         y="0" />
    </clipPath>
  </defs>
  <g
     id="Groupe_684"
     data-name="Groupe 684"
     transform="translate(-1223,-6851)">
    <g
       id="Groupe_622"
       data-name="Groupe 622"
       transform="translate(1387.3054,6834.9266)">
      <g
         id="Groupe_621"
         data-name="Groupe 621"
         clip-path="url(#clip-path)"
         transform="translate(-163.66955,21.204152)">
        <path
           id="Tracé_880"
           data-name="Tracé 880"
           d="M 48.259,50.365 A 29.882,29.882 0 0 1 42.971,49.159 C 34.787,46.5 30.492,50.5 29.026,55.946 c -1.139,4.137 -1.86,8.365 -2.829,12.548 -0.79,3.427 -1.6,6.843 -2.47,10.259 H 18.778 A 5.375,5.375 0 0 1 13.4,73.385 V 53.454 l -0.688,2.852 -0.1,0.395 -1.646,6.765 -0.034,0.158 -0.947,3.9 a 4.483,4.483 0 0 1 -6.2,2.8 C 2.352,69.564 0.9,68.978 0.357,67.411 -0.376,65.348 0.132,63.352 0.887,61.368 A 37.749,37.749 0 0 0 2.3,57.107 C 3.2,53.589 4.047,50.061 4.859,46.52 5.637,43.126 6.223,39.689 7.136,36.329 c 1.183,-4.42 4.655,-7.678 11.262,-5.513 a 25.617,25.617 0 0 0 15.287,0.1 c 3.359,-0.992 5.727,-0.958 7.474,-0.09 a 13.558,13.558 0 0 0 -2.04,7.08 c -0.09,5.491 3.969,10.518 9.075,12.209 0.023,0.079 0.045,0.169 0.068,0.248"
           transform="translate(0,-5.866)"
           fill="#ffffff" />
        <path
           id="Tracé_881"
           data-name="Tracé 881"
           d="M 40.05,10.337 C 40.313,15.874 35.124,20.684 29.933,20.728 24.521,20.775 19.477,15.871 19.576,10.385 A 10.16,10.16 0 0 1 29.87,0 10.052,10.052 0 0 1 40.05,10.337"
           transform="translate(-3.811)"
           fill="#ffffff" />
        <path
           id="Tracé_882"
           data-name="Tracé 882"
           d="m 117.206,66.938 c -0.507,2.131 -3.292,3.946 -5.841,3.833 a 4.5,4.5 0 0 1 -3.866,-3.247 V 67.5 l -0.35,-1.578 a 0.405,0.405 0 0 1 -0.023,-0.124 l -1.983,-8.884 -1.127,-5.1 V 73.387 A 5.364,5.364 0 0 1 98.65,78.753 H 94.884 C 93.678,74.323 92.573,69.87 91.456,65.416 90.634,62.09 90.42,58.584 89.292,55.36 87.319,49.588 83.859,46.78 75.369,49.283 A 33.228,33.228 0 0 1 69.123,50.5 c 0.035,-0.158 0.08,-0.327 0.114,-0.485 4.915,-1.781 8.962,-6.685 8.7,-12.164 a 13.155,13.155 0 0 0 -1.826,-6.844 c 1.826,-1.015 4.3,-1.24 7.486,-0.192 a 25.617,25.617 0 0 0 15.287,0.1 c 6.853,-2.029 9.638,0.248 11.24,4.938 0.9,2.616 1.082,5.468 1.748,8.162 1.364,5.5 2.728,11 4.329,16.437 0.642,2.153 1.543,4.183 1,6.483"
           transform="translate(-13.458,-5.866)"
           fill="#ffffff" />
        <path
           id="Tracé_883"
           data-name="Tracé 883"
           d="M 104.313,10.337 C 104.576,15.874 99.387,20.684 94.196,20.728 88.784,20.775 83.74,15.871 83.839,10.385 A 10.16,10.16 0 0 1 94.133,0 a 10.052,10.052 0 0 1 10.18,10.337"
           transform="translate(-16.322)"
           fill="#ffffff" />
        <path
           id="Tracé_884"
           data-name="Tracé 884"
           d="m 84.06,93.676 c -0.5,2.086 -3.179,3.867 -5.682,3.833 H 78.22 A 4.369,4.369 0 0 1 74.511,94.634 C 74.455,94.51 74.398,94.386 74.353,94.262 V 94.24 L 74,92.662 A 0.405,0.405 0 0 1 73.977,92.538 L 72,83.653 l -1.127,-5.1 v 21.566 a 5.365,5.365 0 0 1 -5.367,5.367 h -6.327 v -0.034 h -2.842 v 0.034 h -5.5 A 5.365,5.365 0 0 1 45.47,100.119 Q 45.453,95.588 45.459,91.067 V 80.193 l -0.688,2.852 -0.1,0.4 -1.648,6.755 -0.034,0.158 -0.947,3.9 a 4.747,4.747 0 0 1 -2.671,2.92 4.022,4.022 0 0 1 -3.53,-0.124 c -1.431,-0.755 -2.885,-1.342 -3.427,-2.909 -0.733,-2.063 -0.225,-4.059 0.53,-6.043 a 35.913,35.913 0 0 0 1.375,-4.149 c 0.011,-0.034 0.023,-0.079 0.034,-0.113 q 1.353,-5.275 2.558,-10.586 c 0.778,-3.394 1.364,-6.832 2.277,-10.191 1.185,-4.42 4.656,-7.678 11.263,-5.513 a 23.906,23.906 0 0 0 4.838,1.05 25.352,25.352 0 0 0 5.919,-0.011 27.423,27.423 0 0 0 4.532,-0.936 c 6.854,-2.029 9.639,0.248 11.24,4.938 0.9,2.616 1.082,5.467 1.748,8.162 1.094,4.408 2.187,8.828 3.416,13.2 0.293,1.082 0.6,2.165 0.913,3.236 0.643,2.153 1.544,4.183 1,6.483"
           transform="translate(-6.241,-11.072)"
           fill="#ffffff" />
        <path
           id="Tracé_885"
           data-name="Tracé 885"
           d="m 72.11,37.078 a 10.2,10.2 0 0 1 -5.547,9.143 9.334,9.334 0 0 1 -9.1,0.113 10.492,10.492 0 0 1 -5.828,-9.21 11.028,11.028 0 0 1 1.477,-5.457 10.3,10.3 0 0 1 17.711,0.225 10.623,10.623 0 0 1 1.284,5.186"
           transform="translate(-10.053,-5.206)"
           fill="#ffffff" />
      </g>
    </g>
  </g>
</svg>
