<?xml version="1.0" encoding="UTF-8" standalone="no"?>
<svg
   xmlns:dc="http://purl.org/dc/elements/1.1/"
   xmlns:cc="http://creativecommons.org/ns#"
   xmlns:rdf="http://www.w3.org/1999/02/22-rdf-syntax-ns#"
   xmlns:svg="http://www.w3.org/2000/svg"
   xmlns="http://www.w3.org/2000/svg"
   xmlns:sodipodi="http://sodipodi.sourceforge.net/DTD/sodipodi-0.dtd"
   xmlns:inkscape="http://www.inkscape.org/namespaces/inkscape"
   width="132"
   height="132"
   viewBox="0 0 132 132"
   version="1.1"
   id="svg55"
   sodipodi:docname="Icone B group.svg"
   inkscape:version="1.0.1 (3bc2e813f5, 2020-09-07)">
  <metadata
     id="metadata59">
    <rdf:RDF>
      <cc:Work
         rdf:about="">
        <dc:format>image/svg+xml</dc:format>
        <dc:type
           rdf:resource="http://purl.org/dc/dcmitype/StillImage" />
        <dc:title></dc:title>
      </cc:Work>
    </rdf:RDF>
  </metadata>
  <sodipodi:namedview
     pagecolor="#ffffff"
     bordercolor="#666666"
     borderopacity="1"
     objecttolerance="10"
     gridtolerance="10"
     guidetolerance="10"
     inkscape:pageopacity="0"
     inkscape:pageshadow="2"
     inkscape:window-width="1360"
     inkscape:window-height="745"
     id="namedview57"
     showgrid="false"
     inkscape:zoom="1.2470711"
     inkscape:cx="183"
     inkscape:cy="103.44238"
     inkscape:window-x="-8"
     inkscape:window-y="-8"
     inkscape:window-maximized="1"
     inkscape:current-layer="Groupe_630" />
  <defs
     id="defs24">
    <filter
       id="Rectangle_2690"
       x="0"
       y="124.486"
       width="366"
       height="339"
       filterUnits="userSpaceOnUse">
      <feOffset
         dx="9"
         dy="9"
         input="SourceAlpha"
         id="feOffset2" />
      <feGaussianBlur
         stdDeviation="4.5"
         result="blur"
         id="feGaussianBlur4" />
      <feFlood
         flood-opacity="0.161"
         id="feFlood6" />
      <feComposite
         operator="in"
         in2="blur"
         id="feComposite8"
         result="result1" />
      <feComposite
         in="SourceGraphic"
         in2="result1"
         id="feComposite10" />
    </filter>
    <filter
       id="Ellipse_19"
       x="45.014"
       y="0"
       width="269.97299"
       height="269.97299"
       filterUnits="userSpaceOnUse">
      <feOffset
         dx="6"
         dy="6"
         input="SourceAlpha"
         id="feOffset13" />
      <feGaussianBlur
         stdDeviation="3"
         result="blur-2"
         id="feGaussianBlur15" />
      <feFlood
         flood-color="#427db3"
         flood-opacity="0.224"
         id="feFlood17" />
      <feComposite
         operator="in"
         in2="blur-2"
         id="feComposite19"
         result="result1" />
      <feComposite
         in="SourceGraphic"
         in2="result1"
         id="feComposite21" />
    </filter>
  </defs>
  <g
     id="Groupe_630"
     data-name="Groupe 630"
     transform="translate(-583,-1278.014)">
    <g
       transform="translate(583,1278.01)"
       filter="url(#Rectangle_2690)"
       id="g27" />
    <text
       id="Nos_communautés"
       data-name="Nos communautés"
       transform="translate(749.238,1588)"
       fill="#ffffff"
       font-size="25px"
       font-family="HelveticaNeue-Bold, 'Helvetica Neue'"
       font-weight="700"><tspan
         x="-23.612"
         y="0"
         id="tspan29">Nos</tspan><tspan
         x="-85.162003"
         y="30"
         id="tspan31">communautés</tspan></text>
    <text
       id="Plus_d_infos"
       data-name="Plus d'infos"
       transform="translate(679.527,1686.75)"
       fill="#ffffff"
       font-size="25px"
       font-family="HelveticaNeue-Medium, 'Helvetica Neue'"
       font-weight="500"><tspan
         x="0"
         y="0"
         id="tspan34">Plus d'infos</tspan></text>
    <path
       id="Tracé_188"
       data-name="Tracé 188"
       d="M 1.7,0.8 8.685,7.785 1.7,14.769"
       transform="translate(820.582,1671.735)"
       fill="none"
       stroke="#ffffff"
       stroke-miterlimit="10"
       stroke-width="3" />
    <g
       transform="translate(583,1278.01)"
       filter="url(#Ellipse_19)"
       id="g39" />
    <g
       id="Groupe_473"
       data-name="Groupe 473"
       transform="translate(583.39435,1286.6792)">
      <g
         id="Groupe_468"
         data-name="Groupe 468">
        <path
           id="Tracé_189"
           data-name="Tracé 189"
           d="m 1321.662,319.435 a 37.561,37.561 0 0 1 -6.65,-1.517 c -10.3,-3.347 -15.7,1.688 -17.541,8.537 -1.432,5.2 -2.34,10.521 -3.559,15.782 -0.993,4.311 -2.014,8.607 -3.106,12.9 h -6.225 a 6.759,6.759 0 0 1 -6.763,-6.749 v -25.07 l -0.865,3.587 -0.127,0.5 -2.07,8.507 -0.043,0.2 -1.191,4.906 c -0.865,2.95 -4.538,5.233 -7.8,3.517 -1.8,-0.95 -3.63,-1.687 -4.31,-3.658 -0.923,-2.6 -0.284,-5.105 0.666,-7.6 a 47.546,47.546 0 0 0 1.773,-5.359 c 1.134,-4.424 2.2,-8.863 3.219,-13.316 0.978,-4.268 1.716,-8.592 2.864,-12.818 1.489,-5.559 5.857,-9.657 14.167,-6.934 a 32.217,32.217 0 0 0 19.227,0.128 c 4.226,-1.248 7.2,-1.205 9.4,-0.113 a 17.062,17.062 0 0 0 -2.567,8.905 c -0.114,6.906 4.992,13.23 11.415,15.357 0.03,0.096 0.058,0.209 0.086,0.308 z"
           transform="translate(-1260.964,-263.465)"
           fill="#484738" />
        <g
           id="Groupe_467"
           data-name="Groupe 467"
           transform="translate(19.828)">
          <path
             id="Tracé_190"
             data-name="Tracé 190"
             d="m 1306.292,276.856 c 0.33,6.963 -6.2,13.014 -12.725,13.069 -6.806,0.059 -13.152,-6.11 -13.026,-13.01 0.143,-7.886 6.018,-13.108 12.948,-13.061 a 12.643,12.643 0 0 1 12.803,13.002 z"
             transform="translate(-1280.539,-263.854)"
             fill="#484738" />
        </g>
      </g>
      <g
         id="Groupe_470"
         data-name="Groupe 470"
         transform="translate(70.015)">
        <path
           id="Tracé_191"
           data-name="Tracé 191"
           d="m 1390.564,340.28 c -0.638,2.68 -4.14,4.963 -7.344,4.821 a 5.653,5.653 0 0 1 -4.865,-4.084 v -0.028 l -0.44,-1.985 a 0.533,0.533 0 0 1 -0.029,-0.156 l -2.495,-11.174 -1.418,-6.409 v 27.126 a 6.747,6.747 0 0 1 -6.75,6.749 h -4.737 c -1.517,-5.572 -2.906,-11.173 -4.31,-16.775 -1.035,-4.183 -1.3,-8.593 -2.723,-12.648 -2.482,-7.26 -6.835,-10.791 -17.513,-7.643 a 41.774,41.774 0 0 1 -7.855,1.532 c 0.043,-0.2 0.1,-0.411 0.142,-0.61 6.181,-2.241 11.274,-8.408 10.948,-15.3 a 16.556,16.556 0 0 0 -2.3,-8.608 c 2.3,-1.276 5.4,-1.56 9.415,-0.241 a 32.224,32.224 0 0 0 19.229,0.128 c 8.621,-2.552 12.123,0.312 14.136,6.211 1.135,3.29 1.361,6.878 2.2,10.266 1.716,6.92 3.432,13.84 5.446,20.674 0.81,2.708 1.944,5.261 1.263,8.154 z"
           transform="translate(-1330.087,-263.465)"
           fill="#484738" />
        <g
           id="Groupe_469"
           data-name="Groupe 469"
           transform="translate(14.905)">
          <path
             id="Tracé_192"
             data-name="Tracé 192"
             d="m 1370.555,276.856 c 0.33,6.963 -6.2,13.014 -12.725,13.069 -6.807,0.059 -13.152,-6.11 -13.026,-13.01 0.143,-7.886 6.018,-13.108 12.948,-13.061 a 12.643,12.643 0 0 1 12.803,13.002 z"
             transform="translate(-1344.802,-263.854)"
             fill="#484738" />
        </g>
      </g>
      <g
         id="Groupe_472"
         data-name="Groupe 472"
         transform="translate(32.472,27.085)">
        <path
           id="Tracé_193"
           data-name="Tracé 193"
           d="m 1358.429,367.019 c -0.625,2.623 -4,4.864 -7.147,4.82 h -0.2 a 5.5,5.5 0 0 1 -4.666,-3.615 c -0.071,-0.157 -0.142,-0.312 -0.2,-0.468 v -0.028 l -0.439,-1.985 a 0.506,0.506 0 0 1 -0.029,-0.156 l -2.5,-11.174 -1.409,-6.413 v 27.126 a 6.748,6.748 0 0 1 -6.75,6.75 h -7.955 v -0.043 h -3.574 v 0.043 h -6.919 a 6.748,6.748 0 0 1 -6.75,-6.75 q -0.021,-5.7 -0.014,-11.386 v -13.681 l -0.865,3.588 -0.128,0.5 -2.07,8.508 -0.042,0.2 -1.191,4.906 a 5.967,5.967 0 0 1 -3.36,3.672 5.055,5.055 0 0 1 -4.44,-0.155 c -1.8,-0.951 -3.629,-1.688 -4.309,-3.659 -0.922,-2.6 -0.284,-5.105 0.667,-7.6 a 45.221,45.221 0 0 0 1.73,-5.219 c 0.014,-0.043 0.029,-0.1 0.043,-0.142 1.134,-4.423 2.2,-8.862 3.218,-13.315 0.979,-4.268 1.716,-8.593 2.865,-12.818 1.49,-5.559 5.857,-9.657 14.166,-6.934 a 30.073,30.073 0 0 0 6.083,1.319 31.886,31.886 0 0 0 7.445,-0.014 34.486,34.486 0 0 0 5.7,-1.177 c 8.621,-2.552 12.124,0.312 14.137,6.211 1.134,3.29 1.361,6.877 2.2,10.266 1.375,5.545 2.751,11.1 4.3,16.6 0.368,1.361 0.751,2.723 1.149,4.07 0.801,2.707 1.934,5.26 1.254,8.153 z"
           transform="translate(-1293.022,-290.205)"
           fill="#484738" />
        <g
           id="Groupe_471"
           data-name="Groupe 471"
           transform="translate(19.831)">
          <path
             id="Tracé_194"
             data-name="Tracé 194"
             d="m 1338.352,303.6 c 0.242,4.85 -2.864,9.259 -6.976,11.5 a 11.741,11.741 0 0 1 -11.443,0.142 13.2,13.2 0 0 1 -7.331,-11.585 13.891,13.891 0 0 1 1.858,-6.863 12.957,12.957 0 0 1 22.277,0.284 13.351,13.351 0 0 1 1.615,6.522 z"
             transform="translate(-1312.6,-290.593)"
             fill="#484738" />
        </g>
      </g>
    </g>
  </g>
</svg>
