<?xml version="1.0" encoding="UTF-8" standalone="no"?>
<svg
   xmlns:dc="http://purl.org/dc/elements/1.1/"
   xmlns:cc="http://creativecommons.org/ns#"
   xmlns:rdf="http://www.w3.org/1999/02/22-rdf-syntax-ns#"
   xmlns:svg="http://www.w3.org/2000/svg"
   xmlns="http://www.w3.org/2000/svg"
   xmlns:sodipodi="http://sodipodi.sourceforge.net/DTD/sodipodi-0.dtd"
   xmlns:inkscape="http://www.inkscape.org/namespaces/inkscape"
   width="160"
   height="160"
   viewBox="0 0 160 160"
   version="1.1"
   id="svg52"
   sodipodi:docname="Icone B hand.svg"
   inkscape:version="1.0.1 (3bc2e813f5, 2020-09-07)">
  <metadata
     id="metadata56">
    <rdf:RDF>
      <cc:Work
         rdf:about="">
        <dc:format>image/svg+xml</dc:format>
        <dc:type
           rdf:resource="http://purl.org/dc/dcmitype/StillImage" />
        <dc:title></dc:title>
      </cc:Work>
    </rdf:RDF>
  </metadata>
  <sodipodi:namedview
     pagecolor="#ffffff"
     bordercolor="#666666"
     borderopacity="1"
     objecttolerance="10"
     gridtolerance="10"
     guidetolerance="10"
     inkscape:pageopacity="0"
     inkscape:pageshadow="2"
     inkscape:window-width="1360"
     inkscape:window-height="745"
     id="namedview54"
     showgrid="false"
     inkscape:zoom="1.2470711"
     inkscape:cx="183"
     inkscape:cy="39.292065"
     inkscape:window-x="-8"
     inkscape:window-y="-8"
     inkscape:window-maximized="1"
     inkscape:current-layer="Groupe_629" />
  <defs
     id="defs26">
    <filter
       id="Rectangle_2692"
       x="0"
       y="124.486"
       width="366"
       height="339"
       filterUnits="userSpaceOnUse">
      <feOffset
         dx="9"
         dy="9"
         input="SourceAlpha"
         id="feOffset2" />
      <feGaussianBlur
         stdDeviation="4.5"
         result="blur"
         id="feGaussianBlur4" />
      <feFlood
         flood-opacity="0.161"
         id="feFlood6" />
      <feComposite
         operator="in"
         in2="blur"
         id="feComposite8"
         result="result1" />
      <feComposite
         in="SourceGraphic"
         in2="result1"
         id="feComposite10" />
    </filter>
    <filter
       id="Ellipse_17"
       x="44.830002"
       y="0"
       width="269.97299"
       height="269.97299"
       filterUnits="userSpaceOnUse">
      <feOffset
         dx="6"
         dy="6"
         input="SourceAlpha"
         id="feOffset13" />
      <feGaussianBlur
         stdDeviation="3"
         result="blur-2"
         id="feGaussianBlur15" />
      <feFlood
         flood-color="#427db3"
         flood-opacity="0.224"
         id="feFlood17" />
      <feComposite
         operator="in"
         in2="blur-2"
         id="feComposite19"
         result="result1" />
      <feComposite
         in="SourceGraphic"
         in2="result1"
         id="feComposite21" />
    </filter>
    <clipPath
       id="clip-path">
      <rect
         id="Rectangle_2621"
         data-name="Rectangle 2621"
         width="152.66499"
         height="122.015"
         fill="#007263"
         x="0"
         y="0" />
    </clipPath>
  </defs>
  <g
     id="Groupe_629"
     data-name="Groupe 629"
     transform="translate(-1393.5,-1278.014)">
    <text
       id="Thèmes"
       transform="translate(1562.316,1588)"
       fill="#ffffff"
       font-size="25px"
       font-family="HelveticaNeue-Bold, 'Helvetica Neue'"
       font-weight="700"><tspan
         x="-47.438"
         y="0"
         id="tspan31">Thèmes</tspan></text>
    <text
       id="Plus_d_infos"
       data-name="Plus d'infos"
       transform="translate(1494.813,1686.75)"
       fill="#ffffff"
       font-size="25px"
       font-family="HelveticaNeue-Medium, 'Helvetica Neue'"
       font-weight="500"><tspan
         x="0"
         y="0"
         id="tspan34">Plus d'infos</tspan></text>
    <path
       id="Tracé_188"
       data-name="Tracé 188"
       d="M 1.7,0.8 8.685,7.785 1.7,14.769"
       transform="translate(1641.367,1671.735)"
       fill="none"
       stroke="#ffffff"
       stroke-miterlimit="10"
       stroke-width="3" />
    <g
       transform="translate(1393.5,1278.01)"
       filter="url(#Ellipse_17)"
       id="g39" />
    <g
       id="Groupe_526"
       data-name="Groupe 526"
       transform="translate(1398.768,1297.8812)">
      <g
         id="Groupe_525"
         data-name="Groupe 525"
         transform="translate(0,-0.001)"
         clip-path="url(#clip-path)">
        <path
           id="Tracé_607"
           data-name="Tracé 607"
           d="m 79.3,75.991 c 1.024,0 2.052,0.062 3.071,-0.011 a 36.373,36.373 0 0 0 12.979,-2.9 c 3.463,-1.608 6.762,-3.5 10.088,-5.348 1.415,-0.789 2.869,-1.507 4.292,-2.283 a 43.1,43.1 0 0 1 6.506,-3.1 23.226,23.226 0 0 1 4.729,-1.5 13.61,13.61 0 0 1 6.684,0.487 6.142,6.142 0 0 1 3.662,3.382 3.87,3.87 0 0 1 -0.847,4.5 c -1.3,1.252 -2.7,2.4 -4.059,3.587 -0.564,0.49 -1.154,0.951 -1.727,1.43 -3.092,2.586 -6.442,4.815 -9.72,7.15 -2.686,1.913 -5.53,3.539 -8.35,5.207 -2.563,1.516 -5.212,2.9 -7.891,4.2 a 68.276,68.276 0 0 1 -10.976,4.255 14.84,14.84 0 0 1 -4,0.717 44.43,44.43 0 0 0 -4.573,0.475 c -0.088,0.01 -0.177,0.01 -0.266,0.012 -2.609,0.09 -5.219,0.17 -7.828,0.274 a 55.67,55.67 0 0 0 -5.819,0.308 c -2.928,0.425 -5.856,0.006 -8.768,0.241 -3.722,0.3 -7.445,0.227 -11.169,0.256 a 3.921,3.921 0 0 0 -0.889,0.193 c -3.084,0.763 -5.652,2.535 -8.209,4.288 -1.7,1.162 -3.264,2.514 -4.891,3.778 a 68.616,68.616 0 0 0 -6.467,5.662 c -0.727,0.727 -0.8,0.714 -1.6,-0.081 -2.144,-2.138 -4.264,-4.3 -6.425,-6.418 -2.822,-2.765 -5.675,-5.5 -8.515,-8.243 Q 4.639,92.947 0.953,89.385 C 0.124,88.578 0.09,88.536 0.729,87.564 2.312,85.155 3.911,82.754 5.563,80.391 6.843,78.56 8.2,76.782 9.545,75 q 1.349,-1.783 2.78,-3.5 a 73.948,73.948 0 0 1 6.486,-7.008 22.985,22.985 0 0 1 5.5,-4.021 19.825,19.825 0 0 1 5.389,-1.556 c 1.94,-0.331 3.9,-0.545 5.852,-0.81 0.044,-0.006 0.088,-0.007 0.133,-0.01 1.63,-0.088 3.26,-0.181 4.891,-0.263 1.94,-0.1 3.9,-0.062 5.818,-0.326 1.194,-0.164 2.376,-0.131 3.558,-0.226 1.44,-0.115 2.868,-0.346 4.3,-0.5 1.093,-0.118 2.195,-0.164 3.286,-0.3 1.434,-0.178 2.861,-0.4 4.289,-0.626 1.38,-0.218 2.755,-0.466 4.134,-0.692 1.811,-0.3 3.625,-0.578 5.434,-0.883 q 2.841,-0.48 5.676,-0.993 c 1.331,-0.239 2.648,-0.588 3.988,-0.733 a 29.369,29.369 0 0 1 6.483,-0.3 4.192,4.192 0 0 1 3.458,3.826 9.346,9.346 0 0 1 -0.784,5.289 16.119,16.119 0 0 1 -2.057,3.176 20.44,20.44 0 0 1 -9.723,5.777 c -2.881,0.861 -5.8,1.6 -8.686,2.442 -1.466,0.427 -2.9,0.954 -4.349,1.449 a 1.877,1.877 0 0 0 -0.422,0.291 2.716,2.716 0 0 0 0.439,0.146 c 1.987,0.316 3.972,0.623 5.976,0.857 a 56.118,56.118 0 0 0 7.915,0.483"
           transform="translate(0.054,9.893)"
           fill="#007263" />
        <path
           id="Tracé_608"
           data-name="Tracé 608"
           d="m 79.3,75.991 c 1.024,0 2.052,0.062 3.071,-0.011 a 36.373,36.373 0 0 0 12.979,-2.9 c 3.463,-1.608 6.762,-3.5 10.088,-5.348 1.415,-0.789 2.869,-1.507 4.292,-2.283 a 43.1,43.1 0 0 1 6.506,-3.1 23.226,23.226 0 0 1 4.729,-1.5 13.61,13.61 0 0 1 6.684,0.487 6.142,6.142 0 0 1 3.662,3.382 3.87,3.87 0 0 1 -0.847,4.5 c -1.3,1.252 -2.7,2.4 -4.059,3.587 -0.564,0.49 -1.154,0.951 -1.727,1.43 -3.092,2.586 -6.442,4.815 -9.72,7.15 -2.686,1.913 -5.53,3.539 -8.35,5.207 -2.563,1.516 -5.212,2.9 -7.891,4.2 a 68.276,68.276 0 0 1 -10.976,4.255 14.84,14.84 0 0 1 -4,0.717 44.43,44.43 0 0 0 -4.573,0.475 c -0.088,0.01 -0.177,0.01 -0.266,0.012 -2.609,0.09 -5.219,0.17 -7.828,0.274 a 55.67,55.67 0 0 0 -5.819,0.308 c -2.928,0.425 -5.856,0.006 -8.768,0.241 -3.722,0.3 -7.445,0.227 -11.169,0.256 a 3.921,3.921 0 0 0 -0.889,0.193 c -3.084,0.763 -5.652,2.535 -8.209,4.288 -1.7,1.162 -3.264,2.514 -4.891,3.778 a 68.616,68.616 0 0 0 -6.467,5.662 c -0.727,0.727 -0.8,0.714 -1.6,-0.081 -2.144,-2.138 -4.264,-4.3 -6.425,-6.418 -2.822,-2.765 -5.675,-5.5 -8.515,-8.243 Q 4.639,92.947 0.953,89.385 C 0.124,88.578 0.09,88.536 0.729,87.564 2.312,85.155 3.911,82.754 5.563,80.391 6.843,78.56 8.2,76.782 9.545,75 q 1.349,-1.783 2.78,-3.5 a 73.948,73.948 0 0 1 6.486,-7.008 22.985,22.985 0 0 1 5.5,-4.021 19.825,19.825 0 0 1 5.389,-1.556 c 1.94,-0.331 3.9,-0.545 5.852,-0.81 0.044,-0.006 0.088,-0.007 0.133,-0.01 1.63,-0.088 3.26,-0.181 4.891,-0.263 1.94,-0.1 3.9,-0.062 5.818,-0.326 1.194,-0.164 2.376,-0.131 3.558,-0.226 1.44,-0.115 2.868,-0.346 4.3,-0.5 1.093,-0.118 2.195,-0.164 3.286,-0.3 1.434,-0.178 2.861,-0.4 4.289,-0.626 1.38,-0.218 2.755,-0.466 4.134,-0.692 1.811,-0.3 3.625,-0.578 5.434,-0.883 q 2.841,-0.48 5.676,-0.993 c 1.331,-0.239 2.648,-0.588 3.988,-0.733 a 29.369,29.369 0 0 1 6.483,-0.3 4.192,4.192 0 0 1 3.458,3.826 9.346,9.346 0 0 1 -0.784,5.289 16.119,16.119 0 0 1 -2.057,3.176 20.44,20.44 0 0 1 -9.723,5.777 c -2.881,0.861 -5.8,1.6 -8.686,2.442 -1.466,0.427 -2.9,0.954 -4.349,1.449 a 1.877,1.877 0 0 0 -0.422,0.291 2.716,2.716 0 0 0 0.439,0.146 c 1.987,0.316 3.972,0.623 5.976,0.857 a 56.118,56.118 0 0 0 7.906,0.485 z"
           transform="translate(0.054,9.893)"
           fill="#007263" />
        <path
           id="Tracé_609"
           data-name="Tracé 609"
           d="m 88.532,47.362 a 11.2,11.2 0 0 1 -0.04,-3.466 41.9,41.9 0 0 1 1.3,-8.716 40.771,40.771 0 0 1 9.741,-17.444 C 104,12.858 110.5,9.352 116.651,7.087 A 81.362,81.362 0 0 1 134.068,3.3 c 3.451,-0.459 4.509,41.119 -38.593,48.94 0,0 -3.362,0.7 -1.435,-2.894 1.927,-3.594 18.135,-25.8 18.135,-25.8 0,0 -14.535,11.515 -21.502,24.354 0,0 -1.4,1.755 -2.141,-0.537"
           transform="translate(16.761,0.625)"
           fill="#007263" />
        <path
           id="Tracé_610"
           data-name="Tracé 610"
           d="m 88.532,47.362 a 11.2,11.2 0 0 1 -0.04,-3.466 41.9,41.9 0 0 1 1.3,-8.716 40.771,40.771 0 0 1 9.741,-17.444 C 104,12.858 110.5,9.352 116.651,7.087 A 81.362,81.362 0 0 1 134.068,3.3 c 3.451,-0.459 4.509,41.119 -38.593,48.94 0,0 -3.362,0.7 -1.435,-2.894 1.927,-3.594 18.135,-25.8 18.135,-25.8 0,0 -14.535,11.515 -21.502,24.354 0,0 -1.403,1.753 -2.141,-0.538 z"
           transform="translate(16.761,0.625)"
           fill="#007263" />
        <path
           id="Tracé_611"
           data-name="Tracé 611"
           d="m 87.348,33.174 a 6.386,6.386 0 0 0 0.74,-1.833 23.857,23.857 0 0 0 1.118,-4.9 23.248,23.248 0 0 0 -1.558,-11.29 25.179,25.179 0 0 0 -6.889,-9.209 46.426,46.426 0 0 0 -8.468,-5.625 c -1.74,-0.959 -10.924,20.914 10.357,34.008 0,0 1.643,1.066 1.363,-1.241 -0.28,-2.307 -4.285,-17.472 -4.285,-17.472 0,0 5.333,9.137 6.373,17.4 0,0 0.382,1.223 1.249,0.158"
           transform="translate(13.056,0.054)"
           fill="#007263" />
        <path
           id="Tracé_612"
           data-name="Tracé 612"
           d="m 87.348,33.174 a 6.386,6.386 0 0 0 0.74,-1.833 23.857,23.857 0 0 0 1.118,-4.9 23.248,23.248 0 0 0 -1.558,-11.29 25.179,25.179 0 0 0 -6.889,-9.209 46.426,46.426 0 0 0 -8.468,-5.625 c -1.74,-0.959 -10.924,20.914 10.357,34.008 0,0 1.643,1.066 1.363,-1.241 -0.28,-2.307 -4.285,-17.472 -4.285,-17.472 0,0 5.333,9.137 6.373,17.4 10e-4,0.004 0.382,1.227 1.249,0.162 z"
           transform="translate(13.056,0.054)"
           fill="#007263" />
        <path
           id="Tracé_613"
           data-name="Tracé 613"
           d="M 89.452,45.328 A 8.924,8.924 0 0 0 88.538,42.72 33.431,33.431 0 0 0 85.194,36.542 32.515,32.515 0 0 0 73.145,26.123 c -4.677,-2.439 -10.5,-3.3 -15.731,-3.317 a 64.88,64.88 0 0 0 -14.082,1.9 c -2.711,0.6 7.817,32.04 42.244,26.163 0,0 2.709,-0.394 0.288,-2.559 -2.421,-2.165 -20.616,-14.4 -20.616,-14.4 0,0 14.03,4.678 22.745,12.4 0,0 1.53,0.934 1.459,-0.985"
           transform="translate(8.142,4.326)"
           fill="#007263" />
        <path
           id="Tracé_614"
           data-name="Tracé 614"
           d="M 89.452,45.328 A 8.924,8.924 0 0 0 88.538,42.72 33.431,33.431 0 0 0 85.194,36.542 32.515,32.515 0 0 0 73.145,26.123 c -4.677,-2.439 -10.5,-3.3 -15.731,-3.317 a 64.88,64.88 0 0 0 -14.082,1.9 c -2.711,0.6 7.817,32.04 42.244,26.163 0,0 2.709,-0.394 0.288,-2.559 -2.421,-2.165 -20.616,-14.4 -20.616,-14.4 0,0 14.03,4.678 22.745,12.4 0,0.003 1.53,0.937 1.459,-0.982 z"
           transform="translate(8.142,4.326)"
           fill="#007263" />
      </g>
    </g>
  </g>
</svg>
