<?xml version="1.0" encoding="UTF-8" standalone="no"?>
<svg
   xmlns:dc="http://purl.org/dc/elements/1.1/"
   xmlns:cc="http://creativecommons.org/ns#"
   xmlns:rdf="http://www.w3.org/1999/02/22-rdf-syntax-ns#"
   xmlns:svg="http://www.w3.org/2000/svg"
   xmlns="http://www.w3.org/2000/svg"
   xmlns:sodipodi="http://sodipodi.sourceforge.net/DTD/sodipodi-0.dtd"
   xmlns:inkscape="http://www.inkscape.org/namespaces/inkscape"
   width="168"
   height="168"
   viewBox="0 0 168 168"
   version="1.1"
   id="svg73"
   sodipodi:docname="icon C school.svg"
   inkscape:version="1.0.1 (3bc2e813f5, 2020-09-07)">
  <metadata
     id="metadata77">
    <rdf:RDF>
      <cc:Work
         rdf:about="">
        <dc:format>image/svg+xml</dc:format>
        <dc:type
           rdf:resource="http://purl.org/dc/dcmitype/StillImage" />
        <dc:title></dc:title>
      </cc:Work>
    </rdf:RDF>
  </metadata>
  <sodipodi:namedview
     pagecolor="#ffffff"
     bordercolor="#666666"
     borderopacity="1"
     objecttolerance="10"
     gridtolerance="10"
     guidetolerance="10"
     inkscape:pageopacity="0"
     inkscape:pageshadow="2"
     inkscape:window-width="1360"
     inkscape:window-height="745"
     id="namedview75"
     showgrid="false"
     inkscape:zoom="1.4744898"
     inkscape:cx="142"
     inkscape:cy="114.61592"
     inkscape:window-x="-8"
     inkscape:window-y="-8"
     inkscape:window-maximized="1"
     inkscape:current-layer="Groupe_687" />
  <defs
     id="defs24">
    <filter
       id="Rectangle_27"
       x="0"
       y="0"
       width="284"
       height="392"
       filterUnits="userSpaceOnUse">
      <feOffset
         dx="9"
         dy="9"
         input="SourceAlpha"
         id="feOffset2" />
      <feGaussianBlur
         stdDeviation="4.5"
         result="blur"
         id="feGaussianBlur4" />
      <feFlood
         flood-opacity="0.161"
         id="feFlood6" />
      <feComposite
         operator="in"
         in2="blur"
         id="feComposite8"
         result="result1" />
      <feComposite
         in="SourceGraphic"
         in2="result1"
         id="feComposite10" />
    </filter>
    <filter
       id="Rectangle_1855"
       x="49.5"
       y="273.5"
       width="185"
       height="72"
       filterUnits="userSpaceOnUse">
      <feOffset
         dy="3"
         input="SourceAlpha"
         id="feOffset13" />
      <feGaussianBlur
         stdDeviation="3"
         result="blur-2"
         id="feGaussianBlur15" />
      <feFlood
         flood-color="#98984b"
         flood-opacity="0.129"
         id="feFlood17" />
      <feComposite
         operator="in"
         in2="blur-2"
         id="feComposite19"
         result="result1" />
      <feComposite
         in="SourceGraphic"
         in2="result1"
         id="feComposite21" />
    </filter>
  </defs>
  <g
     id="Groupe_687"
     data-name="Groupe 687"
     transform="translate(-827.5,-2243.5)">
    <g
       id="undraw_education_f8ru"
       transform="translate(828.35294,2258.6955)">
      <path
         id="Tracé_371"
         data-name="Tracé 371"
         d="m 408.888,584.643 v 33 H 326.2 c -9.421,0 -17.086,-7.4 -17.086,-16.5 0,-9.1 7.665,-16.5 17.086,-16.5 z"
         transform="translate(-307.337,-482.004)"
         fill="#f2f2f2" />
      <path
         id="Tracé_372"
         data-name="Tracé 372"
         d="m 405.7,615.155 a 1.27,1.27 0 0 1 -1.269,1.269 H 319.5 a 17.391,17.391 0 1 1 0,-34.781 h 84.922 a 1.2695,1.2695 0 0 1 0,2.539 H 319.5 a 14.852,14.852 0 1 0 0,29.7 h 84.922 a 1.27,1.27 0 0 1 1.269,1.27 z"
         transform="translate(-302.114,-479.766)"
         fill="#98984b" />
      <path
         id="Tracé_373"
         data-name="Tracé 373"
         d="m 440.225,613.151 h -88.857 a 0.254,0.254 0 1 1 0,-0.508 h 88.857 a 0.254,0.254 0 0 1 0,0.508 z"
         transform="translate(-338.674,-502.896)"
         fill="#cccccc" />
      <path
         id="Tracé_374"
         data-name="Tracé 374"
         d="m 440.225,637.151 h -88.857 a 0.254,0.254 0 1 1 0,-0.508 h 88.857 a 0.254,0.254 0 0 1 0,0.508 z"
         transform="translate(-338.674,-520.803)"
         fill="#cccccc" />
      <path
         id="Tracé_375"
         data-name="Tracé 375"
         d="m 440.225,661.151 h -88.857 a 0.254,0.254 0 1 1 0,-0.508 h 88.857 a 0.254,0.254 0 0 1 0,0.508 z"
         transform="translate(-338.674,-538.71)"
         fill="#cccccc" />
      <path
         id="Tracé_376"
         data-name="Tracé 376"
         d="m 440.225,685.151 h -88.857 a 0.254,0.254 0 1 1 0,-0.508 h 88.857 a 0.254,0.254 0 0 1 0,0.508 z"
         transform="translate(-338.674,-556.616)"
         fill="#cccccc" />
      <path
         id="Tracé_377"
         data-name="Tracé 377"
         d="m 684.649,445.248 -20.707,25.7 -64.387,-51.88 c -7.336,-5.911 -8.66,-16.485 -2.951,-23.57 5.709,-7.085 16.322,-8.04 23.658,-2.13 z"
         transform="translate(-519.193,-336.397)"
         fill="#f2f2f2" />
      <path
         id="Tracé_378"
         data-name="Tracé 378"
         d="m 660.492,467.648 a 1.27,1.27 0 0 1 -1.785,0.192 L 592.58,414.558 a 17.391,17.391 0 1 1 21.82,-27.083 l 66.127,53.282 a 1.2694662,1.2694662 0 1 1 -1.593,1.977 L 612.81,389.451 a 14.852059,14.852059 0 1 0 -18.637,23.13 l 66.127,53.282 a 1.27,1.27 0 0 1 0.192,1.785 z"
         transform="translate(-514.003,-332.02)"
         fill="#cccccc" />
      <path
         id="Tracé_379"
         data-name="Tracé 379"
         d="m 731.384,467.3 -69.191,-55.75 a 0.25581292,0.25581292 0 1 1 0.319,-0.4 l 69.188,55.755 a 0.25581292,0.25581292 0 1 1 -0.319,0.4 z"
         transform="translate(-570.707,-352.518)"
         fill="#cccccc" />
      <path
         id="Tracé_380"
         data-name="Tracé 380"
         d="m 716.326,485.989 -69.191,-55.751 a 0.25581292,0.25581292 0 1 1 0.319,-0.4 l 69.191,55.751 a 0.25581292,0.25581292 0 0 1 -0.319,0.4 z"
         transform="translate(-559.471,-366.462)"
         fill="#cccccc" />
      <path
         id="Tracé_381"
         data-name="Tracé 381"
         d="m 701.268,504.677 -69.191,-55.751 a 0.25581292,0.25581292 0 0 1 0.319,-0.4 l 69.191,55.751 a 0.25581292,0.25581292 0 0 1 -0.319,0.4 z"
         transform="translate(-548.236,-380.406)"
         fill="#cccccc" />
      <path
         id="Tracé_382"
         data-name="Tracé 382"
         d="m 686.21,523.365 -69.191,-55.751 a 0.25581292,0.25581292 0 1 1 0.319,-0.4 l 69.191,55.751 a 0.25581292,0.25581292 0 0 1 -0.319,0.4 z"
         transform="translate(-537.001,-394.35)"
         fill="#cccccc" />
      <path
         id="Tracé_384"
         data-name="Tracé 384"
         d="m 325.495,357.72 h -2.9 l -1.38,-11.2 h 4.285 z"
         transform="translate(-258.479,-258.55)"
         fill="#ffb8b8" />
      <path
         id="Tracé_385"
         data-name="Tracé 385"
         d="m 308.125,387.355 h 5.6 v 3.524 H 304.6 a 3.524,3.524 0 0 1 3.524,-3.524 z"
         transform="translate(-246.085,-289.014)"
         fill="#2f2e41" />
      <path
         id="Tracé_386"
         data-name="Tracé 386"
         d="m 208.7,357.72 h -2.9 l -1.38,-11.2 h 4.28 z"
         transform="translate(-171.336,-258.55)"
         fill="#ffb8b8" />
      <path
         id="Tracé_387"
         data-name="Tracé 387"
         d="m 191.33,387.355 h 5.6 v 3.524 h -9.122 a 3.524,3.524 0 0 1 3.524,-3.524 z"
         transform="translate(-158.942,-289.014)"
         fill="#2f2e41" />
      <path
         id="Tracé_388"
         data-name="Tracé 388"
         d="m 487.471,216.1 v -1.269 a 8.188,8.188 0 0 1 8.188,-8.188 v 0 a 8.188,8.188 0 0 1 8.188,8.188 v 1.269 a 5.9,5.9 0 0 1 -5.9,5.9 h -4.57 a 5.9,5.9 0 0 1 -5.9,-5.9 z"
         transform="translate(-440.413,-199.967)"
         fill="#2f2e41" />
      <circle
         id="Ellipse_45"
         data-name="Ellipse 45"
         cx="6.2350001"
         cy="6.2350001"
         transform="translate(49.01,9.998)"
         fill="#ffb8b8"
         r="6.2350001" />
      <path
         id="Tracé_389"
         data-name="Tracé 389"
         d="M 634.488,376.475"
         transform="translate(-550.106,-326.685)"
         fill="#ffb8b8" />
      <path
         id="Tracé_390"
         data-name="Tracé 390"
         d="m 383.886,326.8 a 2.381,2.381 0 0 1 3.625,0.426 l 5.345,-1.011 1.407,3.1 -7.569,1.322 a 2.394,2.394 0 0 1 -2.809,-3.835 z"
         transform="translate(-362.558,-289.139)"
         fill="#ffb8b8" />
      <path
         id="Tracé_391"
         data-name="Tracé 391"
         d="m 429.733,283.41 0.07,0.106 -8.765,5.774 -14.79,4.723 a 0.89,0.89 0 0 0 -0.612,0.949 l 0.323,2.779 a 0.889,0.889 0 0 0 1.069,0.766 l 13.92,-2.984 a 5.028,5.028 0 0 0 1.871,-0.824 l 9.847,-7.006 a 2.5321299,2.5321299 0 0 0 -2.862,-4.178 z"
         transform="translate(-379.349,-257.015)"
         fill="#cccccc" />
      <path
         id="Tracé_392"
         data-name="Tracé 392"
         d="m 461.031,400.279 a 1.147,1.147 0 0 1 -1.051,-0.686 l -13.306,-32.877 a 0.381,0.381 0 0 0 -0.713,0.04 l -10.855,32.007 a 1.143,1.143 0 0 1 -1.493,0.734 l -3.64,-1.365 a 1.14,1.14 0 0 1 -0.735,-0.941 c -1.638,-14.266 12.643,-50.275 12.788,-50.637 l 0.04,-0.1 13.018,2.88 0.027,0.029 c 5.194,5.666 9.463,41.4 10.266,48.509 a 1.137,1.137 0 0 1 -0.754,1.205 l -3.213,1.136 a 1.131,1.131 0 0 1 -0.379,0.066 z"
         transform="translate(-396.866,-304.286)"
         fill="#2f2e41" />
      <path
         id="Tracé_393"
         data-name="Tracé 393"
         d="m 486.882,296.314 c -3.154,0 -6.67,-0.629 -7.753,-3.224 l -0.025,-0.06 0.034,-0.055 c 0.854,-1.4 1.984,-3.793 1.377,-4.242 a 4.87,4.87 0 0 1 -1.724,-4.322 10.414,10.414 0 0 1 7.3,-9.516 v 0 a 32.405,32.405 0 0 1 3.621,-0.932 6.164,6.164 0 0 1 5.111,1.262 6.227,6.227 0 0 1 2.309,4.791 c 0.045,4.6 -0.664,11.014 -4.294,15.415 a 1.129,1.129 0 0 1 -0.668,0.389 31.044,31.044 0 0 1 -5.288,0.494 z"
         transform="translate(-433.934,-250.107)"
         fill="#cccccc" />
      <path
         id="Tracé_394"
         data-name="Tracé 394"
         d="m 505.784,346.256 a 2.426,2.426 0 0 1 2.965,-1.692 2.393,2.393 0 0 1 0.368,0.136 l 4.059,-3.694 2.823,1.9 -5.8,5.136 a 2.422,2.422 0 0 1 -2.745,1.164 2.385,2.385 0 0 1 -1.664,-2.953 z"
         transform="translate(-454.009,-300.222)"
         fill="#ffb8b8" />
      <path
         id="Tracé_395"
         data-name="Tracé 395"
         d="m 524.572,303.272 a 1.139,1.139 0 0 1 -0.722,-0.258 l -1.6,-1.308 a 1.142,1.142 0 0 1 0.028,-1.791 l 6.713,-5.149 a 0.382,0.382 0 0 0 0.072,-0.532 l -4.143,-5.478 a 3.373,3.373 0 0 1 0.225,-4.345 v 0 a 3.363,3.363 0 0 1 4.541,-0.363 l 0.026,0.028 4.327,6.2 a 3.857,3.857 0 0 1 -0.091,6.14 l -8.694,6.636 a 1.144,1.144 0 0 1 -0.682,0.22 z"
         transform="translate(-466.049,-257.191)"
         fill="#cccccc" />
      <path
         id="Tracé_396"
         data-name="Tracé 396"
         d="m 497.965,221.21 v -3.094 l 5.523,-2.412 5.266,2.412 v 3.094 a 0.508,0.508 0 0 1 -0.508,0.508 h -9.774 a 0.508,0.508 0 0 1 -0.507,-0.508 z"
         transform="translate(-448.243,-206.73)"
         fill="#2f2e41" />
      <path
         id="Tracé_397"
         data-name="Tracé 397"
         d="m 518.122,187.44 a 5.7,5.7 0 0 1 3.415,-6.607 7.859,7.859 0 0 1 7.665,1.39 12.935,12.935 0 0 1 4.147,6.878 38.524,38.524 0 0 1 0.961,8.1 5.44,5.44 0 1 1 -5.214,1.931 6.7,6.7 0 0 0 -7.791,-10.386 c -1.526,0.635 -3.442,-1.024 -3.183,-1.306 z"
         transform="translate(-463.13,-180.357)"
         fill="#2f2e41" />
      <path
         id="Tracé_398"
         data-name="Tracé 398"
         d="m 348.039,240.928 a 26.517,26.517 0 0 1 -10.751,-2.355 1.135,1.135 0 0 1 -0.673,-1.042 v -9.246 a 1.144,1.144 0 0 1 1.142,-1.142 h 20.564 a 1.144,1.144 0 0 1 1.142,1.142 v 9.246 a 1.135,1.135 0 0 1 -0.673,1.042 v 0 a 26.516,26.516 0 0 1 -10.751,2.355 z"
         transform="translate(-327.855,-215.265)"
         fill="#98984b" />
      <path
         id="Tracé_399"
         data-name="Tracé 399"
         d="m 330.321,206.822 a 1.143,1.143 0 0 1 -0.444,-0.089 l -16.307,-6.88 a 1.142,1.142 0 0 1 0.039,-2.121 l 16.307,-6.186 a 1.138,1.138 0 0 1 0.815,0 l 16.089,6.186 a 1.143,1.143 0 0 1 0.039,2.117 l -16.089,6.88 a 1.144,1.144 0 0 1 -0.449,0.093 z"
         transform="translate(-310.141,-188.649)"
         fill="#98984b" />
      <circle
         id="Ellipse_46"
         data-name="Ellipse 46"
         cx="1.523"
         cy="1.523"
         transform="translate(9.14,20.89)"
         fill="#3f3d56"
         r="1.523" />
      <path
         id="Tracé_400"
         data-name="Tracé 400"
         d="m 347.6,219.382 -16.089,6.88 a 1.016,1.016 0 0 1 -0.794,0 l -16.307,-6.88 a 1,1 0 0 1 -0.486,-0.427 1.015,1.015 0 0 0 0.486,1.442 l 16.307,6.88 a 1.015,1.015 0 0 0 0.794,0 L 347.6,220.4 a 1.015,1.015 0 0 0 0.481,-1.44 1,1 0 0 1 -0.481,0.425 z"
         transform="translate(-310.822,-209.158)"
         opacity="0.2" />
      <path
         id="Tracé_401"
         data-name="Tracé 401"
         d="m 343.872,232.45 a 0.254,0.254 0 0 0 0.254,-0.254 v -8.5 l 8.373,-3.05 a 0.25403149,0.25403149 0 0 0 0.008,-0.508 l -8.373,3.05 a 0.5,0.5 0 0 0 -0.364,0.146 0.5,0.5 0 0 0 -0.151,0.362 v 8.5 a 0.254,0.254 0 0 0 0.253,0.254 z"
         transform="translate(-333.081,-210.042)"
         fill="#3f3d56" />
    </g>
    <text
       id="Découvrir"
       transform="translate(915.074,2557)"
       fill="#ffffff"
       font-size="20px"
       font-family="HelveticaNeue-Medium, 'Helvetica Neue'"
       font-weight="500"><tspan
         x="0"
         y="0"
         id="tspan68">Découvrir</tspan></text>
    <path
       id="Tracé_224"
       data-name="Tracé 224"
       d="M 1.7,0.8 6.944,6.044 1.7,11.288"
       transform="translate(1015.984,2545.7)"
       fill="none"
       stroke="#ffffff"
       stroke-miterlimit="10"
       stroke-width="2" />
  </g>
</svg>
