<?xml version="1.0" encoding="UTF-8" standalone="no"?>
<svg
   xmlns:dc="http://purl.org/dc/elements/1.1/"
   xmlns:cc="http://creativecommons.org/ns#"
   xmlns:rdf="http://www.w3.org/1999/02/22-rdf-syntax-ns#"
   xmlns:svg="http://www.w3.org/2000/svg"
   xmlns="http://www.w3.org/2000/svg"
   xmlns:sodipodi="http://sodipodi.sourceforge.net/DTD/sodipodi-0.dtd"
   xmlns:inkscape="http://www.inkscape.org/namespaces/inkscape"
   width="130"
   height="130"
   viewBox="0 0 130 130"
   version="1.1"
   id="svg48"
   sodipodi:docname="Groupe 682.svg"
   inkscape:version="1.0.1 (3bc2e813f5, 2020-09-07)">
  <metadata
     id="metadata52">
    <rdf:RDF>
      <cc:Work
         rdf:about="">
        <dc:format>image/svg+xml</dc:format>
        <dc:type
           rdf:resource="http://purl.org/dc/dcmitype/StillImage" />
        <dc:title></dc:title>
      </cc:Work>
    </rdf:RDF>
  </metadata>
  <sodipodi:namedview
     pagecolor="#ffffff"
     bordercolor="#666666"
     borderopacity="1"
     objecttolerance="10"
     gridtolerance="10"
     guidetolerance="10"
     inkscape:pageopacity="0"
     inkscape:pageshadow="2"
     inkscape:window-width="1360"
     inkscape:window-height="745"
     id="namedview50"
     showgrid="false"
     inkscape:zoom="3.0182768"
     inkscape:cx="124.62059"
     inkscape:cy="70.794794"
     inkscape:window-x="-8"
     inkscape:window-y="-8"
     inkscape:window-maximized="1"
     inkscape:current-layer="Groupe_682" />
  <defs
     id="defs15">
    <filter
       id="Rectangle_1931"
       x="0"
       y="0"
       width="308"
       height="383"
       filterUnits="userSpaceOnUse">
      <feOffset
         dy="3"
         input="SourceAlpha"
         id="feOffset2" />
      <feGaussianBlur
         stdDeviation="3"
         result="blur"
         id="feGaussianBlur4" />
      <feFlood
         flood-opacity="0.161"
         id="feFlood6" />
      <feComposite
         operator="in"
         in2="blur"
         id="feComposite8"
         result="result1" />
      <feComposite
         in="SourceGraphic"
         in2="result1"
         id="feComposite10" />
    </filter>
    <clipPath
       id="clip-path">
      <rect
         id="Rectangle_2681"
         data-name="Rectangle 2681"
         width="120"
         height="128.315"
         fill="#ffffff"
         x="0"
         y="0" />
    </clipPath>
  </defs>
  <g
     id="Groupe_682"
     data-name="Groupe 682"
     transform="translate(-389,-6851)">
    <g
       id="Groupe_620"
       data-name="Groupe 620"
       transform="translate(395.80969,6851.474)">
      <g
         id="Groupe_619"
         data-name="Groupe 619"
         clip-path="url(#clip-path)">
        <path
           id="Tracé_858"
           data-name="Tracé 858"
           d="m 72.293,140.837 c 0.93,0 1.865,0.056 2.79,-0.01 a 33.051,33.051 0 0 0 11.793,-2.638 c 3.146,-1.461 6.144,-3.175 9.165,-4.859 1.286,-0.717 2.607,-1.37 3.9,-2.074 a 39.19,39.19 0 0 1 5.912,-2.814 21.221,21.221 0 0 1 4.3,-1.363 12.356,12.356 0 0 1 6.073,0.444 5.571,5.571 0 0 1 3.327,3.073 3.516,3.516 0 0 1 -0.769,4.089 c -1.181,1.137 -2.449,2.182 -3.688,3.258 -0.512,0.445 -1.048,0.864 -1.57,1.3 -2.809,2.349 -5.853,4.374 -8.831,6.5 -2.441,1.739 -5.024,3.216 -7.587,4.732 -2.329,1.377 -4.737,2.633 -7.17,3.817 a 62.128,62.128 0 0 1 -9.972,3.866 13.474,13.474 0 0 1 -3.636,0.652 40.512,40.512 0 0 0 -4.154,0.432 c -0.08,0.009 -0.161,0.008 -0.242,0.011 -2.371,0.082 -4.742,0.154 -7.112,0.248 a 50.7,50.7 0 0 0 -5.287,0.28 c -2.659,0.386 -5.321,0.006 -7.966,0.22 -3.382,0.274 -6.765,0.206 -10.148,0.232 a 3.635,3.635 0 0 0 -0.807,0.175 23.372,23.372 0 0 0 -7.459,3.9 c -1.542,1.057 -2.965,2.285 -4.444,3.434 a 62.284,62.284 0 0 0 -5.875,5.144 c -0.661,0.661 -0.73,0.649 -1.453,-0.073 -1.948,-1.943 -3.874,-3.907 -5.839,-5.832 -2.563,-2.511 -5.155,-4.995 -7.736,-7.489 q -3.349,-3.237 -6.7,-6.472 c -0.754,-0.733 -0.784,-0.772 -0.2,-1.655 1.438,-2.189 2.891,-4.37 4.392,-6.518 1.162,-1.663 2.392,-3.28 3.617,-4.9 q 1.226,-1.62 2.526,-3.183 a 67.375,67.375 0 0 1 5.894,-6.368 20.924,20.924 0 0 1 5,-3.654 18.009,18.009 0 0 1 4.9,-1.41 c 1.763,-0.3 3.544,-0.5 5.317,-0.736 0.04,-0.006 0.081,-0.006 0.121,-0.009 1.481,-0.08 2.962,-0.165 4.444,-0.239 1.764,-0.089 3.543,-0.056 5.285,-0.3 1.086,-0.149 2.158,-0.12 3.234,-0.206 1.307,-0.1 2.606,-0.315 3.911,-0.456 0.993,-0.107 1.994,-0.149 2.985,-0.272 1.3,-0.162 2.6,-0.365 3.9,-0.569 1.254,-0.2 2.5,-0.423 3.757,-0.629 1.645,-0.271 3.294,-0.525 4.938,-0.8 q 2.581,-0.436 5.157,-0.9 c 1.209,-0.217 2.406,-0.534 3.623,-0.666 a 26.687,26.687 0 0 1 5.889,-0.276 3.807,3.807 0 0 1 3.13,3.48 8.493,8.493 0 0 1 -0.711,4.806 14.651,14.651 0 0 1 -1.87,2.887 18.572,18.572 0 0 1 -8.834,5.249 c -2.618,0.783 -5.268,1.455 -7.892,2.219 -1.333,0.388 -2.638,0.867 -3.952,1.316 a 1.715,1.715 0 0 0 -0.384,0.266 2.5,2.5 0 0 0 0.4,0.133 c 1.806,0.287 3.61,0.566 5.43,0.778 a 50.9,50.9 0 0 0 7.192,0.439"
           transform="translate(-0.19,-45.352)"
           fill="#ffffff" />
        <path
           id="Tracé_859"
           data-name="Tracé 859"
           d="m 72.293,140.837 c 0.93,0 1.865,0.056 2.79,-0.01 a 33.051,33.051 0 0 0 11.793,-2.638 c 3.146,-1.461 6.144,-3.175 9.165,-4.859 1.286,-0.717 2.607,-1.37 3.9,-2.074 a 39.19,39.19 0 0 1 5.912,-2.814 21.221,21.221 0 0 1 4.3,-1.363 12.356,12.356 0 0 1 6.073,0.444 5.571,5.571 0 0 1 3.327,3.073 3.516,3.516 0 0 1 -0.769,4.089 c -1.181,1.137 -2.449,2.182 -3.688,3.258 -0.512,0.445 -1.048,0.864 -1.57,1.3 -2.809,2.349 -5.853,4.374 -8.831,6.5 -2.441,1.739 -5.024,3.216 -7.587,4.732 -2.329,1.377 -4.737,2.633 -7.17,3.817 a 62.128,62.128 0 0 1 -9.972,3.866 13.474,13.474 0 0 1 -3.636,0.652 40.512,40.512 0 0 0 -4.154,0.432 c -0.08,0.009 -0.161,0.008 -0.242,0.011 -2.371,0.082 -4.742,0.154 -7.112,0.248 a 50.7,50.7 0 0 0 -5.287,0.28 c -2.659,0.386 -5.321,0.006 -7.966,0.22 -3.382,0.274 -6.765,0.206 -10.148,0.232 a 3.635,3.635 0 0 0 -0.807,0.175 23.372,23.372 0 0 0 -7.459,3.9 c -1.542,1.057 -2.965,2.285 -4.444,3.434 a 62.284,62.284 0 0 0 -5.875,5.144 c -0.661,0.661 -0.73,0.649 -1.453,-0.073 -1.948,-1.943 -3.874,-3.907 -5.839,-5.832 -2.563,-2.511 -5.155,-4.995 -7.736,-7.489 q -3.349,-3.237 -6.7,-6.472 c -0.754,-0.733 -0.784,-0.772 -0.2,-1.655 1.438,-2.189 2.891,-4.37 4.392,-6.518 1.162,-1.663 2.392,-3.28 3.617,-4.9 q 1.226,-1.62 2.526,-3.183 a 67.375,67.375 0 0 1 5.894,-6.368 20.924,20.924 0 0 1 5,-3.654 18.009,18.009 0 0 1 4.9,-1.41 c 1.763,-0.3 3.544,-0.5 5.317,-0.736 0.04,-0.006 0.081,-0.006 0.121,-0.009 1.481,-0.08 2.962,-0.165 4.444,-0.239 1.764,-0.089 3.543,-0.056 5.285,-0.3 1.086,-0.149 2.158,-0.12 3.234,-0.206 1.307,-0.1 2.606,-0.315 3.911,-0.456 0.993,-0.107 1.994,-0.149 2.985,-0.272 1.3,-0.162 2.6,-0.365 3.9,-0.569 1.254,-0.2 2.5,-0.423 3.757,-0.629 1.645,-0.271 3.294,-0.525 4.938,-0.8 q 2.581,-0.436 5.157,-0.9 c 1.209,-0.217 2.406,-0.534 3.623,-0.666 a 26.687,26.687 0 0 1 5.889,-0.276 3.807,3.807 0 0 1 3.13,3.48 8.493,8.493 0 0 1 -0.711,4.806 14.651,14.651 0 0 1 -1.87,2.887 18.572,18.572 0 0 1 -8.834,5.249 c -2.618,0.783 -5.268,1.455 -7.892,2.219 -1.333,0.388 -2.638,0.867 -3.952,1.316 a 1.715,1.715 0 0 0 -0.384,0.266 2.5,2.5 0 0 0 0.4,0.133 c 1.806,0.287 3.61,0.566 5.43,0.778 a 50.9,50.9 0 0 0 7.178,0.429 z"
           transform="translate(-0.19,-45.352)"
           fill="#ffffff" />
        <path
           id="Tracé_860"
           data-name="Tracé 860"
           d="m 129,62.744 c 0,1.064 -1.66,2.039 -4.456,2.82 a 42.423,42.423 0 0 1 -5.676,1.112 h -0.012 a 87.479,87.479 0 0 1 -11.409,0.7 76.785,76.785 0 0 1 -15.027,-1.313 v 0 C 91.675,65.91 90.986,65.74 90.353,65.563 87.734,64.83 86.115,63.932 85.917,62.944 a 17.655,17.655 0 0 0 2.252,0.777 58.947,58.947 0 0 0 12.267,1.7 v 0 c 1.551,0.077 3.167,0.117 4.826,0.117 q 1.7,0 3.332,-0.056 h 0.056 a 61.925,61.925 0 0 0 13.71,-1.757 c 2.8,-0.781 4.455,-1.756 4.455,-2.82 a 0.9,0.9 0 0 0 -0.024,-0.206 C 128.2,61.313 129,62.01 129,62.744"
           transform="translate(-32.691,-23.096)"
           fill="#ffffff" />
        <path
           id="Tracé_861"
           data-name="Tracé 861"
           d="m 125.733,57.327 v 0 a 0.325,0.325 0 0 1 0,0.064 1.157,1.157 0 0 1 -0.193,0.624 c 0,0 0,0 -0.008,0.008 -1.43,2.26 -10.442,4 -21.352,4 -8.484,0 -15.825,-1.056 -19.338,-2.583 -1.277,-0.556 -2.046,-1.176 -2.191,-1.829 a 1.01,1.01 0 0 1 -0.024,-0.222 0.378,0.378 0 0 1 0,-0.064 v 0 -3.644 a 18.223,18.223 0 0 0 3.2,1.281 c 0.427,0.133 0.87,0.258 1.337,0.382 a 50.476,50.476 0 0 0 5.636,1.1 h 0.008 a 82.118,82.118 0 0 0 11.369,0.75 79.238,79.238 0 0 0 13.334,-1.056 v 0 c 1.257,-0.222 2.429,-0.471 3.5,-0.745 q 0.792,-0.205 1.511,-0.427 a 18.242,18.242 0 0 0 3.2,-1.281 z"
           transform="translate(-31.441,-20.427)"
           fill="#ffffff" />
        <path
           id="Tracé_862"
           data-name="Tracé 862"
           d="m 125.733,47.72 c 0,1.064 -1.66,2.039 -4.456,2.82 -0.551,0.153 -1.148,0.3 -1.784,0.439 v 0 c -1.434,0.314 -3.078,0.584 -4.875,0.8 h -0.008 a 89.741,89.741 0 0 1 -10.426,0.576 c -2.977,0 -5.813,-0.129 -8.4,-0.363 a 0.008,0.008 0 0 0 -0.012,0 57.427,57.427 0 0 1 -7.072,-1.049 c -0.572,-0.129 -1.112,-0.262 -1.616,-0.4 -2.8,-0.781 -4.455,-1.756 -4.455,-2.82 0,-2.558 9.648,-4.633 21.553,-4.633 11.905,0 21.553,2.075 21.553,4.633"
           transform="translate(-31.441,-16.395)"
           fill="#ffffff" />
        <path
           id="Tracé_863"
           data-name="Tracé 863"
           d="m 83.1,87.888 c 0.169,0.081 0.354,0.161 0.548,0.242 -0.194,-0.076 -0.379,-0.157 -0.548,-0.242"
           transform="translate(-31.622,-33.443)"
           fill="#ffffff" />
        <path
           id="Tracé_864"
           data-name="Tracé 864"
           d="m 146.2,87.888 c -0.169,0.085 -0.354,0.165 -0.548,0.242 0.194,-0.081 0.379,-0.161 0.548,-0.242"
           transform="translate(-55.422,-33.443)"
           fill="#ffffff" />
        <path
           id="Tracé_865"
           data-name="Tracé 865"
           d="m 141.936,80.008 c 0.1,0.024 0.2,0.053 0.3,0.081 0.323,-0.089 0.632,-0.185 0.927,-0.278 -0.395,0.069 -0.806,0.133 -1.225,0.2"
           transform="translate(-54.009,-30.369)"
           fill="#ffffff" />
        <path
           id="Tracé_866"
           data-name="Tracé 866"
           d="m 118.676,77.032 a 68.717,68.717 0 0 1 -17.1,1.813 68.715,68.715 0 0 1 -17.1,-1.813 c -2.8,-0.782 -4.456,-1.756 -4.456,-2.82 0,-0.9 1.176,-1.733 3.223,-2.433 v 1.16 0 a 0.393,0.393 0 0 0 0,0.068 c 0,1.2 2.039,2.293 5.419,3.135 a 74.675,74.675 0 0 0 16.94,1.672 88.078,88.078 0 0 0 12.771,-0.862 c 0.1,0.024 0.2,0.053 0.3,0.081"
           transform="translate(-30.451,-27.313)"
           fill="#ffffff" />
        <path
           id="Tracé_867"
           data-name="Tracé 867"
           d="m 84.862,97.69 a 65.188,65.188 0 0 0 17.661,2.224 c -7.852,-0.053 -14.644,-1.007 -18.205,-2.4 0.177,0.064 0.359,0.121 0.544,0.177"
           transform="translate(-32.084,-37.105)"
           fill="#ffffff" />
        <path
           id="Tracé_868"
           data-name="Tracé 868"
           d="m 133.591,97.69 c 0.185,-0.056 0.367,-0.113 0.544,-0.177 -3.561,1.394 -10.353,2.348 -18.205,2.4 a 65.188,65.188 0 0 0 17.661,-2.224"
           transform="translate(-44.113,-37.105)"
           fill="#ffffff" />
        <path
           id="Tracé_869"
           data-name="Tracé 869"
           d="m 123.132,87.927 v 2.9 c 0,1.064 -1.66,2.038 -4.456,2.82 a 68.716,68.716 0 0 1 -17.1,1.813 68.721,68.721 0 0 1 -17.1,-1.813 c -2.8,-0.782 -4.455,-1.756 -4.455,-2.82 v -2.9 a 15.719,15.719 0 0 0 2.091,0.911 c 0.354,0.129 0.725,0.25 1.112,0.37 4.4,1.362 10.986,2.228 18.35,2.228 7.364,0 13.955,-0.866 18.35,-2.228 0.387,-0.121 0.758,-0.242 1.112,-0.37 a 15.719,15.719 0 0 0 2.091,-0.911"
           transform="translate(-30.451,-33.458)"
           fill="#ffffff" />
        <path
           id="Tracé_870"
           data-name="Tracé 870"
           d="m 123.132,82.469 v 0 a 0.325,0.325 0 0 1 0,0.064 c 0,0.045 0,0.085 -0.008,0.129 a 0.72,0.72 0 0 1 -0.016,0.089 l -0.012,0.048 a 0.885,0.885 0 0 1 -0.028,0.093 1.052,1.052 0 0 1 -0.061,0.137 0.908,0.908 0 0 1 -0.084,0.149 1.9,1.9 0 0 1 -0.262,0.322 c -0.052,0.052 -0.108,0.1 -0.169,0.157 -0.061,0.057 -0.113,0.1 -0.177,0.146 -0.048,0.036 -0.1,0.072 -0.153,0.108 -0.053,0.036 -0.081,0.056 -0.125,0.085 -0.044,0.029 -0.121,0.076 -0.185,0.113 -0.064,0.037 -0.141,0.084 -0.214,0.125 a 0.274,0.274 0 0 0 -0.064,0.037 c -0.084,0.04 -0.173,0.084 -0.261,0.129 a 0.75,0.75 0 0 1 -0.085,0.04 c -0.169,0.081 -0.354,0.161 -0.548,0.242 -0.225,0.093 -0.463,0.182 -0.713,0.27 -0.395,0.141 -0.826,0.274 -1.289,0.4 -0.789,0.222 -1.671,0.427 -2.635,0.613 -0.116,0.024 -0.237,0.048 -0.358,0.068 -0.576,0.109 -1.181,0.209 -1.809,0.307 -0.165,0.02 -0.335,0.044 -0.5,0.072 l -0.173,0.024 c -0.217,0.028 -0.435,0.056 -0.652,0.089 -0.217,0.033 -0.46,0.052 -0.693,0.081 -0.153,0.016 -0.306,0.036 -0.459,0.052 l -0.681,0.072 H 110.7 c -0.234,0.024 -0.471,0.048 -0.709,0.069 -0.331,0.032 -0.665,0.06 -1,0.084 -0.335,0.024 -0.665,0.053 -1,0.073 -0.169,0.012 -0.338,0.024 -0.507,0.032 q -0.417,0.03 -0.846,0.048 c -1.623,0.084 -3.315,0.129 -5.056,0.129 -1.741,0 -3.433,-0.045 -5.056,-0.129 -0.286,-0.012 -0.568,-0.028 -0.846,-0.048 -0.17,-0.008 -0.339,-0.02 -0.508,-0.032 q -0.507,-0.031 -1,-0.073 c -0.335,-0.024 -0.669,-0.052 -1,-0.084 -0.238,-0.02 -0.475,-0.045 -0.709,-0.069 H 92.451 L 91.77,86.658 C 91.617,86.642 91.464,86.622 91.311,86.606 91.077,86.578 90.843,86.55 90.618,86.525 90.393,86.5 90.183,86.464 89.966,86.436 l -0.173,-0.024 c -0.169,-0.028 -0.338,-0.053 -0.5,-0.072 -0.628,-0.1 -1.233,-0.2 -1.809,-0.307 -0.121,-0.02 -0.242,-0.044 -0.359,-0.068 -0.963,-0.185 -1.845,-0.391 -2.635,-0.613 -0.463,-0.129 -0.894,-0.261 -1.289,-0.4 -0.25,-0.089 -0.488,-0.177 -0.713,-0.27 C 82.295,84.601 82.109,84.521 81.94,84.44 A 0.749,0.749 0 0 1 81.855,84.4 c -0.089,-0.045 -0.177,-0.089 -0.262,-0.129 a 0.251,0.251 0 0 0 -0.064,-0.037 c -0.072,-0.04 -0.145,-0.081 -0.213,-0.125 -0.068,-0.044 -0.129,-0.077 -0.185,-0.113 -0.056,-0.036 -0.085,-0.056 -0.125,-0.085 -0.04,-0.029 -0.1,-0.072 -0.153,-0.108 -0.064,-0.049 -0.121,-0.1 -0.177,-0.146 -0.056,-0.046 -0.117,-0.1 -0.169,-0.157 A 1.847,1.847 0 0 1 80.245,83.178 0.962,0.962 0 0 1 80.16,83.029 1.047,1.047 0 0 1 80.1,82.892 0.761,0.761 0 0 1 80.072,82.799 L 80.06,82.751 a 0.617,0.617 0 0 1 -0.016,-0.089 1.274,1.274 0 0 1 -0.008,-0.129 0.379,0.379 0 0 1 0,-0.064 v 0 -3.646 a 18.223,18.223 0 0 0 3.2,1.281 c 4.4,1.362 10.986,2.228 18.35,2.228 7.364,0 13.955,-0.866 18.35,-2.228 a 18.243,18.243 0 0 0 3.2,-1.281 z"
           transform="translate(-30.451,-29.994)"
           fill="#ffffff" />
        <path
           id="Tracé_871"
           data-name="Tracé 871"
           d="m 123.132,99.377 v 0 a 0.325,0.325 0 0 1 0,0.064 c 0,2.558 -9.648,4.633 -21.553,4.633 -11.905,0 -21.553,-2.074 -21.553,-4.633 a 0.379,0.379 0 0 1 0,-0.064 v 0 -3.646 a 16.889,16.889 0 0 0 2.659,1.1 c 0.177,0.065 0.359,0.121 0.544,0.178 a 65.166,65.166 0 0 0 17.661,2.223 c 0.229,0 0.459,0 0.689,0 0.23,0 0.459,0 0.689,0 a 65.166,65.166 0 0 0 17.661,-2.223 c 0.185,-0.056 0.367,-0.113 0.544,-0.178 a 16.889,16.889 0 0 0 2.659,-1.1 z"
           transform="translate(-30.451,-36.427)"
           fill="#ffffff" />
        <path
           id="Tracé_872"
           data-name="Tracé 872"
           d="m 118.563,22.072 a 4.907,4.907 0 0 1 -0.018,-1.518 18.354,18.354 0 0 1 0.568,-3.817 17.865,17.865 0 0 1 4.267,-7.637 19.341,19.341 0 0 1 7.5,-4.665 35.69,35.69 0 0 1 7.629,-1.661 c 1.512,-0.2 1.976,18.013 -16.905,21.438 0,0 -1.473,0.3 -0.628,-1.267 0.845,-1.567 7.944,-11.3 7.944,-11.3 0,0 -6.367,5.048 -9.419,10.672 0,0 -0.615,0.768 -0.938,-0.236"
           transform="translate(-45.088,-1.053)"
           fill="#ffffff" />
        <path
           id="Tracé_873"
           data-name="Tracé 873"
           d="m 118.563,22.072 a 4.907,4.907 0 0 1 -0.018,-1.518 18.354,18.354 0 0 1 0.568,-3.817 17.865,17.865 0 0 1 4.267,-7.637 19.341,19.341 0 0 1 7.5,-4.665 35.69,35.69 0 0 1 7.629,-1.661 c 1.512,-0.2 1.976,18.013 -16.905,21.438 0,0 -1.473,0.3 -0.628,-1.267 0.845,-1.567 7.944,-11.3 7.944,-11.3 0,0 -6.367,5.048 -9.419,10.672 -0.001,-0.009 -0.615,0.76 -0.938,-0.245 z"
           transform="translate(-45.088,-1.053)"
           fill="#ffffff" />
        <path
           id="Tracé_874"
           data-name="Tracé 874"
           d="m 110.167,14.647 a 2.8,2.8 0 0 0 0.324,-0.8 10.448,10.448 0 0 0 0.49,-2.147 10.187,10.187 0 0 0 -0.683,-4.945 11.02,11.02 0 0 0 -3.018,-4.034 20.343,20.343 0 0 0 -3.709,-2.467 c -0.762,-0.42 -4.785,9.162 4.537,14.9 0,0 0.719,0.468 0.6,-0.543 -0.119,-1.011 -1.877,-7.653 -1.877,-7.653 a 24.158,24.158 0 0 1 2.792,7.623 c 0,0 0.167,0.536 0.547,0.069"
           transform="translate(-38.834,-0.091)"
           fill="#ffffff" />
        <path
           id="Tracé_875"
           data-name="Tracé 875"
           d="m 110.167,14.647 a 2.8,2.8 0 0 0 0.324,-0.8 10.448,10.448 0 0 0 0.49,-2.147 10.187,10.187 0 0 0 -0.683,-4.945 11.02,11.02 0 0 0 -3.018,-4.034 20.343,20.343 0 0 0 -3.709,-2.467 c -0.762,-0.42 -4.785,9.162 4.537,14.9 0,0 0.719,0.468 0.6,-0.543 -0.119,-1.011 -1.877,-7.653 -1.877,-7.653 a 24.158,24.158 0 0 1 2.792,7.623 c 0,0 0.164,0.532 0.544,0.066 z"
           transform="translate(-38.834,-0.091)"
           fill="#ffffff" />
        <path
           id="Tracé_876"
           data-name="Tracé 876"
           d="m 100.643,29.049 a 3.914,3.914 0 0 0 -0.4,-1.142 A 14.581,14.581 0 0 0 98.778,25.2 14.235,14.235 0 0 0 93.5,20.637 15.4,15.4 0 0 0 86.609,19.184 28.428,28.428 0 0 0 80.44,20.017 c -1.188,0.261 3.424,14.035 18.505,11.46 0,0 1.186,-0.172 0.125,-1.121 -1.061,-0.949 -9.03,-6.306 -9.03,-6.306 0,0 6.147,2.05 9.96,5.431 0,0 0.67,0.408 0.639,-0.432"
           transform="translate(-30.542,-7.3)"
           fill="#ffffff" />
        <path
           id="Tracé_877"
           data-name="Tracé 877"
           d="m 100.643,29.049 a 3.914,3.914 0 0 0 -0.4,-1.142 A 14.581,14.581 0 0 0 98.778,25.2 14.235,14.235 0 0 0 93.5,20.637 15.4,15.4 0 0 0 86.609,19.184 28.428,28.428 0 0 0 80.44,20.017 c -1.188,0.261 3.424,14.035 18.505,11.46 0,0 1.186,-0.172 0.125,-1.121 -1.061,-0.949 -9.03,-6.306 -9.03,-6.306 0,0 6.147,2.05 9.96,5.431 0,0 0.674,0.408 0.643,-0.432 z"
           transform="translate(-30.542,-7.3)"
           fill="#ffffff" />
        <path
           id="Tracé_878"
           data-name="Tracé 878"
           d="m 151.894,60.678 c 0,0 0,0.008 0,0.012 a 0.012,0.012 0 0 1 -0.008,0 c 0,0 0.008,0 0.008,-0.008"
           transform="translate(-57.795,-23.089)"
           fill="#ffffff" />
        <path
           id="Tracé_879"
           data-name="Tracé 879"
           d="m 128.985,67.117 v 3.646 0 a 0.325,0.325 0 0 1 0,0.064 c 0,1.048 -1.608,2.011 -4.323,2.784 a 42.08,42.08 0 0 1 -5.834,1.149 87.388,87.388 0 0 1 -11.4,0.7 76.7,76.7 0 0 1 -15.023,-1.313 c -4.028,-0.838 -6.53,-2.018 -6.53,-3.32 a 0.378,0.378 0 0 1 0,-0.064 v 0 -3.646 a 18.128,18.128 0 0 0 3.2,1.281 c 0.443,0.137 0.914,0.27 1.4,0.4 a 70.53,70.53 0 0 0 16.948,1.829 79.034,79.034 0 0 0 13.31,-1.051 41.149,41.149 0 0 0 5.04,-1.176 18.147,18.147 0 0 0 3.2,-1.281"
           transform="translate(-32.678,-25.539)"
           fill="#ffffff" />
      </g>
    </g>
  </g>
</svg>
