<?xml version="1.0" encoding="UTF-8" standalone="no"?>
<svg
   xmlns:dc="http://purl.org/dc/elements/1.1/"
   xmlns:cc="http://creativecommons.org/ns#"
   xmlns:rdf="http://www.w3.org/1999/02/22-rdf-syntax-ns#"
   xmlns:svg="http://www.w3.org/2000/svg"
   xmlns="http://www.w3.org/2000/svg"
   xmlns:sodipodi="http://sodipodi.sourceforge.net/DTD/sodipodi-0.dtd"
   xmlns:inkscape="http://www.inkscape.org/namespaces/inkscape"
   width="175"
   height="175"
   viewBox="0 0 175.00001 175.00001"
   version="1.1"
   id="svg79"
   sodipodi:docname="icon C city.svg"
   inkscape:version="1.0.1 (3bc2e813f5, 2020-09-07)">
  <metadata
     id="metadata83">
    <rdf:RDF>
      <cc:Work
         rdf:about="">
        <dc:format>image/svg+xml</dc:format>
        <dc:type
           rdf:resource="http://purl.org/dc/dcmitype/StillImage" />
        <dc:title></dc:title>
      </cc:Work>
    </rdf:RDF>
  </metadata>
  <sodipodi:namedview
     pagecolor="#ffffff"
     bordercolor="#666666"
     borderopacity="1"
     objecttolerance="10"
     gridtolerance="10"
     guidetolerance="10"
     inkscape:pageopacity="0"
     inkscape:pageshadow="2"
     inkscape:window-width="1360"
     inkscape:window-height="745"
     id="namedview81"
     showgrid="false"
     units="px"
     width="175mm"
     inkscape:zoom="1.4744898"
     inkscape:cx="142"
     inkscape:cy="87.487889"
     inkscape:window-x="-8"
     inkscape:window-y="-8"
     inkscape:window-maximized="1"
     inkscape:current-layer="Groupe_688" />
  <defs
     id="defs24">
    <filter
       id="Rectangle_28"
       x="0"
       y="0"
       width="284"
       height="392"
       filterUnits="userSpaceOnUse">
      <feOffset
         dx="9"
         dy="9"
         input="SourceAlpha"
         id="feOffset2" />
      <feGaussianBlur
         stdDeviation="4.5"
         result="blur"
         id="feGaussianBlur4" />
      <feFlood
         flood-opacity="0.161"
         id="feFlood6" />
      <feComposite
         operator="in"
         in2="blur"
         id="feComposite8"
         result="result1" />
      <feComposite
         in="SourceGraphic"
         in2="result1"
         id="feComposite10" />
    </filter>
    <filter
       id="Rectangle_1855"
       x="49.5"
       y="273.5"
       width="185"
       height="72"
       filterUnits="userSpaceOnUse">
      <feOffset
         dy="3"
         input="SourceAlpha"
         id="feOffset13" />
      <feGaussianBlur
         stdDeviation="3"
         result="blur-2"
         id="feGaussianBlur15" />
      <feFlood
         flood-color="#98984b"
         flood-opacity="0.129"
         id="feFlood17" />
      <feComposite
         operator="in"
         in2="blur-2"
         id="feComposite19"
         result="result1" />
      <feComposite
         in="SourceGraphic"
         in2="result1"
         id="feComposite21" />
    </filter>
  </defs>
  <g
     id="Groupe_688"
     data-name="Groupe 688"
     transform="translate(-1152.5,-2243.5)">
    <g
       id="undraw_city_girl_ccpd"
       transform="translate(1056.4815,2273.2133)">
      <path
         id="Tracé_349"
         data-name="Tracé 349"
         d="m 525.338,130.058 c -27.27,-21.02 -65.21,-21.879 -92.889,-1.4 -14.632,10.827 -25.975,27.391 -23.911,52.612 a 60.937,60.937 0 0 0 5.722,22.23 c 12,24.287 61.269,23.352 64.005,23.349 q 2.659,0 5.318,0.119 a 116.642,116.642 0 0 1 18.472,2.335 c 8.676,1.808 19.721,2.717 29.59,-0.708 a 34.3,34.3 0 0 0 4.873,-2.119 c 5.423,-2.882 11.494,-5.636 15.043,-12.472 a 56.336,56.336 0 0 0 5.546,-19.576 c 3.404,-29.177 -13.607,-50.368 -31.769,-64.37 z"
         transform="translate(-297.567,-113.785)"
         fill="#f2f2f2" />
      <ellipse
         id="Ellipse_36"
         data-name="Ellipse 36"
         cx="77.980003"
         cy="7.3200002"
         rx="77.980003"
         ry="7.3200002"
         transform="translate(108.155,106.214)"
         fill="#3f3d56" />
      <ellipse
         id="Ellipse_37"
         data-name="Ellipse 37"
         cx="72.528"
         cy="3.4360001"
         rx="72.528"
         ry="3.4360001"
         transform="translate(109.799,110.098)"
         opacity="0.1" />
      <path
         id="Tracé_350"
         data-name="Tracé 350"
         d="m 858.541,73.342 v 8.212 h -10.692 v 89.561 h 22.313 V 73.342 Z"
         transform="translate(-636.091,-57.842)"
         fill="#575a89" />
      <path
         id="Tracé_351"
         data-name="Tracé 351"
         d="m 549.858,281.739 v -14.1 h -13.636 v 14.1 h -5.113 v 42.766 h 23.707 v -42.766 z"
         transform="translate(-386.289,-211.078)"
         fill="#575a89" />
      <rect
         id="Rectangle_1959"
         data-name="Rectangle 1959"
         width="18.438999"
         height="19.988001"
         transform="translate(147.454,93.594)"
         fill="#3f3d56"
         x="0"
         y="0" />
      <rect
         id="Rectangle_1960"
         data-name="Rectangle 1960"
         width="2.944"
         height="19.988001"
         transform="translate(147.454,93.594)"
         opacity="0.1"
         x="0"
         y="0" />
      <path
         id="Tracé_352"
         data-name="Tracé 352"
         d="m 678.616,52.079 v 4.8 h -27.272 v -4.8 h -8.057 v 102.577 h 43.231 V 52.079 Z"
         transform="translate(-474.76,-41.073)"
         fill="#3f3d56" />
      <rect
         id="Rectangle_1961"
         data-name="Rectangle 1961"
         width="6.0430002"
         height="4.803"
         transform="translate(203.855,11.006)"
         opacity="0.1"
         x="0"
         y="0" />
      <rect
         id="Rectangle_1962"
         data-name="Rectangle 1962"
         width="6.0430002"
         height="102.577"
         transform="translate(168.527,11.006)"
         opacity="0.1"
         x="0"
         y="0" />
      <path
         id="Tracé_353"
         data-name="Tracé 353"
         d="m 455.17,176.2 v -3.874 h -4.029 v 3.874 h -7.283 v 73.291 H 462.3 V 176.2 Z"
         transform="translate(-317.478,-135.905)"
         fill="#3f3d56" />
      <rect
         id="Rectangle_1963"
         data-name="Rectangle 1963"
         width="2.1689999"
         height="3.8740001"
         transform="translate(133.663,36.418)"
         opacity="0.1"
         x="0"
         y="0" />
      <rect
         id="Rectangle_1964"
         data-name="Rectangle 1964"
         width="2.1689999"
         height="73.291"
         transform="translate(126.381,40.292)"
         opacity="0.1"
         x="0"
         y="0" />
      <rect
         id="Rectangle_1965"
         data-name="Rectangle 1965"
         width="6.0430002"
         height="63.063999"
         transform="translate(203.855,50.518)"
         opacity="0.1"
         x="0"
         y="0" />
      <rect
         id="Rectangle_1966"
         data-name="Rectangle 1966"
         width="5.5780001"
         height="13.481"
         transform="translate(139.241,40.292)"
         opacity="0.1"
         x="0"
         y="0" />
      <rect
         id="Rectangle_1967"
         data-name="Rectangle 1967"
         width="8.677"
         height="3.7190001"
         transform="translate(175.19,24.022)"
         fill="#ff6584"
         x="0"
         y="0" />
      <rect
         id="Rectangle_1968"
         data-name="Rectangle 1968"
         width="8.677"
         height="3.7190001"
         transform="translate(193.629,62.294)"
         fill="#ff6584"
         x="0"
         y="0" />
      <rect
         id="Rectangle_1969"
         data-name="Rectangle 1969"
         width="8.677"
         height="3.7190001"
         transform="translate(175.19,89.101)"
         fill="#ff6584"
         x="0"
         y="0" />
      <rect
         id="Rectangle_1970"
         data-name="Rectangle 1970"
         width="8.677"
         height="3.7190001"
         transform="translate(131.339,57.026)"
         fill="#ff6584"
         x="0"
         y="0" />
      <rect
         id="Rectangle_1971"
         data-name="Rectangle 1971"
         width="8.677"
         height="3.7190001"
         transform="translate(152.412,95.764)"
         fill="#ff6584"
         x="0"
         y="0" />
      <rect
         id="Rectangle_1972"
         data-name="Rectangle 1972"
         width="14.875"
         height="6.198"
         transform="translate(149.313,73.916)"
         opacity="0.1"
         x="0"
         y="0" />
      <rect
         id="Rectangle_1973"
         data-name="Rectangle 1973"
         width="14.875"
         height="6.198"
         transform="translate(214.392,30.84)"
         opacity="0.1"
         x="0"
         y="0" />
      <rect
         id="Rectangle_1974"
         data-name="Rectangle 1974"
         width="14.875"
         height="6.198"
         transform="translate(214.392,44.01)"
         opacity="0.1"
         x="0"
         y="0" />
      <rect
         id="Rectangle_1975"
         data-name="Rectangle 1975"
         width="14.875"
         height="6.198"
         transform="translate(214.392,57.181)"
         opacity="0.1"
         x="0"
         y="0" />
      <rect
         id="Rectangle_1976"
         data-name="Rectangle 1976"
         width="14.875"
         height="6.198"
         transform="translate(214.392,70.352)"
         opacity="0.1"
         x="0"
         y="0" />
      <rect
         id="Rectangle_1977"
         data-name="Rectangle 1977"
         width="14.875"
         height="6.198"
         transform="translate(214.392,83.523)"
         opacity="0.1"
         x="0"
         y="0" />
      <rect
         id="Rectangle_1978"
         data-name="Rectangle 1978"
         width="14.875"
         height="6.198"
         transform="translate(214.392,96.693)"
         opacity="0.1"
         x="0"
         y="0" />
      <path
         id="Tracé_354"
         data-name="Tracé 354"
         d="m 922.69,215.607 v -16.889 h -10.846 v 16.889 h -3.874 v 54.7 h 18.439 v -54.7 z"
         transform="translate(-683.506,-156.722)"
         fill="#3f3d56" />
      <rect
         id="Rectangle_1979"
         data-name="Rectangle 1979"
         width="3.4089999"
         height="16.889"
         transform="translate(228.337,41.996)"
         opacity="0.1"
         x="0"
         y="0" />
      <rect
         id="Rectangle_1980"
         data-name="Rectangle 1980"
         width="3.4089999"
         height="54.696999"
         transform="translate(224.464,58.886)"
         opacity="0.1"
         x="0"
         y="0" />
      <rect
         id="Rectangle_1981"
         data-name="Rectangle 1981"
         width="9.1420002"
         height="5.4229999"
         transform="translate(233.761,86.312)"
         opacity="0.1"
         x="0"
         y="0" />
      <rect
         id="Rectangle_1982"
         data-name="Rectangle 1982"
         width="8.677"
         height="3.7190001"
         transform="translate(234.071,78.254)"
         fill="#ff6584"
         x="0"
         y="0" />
      <path
         id="Tracé_355"
         data-name="Tracé 355"
         d="m 1024.691,384.781 c 0,13.8 -8.207,18.625 -18.33,18.625 -10.123,0 -18.33,-4.82 -18.33,-18.625 0,-13.805 18.33,-31.366 18.33,-31.366 0,0 18.33,17.562 18.33,31.366 z"
         transform="translate(-754.784,-302.773)"
         fill="#98984b" />
      <path
         id="Tracé_356"
         data-name="Tracé 356"
         d="m 1005.613,287.509 0.188,-11.553 7.813,-14.293 -7.783,12.481 0.085,-5.195 5.384,-10.341 -5.362,8.966 v 0 l 0.152,-9.343 5.766,-8.233 -5.742,6.764 0.095,-17.132 -0.6,22.68 0.049,-0.936 -5.858,-8.974 5.768,10.769 -0.546,10.435 -0.016,-0.277 -6.758,-9.443 6.738,10.421 -0.068,1.3 -0.012,0.019 0.01,0.107 -1.386,26.474 h 1.851 l 0.222,-13.674 6.721,-10.4 z"
         transform="translate(-754.704,-188.988)"
         fill="#3f3d56" />
      <path
         id="Tracé_357"
         data-name="Tracé 357"
         d="m 389.018,385.488 c 0,13.8 -8.207,18.625 -18.33,18.625 -10.123,0 -18.33,-4.82 -18.33,-18.625 0,-13.805 18.33,-31.366 18.33,-31.366 0,0 18.33,17.562 18.33,31.366 z"
         transform="translate(-253.451,-303.33)"
         fill="#98984b" />
      <path
         id="Tracé_358"
         data-name="Tracé 358"
         d="m 369.94,288.216 0.188,-11.553 7.813,-14.293 -7.783,12.481 0.084,-5.195 5.384,-10.341 -5.362,8.966 v 0 l 0.152,-9.343 5.766,-8.233 -5.742,6.764 0.095,-17.132 -0.6,22.68 0.049,-0.936 -5.862,-8.973 5.768,10.769 -0.546,10.435 -0.016,-0.277 -6.758,-9.443 6.738,10.421 -0.068,1.3 -0.012,0.02 0.006,0.107 -1.386,26.474 h 1.852 l 0.222,-13.674 6.721,-10.4 z"
         transform="translate(-253.371,-189.545)"
         fill="#3f3d56" />
    </g>
    <text
       id="Découvrir"
       transform="translate(1240.074,2557)"
       fill="#ffffff"
       font-size="20px"
       font-family="HelveticaNeue-Medium, 'Helvetica Neue'"
       font-weight="500"><tspan
         x="0"
         y="0"
         id="tspan74">Découvrir</tspan></text>
    <path
       id="Tracé_902"
       data-name="Tracé 902"
       d="M 1.7,0.8 6.944,6.044 1.7,11.288"
       transform="translate(1345.606,2545.7)"
       fill="none"
       stroke="#ffffff"
       stroke-miterlimit="10"
       stroke-width="2" />
  </g>
</svg>
