<svg xmlns="http://www.w3.org/2000/svg" xmlns:xlink="http://www.w3.org/1999/xlink" width="316" height="437" viewBox="0 0 316 437">
  <defs>
    <filter id="Rectangle_1987" x="0" y="0" width="316" height="437" filterUnits="userSpaceOnUse">
      <feOffset dx="9" dy="9" input="SourceAlpha"/>
      <feGaussianBlur stdDeviation="4.5" result="blur"/>
      <feFlood flood-opacity="0.161"/>
      <feComposite operator="in" in2="blur"/>
      <feComposite in="SourceGraphic"/>
    </filter>
    <filter id="Rectangle_1855" x="46.5" y="307.5" width="205" height="79" filterUnits="userSpaceOnUse">
      <feOffset dy="3" input="SourceAlpha"/>
      <feGaussianBlur stdDeviation="3" result="blur-2"/>
      <feFlood flood-color="#98984b" flood-opacity="0.129"/>
      <feComposite operator="in" in2="blur-2"/>
      <feComposite in="SourceGraphic"/>
    </filter>
  </defs>
  <g id="Groupe_747" data-name="Groupe 747" transform="translate(4.608 4.5)">
    <g id="Groupe_732" data-name="Groupe 732" transform="translate(0 0)">
      <g transform="matrix(1, 0, 0, 1, -4.61, -4.5)" filter="url(#Rectangle_1987)">
        <rect id="Rectangle_1987-2" data-name="Rectangle 1987" width="289" height="410" transform="translate(4.5 4.5)" fill="#fff"/>
      </g>
      <text id="Porteurs_de_projets" data-name="Porteurs de projets" transform="translate(143.893 52)" fill="#343434" font-size="27" font-family="HelveticaNeue-Bold, Helvetica Neue" font-weight="700"><tspan x="-124.024" y="0">Porteurs de projets</tspan></text>
      <g transform="matrix(1, 0, 0, 1, -4.61, -4.5)" filter="url(#Rectangle_1855)">
        <rect id="Rectangle_1855-2" data-name="Rectangle 1855" width="187" height="61" rx="27" transform="translate(55.5 313.5)" fill="#484738"/>
      </g>
      <text id="Découvrir" transform="translate(83.721 344.973)" fill="#fff" font-size="21" font-family="HelveticaNeue-Medium, Helvetica Neue" font-weight="500"><tspan x="0" y="0">Découvrir</tspan></text>
      <path id="Tracé_224" data-name="Tracé 224" d="M1.7.8,7.6,6.7l-5.9,5.9" transform="translate(197.403 334.855)" fill="none" stroke="#fff" stroke-miterlimit="10" stroke-width="2"/>
    </g>
    <g id="undraw_ideas_flow_re_bmea" transform="translate(76.488 116.166)">
      <path id="Tracé_1005" data-name="Tracé 1005" d="M405.165,723.715a.331.331,0,0,0,.33.332H513.432a.332.332,0,0,0,0-.663H405.5a.331.331,0,0,0-.332.33Z" transform="translate(-405.165 -570.339)" fill="#ccc"/>
      <path id="Tracé_1006" data-name="Tracé 1006" d="M558.567,558.8a12.355,12.355,0,0,1,3.575-.194.421.421,0,0,0,.418-.418.427.427,0,0,0-.418-.418,13.129,13.129,0,0,0-3.8.224.418.418,0,0,0,.222.806Z" transform="translate(-515.433 -450.846)" fill="#ccc" opacity="0.5" style="isolation: isolate"/>
      <path id="Tracé_1007" data-name="Tracé 1007" d="M447.335,498.571a17.229,17.229,0,0,1-3.671-10.376.841.841,0,0,1,.512-1.072l7.836-2.773a.841.841,0,0,1,1.072.512l3.671,10.376a.841.841,0,0,1-.512,1.072l-7.836,2.773A.841.841,0,0,1,447.335,498.571Z" transform="translate(-432.9 -397.889)" fill="#f2f2f2"/>
      <path id="Tracé_1008" data-name="Tracé 1008" d="M449.1,505.545a.841.841,0,0,1-1.072-.512,17.229,17.229,0,0,1-3.671-10.376.83.83,0,0,1-.031-.43l-.154.055a.841.841,0,0,0-.512,1.072,17.229,17.229,0,0,0,3.671,10.376.841.841,0,0,0,1.072.512l7.836-2.773a.837.837,0,0,0,.543-.642Z" transform="translate(-432.9 -405.048)" opacity="0.2" style="isolation: isolate"/>
      <path id="Tracé_1009" data-name="Tracé 1009" d="M461.748,505.292l-5.246,1.872a.334.334,0,0,1-.225-.63l5.246-1.872a.334.334,0,0,1,.225.629Z" transform="translate(-441.873 -412.56)" fill="#fff"/>
      <path id="Tracé_1010" data-name="Tracé 1010" d="M455.443,504.339l-1.154.412a.334.334,0,0,1-.227-.629h0l1.154-.412a.334.334,0,0,1,.225.63Z" transform="translate(-440.276 -411.873)" fill="#fff"/>
      <path id="Tracé_1011" data-name="Tracé 1011" d="M465.293,515.221l-5.246,1.872a.334.334,0,1,1-.225-.629l5.246-1.873a.334.334,0,0,1,.227.629Z" transform="translate(-444.43 -419.722)" fill="#fff"/>
      <path id="Tracé_1012" data-name="Tracé 1012" d="M463.52,510.257l-5.246,1.872a.334.334,0,0,1-.226-.629h0l5.246-1.872a.334.334,0,0,1,.225.63Z" transform="translate(-443.15 -416.141)" fill="#fff"/>
      <ellipse id="Ellipse_190" data-name="Ellipse 190" cx="1.393" cy="1.393" rx="1.393" ry="1.393" transform="translate(13.592 86.555)" fill="#ccc"/>
      <path id="Tracé_1013" data-name="Tracé 1013" d="M587.071,241.7c.022,2.04.672,6.287.206,8.286l-.075-.167a9.167,9.167,0,0,1-1.229.822,5.888,5.888,0,0,0-1.366-2.007,7.048,7.048,0,0,1-.326,2.776c-1.742.627-4.8-1.349-6.694-1.391a37,37,0,0,1-8.932-1.63,4.1,4.1,0,0,1-2.639-1.513c-.468-.858.37-1.785.315-2.754-.391-6.9,2.9-8.056,6.023-9.9.688-.406,1.026-1.279,1.8-1.619a6.018,6.018,0,0,1,3.537-.008,1.787,1.787,0,0,1-1.182-1.293,1.612,1.612,0,0,1,.63-1.561,2.9,2.9,0,0,1,2.436-.348,8.143,8.143,0,0,1,2.235,1.1,4.438,4.438,0,0,1,1.226.992,1.229,1.229,0,0,1,.145,1.393,1.593,1.593,0,0,1-1.246.6,4.171,4.171,0,0,1-1.1-.114,8.352,8.352,0,0,1,4.256,2.575A8.9,8.9,0,0,1,587.071,241.7Z" transform="translate(-521.084 -213.937)" fill="#2f2e41"/>
      <path id="Tracé_1014" data-name="Tracé 1014" d="M466.5,335.341a2.552,2.552,0,0,0,3.333,1.25,2.448,2.448,0,0,0,.353-.2l7.176,5.272,3.956-2.7-10.611-6.16a2.546,2.546,0,0,0-3.017-.747,2.436,2.436,0,0,0-1.22,3.222h0Z" transform="translate(-449.233 -287.919)" fill="#ffb6b6"/>
      <path id="Tracé_1015" data-name="Tracé 1015" d="M708.223,327.167A2.553,2.553,0,0,0,706,329.946a2.449,2.449,0,0,0,.078.4l-7.243,5.18,1.335,4.6,9.155-8.169a2.545,2.545,0,0,0,1.648-2.635,2.436,2.436,0,0,0-2.682-2.161Z" transform="translate(-616.99 -284.53)" fill="#ffb6b6"/>
      <path id="Tracé_1016" data-name="Tracé 1016" d="M130.188,510.023l-2.333-.02-1.032-9.206,3.442.029Z" transform="translate(-91.478 -361.227)" fill="#ffb6b6"/>
      <path id="Tracé_1017" data-name="Tracé 1017" d="M517.254,708.378a1.044,1.044,0,0,0,1.034,1.052l4.637.039.812-1.646.3,1.654,1.75.016-.442-5.9-.609-.04-2.483-.171-.8-.054L521.436,705l-3.725,2.527A1.043,1.043,0,0,0,517.254,708.378Z" transform="translate(-486.015 -555.873)" fill="#2f2e41"/>
      <path id="Tracé_1018" data-name="Tracé 1018" d="M228.2,477.389l-1.9,1.347-6.217-6.868,2.811-1.988Z" transform="translate(-158.745 -338.927)" fill="#ffb6b6"/>
      <path id="Tracé_1019" data-name="Tracé 1019" d="M639.911,675.243a1.044,1.044,0,0,0,1.454.25l3.786-2.678-.3-1.81,1.208,1.168,1.43-1.01-3.806-4.529-.518.323-2.115,1.312-.681.425.964,1.363-1.547,4.227A1.043,1.043,0,0,0,639.911,675.243Z" transform="translate(-574.35 -529.405)" fill="#2f2e41"/>
      <path id="Tracé_1020" data-name="Tracé 1020" d="M145.174,225.353l6.775-15.734h15.606l-4.5,16.42Z" transform="translate(-104.715 -151.199)" fill="#ffb6b6"/>
      <path id="Tracé_1021" data-name="Tracé 1021" d="M459.807,648.218a.632.632,0,0,1-.458-1.1l.043-.172-.017-.041a1.7,1.7,0,0,0-3.133.012,15.082,15.082,0,0,0-1.325,3.775,5.024,5.024,0,0,0,.088,1.728,20.145,20.145,0,0,1-1.832-8.367,19.407,19.407,0,0,1,.121-2.169q.1-.886.277-1.759a20.377,20.377,0,0,1,4.041-8.637,5.424,5.424,0,0,0,2.255-2.34,4.14,4.14,0,0,0,.376-1.13,5.105,5.105,0,0,1-.331-1.76c-.153-.232-.427-.348-.594-.574-.831-1.127-1.976-.93-2.574.6-1.277.645-1.289,1.713-.506,2.741.5.654.567,1.539,1,2.239-.045.058-.092.113-.137.171a20.511,20.511,0,0,0-2.141,3.391,8.527,8.527,0,0,0-.509-3.96,14.284,14.284,0,0,0-2.2-3.181,1.75,1.75,0,0,0-3.117.859l0,.045q.179.1.351.215a.858.858,0,0,1-.346,1.561l-.018,0a8.537,8.537,0,0,0,.225,1.276c-1.032,3.99,1.2,5.443,4.376,5.508.07.036.139.072.209.106a20.935,20.935,0,0,0-1.127,5.3,19.86,19.86,0,0,0,.014,3.206l-.005-.038a5.247,5.247,0,0,0-1.791-3.03c-1.378-1.132-3.326-1.549-4.813-2.459a.985.985,0,0,0-1.508.958l.006.04a5.748,5.748,0,0,1,.646.312q.179.1.351.215a.858.858,0,0,1-.346,1.561l-.017,0-.036.005a8.545,8.545,0,0,0,1.571,2.461c.645,3.483,3.416,3.813,6.379,2.8h0a20.932,20.932,0,0,0,1.406,4.1h5.022c.018-.056.034-.113.05-.169a5.7,5.7,0,0,1-1.39-.083c.373-.457.745-.918,1.118-1.375a.316.316,0,0,0,.023-.027c.189-.234.38-.466.569-.7h0a8.361,8.361,0,0,0-.245-2.129Z" transform="translate(-433.674 -499.351)" fill="#f2f2f2"/>
      <path id="Tracé_1022" data-name="Tracé 1022" d="M692.8,648.218a.632.632,0,0,0,.458-1.1l-.043-.172.017-.041a1.7,1.7,0,0,1,3.133.012,15.085,15.085,0,0,1,1.325,3.775,5.022,5.022,0,0,1-.088,1.728,20.147,20.147,0,0,0,1.832-8.367,19.422,19.422,0,0,0-.121-2.169q-.1-.886-.277-1.759A20.377,20.377,0,0,0,695,631.492a5.424,5.424,0,0,1-2.255-2.34,4.14,4.14,0,0,1-.376-1.13,5.1,5.1,0,0,0,.331-1.76c.153-.232.427-.348.594-.574.831-1.127,1.976-.93,2.574.6,1.277.645,1.289,1.713.506,2.741-.5.654-.567,1.539-1,2.239.045.058.092.113.137.171a20.528,20.528,0,0,1,2.141,3.391,8.526,8.526,0,0,1,.509-3.96,14.284,14.284,0,0,1,2.2-3.181,1.75,1.75,0,0,1,3.117.859l0,.045q-.179.1-.351.215a.858.858,0,0,0,.346,1.561l.018,0a8.526,8.526,0,0,1-.225,1.276c1.032,3.99-1.2,5.443-4.376,5.508-.07.036-.139.072-.209.106a20.946,20.946,0,0,1,1.127,5.3,19.881,19.881,0,0,1-.014,3.206l.005-.038a5.247,5.247,0,0,1,1.791-3.03c1.378-1.132,3.326-1.549,4.813-2.459a.985.985,0,0,1,1.508.958l-.006.04a5.75,5.75,0,0,0-.646.312q-.179.1-.351.215a.858.858,0,0,0,.346,1.561l.018,0,.036.005a8.546,8.546,0,0,1-1.571,2.461c-.645,3.483-3.416,3.813-6.379,2.8h0a20.916,20.916,0,0,1-1.406,4.1H692.93c-.018-.056-.034-.113-.05-.169a5.7,5.7,0,0,0,1.39-.083c-.372-.457-.745-.918-1.118-1.375a.327.327,0,0,1-.023-.027c-.189-.234-.38-.466-.569-.7h0a8.364,8.364,0,0,1,.245-2.129Z" transform="translate(-612.326 -499.351)" fill="#f2f2f2"/>
      <path id="Tracé_1023" data-name="Tracé 1023" d="M532.929,436.071,526.2,450.1l.48,55.922h5.762a5.863,5.863,0,0,0,1.12-2.569c0-1.059-1.905-1.212-.635-2.512s1.694-1.723,1.694-2.993V477.628l4.543-19.7-.48,21.647,16.325,19.483,3.8-3.8s1.112-.49,0-1.543-1.806.807-1.882-2.134.558-2.306-.077-2.941-9.526-11.249-9.526-11.249,8.044-34.272,4.021-40.836Z" transform="translate(-492.47 -363.099)" fill="#2f2e41"/>
      <path id="Tracé_1024" data-name="Tracé 1024" d="M570.062,340.766s-17.362-6.14-16.091-9.528,3.4-2.736.855-3.8-4.238-1.279-2.652-2.761,3.914-2.964,3.914-4.446,1.906-13.127,1.906-13.127h3.05l3.09-5.293H568.5l2.2,4.87h4.643l.227,7.41s.3,14.316-1.12,14.886-2.691.57-1.42,1.84,1.994,1.927,1.42,3.081S570.062,340.766,570.062,340.766Z" transform="translate(-510.759 -266.255)" fill="#e6e6e6"/>
      <path id="Tracé_1025" data-name="Tracé 1025" d="M627.069,321.4l2.737-2.117s4.673,0,5.308,2.541,4.458,8.754,4.458,8.754,3.8-2.19,5.281-2.19,2.541,1.059,2.541-.212-.847-1.482.423-1.482a22.469,22.469,0,0,0,4.658-1.27l3.614,3.613s-.438,3.373-1.92,3.162-2.329-1.27-2.329,0,.847,3.176-1.059,3.388-14.609,3.388-14.609,3.388l-8.681-12.7Z" transform="translate(-565.226 -278.858)" fill="#e6e6e6"/>
      <path id="Tracé_1026" data-name="Tracé 1026" d="M512.455,321.4l-2.737-2.117s-4.673,0-5.308,2.541-4.671,8.754-4.671,8.754-3.586-2.19-5.068-2.19-2.541,1.059-2.541-.212.847-1.482-.423-1.482a22.472,22.472,0,0,1-4.658-1.27l-3.614,3.613s.438,3.373,1.92,3.162,2.329-1.27,2.329,0-.847,3.176,1.059,3.388,14.609,3.388,14.609,3.388l8.681-12.7Z" transform="translate(-461.621 -278.858)" fill="#e6e6e6"/>
      <ellipse id="Ellipse_191" data-name="Ellipse 191" cx="6.757" cy="6.757" rx="6.757" ry="6.757" transform="translate(48.293 20.89)" fill="#ffb6b6"/>
      <path id="Tracé_1027" data-name="Tracé 1027" d="M590.585,246.995a3.052,3.052,0,0,1-3.027.758c-.332-.047-.663-.1-.995-.162-.059-.187-.125-.373-.2-.555A5.889,5.889,0,0,0,585,245.03a6.942,6.942,0,0,1-.17,2.21q-.924-.213-1.839-.477a2.134,2.134,0,0,1-1.778-2.341,5.042,5.042,0,0,1-2.837,1.26,2.648,2.648,0,0,1-2.48-1.931,6.373,6.373,0,0,1-.12-2.7c.134-1.073.435-2.252,1.159-2.684a1.95,1.95,0,0,1,1.853.184,21.349,21.349,0,0,1,3.734,2.291l.014.293a3.147,3.147,0,0,1,2.38-2.664,4.085,4.085,0,0,1,2.132.6,10.055,10.055,0,0,1,2.483,1.563,5.534,5.534,0,0,1,1.678,2.89A4.336,4.336,0,0,1,590.585,246.995Z" transform="translate(-528.163 -220.368)" fill="#2f2e41"/>
      <path id="Tracé_1028" data-name="Tracé 1028" d="M600.546,229.967c.069.006-.1-.033-.046-.01a.553.553,0,0,1-.078-.044s-.059-.047-.023-.016a.543.543,0,0,1-.179-.25,2.247,2.247,0,0,1-.106-.744,2.356,2.356,0,0,0-.166-.971.579.579,0,0,0-.913-.2,1.35,1.35,0,0,0-.262.9,2.9,2.9,0,0,0,.1.926,2.656,2.656,0,0,0,.813,1.277,2.779,2.779,0,0,0,1.61.68.422.422,0,0,0,.3-.714l-.748-.71a.418.418,0,0,0-.591.591l.748.71.3-.714a1.665,1.665,0,0,1-.363-.074,1.4,1.4,0,0,1-.363-.159,1.73,1.73,0,0,1-.309-.216,2.376,2.376,0,0,1-.174-.169l-.059-.066s-.079-.1-.044-.053a2.356,2.356,0,0,1-.225-.377.95.95,0,0,1-.055-.145,2.2,2.2,0,0,1-.065-.25,2.173,2.173,0,0,1-.029-.538,2.21,2.21,0,0,1,.023-.228.918.918,0,0,0,.023-.121c0-.1-.014.054-.067.078l-.211.057a.229.229,0,0,1-.172-.1q-.013-.052.007.019a1.354,1.354,0,0,1,.037.169,3.921,3.921,0,0,1,.028.4,3.961,3.961,0,0,0,.1.841,1.346,1.346,0,0,0,1.17,1.06.421.421,0,0,0,.418-.418A.426.426,0,0,0,600.546,229.967Z" transform="translate(-544.812 -212.717)" fill="#2f2e41"/>
      <path id="Tracé_1029" data-name="Tracé 1029" d="M719.335,296.571a17.229,17.229,0,0,1-3.671-10.376.841.841,0,0,1,.512-1.072l7.836-2.773a.841.841,0,0,1,1.072.512l3.671,10.376a.841.841,0,0,1-.512,1.072l-7.836,2.773A.841.841,0,0,1,719.335,296.571Z" transform="translate(-629.095 -252.185)" fill="#98984b"/>
      <path id="Tracé_1030" data-name="Tracé 1030" d="M721.1,303.545a.841.841,0,0,1-1.072-.512,17.229,17.229,0,0,1-3.671-10.376.83.83,0,0,1-.031-.43l-.154.055a.841.841,0,0,0-.512,1.072,17.228,17.228,0,0,0,3.671,10.376.841.841,0,0,0,1.072.512l7.836-2.773a.838.838,0,0,0,.543-.642Z" transform="translate(-629.095 -259.344)" opacity="0.2" style="isolation: isolate"/>
      <path id="Tracé_1031" data-name="Tracé 1031" d="M733.748,303.292l-5.246,1.872a.334.334,0,0,1-.225-.63l5.246-1.872a.334.334,0,1,1,.225.629Z" transform="translate(-638.068 -266.856)" fill="#fff"/>
      <path id="Tracé_1032" data-name="Tracé 1032" d="M727.445,302.339l-1.154.412a.334.334,0,1,1-.225-.629h0l1.154-.412a.334.334,0,0,1,.225.629Z" transform="translate(-636.472 -266.169)" fill="#fff"/>
      <path id="Tracé_1033" data-name="Tracé 1033" d="M737.292,313.222l-5.246,1.872a.334.334,0,1,1-.225-.629h0l5.246-1.872a.334.334,0,1,1,.225.629Z" transform="translate(-640.624 -274.019)" fill="#fff"/>
      <path id="Tracé_1034" data-name="Tracé 1034" d="M735.52,308.256l-5.246,1.872a.334.334,0,1,1-.225-.629h0l5.246-1.873a.334.334,0,1,1,.225.629Z" transform="translate(-639.345 -270.437)" fill="#fff"/>
      <ellipse id="Ellipse_192" data-name="Ellipse 192" cx="1.393" cy="1.393" rx="1.393" ry="1.393" transform="translate(89.397 30.258)" fill="#3f3d56"/>
      <path id="Tracé_1035" data-name="Tracé 1035" d="M483.553,183.1a17.228,17.228,0,0,1,6.922-8.556.841.841,0,0,1,1.182-.125l6.462,5.228a.841.841,0,0,1,.125,1.182l-6.922,8.556a.841.841,0,0,1-1.182.125l-6.462-5.228a.841.841,0,0,1-.125-1.182Z" transform="translate(-461.572 -174.237)" fill="#98984b"/>
      <path id="Tracé_1036" data-name="Tracé 1036" d="M484.636,184.516a.841.841,0,0,1-.125-1.182,17.229,17.229,0,0,1,6.922-8.556.83.83,0,0,1,.351-.251l-.127-.1a.841.841,0,0,0-1.182.125,17.229,17.229,0,0,0-6.922,8.556.841.841,0,0,0,.125,1.182l6.462,5.228a.837.837,0,0,0,.831.126Z" transform="translate(-461.572 -174.237)" opacity="0.2" style="isolation: isolate"/>
      <path id="Tracé_1037" data-name="Tracé 1037" d="M507.006,197.193l-4.34-3.491a.334.334,0,0,1,.419-.521l4.34,3.491a.334.334,0,1,1-.419.521Z" transform="translate(-475.403 -187.848)" fill="#fff"/>
      <path id="Tracé_1038" data-name="Tracé 1038" d="M507.743,189.346l-.955-.768a.334.334,0,1,1,.419-.521l.955.768a.334.334,0,1,1-.419.521Z" transform="translate(-478.376 -184.152)" fill="#fff"/>
      <path id="Tracé_1039" data-name="Tracé 1039" d="M500.4,205.409l-4.34-3.491a.334.334,0,0,1,.419-.521l4.34,3.491a.334.334,0,1,1-.419.521Z" transform="translate(-470.636 -193.774)" fill="#fff"/>
      <path id="Tracé_1040" data-name="Tracé 1040" d="M503.7,201.3l-4.34-3.491a.334.334,0,0,1,.418-.522h0l4.34,3.491a.334.334,0,0,1-.418.522Z" transform="translate(-473.018 -190.81)" fill="#fff"/>
      <ellipse id="Ellipse_193" data-name="Ellipse 193" cx="1.393" cy="1.393" rx="1.393" ry="1.393" transform="translate(31.728 1.282)" fill="#3f3d56"/>
      <path id="Tracé_1041" data-name="Tracé 1041" d="M412.445,300.914a25.484,25.484,0,0,1-5.43-15.347,1.244,1.244,0,0,1,.757-1.586l11.59-4.1a1.244,1.244,0,0,1,1.586.757l5.43,15.347a1.244,1.244,0,0,1-.757,1.586l-11.59,4.1A1.244,1.244,0,0,1,412.445,300.914Z" transform="translate(-406.448 -250.386)" fill="#98984b"/>
      <path id="Tracé_1042" data-name="Tracé 1042" d="M415.062,311.23a1.244,1.244,0,0,1-1.586-.757,25.485,25.485,0,0,1-5.43-15.347,1.228,1.228,0,0,1-.045-.636l-.228.081a1.244,1.244,0,0,0-.757,1.586,25.483,25.483,0,0,0,5.43,15.347,1.244,1.244,0,0,0,1.586.757l11.59-4.1a1.239,1.239,0,0,0,.8-.95Z" transform="translate(-406.448 -260.976)" opacity="0.2" style="isolation: isolate"/>
      <path id="Tracé_1043" data-name="Tracé 1043" d="M433.764,310.855,426,313.624a.494.494,0,0,1-.332-.931l7.759-2.77a.494.494,0,1,1,.332.931Z" transform="translate(-419.72 -272.087)" fill="#fff"/>
      <path id="Tracé_1044" data-name="Tracé 1044" d="M424.442,309.445l-1.707.609a.494.494,0,1,1-.332-.931h0l1.707-.609a.494.494,0,1,1,.332.931Z" transform="translate(-417.362 -271.071)" fill="#fff"/>
      <path id="Tracé_1045" data-name="Tracé 1045" d="M439.007,325.542l-7.759,2.77a.494.494,0,0,1-.332-.931h0l7.759-2.77a.494.494,0,0,1,.332.931Z" transform="translate(-423.502 -282.682)" fill="#fff"/>
      <path id="Tracé_1046" data-name="Tracé 1046" d="M436.385,318.2l-7.759,2.77a.494.494,0,1,1-.332-.931h0l7.759-2.77a.494.494,0,0,1,.332.931Z" transform="translate(-421.611 -277.385)" fill="#fff"/>
      <ellipse id="Ellipse_194" data-name="Ellipse 194" cx="2.061" cy="2.061" rx="2.061" ry="2.061" transform="translate(4.749 29.631)" fill="#3f3d56"/>
      <path id="Tracé_1047" data-name="Tracé 1047" d="M672.481,589.607A17.229,17.229,0,0,1,662,586.253a.841.841,0,0,1-.544-1.056l2.533-7.917a.841.841,0,0,1,1.056-.544l10.482,3.354a.841.841,0,0,1,.544,1.056l-2.533,7.917a.841.841,0,0,1-1.056.544Z" transform="translate(-589.999 -464.533)" fill="#f2f2f2"/>
      <path id="Tracé_1048" data-name="Tracé 1048" d="M673.4,597.481a.841.841,0,0,1-1.056.544,17.228,17.228,0,0,1-10.482-3.354.831.831,0,0,1-.361-.236l-.05.156a.841.841,0,0,0,.544,1.056A17.229,17.229,0,0,0,672.481,599a.841.841,0,0,0,1.056-.544l2.533-7.917a.837.837,0,0,0-.183-.82Z" transform="translate(-589.999 -473.927)" opacity="0.2" style="isolation: isolate"/>
      <path id="Tracé_1049" data-name="Tracé 1049" d="M684.17,589.094l-1.683,5.31a.334.334,0,0,1-.638-.2v0l1.683-5.31a.334.334,0,0,1,.637.2Z" transform="translate(-604.728 -473.161)" fill="#fff"/>
      <path id="Tracé_1050" data-name="Tracé 1050" d="M676.589,601.965l-.37,1.168a.334.334,0,1,1-.638-.2v0l.37-1.168a.334.334,0,0,1,.638.2Z" transform="translate(-600.206 -482.444)" fill="#fff"/>
      <path id="Tracé_1051" data-name="Tracé 1051" d="M694.221,592.276l-1.683,5.31a.334.334,0,0,1-.638-.2v0l1.683-5.31a.334.334,0,1,1,.638.2Z" transform="translate(-611.978 -475.455)" fill="#fff"/>
      <path id="Tracé_1052" data-name="Tracé 1052" d="M689.2,590.683l-1.683,5.31a.334.334,0,1,1-.638-.2v0l1.683-5.31a.334.334,0,0,1,.638.2Z" transform="translate(-608.353 -474.307)" fill="#fff"/>
      <ellipse id="Ellipse_195" data-name="Ellipse 195" cx="1.393" cy="1.393" rx="1.393" ry="1.393" transform="translate(71.282 115.539)" fill="#ccc"/>
      <ellipse id="Ellipse_196" data-name="Ellipse 196" cx="1.004" cy="1.443" rx="1.004" ry="1.443" transform="translate(100.308 62.788) rotate(-75.779)" fill="#fff"/>
      <ellipse id="Ellipse_197" data-name="Ellipse 197" cx="1.004" cy="1.443" rx="1.004" ry="1.443" transform="translate(90.876 62.727) rotate(-75.779)" fill="#3f3d56"/>
      <ellipse id="Ellipse_198" data-name="Ellipse 198" cx="1.004" cy="1.443" rx="1.004" ry="1.443" transform="translate(102.078 70.613) rotate(-75.779)" fill="#ff6584"/>
      <ellipse id="Ellipse_199" data-name="Ellipse 199" cx="0.912" cy="0.634" rx="0.912" ry="0.634" transform="translate(105.959 74.065) rotate(-83.624)" fill="#e6e6e6"/>
      <ellipse id="Ellipse_200" data-name="Ellipse 200" cx="0.912" cy="0.634" rx="0.912" ry="0.634" transform="translate(106.735 79.975) rotate(-83.624)" fill="#3f3d56"/>
      <ellipse id="Ellipse_201" data-name="Ellipse 201" cx="0.912" cy="0.634" rx="0.912" ry="0.634" transform="translate(97.092 68.712) rotate(-83.624)" fill="#e6e6e6"/>
      <ellipse id="Ellipse_202" data-name="Ellipse 202" cx="0.912" cy="0.634" rx="0.912" ry="0.634" transform="translate(101.838 66.928) rotate(-83.624)" fill="#ff6584"/>
      <ellipse id="Ellipse_203" data-name="Ellipse 203" cx="0.912" cy="0.634" rx="0.912" ry="0.634" transform="translate(95.991 62.111) rotate(-83.624)" fill="#3f3d56"/>
      <ellipse id="Ellipse_204" data-name="Ellipse 204" cx="1.004" cy="1.443" rx="1.004" ry="1.443" transform="translate(12.241 59.444) rotate(-75.779)" fill="#fff"/>
      <ellipse id="Ellipse_205" data-name="Ellipse 205" cx="1.004" cy="1.443" rx="1.004" ry="1.443" transform="translate(2.808 59.383) rotate(-75.779)" fill="#3f3d56"/>
      <ellipse id="Ellipse_206" data-name="Ellipse 206" cx="1.004" cy="1.443" rx="1.004" ry="1.443" transform="translate(14.011 67.269) rotate(-75.779)" fill="#ff6584"/>
      <ellipse id="Ellipse_207" data-name="Ellipse 207" cx="0.912" cy="0.634" rx="0.912" ry="0.634" transform="translate(17.891 70.721) rotate(-83.624)" fill="#e6e6e6"/>
      <ellipse id="Ellipse_208" data-name="Ellipse 208" cx="0.912" cy="0.634" rx="0.912" ry="0.634" transform="translate(18.667 76.631) rotate(-83.624)" fill="#3f3d56"/>
      <ellipse id="Ellipse_209" data-name="Ellipse 209" cx="0.912" cy="0.634" rx="0.912" ry="0.634" transform="translate(9.024 65.368) rotate(-83.624)" fill="#e6e6e6"/>
      <ellipse id="Ellipse_210" data-name="Ellipse 210" cx="0.912" cy="0.634" rx="0.912" ry="0.634" transform="translate(13.77 63.585) rotate(-83.624)" fill="#ff6584"/>
      <ellipse id="Ellipse_211" data-name="Ellipse 211" cx="0.912" cy="0.634" rx="0.912" ry="0.634" transform="translate(7.923 58.767) rotate(-83.624)" fill="#3f3d56"/>
      <path id="Tracé_1053" data-name="Tracé 1053" d="M666.335,445.571a17.229,17.229,0,0,1-3.671-10.376.841.841,0,0,1,.512-1.072l7.836-2.773a.841.841,0,0,1,1.072.512l3.671,10.376a.841.841,0,0,1-.512,1.072l-7.836,2.773A.841.841,0,0,1,666.335,445.571Z" transform="translate(-590.866 -359.659)" fill="#f2f2f2"/>
      <path id="Tracé_1054" data-name="Tracé 1054" d="M668.1,452.545a.841.841,0,0,1-1.072-.512,17.229,17.229,0,0,1-3.671-10.376.831.831,0,0,1-.031-.43l-.154.055a.841.841,0,0,0-.512,1.072,17.229,17.229,0,0,0,3.671,10.376.841.841,0,0,0,1.072.512l7.836-2.773a.838.838,0,0,0,.542-.642Z" transform="translate(-590.866 -366.818)" opacity="0.2" style="isolation: isolate"/>
      <path id="Tracé_1055" data-name="Tracé 1055" d="M680.748,452.292l-5.246,1.872a.334.334,0,1,1-.225-.629l5.246-1.872a.334.334,0,0,1,.225.63Z" transform="translate(-599.839 -374.331)" fill="#fff"/>
      <path id="Tracé_1056" data-name="Tracé 1056" d="M674.445,451.339l-1.154.412a.334.334,0,0,1-.226-.629h0l1.154-.412a.334.334,0,1,1,.225.629Z" transform="translate(-598.243 -373.644)" fill="#fff"/>
      <path id="Tracé_1057" data-name="Tracé 1057" d="M684.292,462.222l-5.246,1.872a.334.334,0,0,1-.226-.629h0l5.246-1.872a.334.334,0,0,1,.225.629Z" transform="translate(-602.394 -381.493)" fill="#fff"/>
      <path id="Tracé_1058" data-name="Tracé 1058" d="M682.52,457.256l-5.246,1.873a.334.334,0,0,1-.226-.629h0l5.246-1.872a.334.334,0,1,1,.226.629Z" transform="translate(-601.116 -377.912)" fill="#fff"/>
      <ellipse id="Ellipse_212" data-name="Ellipse 212" cx="1.393" cy="1.393" rx="1.393" ry="1.393" transform="translate(74.626 71.784)" fill="#ccc"/>
    </g>
  </g>
</svg>
