<svg xmlns="http://www.w3.org/2000/svg" width="898" height="817.859" viewBox="0 0 898 817.859">
  <g id="Groupe_2266" data-name="Groupe 2266" transform="translate(11880 7923.43)">
    <path id="Tracé_430" data-name="Tracé 430" d="M92.8,0A245.192,245.192,0,0,0,0,90.052l12.9-5.409,1.18,13.722a211.185,211.185,0,0,1,86.578-84.031l5.97-12.5Z" transform="translate(-11430.78 -7923.43) rotate(43)" fill="#98984c"/>
    <path id="Tracé_432" data-name="Tracé 432" d="M92.8,0A245.192,245.192,0,0,0,0,90.052l12.9-5.409,1.18,13.722a211.185,211.185,0,0,1,86.578-84.031l5.97-12.5Z" transform="matrix(-0.914, 0.407, -0.407, -0.914, -11039.581, -7317.14)" fill="#98984c"/>
    <path id="Tracé_434" data-name="Tracé 434" d="M92.8,0A245.192,245.192,0,0,0,0,90.052l12.9-5.409,1.18,13.722a211.185,211.185,0,0,1,86.578-84.031l5.97-12.5Z" transform="translate(-11795.303 -7295.308) rotate(-74)" fill="#98984c"/>
    <path id="Tracé_435" data-name="Tracé 435" d="M92.8,0A245.192,245.192,0,0,0,0,90.052l12.9-5.409,1.18,13.722a211.185,211.185,0,0,1,86.578-84.031l5.97-12.5Z" transform="matrix(0.961, -0.276, 0.276, 0.961, -11795.611, -7712.554)" fill="#98984c"/>
    <circle id="Ellipse_51" data-name="Ellipse 51" cx="107" cy="107" r="107" transform="translate(-11702 -7910)" fill="#98984c"/>
    <text id="Augmentation_de_durée_de_vie_des_produits_" data-name="Augmentation de durée de vie des produits " transform="translate(-11690 -7856)" fill="#fff" font-size="25" font-family="HelveticaNeue-Bold, Helvetica Neue" font-weight="700"><tspan x="11" y="24">Augmentation </tspan><tspan x="4" y="60">de durée de vie </tspan><tspan x="21" y="96">des produits </tspan></text>
    <circle id="Ellipse_52" data-name="Ellipse 52" cx="107" cy="107" r="107" transform="translate(-11353 -7910)" fill="#98984c"/>
    <text id="Baisse_des_flux_de_matières" data-name="Baisse des flux de matières" transform="translate(-11334 -7851)" fill="#fff" font-size="25" font-family="HelveticaNeue-Bold, Helvetica Neue" font-weight="700"><tspan x="23" y="24">Baisse des </tspan><tspan x="47" y="60">flux de </tspan><tspan x="36" y="96">matières</tspan></text>
    <circle id="Ellipse_53" data-name="Ellipse 53" cx="107" cy="107" r="107" transform="translate(-11196 -7618)" fill="#98984c"/>
    <text id="Baisse_des_flux_d_énergie" data-name="Baisse des flux d’énergie" transform="translate(-11177 -7551)" fill="#fff" font-size="25" font-family="HelveticaNeue-Bold, Helvetica Neue" font-weight="700"><tspan x="23" y="24">Baisse des </tspan><tspan x="7" y="60">flux d’énergie</tspan></text>
    <circle id="Ellipse_54" data-name="Ellipse 54" cx="107" cy="107" r="107" transform="translate(-11880 -7618)" fill="#98984c"/>
    <text id="Approche_cycle_de_vie" data-name="Approche cycle de vie" transform="translate(-11861 -7551)" fill="#fff" font-size="25" font-family="HelveticaNeue-Bold, Helvetica Neue" font-weight="700"><tspan x="30" y="24">Approche </tspan><tspan x="18" y="60">cycle de vie</tspan></text>
    <circle id="Ellipse_55" data-name="Ellipse 55" cx="107" cy="107" r="107" transform="translate(-11702 -7333)" fill="#98984c"/>
    <text id="Création_de_valeur" data-name="Création de valeur" transform="translate(-11690 -7257)" fill="#fff" font-size="25" font-family="HelveticaNeue-Bold, Helvetica Neue" font-weight="700"><tspan x="26" y="24">Création de </tspan><tspan x="59" y="60">valeur</tspan></text>
    <circle id="Ellipse_56" data-name="Ellipse 56" cx="107" cy="107" r="107" transform="translate(-11353 -7333)" fill="#98984c"/>
    <text id="Diminution_du_volume_de_production" data-name="Diminution du volume de production" transform="translate(-11341 -7268)" fill="#fff" font-size="25" font-family="HelveticaNeue-Bold, Helvetica Neue" font-weight="700"><tspan x="12" y="24">Diminution du </tspan><tspan x="33" y="60">volume de </tspan><tspan x="30" y="96">production</tspan></text>
    <path id="Tracé_437" data-name="Tracé 437" d="M92.8,0A245.192,245.192,0,0,0,0,90.052l12.9-5.409,1.18,13.722a211.186,211.186,0,0,1,86.578-84.031l5.97-12.5Z" transform="translate(-11410.219 -7105.57) rotate(-137)" fill="#98984c"/>
    <path id="Tracé_438" data-name="Tracé 438" d="M92.8,0A245.192,245.192,0,0,0,0,90.052l12.9-5.409,1.18,13.722a211.185,211.185,0,0,1,86.578-84.031l5.97-12.5Z" transform="translate(-11046.317 -7720.498) rotate(106)" fill="#98984c"/>
  </g>
</svg>
