<svg xmlns="http://www.w3.org/2000/svg" width="1489" height="1075" viewBox="0 0 1489 1075">
  <g id="Groupe_2265" data-name="Groupe 2265" transform="translate(-289 -2339)">
    <text id="PROJET" transform="translate(289 2373)" fill="#007263" font-size="35" font-family="HelveticaNeue-Bold, Helvetica Neue" font-weight="700"><tspan x="0" y="0">PROJET</tspan></text>
    <path id="Tracé_2095" data-name="Tracé 2095" d="M18101.771,1635.824l-55.33-107.637H16727.795V1744.7h1318.646Z" transform="translate(-16397 851.973)" fill="#007263"/>
    <rect id="Rectangle_3858" data-name="Rectangle 3858" width="251" height="119" rx="20" transform="translate(353 2428.691)" fill="#fff"/>
    <text id="Etude_d_opportunité" data-name="Etude 
d’opportunité" transform="translate(474 2482.691)" fill="#007263" font-size="32" font-family="HelveticaNeue-Bold, Helvetica Neue" font-weight="700"><tspan x="-48" y="0">Etude </tspan><tspan x="-103" y="36">d’opportunité</tspan></text>
    <rect id="Rectangle_3859" data-name="Rectangle 3859" width="251" height="119" rx="20" transform="translate(606 2428.691)" fill="#fff"/>
    <text id="Spécifications" transform="translate(732 2496.691)" fill="#007263" font-size="32" font-family="HelveticaNeue-Bold, Helvetica Neue" font-weight="700"><tspan x="-108" y="0">Spécifications</tspan></text>
    <rect id="Rectangle_3860" data-name="Rectangle 3860" width="251" height="119" rx="20" transform="translate(859 2428.691)" fill="#fff"/>
    <text id="Réalisation" transform="translate(985 2496.691)" fill="#007263" font-size="32" font-family="HelveticaNeue-Bold, Helvetica Neue" font-weight="700"><tspan x="-84" y="0">Réalisation</tspan></text>
    <rect id="Rectangle_3861" data-name="Rectangle 3861" width="251" height="119" rx="20" transform="translate(1112 2428.691)" fill="#fff"/>
    <text id="Tests" transform="translate(1238 2496.691)" fill="#007263" font-size="32" font-family="HelveticaNeue-Bold, Helvetica Neue" font-weight="700"><tspan x="-40" y="0">Tests</tspan></text>
    <rect id="Rectangle_3862" data-name="Rectangle 3862" width="251" height="119" rx="20" transform="translate(1365 2428.691)" fill="#fff"/>
    <text id="Déploiement" transform="translate(1491 2496.691)" fill="#007263" font-size="32" font-family="HelveticaNeue-Bold, Helvetica Neue" font-weight="700"><tspan x="-96" y="0">Déploiement</tspan></text>
    <line id="Ligne_266" data-name="Ligne 266" y2="933" transform="translate(605 2391)" fill="none" stroke="#000" stroke-width="2"/>
    <circle id="Ellipse_469" data-name="Ellipse 469" cx="13.5" cy="13.5" r="13.5" transform="translate(591 2392)"/>
    <line id="Ligne_267" data-name="Ligne 267" y2="911" transform="translate(858 2413.5)" fill="none" stroke="#000" stroke-width="2"/>
    <circle id="Ellipse_470" data-name="Ellipse 470" cx="13.5" cy="13.5" r="13.5" transform="translate(844 2392)"/>
    <line id="Ligne_268" data-name="Ligne 268" y2="911" transform="translate(1111 2413.5)" fill="none" stroke="#000" stroke-width="2"/>
    <circle id="Ellipse_471" data-name="Ellipse 471" cx="13.5" cy="13.5" r="13.5" transform="translate(1097 2392)"/>
    <line id="Ligne_269" data-name="Ligne 269" y2="911" transform="translate(1364 2413.5)" fill="none" stroke="#000" stroke-width="2"/>
    <circle id="Ellipse_472" data-name="Ellipse 472" cx="13.5" cy="13.5" r="13.5" transform="translate(1350 2392)"/>
    <line id="Ligne_270" data-name="Ligne 270" y2="911" transform="translate(1617 2413.5)" fill="none" stroke="#000" stroke-width="2"/>
    <circle id="Ellipse_473" data-name="Ellipse 473" cx="13.5" cy="13.5" r="13.5" transform="translate(1603 2392)"/>
    <path id="Tracé_2096" data-name="Tracé 2096" d="M18101.771,1635.824l-55.33-107.637H16727.795V1744.7h1318.646Z" transform="translate(-16397 1158.98)" fill="#4c9c91"/>
    <rect id="Rectangle_3863" data-name="Rectangle 3863" width="251" height="119" rx="20" transform="translate(478.5 2735.698)" fill="#fff"/>
    <text id="Lancement" transform="translate(599.5 2807.198)" fill="#007263" font-size="32" font-family="HelveticaNeue-Bold, Helvetica Neue" font-weight="700"><tspan x="-85" y="0">Lancement</tspan></text>
    <rect id="Rectangle_3864" data-name="Rectangle 3864" width="251" height="119" rx="20" transform="translate(1237.5 2735.698)" fill="#fff"/>
    <text id="Clôture" transform="translate(1365 2807.198)" fill="#007263" font-size="32" font-family="HelveticaNeue-Bold, Helvetica Neue" font-weight="700"><tspan x="-56" y="0">Clôture</tspan></text>
    <path id="Tracé_2097" data-name="Tracé 2097" d="M188.343,0A379.452,379.452,0,0,0,71.867,80.9,383.955,383.955,0,0,0,0,184.579l28.7-8.5L36.358,209.6a332.743,332.743,0,0,1,65.308-97.716A328.23,328.23,0,0,1,212.076,37.36l9.742-28.068Z" transform="translate(966.004 2589.881) rotate(43)" fill="#fff"/>
    <text id="CONTRÔLE" transform="translate(984.5 2807.198)" fill="#fff" font-size="32" font-family="HelveticaNeue-Bold, Helvetica Neue" font-weight="700"><tspan x="-89" y="0">CONTRÔLE</tspan></text>
    <path id="Tracé_2098" data-name="Tracé 2098" d="M18101.771,1635.824l-55.33-107.637H16727.795V1744.7h1318.646Z" transform="translate(-16397 1466.073)" fill="#93c3bd"/>
    <rect id="Rectangle_3865" data-name="Rectangle 3865" width="757" height="119" rx="20" transform="translate(606 3042.791)" fill="#fff"/>
    <text id="Business_case" data-name="Business
case" transform="translate(606 3363)" font-size="32" font-family="HelveticaNeue-Medium, Helvetica Neue" font-weight="500"><tspan x="-67" y="0">Business</tspan><tspan x="-34" y="36">case</tspan></text>
    <text id="GESTION_DE_PROJET" data-name="GESTION
DE PROJET" transform="translate(289 2951.26)" fill="#93c3bd" font-size="35" font-family="HelveticaNeue-Bold, Helvetica Neue" font-weight="700"><tspan x="0" y="0">GESTION</tspan><tspan x="0" y="36">DE PROJET</tspan></text>
    <text id="CONDUITE_DU_CHANGEMENT" data-name="CONDUITE DU
CHANGEMENT" transform="translate(289 2644)" fill="#4c9c91" font-size="35" font-family="HelveticaNeue-Bold, Helvetica Neue" font-weight="700"><tspan x="0" y="0">CONDUITE DU</tspan><tspan x="0" y="36">CHANGEMENT</tspan></text>
    <text id="Planification" transform="translate(985.894 2731.168)" fill="#4c9c91" font-size="28" font-family="HelveticaNeue-Bold, Helvetica Neue" font-weight="700"><tspan x="-82" y="0">Planification</tspan></text>
    <path id="Tracé_2099" data-name="Tracé 2099" d="M188.343,0A379.453,379.453,0,0,0,71.867,80.9,383.956,383.956,0,0,0,0,184.58l28.7-8.5L36.358,209.6a332.744,332.744,0,0,1,65.308-97.716A328.232,328.232,0,0,1,212.076,37.36l9.742-28.068Z" transform="translate(995.532 3001.272) rotate(-137)" fill="#fff"/>
    <text id="Exécution" transform="translate(985.894 2877.229)" fill="#4c9c91" font-size="28" font-family="HelveticaNeue-Bold, Helvetica Neue" font-weight="700"><tspan x="-66" y="0">Exécution</tspan></text>
    <line id="Ligne_271" data-name="Ligne 271" y1="216" transform="translate(294.5 2380.5)" fill="none" stroke="#007263" stroke-width="3"/>
    <line id="Ligne_272" data-name="Ligne 272" y1="216" transform="translate(294.5 2687)" fill="none" stroke="#4c9c91" stroke-width="3"/>
    <line id="Ligne_273" data-name="Ligne 273" y1="216" transform="translate(294.5 2994.77)" fill="none" stroke="#93c3bd" stroke-width="3"/>
    <line id="Ligne_274" data-name="Ligne 274" x2="1447" transform="translate(294.5 3295.5)" fill="none" stroke="#000" stroke-width="2"/>
    <text id="TEMPS" transform="translate(289 3287)" font-size="35" font-family="HelveticaNeue-Bold, Helvetica Neue" font-weight="700"><tspan x="0" y="0">TEMPS</tspan></text>
    <text id="Mobilisation_formation_organisation_" data-name="Mobilisation, formation, organisation,…" transform="translate(985 3110.791)" fill="#007263" font-size="32" font-family="HelveticaNeue-Bold, Helvetica Neue" font-weight="700"><tspan x="-300" y="0">Mobilisation, formation, organisation,…</tspan></text>
    <text id="Cahier_des_charges" data-name="Cahier des
charges" transform="translate(858 3363)" font-size="32" font-family="HelveticaNeue-Medium, Helvetica Neue" font-weight="500"><tspan x="-79" y="0">Cahier des</tspan><tspan x="-59" y="36">charges</tspan></text>
    <text id="Projet_réalisé" data-name="Projet
réalisé" transform="translate(1111 3363)" font-size="32" font-family="HelveticaNeue-Medium, Helvetica Neue" font-weight="500"><tspan x="-43" y="0">Projet</tspan><tspan x="-48" y="36">réalisé</tspan></text>
    <text id="Projet_testé_et_validé" data-name="Projet testé
et validé" transform="translate(1363 3363)" font-size="32" font-family="HelveticaNeue-Medium, Helvetica Neue" font-weight="500"><tspan x="-84" y="0">Projet testé</tspan><tspan x="-62" y="36">et validé</tspan></text>
    <text id="Projet_déployé" data-name="Projet déployé" transform="translate(1527 3332)" font-size="32" font-family="HelveticaNeue-Medium, Helvetica Neue" font-weight="500"><tspan x="46" y="31">Projet </tspan><tspan x="31" y="67">déployé</tspan></text>
    <g id="Rectangle_3866" data-name="Rectangle 3866" transform="translate(506 3324)" fill="none" stroke="#000" stroke-width="2">
      <rect width="196" height="90" rx="20" stroke="none"/>
      <rect x="1" y="1" width="194" height="88" rx="19" fill="none"/>
    </g>
    <g id="Rectangle_3867" data-name="Rectangle 3867" transform="translate(760 3324)" fill="none" stroke="#000" stroke-width="2">
      <rect width="196" height="90" rx="20" stroke="none"/>
      <rect x="1" y="1" width="194" height="88" rx="19" fill="none"/>
    </g>
    <g id="Rectangle_3868" data-name="Rectangle 3868" transform="translate(1013 3324)" fill="none" stroke="#000" stroke-width="2">
      <rect width="196" height="90" rx="20" stroke="none"/>
      <rect x="1" y="1" width="194" height="88" rx="19" fill="none"/>
    </g>
    <g id="Rectangle_3869" data-name="Rectangle 3869" transform="translate(1266 3324)" fill="none" stroke="#000" stroke-width="2">
      <rect width="196" height="90" rx="20" stroke="none"/>
      <rect x="1" y="1" width="194" height="88" rx="19" fill="none"/>
    </g>
    <g id="Rectangle_3870" data-name="Rectangle 3870" transform="translate(1519 3324)" fill="none" stroke="#000" stroke-width="2">
      <rect width="196" height="90" rx="20" stroke="none"/>
      <rect x="1" y="1" width="194" height="88" rx="19" fill="none"/>
    </g>
    <path id="Polygone_26" data-name="Polygone 26" d="M16,0,32,37H0Z" transform="translate(1778 3280) rotate(90)"/>
  </g>
</svg>
