<svg xmlns="http://www.w3.org/2000/svg" width="250" height="260" viewBox="0 0 250 260">
  <g id="Groupe_1353" data-name="Groupe 1353" transform="translate(-416 -1213)">
    <g id="Rectangle_3282" data-name="Rectangle 3282" transform="translate(416 1242)" fill="#fff" stroke="#989751" stroke-linecap="round" stroke-linejoin="round" stroke-width="3">
      <rect width="250" height="231" stroke="none"/>
      <rect x="1.5" y="1.5" width="247" height="228" fill="none"/>
    </g>
    <path id="Tracé_1671" data-name="Tracé 1671" d="M2939-1450.967H3186.81" transform="translate(-2523 2746.279)" fill="none" stroke="#989751" stroke-width="3"/>
    <g id="Rectangle_3283" data-name="Rectangle 3283" transform="translate(440 1213)" fill="#fff" stroke="#989751" stroke-linecap="round" stroke-linejoin="round" stroke-width="3">
      <rect width="35" height="62" stroke="none"/>
      <rect x="1.5" y="1.5" width="32" height="59" fill="none"/>
    </g>
    <g id="Rectangle_3284" data-name="Rectangle 3284" transform="translate(607 1213)" fill="#fff" stroke="#989751" stroke-linecap="round" stroke-linejoin="round" stroke-width="3">
      <rect width="35" height="62" stroke="none"/>
      <rect x="1.5" y="1.5" width="32" height="59" fill="none"/>
    </g>
    <g id="Rectangle_3285" data-name="Rectangle 3285" transform="translate(440 1311)" fill="#fff" stroke="#989751" stroke-linecap="round" stroke-linejoin="round" stroke-width="3">
      <rect width="23" height="23" stroke="none"/>
      <rect x="1.5" y="1.5" width="20" height="20" fill="none"/>
    </g>
    <g id="Rectangle_3286" data-name="Rectangle 3286" transform="translate(468 1311)" fill="#fff" stroke="#989751" stroke-linecap="round" stroke-linejoin="round" stroke-width="3">
      <rect width="24" height="23" stroke="none"/>
      <rect x="1.5" y="1.5" width="21" height="20" fill="none"/>
    </g>
    <g id="Rectangle_3287" data-name="Rectangle 3287" transform="translate(497 1311)" fill="#fff" stroke="#989751" stroke-linecap="round" stroke-linejoin="round" stroke-width="3">
      <rect width="24" height="23" stroke="none"/>
      <rect x="1.5" y="1.5" width="21" height="20" fill="none"/>
    </g>
    <g id="Rectangle_3288" data-name="Rectangle 3288" transform="translate(527 1311)" fill="#fff" stroke="#989751" stroke-linecap="round" stroke-linejoin="round" stroke-width="3">
      <rect width="23" height="23" stroke="none"/>
      <rect x="1.5" y="1.5" width="20" height="20" fill="none"/>
    </g>
    <g id="Rectangle_3289" data-name="Rectangle 3289" transform="translate(557 1311)" fill="#fff" stroke="#989751" stroke-linecap="round" stroke-linejoin="round" stroke-width="3">
      <rect width="23" height="23" stroke="none"/>
      <rect x="1.5" y="1.5" width="20" height="20" fill="none"/>
    </g>
    <g id="Rectangle_3290" data-name="Rectangle 3290" transform="translate(585 1311)" fill="#fff" stroke="#989751" stroke-linecap="round" stroke-linejoin="round" stroke-width="3">
      <rect width="24" height="23" stroke="none"/>
      <rect x="1.5" y="1.5" width="21" height="20" fill="none"/>
    </g>
    <g id="Rectangle_3291" data-name="Rectangle 3291" transform="translate(614 1311)" fill="#fff" stroke="#989751" stroke-linecap="round" stroke-linejoin="round" stroke-width="3">
      <rect width="24" height="23" stroke="none"/>
      <rect x="1.5" y="1.5" width="21" height="20" fill="none"/>
    </g>
    <g id="Rectangle_3292" data-name="Rectangle 3292" transform="translate(440 1350)" fill="#fff" stroke="#989751" stroke-linecap="round" stroke-linejoin="round" stroke-width="3">
      <rect width="23" height="24" stroke="none"/>
      <rect x="1.5" y="1.5" width="20" height="21" fill="none"/>
    </g>
    <g id="Rectangle_3293" data-name="Rectangle 3293" transform="translate(468 1350)" fill="#fff" stroke="#989751" stroke-linecap="round" stroke-linejoin="round" stroke-width="3">
      <rect width="24" height="24" stroke="none"/>
      <rect x="1.5" y="1.5" width="21" height="21" fill="none"/>
    </g>
    <g id="Rectangle_3294" data-name="Rectangle 3294" transform="translate(497 1350)" fill="#fff" stroke="#989751" stroke-linecap="round" stroke-linejoin="round" stroke-width="3">
      <rect width="24" height="24" stroke="none"/>
      <rect x="1.5" y="1.5" width="21" height="21" fill="none"/>
    </g>
    <g id="Rectangle_3295" data-name="Rectangle 3295" transform="translate(527 1350)" fill="#fff" stroke="#989751" stroke-linecap="round" stroke-linejoin="round" stroke-width="3">
      <rect width="23" height="24" stroke="none"/>
      <rect x="1.5" y="1.5" width="20" height="21" fill="none"/>
    </g>
    <g id="Rectangle_3297" data-name="Rectangle 3297" transform="translate(585 1350)" fill="#fff" stroke="#989751" stroke-linecap="round" stroke-linejoin="round" stroke-width="3">
      <rect width="24" height="24" stroke="none"/>
      <rect x="1.5" y="1.5" width="21" height="21" fill="none"/>
    </g>
    <g id="Rectangle_3298" data-name="Rectangle 3298" transform="translate(614 1350)" fill="#fff" stroke="#989751" stroke-linecap="round" stroke-linejoin="round" stroke-width="3">
      <rect width="24" height="24" stroke="none"/>
      <rect x="1.5" y="1.5" width="21" height="21" fill="none"/>
    </g>
    <g id="Rectangle_3299" data-name="Rectangle 3299" transform="translate(440 1391)" fill="#fff" stroke="#989751" stroke-linecap="round" stroke-linejoin="round" stroke-width="3">
      <rect width="23" height="23" stroke="none"/>
      <rect x="1.5" y="1.5" width="20" height="20" fill="none"/>
    </g>
    <g id="Rectangle_3300" data-name="Rectangle 3300" transform="translate(468 1391)" fill="#fff" stroke="#989751" stroke-linecap="round" stroke-linejoin="round" stroke-width="3">
      <rect width="24" height="23" stroke="none"/>
      <rect x="1.5" y="1.5" width="21" height="20" fill="none"/>
    </g>
    <g id="Rectangle_3301" data-name="Rectangle 3301" transform="translate(497 1391)" fill="#fff" stroke="#989751" stroke-linecap="round" stroke-linejoin="round" stroke-width="3">
      <rect width="24" height="23" stroke="none"/>
      <rect x="1.5" y="1.5" width="21" height="20" fill="none"/>
    </g>
    <g id="Rectangle_3302" data-name="Rectangle 3302" transform="translate(527 1391)" fill="#fff" stroke="#989751" stroke-linecap="round" stroke-linejoin="round" stroke-width="3">
      <rect width="23" height="23" stroke="none"/>
      <rect x="1.5" y="1.5" width="20" height="20" fill="none"/>
    </g>
    <g id="Rectangle_3303" data-name="Rectangle 3303" transform="translate(557 1391)" fill="#fff" stroke="#989751" stroke-linecap="round" stroke-linejoin="round" stroke-width="3">
      <rect width="23" height="23" stroke="none"/>
      <rect x="1.5" y="1.5" width="20" height="20" fill="none"/>
    </g>
    <g id="Rectangle_3304" data-name="Rectangle 3304" transform="translate(585 1391)" fill="#fff" stroke="#989751" stroke-linecap="round" stroke-linejoin="round" stroke-width="3">
      <rect width="24" height="23" stroke="none"/>
      <rect x="1.5" y="1.5" width="21" height="20" fill="none"/>
    </g>
    <g id="Rectangle_3305" data-name="Rectangle 3305" transform="translate(614 1391)" fill="#fff" stroke="#989751" stroke-linecap="round" stroke-linejoin="round" stroke-width="3">
      <rect width="24" height="23" stroke="none"/>
      <rect x="1.5" y="1.5" width="21" height="20" fill="none"/>
    </g>
    <g id="Rectangle_3306" data-name="Rectangle 3306" transform="translate(440 1431)" fill="#fff" stroke="#989751" stroke-linecap="round" stroke-linejoin="round" stroke-width="3">
      <rect width="23" height="24" stroke="none"/>
      <rect x="1.5" y="1.5" width="20" height="21" fill="none"/>
    </g>
    <g id="Rectangle_3307" data-name="Rectangle 3307" transform="translate(468 1431)" fill="#fff" stroke="#989751" stroke-linecap="round" stroke-linejoin="round" stroke-width="3">
      <rect width="24" height="24" stroke="none"/>
      <rect x="1.5" y="1.5" width="21" height="21" fill="none"/>
    </g>
    <g id="Rectangle_3308" data-name="Rectangle 3308" transform="translate(497 1431)" fill="#fff" stroke="#989751" stroke-linecap="round" stroke-linejoin="round" stroke-width="3">
      <rect width="24" height="24" stroke="none"/>
      <rect x="1.5" y="1.5" width="21" height="21" fill="none"/>
    </g>
    <g id="Rectangle_3309" data-name="Rectangle 3309" transform="translate(527 1431)" fill="#fff" stroke="#989751" stroke-linecap="round" stroke-linejoin="round" stroke-width="3">
      <rect width="23" height="24" stroke="none"/>
      <rect x="1.5" y="1.5" width="20" height="21" fill="none"/>
    </g>
    <g id="Rectangle_3310" data-name="Rectangle 3310" transform="translate(557 1431)" fill="#fff" stroke="#989751" stroke-linecap="round" stroke-linejoin="round" stroke-width="3">
      <rect width="23" height="24" stroke="none"/>
      <rect x="1.5" y="1.5" width="20" height="21" fill="none"/>
    </g>
    <g id="Rectangle_3311" data-name="Rectangle 3311" transform="translate(585 1431)" fill="#fff" stroke="#989751" stroke-linecap="round" stroke-linejoin="round" stroke-width="3">
      <rect width="24" height="24" stroke="none"/>
      <rect x="1.5" y="1.5" width="21" height="21" fill="none"/>
    </g>
    <g id="Rectangle_3312" data-name="Rectangle 3312" transform="translate(614 1431)" fill="#fff" stroke="#989751" stroke-linecap="round" stroke-linejoin="round" stroke-width="3">
      <rect width="24" height="24" stroke="none"/>
      <rect x="1.5" y="1.5" width="21" height="21" fill="none"/>
    </g>
    <circle id="Ellipse_23" data-name="Ellipse 23" cx="16" cy="16" r="16" transform="translate(552 1346)" fill="#98984c"/>
    <path id="Tracé_1672" data-name="Tracé 1672" d="M3359.195-1341.827l6.721,10.657,8.707-18.4" transform="translate(-2799.301 2703.194)" fill="none" stroke="#000" stroke-linecap="round" stroke-linejoin="round" stroke-width="3"/>
  </g>
</svg>
