<svg xmlns="http://www.w3.org/2000/svg" width="62.693" height="62.692" viewBox="0 0 62.693 62.692">
  <g id="Groupe_1351" data-name="Groupe 1351" transform="translate(-418.78 -2062.498)">
    <path id="Tracé_1690" data-name="Tracé 1690" d="M215.936,29.846a29.346,29.346,0,1,1,29.346,29.346A29.346,29.346,0,0,1,215.936,29.846Z" transform="translate(204.844 2063.998)" fill="none" stroke="#969652" stroke-miterlimit="10" stroke-width="4"/>
    <path id="Tracé_1691" data-name="Tracé 1691" d="M225.759,33.988a23.665,23.665,0,1,1,23.666,23.666,23.666,23.666,0,0,1-23.666-23.666" transform="translate(200.702 2059.856)" fill="none" stroke="#000" stroke-width="2"/>
    <path id="Tracé_1692" data-name="Tracé 1692" d="M262.083,62.488l.7-3.332h4.095q-.067-.829-.067-1.741,0-.8.05-1.558h-4.774l.7-3.332h4.542a11.846,11.846,0,0,1,2.371-4.973,7.928,7.928,0,0,1,6.382-3.017,8.172,8.172,0,0,1,7.576,4.045,9.834,9.834,0,0,1,1.426,4.559h-4.294a7.36,7.36,0,0,0-1.077-2.653,4.011,4.011,0,0,0-3.464-1.591,4.151,4.151,0,0,0-3.7,2.255,7.467,7.467,0,0,0-.63,1.376h6.581l-.7,3.332H271.25q-.05.78-.05,1.642,0,.878.05,1.657h6.133l-.7,3.332H272a6.284,6.284,0,0,0,.63,1.177,4.278,4.278,0,0,0,3.63,2.038,3.872,3.872,0,0,0,3.431-1.757,8.232,8.232,0,0,0,1.094-2.835h4.244a11.808,11.808,0,0,1-2.851,6.5,7.592,7.592,0,0,1-5.869,2.5,8.228,8.228,0,0,1-6.962-3.382,11.9,11.9,0,0,1-1.956-4.243Z" transform="translate(175.194 2036.52)" fill="#98984c"/>
  </g>
</svg>
