<svg xmlns="http://www.w3.org/2000/svg" width="66.472" height="61.297" viewBox="0 0 66.472 61.297">
  <g id="Groupe_1350" data-name="Groupe 1350" transform="translate(-414.5 -1975.372)">
    <path id="Tracé_1693" data-name="Tracé 1693" d="M3675.088-497v18.348l12.005-3.066,26.861,12.777,24.605-11.633s-1.673-4.958-6.155-4.855-16.222,6.777-16.222,6.777,2.221-4.934-5.593-8.531S3689.974-497,3689.974-497Z" transform="translate(-3259.088 2504.11)" fill="none" stroke="#989751" stroke-linecap="round" stroke-linejoin="round" stroke-width="3"/>
    <path id="Tracé_1694" data-name="Tracé 1694" d="M3709.181-481.455l16.223,7.567" transform="translate(-3268.834 2498.951)" fill="none" stroke="#989751" stroke-linecap="round" stroke-width="3"/>
    <path id="Tracé_1695" data-name="Tracé 1695" d="M3738.218-505s12.489-.546,12.579-11.117-12.579-22.354-12.579-22.354" transform="translate(-3276.696 2515.967)" fill="none" stroke="#000" stroke-linejoin="round" stroke-width="3"/>
    <path id="Tracé_1696" data-name="Tracé 1696" d="M3750.8-538.476s-12.67,11.783-12.579,22.354S3750.8-505,3750.8-505V-527.87" transform="translate(-3289.276 2515.967)" fill="none" stroke="#000" stroke-linecap="round" stroke-linejoin="round" stroke-width="3"/>
    <path id="Tracé_1697" data-name="Tracé 1697" d="M3729.511-512.05l6.49,5.438" transform="translate(-3274.647 2508.412)" fill="none" stroke="#000" stroke-width="3"/>
  </g>
</svg>
