<svg xmlns="http://www.w3.org/2000/svg" width="61.093" height="47.253" viewBox="0 0 61.093 47.253">
  <g id="Groupe_1348" data-name="Groupe 1348" transform="translate(-416.622 -1823.879)">
    <path id="Tracé_1688" data-name="Tracé 1688" d="M48.969,13.215h0c.007-.168.013-.336.013-.506A12.906,12.906,0,0,0,36.155,0,13.2,13.2,0,0,0,24.493,7.581h0A13.2,13.2,0,0,0,12.827,0,12.906,12.906,0,0,0,0,12.709c0,.17.006.338.013.506h0S-.711,21.3,8.29,30.132a205.486,205.486,0,0,0,16.2,14.12,205.483,205.483,0,0,0,16.2-14.12c9-8.83,8.276-16.918,8.276-16.918" transform="translate(423.007 1825.38)" fill="none" stroke="#989751" stroke-linecap="round" stroke-linejoin="round" stroke-width="3"/>
    <path id="Tracé_1689" data-name="Tracé 1689" d="M3635-688.919h13.159l5.747-11.9,8.892,21.2,6.778-17.114,3.862,7.811h20.655" transform="translate(-3217.378 2536.867)" fill="none" stroke="#000" stroke-linecap="round" stroke-linejoin="round" stroke-width="2"/>
  </g>
</svg>
