<svg id="Groupe_868" data-name="Groupe 868" xmlns="http://www.w3.org/2000/svg" width="250" height="220.749" viewBox="0 0 250 220.749">
  <path id="Tracé_1145" data-name="Tracé 1145" d="M493.889,317.832H285.27a6.619,6.619,0,0,1-6.347-6.848V184.073H500.236V310.985A6.619,6.619,0,0,1,493.889,317.832Z" transform="translate(-278.444 -176.353)" fill="#96993e"/>
  <path id="Tracé_1146" data-name="Tracé 1146" d="M519.2,323.2H312.033a3.532,3.532,0,0,1-3.528-3.528V219.183a3.532,3.532,0,0,1,3.528-3.528H519.2a3.532,3.532,0,0,1,3.528,3.528v100.49A3.532,3.532,0,0,1,519.2,323.2Z" transform="translate(-295.749 -194.828)" fill="#fff"/>
  <path id="Tracé_1147" data-name="Tracé 1147" d="M500.04,177.817H277.769v-5.5a6.62,6.62,0,0,1,6.349-6.848H493.691a6.62,6.62,0,0,1,6.349,6.848Z" transform="translate(-277.769 -165.471)" fill="#96993e"/>
  <path id="Tracé_1148" data-name="Tracé 1148" d="M378.134,337.968H341.262a3.532,3.532,0,0,1-3.528-3.528V310.2a3.532,3.532,0,0,1,3.528-3.528h36.872a3.532,3.532,0,0,1,3.528,3.528v24.24A3.532,3.532,0,0,1,378.134,337.968Z" transform="translate(-312.848 -252.482)" fill="#e6e6e6"/>
  <path id="Tracé_1149" data-name="Tracé 1149" d="M623.745,310.6h-116.5a1.962,1.962,0,1,1,0-3.924h116.5a1.962,1.962,0,0,1,0,3.924Z" transform="translate(-422.074 -251.963)" fill="#e6e6e6"/>
  <path id="Tracé_1150" data-name="Tracé 1150" d="M623.745,344.418h-116.5a1.962,1.962,0,0,1,0-3.924h116.5a1.962,1.962,0,0,1,0,3.924Z" transform="translate(-422.074 -272.679)" fill="#e6e6e6"/>
  <path id="Tracé_1151" data-name="Tracé 1151" d="M623.745,378.239h-116.5a1.962,1.962,0,1,1,0-3.924h116.5a1.962,1.962,0,0,1,0,3.924Z" transform="translate(-422.074 -293.396)" fill="#e6e6e6"/>
  <path id="Tracé_1152" data-name="Tracé 1152" d="M408.964,528.648h-5.088l-2.42-19.625h7.509Z" transform="translate(-246.037 -313.19)" fill="#a0616a"/>
  <path id="Tracé_1153" data-name="Tracé 1153" d="M389.823,552.808h9.813v6.178H383.644a6.178,6.178,0,0,1,6.178-6.178Z" transform="translate(-235.482 -338.803)" fill="#2f2e41"/>
  <path id="Tracé_1154" data-name="Tracé 1154" d="M459.964,528.648h-5.088l-2.42-19.625h7.509Z" transform="translate(-277.293 -313.19)" fill="#a0616a"/>
  <path id="Tracé_1155" data-name="Tracé 1155" d="M440.823,552.808h9.813v6.178H434.644a6.178,6.178,0,0,1,6.178-6.178Z" transform="translate(-266.786 -338.803)" fill="#2f2e41"/>
  <path id="Tracé_1156" data-name="Tracé 1156" d="M705.619,590.84H700.44a1.879,1.879,0,0,1-1.861-1.713l-4.389-52.873a.623.623,0,0,0-1.239-.022l-6.3,52.961a1.869,1.869,0,0,1-1.855,1.647h-6.36a1.87,1.87,0,0,1-1.867-1.857c-.014-3.327-.037-6.678-.059-10.029-.2-29.849-.411-60.714,5.822-72.805l.057-.11,22.491-.385.057.124c6.8,14.87,4.739,48.09,2.742,80.216l-.192,3.1a1.87,1.87,0,0,1-1.864,1.752Z" transform="translate(-523.314 -379.891)" fill="#2f2e41"/>
  <circle id="Ellipse_5" data-name="Ellipse 5" cx="10.193" cy="10.193" r="10.193" transform="translate(161.506 75.262)" fill="#a0616a"/>
  <path id="Tracé_1157" data-name="Tracé 1157" d="M684.632,456.416l.281-11.687-2.022-9.119a14.7,14.7,0,0,1,3.268-12.915,14.475,14.475,0,0,1,12.127-5.028h0l.442.037a14.536,14.536,0,0,1,10.015,5.357,14.7,14.7,0,0,1,3.222,11.029l-2.446,21.38Z" transform="translate(-526.875 -321.152)" fill="#96993e"/>
  <path id="Tracé_1158" data-name="Tracé 1158" d="M657.149,533.274a4.173,4.173,0,0,0,.219-6.4l5.739-13.675-7.574,1.423-4.289,12.768a4.2,4.2,0,0,0,5.905,5.88Z" transform="translate(-506.323 -379.229)" fill="#a0616a"/>
  <path id="Tracé_1159" data-name="Tracé 1159" d="M764.3,536.791a4.173,4.173,0,0,1,.145-6.4l-4.952-13.98,7.481,1.851,3.555,12.991a4.2,4.2,0,0,1-6.23,5.535Z" transform="translate(-573.226 -381.225)" fill="#a0616a"/>
  <path id="Tracé_1160" data-name="Tracé 1160" d="M660.141,477.563a1.869,1.869,0,0,1-.764-.163l-4.366-1.956A1.865,1.865,0,0,1,654,473.168l7.324-22.751,2.83-17.14a4.6,4.6,0,1,1,9.023,1.8l-4.3,18.382-6.945,22.783a1.866,1.866,0,0,1-1.787,1.323Z" transform="translate(-508.791 -328.863)" fill="#96993e"/>
  <path id="Tracé_1161" data-name="Tracé 1161" d="M750.749,477.564a1.866,1.866,0,0,1-1.787-1.323l-6.942-22.77-4.305-18.395a4.6,4.6,0,1,1,9.023-1.8l2.838,17.17,7.317,22.721a1.865,1.865,0,0,1-1.014,2.277l-4.366,1.956A1.868,1.868,0,0,1,750.749,477.564Z" transform="translate(-560.192 -328.863)" fill="#96993e"/>
  <path id="Tracé_1162" data-name="Tracé 1162" d="M699.053,357.324a6.02,6.02,0,0,0-7.677,3.168,9.934,9.934,0,0,0-.1,5.679,24.4,24.4,0,0,1,.891,5.678,5.563,5.563,0,0,1-2.591,4.847,17.19,17.19,0,0,1-3.312.906,3.068,3.068,0,0,0-2.4,2.194c-.24,1.72,1.846,3.03,1.832,4.767-.015,1.84-2.314,2.933-2.612,4.749a3.152,3.152,0,0,0,1.216,2.8,8.262,8.262,0,0,0,2.857,1.383,49.308,49.308,0,0,0,24.592,1.4,9.866,9.866,0,0,0,4.563-1.837,3.886,3.886,0,0,0,1.26-4.444c-1.089-2.235-4.546-2.362-5.751-4.537-.723-1.3-.39-2.906-.238-4.389.393-3.831,1.3-8.306.348-12.038-.86-3.371-2.727-7.728-5.4-9.96-1.915-1.6-5.57-.872-8.017-.378Z" transform="translate(-527.485 -283.555)" fill="#2f2e41"/>
  <path id="Tracé_1163" data-name="Tracé 1163" d="M715.9,733.359H570.646a.415.415,0,0,1,0-.83H715.9a.415.415,0,0,1,0,.83Z" transform="translate(-466.317 -512.61)" fill="#ccc"/>
  <path id="Tracé_1164" data-name="Tracé 1164" d="M857.563,683.334c-5.984,8.014-18.407,8.858-18.407,8.858s-2.72-12.15,3.265-20.165,18.407-8.858,18.407-8.858S863.548,675.32,857.563,683.334Z" transform="translate(-623.273 -472.036)" fill="#e6e6e6"/>
  <path id="Tracé_1165" data-name="Tracé 1165" d="M807.311,700.261c3.949,5.288,12.146,5.845,12.146,5.845s1.795-8.018-2.154-13.306-12.146-5.845-12.146-5.845S803.362,694.973,807.311,700.261Z" transform="translate(-603.507 -485.95)" fill="#e6e6e6"/>
</svg>
