<svg xmlns="http://www.w3.org/2000/svg" width="250" height="251.862" viewBox="0 0 250 251.862">
  <g id="Groupe_867" data-name="Groupe 867" transform="translate(-0.006)">
    <path id="Tracé_1518" data-name="Tracé 1518" d="M374.671,671.411a1.138,1.138,0,0,1-.825-1.973l.078-.31a3.058,3.058,0,0,0-5.67-.053c-1.349,3.158-3.1,6.427-2.227,9.9a36.231,36.231,0,0,1,4.691-37.672,9.33,9.33,0,0,0,4.736-6.246c-1.16.393-2.605-.55-1.733-1.772.378-.467.759-.93,1.137-1.4-4.4-4.691-9.653,2.682-4.8,9.013a36.5,36.5,0,0,0-4.1,6.412,15.345,15.345,0,0,0-.916-7.128c-.877-2.115-2.52-3.9-3.968-5.726a3.15,3.15,0,0,0-5.619,1.628c1.624.534,1.835,2.88-.023,3.2a15.71,15.71,0,0,0,8.657,12.4,36.638,36.638,0,0,0-2,15.314c-.835-6.064-7.345-7.536-11.9-9.946a1.772,1.772,0,0,0-2.7,1.8,10.232,10.232,0,0,1,1.794.947,1.547,1.547,0,0,1-.719,2.824,15.621,15.621,0,0,0,14.313,9.467,37.669,37.669,0,0,0,2.53,7.387h9.039c.032-.1.062-.2.091-.3a10.267,10.267,0,0,1-2.5-.149c2.214-2.621,3.925-3.958,2.637-7.617Z" transform="translate(-321.366 -428.146)" fill="#f2f2f2"/>
    <path id="Tracé_1519" data-name="Tracé 1519" d="M687.921,671.411a1.138,1.138,0,0,0,.825-1.973l-.078-.31a3.058,3.058,0,0,1,5.67-.053c1.349,3.158,3.1,6.427,2.227,9.9a36.231,36.231,0,0,0-4.691-37.672,9.33,9.33,0,0,1-4.736-6.246c1.16.393,2.605-.55,1.733-1.772-.378-.467-.759-.93-1.137-1.4,4.4-4.691,9.653,2.682,4.8,9.013a36.5,36.5,0,0,1,4.1,6.412,15.346,15.346,0,0,1,.916-7.128c.877-2.115,2.521-3.9,3.968-5.726a3.15,3.15,0,0,1,5.619,1.628c-1.624.534-1.835,2.88.023,3.2a15.71,15.71,0,0,1-8.657,12.4,36.638,36.638,0,0,1,2,15.314c.836-6.064,7.345-7.536,11.9-9.946a1.772,1.772,0,0,1,2.7,1.8,10.23,10.23,0,0,0-1.794.947,1.547,1.547,0,0,0,.719,2.824,15.621,15.621,0,0,1-14.313,9.467,37.663,37.663,0,0,1-2.53,7.387h-9.039c-.032-.1-.062-.2-.091-.3a10.267,10.267,0,0,0,2.5-.149c-2.214-2.621-3.925-3.958-2.637-7.617Z" transform="translate(-525.929 -428.146)" fill="#f2f2f2"/>
    <path id="Tracé_1520" data-name="Tracé 1520" d="M415.7,620.025l-3.893.885-5.269-14.593,5.745-1.307Z" transform="translate(-253.939 -375.418)" fill="#ffb6b6"/>
    <path id="Tracé_1521" data-name="Tracé 1521" d="M677.271,766.079,665.3,768.8l-.034-.151a4.779,4.779,0,0,1,3.6-5.719h0l1.809-2.156,4.457.731,1.045-.238Z" transform="translate(-514.451 -517.443)" fill="#2f2e41"/>
    <path id="Tracé_1522" data-name="Tracé 1522" d="M606.684,426.88l2.14,3.37-11.98,9.859-3.159-4.974Z" transform="translate(-367.945 -266.132)" fill="#ffb6b6"/>
    <path id="Tracé_1523" data-name="Tracé 1523" d="M901.455,531.565l6.581,10.363-.131.083a4.779,4.779,0,0,1-6.6-1.472h0l-2.638-.981-.807-4.444-.574-.9Z" transform="translate(-659.276 -373.888)" fill="#2f2e41"/>
    <path id="Tracé_1524" data-name="Tracé 1524" d="M503.628,378.931l-.961-5.573,14.617-6.6,3.157-5.589a2.717,2.717,0,1,1,4.013,1.8L519.261,371Z" transform="translate(-412.252 -264.743)" fill="#a0616a"/>
    <path id="Tracé_1525" data-name="Tracé 1525" d="M226.971,290.741l6.582-3.362,1.742,6.543-4.572,3.389Z" transform="translate(-141.828 -179.449)" fill="#96993e"/>
    <path id="Tracé_1526" data-name="Tracé 1526" d="M180.084,617.684h3.98l1.893-15.351h-5.874Z" transform="translate(-112.657 -373.584)" fill="#a0616a"/>
    <path id="Tracé_1527" data-name="Tracé 1527" d="M446.162,758.482v-2.7l-1.046.064-4.259.252-.986.061-.754,9.036-.04.484H441.9l.091-.481.41-2.187,1.06,2.187.232.481h7.492A1.693,1.693,0,0,0,452.87,764C453.186,762.519,446.956,759.326,446.162,758.482Z" transform="translate(-373.35 -514.024)" fill="#2f2e41"/>
    <path id="Tracé_1528" data-name="Tracé 1528" d="M28.106,457.676l-.928,3.871,14.487,5.421,1.369-5.712Z" transform="translate(-18.612 -285.876)" fill="#a0616a"/>
    <path id="Tracé_1529" data-name="Tracé 1529" d="M272.868,567.3l2.624.629.182-1.032.748-4.2.171-.973-8.612-2.84-.462-.152-.659,2.748.447.2,2.031.909-2.374.521-.522.114-1.747,7.286a1.693,1.693,0,0,0,1.247,2.029C267.3,573.193,271.861,567.879,272.868,567.3Z" transform="translate(-264.644 -390.479)" fill="#2f2e41"/>
    <path id="Tracé_1530" data-name="Tracé 1530" d="M408.792,442.632l-5.123-2.395L393.453,452.6l-6.223,1.574a2.717,2.717,0,1,0,.683,4.347l9.112-2.9Z" transform="translate(-338.114 -316.082)" fill="#a0616a"/>
    <path id="Tracé_1531" data-name="Tracé 1531" d="M682.865,278.689a5.49,5.49,0,1,1,5.49-5.49A5.49,5.49,0,0,1,682.865,278.689Zm0-10.351a4.86,4.86,0,1,0,4.86,4.86A4.86,4.86,0,0,0,682.865,268.338Z" transform="translate(-522.223 -209.237)" fill="#e6e6e6"/>
    <path id="Tracé_1532" data-name="Tracé 1532" d="M690.219,282.444h-.033a.677.677,0,0,1-.5-.261l-.865-1.112a.677.677,0,0,1,.119-.95l.031-.024a.677.677,0,0,1,.951.119.494.494,0,0,0,.748.036l1.756-1.854a.678.678,0,0,1,.957-.026l.029.027a.677.677,0,0,1,.026.957l-2.725,2.876a.677.677,0,0,1-.491.211Z" transform="translate(-530.031 -216.102)" fill="#e6e6e6"/>
    <path id="Tracé_1533" data-name="Tracé 1533" d="M595.865,489.689a5.49,5.49,0,1,1,5.49-5.49A5.49,5.49,0,0,1,595.865,489.689Zm0-10.351a4.86,4.86,0,1,0,4.86,4.86,4.86,4.86,0,0,0-4.86-4.86Z" transform="translate(-467.927 -340.926)" fill="#e6e6e6"/>
    <path id="Tracé_1534" data-name="Tracé 1534" d="M603.219,493.444h-.033a.677.677,0,0,1-.5-.261l-.865-1.112a.677.677,0,0,1,.119-.95l.031-.024a.677.677,0,0,1,.951.119.494.494,0,0,0,.748.036l1.756-1.854a.678.678,0,0,1,.957-.026l.029.027a.677.677,0,0,1,.026.957l-2.725,2.877A.677.677,0,0,1,603.219,493.444Z" transform="translate(-475.58 -348.205)" fill="#e6e6e6"/>
    <path id="Tracé_1535" data-name="Tracé 1535" d="M404.865,254.689a5.49,5.49,0,1,1,5.49-5.49,5.49,5.49,0,0,1-5.49,5.49Zm0-10.351a4.86,4.86,0,1,0,4.86,4.86A4.86,4.86,0,0,0,404.865,244.338Z" transform="translate(-348.725 -194.258)" fill="#e6e6e6"/>
    <path id="Tracé_1536" data-name="Tracé 1536" d="M412.219,258.444h-.033a.677.677,0,0,1-.5-.261l-.865-1.112a.677.677,0,0,1,.119-.95l.031-.024a.677.677,0,0,1,.95.119.494.494,0,0,0,.748.036l1.756-1.854a.678.678,0,0,1,.957-.026l.029.027a.677.677,0,0,1,.026.957l-2.725,2.876A.676.676,0,0,1,412.219,258.444Z" transform="translate(-356.038 -201.076)" fill="#e6e6e6"/>
    <path id="Tracé_1537" data-name="Tracé 1537" d="M370.717,503.371c-12.731,0-27.363-14.128-40.309-7.415-39.2,20.324-33.8-13.685-45.06-26.334l.37-.742a135.484,135.484,0,0,0,44.861,26.213c15.294,5.43,30.7,7.945,44.553,7.281l.024.891Q372.961,503.372,370.717,503.371Z" transform="translate(-278.821 -331.932)" fill="#f2f2f2"/>
    <ellipse id="Ellipse_75" data-name="Ellipse 75" cx="2.661" cy="3.569" rx="2.661" ry="3.569" transform="translate(85.255 52.595)" fill="#e6e6e6"/>
    <path id="Tracé_1538" data-name="Tracé 1538" d="M594.687,447.322a1.127,1.127,0,0,1-1.222-1.893A1.127,1.127,0,0,1,594.687,447.322Z" transform="translate(-470.37 -320.871)" fill="#e6e6e6"/>
    <circle id="Ellipse_76" data-name="Ellipse 76" cx="3.465" cy="3.465" r="3.465" transform="translate(112.633 35.136)" fill="#ff6584"/>
    <path id="Tracé_1539" data-name="Tracé 1539" d="M609.989,169.741l19.719-57.592-21.653,56.9a1.084,1.084,0,1,0,1.934.689Z" transform="translate(-477.612 -112.149)" fill="#f0f0f0" opacity="0.3" style="mix-blend-mode: normal;isolation: isolate"/>
    <circle id="Ellipse_77" data-name="Ellipse 77" cx="3.372" cy="3.372" r="3.372" transform="translate(103.472 143.902)" fill="#f2f2f2"/>
    <path id="Tracé_1540" data-name="Tracé 1540" d="M369.61,511.053s-8.405,5.473-6.183,9.11c.077.125-10.04,13.487-10.04,13.487l-19.1-1.212-.673,6.392,17,4.924s4.159,3.056,7.373-.311,13.916-13.677,13.916-13.677l.516,20.817-5.373,28.846,8.022-.509,7.808-28.939,2.882-32.781Z" transform="translate(-311.883 -346.392)" fill="#2f2e41"/>
    <path id="Tracé_1541" data-name="Tracé 1541" d="M439.845,403.756l-3.535,2.679-4.029,8.6,3.874,5.261s3.259,5.648-1.957,11.117-9.221,11.311-5.046,11.1,21.084,8.392,21.2,1.346.336-12.448.336-12.448l4.433-11.244s2.641-6.708.787-8.716-4.337-4.574-4.337-4.574l-4.515-4.515h-4.077Z" transform="translate(-365.235 -289.79)" fill="#96993e"/>
    <path id="Tracé_1542" data-name="Tracé 1542" d="M465.519,352.391c7.93,4.512,1.42,16.418-6.658,12.178C450.932,360.057,457.442,348.152,465.519,352.391Z" transform="translate(-383.436 -261.31)" fill="#a0616a"/>
    <path id="Tracé_1543" data-name="Tracé 1543" d="M462.737,347.575c-.556.723-1.716.384-3.99.9a9.475,9.475,0,0,0-.265-2.288,6.44,6.44,0,0,1-1.086,2.575c-1.974.219.446,6.216-.565,10.625-1.3-9.3-4.041-6.865-2.657-5.02.886,1.181.3,4.724-2.362,2.953-4.385,2.084-10.63-8.268-3.708-13.122-.124-2.624,2.8-3.039,4.594-2.232C457.062,338.714,462.047,342.879,462.737,347.575Z" transform="translate(-376.824 -254.317)" fill="#2f2e41"/>
    <path id="Tracé_1544" data-name="Tracé 1544" d="M400.594,338.618c-1.765,10.854-11.228-2-15.677,8.686-1.4,3.868,1,6.636,2.519,9.846.347,2.639-3.086,3.978-3.446,6.407-.1,5.569,8.884,5.228,11.4,1.715,2.581-3.678-.5-8.612,1.05-12.56,2.18-5.481,11.046-5.522,11.819-11.9C406.758,338.683,402.736,336.243,400.594,338.618Z" transform="translate(-338.607 -251.44)" fill="#2f2e41"/>
    <path id="Tracé_1545" data-name="Tracé 1545" d="M454.886,336.68c-.058.024-.116.049-.167.076h0c-.049.024-.1.049-.146.076l-.015.009c-.064-.061-.128-.122-.195-.182a.7.7,0,0,0,.012.3l.009.036c.061.064.125.125.191.188.061-.046.119-.094.179-.14.036-.03.073-.061.112-.091.006-.079.015-.17.024-.271Zm1.83-3.38c-1.356-.31-1.793,1.462-1.924,2.316-.492-3.1-2.541-2.125-1.833-.009A4.737,4.737,0,0,0,454,337.285c.064.073.134.146.207.219-.082.426.331.316.891-.076a7.447,7.447,0,0,0,1.14-1C457.355,335.257,458.224,333.692,456.716,333.3Zm.043,1.745a10.624,10.624,0,0,1-1.4,1.486q-.242.219-.492.419c0,.027,0,.052-.006.073a.557.557,0,0,1-.043.085c-.17.307-.362.14-.435-.115-.006-.009-.015-.018-.021-.027a4.283,4.283,0,0,1-.629-.833c-1.255-2.176.766-3.657.666.407a.385.385,0,0,0-.036.119.7.7,0,0,0,.012.3l.009.036c.061.064.125.125.192.188.061-.046.119-.094.179-.14.036-.03.073-.061.112-.091.006-.079.015-.17.024-.271v0a6.2,6.2,0,0,1,.693-2.678C456.458,333.327,457.592,334.053,456.759,335.044Zm-1.872,1.635c-.058.024-.115.049-.167.076h0c-.049.024-.1.049-.146.076l-.015.009c-.064-.061-.128-.122-.195-.182a.7.7,0,0,0,.012.3l.009.036c.061.064.125.125.192.188.061-.046.119-.094.179-.14.036-.03.073-.061.112-.091.006-.079.015-.17.024-.271Z" transform="translate(-382.422 -250.569)" fill="#2f2e41"/>
    <path id="Tracé_1546" data-name="Tracé 1546" d="M655.8,523.077l-2.929,7.638-13.738,27.1,12.072,31.525,6.23-1.645-5.135-29.88,14.732-17.9,17.5,11.866s7.759,6.058,10.711.315,22.053-17.957,22.053-17.957l-4.726-5.041-22,10.293-15.181-21.368Z" transform="translate(-482.449 -351.167)" fill="#2f2e41"/>
    <path id="Tracé_1547" data-name="Tracé 1547" d="M688.453,405.977l-4.821-5.18-8.27-1.138-10.133,7.094.1,7.852,5.009,18.5s-1.908,13.293,3.421,13.159,8.234-2.79,10.4-2.249,11.4,2.843,11.982.432,3.693-.685,3.557-2.966-8.414-18.722-8.414-18.722l2.058-16.442Z" transform="translate(-511.403 -287.842)" fill="#96993e"/>
    <path id="Tracé_1548" data-name="Tracé 1548" d="M798.383,338.18a2.953,2.953,0,0,1-3.164,3.239L784.133,362.5l-2.976-4.569,11.332-19.9a2.969,2.969,0,0,1,5.895.144Z" transform="translate(-579.729 -250.368)" fill="#ffb6b6"/>
    <path id="Tracé_1549" data-name="Tracé 1549" d="M725.025,384.072a4.371,4.371,0,0,0,3.782,4.679c4.222.928,15.92-5.755,17.837-6.776.6-.32,1.415-1.887,2.251-3.888.375-.9.755-1.885,1.121-2.885.212-.579,1.227-.737,1.427-1.311s-.418-1.558-.238-2.1c.854-2.554,1.459-4.581,1.459-4.581l-2.8-5.257c-3.914,2.069-5.921,6.627-7.4,11.877Z" transform="translate(-549.409 -266.76)" fill="#96993e"/>
    <path id="Tracé_1550" data-name="Tracé 1550" d="M568.451,351.921a2.953,2.953,0,0,0,3.874,2.345l16.01,17.639,1.738-5.169-15.951-16.43a2.969,2.969,0,0,0-5.671,1.615Z" transform="translate(-453.18 -258.704)" fill="#ffb6b6"/>
    <path id="Tracé_1551" data-name="Tracé 1551" d="M630.488,383.96A4.371,4.371,0,0,1,628,389.437c-3.855,1.956-16.853-1.588-18.966-2.1-.661-.159-1.842-1.472-3.153-3.2-.588-.776-1.2-1.636-1.808-2.513-.35-.507-1.373-.406-1.71-.912s.015-1.613-.294-2.089c-1.466-2.259-2.559-4.07-2.559-4.07l1.394-5.79c4.307,1.024,7.391,4.934,10.134,9.648Z" transform="translate(-471.336 -271.471)" fill="#96993e"/>
    <circle id="Ellipse_78" data-name="Ellipse 78" cx="7.868" cy="7.868" r="7.868" transform="translate(159.043 88.064)" fill="#ffb6b6"/>
    <path id="Tracé_1552" data-name="Tracé 1552" d="M701.756,342.208a4.057,4.057,0,0,0-3.887-1.894,5.307,5.307,0,0,0-8.893-3.1,1.65,1.65,0,0,0-1.614-.162,3.4,3.4,0,0,0-1.311,1.052,7.637,7.637,0,0,0-1.069,7.77c-.184-.669.486-1.3,1.164-1.448s1.388-.008,2.075-.106c.88-.125,1.672-.636,2.554-.751a5.813,5.813,0,0,1,2.209.284,5.989,5.989,0,0,0,2.208.3c.742-.088,1.7,2.724,1.685,4.705,0,.375.075.857.442.937.452.1.714-.525,1.144-.7a.8.8,0,0,1,.976.519,1.3,1.3,0,0,1-.248,1.162,3.832,3.832,0,0,1-.929.806l.177.147a1.054,1.054,0,0,0,1.33.165,2.871,2.871,0,0,0,.955-1.088,12.8,12.8,0,0,0,1.752-4.2A6.114,6.114,0,0,0,701.756,342.208Z" transform="translate(-525.632 -251.35)" fill="#2f2e41"/>
    <path id="Tracé_1553" data-name="Tracé 1553" d="M731.727,447.185c-10.149,7.687-30.343,5.258-36.61,18.426-18.974,39.866-35.207,9.5-51.82,6.214l-.153-.814a135.486,135.486,0,0,0,51.588-6.19c15.47-4.906,29.271-12.2,39.913-21.1l.557.7Q733.517,445.83,731.727,447.185Z" transform="translate(-485.195 -315.394)" fill="#f2f2f2"/>
    <path id="Tracé_1554" data-name="Tracé 1554" d="M486.962,784.979c-.242.716-138.251.716-138.512,0C348.692,784.263,486.7,784.263,486.962,784.979Z" transform="translate(-322.044 -533.654)" fill="#ccc"/>
  </g>
</svg>
