<svg xmlns="http://www.w3.org/2000/svg" width="288.898" height="186.345" viewBox="0 0 288.898 186.345">
  <g id="Groupe_866" data-name="Groupe 866" transform="translate(0)">
    <path id="Tracé_1409" data-name="Tracé 1409" d="M165.988,614.767l-1.046,5.246c-.079.4-.161.809-.251,1.214a5.116,5.116,0,0,0-2.629.147,24.535,24.535,0,0,1,1.8,3.019,11.11,11.11,0,0,1-3.244,5.264,8.136,8.136,0,0,1-7.861,1.382l.047-.208c-1.74-3.377-.795-7.635,1.368-10.754a20.909,20.909,0,0,1,3.886-4.108c1.461-1.218,3.04-2.31,4.605-3.388a2.145,2.145,0,0,1,3.32,2.184Z" transform="translate(-144.753 -458.249)" fill="#e4e4e4"/>
    <path id="a4b268fa-75d0-4ac1-9d87-14bdca948464-2189" d="M154.11,662.716a42.081,42.081,0,0,1-.584-9.694,15.245,15.245,0,0,1,2.94-7.993,13.3,13.3,0,0,1,3.412-3.092c.341-.215.655.326.315.54a12.641,12.641,0,0,0-5,6.033,20.239,20.239,0,0,0-1.074,8.729c.114,1.779.354,3.545.6,5.311a.322.322,0,0,1-.218.385.314.314,0,0,1-.385-.218Z" transform="translate(-145.729 -477.302)" fill="#f2f2f2"/>
    <path id="Tracé_1410" data-name="Tracé 1410" d="M164.957,248.64q23.011-.4,46.026-.115t46.009,1.262q12.9.547,25.8,1.311c.691.041.688-1.034,0-1.074q-22.974-1.359-45.982-2.034t-46.022-.658q-12.916.009-25.831.234a.537.537,0,0,0,0,1.074Z" transform="translate(-152.798 -229.433)" fill="#e6e6e6"/>
    <path id="Tracé_1411" data-name="Tracé 1411" d="M463.5,229.351l6.708-.5c.685-.051.691-1.126,0-1.074l-6.708.5C462.812,228.328,462.806,229.4,463.5,229.351Z" transform="translate(-361.205 -216.881)" fill="#e6e6e6"/>
    <path id="Tracé_1412" data-name="Tracé 1412" d="M463.5,247.351l6.708-.5c.685-.051.691-1.126,0-1.074l-6.708.5C462.812,246.328,462.806,247.4,463.5,247.351Z" transform="translate(-361.205 -228.435)" fill="#e6e6e6"/>
    <path id="Tracé_1413" data-name="Tracé 1413" d="M462.091,240.025l9.537.866c.688.063.684-1.012,0-1.074l-9.537-.866C461.4,238.888,461.407,239.962,462.091,240.025Z" transform="translate(-360.377 -224.052)" fill="#e6e6e6"/>
    <path id="Tracé_1414" data-name="Tracé 1414" d="M172.639,228.141a2.376,2.376,0,0,0-2.2,1.434,2.139,2.139,0,0,0,.492,2.541,2.543,2.543,0,0,0,2.41.49,2.15,2.15,0,0,0,1.441-2.021,2.4,2.4,0,0,0-1.5-2.317.539.539,0,0,0-.661.375.552.552,0,0,0,.375.661c.094.036-.086-.046,0,0,.036.02.073.037.108.058s.059.037.088.056c.1.065-.049-.048.015.011s.111.1.161.157c.019.021.094.08.036.039s-.017-.024,0,0l.04.057a1.92,1.92,0,0,1,.114.2l.023.047c.015.029.037.037,0,0s-.012-.033,0,0,.017.044.024.066a2.071,2.071,0,0,1,.063.221c.008.035.014.069.021.1.024.123,0-.077,0,.015,0,.076.01.152.009.229q0,.053,0,.105c0,.018,0,.035,0,.052-.006.084-.006-.031.006-.039a.992.992,0,0,0-.049.221c-.01.033-.021.066-.032.1-.037.115.035-.063,0,.016a1.965,1.965,0,0,1-.11.2c-.018.027-.083.087-.03.045s-.031.033-.05.053-.05.051-.076.075a.61.61,0,0,1-.053.046s.09-.062.04-.03-.124.084-.192.12c-.008,0-.094.044-.093.045,0-.014.111-.04.032-.015l-.049.017a1.753,1.753,0,0,1-.218.058c-.017,0-.035.005-.051.009-.056.014.053-.008.056-.007a.469.469,0,0,0-.122.011,2,2,0,0,1-.229,0l-.053,0c-.041,0-.071-.032-.016,0s.039.007,0,0l-.052-.009a2.085,2.085,0,0,1-.223-.055c-.04-.012-.078-.026-.117-.04a.312.312,0,0,1-.049-.019s.1.048.047.019-.136-.066-.2-.106c-.035-.021-.069-.044-.1-.067a.331.331,0,0,1-.043-.03s.083.072.04.03-.113-.1-.165-.154l-.035-.039-.011-.013q-.044-.053,0,0c.028.008.027.04,0,0l-.029-.043a1.123,1.123,0,0,1-.111-.2s.047.129.013.03c-.006-.019-.013-.037-.02-.056q-.018-.056-.033-.113c-.009-.038-.014-.077-.023-.114-.016-.063.009.05.006.047s-.005-.064-.006-.077c0-.084.005-.166.007-.25,0-.065-.005.051-.007.047a.182.182,0,0,1,.01-.057c.01-.044.019-.088.031-.132s.029-.1.047-.148c.007-.018.015-.036.021-.055.023-.067-.045.081-.008.021.051-.084.089-.174.143-.257.013-.02.091-.129.05-.074s.042-.049.058-.067c.066-.073.143-.134.212-.2.04-.042-.028.02-.032.023l.063-.046q.056-.039.115-.073c.044-.026.094-.045.137-.072s-.039.014-.04.015a.4.4,0,0,1,.072-.027c.042-.015.223-.093.26-.068,0,0-.137.011-.028,0l.078-.005c.052,0,.1,0,.157,0a.541.541,0,0,0,.537-.537.549.549,0,0,0-.537-.537Z" transform="translate(-156.511 -217.115)" fill="#e6e6e6"/>
    <path id="Tracé_1415" data-name="Tracé 1415" d="M193.639,228.141a2.376,2.376,0,0,0-2.2,1.434,2.139,2.139,0,0,0,.492,2.541,2.543,2.543,0,0,0,2.41.49,2.15,2.15,0,0,0,1.441-2.021,2.4,2.4,0,0,0-1.5-2.317.539.539,0,0,0-.661.375.552.552,0,0,0,.375.661c.094.036-.086-.046,0,0,.036.02.073.037.108.058s.059.037.088.056c.1.065-.049-.048.015.011s.111.1.161.157c.019.021.094.08.036.039s-.017-.024,0,0l.04.057a1.911,1.911,0,0,1,.114.2l.023.047c.015.029.037.037,0,0s-.012-.033,0,0,.017.044.024.066a2.074,2.074,0,0,1,.063.221c.008.035.014.069.021.1.024.123,0-.077,0,.015,0,.076.01.152.009.229q0,.053,0,.105c0,.018,0,.035,0,.052-.006.084-.006-.031.006-.039a.992.992,0,0,0-.049.221c-.01.033-.021.066-.032.1-.037.115.035-.063,0,.016a1.967,1.967,0,0,1-.11.2c-.018.027-.083.087-.03.045s-.031.033-.05.053-.05.051-.076.075a.612.612,0,0,1-.053.046s.09-.062.04-.03-.124.084-.192.12c-.008,0-.094.044-.093.045,0-.014.111-.04.032-.015l-.049.017a1.752,1.752,0,0,1-.218.058c-.017,0-.035.005-.051.009-.056.014.053-.008.056-.007a.469.469,0,0,0-.122.011,2,2,0,0,1-.229,0l-.053,0c-.041,0-.071-.032-.016,0s.039.007,0,0l-.052-.009a2.081,2.081,0,0,1-.223-.055c-.04-.012-.078-.026-.117-.04a.312.312,0,0,1-.049-.019s.1.048.047.019-.136-.066-.2-.106c-.035-.021-.069-.044-.1-.067a.33.33,0,0,1-.043-.03s.083.072.04.03-.113-.1-.165-.154l-.035-.039-.011-.013q-.044-.053,0,0c.028.008.027.04,0,0l-.029-.043a1.123,1.123,0,0,1-.111-.2s.047.129.013.03c-.006-.019-.013-.037-.02-.056q-.019-.056-.033-.113c-.009-.038-.014-.077-.023-.114-.016-.063.009.05.006.047s-.005-.064-.006-.077c0-.084.005-.166.007-.25,0-.065-.005.051-.007.047a.183.183,0,0,1,.01-.057c.01-.044.019-.088.031-.132s.029-.1.047-.148c.007-.018.015-.036.021-.055.023-.067-.045.081-.008.021.051-.084.089-.174.143-.257.013-.02.091-.129.05-.074s.042-.049.058-.067c.066-.073.143-.134.212-.2.04-.042-.028.02-.032.023l.063-.046q.056-.039.115-.073c.044-.026.094-.045.137-.072s-.039.014-.04.015a.4.4,0,0,1,.072-.027c.042-.015.223-.093.26-.068,0,0-.137.011-.028,0l.078-.005c.053,0,.1,0,.157,0a.541.541,0,0,0,.537-.537.549.549,0,0,0-.537-.537Z" transform="translate(-169.991 -217.115)" fill="#e6e6e6"/>
    <path id="Tracé_1416" data-name="Tracé 1416" d="M214.639,228.141a2.376,2.376,0,0,0-2.2,1.434,2.139,2.139,0,0,0,.492,2.541,2.543,2.543,0,0,0,2.41.49,2.15,2.15,0,0,0,1.441-2.021,2.4,2.4,0,0,0-1.5-2.317.539.539,0,0,0-.661.375.552.552,0,0,0,.375.661c.094.036-.086-.046,0,0,.036.02.073.037.108.058s.059.037.088.056c.1.065-.049-.048.015.011s.111.1.161.157c.019.021.094.08.036.039s-.017-.024,0,0l.04.057a1.917,1.917,0,0,1,.114.2l.023.047c.015.029.037.037,0,0s-.012-.033,0,0,.017.044.024.066a2.067,2.067,0,0,1,.063.221c.008.035.014.069.021.1.024.123,0-.077,0,.015,0,.076.01.152.009.229q0,.053,0,.105c0,.018,0,.035,0,.052-.006.084-.006-.031.006-.039a.991.991,0,0,0-.049.221c-.01.033-.021.066-.032.1-.037.115.035-.063,0,.016a1.967,1.967,0,0,1-.11.2c-.018.027-.084.087-.03.045s-.031.033-.05.053-.05.051-.076.075a.61.61,0,0,1-.053.046s.09-.062.04-.03-.124.084-.192.12c-.008,0-.094.044-.093.045,0-.014.111-.04.032-.015l-.049.017a1.753,1.753,0,0,1-.218.058c-.017,0-.035.005-.051.009-.056.014.053-.008.056-.007a.469.469,0,0,0-.122.011,2,2,0,0,1-.229,0l-.053,0c-.041,0-.071-.032-.016,0s.039.007,0,0l-.052-.009a2.083,2.083,0,0,1-.223-.055c-.04-.012-.078-.026-.117-.04a.312.312,0,0,1-.049-.019s.1.048.047.019-.136-.066-.2-.106c-.035-.021-.069-.044-.1-.067a.33.33,0,0,1-.043-.03s.083.072.04.03-.113-.1-.165-.154l-.035-.039-.011-.013q-.044-.053,0,0c.028.008.027.04,0,0l-.029-.043a1.123,1.123,0,0,1-.111-.2s.047.129.013.03c-.006-.019-.013-.037-.02-.056q-.018-.056-.033-.113c-.009-.038-.014-.077-.023-.114-.016-.063.009.05.006.047s-.005-.064-.006-.077c0-.084.005-.166.007-.25,0-.065-.005.051-.007.047a.182.182,0,0,1,.01-.057c.01-.044.019-.088.031-.132s.029-.1.047-.148c.007-.018.015-.036.021-.055.023-.067-.045.081-.008.021.051-.084.089-.174.143-.257.013-.02.091-.129.05-.074s.042-.049.058-.067c.066-.073.143-.134.212-.2.04-.042-.028.02-.032.023l.063-.046q.056-.039.115-.073c.044-.026.094-.045.137-.072s-.039.014-.04.015a.4.4,0,0,1,.072-.027c.042-.015.222-.093.26-.068,0,0-.137.011-.028,0l.078-.005c.052,0,.1,0,.157,0a.541.541,0,0,0,.537-.537.549.549,0,0,0-.537-.537Z" transform="translate(-183.47 -217.115)" fill="#e6e6e6"/>
    <path id="Tracé_1417" data-name="Tracé 1417" d="M274.928,327.346H143.177a6.291,6.291,0,0,1-6.284-6.284V203.636a6.291,6.291,0,0,1,6.284-6.284H274.928a6.291,6.291,0,0,1,6.284,6.284V321.063A6.291,6.291,0,0,1,274.928,327.346ZM143.177,198.068a5.574,5.574,0,0,0-5.568,5.568V321.063a5.574,5.574,0,0,0,5.568,5.568H274.928a5.574,5.574,0,0,0,5.568-5.568V203.636a5.574,5.574,0,0,0-5.568-5.568Z" transform="translate(-135.117 -197.352)" fill="#e6e6e6"/>
    <path id="Tracé_1418" data-name="Tracé 1418" d="M152.9,417.887l46.332-.141,46.1-.14,26-.079a.537.537,0,0,0,0-1.074L225,416.593l-46.1.14-26,.079a.538.538,0,0,0,0,1.074Z" transform="translate(-145.059 -335.633)" fill="#e6e6e6"/>
    <path id="Tracé_1419" data-name="Tracé 1419" d="M217.175,386.775l.286-16.916a.537.537,0,0,0-1.074,0l-.286,16.916A.537.537,0,0,0,217.175,386.775Z" transform="translate(-185.959 -305.712)" fill="#e6e6e6"/>
    <path id="Tracé_1420" data-name="Tracé 1420" d="M279.009,368.607l.7-21.263.2-6.075c.023-.692-1.052-.691-1.074,0l-.7,21.263-.2,6.075C277.912,369.3,278.987,369.3,279.009,368.607Z" transform="translate(-225.65 -287.583)" fill="#e6e6e6"/>
    <path id="Tracé_1421" data-name="Tracé 1421" d="M339.7,313.126c-.421,7.531-1.2,29.745-1.621,37.276-.039.691,1.036.689,1.074,0,.421-7.531,1.2-29.745,1.621-37.276C340.809,312.435,339.734,312.438,339.7,313.126Z" transform="translate(-274.54 -269.774)" fill="#e6e6e6"/>
    <path id="Tracé_1422" data-name="Tracé 1422" d="M403.74,388.157l-.132,7.239a.537.537,0,0,0,1.074,0c.156-8.549.554-8.271.6-10.683a.537.537,0,0,0-1.074,0S403.9,379.607,403.74,388.157Z" transform="translate(-319.835 -314.512)" fill="#e6e6e6"/>
    <path id="Tracé_1423" data-name="Tracé 1423" d="M464.088,343.011l.122,20.308.035,5.815a.537.537,0,0,0,1.074,0l-.122-20.308-.035-5.815a.537.537,0,0,0-1.074,0Z" transform="translate(-361.643 -288.693)" fill="#e6e6e6"/>
    <path id="Tracé_1424" data-name="Tracé 1424" d="M151.752,354.045c-.889-2.444,1.115-4.794,3.175-5.85,2.468-1.265,5.307-1.552,7.8-2.772,3.718-1.818,6.426-5.082,8.836-8.349,2.48-3.362,4.75-6.971,7.9-9.765a15.827,15.827,0,0,1,5.754-3.33,19.832,19.832,0,0,1,8.312-.558c5.736.7,11.054,3.068,16.589,4.573,5.218,1.42,10.968,2.218,16.09.01,2.6-1.122,4.73-3,7.016-4.631a23.383,23.383,0,0,1,7.308-3.525,21.734,21.734,0,0,1,15.544,1.369,20.857,20.857,0,0,1,9.837,10.383c2.269,5.421,1.974,11.479,1.233,17.186-.192,1.475-.42,2.945-.65,4.414-.106.676.929.968,1.036.286.923-5.884,1.843-11.954.695-17.876a21.65,21.65,0,0,0-8-13.027,22.219,22.219,0,0,0-14.651-4.624,24.022,24.022,0,0,0-8.048,1.79,33.283,33.283,0,0,0-7.192,4.442,18.868,18.868,0,0,1-7.689,3.795,22.908,22.908,0,0,1-8.59-.178c-5.813-1.086-11.231-3.576-16.995-4.851-5.34-1.182-11.1-1.3-15.884,1.717-3.678,2.321-6.277,5.923-8.772,9.4-2.473,3.448-4.976,7.135-8.592,9.491-2.206,1.437-4.685,1.967-7.152,2.775s-4.848,2.177-5.857,4.711a4.582,4.582,0,0,0-.094,3.278c.235.645,1.273.366,1.036-.286Z" transform="translate(-143.824 -273.137)" fill="#e6e6e6"/>
    <path id="Tracé_1425" data-name="Tracé 1425" d="M86.168,166.9h0Z" transform="translate(-55.31 -105.353)" fill="#e6e6e6"/>
    <path id="Tracé_1426" data-name="Tracé 1426" d="M216.127,359.552a2.135,2.135,0,0,0-2.587-.957,1.879,1.879,0,0,0-1.07,1c-.021.049-.033.1-.049.15s-.051.072-.072.111a2.134,2.134,0,0,0,3.327,2.549A2.3,2.3,0,0,0,216.127,359.552Zm-1.346.912C214.786,360.491,214.785,360.516,214.782,360.464Zm-.137-.311Zm-.6.242Zm.143.121C214.219,360.528,214.206,360.526,214.185,360.517Zm.064.03.014-.006a.018.018,0,0,1-.01,0h.007c.006,0,.006,0,.007,0,.064-.029.021-.015-.016,0h0a.245.245,0,0,0-.074-.024l-.007,0c-.021-.015-.125-.1-.028-.011-.021-.019-.042-.037-.061-.057a.281.281,0,0,1-.032-.039l-.037-.066,0-.012c0-.01,0-.014,0-.02s0-.013,0-.019a.231.231,0,0,0,.014-.06l0-.005c.015-.022.029-.047.044-.069-.078.118.03-.013.039-.03s0,0,0,0l.006,0c.024-.014.047-.03.071-.044s.144-.049.025-.015c.027-.008.053-.017.08-.025l.067-.011h.039l.027,0c-.02,0,.068.022.094.026l.011.009c.022.016.049.03.072.045-.1-.067,0,.005.021.025s.023.025.034.037a.288.288,0,0,1,.028.038c.017.031.035.063.053.094l0,.008a.029.029,0,0,0,0,0,.847.847,0,0,0,.041.146.116.116,0,0,1,0,.012c0,.027,0,.054,0,.082v.006A.589.589,0,0,0,214.249,360.547Z" transform="translate(-183.406 -299.007)" fill="#e6e6e6"/>
    <path id="Tracé_1427" data-name="Tracé 1427" d="M218.114,364.255s0,0,0,0Z" transform="translate(-187.252 -302.704)" fill="#e6e6e6"/>
    <path id="Tracé_1428" data-name="Tracé 1428" d="M218.113,364.255h0Z" transform="translate(-187.252 -302.704)" fill="#e6e6e6"/>
    <path id="Tracé_1429" data-name="Tracé 1429" d="M218.111,364.257h0Z" transform="translate(-187.249 -302.705)" fill="#e6e6e6"/>
    <path id="Tracé_1430" data-name="Tracé 1430" d="M86.177,166.9Z" transform="translate(-55.316 -105.351)" fill="#e6e6e6"/>
    <path id="Tracé_1431" data-name="Tracé 1431" d="M150.168,138.9h0Z" transform="translate(-96.391 -87.679)" fill="#e6e6e6"/>
    <path id="Tracé_1432" data-name="Tracé 1432" d="M280.127,331.552a2.135,2.135,0,0,0-2.587-.957,1.879,1.879,0,0,0-1.07,1c-.021.049-.033.1-.049.15s-.051.072-.072.111a2.134,2.134,0,0,0,3.327,2.549A2.3,2.3,0,0,0,280.127,331.552Zm-1.346.912C278.786,332.491,278.785,332.516,278.782,332.464Zm-.137-.311Zm-.6.242Zm.143.121C278.219,332.528,278.206,332.526,278.185,332.517Zm.064.03.014-.006-.01,0h.007c.006,0,.006,0,.007,0,.064-.029.021-.015-.016,0h0a.243.243,0,0,0-.074-.024l-.007,0c-.021-.015-.125-.1-.028-.011-.021-.019-.042-.037-.061-.057a.278.278,0,0,1-.032-.039l-.037-.066,0-.012c0-.01,0-.014,0-.02s0-.013,0-.019a.232.232,0,0,0,.014-.06l0-.005c.015-.022.029-.047.044-.069-.078.118.03-.013.039-.03s0,0,0,0l.006,0c.024-.014.047-.03.072-.044s.144-.049.025-.015c.027-.008.053-.018.08-.025l.067-.011h.039l.027,0c-.02,0,.068.022.094.026l.011.009c.022.016.049.03.072.045-.1-.067,0,.005.021.025s.023.025.034.037a.29.29,0,0,1,.028.038c.017.031.035.063.053.094l0,.008s0,0,0,0a.85.85,0,0,0,.041.146.119.119,0,0,1,0,.012c0,.027,0,.054,0,.082v.006A.588.588,0,0,0,278.249,332.547Z" transform="translate(-224.487 -281.34)" fill="#e6e6e6"/>
    <path id="Tracé_1433" data-name="Tracé 1433" d="M282.111,336.257h0Z" transform="translate(-228.33 -285.031)" fill="#e6e6e6"/>
    <path id="Tracé_1434" data-name="Tracé 1434" d="M150.177,138.9Z" transform="translate(-96.397 -87.677)" fill="#e6e6e6"/>
    <path id="Tracé_1435" data-name="Tracé 1435" d="M282.114,336.255s0,0,0,0Z" transform="translate(-228.333 -285.03)" fill="#e6e6e6"/>
    <path id="Tracé_1436" data-name="Tracé 1436" d="M282.113,336.255h0Z" transform="translate(-228.333 -285.03)" fill="#e6e6e6"/>
    <path id="Tracé_1437" data-name="Tracé 1437" d="M212.177,152.9Z" transform="translate(-146.697 -96.514)" fill="#e6e6e6"/>
    <path id="Tracé_1438" data-name="Tracé 1438" d="M342.127,303.552a2.135,2.135,0,0,0-2.587-.957,1.879,1.879,0,0,0-1.07,1c-.021.049-.033.1-.049.15s-.051.072-.072.111a2.134,2.134,0,0,0,3.327,2.549A2.3,2.3,0,0,0,342.127,303.552Zm-1.346.912C340.786,304.491,340.785,304.516,340.782,304.464Zm-.137-.311Zm-.6.242Zm.143.121C340.219,304.528,340.206,304.526,340.185,304.517Zm.064.03.014-.006a.018.018,0,0,1-.01,0h.007c.006,0,.006,0,.007,0,.064-.029.021-.015-.016,0h0a.245.245,0,0,0-.074-.024l-.007,0c-.021-.015-.125-.1-.028-.011-.021-.019-.042-.037-.061-.057a.276.276,0,0,1-.032-.039l-.037-.066,0-.012c0-.01,0-.014,0-.02s0-.013,0-.019a.232.232,0,0,0,.014-.06l0-.005c.015-.022.029-.047.044-.069-.078.118.03-.013.039-.03s0,0,0,0l.006,0c.024-.014.047-.03.072-.044s.144-.049.025-.015c.027-.008.053-.018.08-.025l.067-.011h.039l.027,0c-.02,0,.068.022.094.026l.011.009c.022.016.049.03.072.045-.1-.067,0,.005.021.025s.023.025.034.037a.29.29,0,0,1,.028.038c.017.031.035.063.053.094l0,.008a.025.025,0,0,0,0,0,.85.85,0,0,0,.041.146s0,.008,0,.012c0,.027,0,.054,0,.082v.006A.588.588,0,0,0,340.249,304.547Z" transform="translate(-274.624 -263.674)" fill="#e6e6e6"/>
    <path id="Tracé_1439" data-name="Tracé 1439" d="M212.168,152.9h0Z" transform="translate(-146.691 -96.516)" fill="#e6e6e6"/>
    <path id="Tracé_1440" data-name="Tracé 1440" d="M344.113,350.255h0Z" transform="translate(-278.633 -293.867)" fill="#e6e6e6"/>
    <path id="Tracé_1441" data-name="Tracé 1441" d="M344.111,350.257h0Z" transform="translate(-278.63 -293.868)" fill="#e6e6e6"/>
    <path id="Tracé_1442" data-name="Tracé 1442" d="M344.114,350.255s0,0,0,0Z" transform="translate(-278.634 -293.867)" fill="#e6e6e6"/>
    <path id="Tracé_1443" data-name="Tracé 1443" d="M405.128,380.552a2.135,2.135,0,0,0-2.587-.957,1.879,1.879,0,0,0-1.07,1c-.021.049-.033.1-.049.15s-.051.072-.072.111a2.134,2.134,0,0,0,3.327,2.549A2.3,2.3,0,0,0,405.128,380.552Zm-1.346.912C403.786,381.491,403.785,381.516,403.782,381.464Zm-.137-.311Zm-.6.242Zm.143.121C403.219,381.528,403.206,381.526,403.185,381.517Zm.064.03.014-.006a.018.018,0,0,1-.01,0h.007c.006,0,.006,0,.007,0,.064-.029.021-.015-.016,0h0a.243.243,0,0,0-.074-.024l-.007,0c-.021-.015-.125-.1-.028-.011-.021-.019-.042-.037-.061-.057a.28.28,0,0,1-.032-.039l-.037-.066,0-.012c0-.01,0-.014,0-.02s0-.013,0-.019a.231.231,0,0,0,.014-.06l0-.005c.015-.022.029-.047.044-.069-.078.118.03-.013.039-.03s0,0,0,0l.006,0c.024-.014.047-.03.072-.044s.144-.049.025-.015c.027-.008.053-.018.08-.025l.067-.011h.039l.027,0c-.02,0,.068.022.094.026l.011.009c.022.016.049.03.072.045-.1-.067,0,.005.021.025s.023.025.034.037a.287.287,0,0,1,.028.038c.017.031.035.063.053.094l0,.008a.026.026,0,0,0,0,0,.847.847,0,0,0,.041.146s0,.008,0,.012c0,.027,0,.055,0,.082v.006A.588.588,0,0,0,403.249,381.547Z" transform="translate(-318.222 -312.256)" fill="#e6e6e6"/>
    <path id="Tracé_1444" data-name="Tracé 1444" d="M275.168,121.9h0Z" transform="translate(-190.248 -76.948)" fill="#e6e6e6"/>
    <path id="Tracé_1445" data-name="Tracé 1445" d="M407.113,319.255h0Z" transform="translate(-322.191 -274.299)" fill="#e6e6e6"/>
    <path id="Tracé_1446" data-name="Tracé 1446" d="M407.111,319.257h0Z" transform="translate(-322.188 -274.3)" fill="#e6e6e6"/>
    <path id="Tracé_1447" data-name="Tracé 1447" d="M407.114,319.255s0,0,0,0Z" transform="translate(-322.191 -274.299)" fill="#e6e6e6"/>
    <path id="Tracé_1448" data-name="Tracé 1448" d="M275.177,121.9Z" transform="translate(-190.255 -76.947)" fill="#e6e6e6"/>
    <path id="Tracé_1449" data-name="Tracé 1449" d="M466.113,339.255h0Z" transform="translate(-362.983 -286.923)" fill="#e6e6e6"/>
    <path id="Tracé_1450" data-name="Tracé 1450" d="M464.127,334.552a2.135,2.135,0,0,0-2.587-.957,1.879,1.879,0,0,0-1.07,1c-.021.049-.033.1-.049.15s-.051.072-.072.111a2.134,2.134,0,0,0,3.327,2.549,2.3,2.3,0,0,0,.451-2.849Zm-1.346.912C462.786,335.491,462.785,335.516,462.782,335.464Zm-.137-.311Zm-.6.242Zm.143.121C462.219,335.528,462.206,335.526,462.185,335.517Zm.064.03.014-.006a.018.018,0,0,1-.01,0h.007c.006,0,.006,0,.007,0,.064-.029.021-.015-.016,0h0a.243.243,0,0,0-.074-.024l-.007,0c-.021-.015-.125-.1-.028-.011-.021-.019-.042-.037-.061-.057a.284.284,0,0,1-.032-.039l-.037-.066,0-.012c0-.01,0-.014,0-.02s0-.013,0-.019a.233.233,0,0,0,.014-.06l0-.005c.015-.022.029-.047.044-.069-.078.118.03-.013.039-.03s0,0,0,0l.006,0c.024-.014.047-.03.071-.044s.144-.049.025-.015c.027-.008.053-.018.08-.025l.067-.011h.039l.027,0c-.02,0,.068.022.094.026l.011.009c.022.016.049.03.072.045-.1-.067,0,.005.021.025s.023.025.034.037a.294.294,0,0,1,.028.038c.017.031.035.063.053.094l0,.008s0,0,0,0a.842.842,0,0,0,.041.146s0,.008,0,.012c0,.027,0,.054,0,.082v.006a.588.588,0,0,0-.537,0Z" transform="translate(-359.052 -283.233)" fill="#e6e6e6"/>
    <path id="Tracé_1451" data-name="Tracé 1451" d="M334.168,141.9h0Z" transform="translate(-231.04 -89.573)" fill="#e6e6e6"/>
    <path id="Tracé_1452" data-name="Tracé 1452" d="M334.177,141.9Z" transform="translate(-231.047 -89.571)" fill="#e6e6e6"/>
    <path id="Tracé_1453" data-name="Tracé 1453" d="M466.114,339.255s0,0,0,0Z" transform="translate(-362.983 -286.924)" fill="#e6e6e6"/>
    <path id="Tracé_1454" data-name="Tracé 1454" d="M466.111,339.257h0Z" transform="translate(-362.98 -286.925)" fill="#e6e6e6"/>
    <path id="Tracé_1455" data-name="Tracé 1455" d="M419.4,380.474l-16.651.925a.367.367,0,0,1-.079-.729l17.019-2.769Z" transform="translate(-319.633 -311.279)" fill="#3f3d56"/>
    <path id="Tracé_1456" data-name="Tracé 1456" d="M505.112,469.68l6.275-10.557,4.638,2.19s-7.991,9.981-8.246,10.268a2.456,2.456,0,1,1-2.666-1.9Z" transform="translate(-389.182 -362.326)" fill="#ffb6b6"/>
    <path id="Tracé_1457" data-name="Tracé 1457" d="M514.262,420.126l10.166,5.3a5.628,5.628,0,0,1,.953,8.265l-7.008,8.039L515.32,437.6l2.353-4.92-4.557-1.2Z" transform="translate(-396.281 -337.648)" fill="#96993e"/>
    <path id="Tracé_1458" data-name="Tracé 1458" d="M424.174,377.421l-1.145,12.227-5.129.009s2.943-12.443,3.05-12.811a2.456,2.456,0,1,1,3.224.576Z" transform="translate(-329.97 -307.954)" fill="#ffb6b6"/>
    <path id="Tracé_1459" data-name="Tracé 1459" d="M431.442,420.453l-11.8-2.165c-4.971-.6-7.011-3.869-6.114-7.059l2.887-10.267,4.532,2.429-.017,5.454,6.343-.867Z" transform="translate(-327.276 -325.611)" fill="#96993e"/>
    <path id="Tracé_1460" data-name="Tracé 1460" d="M309.915,471.55h-3.246l-1.544-12.52h4.791Z" transform="translate(-211.18 -289.254)" fill="#ffb6b6"/>
    <path id="Tracé_1461" data-name="Tracé 1461" d="M432.863,691.13h-9.982V691a3.885,3.885,0,0,1,3.885-3.885h0l1.823-1.383,3.4,1.383h.871Z" transform="translate(-333.535 -505.447)" fill="#2f2e41"/>
    <path id="Tracé_1462" data-name="Tracé 1462" d="M382.635,471.55h3.246l1.544-12.52h-4.791Z" transform="translate(-264.825 -289.254)" fill="#ffb6b6"/>
    <path id="Tracé_1463" data-name="Tracé 1463" d="M514.251,691.13h9.982V691a3.885,3.885,0,0,0-3.885-3.885h0l-1.823-1.383-3.4,1.383h-.871Z" transform="translate(-396.845 -505.447)" fill="#2f2e41"/>
    <path id="Tracé_1464" data-name="Tracé 1464" d="M436.649,557.034c.048-.714.429-4.665.429-4.665l.913-8.379,1.609-22.211,1.434-5.838,7.1,2.766,5.761-2.762,6.847,2.189,5.332,2s.009.856.05,1.89a14.151,14.151,0,0,0,.379,3.444c.381.762.285,4.855.285,4.855s.379,8.326.856,9.239a6.342,6.342,0,0,1,.429,3.2c-.144.381.477,10.381.477,10.381s1.593,17.7.594,20.364-4.777.92-4.777.92.183-.712-.913-1.048-4.433-25.427-4.433-25.427a48.748,48.748,0,0,0-1.191-6.619,37.721,37.721,0,0,1-1.1-5.617s-3.524-6.857-3.57-8.381c0,0-.461-1.427-.9.144s-1.721,5.332-1.721,5.332l-1.253,4.62-1.474,6.9-.954,5.811s-1.429,7.712-1.657,8.046,0,7.379,0,7.379-1.1,6-2.666,7.048-5.7.017-5.7.017S436.6,557.748,436.649,557.034Z" transform="translate(-344.245 -396.458)" fill="#2f2e41"/>
    <path id="Tracé_1465" data-name="Tracé 1465" d="M443.369,428.767l-.907,11.753L441.1,441.93a1.314,1.314,0,0,0,.069,1.893h0l-.751,1.288-.266,4.057a2.205,2.205,0,0,0,2.041,2.718l23.5,1.1a2.205,2.205,0,0,0,2.29-2.493l-2-15.046v-1.125l-.895-2.173.46-7.278,1.07-11.552-6.218-1.606-3.371-2.319-5.857.093-3.554,2.919-4.738.742-3.583.712-.456.992.913-.2,3.309,12.907Z" transform="translate(-345.576 -330.48)" fill="#96993e"/>
    <circle id="Ellipse_69" data-name="Ellipse 69" cx="6.899" cy="6.899" r="6.899" transform="translate(101.106 62.516)" fill="#ffb6b6"/>
    <path id="Tracé_1466" data-name="Tracé 1466" d="M462.334,377.167l4.985-.254a2.056,2.056,0,0,0,2.365-1.467c.461-1.07.922-2.141,1.371-3.216a9.853,9.853,0,0,0,1.073-4.662,2.967,2.967,0,0,0-.862-1.945,1.647,1.647,0,0,0-2-.2,3.385,3.385,0,0,0-1.68-2.44,5.187,5.187,0,0,0-2.959-.627,7.141,7.141,0,0,0-4.067,1.6,8.829,8.829,0,0,1-1.038.822,1.629,1.629,0,0,1-1.266.234.916.916,0,0,1-.673-1,1.763,1.763,0,0,0-.451,2.328,1.627,1.627,0,0,1-1.59-.188,1.944,1.944,0,1,0,2.039,3.29,2.284,2.284,0,0,1,.15,1.519c-.039.519.1,1.164.6,1.308.677.194,1.225-.717,1.929-.707a1.058,1.058,0,0,1,.839.541,3.123,3.123,0,0,1,.336.981l.9,4.055" transform="translate(-355.816 -301.333)" fill="#2f2e41"/>
    <path id="Tracé_1467" data-name="Tracé 1467" d="M797.139,563.173c0-1.068-.359-1.935-.8-1.937H676.248c-.443,0-.8.869-.8,1.937v43.979a.4.4,0,0,1-.361.4q-.483.046-.967.086l-.024,0c-.175.016-.351.028-.526.042h0q-.135-.25-.268-.5a.4.4,0,0,1-.045-.185V560.66c0-.3.012-.592.032-.885a11.329,11.329,0,0,1,.15-1.2c.337-1.852,1.1-3.105,1.963-3.109H797.186a.933.933,0,0,1,.367.078,1.428,1.428,0,0,1,.453.317,2.8,2.8,0,0,1,.444.608,8,8,0,0,1,.839,3.175c0,.012,0,.024,0,.036.028.323.042.652.04.981l.028,4.272.018,2.547.054,7.993.02,2.838.088,29.141h0a.4.4,0,0,1-.4.4h-1.6a.4.4,0,0,1-.4-.4Z" transform="translate(-525.743 -421.828)" fill="#e6e6e6"/>
    <path id="Tracé_1468" data-name="Tracé 1468" d="M903.638,499.652H890.7a.691.691,0,0,0-.689.691v20.441h14.321V500.343a.691.691,0,0,0-.691-.691Zm-6.426,11.615a1.535,1.535,0,0,1-1.528-1.528v-2.358a1.528,1.528,0,0,1,3.056,0v2.358A1.535,1.535,0,0,1,897.211,511.267Z" transform="translate(-662.954 -387.742)" fill="#ccc"/>
    <path id="Tracé_1469" data-name="Tracé 1469" d="M889.884,556.837v1.972a.386.386,0,0,0,.386.386h13.638a.388.388,0,0,0,.386-.386v-1.972Z" transform="translate(-662.875 -424.214)" fill="#3f3d56"/>
    <path id="Tracé_1470" data-name="Tracé 1470" d="M885.544,410.571H830.23a1.8,1.8,0,0,0-1.793,1.793v37.326a1.794,1.794,0,0,0,1.793,1.793h55.313a1.794,1.794,0,0,0,1.793-1.793V412.363a1.8,1.8,0,0,0-1.793-1.793Z" transform="translate(-625.353 -331.274)" fill="#e6e6e6"/>
    <path id="Tracé_1471" data-name="Tracé 1471" d="M887.405,414.186h-54.39a.961.961,0,0,0-.959.961v36.4a.96.96,0,0,0,.959.959h54.39a.96.96,0,0,0,.959-.959v-36.4a.961.961,0,0,0-.959-.961Z" transform="translate(-627.677 -333.6)" fill="#fff"/>
    <path id="Tracé_1472" data-name="Tracé 1472" d="M897.962,558.929H865.6a.6.6,0,0,1-.582-.718l.5-2.385a.6.6,0,0,1,.582-.473H897.46a.6.6,0,0,1,.582.473l.5,2.385a.6.6,0,0,1-.582.718Z" transform="translate(-648.827 -423.252)" fill="#ccc"/>
    <rect id="Rectangle_2921" data-name="Rectangle 2921" width="0.997" height="0.598" rx="0.299" transform="translate(227.267 132.48)" fill="#e6e6e6"/>
    <rect id="Rectangle_2922" data-name="Rectangle 2922" width="0.997" height="0.598" rx="0.299" transform="translate(228.984 132.48)" fill="#e6e6e6"/>
    <rect id="Rectangle_2923" data-name="Rectangle 2923" width="0.997" height="0.598" rx="0.299" transform="translate(230.701 132.48)" fill="#e6e6e6"/>
    <rect id="Rectangle_2924" data-name="Rectangle 2924" width="0.997" height="0.598" rx="0.299" transform="translate(225.879 132.48)" fill="#e6e6e6"/>
    <rect id="Rectangle_2925" data-name="Rectangle 2925" width="0.997" height="0.598" rx="0.299" transform="translate(227.798 132.48)" fill="#e6e6e6"/>
    <rect id="Rectangle_2926" data-name="Rectangle 2926" width="0.997" height="0.598" rx="0.299" transform="translate(229.717 132.48)" fill="#e6e6e6"/>
    <rect id="Rectangle_2927" data-name="Rectangle 2927" width="0.997" height="0.598" rx="0.299" transform="translate(229.467 132.48)" fill="#e6e6e6"/>
    <rect id="Rectangle_2928" data-name="Rectangle 2928" width="0.997" height="0.598" rx="0.299" transform="translate(231.46 132.48)" fill="#e6e6e6"/>
    <rect id="Rectangle_2929" data-name="Rectangle 2929" width="0.997" height="0.598" rx="0.299" transform="translate(233.453 132.48)" fill="#e6e6e6"/>
    <rect id="Rectangle_2930" data-name="Rectangle 2930" width="0.997" height="0.598" rx="0.299" transform="translate(235.447 132.48)" fill="#e6e6e6"/>
    <rect id="Rectangle_2931" data-name="Rectangle 2931" width="0.997" height="0.598" rx="0.299" transform="translate(237.44 132.48)" fill="#e6e6e6"/>
    <rect id="Rectangle_2932" data-name="Rectangle 2932" width="0.997" height="0.598" rx="0.299" transform="translate(239.433 132.48)" fill="#e6e6e6"/>
    <rect id="Rectangle_2933" data-name="Rectangle 2933" width="0.997" height="0.598" rx="0.299" transform="translate(241.426 132.48)" fill="#e6e6e6"/>
    <rect id="Rectangle_2934" data-name="Rectangle 2934" width="0.997" height="0.598" rx="0.299" transform="translate(243.419 132.48)" fill="#e6e6e6"/>
    <rect id="Rectangle_2935" data-name="Rectangle 2935" width="0.997" height="0.598" rx="0.299" transform="translate(245.413 132.48)" fill="#e6e6e6"/>
    <rect id="Rectangle_2936" data-name="Rectangle 2936" width="0.997" height="0.598" rx="0.299" transform="translate(247.406 132.48)" fill="#e6e6e6"/>
    <rect id="Rectangle_2937" data-name="Rectangle 2937" width="0.997" height="0.598" rx="0.299" transform="translate(227.247 133.507)" fill="#e6e6e6"/>
    <rect id="Rectangle_2938" data-name="Rectangle 2938" width="0.997" height="0.598" rx="0.299" transform="translate(228.964 133.507)" fill="#e6e6e6"/>
    <rect id="Rectangle_2939" data-name="Rectangle 2939" width="0.997" height="0.598" rx="0.299" transform="translate(230.681 133.507)" fill="#e6e6e6"/>
    <rect id="Rectangle_2940" data-name="Rectangle 2940" width="0.997" height="0.598" rx="0.299" transform="translate(225.856 133.507)" fill="#e6e6e6"/>
    <rect id="Rectangle_2941" data-name="Rectangle 2941" width="0.997" height="0.598" rx="0.299" transform="translate(227.775 133.507)" fill="#e6e6e6"/>
    <rect id="Rectangle_2942" data-name="Rectangle 2942" width="0.997" height="0.598" rx="0.299" transform="translate(229.695 133.507)" fill="#e6e6e6"/>
    <rect id="Rectangle_2943" data-name="Rectangle 2943" width="0.997" height="0.598" rx="0.299" transform="translate(229.443 133.507)" fill="#e6e6e6"/>
    <rect id="Rectangle_2944" data-name="Rectangle 2944" width="0.997" height="0.598" rx="0.299" transform="translate(231.436 133.507)" fill="#e6e6e6"/>
    <rect id="Rectangle_2945" data-name="Rectangle 2945" width="0.997" height="0.598" rx="0.299" transform="translate(233.43 133.507)" fill="#e6e6e6"/>
    <rect id="Rectangle_2946" data-name="Rectangle 2946" width="0.997" height="0.598" rx="0.299" transform="translate(235.423 133.507)" fill="#e6e6e6"/>
    <rect id="Rectangle_2947" data-name="Rectangle 2947" width="0.997" height="0.598" rx="0.299" transform="translate(237.416 133.507)" fill="#e6e6e6"/>
    <rect id="Rectangle_2948" data-name="Rectangle 2948" width="0.997" height="0.598" rx="0.299" transform="translate(239.409 133.507)" fill="#e6e6e6"/>
    <rect id="Rectangle_2949" data-name="Rectangle 2949" width="0.997" height="0.598" rx="0.299" transform="translate(241.403 133.507)" fill="#e6e6e6"/>
    <rect id="Rectangle_2950" data-name="Rectangle 2950" width="0.997" height="0.598" rx="0.299" transform="translate(243.396 133.507)" fill="#e6e6e6"/>
    <rect id="Rectangle_2951" data-name="Rectangle 2951" width="0.997" height="0.598" rx="0.299" transform="translate(245.389 133.507)" fill="#e6e6e6"/>
    <rect id="Rectangle_2952" data-name="Rectangle 2952" width="0.997" height="0.598" rx="0.299" transform="translate(247.382 133.507)" fill="#e6e6e6"/>
    <rect id="Rectangle_2953" data-name="Rectangle 2953" width="7.973" height="0.598" rx="0.299" transform="translate(229.1 134.738)" fill="#e6e6e6"/>
    <path id="Tracé_1473" data-name="Tracé 1473" d="M887.395,427.465H836.5a.2.2,0,1,1,0-.4h50.892a.2.2,0,1,1,0,.4Z" transform="translate(-630.4 -342.342)" fill="#cacaca"/>
    <ellipse id="Ellipse_70" data-name="Ellipse 70" cx="1.186" cy="1.212" rx="1.186" ry="1.212" transform="translate(219.26 81.183)" fill="#ccc"/>
    <ellipse id="Ellipse_71" data-name="Ellipse 71" cx="1.186" cy="1.212" rx="1.186" ry="1.212" transform="translate(222.787 81.183)" fill="#ccc"/>
    <ellipse id="Ellipse_72" data-name="Ellipse 72" cx="1.186" cy="1.212" rx="1.186" ry="1.212" transform="translate(226.314 81.183)" fill="#ccc"/>
    <path id="Tracé_1474" data-name="Tracé 1474" d="M966.477,418.243h-2.911a.22.22,0,1,0,0,.441h2.911a.22.22,0,0,0,0-.441Z" transform="translate(-711.95 -336.776)" fill="#ccc"/>
    <path id="Tracé_1475" data-name="Tracé 1475" d="M966.477,420.553h-2.911a.22.22,0,1,0,0,.441h2.911a.22.22,0,0,0,0-.441Z" transform="translate(-711.95 -338.234)" fill="#ccc"/>
    <path id="Tracé_1476" data-name="Tracé 1476" d="M966.477,422.86h-2.911a.22.22,0,1,0,0,.441h2.911a.22.22,0,0,0,0-.441Z" transform="translate(-711.95 -339.69)" fill="#ccc"/>
    <rect id="Rectangle_2954" data-name="Rectangle 2954" width="8.089" height="1.73" rx="0.865" transform="translate(230.425 96.511)" fill="#6c63ff"/>
    <rect id="Rectangle_2955" data-name="Rectangle 2955" width="16.305" height="1.73" rx="0.865" transform="translate(226.214 100.075)" fill="#e6e6e6"/>
    <rect id="Rectangle_2956" data-name="Rectangle 2956" width="16.305" height="1.73" rx="0.865" transform="translate(226.214 103.638)" fill="#e6e6e6"/>
    <path id="Tracé_1477" data-name="Tracé 1477" d="M519.471,406.97l-2.932-1.4,4.027-12.254,4.327,2.069Z" transform="translate(-357.785 -251.426)" fill="#ffb6b6"/>
    <path id="Tracé_1478" data-name="Tracé 1478" d="M698.088,602.552c-.213.133-.426.265-.642.4-.429.263-.861.521-1.294.775-.218.127-.437.254-.655.379v.006l-.013,0,0,0-.332.082-.476-1.258-.22-.579-.31-.82-.568-1.5-2.993-7.9,4.653-1.148.174.713h0l.086.353,1.626,6.594.332,1.348.011.041.2.805.172.7.192.78Z" transform="translate(-518.812 -449.024)" fill="#ffb6b6"/>
    <path id="Tracé_1479" data-name="Tracé 1479" d="M719.641,520.449c-.295.474-.6.945-.9,1.413q-.846,1.3-1.738,2.571s0,0,0,0a6.081,6.081,0,0,1-1.141.833c-.017.013-.037.021-.054.032a4.2,4.2,0,0,1-.96.385l-.364.09c-.435.1-.866.192-1.294.269-.762.136-1.516.233-2.265.293-.06.006-.121.011-.181.015a35.035,35.035,0,0,1-9.212-.734c-1.546-.293-3.125-.644-4.759-1.008-.534-.121-1.07-.239-1.613-.357l-.127-.028c-.775-.17-1.563-.338-2.371-.5-1.016-.209-2.065-.411-3.155-.6l.078,1.535a11.557,11.557,0,0,0,.728,3.452,5.958,5.958,0,0,1,.056,4.679l-.375,1.085a3.707,3.707,0,0,1-.381,3.28l-.075.114,3.125,7.9.2.513h-1.6l-1.968,0h-3.336l-4.813-9.656-.23-.461v-.024l.5-18.555c.006-.164.019-.329.041-.493a5.642,5.642,0,0,1,2.147-3.8,5.433,5.433,0,0,1,4.046-1.107l1.647.213,3.366.435,2.371.308.047.006,6.992.9.5-2.046.093-.034,2.944-1.079,10.181-3.732.026-.009.67-.245.08.129c.024.039.047.078.069.116a19.958,19.958,0,0,1,1.609,3.734,58.613,58.613,0,0,1,1.69,6.454q.029.142.052.258l.006.024c.006.037.011.06.013.067a6.023,6.023,0,0,1-.359,3.353Z" transform="translate(-515.091 -391.457)" fill="#2f2e41"/>
    <path id="Tracé_1480" data-name="Tracé 1480" d="M703.472,508.4c-.032-.138-.073-.278-.116-.413a29.478,29.478,0,0,0-1.193-3.019c-.508-1.12-1.118-2.319-1.843-3.618q-.526-.943-1.133-1.962-.3-.51-.631-1.04a.547.547,0,0,0-.028-.047l-.062-.1-10.073,1.348-3.751.5-.224,1.869-.054.463s0,0,0,0l-.151,1.262v0l-.2,1.667-.017,0-5.566-.721-5.737-.743-3.081-.4a5.429,5.429,0,0,0-4.046,1.107,5.644,5.644,0,0,0-2.147,3.8c-.019.151-.032.306-.039.459l-2.907,6.889a44.446,44.446,0,0,0-3.286,12.929l-2.132,6.815.3.028,4.518.42,1.193.112,2.627-3.835c.3-.437.584-.887.848-1.348a20.467,20.467,0,0,0,1.161-2.334l5.683-13.523q.659.113,1.3.215,2.988.484,5.737.79a67.6,67.6,0,0,0,15.711.153q1.935-.236,3.74-.62.662-.139,1.307-.3c.1-.024.2-.047.3-.073a5.5,5.5,0,0,0,3.844-3.592,5.606,5.606,0,0,0,.142-3.137Z" transform="translate(-498.003 -386.404)" fill="#2f2e41"/>
    <path id="Tracé_1481" data-name="Tracé 1481" d="M639.478,620.058l-3.172-1.52-.5-.239-.795,1.951-5.547,1.221a1.316,1.316,0,0,0-.215,2.5l5.42,2.211,1.721-1.548-.422,2.078,2.041.833,2.237-7.121Z" transform="translate(-476.107 -462.16)" fill="#2f2e41"/>
    <path id="Tracé_1482" data-name="Tracé 1482" d="M581.774,417.469l.2.512h-.2Z" transform="translate(-402.251 -262.576)" fill="#2f2e41"/>
    <path id="Tracé_1483" data-name="Tracé 1483" d="M699.276,616.057l-3.324,1.152-.522.18.808,1.945-3.083,4.771a1.316,1.316,0,0,0,1.609,1.931l5.407-2.242.133-2.311,1.162,1.773,2.037-.844-3.421-6.634Z" transform="translate(-520.716 -460.542)" fill="#2f2e41"/>
    <path id="Tracé_1484" data-name="Tracé 1484" d="M653.812,411.38a2.361,2.361,0,0,0,3.53.8l6.989,4.639.013-4.359-6.639-3.737a2.373,2.373,0,0,0-3.893,2.657Z" transform="translate(-493.43 -330.143)" fill="#ffb6b6"/>
    <path id="Tracé_1485" data-name="Tracé 1485" d="M668.874,416.578l3.261-3.71,13.277,7.882,17.6-1.612a5.951,5.951,0,0,1,6.469,6.475h0a5.958,5.958,0,0,1-6.475,5.377l-19.821-1.835Z" transform="translate(-506.836 -333.133)" fill="#ccc"/>
    <path id="Tracé_1486" data-name="Tracé 1486" d="M752.905,423.206l-.031-.038h0a12.859,12.859,0,0,0-12.445,6.448l-1.494,2.631c-4.831,5.906-1.321,9.98-1.11,10.585l-1.677,7.732.376,2.588.188.769,19.142,10c1.09-5.236.036-9.7-3.934-13.107l3.842-11.953A16.838,16.838,0,0,0,752.905,423.206Z" transform="translate(-551.624 -339.15)" fill="#ccc"/>
    <path id="Tracé_1487" data-name="Tracé 1487" d="M726.435,564.986h-6.14a1.4,1.4,0,0,1-1.388-1.206,31.22,31.22,0,0,1,0-8.408,1.4,1.4,0,0,1,1.364-1.206,7.682,7.682,0,0,1,6.185,0,1.387,1.387,0,0,1,1.055.509,1.419,1.419,0,0,1,.293,1.182,18.874,18.874,0,0,0,0,7.437,1.419,1.419,0,0,1-.293,1.182A1.386,1.386,0,0,1,726.435,564.986Z" transform="translate(-538.386 -421.912)" fill="#96993e"/>
    <path id="Tracé_1488" data-name="Tracé 1488" d="M728.8,563.124h-5.168a.323.323,0,0,1,0-.646H728.8a.323.323,0,0,1,0,.646Z" transform="translate(-541.322 -427.812)" fill="#fff"/>
    <path id="Tracé_1489" data-name="Tracé 1489" d="M728.8,570.34h-5.168a.323.323,0,0,1,0-.646H728.8a.323.323,0,0,1,0,.646Z" transform="translate(-541.322 -432.366)" fill="#fff"/>
    <path id="Tracé_1490" data-name="Tracé 1490" d="M728.8,577.556h-5.168a.323.323,0,0,1,0-.646H728.8a.323.323,0,0,1,0,.646Z" transform="translate(-541.322 -436.921)" fill="#fff"/>
    <path id="Tracé_1491" data-name="Tracé 1491" d="M643.435,402.986h-6.14a1.4,1.4,0,0,1-1.388-1.206,31.22,31.22,0,0,1,0-8.408,1.4,1.4,0,0,1,1.364-1.206,7.682,7.682,0,0,1,6.185,0,1.387,1.387,0,0,1,1.055.509,1.419,1.419,0,0,1,.293,1.182,18.874,18.874,0,0,0,0,7.437,1.419,1.419,0,0,1-.293,1.182A1.386,1.386,0,0,1,643.435,402.986Z" transform="translate(-480.884 -319.772)" fill="#96993e"/>
    <path id="Tracé_1492" data-name="Tracé 1492" d="M645.8,401.124h-5.168a.323.323,0,0,1,0-.646H645.8a.323.323,0,0,1,0,.646Z" transform="translate(-483.864 -325.561)" fill="#fff"/>
    <path id="Tracé_1493" data-name="Tracé 1493" d="M645.8,408.34h-5.168a.323.323,0,0,1,0-.646H645.8a.323.323,0,0,1,0,.646Z" transform="translate(-483.864 -330.115)" fill="#fff"/>
    <path id="Tracé_1494" data-name="Tracé 1494" d="M645.8,415.556h-5.168a.323.323,0,0,1,0-.646H645.8a.323.323,0,0,1,0,.646Z" transform="translate(-483.864 -334.67)" fill="#fff"/>
    <path id="Tracé_1495" data-name="Tracé 1495" d="M342.435,446.986h-6.14a1.4,1.4,0,0,1-1.388-1.206,31.22,31.22,0,0,1,0-8.408,1.4,1.4,0,0,1,1.364-1.206,7.682,7.682,0,0,1,6.185,0,1.386,1.386,0,0,1,1.055.509,1.418,1.418,0,0,1,.293,1.182,18.876,18.876,0,0,0,0,7.437,1.418,1.418,0,0,1-.293,1.182,1.386,1.386,0,0,1-1.076.509Z" transform="translate(-272.355 -347.514)" fill="#96993e"/>
    <path id="Tracé_1496" data-name="Tracé 1496" d="M344.8,445.124h-5.168a.323.323,0,0,1,0-.646H344.8a.323.323,0,1,1,0,.646Z" transform="translate(-275.492 -353.333)" fill="#fff"/>
    <path id="Tracé_1497" data-name="Tracé 1497" d="M344.8,452.34h-5.168a.323.323,0,1,1,0-.646H344.8a.323.323,0,1,1,0,.646Z" transform="translate(-275.492 -357.887)" fill="#fff"/>
    <path id="Tracé_1498" data-name="Tracé 1498" d="M344.8,459.556h-5.168a.323.323,0,0,1,0-.646H344.8a.323.323,0,1,1,0,.646Z" transform="translate(-275.492 -362.442)" fill="#fff"/>
    <path id="Tracé_1499" data-name="Tracé 1499" d="M739.02,544.227a2.36,2.36,0,0,0,.589-3.571l4.217-7.252-4.352.245-3.337,6.849a2.373,2.373,0,0,0,2.883,3.729Z" transform="translate(-549.952 -409.238)" fill="#ffb6b6"/>
    <path id="Tracé_1500" data-name="Tracé 1500" d="M743.229,475.117l-3.9-3.035,7.08-13.721-2.653-17.473a5.951,5.951,0,0,1,6.08-6.841h0a5.958,5.958,0,0,1,5.752,6.144l-.656,19.9Z" transform="translate(-553.417 -346.014)" fill="#ccc"/>
    <path id="Tracé_1501" data-name="Tracé 1501" d="M216.97,498.017a2.38,2.38,0,0,0-.331-3.635l3.79-18.822-4.185,1.344L213.21,495.11a2.393,2.393,0,0,0,3.76,2.907Z" transform="translate(-183.886 -372.526)" fill="#9e616a"/>
    <path id="Tracé_1502" data-name="Tracé 1502" d="M221.116,423.552l-2.6-1.96s-2.291-.162-2.7,3.968-1.239,12.181-1.239,12.181l-3.973,18.4,5.5,1.207,4.256-19.859,2.553-5.9Z" transform="translate(-182.436 -338.306)" fill="#ccc"/>
    <path id="Tracé_1503" data-name="Tracé 1503" d="M96.057,295.265l14.631-.244,1.219-10H96.057Z" transform="translate(-61.658 -179.729)" fill="#9e616a"/>
    <path id="Tracé_1504" data-name="Tracé 1504" d="M132.827,462.074H136.2l1.607-13.028h-4.985Z" transform="translate(-85.26 -282.845)" fill="#9e616a"/>
    <path id="Tracé_1505" data-name="Tracé 1505" d="M73.738,462.886l3.378-.024,1.516-13.039-4.393,1.008Z" transform="translate(-47.332 -283.344)" fill="#9e616a"/>
    <path id="Tracé_1506" data-name="Tracé 1506" d="M101.866,258.236l-.765,1.99.153,1.99,14.979,5.188-.743-8.709-1.684-1.99Z" transform="translate(-64.896 -161.864)" fill="#ffb6b6"/>
    <circle id="Ellipse_73" data-name="Ellipse 73" cx="5.35" cy="5.35" r="5.35" transform="translate(38.047 66.907)" fill="#9e616a"/>
    <path id="Tracé_1507" data-name="Tracé 1507" d="M261.216,677.555l5.34-.319v2.288l5.076,3.506a1.429,1.429,0,0,1-.812,2.6h-6.357l-1.1-2.263-.428,2.263h-2.4Z" transform="translate(-214.487 -499.992)" fill="#2f2e41"/>
    <path id="Tracé_1508" data-name="Tracé 1508" d="M201.34,678.384l5.337-.356.016,2.288,5.1,3.47A1.429,1.429,0,0,1,211,686.4l-6.357.044-1.112-2.255-.412,2.266-2.4.017Z" transform="translate(-176.089 -500.5)" fill="#2f2e41"/>
    <path id="Tracé_1509" data-name="Tracé 1509" d="M201.358,554.082l2.46-19.66,2.926-20.728c-2.143-3.98,2.682-16.338,2.682-16.338l.681.033,15.417,2.908,0-.015c3.153,8.6,4.2,12.849,4.025,22.008l-.621,32.923h.195a1.219,1.219,0,0,1,0,2.439h-6.1a1.219,1.219,0,1,1,0-2.439h.157l-5.6-39.2-4.744,16.46-5.365,21.459c1.951-.488,1.648.642,1.648,1.282a1.219,1.219,0,0,1-1.219,1.219h-6.1a1.218,1.218,0,0,1-.45-2.351Z" transform="translate(-176.002 -384.529)" fill="#2f2e41"/>
    <path id="Tracé_1510" data-name="Tracé 1510" d="M221.909,445.636l.488-4.877a.972.972,0,0,1,.879-.73c.2-2.323,1.058-12.346,1.109-12.783l0-.018.389-8.305a1.228,1.228,0,0,1,1.147-1.168l2.053-.134a.109.109,0,0,0,.105-.109,1.727,1.727,0,0,1,1.727-1.727h6.08a1.617,1.617,0,0,1,1.6,1.415.107.107,0,0,0,.109.1h0a2.888,2.888,0,0,1,2.906,2.4c.831,4.836,2.5,15.812,1.673,21.913-.287,2.124.331.442.44,2.219a1.308,1.308,0,0,1-.326.948.943.943,0,0,1,.568,1.2l.107-.026a.975.975,0,0,1-1.184.707l-15.906,2.155C225.356,448.676,221.777,446.159,221.909,445.636Z" transform="translate(-189.686 -334.71)" fill="#ccc"/>
    <path id="Tracé_1511" data-name="Tracé 1511" d="M322.107,438.227a2.38,2.38,0,0,1-3.352,1.444l-6.149,5.612-.816-4.319,5.968-4.653a2.393,2.393,0,0,1,4.349,1.916Z" transform="translate(-256.57 -347.293)" fill="#9e616a"/>
    <path id="Tracé_1512" data-name="Tracé 1512" d="M269.144,424.608s-2.144-4.845-4.852-3.882-1.31,5.665-1.31,5.665l10.174,15.331s14.675-9.414,12.891-9.48-2.318-3.312-2.318-3.312l-7.756,3.875-.262-1.38-.421.421-1.085-.854Z" transform="translate(-217.7 -337.954)" fill="#ccc"/>
    <circle id="Ellipse_74" data-name="Ellipse 74" cx="7.469" cy="7.469" r="7.469" transform="translate(189.24 65.764)" fill="#ffb6b6"/>
    <path id="Tracé_1513" data-name="Tracé 1513" d="M778.7,388.178a6.477,6.477,0,0,1-3.561,2.507,7.444,7.444,0,0,1-1.773.3,6.7,6.7,0,0,0-.527-1.969,5.534,5.534,0,0,1-.273,1.965,6.585,6.585,0,0,1-2.591-.694,5.71,5.71,0,0,1-3.055-4.1c-.316-2.043.61-4.049.945-6.089s-.295-4.623-2.292-5.16c-1.521-.409-1.35-.232-2.614.707,1.315,1.944-3.542,9.07-5.53,8.448-1.124-.351-1.843-1.382-2.075-1.382-1.562,2.691,1.379,7.226-1.585,8.167l.244-.244c1.789-2.2-1.951-6.86-.161-9.061a2.8,2.8,0,0,0,.883-2.124c-.14-.74-1.315-1.132-1.659-.524a2.8,2.8,0,0,0-1.808-3.674c-1.344-.324-1.319.075-2.668.249a6.691,6.691,0,0,0-.49-1.691,5.488,5.488,0,0,1-.2,1.723,2.164,2.164,0,0,1-1.309-.473c-1.1-.886-.877-2.748.1-3.763a6.754,6.754,0,0,1,3.837-1.617c.4-2.82,8.186-3.115,9.218-.3.439-2.1,3.074-3.2,5.121-2.544a7.228,7.228,0,0,1,4.216,4.58,46.289,46.289,0,0,1,1.418,6.279,10.384,10.384,0,0,0,2.843,5.665c1.6,1.428,4.216,1.9,5.906.574a4.73,4.73,0,0,1-.564,4.239Z" transform="translate(-559.797 -303.936)" fill="#2f2e41"/>
    <path id="Tracé_1514" data-name="Tracé 1514" d="M1007.988,469.767l-1.046,5.246c-.079.4-.161.809-.251,1.214a5.116,5.116,0,0,0-2.629.147,24.541,24.541,0,0,1,1.8,3.019,11.11,11.11,0,0,1-3.245,5.264,8.136,8.136,0,0,1-7.86,1.382l.047-.208c-1.74-3.377-.795-7.635,1.368-10.754a20.906,20.906,0,0,1,3.885-4.107c1.461-1.218,3.04-2.31,4.605-3.388a2.145,2.145,0,0,1,3.32,2.184Z" transform="translate(-731.565 -367.344)" fill="#e4e4e4"/>
    <path id="a4b268fa-75d0-4ac1-9d87-14bdca948464-2189-2" data-name="a4b268fa-75d0-4ac1-9d87-14bdca948464-2189" d="M996.11,517.716a42.08,42.08,0,0,1-.584-9.694,15.246,15.246,0,0,1,2.94-7.993,13.3,13.3,0,0,1,3.412-3.092c.341-.215.655.326.315.54a12.641,12.641,0,0,0-5,6.033,20.239,20.239,0,0,0-1.074,8.729c.114,1.779.354,3.545.6,5.311a.322.322,0,0,1-.218.385.314.314,0,0,1-.385-.218Z" transform="translate(-732.541 -386.003)" fill="#f2f2f2"/>
    <path id="Tracé_1515" data-name="Tracé 1515" d="M420.465,700.812l-288.163.11a.431.431,0,0,1,0-.853l288.163-.11a.431.431,0,0,1,0,.853Z" transform="translate(-131.934 -514.577)" fill="#cacaca"/>
    <path id="Tracé_1516" data-name="Tracé 1516" d="M193.655,372.334c-.82.394-1.739-.2-2.447-.786l.253.219a8.332,8.332,0,0,0-2.123,4.7c-.286,1.723-.318,3.486-.679,5.2a7.365,7.365,0,0,1-2.507,4.473c-1.873,1.4-4.455,1.312-6.753.882l-.09-.017a14.03,14.03,0,0,0,.739-5.562,12.756,12.756,0,0,1-3.062,5.019,29.282,29.282,0,0,1-4.447-1.62,3.538,3.538,0,0,1-2.188-2A2.668,2.668,0,0,1,171.5,380.2a14.7,14.7,0,0,1,2.7-1.386,4.091,4.091,0,0,0,2.182-2.014c.843-2.179-1.559-4.679-.623-6.821a4.59,4.59,0,0,1,2.655-2.068,38.974,38.974,0,0,1,4.987-1.682,10.9,10.9,0,0,1,4.566-.441,4.536,4.536,0,0,1,3.553,2.624,4.918,4.918,0,0,1,2.466,1.423A1.7,1.7,0,0,1,193.655,372.334Z" transform="translate(-156.555 -303.367)" fill="#2f2e41"/>
    <path id="Tracé_1517" data-name="Tracé 1517" d="M238.449,374.826c-2.347-1.853-4.245-1.537-5.709-.385-.246-.274-1.294.479-1.648.371l-1.283,2.408a5.348,5.348,0,0,0-.824,3.023c-1.214,3.4,1.665,5.7,5.07,6.918a6.5,6.5,0,0,0,4.213.061l.042-.58.258.475s3.113,6.409,3.848,6.7c-.446-1.158-1.623-6.66-1.952-7.807a14.532,14.532,0,0,1,.122-5.56,8.615,8.615,0,0,0,.026-2.835l-.007-.041.728,1.47,1.634-1.027C242.343,376.195,242.331,374.019,238.449,374.826Z" transform="translate(-194.049 -308.306)" fill="#2f2e41"/>
  </g>
</svg>
