<svg id="Groupe_865" data-name="Groupe 865" xmlns="http://www.w3.org/2000/svg" width="250" height="169.068" viewBox="0 0 250 169.068">
  <path id="Tracé_1229" data-name="Tracé 1229" d="M180.489,515.93c-1.188,0-2.379.046-3.541.138l-.169.013c-7.712.637-13.353,4.332-13.121,8.6l.045.771c.03.487.061,1.011.087,1.593.014.287.433.507.954.507H354.434c13.374-.076,26.7-.171,39.6-.284a72.114,72.114,0,0,0,7.246-.351c3.586-.4,6.075-1.183,7.61-2.4h0c1.909-1.513,1.969-3.419,1.854-5.573-.235-4.348-.468-8.916-.7-13.469-.206-4.013-.41-8.016-.615-11.848-.127-2.274-.408-4.282-2.575-5.816-2.349-1.659-6.634-2.5-12.736-2.5H393.9c-19.122.064-38.069,6.206-47.146,15.286-1.045,1.046-2.019,2.165-2.961,3.248a45.188,45.188,0,0,1-4.548,4.731,21.25,21.25,0,0,1-3,2.188c-.074.048-.158.1-.247.147-.2.124-.417.244-.625.351a22.492,22.492,0,0,1-3.832,1.628l-.134.042c-.1.034-.211.068-.32.1-.768.23-1.567.43-2.366.591a40.74,40.74,0,0,1-11.694.507,60.008,60.008,0,0,1-11.628-2.214c-3.981-1.176-7.708-2.641-11.311-4.058-1.583-.623-3.22-1.267-4.855-1.877-.307-.115-.61-.227-.917-.339-2-.727-3.808-1.328-5.535-1.836a58.078,58.078,0,0,0-13.19-2.283,34.655,34.655,0,0,0-12.453,1.361,22.2,22.2,0,0,0-2.817,1.134c-4.154,2.015-6.714,4.989-9.19,7.866-3.08,3.578-6.265,7.277-12.555,9.2-7.257,2.215-17.85,1.295-25.345-.306-2.356-.5-4.71-1.082-6.986-1.642q-1.379-.339-2.76-.674c-1.809-.436-3.289-.771-4.659-1.053l-.433-.09c-.241-.049-.482-.1-.728-.144-1.627-.319-3.142-.57-4.634-.768l-.353-.048c-.708-.087-1.369-.16-2.018-.22l-.259-.024C183.123,515.986,181.807,515.93,180.489,515.93Z" transform="translate(-163.651 -388.413)" fill="#f2f2f2"/>
  <path id="Tracé_1230" data-name="Tracé 1230" d="M879.605,602.97c4.987-4.494,12.4-6.753,18.626-4.234a30.929,30.929,0,0,0-13.9,16.054c-.99,2.635-1.818,5.67-4.254,7.08a6.914,6.914,0,0,1-5.1.5,20.534,20.534,0,0,1-4.794-2.115l-.437-.01C871.708,613.824,874.618,607.463,879.605,602.97Z" transform="translate(-664.371 -468.102)" fill="#e6e6e6"/>
  <path id="Tracé_1231" data-name="Tracé 1231" d="M898.388,601.3a26.435,26.435,0,0,0-14.707,6.946,11.386,11.386,0,0,0-2.235,2.779,6.529,6.529,0,0,0-.755,3.352,13.514,13.514,0,0,1-.057,3.271,4,4,0,0,1-1.989,2.6,10.388,10.388,0,0,1-3.987,1.089,10.2,10.2,0,0,0-4.431,1.212c-.16.1-.311-.151-.152-.254,2.3-1.488,5.2-.947,7.671-1.94a4.048,4.048,0,0,0,2.532-2.506,10.486,10.486,0,0,0,.122-3.319,6.966,6.966,0,0,1,.616-3.305,10.525,10.525,0,0,1,2.12-2.855,25.646,25.646,0,0,1,6.518-4.666A26.9,26.9,0,0,1,898.385,601c.188-.024.19.272,0,.3Z" transform="translate(-664.563 -470.529)" fill="#fff"/>
  <path id="Tracé_1232" data-name="Tracé 1232" d="M923.645,609.078a3.966,3.966,0,0,1,.437-5.117c.136-.134.35.071.214.2a3.673,3.673,0,0,0-.4,4.761C924.01,609.081,923.755,609.232,923.645,609.078Z" transform="translate(-703.295 -475.006)" fill="#fff"/>
  <path id="Tracé_1233" data-name="Tracé 1233" d="M909.074,645.828a7.645,7.645,0,0,0,5.463-1.094c.16-.1.312.151.152.254A7.951,7.951,0,0,1,909,646.115C908.814,646.082,908.888,645.795,909.074,645.828Z" transform="translate(-693.033 -502.53)" fill="#fff"/>
  <path id="Tracé_1234" data-name="Tracé 1234" d="M952.909,607.144a2.245,2.245,0,0,0,1.679,1.311c.188.031.115.318-.072.287a2.516,2.516,0,0,1-1.861-1.446.153.153,0,0,1,.051-.2.149.149,0,0,1,.2.051Z" transform="translate(-725.059 -477.452)" fill="#fff"/>
  <path id="Tracé_1235" data-name="Tracé 1235" d="M904.111,660.879c-.118-.016-.236-.033-.356-.047a29.569,29.569,0,0,0-4.79-.243c-.124,0-.249.005-.373.011a31.168,31.168,0,0,0-11.183,2.574,30.277,30.277,0,0,0-4.062,2.158c-1.791,1.134-3.643,2.507-5.646,2.969a5.184,5.184,0,0,1-.633.113l-8.274-7.164c-.011-.026-.023-.05-.034-.075l-.343-.271.2-.141c.037-.027.076-.053.113-.081s.051-.036.072-.053l.024-.016c.022-.018.044-.031.064-.047q.563-.4,1.134-.792s0,0,.005,0a44.509,44.509,0,0,1,9.268-4.982c.1-.037.2-.076.3-.11a28.89,28.89,0,0,1,4.537-1.277,25.551,25.551,0,0,1,2.559-.357,21.231,21.231,0,0,1,6.622.469,16.861,16.861,0,0,1,10.622,7.08C904,660.689,904.053,660.782,904.111,660.879Z" transform="translate(-663.4 -508.574)" fill="#e6e6e6"/>
  <path id="Tracé_1236" data-name="Tracé 1236" d="M904.492,672.545a26.436,26.436,0,0,0-15.925-3.309,11.382,11.382,0,0,0-3.458.873,6.529,6.529,0,0,0-2.621,2.222,13.514,13.514,0,0,1-2.015,2.577,4,4,0,0,1-3.15.875,10.387,10.387,0,0,1-3.839-1.531,10.2,10.2,0,0,0-4.268-1.7c-.19-.014-.158-.308.032-.294,2.729.194,4.723,2.376,7.292,3.07a4.049,4.049,0,0,0,3.531-.477,10.487,10.487,0,0,0,2.1-2.577,6.967,6.967,0,0,1,2.482-2.268,10.525,10.525,0,0,1,3.412-1,25.648,25.648,0,0,1,8.013.2,26.905,26.905,0,0,1,8.594,3.106c.165.094-.012.331-.176.238Z" transform="translate(-663.891 -520.152)" fill="#fff"/>
  <path id="Tracé_1237" data-name="Tracé 1237" d="M948.408,658.924a3.966,3.966,0,0,1,3.43-3.822c.189-.025.237.267.048.292a3.673,3.673,0,0,0-3.183,3.562c0,.19-.3.157-.294-.032Z" transform="translate(-721.964 -510.137)" fill="#fff"/>
  <path id="Tracé_1238" data-name="Tracé 1238" d="M919.358,680.077a7.644,7.644,0,0,0,5.02,2.416c.19.014.158.308-.032.294a7.951,7.951,0,0,1-5.219-2.524C919,680.122,919.229,679.937,919.358,680.077Z" transform="translate(-700.498 -528.387)" fill="#fff"/>
  <path id="Tracé_1239" data-name="Tracé 1239" d="M979.328,673.137a2.245,2.245,0,0,0,.551,2.058c.131.138-.1.323-.23.186a2.516,2.516,0,0,1-.615-2.275.153.153,0,0,1,.163-.131A.149.149,0,0,1,979.328,673.137Z" transform="translate(-744.34 -523.223)" fill="#fff"/>
  <path id="Tracé_1240" data-name="Tracé 1240" d="M403.5,607.2c4.083-6.193,11.388-10.674,18.743-9.71a34.18,34.18,0,0,0-10.4,21.037c-.326,3.094-.367,6.569-2.58,8.756a7.64,7.64,0,0,1-5.318,1.951,22.688,22.688,0,0,1-5.716-.928l-.47.111C398.078,621,399.421,613.389,403.5,607.2Z" transform="translate(-330.189 -467.859)" fill="#e6e6e6"/>
  <path id="Tracé_1241" data-name="Tracé 1241" d="M422.242,597.528a29.214,29.214,0,0,0-13.8,11.52,12.579,12.579,0,0,0-1.618,3.595,7.215,7.215,0,0,0,.125,3.8,14.937,14.937,0,0,1,.848,3.514,4.418,4.418,0,0,1-1.405,3.329,11.479,11.479,0,0,1-3.962,2.274,11.272,11.272,0,0,0-4.4,2.529c-.142.155-.375-.074-.233-.229,2.042-2.23,5.3-2.459,7.664-4.208a4.475,4.475,0,0,0,2.011-3.385,11.587,11.587,0,0,0-.793-3.584,7.7,7.7,0,0,1-.261-3.707,11.63,11.63,0,0,1,1.473-3.643,28.342,28.342,0,0,1,5.673-6.8,29.732,29.732,0,0,1,8.59-5.311C422.351,597.134,422.435,597.45,422.242,597.528Z" transform="translate(-330.179 -467.745)" fill="#fff"/>
  <path id="Tracé_1242" data-name="Tracé 1242" d="M436.943,619.448a4.383,4.383,0,0,1-.956-5.595c.108-.181.394-.021.286.159a4.059,4.059,0,0,0,.9,5.2C437.334,619.349,437.1,619.581,436.943,619.448Z" transform="translate(-357.494 -482.004)" fill="#fff"/>
  <path id="Tracé_1243" data-name="Tracé 1243" d="M430.75,659.427a8.448,8.448,0,0,0,5.538-2.69c.143-.155.375.075.233.229a8.787,8.787,0,0,1-5.769,2.787C430.542,659.77,430.541,659.443,430.75,659.427Z" transform="translate(-353.993 -511.298)" fill="#fff"/>
  <path id="Tracé_1244" data-name="Tracé 1244" d="M466.014,610.095a2.481,2.481,0,0,0,2.161.935c.21-.019.211.308,0,.327a2.78,2.78,0,0,1-2.392-1.029.169.169,0,0,1,0-.231A.164.164,0,0,1,466.014,610.095Z" transform="translate(-379.137 -479.594)" fill="#fff"/>
  <path id="Tracé_1245" data-name="Tracé 1245" d="M434.709,663.917c-.131.015-.261.031-.393.049a32.673,32.673,0,0,0-5.191,1.072c-.132.036-.265.075-.4.115a34.447,34.447,0,0,0-11.245,5.864,33.455,33.455,0,0,0-3.744,3.438c-1.6,1.711-3.2,3.694-5.212,4.746a5.73,5.73,0,0,1-.645.3l-10.842-5.36c-.018-.025-.038-.047-.057-.071l-.443-.194c.055-.068.114-.137.169-.206.032-.04.066-.078.1-.118s.044-.052.063-.077l.021-.024c.018-.025.038-.046.055-.068q.492-.583.993-1.162s0,0,0,0a49.182,49.182,0,0,1,8.527-7.907c.095-.067.191-.137.29-.2a31.933,31.933,0,0,1,4.5-2.628,28.259,28.259,0,0,1,2.637-1.094,23.466,23.466,0,0,1,7.213-1.34,18.633,18.633,0,0,1,13.33,4.617C434.532,663.746,434.62,663.829,434.709,663.917Z" transform="translate(-328.98 -513.018)" fill="#e6e6e6"/>
  <path id="Tracé_1246" data-name="Tracé 1246" d="M435.074,674.1a29.214,29.214,0,0,0-17.952.891,12.583,12.583,0,0,0-3.456,1.9A7.216,7.216,0,0,0,411.481,680a14.935,14.935,0,0,1-1.438,3.316,4.418,4.418,0,0,1-3.126,1.812,11.481,11.481,0,0,1-4.532-.57,11.27,11.27,0,0,0-5.037-.631c-.207.038-.254-.285-.048-.323,2.973-.551,5.713,1.227,8.653,1.254a4.474,4.474,0,0,0,3.644-1.492,11.587,11.587,0,0,0,1.524-3.339,7.7,7.7,0,0,1,2.023-3.117,11.629,11.629,0,0,1,3.37-2.022,28.343,28.343,0,0,1,8.626-2.017,29.732,29.732,0,0,1,10.056.931c.2.055.079.358-.122.3Z" transform="translate(-329.424 -523.079)" fill="#fff"/>
  <path id="Tracé_1247" data-name="Tracé 1247" d="M478.1,664.212a4.383,4.383,0,0,1,2.605-5.042c.195-.079.327.22.132.3a4.059,4.059,0,0,0-2.414,4.7C478.476,664.369,478.153,664.416,478.1,664.212Z" transform="translate(-387.868 -513.107)" fill="#fff"/>
  <path id="Tracé_1248" data-name="Tracé 1248" d="M450.42,697.422a8.448,8.448,0,0,0,6.041,1.187c.207-.038.255.286.048.323a8.787,8.787,0,0,1-6.284-1.248C450.048,697.571,450.244,697.309,450.42,697.422Z" transform="translate(-367.929 -541.102)" fill="#fff"/>
  <path id="Tracé_1249" data-name="Tracé 1249" d="M512.81,673.277a2.481,2.481,0,0,0,1.162,2.047c.179.111-.017.373-.195.263a2.78,2.78,0,0,1-1.291-2.262.169.169,0,0,1,.138-.186A.164.164,0,0,1,512.81,673.277Z" transform="translate(-412.512 -523.343)" fill="#fff"/>
  <path id="Tracé_1250" data-name="Tracé 1250" d="M515.4,393.367a2.614,2.614,0,0,0-.343-3.994l4.268-20.654-4.6,1.452-3.433,19.981a2.629,2.629,0,0,0,4.113,3.214Z" transform="translate(-411.189 -306.707)" fill="#ffb6b6"/>
  <path id="Tracé_1251" data-name="Tracé 1251" d="M527.852,248.741,525,246.589s-2.516-.178-2.962,4.359S518.8,272.9,518.8,272.9l-4.364,20.213,6.041,1.326,4.674-21.814,4.679-15.049Z" transform="translate(-413.489 -219.584)" fill="#e6e6e6"/>
  <path id="Tracé_1252" data-name="Tracé 1252" d="M517.935,327.481l-13.681-10.638a1.02,1.02,0,0,1-.179-1.43l9.308-11.971a1.02,1.02,0,0,1,1.43-.179L528.494,313.9a1.02,1.02,0,0,1,.179,1.43L519.365,327.3A1.02,1.02,0,0,1,517.935,327.481Z" transform="translate(-405.643 -260.103)" fill="#3f3d56"/>
  <path id="Tracé_1253" data-name="Tracé 1253" d="M520.947,329.455l-12.52-9.735a.906.906,0,0,1-.159-1.27l8.438-10.853a.906.906,0,0,1,1.27-.159l12.52,9.735a.906.906,0,0,1,.159,1.27L522.216,329.3a.906.906,0,0,1-1.27.159Z" transform="translate(-408.719 -263.14)" fill="#fff"/>
  <path id="Tracé_1254" data-name="Tracé 1254" d="M515.27,336.706a.226.226,0,0,1-.04-.317l4.257-5.475a.226.226,0,1,1,.357.278l-4.257,5.475A.226.226,0,0,1,515.27,336.706Z" transform="translate(-414.346 -280.305)" fill="#e4e4e4"/>
  <path id="Tracé_1255" data-name="Tracé 1255" d="M517.9,338.755a.226.226,0,0,1-.04-.317l4.257-5.475a.226.226,0,1,1,.357.278l-4.257,5.475A.226.226,0,0,1,517.9,338.755Z" transform="translate(-416.224 -281.764)" fill="#e4e4e4"/>
  <path id="Tracé_1256" data-name="Tracé 1256" d="M529.541,337.7a.226.226,0,0,1-.04-.317l1.845-2.373a.226.226,0,1,1,.357.278l-1.845,2.373A.226.226,0,0,1,529.541,337.7Z" transform="translate(-424.596 -283.294)" fill="#e4e4e4"/>
  <path id="Tracé_1257" data-name="Tracé 1257" d="M533.093,337.95a.226.226,0,0,1-.04-.317l6.72-8.643a.226.226,0,1,1,.357.278l-6.72,8.643A.227.227,0,0,1,533.093,337.95Z" transform="translate(-426.98 -278.861)" fill="#e4e4e4"/>
  <path id="Tracé_1258" data-name="Tracé 1258" d="M535.727,340a.226.226,0,0,1-.04-.317l6.72-8.643a.226.226,0,1,1,.357.278l-6.72,8.643a.226.226,0,0,1-.317.04Z" transform="translate(-428.858 -280.32)" fill="#e4e4e4"/>
  <path id="Tracé_1259" data-name="Tracé 1259" d="M541.706,344.647a.226.226,0,0,1-.04-.317l6.72-8.643a.226.226,0,0,1,.357.278l-6.72,8.643A.226.226,0,0,1,541.706,344.647Z" transform="translate(-433.12 -283.632)" fill="#e4e4e4"/>
  <path id="Tracé_1260" data-name="Tracé 1260" d="M544.34,346.7a.226.226,0,0,1-.04-.317l6.72-8.643a.226.226,0,0,1,.357.278l-6.72,8.643A.226.226,0,0,1,544.34,346.7Z" transform="translate(-434.998 -285.091)" fill="#e4e4e4"/>
  <path id="Tracé_1261" data-name="Tracé 1261" d="M550.319,351.345a.226.226,0,0,1-.04-.317l6.72-8.643a.226.226,0,1,1,.357.278l-6.72,8.643A.226.226,0,0,1,550.319,351.345Z" transform="translate(-439.261 -288.403)" fill="#e4e4e4"/>
  <path id="Tracé_1262" data-name="Tracé 1262" d="M552.953,353.393a.226.226,0,0,1-.04-.317l6.72-8.643a.226.226,0,1,1,.357.278l-6.72,8.643A.226.226,0,0,1,552.953,353.393Z" transform="translate(-441.139 -289.862)" fill="#e4e4e4"/>
  <circle id="Ellipse_58" data-name="Ellipse 58" cx="0.093" cy="0.093" r="0.093" transform="translate(99.484 74.486)" fill="#fff"/>
  <path id="Tracé_1263" data-name="Tracé 1263" d="M555.012,160.748a22.358,22.358,0,0,1-1.6,5.092c-4.2,8.881,7.758,5.986,12.03,5.986,4.671,0,9.141,2.456,8.458-8.458-.292-4.662-3.787-8.458-8.458-8.458C561.457,154.909,555.847,156.683,555.012,160.748Z" transform="translate(-440.403 -154.909)" fill="#2f2e41"/>
  <path id="Tracé_1264" data-name="Tracé 1264" d="M437.284,466.124H433.3l-1.894-15.352h5.874Z" transform="translate(-307.618 -319.046)" fill="#ffb6b6"/>
  <path id="Tracé_1265" data-name="Tracé 1265" d="M586.729,661.4h-2.854l-.509-2.695-1.3,2.695h-7.57a1.7,1.7,0,0,1-.967-3.1l6.045-4.175V651.4l6.359.38Z" transform="translate(-455.101 -507.428)" fill="#2f2e41"/>
  <path id="Tracé_1266" data-name="Tracé 1266" d="M503.694,455.661l-3.194,2.375-10.68-11.189,4.714-3.505Z" transform="translate(-348.927 -315.493)" fill="#ffb6b6"/>
  <path id="Tracé_1267" data-name="Tracé 1267" d="M692.652,640.425l-2.29,1.7-2.017-1.858.561,2.941-6.075,4.517a1.7,1.7,0,0,1-2.627-1.912l2.36-6.958-1.626-2.186,5.329-3.49Z" transform="translate(-531.619 -494.09)" fill="#2f2e41"/>
  <path id="Tracé_1268" data-name="Tracé 1268" d="M404.675,205.375l18.893-2.943-3.757-11.3H404.675Z" transform="translate(-288.086 -136.024)" fill="#ffb6b6"/>
  <path id="Tracé_1269" data-name="Tracé 1269" d="M583,367.291s7.552,6.524,4.067,25.123l-4.254,18.224,11.589,20.12-5.893,3.214-14.282-19.85L567.7,398.794l-3.457-26.866Z" transform="translate(-448.379 -303.567)" fill="#2f2e41"/>
  <path id="Tracé_1270" data-name="Tracé 1270" d="M425.7,346.3l-.454,7.034,1.33,20.83,6.6,2.273,1.25-21.342Z" transform="translate(-303.103 -245.579)" fill="#2f2e41"/>
  <path id="Tracé_1271" data-name="Tracé 1271" d="M559.562,226.8l7.3.285,2.911,4.831,6.641,1.3-3.964,20.055.729,11.415-6.612-.04a19.341,19.341,0,0,0-12.941,4.862h0l.2-14.818-2.844-11.061.639-11.6,5.342-.668Z" transform="translate(-439.143 -207.547)" fill="#e6e6e6"/>
  <circle id="Ellipse_59" data-name="Ellipse 59" cx="6.873" cy="6.873" r="6.873" transform="translate(117.586 3.168)" fill="#ffb6b6"/>
  <path id="Tracé_1272" data-name="Tracé 1272" d="M570.387,163.094a7.873,7.873,0,0,1,11.97,6.871c-3.5.879-7.182,1.552-10.917.21l-.882-2.159-.52,2.16c-1.137.465-2.278.858-3.418,0A8.039,8.039,0,0,1,570.387,163.094Z" transform="translate(-450.638 -160.059)" fill="#2f2e41"/>
  <path id="Tracé_1273" data-name="Tracé 1273" d="M641.069,416.34l.927,8.409a1.026,1.026,0,0,0,.981.725h4.271a1.027,1.027,0,0,0,.981-.725L649,418.3a1.559,1.559,0,1,0,.4-2.932,1.017,1.017,0,0,0-.779-.36H642.05a1.027,1.027,0,0,0-.981,1.328Zm8.061,1.528.47-1.528a1.015,1.015,0,0,0,.016-.543c.02,0,.039-.006.059-.006a1.113,1.113,0,0,1,0,2.226A1.1,1.1,0,0,1,649.13,417.868Z" transform="translate(-503.866 -340.158)" fill="#96993e"/>
  <path id="Tracé_1274" data-name="Tracé 1274" d="M654.854,386.666a2.614,2.614,0,0,1,.364-3.992L651.055,362l4.6,1.476,3.332,20a2.629,2.629,0,0,1-4.13,3.193Z" transform="translate(-511.095 -301.935)" fill="#ffb6b6"/>
  <path id="Tracé_1275" data-name="Tracé 1275" d="M629.876,252.9l2.852-2.153s2.516-.178,2.962,4.359,3.236,21.951,3.236,21.951l4.364,20.213-6.041,1.326-4.674-21.814-4.679-15.049Z" transform="translate(-494.294 -222.515)" fill="#e6e6e6"/>
  <circle id="Ellipse_60" data-name="Ellipse 60" cx="1.614" cy="1.614" r="1.614" transform="translate(107.155 46.494)" fill="#96993e"/>
  <path id="Tracé_1276" data-name="Tracé 1276" d="M187.544,542.534h3.365l1.6-12.977h-4.966Z" transform="translate(-133.742 -376.727)" fill="#ffb6b6"/>
  <path id="Tracé_1277" data-name="Tracé 1277" d="M347.992,724.7h.947l3.7-1.5,1.982,1.5h0a4.223,4.223,0,0,1,4.223,4.222v.137H347.992Z" transform="translate(-295.017 -559.996)" fill="#2f2e41"/>
  <path id="Tracé_1278" data-name="Tracé 1278" d="M236.221,535.49l3.282.741,4.42-12.306-4.844-1.094Z" transform="translate(-168.401 -371.803)" fill="#ffb6b6"/>
  <path id="Tracé_1279" data-name="Tracé 1279" d="M395.025,719.081l.924.209,3.938-.652,1.6,1.9h0a4.223,4.223,0,0,1,3.189,5.049l-.03.134-10.582-2.389Z" transform="translate(-327.853 -556.655)" fill="#2f2e41"/>
  <path id="Tracé_1280" data-name="Tracé 1280" d="M328.2,467.877l3.042,34.087s-1.14,20.465,2.539,27.666h5.335l2.641-29.535.332-19.824L353.527,497l-7.285,32.151,6.566.587,11.821-34.891-12.987-32.755Z" transform="translate(-280.497 -368.824)" fill="#2f2e41"/>
  <circle id="Ellipse_61" data-name="Ellipse 61" cx="7.846" cy="7.846" r="7.846" transform="translate(42.352 18.093)" fill="#ffb8b8"/>
  <path id="Tracé_1281" data-name="Tracé 1281" d="M319.98,292.321l-6.437-2.762-3.134-3.324-7.828,1.262L300.5,291.06l-6.724,6.252,7.877,35.618-.238,7.779s5.042,2.27,26.907-2.956c.262-.063-.287-.337-.287-.337Z" transform="translate(-258.924 -247.312)" fill="#3f3d56"/>
  <path id="Tracé_1282" data-name="Tracé 1282" d="M309.019,267.752q-.082-.112-.162-.226c-.022.046-.039.093-.063.137Z" transform="translate(-269.916 -237.361)" fill="#2f2e41"/>
  <path id="Tracé_1283" data-name="Tracé 1283" d="M324.328,220.009a5.007,5.007,0,0,0-2.62-2.531,4.78,4.78,0,0,0-3.584,0,7.218,7.218,0,0,0-3.4-1.239,3.807,3.807,0,0,0-3.245,1.377,5.3,5.3,0,0,1-.567.737,2.766,2.766,0,0,1-2.314.363l1.076.922-1.3.34,1.519.921a4.769,4.769,0,0,0-1.962,4.557,9.638,9.638,0,0,0,1.922,4.516,6.155,6.155,0,0,0,.293-2.673,3.037,3.037,0,0,1,.93-2.58,3.07,3.07,0,0,1,1.807-.374,83.021,83.021,0,0,1,9.418.588,2.651,2.651,0,0,1,1.206.35,2.955,2.955,0,0,1,.9,2.3,16.652,16.652,0,0,0,.532-4.317A7.957,7.957,0,0,0,324.328,220.009Z" transform="translate(-266.365 -199.809)" fill="#2f2e41"/>
  <circle id="Ellipse_62" data-name="Ellipse 62" cx="12.35" cy="12.35" r="12.35" transform="translate(48.669 94.451)" fill="#fff"/>
  <path id="Tracé_1284" data-name="Tracé 1284" d="M343.848,479.674a12.687,12.687,0,0,0-1.895.142c-.323.047-.635.107-.946.181a12.618,12.618,0,0,0-5.349,21.9c.211.178.425.351.648.516a12.621,12.621,0,1,0,7.542-22.74Zm0,24.7a12.006,12.006,0,0,1-7.135-2.341c-.225-.165-.442-.335-.653-.516a12.068,12.068,0,0,1,5.384-21.052c.307-.063.615-.113.928-.151a11.939,11.939,0,0,1,1.476-.091,12.075,12.075,0,0,1,0,24.15Z" transform="translate(-282.842 -385.491)" fill="#3f3d56"/>
  <rect id="Rectangle_2882" data-name="Rectangle 2882" width="13.722" height="1.647" rx="0.823" transform="translate(68.11 103.85) rotate(180)" fill="#6c63ff"/>
  <rect id="Rectangle_2883" data-name="Rectangle 2883" width="13.722" height="1.647" rx="0.823" transform="translate(68.11 107.374) rotate(180)" fill="#6c63ff"/>
  <rect id="Rectangle_2884" data-name="Rectangle 2884" width="13.722" height="1.647" rx="0.823" transform="translate(68.11 110.899) rotate(180)" fill="#6c63ff"/>
  <path id="Tracé_1285" data-name="Tracé 1285" d="M716.289,539.247h-3.528l-1.678-13.608h5.207Z" transform="translate(-504.373 -373.859)" fill="#9e616a"/>
  <path id="Tracé_1286" data-name="Tracé 1286" d="M653.979,539.247h-3.528l-1.678-13.608h5.207Z" transform="translate(-462.645 -373.859)" fill="#9e616a"/>
  <path id="Tracé_1287" data-name="Tracé 1287" d="M802.671,729.064H791.822v-.137a4.223,4.223,0,0,1,4.222-4.223h0l1.982-1.5,3.7,1.5h.947Z" transform="translate(-611.302 -559.996)" fill="#2f2e41"/>
  <path id="Tracé_1288" data-name="Tracé 1288" d="M866.671,729.064H855.822v-.137a4.223,4.223,0,0,1,4.222-4.223h0l1.982-1.5,3.7,1.5h.947Z" transform="translate(-656.91 -559.996)" fill="#2f2e41"/>
  <path id="Tracé_1289" data-name="Tracé 1289" d="M803.04,424.532l-5.362,32.648,1.459,4.865-1.915,3.446,2.812,30.26-1.141,2.513,3.189,1.967h6.489l.344-27.395,1.6-4.022V466.6l3.263-16.7.6,23.394.949,4.028-.8,2.868,1.042,2.009,2.767,18.635h7.276l-.563-4.335h0a3.2,3.2,0,0,0,1.682-3.546l-.417-1.9.95-5.619L829,454.081l-.487-25.292L820,422.28Z" transform="translate(-611.275 -339.679)" fill="#2f2e41"/>
  <circle id="Ellipse_219" data-name="Ellipse 219" cx="6.76" cy="6.76" r="6.76" transform="translate(194.407 18.425)" fill="#9e616a"/>
  <path id="Tracé_1290" data-name="Tracé 1290" d="M795.983,439.82a2.894,2.894,0,0,0-.463-4.413l2.629-9.941-5.065,1.7-1.72,9.179a2.909,2.909,0,0,0,4.619,3.471Z" transform="translate(-610.893 -347.422)" fill="#9e616a"/>
  <path id="Path_1101" data-name="Path 1101" d="M798.778,300.244l-1.087-.226-.927.513s-2.59,3.453-2.59,6.619-3.165,33.668-3.165,33.668l5.755,2.59,4.6-23.884Z" transform="translate(-610.749 -257.427)" fill="#e6e6e6"/>
  <path id="Path_1104" data-name="Path 1104" d="M848.91,216.207s1.768-3.38-2.122-3.687c0,0-3.316-3.008-6.7-.55a3.4,3.4,0,0,0-2.852,2.086,1.265,1.265,0,0,0-1.769.922,9.612,9.612,0,0,0,0,5.839c1.061,2.766,1.414,3.073,1.414,3.073s-1.744-5.8,2.5-6.106,8.993-2.96,9.347.421.886,4.213.886,4.213S852.977,217.59,848.91,216.207Z" transform="translate(-641.766 -195.978)" fill="#2f2e41"/>
  <path id="Tracé_1291" data-name="Tracé 1291" d="M917.52,482.184a2.069,2.069,0,0,1-1.383-.528l-20.459-18.212a2.086,2.086,0,0,1-.171-2.942l13.106-14.724a2.086,2.086,0,0,1,2.942-.171l20.459,18.212a2.084,2.084,0,0,1,.171,2.942l-13.106,14.724a2.069,2.069,0,0,1-1.436.7C917.6,482.183,917.561,482.184,917.52,482.184Z" transform="translate(-682.847 -360.3)" fill="#fff"/>
  <path id="Tracé_1292" data-name="Tracé 1292" d="M917.154,481.952a2.2,2.2,0,0,1-1.472-.561l-20.459-18.212a2.221,2.221,0,0,1-.182-3.132l13.106-14.724a2.221,2.221,0,0,1,3.131-.182l20.459,18.212a2.218,2.218,0,0,1,.182,3.131l-13.106,14.724a2.2,2.2,0,0,1-1.528.74Q917.219,481.952,917.154,481.952ZM909.8,445.117a1.678,1.678,0,0,0-1.257.563L895.441,460.4a1.684,1.684,0,0,0,.138,2.375l20.459,18.212a1.682,1.682,0,0,0,2.375-.138l13.106-14.724a1.682,1.682,0,0,0-.138-2.375l-20.459-18.212A1.675,1.675,0,0,0,909.8,445.117Z" transform="translate(-682.481 -359.931)" fill="#3f3d56"/>
  <path id="Tracé_1293" data-name="Tracé 1293" d="M960.465,487.537a.9.9,0,0,1-.6-.228l-16.06-14.3a.9.9,0,1,1,1.2-1.347l16.06,14.3a.9.9,0,0,1-.6,1.575Z" transform="translate(-718.373 -380.095)" fill="#6c63ff"/>
  <path id="Tracé_1294" data-name="Tracé 1294" d="M949.029,500.384a.9.9,0,0,1-.6-.228l-16.06-14.3a.9.9,0,1,1,1.2-1.347l16.06,14.3a.9.9,0,0,1-.6,1.575Z" transform="translate(-710.001 -389.235)" fill="#6c63ff"/>
  <path id="Tracé_1295" data-name="Tracé 1295" d="M937.592,513.232a.9.9,0,0,1-.6-.228l-16.06-14.3a.9.9,0,0,1,1.2-1.347l16.06,14.3a.9.9,0,0,1-.6,1.575Z" transform="translate(-701.627 -398.375)" fill="#6c63ff"/>
  <path id="Tracé_1296" data-name="Tracé 1296" d="M914.386,441.808a2.894,2.894,0,0,1,1.583-4.145l.017-10.283,4.456,2.949-.7,9.313a2.909,2.909,0,0,1-5.357,2.166Z" transform="translate(-696.786 -348.758)" fill="#9e616a"/>
  <path id="Path_1100" data-name="Path 1100" d="M911.42,306.136l1.991-1.919,1.462,1.056s1.439,1.727,2.59,6.906,0,33.668,0,33.668l-6.331-.863L912,330.02l-2.59-12.662Z" transform="translate(-693.408 -260.452)" fill="#e6e6e6"/>
  <path id="Tracé_1297" data-name="Tracé 1297" d="M847.5,285.493l-6.707-3.2-4.554-4.224-8.3-.062-2.679,3.482-7.071,2.4,1.179,24.384-.8,1.875s.56.506.816.789-.354,2.651-.354,2.651l-.344,2.576.953.681-1.239,1.463-.307,2.306s21.62-5.374,25.705,3.528c.216.47-.316-4.126-.316-4.126l-.531-3.365.527-3.02.8-.8-1.348-1.348.864-6.395Z" transform="translate(-626.551 -241.796)" fill="#3f3d56"/>
  <path id="Tracé_1298" data-name="Tracé 1298" d="M337.955,466.434a3.107,3.107,0,0,0-2.278-4.184l-1.49-10.94-4.32,3.776,2.077,9.81a3.124,3.124,0,0,0,6.01,1.538Z" transform="translate(-282.138 -365.73)" fill="#ffb8b8"/>
  <path id="Path_1101-2" data-name="Path 1101" d="M290.47,326.838l-1.171.224-.708.891s-1.145,4.491.159,7.63,10.735,34.687,10.735,34.687l6.774.2-5.277-25.579Z" transform="translate(-254.785 -276.366)" fill="#3f3d56"/>
  <path id="Tracé_1299" data-name="Tracé 1299" d="M390.709,459.584a3.107,3.107,0,0,1,.553-4.732l-2.7-10.707,5.416,1.893,1.73,9.877a3.124,3.124,0,0,1-5,3.669Z" transform="translate(-323.995 -360.664)" fill="#ffb8b8"/>
  <path id="Path_1101-3" data-name="Path 1101" d="M379.466,309.711l1.17-.228.989.563s2.737,3.74,2.7,7.139,2.973,36.188,2.973,36.188l-6.212,2.708-4.641-25.7Z" transform="translate(-315.291 -264)" fill="#3f3d56"/>
</svg>
