<svg xmlns="http://www.w3.org/2000/svg" width="250" height="250" viewBox="0 0 361.985 309.568">
  <g id="Groupe_2521" data-name="Groupe 2521" transform="translate(0)">
    <circle id="Ellipse_864" data-name="Ellipse 864" cx="8.528" cy="8.528" r="8.528" transform="translate(298.478 214.417)" fill="#007263"/>
    <circle id="Ellipse_865" data-name="Ellipse 865" cx="6.091" cy="6.091" r="6.091" transform="translate(191.27)" fill="#007263"/>
    <circle id="Ellipse_866" data-name="Ellipse 866" cx="6.091" cy="6.091" r="6.091" transform="translate(58.477 188.833)" fill="#007263"/>
    <circle id="Ellipse_867" data-name="Ellipse 867" cx="6.091" cy="6.091" r="6.091" transform="translate(271.676 168.122)" fill="#00a796"/>
    <circle id="Ellipse_868" data-name="Ellipse 868" cx="6.091" cy="6.091" r="6.091" transform="translate(86.498 250.965)" fill="#00a796"/>
    <circle id="Ellipse_869" data-name="Ellipse 869" cx="6.091" cy="6.091" r="6.091" transform="translate(278.985 268.021)" fill="#e6e6e6"/>
    <circle id="Ellipse_870" data-name="Ellipse 870" cx="6.091" cy="6.091" r="6.091" transform="translate(225.381 51.168)" fill="#be6650"/>
    <path id="Tracé_4936" data-name="Tracé 4936" d="M452.674,316.424a40.444,40.444,0,0,1,31.634,18.738c.958,1.531,2.208,3.214,1.545,5.1a3.352,3.352,0,0,1-3.473,2.32,4.392,4.392,0,0,1-.453-8.465c4.424-1.887,8.887,1.029,12.49,3.357,8.211,5.3,17.242,10.1,27.191,10.7,9.205.559,19.076-3.05,24.2-11.033.9-1.4-1.328-2.687-2.22-1.3-5.078,7.917-15.343,10.76-24.269,9.537a47.181,47.181,0,0,1-15.186-5.156c-2.453-1.273-4.832-2.685-7.164-4.168a45.716,45.716,0,0,0-7.026-4.028c-4.1-1.683-9.521-1.552-12.383,2.323-2.67,3.615-.607,9.634,3.859,10.65a6.034,6.034,0,0,0,7.069-7.179c-.446-2.129-2.049-4.212-3.289-5.952a43.017,43.017,0,0,0-32.521-18.019c-1.654-.082-1.649,2.489,0,2.571Z" transform="translate(-451.436 -186.097)" fill="#ccc"/>
    <path id="Tracé_4937" data-name="Tracé 4937" d="M758.4,389.251A32.167,32.167,0,0,1,743.7,363.976c-.072-1.435-.288-3.088.9-4.139a2.666,2.666,0,0,1,3.311-.265,3.493,3.493,0,0,1-2.966,6.054c-3.8-.4-5.773-4.16-7.373-7.173-3.647-6.866-8.059-13.7-14.735-17.973-6.176-3.956-14.431-5.276-21.081-1.717-1.164.623-.119,2.381,1.039,1.761,6.6-3.53,14.826-1.525,20.551,2.784a37.524,37.524,0,0,1,8.548,9.467c1.21,1.835,2.316,3.738,3.36,5.672a36.36,36.36,0,0,0,3.318,5.521c2.193,2.757,6.011,4.768,9.5,3.186a5.612,5.612,0,0,0,1.448-8.892,4.8,4.8,0,0,0-7.692,2.246,14,14,0,0,0-.023,5.409,34.214,34.214,0,0,0,15.6,25.12c1.117.7,2.11-1.089,1-1.785Z" transform="translate(-396.907 -181.112)" fill="#ccc"/>
    <path id="Tracé_4938" data-name="Tracé 4938" d="M588.928,245.925a32.167,32.167,0,0,1-25.16-14.9c-.762-1.218-1.756-2.556-1.229-4.055a2.666,2.666,0,0,1,2.762-1.845,3.493,3.493,0,0,1,.361,6.732c-3.518,1.5-7.068-.819-9.934-2.67-6.53-4.218-13.713-8.032-21.626-8.513-7.321-.445-15.172,2.426-19.245,8.775-.712,1.111,1.057,2.137,1.765,1.032,4.039-6.3,12.2-8.558,19.3-7.585a37.522,37.522,0,0,1,12.078,4.1c1.951,1.013,3.844,2.135,5.7,3.315a36.36,36.36,0,0,0,5.589,3.2c3.259,1.339,7.572,1.234,9.848-1.848a5.612,5.612,0,0,0-3.069-8.47,4.8,4.8,0,0,0-5.622,5.709,14,14,0,0,0,2.616,4.734,34.214,34.214,0,0,0,25.866,14.331c1.315.065,1.312-1.98,0-2.045Z" transform="translate(-437.629 -206.446)" fill="#be6650"/>
    <rect id="Rectangle_3941" data-name="Rectangle 3941" width="6.091" height="20.015" transform="translate(149.848 104.25)" fill="#ccc"/>
    <rect id="Rectangle_3942" data-name="Rectangle 3942" width="5.987" height="19.671" transform="translate(61.68 86.05) rotate(135)" fill="#b3b3b3"/>
    <rect id="Rectangle_3943" data-name="Rectangle 3943" width="5.987" height="19.671" transform="translate(232.951 136.573) rotate(-135)" fill="#b3b3b3"/>
    <rect id="Rectangle_3944" data-name="Rectangle 3944" width="5.987" height="19.671" transform="translate(59.956 309.569) rotate(-135)" fill="#be6650"/>
    <path id="Ellipse_44" data-name="Ellipse 44" d="M40.907,0A40.908,40.908,0,1,1,0,40.908,40.908,40.908,0,0,1,40.907,0Z" transform="translate(120.937 163.321)" fill="#98984b"/>
    <path id="Path_395" data-name="Path 395" d="M360.246,399.834a4.242,4.242,0,0,1-2.552-.848l-.046-.034-9.614-7.354a4.272,4.272,0,1,1,5.2-6.781l6.227,4.775,14.715-19.2a4.271,4.271,0,0,1,5.987-.791h0l-.091.127.094-.127a4.276,4.276,0,0,1,.79,5.989l-17.308,22.57a4.273,4.273,0,0,1-3.4,1.666Z" transform="translate(-202.455 -179.999)" fill="#fff"/>
  </g>
</svg>
