<?xml version="1.0" encoding="UTF-8"?>
<svg id="Calque_1" data-name="Calque 1" xmlns="http://www.w3.org/2000/svg" viewBox="0 0 600 400">
  <polygon points="16.16 253.21 16.16 331.37 27.1 320.53 27.32 320.31 27.68 319.95 41.04 306.72 55.45 292.44 16.16 253.21" fill="#cc9"/>
  <polygon points="16.16 47.61 16.16 225.58 45.67 196.34 45.72 196.3 67.37 174.84 105.62 136.94 91.16 122.5 77.44 108.8 48.83 80.23 27.1 58.53 16.16 47.61" fill="#cc9"/>
  <polygon points="16.16 19.87 16.16 169.51 17.48 168.2 17.53 168.15 39.19 146.69 45.22 140.72 60.81 125.27 77.44 108.8 77.66 108.58 91.38 94.98 41.04 44.72 16.16 19.87" fill="#9cf"/>
  <polygon points="16.16 123.7 16.16 231.4 42.78 231.4 83.56 191 67.37 174.84 52.91 160.4 39.59 147.09 39.53 147.03 39.19 146.69 16.16 123.7" fill="#9cf"/>
  <polygon points="16.16 47.17 16.16 196.82 31.21 181.91 31.26 181.86 52.91 160.4 91.16 122.5 91.38 122.28 77.66 108.58 49.05 80.01 27.32 58.31 16.16 47.17" fill="#993"/>
  <polygon points="16.16 166.88 16.16 231.4 42.69 231.4 61.81 212.46 45.79 196.47 45.67 196.34 31.21 181.91 17.88 168.6 16.16 166.88" fill="#993"/>
  <polygon points="16.16 80.69 16.16 170.3 17.88 168.6 17.93 168.55 39.59 147.09 61.21 125.67 60.81 125.27 32.2 96.7 16.16 80.69" fill="#069"/>
  <polygon points="17.53 168.15 16.16 166.78 16.16 225.83 45.79 196.47 45.84 196.42 45.72 196.3 31.26 181.86 17.93 168.55 17.87 168.49 17.53 168.15" fill="#069"/>
  <polygon points="27.68 319.95 16.16 308.45 16.16 374.6 16.61 374.15 32.2 358.7 48.83 342.23 49.05 342.01 49.41 341.65 27.68 319.95" fill="#9cf"/>
  <polygon points="16.16 111.7 16.16 170.19 17.82 168.54 17.87 168.49 39.53 147.03 45.56 141.06 45.22 140.72 16.61 112.15 16.16 111.7" fill="#cc9"/>
</svg>