<svg xmlns="http://www.w3.org/2000/svg" width="349.454" height="323.735" viewBox="0 0 349.454 323.735">
  <path id="Tracé_846" data-name="Tracé 846" d="M205.709,41.622a8.428,8.428,0,0,1-5.822,14.725l-2.016,1.241q-.111.277-.22.555a22.634,22.634,0,0,0,30.007,29.029c16.369-7.012,34.094-12.741,47.764-23.7a66.959,66.959,0,0,0,15.231-17.312,268.451,268.451,0,0,1-60.332,96.89,259.041,259.041,0,0,1-21.327,19.579q-9.19,7.523-19,14.2a271.552,271.552,0,0,1-118.9,44.835A72.271,72.271,0,0,0,27.8,223.023,55.136,55.136,0,0,0,13.7,230.312c1.182.884,2.331,1.836,3.446,2.788l1.047.92.128.114a8.351,8.351,0,0,1-4.584,14.529l-2.986.346c-1.524.189-3.049.345-4.573.534a4.074,4.074,0,0,0-.474.04c-1.744.209-3.473.4-5.217.61A24.149,24.149,0,0,0,.81,261.2c3.4,12.356,17.456,19.793,30.158,18.2,12.719-1.571,23.6-10.566,30.326-21.458a96.777,96.777,0,0,0,11.242-30.713c.966-.131,1.931-.228,2.9-.359a273.334,273.334,0,0,0,51.974-12.454A113.619,113.619,0,0,0,95.43,256.947c-6.283,15.748-6.775,33.689-8.551,50.866-2.133,20.632,21.724,33.973,37.739,20.791l.464-.384q-.77-2.631-1.352-5.31a11.432,11.432,0,0,1,17.822-11.682l.193.137a113.783,113.783,0,0,0,9.723-14.272,117.118,117.118,0,0,0,9.471-93.268c-.335-1-.653-1.976-1-2.956a279,279,0,0,0,60.078-40.127,264.692,264.692,0,0,0,29.681-30.729l-.3.411a69.915,69.915,0,0,0-11.084,45.571c2.622,23.626,17.328,45.717,23.054,68.233a13.121,13.121,0,0,0,23.3,4.886q.157-.217.312-.436a76.654,76.654,0,0,1-3.271-8.982q-.77-2.631-1.352-5.31A11.432,11.432,0,0,1,298.176,222.7l.193.137c.137.1.257.183.393.283a113.843,113.843,0,0,0,7.891-38.1,117.227,117.227,0,0,0-34.847-86.049l-.017-.017a278.933,278.933,0,0,0,24.757-52.243L248.617,0c-.691.365-1.381.764-2.055,1.146a76.009,76.009,0,0,1,12.492,13.716c-7.809.9-15.651,1.83-23.46,2.727a4.131,4.131,0,0,0-.474.04c-3.98.475-7.961.917-11.941,1.392l0,0a111.381,111.381,0,0,0-17.467,22.6Z" transform="translate(349.454 17.473) rotate(93)" fill="#98984b"/>
</svg>
