<svg xmlns="http://www.w3.org/2000/svg" width="118.496" height="99.075" viewBox="0 0 118.496 99.075">
  <g id="noun-donation-5141912" transform="translate(-162.891 -81.206)">
    <path id="Tracé_1732" data-name="Tracé 1732" d="M315.237,269.425v2.91a9.429,9.429,0,0,0-3.94,2.3c-2.816,2.722-2.975,5.465-2.615,7.284.7,3.514,4.025,6.759,8.9,8.682,3.65,1.445,5.9,3.4,6.327,5.5a4.261,4.261,0,0,1-1.3,3.846c-.924.91-2.913,1.435-5.085,1.339a10.242,10.242,0,0,1-7.337-3.218,2.094,2.094,0,1,0-3.2,2.7,13.931,13.931,0,0,0,8.255,4.406V307.9a2.093,2.093,0,1,0,4.185,0v-2.517a9.925,9.925,0,0,0,6.123-2.462,8.431,8.431,0,0,0,2.459-7.66c-.511-2.5-2.468-6.009-8.889-8.548-3.438-1.356-5.922-3.559-6.33-5.6a3.717,3.717,0,0,1,1.418-3.457c3.315-3.206,7.736-.522,7.923-.4a2.093,2.093,0,0,0,2.236-3.539,12.518,12.518,0,0,0-4.943-1.683v-2.6a2.092,2.092,0,1,0-4.184,0Z" transform="translate(-97.303 -139.747)" fill="#98984b"/>
    <path id="Tracé_1733" data-name="Tracé 1733" d="M326.472,126.173a7.81,7.81,0,1,0-7.808-7.812A7.816,7.816,0,0,0,326.472,126.173Zm0-11.434a3.624,3.624,0,1,1-3.623,3.625A3.628,3.628,0,0,1,326.472,114.739Z" transform="translate(-106.445 -22.033)" fill="#98984b"/>
    <path id="Tracé_1734" data-name="Tracé 1734" d="M263.061,119.158a9.207,9.207,0,0,0-.851-1.811l-8.3-15.564a9.831,9.831,0,0,0-8-4.8H235.119c.009-.218.033-.432.033-.65a15.126,15.126,0,0,0-30.252,0c0,.221.022.432.033.65h-10.79a9.834,9.834,0,0,0-8,4.8l-8.3,15.564a9.206,9.206,0,0,0-.851,1.811,14.528,14.528,0,0,0-.1,1.828V174a6.285,6.285,0,0,0,6.279,6.279h73.711A6.285,6.285,0,0,0,263.161,174V120.986a14.552,14.552,0,0,0-.1-1.828ZM220.027,85.391a10.939,10.939,0,1,1-10.94,10.938A10.95,10.95,0,0,1,220.027,85.391Zm-30.191,18.364a5.635,5.635,0,0,1,4.309-2.587h11.566a15.209,15.209,0,0,0,3.9,6.1h-7.035a2.093,2.093,0,0,0,0,4.185h34.906a2.093,2.093,0,1,0,0-4.185h-7.035a15.1,15.1,0,0,0,3.9-6.1h11.563a5.625,5.625,0,0,1,4.309,2.587l7.363,13.806h-75.1ZM258.977,174a2.093,2.093,0,0,1-2.093,2.093H183.171A2.093,2.093,0,0,1,181.078,174V121.746h77.9Z" transform="translate(0 0)" fill="#98984b"/>
  </g>
</svg>
