<svg id="Groupe_1971" data-name="Groupe 1971" xmlns="http://www.w3.org/2000/svg" xmlns:xlink="http://www.w3.org/1999/xlink" width="133.76" height="75.759" viewBox="0 0 133.76 75.759">
  <defs>
    <clipPath id="clip-path">
      <rect id="Rectangle_2628" data-name="Rectangle 2628" width="133.76" height="75.759" fill="none"/>
    </clipPath>
  </defs>
  <g id="Groupe_941" data-name="Groupe 941">
    <g id="Groupe_940" data-name="Groupe 940" clip-path="url(#clip-path)">
      <text id="G" transform="translate(48.06 11.768)" fill="#161615" font-size="14" font-family="HelveticaNeue, Helvetica Neue"><tspan x="0" y="0">G</tspan></text>
      <text id="reen" transform="translate(59.061 11.768)" fill="#161615" font-size="14" font-family="HelveticaNeue, Helvetica Neue"><tspan x="0" y="0" letter-spacing="-0.009em">r</tspan><tspan y="0">een</tspan></text>
    </g>
  </g>
  <text id="C" transform="translate(48.06 29.414)" fill="#161615" font-size="14" font-family="HelveticaNeue, Helvetica Neue"><tspan x="0" y="0">C</tspan></text>
  <text id="oaching" transform="translate(58.061 29.414)" fill="#161615" font-size="14" font-family="HelveticaNeue, Helvetica Neue"><tspan x="0" y="0">oaching</tspan></text>
  <text id="C-2" data-name="C" transform="translate(48.06 48.06)" fill="#161615" font-size="14" font-family="HelveticaNeue, Helvetica Neue"><tspan x="0" y="0">C</tspan></text>
  <text id="ommunes" transform="translate(58.061 48.06)" fill="#161615" font-size="14" font-family="HelveticaNeue, Helvetica Neue"><tspan x="0" y="0">ommunes</tspan></text>
  <g id="Groupe_943" data-name="Groupe 943">
    <g id="Groupe_942" data-name="Groupe 942" clip-path="url(#clip-path)">
      <path id="Tracé_1116" data-name="Tracé 1116" d="M1.5,144.182V131.318l9.953-8.26,8.768,8.768v12.356Z" transform="translate(-0.853 -69.944)" fill="none" stroke="#161615" stroke-width="3"/>
    </g>
  </g>
  <path id="Tracé_1117" data-name="Tracé 1117" d="M61.553,126.936H38.326v-1.295H60.258V116.7h2.386l-4.3-7.668H46.23v-8.008l-5-5L35.863,101.4v11.03l-1.295-1.269v-8.466l-2.5,2.5-.915-.915L41.231,94.2l9.55,9.551-.915.915-2.341-2.34v5.419H59.1L64.854,118h-3.3Z" transform="translate(-17.705 -53.54)" fill="#161615"/>
  <g id="Groupe_945" data-name="Groupe 945">
    <g id="Groupe_944" data-name="Groupe 944" clip-path="url(#clip-path)">
      <path id="Tracé_1118" data-name="Tracé 1118" d="M50.77,116.572h0a2.463,2.463,0,1,1,2.463-2.463A2.47,2.47,0,0,1,50.77,116.572Z" transform="translate(-27.457 -63.458)" fill="none" stroke="#161615" stroke-width="3"/>
      <line id="Ligne_102" data-name="Ligne 102" x1="18.991" transform="translate(21.467 63.676)" fill="none" stroke="#161615" stroke-width="3"/>
      <rect id="Rectangle_2630" data-name="Rectangle 2630" width="3.859" height="3.504" transform="translate(2.628 62.288)" fill="#161615"/>
      <rect id="Rectangle_2631" data-name="Rectangle 2631" width="3.859" height="3.504" transform="translate(2.628 62.288)" fill="none" stroke="#161615" stroke-width="1"/>
      <rect id="Rectangle_2632" data-name="Rectangle 2632" width="3.859" height="3.504" transform="translate(9.671 62.349)" fill="#161615"/>
      <rect id="Rectangle_2633" data-name="Rectangle 2633" width="3.859" height="3.504" transform="translate(9.671 62.349)" fill="none" stroke="#161615" stroke-width="1"/>
      <rect id="Rectangle_2634" data-name="Rectangle 2634" width="2.996" height="6.161" transform="translate(12.032 68.077)" fill="#161615"/>
      <rect id="Rectangle_2635" data-name="Rectangle 2635" width="2.996" height="6.161" transform="translate(12.032 68.077)" fill="none" stroke="#161615" stroke-width="1"/>
      <line id="Ligne_103" data-name="Ligne 103" y2="1.049" transform="translate(41.44 65.03)" fill="none" stroke="#161615" stroke-width="3"/>
      <line id="Ligne_104" data-name="Ligne 104" y2="1.049" transform="translate(38.947 65.03)" fill="none" stroke="#161615" stroke-width="3"/>
      <line id="Ligne_105" data-name="Ligne 105" y2="1.049" transform="translate(36.497 65.03)" fill="none" stroke="#161615" stroke-width="3"/>
      <line id="Ligne_106" data-name="Ligne 106" y2="1.049" transform="translate(34.005 65.03)" fill="none" stroke="#161615" stroke-width="3"/>
      <line id="Ligne_107" data-name="Ligne 107" y2="1.049" transform="translate(31.65 65.03)" fill="none" stroke="#161615" stroke-width="3"/>
      <line id="Ligne_108" data-name="Ligne 108" y2="1.049" transform="translate(21.791 65.03)" fill="none" stroke="#161615" stroke-width="3"/>
      <line id="Ligne_109" data-name="Ligne 109" y2="1.049" transform="translate(26.707 65.03)" fill="none" stroke="#161615" stroke-width="3"/>
      <line id="Ligne_110" data-name="Ligne 110" y2="1.049" transform="translate(24.215 65.03)" fill="none" stroke="#161615" stroke-width="3"/>
      <line id="Ligne_111" data-name="Ligne 111" y2="1.049" transform="translate(29.179 65.03)" fill="none" stroke="#161615" stroke-width="3"/>
      <path id="Tracé_1119" data-name="Tracé 1119" d="M58.322,64.082l-1.295-1.326V31.25h-9.47V57.683L46.262,59.1V29.956h12.06Z" transform="translate(-26.295 -17.026)" fill="#161615"/>
      <rect id="Rectangle_2636" data-name="Rectangle 2636" width="2.225" height="5.839" transform="translate(22.656 16.082)" fill="#161615"/>
      <rect id="Rectangle_2637" data-name="Rectangle 2637" width="2.225" height="5.839" transform="translate(22.656 16.082)" fill="none" stroke="#161615" stroke-width="1"/>
      <rect id="Rectangle_2638" data-name="Rectangle 2638" width="2.225" height="5.839" transform="translate(22.656 24.799)" fill="#161615"/>
      <rect id="Rectangle_2639" data-name="Rectangle 2639" width="2.225" height="5.839" transform="translate(22.656 24.799)" fill="none" stroke="#161615" stroke-width="1"/>
      <rect id="Rectangle_2640" data-name="Rectangle 2640" width="2.361" height="5.839" transform="translate(30.469 4.251)" fill="#88b332"/>
      <rect id="Rectangle_2641" data-name="Rectangle 2641" width="2.361" height="5.839" transform="translate(30.469 4.251)" fill="none" stroke="#88b332" stroke-width="1"/>
      <path id="Tracé_1120" data-name="Tracé 1120" d="M107.539,144.273l1.388-.406a1.619,1.619,0,0,0,1.4,0c.652-.372.262-1.862.465-1.253s1.263,1.278,1.263,1.278,1.422-.877,1.151-1.942a34.17,34.17,0,0,1,.035-5.388s.079-2,0-1.5c-.1.65-2.071,1.639-1.907.65s-1.575-3.719-.812-4.6c1.641-1.9,2.075-1.434,1.669-2.437s-.976-1.378-.589-2.631,1.429-3.629,2.847-3.53c3.419.237,5.349,2.012,5.484,3.453a9.178,9.178,0,0,1,.1,2.979c-.2.626-.508,1.54.078,1.985.67.509,1.392,1.316.26,2.745-.954,1.2-.745,1.826-1.818,2.188-1.171.4-.948.956-1.625.956s-.745,3.007-.542,3.383a1.677,1.677,0,0,1,.2,1.441c-.135.94-.609,2.506-.2,2.569,0,0,1.21.736,1.54,0a13.8,13.8,0,0,0,.559-2.209c0,.1-.482,2.635.28,2.536a6.171,6.171,0,0,0,2.029-1.089s.332,1.117.967,1.092,1.828-3.631,1.828-3.554-.228,3.352.99,3.555,1.9-1.194,1.9-1.194c.381.025.154,1.234,1.117,1.422.468.092,2.342-3.554,2.317-2.97a9.589,9.589,0,0,0,1.045,2.491s1.422-.877,1.151-1.942a34.181,34.181,0,0,1,.034-5.388,3.083,3.083,0,0,1,0-1.5c.237-.439-1.844,2.379-2.4,1.544a5.829,5.829,0,0,1,.3-4.908c.812-1,.575-1.706.169-2.708s-.1-1.7.287-2.95,1.474-3.279,2.9-3.279,4.434,2.2,4.57,3.64.88,2.1.677,2.724-.982,1.332-.508,1.9,1.029,1.195.2,2.26.406,2.96-.609,3.665-1.93.169-1.93-.44a12.922,12.922,0,0,0-.511,3.695,1.676,1.676,0,0,1,.2,1.441c-.136.94-.609,2.506-.2,2.569,0,0,1.21.736,1.54,0a13.8,13.8,0,0,0,.558-2.209c0,.1.368,2.664,1.13,2.565s1.179-1.118,1.179-1.118.883,1.021,1.518,1.114c.964.06,1.461-2.547,1.841-2.572,0,0,.343,2.361,1.562,2.159s.882-4.494.99-3.555c.009.076,1.193,3.529,1.828,3.554s1.212-1.142,1.212-1.142a2.93,2.93,0,0,0,1.49,1.063c.762.1.573-2.358.573-2.46a23.235,23.235,0,0,1,1.111,2.209c.33.736.988,0,.988,0,.406-.063-.068-1.629-.2-2.569a1.675,1.675,0,0,1,.2-1.441c.2-.376.121-3.519-.542-3.383-.832.17-1.084-.273-1.832-1.271-1.019-1.361.433-1.493-.392-2.558s-1.667-2.61-1.193-3.174,1.879-.186,1.676-.812a7.389,7.389,0,0,1-.432-3.148c.136-1.441.364-3.346,5.1-3.346,1.422,0,2.288,2,2.674,3.253a4,4,0,0,1-.406,3.047c-.406,1,.574,1.689,1.32,2.742.838,1.182-.44,2.967-.643,4.164-.2,1.174-1.786.015-2.186-.65-.279-.464-.133,1.09,0,1.5A34.127,34.127,0,0,1,156,141.95c-.271,1.065,1.151,1.942,1.151,1.942s.628-.025.8-.33.237-.88.372-.812.635,1.185.94,1.117" transform="translate(-61.123 -69.628)" fill="none" stroke="#161615" stroke-width="2"/>
      <path id="Tracé_1121" data-name="Tracé 1121" d="M79.031,55.278V5.221H65.879v9.527l5.57.1L71,51.139,72.08,52.7v2.581Z" transform="translate(-37.444 -2.967)" fill="#161615"/>
      <path id="Tracé_1122" data-name="Tracé 1122" d="M79.031,55.278V5.221H65.879v9.527l5.57.1L71,51.139,72.08,52.7v2.581Z" transform="translate(-37.444 -2.967)" fill="none" stroke="#161615" stroke-width="3"/>
      <rect id="Rectangle_2642" data-name="Rectangle 2642" width="2.225" height="5.839" transform="translate(29.85 3.918)" fill="#fff"/>
      <rect id="Rectangle_2643" data-name="Rectangle 2643" width="2.225" height="5.839" transform="translate(29.85 3.918)" fill="none" stroke="#fff" stroke-width="1"/>
    </g>
  </g>
</svg>
