<svg xmlns="http://www.w3.org/2000/svg" width="30.978" height="30.978" viewBox="0 0 30.978 30.978">
  <path id="Tracé_3" data-name="Tracé 3" d="M15.489,2.754a47.492,47.492,0,0,1,6.2.172,7.982,7.982,0,0,1,2.926.516,6.044,6.044,0,0,1,2.926,2.926,7.982,7.982,0,0,1,.516,2.926c0,1.549.172,2.065.172,6.2a47.492,47.492,0,0,1-.172,6.2,7.982,7.982,0,0,1-.516,2.926,6.044,6.044,0,0,1-2.926,2.926,7.982,7.982,0,0,1-2.926.516c-1.549,0-2.065.172-6.2.172a47.492,47.492,0,0,1-6.2-.172,7.982,7.982,0,0,1-2.926-.516A6.044,6.044,0,0,1,3.442,24.61a7.982,7.982,0,0,1-.516-2.926c0-1.549-.172-2.065-.172-6.2a47.492,47.492,0,0,1,.172-6.2,7.982,7.982,0,0,1,.516-2.926,6.181,6.181,0,0,1,1.2-1.721,2.91,2.91,0,0,1,1.721-1.2,7.982,7.982,0,0,1,2.926-.516,47.492,47.492,0,0,1,6.2-.172m0-2.754A50.85,50.85,0,0,0,9.121.172,10.625,10.625,0,0,0,5.335.86,6.737,6.737,0,0,0,2.581,2.581,6.737,6.737,0,0,0,.86,5.335,7.841,7.841,0,0,0,.172,9.121,50.85,50.85,0,0,0,0,15.489a50.85,50.85,0,0,0,.172,6.368A10.625,10.625,0,0,0,.86,25.643,6.737,6.737,0,0,0,2.581,28.4a6.737,6.737,0,0,0,2.754,1.721,10.625,10.625,0,0,0,3.786.688,50.85,50.85,0,0,0,6.368.172,50.85,50.85,0,0,0,6.368-.172,10.625,10.625,0,0,0,3.786-.688,7.22,7.22,0,0,0,4.475-4.475,10.625,10.625,0,0,0,.688-3.786c0-1.721.172-2.237.172-6.368a50.85,50.85,0,0,0-.172-6.368,10.625,10.625,0,0,0-.688-3.786A6.737,6.737,0,0,0,28.4,2.581,6.737,6.737,0,0,0,25.643.86,10.625,10.625,0,0,0,21.856.172,50.85,50.85,0,0,0,15.489,0m0,7.572a7.789,7.789,0,0,0-7.916,7.916,7.916,7.916,0,1,0,7.916-7.916m0,13.079a5.071,5.071,0,0,1-5.163-5.163,5.071,5.071,0,0,1,5.163-5.163,5.071,5.071,0,0,1,5.163,5.163,5.071,5.071,0,0,1-5.163,5.163M23.749,5.335a1.893,1.893,0,1,0,1.893,1.893,1.91,1.91,0,0,0-1.893-1.893" fill="#343434" fill-rule="evenodd"/>
</svg>
