<svg xmlns="http://www.w3.org/2000/svg" width="118.496" height="99" viewBox="0 0 118.496 78.618">
  <g id="noun-partner-3082015" transform="translate(0 -57.821)">
    <path id="Tracé_1731" data-name="Tracé 1731" d="M117.727,59.046a2.051,2.051,0,0,1-1.049,2.707l-20.21,8.929,10.308,27.366,1.985,4.178,7.07-2.2a2.053,2.053,0,1,1,1.219,3.921l-8.771,2.724a2.054,2.054,0,0,1-2.465-1.08l-2.021-4.256-1.546.481-1.11,5.013a7.226,7.226,0,0,1,1.486,2.574,9.376,9.376,0,0,1-.486,6.007c-1.089,3.056-4.217,3.661-6.406,3.669a17.769,17.769,0,0,1-3.653-.409,8.092,8.092,0,0,1-.92,2.972,7.14,7.14,0,0,1-3.735,3.207,12.617,12.617,0,0,1-6.147.569,11.945,11.945,0,0,1-2.167,4.452,7.9,7.9,0,0,1-4.837,2.851,14.451,14.451,0,0,1-7.989-1.339,8.44,8.44,0,0,1-1.848,2.771,6.025,6.025,0,0,1-4.29,1.72,10.012,10.012,0,0,1-5.46-1.939,14.722,14.722,0,0,1-3.585,1.888,7.376,7.376,0,0,1-5.556.112,7.533,7.533,0,0,1-4.109-4.177l-.018-.054c-.333,0-.693-.01-1.07-.036a8.841,8.841,0,0,1-5.81-2.314,12.69,12.69,0,0,1-2.7-4.561c-.068-.192-.129-.378-.184-.554-.4.006-.847,0-1.32-.034a8.842,8.842,0,0,1-5.81-2.315A8.828,8.828,0,0,1,22.445,116c-.013-.475,0-.924.021-1.328-.175-.062-.358-.13-.548-.206a12.71,12.71,0,0,1-4.449-2.884A7.1,7.1,0,0,1,16,105.1a10.564,10.564,0,0,1,1.137-2.989l-3.563-2.393-2.246,6.516a2.054,2.054,0,0,1-2.758,1.215l-7.333-3.176a2.053,2.053,0,1,1,1.633-3.767l5.3,2.295L19.305,70.5,1.2,62.234A2.053,2.053,0,1,1,2.907,58.5l19.8,9.04a2.052,2.052,0,0,1,1.088,2.536l-.307.891L35.4,73a2.053,2.053,0,1,1-.692,4.047L22.131,74.9,14.96,95.7l5.315,3.57a11.352,11.352,0,0,1,3.218-.926,6.7,6.7,0,0,1,5.829,1.866l.064.067a14.129,14.129,0,0,1,2.216,2.768,8.047,8.047,0,0,1,.67,1.52c2.293-.266,4.908.862,7.065,3.109a7.687,7.687,0,0,1,1.972,3.436,10.589,10.589,0,0,1,1.464.071,8.428,8.428,0,0,1,5.158,2.476,11.241,11.241,0,0,1,2.612,4.563,8.318,8.318,0,0,1,.309,2.153c.083.013.165.028.248.046,3.762.833,6.356,2.5,7.09,5.233a7.12,7.12,0,0,1-.8,5.148,5.663,5.663,0,0,0,2.765.969,1.926,1.926,0,0,0,1.429-.57,6.328,6.328,0,0,0,1.476-3.147,2.053,2.053,0,0,1,2.954-1.344c2.814,1.479,5.524,2.333,7.535,1.973a3.8,3.8,0,0,0,2.377-1.4A8.266,8.266,0,0,0,77.4,124l-5.969-3.747a2.053,2.053,0,1,1,2.185-3.477l6.9,4.333a9.694,9.694,0,0,0,5.4-.077,3.041,3.041,0,0,0,1.642-1.366,4.908,4.908,0,0,0,.481-2.566l-7.8-5.43a2.053,2.053,0,1,1,2.348-3.369l8.36,5.82a16.065,16.065,0,0,0,4.769.855c1.879-.007,2.406-.537,2.55-.94a5.465,5.465,0,0,0,.433-3.411,4.011,4.011,0,0,0-1.082-1.553L66.29,91.154a2.053,2.053,0,1,1,2.04-3.563l29.165,16.682,1-4.5a2.053,2.053,0,0,1,1.4-1.517l2.306-.716-8.449-22.43-8.205,2.1a2.053,2.053,0,0,1-2.562-2.031L83,74.108l-23.513-3.1L43.121,81.437c-.534,1.918-1.3,4.51-2.082,6.848-.446,1.331-.907,2.611-1.343,3.647-.175.416-.353.812-.533,1.168a6.648,6.648,0,0,0,2.636.594,6.34,6.34,0,0,0,3.915-1.229,11.221,11.221,0,0,0,3.717-5.56A2.053,2.053,0,0,1,51,85.574l7.29-1.3a2.053,2.053,0,1,1,.723,4.042l-6.152,1.1a14.557,14.557,0,0,1-4.739,6.378,10.621,10.621,0,0,1-11.442.637,5.114,5.114,0,0,1-1.659-1.492,2.817,2.817,0,0,1-.481-1.449,2.451,2.451,0,0,1,.713-1.816c.009-.015.063-.091.159-.268.138-.254.3-.607.493-1.059.379-.9.8-2.07,1.234-3.359.861-2.572,1.709-5.491,2.226-7.391a2.054,2.054,0,0,1,.878-1.193L57.908,67.146a2.053,2.053,0,0,1,1.373-.3l26.078,3.436a2.053,2.053,0,0,1,1.785,2.077l0,.2,5.15-1.316-.35-.93a2.052,2.052,0,0,1,1.092-2.6L115.018,58a2.053,2.053,0,0,1,2.708,1.047Zm-64.621,70.9c1.047-1.477,1.289-2.578,1.116-3.222-.13-.484-.764-1.566-3.983-2.284a.9.9,0,0,0-.233.079,4.321,4.321,0,0,0-1.022.723,18.456,18.456,0,0,0-2.713,3.3c-.378.562-.687,1.065-.9,1.425l-.114.192a1.261,1.261,0,0,0,.063.267c.106.309.482,1.065,2.035,1.828a3.754,3.754,0,0,0,2.368-.295,10.445,10.445,0,0,0,3.385-2.015Zm-11.1-2.356c.227-.372.515-.831.851-1.332a22.972,22.972,0,0,1,3.245-3.948,3.233,3.233,0,0,0,.479-2.989,7.14,7.14,0,0,0-1.617-2.815m-2.959,11.084a12.243,12.243,0,0,1-1.383-.012,4.9,4.9,0,0,1-3.126-1.062,8.63,8.63,0,0,1-1.791-3.08c-.1-.3-.187-.572-.252-.81.178-.2.37-.407.573-.629a23.663,23.663,0,0,0,4.692-6.731,6.712,6.712,0,0,1,1.562,0,4.337,4.337,0,0,1,2.683,1.242m-12.783,3.61c.394-.462.792-.9,1.184-1.326a16.312,16.312,0,0,0,3.916-5.993c.163-.458.058-1.266-.91-2.273-2.466-2.567-4.03-1.825-4.327-1.541l-5.42,5.2a12.269,12.269,0,0,0-.078,1.711,4.9,4.9,0,0,0,.934,3.159,4.912,4.912,0,0,0,3.126,1.062,12.3,12.3,0,0,0,1.574,0Zm-3.646-13.456a4.005,4.005,0,0,0-.507-1.579,10.693,10.693,0,0,0-1.672-2.021A2.625,2.625,0,0,0,24,102.422a7.5,7.5,0,0,0-2.683.927,5.255,5.255,0,0,0-1.295,2.611,3.092,3.092,0,0,0,.413,2.784,8.647,8.647,0,0,0,3.007,1.914c.243.1.47.178.675.245Z" transform="translate(0)" fill="#98984b" fill-rule="evenodd"/>
  </g>
</svg>
