<svg xmlns="http://www.w3.org/2000/svg" width="118.496" height="99" viewBox="0 0 118.496 80.924">
  <g id="noun-people-768961" transform="translate(-93.785 -131.603)">
    <path id="Tracé_1735" data-name="Tracé 1735" d="M234.057,159.086a11.3,11.3,0,0,0,3.665-8.4,11.452,11.452,0,1,0-22.9,0,11.3,11.3,0,0,0,3.665,8.4,20.664,20.664,0,0,0-12.673,16.491,46.28,46.28,0,0,0-9.772-4.275,21.164,21.164,0,0,0,10.382-18.323A21.376,21.376,0,1,0,174.05,171.3a35.188,35.188,0,0,0-9.772,4.275A20.666,20.666,0,0,0,151.6,159.086a11.3,11.3,0,0,0,3.665-8.4,11.452,11.452,0,1,0-22.9,0,11.3,11.3,0,0,0,3.665,8.4A20.738,20.738,0,0,0,123.2,178.173a2.29,2.29,0,0,0,4.58,0,16.032,16.032,0,1,1,32.064,0v.458a40.343,40.343,0,0,0-15.269,31.607,2.29,2.29,0,1,0,4.58,0,35.882,35.882,0,1,1,71.764,0,2.29,2.29,0,0,0,4.58,0,40.116,40.116,0,0,0-15.269-31.607v-.458a16.033,16.033,0,1,1,32.065,0,2.29,2.29,0,1,0,4.58,0,20.739,20.739,0,0,0-12.825-19.086Zm-97.111-8.4a6.871,6.871,0,1,1,6.871,6.871A6.842,6.842,0,0,1,136.946,150.689Zm31.3,2.29a16.8,16.8,0,1,1,16.8,16.8A16.748,16.748,0,0,1,168.247,152.979Zm51.151-2.29a6.871,6.871,0,1,1,6.871,6.871A6.842,6.842,0,0,1,219.4,150.689Z" transform="translate(-29.42)" fill="#98984b"/>
  </g>
</svg>
