<svg xmlns="http://www.w3.org/2000/svg" width="38.192" height="30.978" viewBox="0 0 38.192 30.978">
  <path id="Tracé_2" data-name="Tracé 2" d="M50.094,32.978c14.428,0,22.279-11.882,22.279-22.279V9.638a17.247,17.247,0,0,0,3.819-4.031A17.613,17.613,0,0,1,71.736,6.88a8.255,8.255,0,0,0,3.395-4.244,19.461,19.461,0,0,1-4.88,1.91A7.578,7.578,0,0,0,64.522,2a7.972,7.972,0,0,0-7.851,7.851,4.136,4.136,0,0,0,.212,1.7A21.937,21.937,0,0,1,40.758,3.273,8.126,8.126,0,0,0,39.7,7.3a8.43,8.43,0,0,0,3.395,6.577,7.153,7.153,0,0,1-3.607-1.061h0a7.754,7.754,0,0,0,6.365,7.638,6.541,6.541,0,0,1-2.122.212,3.611,3.611,0,0,1-1.485-.212,8.038,8.038,0,0,0,7.426,5.517,16.02,16.02,0,0,1-9.76,3.395A5.874,5.874,0,0,1,38,29.159a20.027,20.027,0,0,0,12.094,3.819" transform="translate(-38 -2)" fill="#343434" fill-rule="evenodd"/>
</svg>
