<svg xmlns="http://www.w3.org/2000/svg" width="169.385" height="154.814" viewBox="0 0 169.385 154.814">
  <g id="Groupe_2089" data-name="Groupe 2089" transform="translate(-1262.5 -1336.381)">
    <path id="Tracé_1693" data-name="Tracé 1693" d="M3675.088-497v48.1l31.471-8.036,70.414,33.493,64.5-30.5s-4.386-13-16.136-12.727-42.523,17.765-42.523,17.765,5.822-12.933-14.661-22.363S3714.111-497,3714.111-497Z" transform="translate(-2411.088 1913.141)" fill="none" stroke="#989751" stroke-linecap="round" stroke-linejoin="round" stroke-width="3"/>
    <path id="Tracé_1694" data-name="Tracé 1694" d="M3709.181-481.455l42.527,19.836" transform="translate(-2381.361 1924.824)" fill="none" stroke="#989751" stroke-linecap="round" stroke-width="3"/>
    <path id="Tracé_1695" data-name="Tracé 1695" d="M3738.217-450.735s32.738-1.431,32.976-29.141-32.976-58.6-32.976-58.6" transform="translate(-2354.889 1876.977)" fill="none" stroke="#000" stroke-linejoin="round" stroke-width="3"/>
    <path id="Tracé_1696" data-name="Tracé 1696" d="M3771.194-538.476s-33.212,30.888-32.975,58.6,32.975,29.141,32.975,29.141v-59.939" transform="translate(-2387.865 1876.977)" fill="none" stroke="#000" stroke-linecap="round" stroke-linejoin="round" stroke-width="3"/>
    <path id="Tracé_1697" data-name="Tracé 1697" d="M3729.511-512.05l17.013,14.255" transform="translate(-2363.634 1900.018)" fill="none" stroke="#000" stroke-width="3"/>
  </g>
</svg>
