<svg id="Groupe_835" data-name="Groupe 835" xmlns="http://www.w3.org/2000/svg" xmlns:xlink="http://www.w3.org/1999/xlink" width="69.112" height="59.395" viewBox="0 0 69.112 59.395">
  <defs>
    <clipPath id="clip-path">
      <rect id="Rectangle_2911" data-name="Rectangle 2911" width="69.112" height="59.395" fill="#fff"/>
    </clipPath>
  </defs>
  <g id="Groupe_834" data-name="Groupe 834" transform="translate(0 0)" clip-path="url(#clip-path)">
    <path id="Tracé_1413" data-name="Tracé 1413" d="M69.1,15.413c0-3.513-2.144-5.673-5.629-5.676q-7.4,0-14.8,0h-1.13c0-.806.011-1.489,0-2.174A7.513,7.513,0,0,0,40.1.041Q34.524-.042,28.945.046a7.364,7.364,0,0,0-7.264,6.6c-.118.976-.115,1.964-.175,3.085H20.363c-5,0-10-.008-15,0A5.209,5.209,0,0,0,.006,15.1Q-.011,26.988,0,38.88A5.531,5.531,0,0,0,1.65,42.864a1.9,1.9,0,0,1,.494,1.168c.038,3.39,0,6.779.03,10.165a4.722,4.722,0,0,0,2.537,4.388A7.135,7.135,0,0,0,7.9,59.36q26.644.069,53.29.033c.23,0,.461-.006.691-.019a5.178,5.178,0,0,0,5.054-5.35c.008-3.323-.011-6.647.022-9.967a1.7,1.7,0,0,1,.419-1.108A5.657,5.657,0,0,0,69.111,38.7c-.022-7.766-.008-15.529-.008-23.291M64.845,42.949c.217.417.148,1.089,0,1.108-4.887,0-17.623.018-25.477.018v4.832c-2.839,0-5.937-.051-7.936,0V44.075c-23.517.028-25.026.069-25.588-.043V42.864M45.376,9.685H23.881c-.944-4.837,2.207-7.659,5.717-7.516,3.253.129,6.518.131,9.77,0a5.587,5.587,0,0,1,6.01,6.019" transform="translate(0 0)" fill="#fff"/>
  </g>
</svg>
