<svg xmlns="http://www.w3.org/2000/svg" width="32.615" height="30.253" viewBox="0 0 32.615 30.253">
  <g id="noun-company-2468421" transform="translate(-72.154 -75.41)">
    <path id="Tracé_1495" data-name="Tracé 1495" d="M126.21,82.354h10.468v20.309H126.21Zm20.214-9.944h12.4v30.253H148.97V86.278h-2.546V72.41Zm2,2.5h1.744v1.744H148.42Zm3.332,0H153.5v1.744h-1.744Zm3.332,0h1.744v1.744h-1.744ZM148.42,78.76h1.744V80.5H148.42Zm3.332,0H153.5V80.5h-1.744Zm3.332,0h1.744V80.5h-1.744Zm-6.665,3.847h1.744V84.35H148.42Zm3.332,0H153.5V84.35h-1.744Zm3.332,0h1.744V84.35h-1.744Zm-3.332,3.865H153.5v1.743h-1.744Zm3.332,0h1.744v1.743h-1.744Zm-3.332,3.865H153.5V92.08h-1.744Zm3.332,0h1.744V92.08h-1.744ZM151.752,94.2H153.5v1.743h-1.744Zm3.332,0h1.744v1.743h-1.744ZM132.509,74.4h13.01v11.88H137.65V81.408h-5.142Zm5.077,12.782h10.468v15.483H137.586Zm1.03,3.023h1.743v1.743h-1.743Zm3.332,0h1.744v1.743h-1.744Zm3.332,0h1.744v1.743H145.28Zm-6.665,3.847h1.743v1.743h-1.743Zm3.332,0h1.744v1.743h-1.744Zm3.332,0h1.744v1.743H145.28ZM138.616,97.9h1.743V99.64h-1.743Zm3.332,0h1.744V99.64h-1.744Zm3.332,0h1.744V99.64H145.28ZM127.239,84.575h1.744v1.744h-1.744Zm3.332,0h1.744v1.744h-1.744Zm3.332,0h1.744v1.744H133.9Zm-6.665,3.847h1.744v1.743h-1.744Zm3.332,0h1.744v1.743h-1.744Zm3.332,0h1.744v1.743H133.9Zm-6.665,3.846h1.744v1.743h-1.744Zm3.332,0h1.744v1.743h-1.744Zm3.332,0h1.744v1.743H133.9Z" transform="translate(-54.056 3)" fill-rule="evenodd"/>
  </g>
</svg>
