<svg xmlns="http://www.w3.org/2000/svg" width="25.32" height="33.801" viewBox="0 0 25.32 33.801">
  <g id="noun-location-2443033" transform="translate(-140.278 -0.006)">
    <path id="Tracé_1491" data-name="Tracé 1491" d="M152.669,33.807a1.883,1.883,0,0,1-.815-.733c-3.14-4.445-6.3-8.873-9.427-13.331a11.921,11.921,0,0,1-2.089-5.78,12.521,12.521,0,0,1,7.355-12.756,12.228,12.228,0,0,1,13.429,1.886A12.013,12.013,0,0,1,165.5,11.2a12.4,12.4,0,0,1-2.312,8.924Q158.625,26.55,154.059,33a1.981,1.981,0,0,1-.862.811Zm4.479-21.078a4.239,4.239,0,1,0-1.273,2.991,4.219,4.219,0,0,0,1.273-2.991Z" transform="translate(0 0)"/>
  </g>
</svg>
