<svg xmlns="http://www.w3.org/2000/svg" width="27.375" height="44.794" viewBox="0 0 27.375 44.794">
  <g id="noun-walk-1826969" transform="translate(-187.094 -13.724)">
    <path id="Tracé_1492" data-name="Tracé 1492" d="M228.119,375.2l3.813,3.813-3.3,8.9a2.48,2.48,0,0,1-2.307,1.6,2.662,2.662,0,0,1-.847-.141,2.46,2.46,0,0,1-1.459-3.154Z" transform="translate(-33.686 -331.087)"/>
    <path id="Tracé_1493" data-name="Tracé 1493" d="M187.324,149.39l2.26-4.331a7.217,7.217,0,0,1,2.589-2.731c5.226-3.107,5.885-3.06,6.544-3.013l3.531.235c1.083.047,1.836.33,5.461,5.649a.921.921,0,0,0,.612.377l4.331.659a2.144,2.144,0,1,1-.659,4.237l-4.331-.659a5.206,5.206,0,0,1-3.484-2.166c-.188-.282-.33-.518-.518-.753l-2.777,8.8,3.861,3.861a5.984,5.984,0,0,1,1.318,2.071l2.966,8.662a2.415,2.415,0,0,1-1.507,3.107,2.389,2.389,0,0,1-.8.141,2.539,2.539,0,0,1-2.354-1.648l-2.966-8.662c-.047-.094-.094-.141-.141-.235l-6.874-6.92A3.968,3.968,0,0,1,193.3,152.4l1.507-6.685a4.129,4.129,0,0,1-.471.282,2.619,2.619,0,0,0-.989,1.036l-2.26,4.331a2.161,2.161,0,0,1-1.883,1.13,2.531,2.531,0,0,1-.989-.235,2.162,2.162,0,0,1-.895-2.872Z" transform="translate(0 -115.022)"/>
    <path id="Tracé_1494" data-name="Tracé 1494" d="M303.688,13.753a4.755,4.755,0,1,1-5.241,4.212,4.754,4.754,0,0,1,5.241-4.212" transform="translate(-101.966 0)"/>
  </g>
</svg>
