<svg xmlns="http://www.w3.org/2000/svg" xmlns:xlink="http://www.w3.org/1999/xlink" width="33" height="33.001" viewBox="0 0 33 33.001">
  <defs>
    <clipPath id="clip-path">
      <path id="Icon" d="M24.363,33H5.49a6.24,6.24,0,0,1-3.3-.571A3.877,3.877,0,0,1,.573,30.81,6.237,6.237,0,0,1,0,27.511V8.635a6.237,6.237,0,0,1,.573-3.3A3.875,3.875,0,0,1,2.191,3.718a6.237,6.237,0,0,1,3.3-.573H24.363c.454,0,.849.012,1.208.035L8.99,19.731a9.282,9.282,0,0,1,2.473,1.8,9.262,9.262,0,0,1,1.8,2.473L29.815,7.431c.027.354.039.748.039,1.2V27.511a6.237,6.237,0,0,1-.573,3.3,3.883,3.883,0,0,1-1.619,1.619A6.232,6.232,0,0,1,24.363,33ZM7.317,21.4h0l-.443.443A2.488,2.488,0,0,0,6.3,22.929l-.945,4.719,4.719-.945a2.466,2.466,0,0,0,1.083-.577l.444-.444-.011-.034-.024-.072A6.482,6.482,0,0,0,9.949,23.05a6.481,6.481,0,0,0-2.526-1.615L7.317,21.4ZM29.817,7.43v0a4.666,4.666,0,0,0-.535-2.09,3.882,3.882,0,0,0-1.619-1.618,4.688,4.688,0,0,0-2.092-.537L27.887.869a3,3,0,0,1,4.233.01,3,3,0,0,1,.011,4.233L29.819,7.427Z" transform="translate(0 0)"/>
    </clipPath>
  </defs>
  <g id="Groupe_110" data-name="Groupe 110" transform="translate(-4.5 -2.998)">
    <path id="Icon-2" data-name="Icon" d="M24.363,33H5.49a6.24,6.24,0,0,1-3.3-.571A3.877,3.877,0,0,1,.573,30.81,6.237,6.237,0,0,1,0,27.511V8.635a6.237,6.237,0,0,1,.573-3.3A3.875,3.875,0,0,1,2.191,3.718a6.237,6.237,0,0,1,3.3-.573H24.363c.454,0,.849.012,1.208.035L8.99,19.731a9.282,9.282,0,0,1,2.473,1.8,9.262,9.262,0,0,1,1.8,2.473L29.815,7.431c.027.354.039.748.039,1.2V27.511a6.237,6.237,0,0,1-.573,3.3,3.883,3.883,0,0,1-1.619,1.619A6.232,6.232,0,0,1,24.363,33ZM7.317,21.4h0l-.443.443A2.488,2.488,0,0,0,6.3,22.929l-.945,4.719,4.719-.945a2.466,2.466,0,0,0,1.083-.577l.444-.444-.011-.034-.024-.072A6.482,6.482,0,0,0,9.949,23.05a6.481,6.481,0,0,0-2.526-1.615L7.317,21.4ZM29.817,7.43v0a4.666,4.666,0,0,0-.535-2.09,3.882,3.882,0,0,0-1.619-1.618,4.688,4.688,0,0,0-2.092-.537L27.887.869a3,3,0,0,1,4.233.01,3,3,0,0,1,.011,4.233L29.819,7.427Z" transform="translate(4.5 2.998)"/>
  </g>
</svg>
