<?xml version="1.0" encoding="UTF-8"?><svg id="Calque_1" xmlns="http://www.w3.org/2000/svg" viewBox="0 0 520.39 203.72"><g><circle cx="123.79" cy="113.21" r="5.78"/><circle cx="140.69" cy="62.64" r="5.78"/><circle cx="140.69" cy="79.5" r="5.78"/><circle cx="157.58" cy="62.64" r="5.78"/><circle cx="157.58" cy="79.5" r="5.78"/><circle cx="140.69" cy="96.36" r="5.78"/><circle cx="140.69" cy="113.21" r="5.78"/><circle cx="123.83" cy="130.07" r="5.78"/><circle cx="106.97" cy="146.93" r="5.78"/></g><g><circle cx="106.93" cy="45.78" r="5.78"/><circle cx="106.93" cy="62.64" r="5.78"/><circle cx="157.15" cy="5.78" r="5.78"/><circle cx="157.15" cy="22.64" r="5.78"/><circle cx="140.26" cy="5.78" r="5.78"/><circle cx="123.79" cy="62.64" r="5.78"/><circle cx="174.37" cy="62.64" r="5.78"/><circle cx="106.93" cy="79.5" r="5.78"/><circle cx="123.79" cy="79.5" r="5.78"/><circle cx="174.37" cy="79.5" r="5.78"/><circle cx="106.93" cy="96.36" r="5.78"/><circle cx="123.79" cy="96.36" r="5.78"/><circle cx="157.51" cy="96.36" r="5.78"/><circle cx="174.37" cy="96.36" r="5.78"/><circle cx="191.23" cy="96.36" r="5.78"/><circle cx="208.09" cy="96.36" r="5.78"/><circle cx="56.36" cy="113.21" r="5.78"/><circle cx="73.21" cy="113.21" r="5.78"/><circle cx="90.07" cy="113.21" r="5.78"/><circle cx="106.93" cy="113.21" r="5.78"/><circle cx="157.51" cy="113.21" r="5.78"/><circle cx="174.37" cy="113.21" r="5.78"/><circle cx="191.23" cy="113.21" r="5.78"/><circle cx="208.09" cy="113.21" r="5.78"/><circle cx="39.5" cy="130.07" r="5.78"/><circle cx="22.6" cy="130.07" r="5.78"/><circle cx="56.36" cy="130.07" r="5.78"/><circle cx="73.21" cy="130.07" r="5.78"/><circle cx="90.07" cy="130.07" r="5.78"/><circle cx="106.93" cy="130.07" r="5.78"/><circle cx="140.65" cy="130.07" r="5.78"/><circle cx="157.51" cy="130.07" r="5.78"/><circle cx="174.37" cy="130.07" r="5.78"/><circle cx="191.23" cy="130.07" r="5.78"/><circle cx="5.78" cy="146.93" r="5.78"/><circle cx="22.64" cy="146.93" r="5.78"/><circle cx="39.5" cy="146.93" r="5.78"/><circle cx="56.36" cy="146.93" r="5.78"/><circle cx="73.21" cy="146.93" r="5.78"/><circle cx="90.07" cy="146.93" r="5.78"/><circle cx="123.79" cy="146.93" r="5.78"/><circle cx="140.65" cy="146.93" r="5.78"/><circle cx="157.51" cy="146.93" r="5.78"/><circle cx="174.37" cy="146.93" r="5.78"/><circle cx="22.64" cy="163.79" r="5.78"/><circle cx="39.5" cy="163.79" r="5.78"/><circle cx="56.36" cy="163.79" r="5.78"/><circle cx="73.21" cy="163.79" r="5.78"/><circle cx="90.07" cy="163.79" r="5.78"/><circle cx="106.93" cy="163.79" r="5.78"/><circle cx="123.79" cy="163.79" r="5.78"/><circle cx="140.65" cy="163.79" r="5.78"/><circle cx="157.51" cy="163.79" r="5.78"/><circle cx="22.64" cy="180.65" r="5.78"/><circle cx="39.5" cy="180.65" r="5.78"/><circle cx="56.36" cy="180.65" r="5.78"/><circle cx="73.21" cy="180.65" r="5.78"/><circle cx="90.07" cy="180.65" r="5.78"/><circle cx="106.93" cy="180.65" r="5.78"/><circle cx="123.79" cy="180.65" r="5.78"/><circle cx="5.78" cy="197.51" r="5.78"/><circle cx="22.64" cy="197.51" r="5.78"/><circle cx="39.5" cy="197.51" r="5.78"/><circle cx="106.93" cy="197.51" r="5.78"/></g><g><path d="M264.34,145.02c-.27-.27-.41-.62-.41-1.03v-34.61c0-.45,.14-.8,.41-1.06,.27-.26,.62-.38,1.03-.38h9.6c2.3,0,4.37,.51,6.19,1.54,1.82,1.02,3.25,2.45,4.27,4.27,1.02,1.82,1.54,3.89,1.54,6.19s-.51,4.42-1.54,6.24c-1.03,1.82-2.45,3.25-4.27,4.27-1.82,1.02-3.89,1.54-6.19,1.54h-8.16v12c0,.42-.13,.76-.38,1.03-.26,.27-.61,.41-1.06,.41-.42,0-.76-.14-1.03-.41Zm10.63-15.91c1.76,0,3.33-.39,4.7-1.18s2.46-1.87,3.24-3.26,1.18-2.97,1.18-4.73-.39-3.33-1.18-4.71c-.78-1.38-1.86-2.46-3.24-3.24-1.38-.78-2.94-1.18-4.7-1.18h-8.16v18.29h8.16Z"/><path d="M292.66,143.22c-1.17-1.47-1.75-3.38-1.75-5.71v-28.13c0-.45,.14-.8,.41-1.06,.27-.26,.62-.38,1.03-.38,.45,0,.8,.13,1.06,.38,.26,.26,.38,.61,.38,1.06v28.13c0,1.47,.31,2.68,.94,3.62,.62,.94,1.43,1.42,2.42,1.42h1.2c.35,0,.64,.13,.86,.38,.22,.26,.34,.61,.34,1.06,0,.42-.13,.76-.38,1.03-.26,.27-.61,.41-1.06,.41h-.96c-1.82,0-3.32-.74-4.49-2.21Z"/><path d="M322.54,120.64c2.05,1.17,3.65,2.78,4.82,4.82,1.17,2.05,1.75,4.34,1.75,6.86v11.66c0,.42-.13,.76-.38,1.03-.26,.27-.61,.41-1.06,.41-.42,0-.76-.14-1.03-.41-.27-.27-.41-.62-.41-1.03v-3.74c-1.06,1.7-2.5,3.03-4.34,4.01-1.84,.98-3.9,1.46-6.17,1.46-2.53,0-4.82-.58-6.86-1.75s-3.66-2.78-4.82-4.82c-1.17-2.05-1.75-4.32-1.75-6.82s.58-4.82,1.75-6.86c1.17-2.05,2.78-3.66,4.82-4.82s4.34-1.75,6.86-1.75,4.77,.58,6.82,1.75Zm-1.44,21c1.6-.93,2.86-2.21,3.77-3.84,.91-1.63,1.37-3.46,1.37-5.47s-.46-3.84-1.37-5.47-2.17-2.92-3.77-3.86c-1.6-.94-3.39-1.42-5.38-1.42s-3.78,.47-5.38,1.42c-1.6,.95-2.86,2.23-3.79,3.86-.93,1.63-1.39,3.46-1.39,5.47s.46,3.84,1.39,5.47c.93,1.63,2.19,2.91,3.79,3.84,1.6,.93,3.39,1.39,5.38,1.39s3.78-.46,5.38-1.39Z"/><path d="M348.63,142.91c.27,.27,.41,.63,.41,1.08,0,.42-.14,.76-.41,1.03s-.63,.41-1.08,.41h-1.1c-1.76,0-3.33-.4-4.7-1.2-1.38-.8-2.45-1.9-3.22-3.29-.77-1.39-1.15-2.97-1.15-4.73v-13.49h-3.74c-.38,0-.7-.12-.94-.36-.24-.24-.36-.55-.36-.94s.12-.7,.36-.94c.24-.24,.55-.36,.94-.36h3.74v-7.82c0-.45,.14-.81,.41-1.08s.62-.41,1.03-.41c.45,0,.81,.14,1.08,.41,.27,.27,.41,.63,.41,1.08v7.82h6.34c.38,0,.7,.12,.94,.36,.24,.24,.36,.55,.36,.94s-.12,.7-.36,.94c-.24,.24-.55,.36-.94,.36h-6.34v13.49c0,1.86,.58,3.37,1.73,4.54,1.15,1.17,2.64,1.75,4.46,1.75h1.06c.45,0,.81,.14,1.08,.41Z"/><path d="M371.57,120.59c1.84,1.1,3.27,2.63,4.29,4.58,1.02,1.95,1.54,4.18,1.54,6.67,0,.42-.13,.74-.38,.98-.26,.24-.59,.36-1.01,.36h-20.11c.1,1.89,.59,3.58,1.49,5.06,.9,1.49,2.1,2.65,3.6,3.48,1.5,.83,3.18,1.25,5.04,1.25,1.25,0,2.5-.22,3.77-.65,1.26-.43,2.26-1,3-1.7,.32-.26,.66-.38,1.01-.38s.64,.1,.86,.29c.35,.29,.53,.62,.53,1.01,0,.32-.14,.62-.43,.91-1.02,.93-2.36,1.7-4.01,2.3-1.65,.61-3.22,.91-4.73,.91-2.53,0-4.78-.57-6.74-1.7-1.97-1.14-3.51-2.72-4.63-4.75-1.12-2.03-1.68-4.33-1.68-6.89s.52-4.9,1.56-6.94c1.04-2.03,2.5-3.62,4.37-4.75,1.87-1.14,4.01-1.7,6.41-1.7s4.42,.55,6.26,1.66Zm-12.58,3.53c-1.71,1.66-2.73,3.86-3.05,6.58h18.67c-.22-2.72-1.18-4.91-2.88-6.58-1.7-1.66-3.84-2.5-6.43-2.5s-4.6,.83-6.31,2.5Z"/><path d="M389.69,112.86c-1.06,1.55-1.58,3.64-1.58,6.26v1.01h6.34c.38,0,.7,.12,.94,.36,.24,.24,.36,.55,.36,.94s-.12,.7-.36,.94c-.24,.24-.55,.36-.94,.36h-6.34v21.26c0,.42-.14,.76-.41,1.03s-.63,.41-1.08,.41c-.42,0-.76-.14-1.03-.41-.27-.27-.41-.62-.41-1.03v-21.26h-3.74c-.38,0-.7-.12-.94-.36-.24-.24-.36-.55-.36-.94s.12-.7,.36-.94c.24-.24,.55-.36,.94-.36h3.74v-1.01c0-3.42,.8-6.14,2.4-8.16,1.6-2.02,4-3.02,7.2-3.02,.42,0,.76,.12,1.03,.36,.27,.24,.41,.55,.41,.94s-.14,.7-.41,.94c-.27,.24-.62,.36-1.03,.36-2.34,0-4.03,.78-5.09,2.33Z"/><path d="M405.05,143.97c-2.05-1.17-3.66-2.78-4.82-4.82-1.17-2.05-1.75-4.32-1.75-6.82s.58-4.82,1.75-6.86,2.78-3.66,4.82-4.82c2.05-1.17,4.34-1.75,6.86-1.75s4.77,.58,6.82,1.75,3.66,2.78,4.82,4.82,1.75,4.34,1.75,6.86-.58,4.77-1.75,6.82c-1.17,2.05-2.78,3.66-4.82,4.82s-4.32,1.75-6.82,1.75-4.82-.58-6.86-1.75Zm12.24-2.33c1.6-.93,2.86-2.21,3.77-3.84,.91-1.63,1.37-3.46,1.37-5.47s-.46-3.84-1.37-5.47-2.17-2.92-3.77-3.86c-1.6-.94-3.39-1.42-5.38-1.42s-3.78,.47-5.38,1.42c-1.6,.95-2.87,2.23-3.79,3.86s-1.39,3.46-1.39,5.47,.46,3.84,1.39,5.47c.93,1.63,2.19,2.91,3.79,3.84,1.6,.93,3.39,1.39,5.38,1.39s3.78-.46,5.38-1.39Z"/><path d="M446.67,120.47c0,.16-.02,.29-.05,.38-.1,.35-.25,.6-.46,.74-.21,.14-.49,.22-.84,.22-.29,0-.66-.03-1.13-.1s-.86-.1-1.18-.1c-1.6,0-3.02,.34-4.27,1.01s-2.22,1.6-2.93,2.78c-.7,1.19-1.06,2.51-1.06,3.98v14.59c0,.42-.13,.76-.38,1.03-.26,.27-.61,.41-1.06,.41-.42,0-.76-.14-1.03-.41-.27-.27-.41-.62-.41-1.03v-23.38c0-.45,.14-.8,.41-1.06s.62-.38,1.03-.38c.45,0,.8,.13,1.06,.38s.38,.61,.38,1.06v2.98c.93-1.47,2.11-2.62,3.55-3.46s3.01-1.25,4.7-1.25c2.43,0,3.65,.53,3.65,1.58Z"/><path d="M485.12,120.28c1.5,.96,2.67,2.3,3.5,4.01s1.25,3.66,1.25,5.83v13.87c0,.42-.13,.76-.38,1.03-.26,.27-.61,.41-1.06,.41-.42,0-.76-.14-1.03-.41-.27-.27-.41-.62-.41-1.03v-13.87c0-2.46-.66-4.48-1.97-6.05-1.31-1.57-2.99-2.35-5.04-2.35-2.24,0-4.05,.74-5.42,2.21-1.38,1.47-2.03,3.42-1.97,5.86v14.21c0,.42-.13,.76-.38,1.03-.26,.27-.61,.41-1.06,.41-.42,0-.76-.14-1.03-.41-.27-.27-.41-.62-.41-1.03v-13.87c0-2.46-.66-4.48-1.97-6.05-1.31-1.57-2.99-2.35-5.04-2.35-2.21,0-4.02,.7-5.42,2.11s-2.11,3.23-2.11,5.47v14.69c0,.42-.13,.76-.38,1.03-.26,.27-.61,.41-1.06,.41-.42,0-.76-.14-1.03-.41-.27-.27-.41-.62-.41-1.03v-23.38c0-.45,.13-.8,.41-1.06,.27-.26,.62-.38,1.03-.38,.45,0,.8,.13,1.06,.38,.26,.26,.38,.61,.38,1.06v1.87c.9-1.15,2-2.05,3.31-2.69s2.72-.96,4.22-.96c1.86,0,3.52,.46,4.99,1.37,1.47,.91,2.64,2.17,3.5,3.77,.86-1.6,2.06-2.86,3.6-3.77s3.26-1.37,5.18-1.37,3.63,.48,5.14,1.44Z"/><path d="M514.56,120.59c1.84,1.1,3.27,2.63,4.3,4.58,1.02,1.95,1.54,4.18,1.54,6.67,0,.42-.13,.74-.38,.98-.26,.24-.59,.36-1.01,.36h-20.11c.1,1.89,.59,3.58,1.49,5.06,.9,1.49,2.1,2.65,3.6,3.48,1.5,.83,3.18,1.25,5.04,1.25,1.25,0,2.5-.22,3.77-.65,1.26-.43,2.26-1,3-1.7,.32-.26,.66-.38,1.01-.38s.64,.1,.86,.29c.35,.29,.53,.62,.53,1.01,0,.32-.14,.62-.43,.91-1.02,.93-2.36,1.7-4.01,2.3-1.65,.61-3.22,.91-4.73,.91-2.53,0-4.78-.57-6.74-1.7-1.97-1.14-3.51-2.72-4.63-4.75-1.12-2.03-1.68-4.33-1.68-6.89s.52-4.9,1.56-6.94c1.04-2.03,2.5-3.62,4.37-4.75,1.87-1.14,4.01-1.7,6.41-1.7s4.42,.55,6.26,1.66Zm-12.58,3.53c-1.71,1.66-2.73,3.86-3.05,6.58h18.67c-.22-2.72-1.18-4.91-2.88-6.58-1.7-1.66-3.84-2.5-6.43-2.5s-4.6,.83-6.31,2.5Z"/><path d="M219.73,166.33c.26,.26,.38,.61,.38,1.06v23.18c-.03,2.46-.64,4.7-1.82,6.72-1.18,2.02-2.79,3.59-4.82,4.73-2.03,1.14-4.28,1.7-6.74,1.7s-4.82-.58-6.86-1.75c-2.05-1.17-3.66-2.78-4.82-4.82-1.17-2.05-1.75-4.34-1.75-6.86s.58-4.77,1.75-6.82c1.17-2.05,2.78-3.66,4.82-4.82,2.05-1.17,4.34-1.75,6.86-1.75,2.27,0,4.33,.49,6.17,1.46,1.84,.98,3.29,2.31,4.34,4.01v-14.98c0-.45,.14-.8,.41-1.06,.27-.26,.62-.38,1.03-.38,.45,0,.8,.13,1.06,.38Zm-7.63,33.29c1.6-.94,2.86-2.23,3.77-3.87,.91-1.63,1.37-3.46,1.37-5.47s-.46-3.84-1.37-5.47-2.17-2.91-3.77-3.84-3.39-1.39-5.38-1.39-3.78,.46-5.38,1.39c-1.6,.93-2.86,2.21-3.79,3.84-.93,1.63-1.39,3.46-1.39,5.47s.46,3.84,1.39,5.47c.93,1.63,2.19,2.92,3.79,3.87,1.6,.94,3.39,1.42,5.38,1.42s3.78-.47,5.38-1.42Z"/><path d="M245.29,178.59c1.84,1.1,3.27,2.63,4.3,4.58,1.02,1.95,1.54,4.18,1.54,6.67,0,.42-.13,.74-.38,.98-.26,.24-.59,.36-1.01,.36h-20.11c.1,1.89,.59,3.58,1.49,5.06,.9,1.49,2.1,2.65,3.6,3.48,1.5,.83,3.18,1.25,5.04,1.25,1.25,0,2.5-.22,3.77-.65,1.26-.43,2.26-1,3-1.7,.32-.26,.66-.38,1.01-.38s.64,.1,.86,.29c.35,.29,.53,.62,.53,1.01,0,.32-.14,.62-.43,.91-1.02,.93-2.36,1.7-4.01,2.3-1.65,.61-3.22,.91-4.73,.91-2.53,0-4.78-.57-6.74-1.7-1.97-1.14-3.51-2.72-4.63-4.75-1.12-2.03-1.68-4.33-1.68-6.89s.52-4.9,1.56-6.94c1.04-2.03,2.5-3.62,4.37-4.75,1.87-1.14,4.01-1.7,6.41-1.7s4.42,.55,6.26,1.66Zm-12.58,3.53c-1.71,1.66-2.73,3.86-3.05,6.58h18.67c-.22-2.72-1.18-4.91-2.88-6.58-1.7-1.66-3.84-2.5-6.43-2.5s-4.6,.83-6.31,2.5Z"/><path d="M260.24,202.73c-1.76-.66-3.22-1.66-4.37-3-.22-.26-.34-.54-.34-.86,0-.45,.21-.82,.62-1.1,.19-.16,.46-.24,.82-.24,.45,0,.82,.18,1.1,.53,1.6,1.95,4.18,2.93,7.73,2.93,2.53,0,4.39-.45,5.59-1.34,1.2-.9,1.8-2.05,1.8-3.46,0-2.53-2.45-4.14-7.34-4.85-3.1-.45-5.45-1.29-7.03-2.54s-2.38-2.75-2.38-4.51c0-2.34,.86-4.15,2.57-5.45,1.71-1.29,3.94-1.94,6.7-1.94,4.03,0,7.09,1.44,9.17,4.32,.19,.22,.29,.5,.29,.82,0,.45-.26,.82-.77,1.1-.32,.13-.56,.19-.72,.19-.48,0-.88-.21-1.2-.62-1.63-2.08-3.92-3.12-6.86-3.12-1.95,0-3.5,.42-4.66,1.27-1.15,.85-1.73,1.9-1.73,3.14s.55,2.3,1.66,3.07,2.95,1.34,5.54,1.73c3.39,.48,5.83,1.38,7.32,2.71,1.49,1.33,2.23,2.94,2.23,4.82,0,1.47-.47,2.77-1.42,3.89-.94,1.12-2.2,1.98-3.77,2.59-1.57,.61-3.28,.91-5.14,.91s-3.66-.33-5.42-.98Z"/><path d="M296.05,171.01c-.42-.43-.62-.97-.62-1.61,0-.7,.22-1.25,.67-1.63s.98-.58,1.58-.58,1.13,.19,1.56,.58,.65,.93,.65,1.63c0,.64-.22,1.18-.65,1.61-.43,.43-.97,.65-1.61,.65s-1.17-.22-1.58-.65Zm.6,32.02c-.27-.27-.41-.62-.41-1.03v-23.38c0-.45,.14-.8,.41-1.06,.27-.26,.62-.38,1.03-.38,.45,0,.8,.13,1.06,.38s.38,.61,.38,1.06v23.38c0,.42-.13,.76-.38,1.03-.26,.27-.61,.41-1.06,.41-.42,0-.76-.14-1.03-.41Z"/><path d="M326.36,178.28c1.84,.96,3.28,2.36,4.32,4.2,1.04,1.84,1.56,4.04,1.56,6.6v12.91c0,.42-.14,.76-.41,1.03-.27,.27-.62,.41-1.03,.41s-.76-.14-1.03-.41c-.27-.27-.41-.62-.41-1.03v-12.91c0-3.04-.86-5.36-2.57-6.96-1.71-1.6-3.95-2.4-6.7-2.4-1.7,0-3.24,.33-4.63,.98-1.39,.66-2.49,1.57-3.29,2.74-.8,1.17-1.2,2.46-1.2,3.86v14.69c0,.42-.13,.76-.38,1.03-.26,.27-.61,.41-1.06,.41-.42,0-.76-.14-1.03-.41-.27-.27-.41-.62-.41-1.03v-23.38c0-.45,.14-.8,.41-1.06s.62-.38,1.03-.38c.45,0,.8,.13,1.06,.38s.38,.61,.38,1.06v2.5c1.09-1.34,2.42-2.39,3.98-3.14,1.57-.75,3.28-1.13,5.13-1.13,2.34,0,4.42,.48,6.26,1.44Z"/><path d="M340.54,171.01c-.42-.43-.62-.97-.62-1.61,0-.7,.22-1.25,.67-1.63s.98-.58,1.58-.58,1.13,.19,1.56,.58,.65,.93,.65,1.63c0,.64-.22,1.18-.65,1.61-.43,.43-.97,.65-1.61,.65s-1.17-.22-1.58-.65Zm.6,32.02c-.27-.27-.41-.62-.41-1.03v-23.38c0-.45,.13-.8,.41-1.06,.27-.26,.62-.38,1.03-.38,.45,0,.8,.13,1.06,.38,.26,.26,.38,.61,.38,1.06v23.38c0,.42-.13,.76-.38,1.03-.26,.27-.61,.41-1.06,.41-.42,0-.76-.14-1.03-.41Z"/><path d="M365.52,200.91c.27,.27,.41,.63,.41,1.08,0,.42-.14,.76-.41,1.03-.27,.27-.63,.41-1.08,.41h-1.1c-1.76,0-3.33-.4-4.7-1.2-1.38-.8-2.45-1.9-3.22-3.29-.77-1.39-1.15-2.97-1.15-4.73v-13.49h-3.74c-.38,0-.7-.12-.94-.36-.24-.24-.36-.55-.36-.94s.12-.7,.36-.94c.24-.24,.55-.36,.94-.36h3.74v-7.82c0-.45,.14-.81,.41-1.08,.27-.27,.62-.41,1.03-.41,.45,0,.81,.14,1.08,.41,.27,.27,.41,.63,.41,1.08v7.82h6.34c.38,0,.7,.12,.94,.36,.24,.24,.36,.55,.36,.94s-.12,.7-.36,.94c-.24,.24-.55,.36-.94,.36h-6.34v13.49c0,1.86,.58,3.37,1.73,4.54,1.15,1.17,2.64,1.75,4.46,1.75h1.05c.45,0,.81,.14,1.08,.41Z"/><path d="M372.08,171.01c-.42-.43-.62-.97-.62-1.61,0-.7,.22-1.25,.67-1.63,.45-.38,.97-.58,1.58-.58s1.13,.19,1.56,.58c.43,.38,.65,.93,.65,1.63,0,.64-.22,1.18-.65,1.61s-.97,.65-1.61,.65-1.17-.22-1.58-.65Zm.6,32.02c-.27-.27-.41-.62-.41-1.03v-23.38c0-.45,.14-.8,.41-1.06s.62-.38,1.03-.38c.45,0,.8,.13,1.05,.38s.38,.61,.38,1.06v23.38c0,.42-.13,.76-.38,1.03-.26,.27-.61,.41-1.05,.41-.42,0-.76-.14-1.03-.41Z"/><path d="M402.94,178.64c2.05,1.17,3.66,2.78,4.82,4.82s1.75,4.34,1.75,6.86v11.66c0,.42-.13,.76-.38,1.03-.26,.27-.61,.41-1.06,.41-.42,0-.76-.14-1.03-.41-.27-.27-.41-.62-.41-1.03v-3.74c-1.06,1.7-2.5,3.03-4.34,4.01-1.84,.98-3.9,1.46-6.17,1.46-2.53,0-4.82-.58-6.86-1.75s-3.66-2.78-4.82-4.82c-1.17-2.05-1.75-4.32-1.75-6.82s.58-4.82,1.75-6.86,2.78-3.66,4.82-4.82,4.34-1.75,6.86-1.75,4.77,.58,6.82,1.75Zm-1.44,21c1.6-.93,2.86-2.21,3.77-3.84,.91-1.63,1.37-3.46,1.37-5.47s-.46-3.84-1.37-5.47-2.17-2.92-3.77-3.86c-1.6-.94-3.39-1.42-5.38-1.42s-3.78,.47-5.38,1.42c-1.6,.95-2.86,2.23-3.79,3.86-.93,1.63-1.39,3.46-1.39,5.47s.46,3.84,1.39,5.47c.93,1.63,2.19,2.91,3.79,3.84,1.6,.93,3.39,1.39,5.38,1.39s3.78-.46,5.38-1.39Z"/><path d="M429.03,200.91c.27,.27,.41,.63,.41,1.08,0,.42-.14,.76-.41,1.03-.27,.27-.63,.41-1.08,.41h-1.1c-1.76,0-3.33-.4-4.7-1.2-1.38-.8-2.45-1.9-3.22-3.29-.77-1.39-1.15-2.97-1.15-4.73v-13.49h-3.74c-.38,0-.7-.12-.94-.36-.24-.24-.36-.55-.36-.94s.12-.7,.36-.94c.24-.24,.55-.36,.94-.36h3.74v-7.82c0-.45,.14-.81,.41-1.08s.62-.41,1.03-.41c.45,0,.81,.14,1.08,.41,.27,.27,.41,.63,.41,1.08v7.82h6.34c.38,0,.7,.12,.94,.36,.24,.24,.36,.55,.36,.94s-.12,.7-.36,.94c-.24,.24-.55,.36-.94,.36h-6.34v13.49c0,1.86,.58,3.37,1.73,4.54,1.15,1.17,2.64,1.75,4.46,1.75h1.06c.45,0,.81,.14,1.08,.41Z"/><path d="M435.58,171.01c-.42-.43-.62-.97-.62-1.61,0-.7,.22-1.25,.67-1.63s.98-.58,1.58-.58,1.13,.19,1.56,.58,.65,.93,.65,1.63c0,.64-.22,1.18-.65,1.61-.43,.43-.97,.65-1.61,.65s-1.17-.22-1.58-.65Zm.6,32.02c-.27-.27-.41-.62-.41-1.03v-23.38c0-.45,.14-.8,.41-1.06,.27-.26,.62-.38,1.03-.38,.45,0,.8,.13,1.06,.38s.38,.61,.38,1.06v23.38c0,.42-.13,.76-.38,1.03-.26,.27-.61,.41-1.06,.41-.42,0-.76-.14-1.03-.41Z"/><path d="M469.08,178.47c0,.22-.03,.4-.1,.53l-10.8,23.47c-.32,.67-.83,1.01-1.54,1.01-.29,0-.55-.09-.79-.26s-.42-.42-.55-.74l-10.94-23.42c-.06-.13-.1-.3-.1-.53,0-.58,.27-.99,.82-1.25,.19-.1,.38-.14,.58-.14,.54,0,.94,.27,1.2,.82l9.84,21.31,9.7-21.36c.26-.54,.67-.82,1.25-.82,.22,0,.43,.05,.62,.14,.54,.26,.82,.67,.82,1.25Z"/><path d="M489.46,178.59c1.84,1.1,3.27,2.63,4.3,4.58,1.02,1.95,1.54,4.18,1.54,6.67,0,.42-.13,.74-.38,.98-.26,.24-.59,.36-1.01,.36h-20.11c.1,1.89,.59,3.58,1.49,5.06,.9,1.49,2.1,2.65,3.6,3.48,1.5,.83,3.18,1.25,5.04,1.25,1.25,0,2.5-.22,3.77-.65,1.26-.43,2.26-1,3-1.7,.32-.26,.66-.38,1.01-.38s.64,.1,.86,.29c.35,.29,.53,.62,.53,1.01,0,.32-.14,.62-.43,.91-1.02,.93-2.36,1.7-4.01,2.3-1.65,.61-3.22,.91-4.73,.91-2.53,0-4.78-.57-6.74-1.7-1.97-1.14-3.51-2.72-4.63-4.75-1.12-2.03-1.68-4.33-1.68-6.89s.52-4.9,1.56-6.94c1.04-2.03,2.5-3.62,4.37-4.75,1.87-1.14,4.01-1.7,6.41-1.7s4.42,.55,6.26,1.66Zm-12.58,3.53c-1.71,1.66-2.73,3.86-3.05,6.58h18.67c-.22-2.72-1.18-4.91-2.88-6.58-1.7-1.66-3.84-2.5-6.43-2.5s-4.6,.83-6.31,2.5Z"/><path d="M504.41,202.73c-1.76-.66-3.22-1.66-4.37-3-.22-.26-.34-.54-.34-.86,0-.45,.21-.82,.62-1.1,.19-.16,.46-.24,.82-.24,.45,0,.82,.18,1.1,.53,1.6,1.95,4.18,2.93,7.73,2.93,2.53,0,4.39-.45,5.59-1.34,1.2-.9,1.8-2.05,1.8-3.46,0-2.53-2.45-4.14-7.34-4.85-3.1-.45-5.45-1.29-7.03-2.54s-2.38-2.75-2.38-4.51c0-2.34,.86-4.15,2.57-5.45,1.71-1.29,3.94-1.94,6.7-1.94,4.03,0,7.09,1.44,9.17,4.32,.19,.22,.29,.5,.29,.82,0,.45-.26,.82-.77,1.1-.32,.13-.56,.19-.72,.19-.48,0-.88-.21-1.2-.62-1.63-2.08-3.92-3.12-6.86-3.12-1.95,0-3.5,.42-4.66,1.27-1.15,.85-1.73,1.9-1.73,3.14s.55,2.3,1.66,3.07c1.1,.77,2.95,1.34,5.54,1.73,3.39,.48,5.83,1.38,7.32,2.71,1.49,1.33,2.23,2.94,2.23,4.82,0,1.47-.47,2.77-1.42,3.89-.94,1.12-2.2,1.98-3.77,2.59-1.57,.61-3.28,.91-5.14,.91s-3.67-.33-5.42-.98Z"/></g></svg>