<?xml version="1.0" encoding="UTF-8"?><svg id="Calque_1" xmlns="http://www.w3.org/2000/svg" viewBox="0 0 777.57 165.25"><defs><style>.cls-1{stroke-width:.75px;}.cls-1,.cls-2{fill:none;stroke:#000;stroke-miterlimit:10;}.cls-2{stroke-width:.5px;}</style></defs><path d="M8.07,16.82c-1.09,0-2.13-.2-3.1-.59-.98-.39-1.83-.93-2.57-1.61-.73-.68-1.32-1.47-1.75-2.37-.43-.9-.65-1.86-.65-2.88s.22-1.98,.65-2.91c.43-.92,1.02-1.72,1.75-2.4,.73-.68,1.59-1.21,2.57-1.61,.98-.39,2.01-.59,3.1-.59H59.59c1.09,0,2.13,.2,3.1,.59,.98,.39,1.83,.93,2.57,1.61,.73,.68,1.32,1.48,1.75,2.4,.43,.92,.65,1.89,.65,2.91s-.22,1.97-.65,2.88c-.43,.9-1.02,1.69-1.75,2.37-.73,.68-1.59,1.21-2.57,1.61-.98,.39-2.01,.59-3.1,.59h-15.12v56.04c0,1.54-.27,2.98-.82,4.32-.55,1.34-1.3,2.5-2.26,3.5-.96,1-2.07,1.78-3.33,2.34-1.26,.56-2.62,.85-4.09,.85s-2.83-.28-4.09-.85c-1.26-.56-2.36-1.34-3.3-2.34-.94-1-1.68-2.16-2.23-3.5-.55-1.33-.82-2.77-.82-4.32V16.82H8.07Z"/><path d="M139.44,66.76c.26,.68,.55,1.38,.85,2.12,.3,.73,.58,1.48,.85,2.23,.26,.75,.48,1.48,.65,2.17,.17,.7,.25,1.33,.25,1.89,0,1.39-.25,2.62-.76,3.7-.51,1.07-1.19,1.97-2.06,2.71-.87,.73-1.87,1.3-3.02,1.69-1.15,.39-2.36,.59-3.64,.59-1.47,0-2.73-.21-3.78-.62-1.05-.41-1.99-1.07-2.82-1.97-.83-.9-1.59-2.08-2.29-3.53-.7-1.45-1.44-3.23-2.23-5.33l-2.71-7.17h-31.94l-2.31,7.17c-.68,2.14-1.36,3.95-2.06,5.42-.7,1.47-1.47,2.64-2.31,3.53-.85,.88-1.82,1.52-2.91,1.92-1.09,.39-2.37,.59-3.84,.59-1.28,0-2.49-.2-3.64-.59-1.15-.39-2.15-.96-3.02-1.69-.87-.73-1.55-1.64-2.06-2.71-.51-1.07-.76-2.3-.76-3.7,0-.56,.08-1.19,.25-1.89,.17-.7,.39-1.42,.65-2.17,.26-.75,.55-1.5,.85-2.23,.3-.73,.58-1.44,.85-2.12l15.18-41.03c1.43-3.84,2.79-7.23,4.09-10.19,1.3-2.95,2.73-5.45,4.29-7.48,1.56-2.03,3.36-3.56,5.39-4.6,2.03-1.03,4.5-1.55,7.39-1.55,2.71,0,5.02,.4,6.94,1.21,1.92,.81,3.65,2.14,5.19,4.01,1.54,1.86,3.01,4.32,4.4,7.36,1.39,3.05,2.93,6.79,4.63,11.23l15.46,41.03ZM102.65,17.32l-12.41,36.29h25.06l-12.36-36.29h-.28Z"/><path d="M175.45,37.87l21.84-28.61c1.66-2.18,3.27-3.95,4.85-5.3,1.58-1.35,3.4-2.03,5.47-2.03,1.17,0,2.31,.22,3.44,.65,1.13,.43,2.14,1.04,3.05,1.83,.9,.79,1.64,1.71,2.2,2.77,.56,1.05,.85,2.2,.85,3.44,0,.75-.17,1.53-.51,2.34-.34,.81-.76,1.62-1.27,2.43-.51,.81-1.09,1.62-1.75,2.43-.66,.81-1.29,1.57-1.89,2.29l-16.87,19.69,19.64,24.66c.64,.79,1.28,1.63,1.92,2.51,.64,.88,1.22,1.77,1.75,2.65,.53,.88,.96,1.75,1.3,2.6,.34,.85,.51,1.66,.51,2.45,0,1.24-.29,2.42-.87,3.53-.58,1.11-1.35,2.09-2.29,2.93-.94,.85-2,1.51-3.19,2-1.18,.49-2.36,.73-3.53,.73-1.35,0-2.62-.3-3.78-.9-1.17-.6-2.27-1.37-3.3-2.31-1.04-.94-1.99-1.97-2.88-3.1-.88-1.13-1.72-2.24-2.51-3.33l-22.18-30.08,.11,28.72c0,1.54-.27,2.98-.82,4.32-.55,1.34-1.3,2.5-2.26,3.5-.96,1-2.07,1.78-3.33,2.34-1.26,.56-2.62,.85-4.09,.85s-2.83-.28-4.09-.85c-1.26-.56-2.36-1.34-3.3-2.34-.94-1-1.68-2.16-2.23-3.5-.55-1.33-.82-2.77-.82-4.32V12.87c0-1.54,.27-2.98,.82-4.32,.55-1.34,1.29-2.5,2.23-3.5,.94-1,2.04-1.78,3.3-2.34,1.26-.57,2.62-.85,4.09-.85s2.73,.28,4.01,.85c1.28,.56,2.4,1.35,3.36,2.34,.96,1,1.72,2.16,2.29,3.5,.56,1.34,.85,2.77,.85,4.32l-.11,25Z"/><path d="M246.49,83.86c-1.92,0-3.53-.39-4.82-1.18-1.3-.79-2.34-1.81-3.13-3.08-.79-1.26-1.35-2.68-1.69-4.26-.34-1.58-.51-3.16-.51-4.74V16.82c0-2.14,.13-4.13,.39-5.95,.26-1.82,.85-3.39,1.75-4.71s2.22-2.35,3.95-3.1c1.73-.75,4.06-1.13,7-1.13h36.23c1.09,0,2.12,.2,3.08,.59,.96,.39,1.8,.92,2.51,1.58,.71,.66,1.28,1.44,1.69,2.34,.41,.9,.62,1.86,.62,2.88s-.21,1.97-.62,2.85c-.41,.88-.98,1.66-1.69,2.31-.72,.66-1.55,1.18-2.51,1.55-.96,.38-1.99,.56-3.08,.56h-29.06v18.28h26.52c1.09,0,2.12,.19,3.08,.56,.96,.38,1.8,.9,2.51,1.58,.71,.68,1.28,1.46,1.69,2.34,.41,.88,.62,1.83,.62,2.85s-.21,1.97-.62,2.85c-.41,.88-.98,1.66-1.69,2.31-.72,.66-1.55,1.18-2.51,1.55-.96,.38-1.98,.57-3.08,.57h-26.52v19.75h30.47c1.02,0,1.97,.19,2.85,.56,.88,.38,1.66,.9,2.34,1.58,.68,.68,1.2,1.46,1.58,2.34,.38,.88,.56,1.83,.56,2.85s-.19,1.97-.56,2.85c-.38,.88-.9,1.66-1.58,2.31-.68,.66-1.46,1.18-2.34,1.55-.88,.38-1.83,.56-2.85,.56h-40.57Z"/><path d="M411.33,66.76c.26,.68,.55,1.38,.85,2.12,.3,.73,.58,1.48,.85,2.23,.26,.75,.48,1.48,.65,2.17,.17,.7,.25,1.33,.25,1.89,0,1.39-.25,2.62-.76,3.7-.51,1.07-1.19,1.97-2.06,2.71-.87,.73-1.87,1.3-3.02,1.69-1.15,.39-2.36,.59-3.64,.59-1.47,0-2.73-.21-3.78-.62-1.05-.41-1.99-1.07-2.82-1.97-.83-.9-1.59-2.08-2.29-3.53-.7-1.45-1.44-3.23-2.23-5.33l-2.71-7.17h-31.94l-2.31,7.17c-.68,2.14-1.36,3.95-2.06,5.42-.7,1.47-1.47,2.64-2.31,3.53-.85,.88-1.82,1.52-2.91,1.92-1.09,.39-2.37,.59-3.84,.59-1.28,0-2.49-.2-3.64-.59-1.15-.39-2.15-.96-3.02-1.69-.87-.73-1.55-1.64-2.06-2.71-.51-1.07-.76-2.3-.76-3.7,0-.56,.08-1.19,.25-1.89,.17-.7,.39-1.42,.65-2.17,.26-.75,.55-1.5,.85-2.23,.3-.73,.58-1.44,.85-2.12l15.18-41.03c1.43-3.84,2.79-7.23,4.09-10.19,1.3-2.95,2.73-5.45,4.29-7.48,1.56-2.03,3.36-3.56,5.39-4.6,2.03-1.03,4.5-1.55,7.39-1.55,2.71,0,5.02,.4,6.94,1.21,1.92,.81,3.65,2.14,5.19,4.01,1.54,1.86,3.01,4.32,4.4,7.36,1.39,3.05,2.93,6.79,4.63,11.23l15.46,41.03Zm-36.79-49.43l-12.41,36.29h25.06l-12.36-36.29h-.28Z"/><path d="M418.05,43.57c0-6.85,1.01-12.97,3.02-18.37,2.01-5.4,4.83-9.96,8.44-13.69,3.61-3.72,7.91-6.57,12.89-8.55,4.98-1.97,10.45-2.96,16.39-2.96,4.7,0,8.79,.29,12.27,.87,3.48,.58,6.37,1.38,8.66,2.4,2.29,1.02,4.01,2.22,5.14,3.61,1.13,1.39,1.81,2.9,1.81,4.51,0,1.09-.34,2.04-.79,2.85-.45,.81-1.04,1.48-1.78,2s-1.55,.91-2.45,1.16c-.9,.25-1.81,.37-2.71,.37-.53,0-1.05,0-1.58-.03-.53-.02-1.04-.1-1.52-.25-1.43-.38-2.79-.74-4.09-1.1-1.3-.36-2.58-.67-3.84-.93-1.26-.26-2.52-.48-3.78-.65-1.26-.17-2.57-.25-3.92-.25-2.82,0-5.48,.42-7.99,1.27-2.5,.85-4.68,2.34-6.52,4.49-1.84,2.14-3.3,5.05-4.37,8.72-1.07,3.67-1.61,8.34-1.61,14.02,0,4.37,.43,8.29,1.3,11.77,.87,3.48,2.15,6.43,3.87,8.86,1.71,2.43,3.86,4.29,6.43,5.59,2.58,1.3,5.58,1.95,9,1.95,1.39,0,2.84-.15,4.35-.45,1.5-.3,3.05-.69,4.63-1.16,1.58-.47,3.19-1.01,4.83-1.61,1.64-.6,3.26-1.2,4.88-1.81,.49-.15,1.09-.23,1.81-.23,.94,0,1.8,.18,2.57,.54,.77,.36,1.44,.84,2,1.44,.56,.6,1,1.31,1.3,2.12,.3,.81,.45,1.66,.45,2.57,0,1.47-.48,2.81-1.44,4.04-.96,1.22-2.23,2.32-3.81,3.3-1.58,.98-3.4,1.83-5.45,2.57-2.05,.73-4.17,1.34-6.35,1.83-2.18,.49-4.35,.86-6.52,1.1-2.16,.24-4.17,.37-6.01,.37-5.57,0-10.76-.93-15.58-2.79-4.82-1.86-8.99-4.59-12.53-8.18-3.54-3.59-6.32-8.01-8.35-13.26-2.03-5.25-3.05-11.26-3.05-18.03Z"/><path d="M504.9,16.82c-1.09,0-2.13-.2-3.1-.59-.98-.39-1.83-.93-2.57-1.61-.73-.68-1.32-1.47-1.75-2.37-.43-.9-.65-1.86-.65-2.88s.22-1.98,.65-2.91c.43-.92,1.02-1.72,1.75-2.4,.73-.68,1.59-1.21,2.57-1.61,.98-.39,2.01-.59,3.1-.59h51.52c1.09,0,2.13,.2,3.1,.59,.98,.39,1.83,.93,2.57,1.61,.73,.68,1.32,1.48,1.75,2.4,.43,.92,.65,1.89,.65,2.91s-.22,1.97-.65,2.88c-.43,.9-1.02,1.69-1.75,2.37-.73,.68-1.59,1.21-2.57,1.61-.98,.39-2.01,.59-3.1,.59h-15.12v56.04c0,1.54-.27,2.98-.82,4.32-.55,1.34-1.3,2.5-2.26,3.5-.96,1-2.07,1.78-3.33,2.34-1.26,.56-2.62,.85-4.09,.85s-2.83-.28-4.09-.85c-1.26-.56-2.36-1.34-3.3-2.34-.94-1-1.68-2.16-2.23-3.5-.55-1.33-.82-2.77-.82-4.32V16.82h-15.46Z"/><path d="M595.58,72.85c0,1.54-.27,2.98-.82,4.32-.55,1.34-1.3,2.5-2.26,3.5-.96,1-2.07,1.78-3.33,2.34-1.26,.56-2.62,.85-4.09,.85s-2.83-.28-4.09-.85c-1.26-.56-2.36-1.34-3.3-2.34-.94-1-1.68-2.16-2.23-3.5-.55-1.33-.82-2.77-.82-4.32V12.87c0-1.54,.27-2.98,.82-4.32,.55-1.34,1.29-2.5,2.23-3.5,.94-1,2.04-1.78,3.3-2.34,1.26-.57,2.62-.85,4.09-.85s2.83,.28,4.09,.85c1.26,.56,2.37,1.35,3.33,2.34,.96,1,1.71,2.16,2.26,3.5,.54,1.34,.82,2.77,.82,4.32v59.99Z"/><path d="M721.37,75c0,1.24-.24,2.4-.71,3.47-.47,1.07-1.11,2-1.92,2.79-.81,.79-1.75,1.42-2.82,1.89-1.07,.47-2.23,.71-3.47,.71s-2.4-.23-3.47-.71c-1.07-.47-2-1.1-2.79-1.89-.79-.79-1.41-1.72-1.86-2.79-.45-1.07-.68-2.23-.68-3.47V13.37c0-1.84,.27-3.48,.82-4.91,.54-1.43,1.28-2.63,2.2-3.61,.92-.98,2-1.72,3.24-2.23,1.24-.51,2.58-.76,4.01-.76,1.2,0,2.38,.24,3.53,.7,1.15,.47,2.25,1.1,3.3,1.89,1.05,.79,2.07,1.72,3.05,2.79,.98,1.07,1.92,2.21,2.82,3.41l33.29,45.15V10.72c0-1.24,.23-2.4,.68-3.47,.45-1.07,1.07-2,1.86-2.79s1.72-1.42,2.79-1.89c1.07-.47,2.23-.7,3.47-.7s2.4,.24,3.47,.7c1.07,.47,2,1.1,2.79,1.89,.79,.79,1.42,1.72,1.89,2.79,.47,1.07,.71,2.23,.71,3.47v57.45c0,2.07-.11,4.05-.34,5.95-.23,1.9-.7,3.56-1.41,4.99-.72,1.43-1.73,2.58-3.05,3.44-1.32,.87-3.07,1.3-5.25,1.3-1.17,0-2.3-.23-3.41-.68-1.11-.45-2.18-1.07-3.22-1.86-1.04-.79-2.04-1.72-3.02-2.79-.98-1.07-1.94-2.23-2.88-3.47l-33.63-45.71v45.65Z"/><g><path class="cls-1" d="M695.32,43.6c0,23.86-19.34,43.21-43.21,43.21s-43.21-19.34-43.21-43.21c0-13.91,6.57-26.28,16.77-34.18,7.31-5.66,16.48-9.03,26.43-9.03,23.86,0,43.21,19.34,43.21,43.21Z"/><g><path d="M631.16,5.89s9.92-4.38,16.12-3.64c.62,.12,.5,.25,.62,.87s.37,.74,.87,.25,.87,.12,.87,.12c0,0,1.12,.12,.37,.87-.74,.74-2.73,2.48-2.85,3.6s-.25,2.48-1.86,2.98c0,0,1.24,.87,1.24,.99s.5,1.36-1.98,2.48-5.33,2.73-6.2,3.97c-.87,1.24-2.98,4.34-4.34,4.34s-2.48-2.98-2.6-5.21c-.12-2.23,.99-2.23,1.36-2.73s.25-1.74-.99-2.23-.99-1.61-1.86-2.6-1.86-.5-2.11-.12c-.25,.37-1.76,.22-2.13-.4,0,0,2.51-2,5.48-3.53Z"/><path d="M619.78,15.02s.72,.5,1.34,.5,1.36,.25,.37,1.49c-.99,1.24-1.36,1.61-.74,2.23,.62,.62,.62,1.61,2.23,1.49,1.61-.12,1.24-.5,1.74-.74s.74-.87-.25-1.12-.62-1.12-.25-1.74c.37-.62-.62-2.11-1.36-2.6s-1.49-.79-2.23-.45c0,0-.58,.58-.85,.95Z"/><path d="M612.19,27.05s2.6-.25,2.36,1.12,.12,2.85,1.12,1.61,2.6-4.71,2.6-4.71c0,0-.25-2.73,.25-3.6s2.73-.62,2.85,.25,0,2.98,.5,3.1,.5,.62,1.49-.99c.99-1.61,1.98-.74,2.11,.62s.87,1.86,1.36,2.23c.5,.37,.87,1.24,.5,2.23s.37,1.98,.99,2.11,.5,.25,.37,1.12c-.12,.87,.87,1.74-.5,.99s-2.73,.62-2.73-.5,.5-1.74,.87-2.11-.12-.62-.25-.37-3.72,.62-3.72,.62c0,0-2.11,.74-1.36,.74s2.11-.12,1.98,.74c-.12,.87-.74,1.61,.5,.99s1.74-.62,1.61,0-2.48,2.73-3.22,2.73-.99-1.36-1.49-.74-1.12,1.49-1.12,1.98-1.12,1.24-2.23,1.86c-1.12,.62-.74,1.61-1.49,2.6s-3.22,3.22-3.47,5.7,.25,3.72,.25,3.97-.87-.5-1.12-1.24c-.25-.74-.99-3.1-1.49-3.22-.5-.12-.64-.19-.64-.19,0,0-1.45-9.22,3.12-19.65Z"/><path d="M610.33,52.59s.99,.87,1.61,.99c.62,.12,1.12,1.12,2.48,1.98s3.47,.74,3.84,.5-.12-.74-2.48-2.11c-2.36-1.36-5.33-1.74-5.46-1.36Z"/><path d="M613.49,63.03s.31-2.25,2.79-2.25,6.7,2.48,7.69,3.6c.99,1.12,2.85,.87,3.47,1.61,.62,.74,.87,1.12,.99,2.98s.12,2.23,1.36,2.36,6.08,.25,7.56,2.85c1.49,2.6,1.12,4.22,.37,4.84-.74,.62-1.49,2.23-1.36,4.84,0,0-15.5-4.71-22.87-20.81Z"/><path d="M679.64,76.89s.87-.62,.87-2.85,1.74-4.22,4.09-7.07c2.36-2.85,3.35-7.07,1.49-6.94s-2.85-.74-.87-1.61,5.83-2.73,5.95-5.08c.12-2.36-1.12-2.73-1.24-3.22s-.12-1.12-.12-1.12c0,0,.74,.25,1.86,.5s2.91,.25,3.38-.87c0,0,3.81-16.74-10.57-33.72,0,0-3.35,1.12-4.46,1.49s-1.74-.12-1.98,.87-.74,1.74-1.74,.99c-.99-.74-1.49-1.86-1.49-1.86,0,0,3.1,.87,3.35-.5,.25-1.36-4.09-3.47-7.69-3.47s-4.34,1.49-5.21,2.6c-.87,1.12-3.22,4.22-4.59,4.22s-.25,1.12-.12,1.98,.25,1.12,.25,1.12l2.36-.12s1.12,1.49,1.12,2.36,.12,1.12,1.24-.37c1.12-1.49,1.98-1.98,1.61-2.98-.37-.99-.87-1.12,0-2.36,.87-1.24,.74-1.86,2.23-1.98,1.49-.12,1.49,0,.74,.74s-1.61,.87-1.61,2.98,.62,3.72,0,4.59-2.23,1.36-4.71,1.12c-2.48-.25-5.33,2.36-5.33,2.36,0,0-.37-2.23-1.24-2.85-.87-.62-.99-1.12-1.36-.12-.37,.99-.99,.74-.25,2.73,.74,1.98,1.36,5.58,.99,5.95-.37,.37-.74,.62-1.86,.5s-2.23,.12-2.6,2.11c-.37,1.98,1.24,4.22,2.73,3.72,1.49-.5,2.23-1.61,3.35-3.47,1.12-1.86,2.98-2.85,3.84-2.73,.87,.12,.74,.12,1.12,.87s1.36,1.12,2.23,1.74c.87,.62,.5,2.11,.62,2.23s1.36-.74,1.49-1.49,.37-.25-.74-1.24-1.61-1.86-2.11-2.98c-.5-1.12,0-.87,1.24,.37,1.24,1.24,2.11,.62,2.11,.62v-1.74s2.23,.12,1.24,1.74c-.99,1.61-1.49,2.6-.87,4.34,.62,1.74,1.12,2.6,2.11,1.49s1.36-.99,.37-1.86,0-1.98,.62-1.36,.62,1.86,.74,2.36c.12,.5,.87,2.23,2.6,1.36,1.74-.87,3.1-.87,2.98,.74s-.87,2.6-.87,3.22-1.12,.12-1.36-.25-2.23,.37-3.35-.12c-1.12-.5-2.36-1.61-3.1-1.24s-.25,1.24-.62,1.61-2.73-.12-4.09-1.98c-1.36-1.86-.25-2.6-1.24-3.1-.99-.5-4.84,.74-6.2,1.24-1.36,.5-2.48,.12-2.6,.12s-.99,.12-2.23,1.98-6.08,8.06-5.21,13.89c.87,5.83,4.34,9.42,6.08,9.79,1.74,.37,4.84-.74,5.7-1.49s3.6,1.12,3.47,3.72c-.12,2.6,1.36,3.47,2.6,7.19,1.24,3.72-.12,4.09-.12,4.84s-.43,2.82-.28,3.95c0,0,7.72-1.84,15.28-8.17Z"/><path d="M644.8,16.51s1.36,3.22,3.6,2.36,2.85-1.49,2.36-2.36-.74-.62-1.61-.62-4.34,.62-4.34,.62Z"/></g></g><g><path class="cls-2" d="M141.91,143.13c0,12.08-9.79,21.87-21.87,21.87s-21.87-9.79-21.87-21.87c0-7.04,3.33-13.3,8.49-17.3,3.7-2.86,8.34-4.57,13.38-4.57,12.08,0,21.87,9.79,21.87,21.87Z"/><g><path d="M109.43,124.04s5.02-2.22,8.16-1.84c.31,.06,.25,.13,.31,.44s.19,.38,.44,.13,.44,.06,.44,.06c0,0,.56,.06,.19,.44s-1.38,1.26-1.44,1.82-.13,1.26-.94,1.51c0,0,.63,.44,.63,.5s.25,.69-1,1.26c-1.26,.56-2.7,1.38-3.14,2.01-.44,.63-1.51,2.2-2.2,2.2s-1.26-1.51-1.32-2.64,.5-1.13,.69-1.38,.13-.88-.5-1.13-.5-.82-.94-1.32-.94-.25-1.07-.06-.89,.11-1.08-.2c0,0,1.27-1.01,2.77-1.79Z"/><path d="M103.67,128.66s.37,.25,.68,.25,.69,.13,.19,.75-.69,.82-.38,1.13,.31,.82,1.13,.75,.63-.25,.88-.38,.38-.44-.13-.56-.31-.56-.13-.88-.31-1.07-.69-1.32-.75-.4-1.13-.23c0,0-.29,.29-.43,.48Z"/><path d="M99.83,134.75s1.32-.13,1.19,.56,.06,1.44,.56,.82,1.32-2.38,1.32-2.38c0,0-.13-1.38,.13-1.82s1.38-.31,1.44,.13,0,1.51,.25,1.57,.25,.31,.75-.5,1-.38,1.07,.31,.44,.94,.69,1.13,.44,.63,.25,1.13,.19,1,.5,1.07,.25,.13,.19,.56,.44,.88-.25,.5-1.38,.31-1.38-.25,.25-.88,.44-1.07-.06-.31-.13-.19-1.88,.31-1.88,.31c0,0-1.07,.38-.69,.38s1.07-.06,1,.38-.38,.82,.25,.5,.88-.31,.82,0-1.26,1.38-1.63,1.38-.5-.69-.75-.38-.56,.75-.56,1-.56,.63-1.13,.94-.38,.82-.75,1.32-1.63,1.63-1.76,2.89c-.13,1.26,.13,1.88,.13,2.01s-.44-.25-.56-.63-.5-1.57-.75-1.63-.32-.09-.32-.09c0,0-.73-4.67,1.58-9.95Z"/><path d="M98.89,147.68s.5,.44,.82,.5,.56,.56,1.26,1,1.76,.38,1.95,.25-.06-.38-1.26-1.07-2.7-.88-2.76-.69Z"/><path d="M100.49,152.96s.16-1.14,1.41-1.14,3.39,1.26,3.89,1.82,1.44,.44,1.76,.82,.44,.56,.5,1.51,.06,1.13,.69,1.19,3.08,.13,3.83,1.44c.75,1.32,.56,2.13,.19,2.45s-.75,1.13-.69,2.45c0,0-7.84-2.38-11.58-10.53Z"/><path d="M133.97,159.98s.44-.31,.44-1.44,.88-2.13,2.07-3.58,1.69-3.58,.75-3.51-1.44-.38-.44-.82,2.95-1.38,3.01-2.57c.06-1.19-.56-1.38-.63-1.63s-.06-.56-.06-.56c0,0,.38,.13,.94,.25s1.47,.13,1.71-.44c0,0,1.93-8.47-5.35-17.07,0,0-1.69,.56-2.26,.75-.56,.19-.88-.06-1,.44s-.38,.88-.88,.5-.75-.94-.75-.94c0,0,1.57,.44,1.69-.25s-2.07-1.76-3.89-1.76-2.2,.75-2.64,1.32-1.63,2.13-2.32,2.13-.13,.56-.06,1,.13,.56,.13,.56l1.19-.06s.56,.75,.56,1.19,.06,.56,.63-.19,1-1,.82-1.51-.44-.56,0-1.19,.38-.94,1.13-1,.75,0,.38,.38-.82,.44-.82,1.51,.31,1.88,0,2.32-1.13,.69-2.38,.56c-1.26-.13-2.7,1.19-2.7,1.19,0,0-.19-1.13-.63-1.44s-.5-.56-.69-.06-.5,.38-.13,1.38,.69,2.82,.5,3.01-.38,.31-.94,.25-1.13,.06-1.32,1.07c-.19,1,.63,2.13,1.38,1.88s1.13-.82,1.69-1.76,1.51-1.44,1.95-1.38,.38,.06,.56,.44,.69,.56,1.13,.88,.25,1.07,.31,1.13,.69-.38,.75-.75,.19-.13-.38-.63-.82-.94-1.07-1.51c-.25-.56,0-.44,.63,.19,.63,.63,1.07,.31,1.07,.31v-.88s1.13,.06,.63,.88-.75,1.32-.44,2.2,.56,1.32,1.07,.75,.69-.5,.19-.94c-.5-.44,0-1,.31-.69s.31,.94,.38,1.19,.44,1.13,1.32,.69,1.57-.44,1.51,.38-.44,1.32-.44,1.63-.56,.06-.69-.13-1.13,.19-1.69-.06-1.19-.82-1.57-.63-.13,.63-.31,.82-1.38-.06-2.07-1-.13-1.32-.63-1.57-2.45,.38-3.14,.63-1.26,.06-1.32,.06-.5,.06-1.13,1c-.63,.94-3.08,4.08-2.64,7.03s2.2,4.77,3.08,4.96,2.45-.38,2.89-.75,1.82,.56,1.76,1.88c-.06,1.32,.69,1.76,1.32,3.64s-.06,2.07-.06,2.45-.22,1.43-.14,2c0,0,3.91-.93,7.74-4.13Z"/><path d="M116.33,129.42s.69,1.63,1.82,1.19c1.13-.44,1.44-.75,1.19-1.19s-.38-.31-.82-.31-2.2,.31-2.2,.31Z"/></g></g><path d="M29.4,161.64c-.33,1.83-1.11,3.06-3.26,3.06s-3.59-1.37-3.19-3.65l6.39-36.31c.33-1.89,1.89-3.19,3.78-3.19h10.3c7.76,0,12.97,4.76,12.97,11.8,0,9.65-6.85,16.1-17.02,16.1h-7.82l-2.15,12.19Zm6.06-34.29l-2.87,16.3h6.91c6,0,10.04-3.91,10.04-9.52,0-4.17-2.54-6.78-7.5-6.78h-6.58Z"/><path d="M84.95,164.71c-1.63,0-3-1.11-3.33-2.61l-3.39-14.02c-.46,.07-.91,.07-1.3,.07h-7.11l-2.35,13.49c-.33,1.83-1.11,3.06-3.26,3.06s-3.65-1.37-3.19-3.65l6.39-36.31c.33-1.89,1.89-3.19,3.78-3.19h10.43c7.24,0,12.97,4.3,12.97,11.41s-3.98,11.47-9.71,13.56l3.45,13.95c.39,1.96-.85,4.24-3.39,4.24Zm-11.41-37.36l-2.67,14.99h6.91c5.87,0,9.91-3.32,9.91-8.47,0-3.91-2.41-6.52-7.76-6.52h-6.39Z"/><path d="M165.28,148.44c-1.43,0-2.54-1.11-2.54-2.54,0-1.57,1.24-2.74,2.74-2.74h8.15c2.02,0,3.06,1.43,2.74,3.32l-.85,5.15c-1.37,8.28-6.91,13.56-15.65,13.56-7.56,0-13.3-4.3-13.3-11.41,0-.78,.13-1.76,.26-2.54l2.8-16.23c1.5-8.54,6.91-13.95,16.23-13.95,7.11,0,13.36,4.04,12.97,11.15-.13,1.83-1.37,3.13-3.19,3.13-1.63,0-2.74-1.17-3.06-2.87-.65-3.32-2.48-5.48-7.37-5.48s-8.08,3.32-8.93,8.08l-2.87,16.1c-.13,.72-.13,1.24-.13,1.83,0,3.78,2.48,6.26,7.37,6.26s8.02-3.13,8.74-7.56l.52-3.26h-4.63Z"/><path d="M206.46,164.71c-1.63,0-3-1.11-3.32-2.61l-3.39-14.02c-.46,.07-.91,.07-1.3,.07h-7.11l-2.35,13.49c-.33,1.83-1.11,3.06-3.26,3.06s-3.65-1.37-3.19-3.65l6.39-36.31c.33-1.89,1.89-3.19,3.78-3.19h10.43c7.24,0,12.97,4.3,12.97,11.41s-3.98,11.47-9.71,13.56l3.46,13.95c.39,1.96-.85,4.24-3.39,4.24Zm-11.41-37.36l-2.67,14.99h6.91c5.87,0,9.91-3.32,9.91-8.47,0-3.91-2.41-6.52-7.76-6.52h-6.39Z"/><path d="M222.23,162.98c-.52,1.04-1.43,1.89-2.74,1.89-2.22,0-3.65-2.28-2.61-4.37l17.93-35.99c.91-1.83,2.22-3.13,4.63-3.13,2.09,0,3.65,1.37,3.98,3.39l5.22,36.31c.26,2.02-1.11,3.78-3.26,3.78-1.83,0-3.06-1.37-3.26-3.13l-.91-6.45h-15.25l-3.72,7.69Zm6.39-13.36h11.93l-2.54-19.62-9.39,19.62Z"/><path d="M288.32,161.87c-.33,1.76-1.04,3-3.19,3-2.02,0-3.52-1.37-3.13-3.59l4.63-26.27-9.84,14.15c-.72,.98-1.76,1.63-2.93,1.63s-2.15-.78-2.54-1.83l-4.89-14.08-4.76,27.12c-.26,1.69-.98,2.87-3,2.87s-3.33-1.3-3-3.39l6.52-36.96c.39-1.96,1.63-3.13,3.52-3.13s2.74,.98,3.19,2.35l6.39,18.32,12.78-18.38c1.04-1.43,2.15-2.28,3.91-2.28,1.96,0,3.19,1.37,2.87,3.32l-6.52,37.16Z"/></svg>