<?xml version="1.0" encoding="UTF-8"?><svg id="logo_français" xmlns="http://www.w3.org/2000/svg" viewBox="0 0 880.45 355.33"><g><path d="M1.67,322.74c1.21-1.24,2.64-2.15,4.3-2.74,1.66-.59,3.34-.88,5.06-.88,3.49,0,6,.82,7.54,2.46,1.54,1.64,2.31,4.14,2.31,7.5v10.11c0,.67,.03,1.37,.1,2.09,.07,.72,.15,1.38,.25,1.99h-3.77c-.13-.54-.21-1.13-.23-1.79-.02-.65-.03-1.23-.03-1.74h-.1c-.77,1.21-1.8,2.2-3.09,2.97-1.29,.77-2.84,1.16-4.65,1.16-1.21,0-2.34-.15-3.4-.45-1.06-.3-1.98-.75-2.77-1.33-.79-.59-1.42-1.32-1.89-2.19-.47-.87-.7-1.88-.7-3.02,0-1.94,.5-3.47,1.51-4.58,1.01-1.11,2.25-1.93,3.75-2.46,1.49-.54,3.1-.87,4.83-1.01,1.73-.13,3.31-.2,4.75-.2h1.51v-.7c0-1.71-.51-3-1.53-3.87-1.02-.87-2.46-1.31-4.3-1.31-1.27,0-2.52,.21-3.75,.63-1.22,.42-2.31,1.06-3.24,1.94l-2.46-2.57Zm11.37,9.21c-2.51,0-4.51,.35-5.99,1.06-1.48,.7-2.21,1.86-2.21,3.47,0,1.48,.49,2.52,1.48,3.14,.99,.62,2.22,.93,3.7,.93,1.14,0,2.14-.19,2.99-.58,.85-.38,1.57-.9,2.14-1.53,.57-.64,1.01-1.38,1.31-2.24,.3-.85,.47-1.77,.5-2.74v-1.51h-3.92Z"/><path d="M51.57,342.2c0,4.29-1.1,7.55-3.29,9.78s-5.37,3.35-9.53,3.35c-2.31,0-4.4-.34-6.26-1.01-1.86-.67-3.63-1.83-5.31-3.47l2.82-3.22c1.24,1.34,2.56,2.36,3.95,3.04,1.39,.69,2.99,1.03,4.8,1.03s3.19-.26,4.35-.78c1.16-.52,2.07-1.22,2.74-2.11,.67-.89,1.14-1.9,1.41-3.04,.27-1.14,.4-2.33,.4-3.57v-3.02h-.1c-.94,1.51-2.16,2.62-3.67,3.32-1.51,.7-3.05,1.06-4.63,1.06-1.84,0-3.54-.3-5.08-.91-1.54-.6-2.87-1.44-3.97-2.51-1.11-1.07-1.96-2.35-2.57-3.82s-.91-3.08-.91-4.83c0-1.91,.3-3.64,.91-5.18,.6-1.54,1.45-2.84,2.54-3.9,1.09-1.06,2.41-1.87,3.95-2.44,1.54-.57,3.25-.85,5.13-.85,.8,0,1.61,.09,2.41,.28,.8,.18,1.58,.47,2.34,.85,.75,.39,1.43,.87,2.04,1.46,.6,.59,1.11,1.27,1.51,2.04h.1v-4.02h3.92v22.48Zm-20.62-10.71c0,1.21,.22,2.32,.65,3.35,.44,1.02,1.03,1.91,1.79,2.67,.75,.75,1.63,1.35,2.64,1.79,1.01,.44,2.08,.65,3.22,.65,1.34,0,2.53-.23,3.57-.71,1.04-.47,1.92-1.1,2.64-1.89,.72-.79,1.27-1.69,1.63-2.72,.37-1.02,.55-2.1,.55-3.25,0-1.27-.2-2.44-.6-3.5-.4-1.06-.97-1.97-1.71-2.74-.74-.77-1.63-1.37-2.67-1.79-1.04-.42-2.18-.63-3.42-.63s-2.37,.23-3.4,.68c-1.02,.45-1.9,1.07-2.62,1.86-.72,.79-1.28,1.71-1.69,2.77s-.6,2.21-.6,3.45Z"/><path d="M79.83,338.98c-1.41,1.81-2.95,3.08-4.63,3.8-1.68,.72-3.62,1.08-5.83,1.08-1.84,0-3.5-.33-4.98-.98-1.48-.65-2.73-1.53-3.75-2.64-1.02-1.11-1.81-2.42-2.36-3.92-.55-1.51-.83-3.12-.83-4.83,0-1.81,.3-3.48,.91-5,.6-1.53,1.44-2.83,2.52-3.92,1.07-1.09,2.35-1.94,3.82-2.54,1.48-.6,3.08-.91,4.83-.91,1.64,0,3.15,.28,4.53,.83,1.38,.55,2.56,1.36,3.55,2.42,.99,1.06,1.75,2.35,2.29,3.87,.54,1.53,.8,3.26,.8,5.21v1.26h-19.01c.07,1.01,.31,1.97,.73,2.89,.42,.92,.96,1.73,1.63,2.41,.67,.69,1.46,1.23,2.36,1.63,.91,.4,1.89,.6,2.97,.6,1.71,0,3.15-.3,4.33-.91,1.17-.6,2.23-1.49,3.17-2.67l2.97,2.31Zm-3.37-9.61c-.07-2.01-.72-3.62-1.96-4.83-1.24-1.21-2.95-1.81-5.13-1.81s-3.94,.6-5.28,1.81c-1.34,1.21-2.15,2.82-2.41,4.83h14.79Z"/><path d="M86.77,325.3c0-1.07-.03-2.08-.1-3.02-.07-.94-.1-1.79-.1-2.56h3.72c0,.64,.02,1.27,.05,1.91,.03,.64,.05,1.29,.05,1.96h.1c.27-.57,.65-1.12,1.13-1.66,.49-.54,1.06-1.01,1.74-1.43,.67-.42,1.42-.75,2.26-1.01,.84-.25,1.74-.38,2.72-.38,1.54,0,2.88,.23,4,.7,1.12,.47,2.05,1.12,2.79,1.96,.74,.84,1.28,1.85,1.63,3.04s.53,2.49,.53,3.9v14.54h-3.92v-14.13c0-1.98-.44-3.54-1.31-4.68-.87-1.14-2.23-1.71-4.07-1.71-1.27,0-2.37,.22-3.29,.65-.92,.44-1.68,1.06-2.26,1.86-.59,.81-1.02,1.76-1.31,2.87-.29,1.11-.43,2.33-.43,3.67v11.47h-3.92v-17.96Z"/><path d="M131.49,325.6c-.84-1.01-1.74-1.74-2.72-2.19-.97-.45-2.05-.68-3.22-.68-1.31,0-2.46,.23-3.47,.68-1.01,.45-1.84,1.08-2.49,1.89s-1.15,1.74-1.48,2.79c-.34,1.06-.5,2.19-.5,3.39s.19,2.34,.58,3.4c.38,1.06,.92,1.99,1.61,2.79,.69,.8,1.52,1.43,2.49,1.89,.97,.45,2.06,.68,3.27,.68,2.58,0,4.58-.97,5.99-2.92l2.92,2.77c-1.14,1.31-2.48,2.26-4.02,2.87-1.54,.6-3.17,.91-4.88,.91-1.81,0-3.47-.3-4.98-.91-1.51-.6-2.79-1.46-3.85-2.57s-1.88-2.41-2.46-3.92c-.59-1.51-.88-3.17-.88-4.98s.29-3.42,.88-4.93c.59-1.51,1.42-2.82,2.49-3.92,1.07-1.11,2.36-1.97,3.85-2.59,1.49-.62,3.14-.93,4.95-.93s3.4,.3,4.95,.91c1.56,.6,2.93,1.54,4.1,2.82l-3.12,2.77Z"/><path d="M160.01,338.98c-1.41,1.81-2.95,3.08-4.63,3.8-1.68,.72-3.62,1.08-5.83,1.08-1.84,0-3.5-.33-4.98-.98-1.48-.65-2.73-1.53-3.75-2.64-1.02-1.11-1.81-2.42-2.36-3.92-.55-1.51-.83-3.12-.83-4.83,0-1.81,.3-3.48,.91-5,.6-1.53,1.44-2.83,2.52-3.92,1.07-1.09,2.35-1.94,3.82-2.54,1.48-.6,3.08-.91,4.83-.91,1.64,0,3.15,.28,4.53,.83,1.38,.55,2.56,1.36,3.55,2.42,.99,1.06,1.75,2.35,2.29,3.87,.54,1.53,.8,3.26,.8,5.21v1.26h-19.01c.07,1.01,.31,1.97,.73,2.89,.42,.92,.96,1.73,1.63,2.41,.67,.69,1.46,1.23,2.36,1.63,.91,.4,1.89,.6,2.97,.6,1.71,0,3.15-.3,4.33-.91,1.17-.6,2.23-1.49,3.17-2.67l2.97,2.31Zm-3.37-9.61c-.07-2.01-.72-3.62-1.96-4.83-1.24-1.21-2.95-1.81-5.13-1.81s-3.94,.6-5.28,1.81c-1.34,1.21-2.15,2.82-2.41,4.83h14.79Z"/><path d="M200.5,339.08h-.1c-.74,1.34-1.9,2.47-3.5,3.4-1.59,.92-3.45,1.38-5.56,1.38-1.64,0-3.19-.31-4.63-.93-1.44-.62-2.69-1.48-3.75-2.59-1.06-1.11-1.89-2.42-2.49-3.92s-.91-3.15-.91-4.93,.3-3.42,.91-4.93c.6-1.51,1.44-2.82,2.52-3.92,1.07-1.11,2.37-1.97,3.9-2.59,1.53-.62,3.21-.93,5.06-.93,1.71,0,3.28,.35,4.7,1.06,1.42,.7,2.67,1.69,3.75,2.97h.1v-17.91h3.92v38.03h-3.92v-4.17Zm0-7.6c0-1.24-.19-2.39-.58-3.45-.39-1.06-.95-1.98-1.69-2.77-.74-.79-1.62-1.41-2.64-1.86-1.02-.45-2.17-.68-3.45-.68s-2.42,.23-3.45,.68c-1.02,.45-1.9,1.07-2.64,1.86-.74,.79-1.3,1.71-1.69,2.77-.39,1.06-.58,2.21-.58,3.45s.19,2.39,.58,3.45c.38,1.06,.95,1.98,1.69,2.77,.74,.79,1.62,1.41,2.64,1.86,1.02,.45,2.17,.68,3.45,.68s2.42-.23,3.45-.68c1.02-.45,1.9-1.07,2.64-1.86,.74-.79,1.3-1.71,1.69-2.77,.39-1.06,.58-2.21,.58-3.45Z"/><path d="M232.69,338.98c-1.41,1.81-2.95,3.08-4.63,3.8-1.68,.72-3.62,1.08-5.83,1.08-1.84,0-3.5-.33-4.98-.98-1.48-.65-2.73-1.53-3.75-2.64-1.02-1.11-1.81-2.42-2.36-3.92-.55-1.51-.83-3.12-.83-4.83,0-1.81,.3-3.48,.91-5,.6-1.53,1.44-2.83,2.52-3.92,1.07-1.09,2.35-1.94,3.82-2.54,1.48-.6,3.08-.91,4.83-.91,1.64,0,3.15,.28,4.53,.83,1.38,.55,2.56,1.36,3.55,2.42,.99,1.06,1.75,2.35,2.29,3.87,.54,1.53,.8,3.26,.8,5.21v1.26h-19.01c.07,1.01,.31,1.97,.73,2.89,.42,.92,.96,1.73,1.63,2.41,.67,.69,1.46,1.23,2.36,1.63,.91,.4,1.89,.6,2.97,.6,1.71,0,3.15-.3,4.33-.91,1.17-.6,2.23-1.49,3.17-2.67l2.97,2.31Zm-3.37-9.61c-.07-2.01-.72-3.62-1.96-4.83-1.24-1.21-2.95-1.81-5.13-1.81s-3.94,.6-5.28,1.81c-1.34,1.21-2.15,2.82-2.41,4.83h14.79Z"/><path d="M270.37,325.6c-.84-1.01-1.74-1.74-2.72-2.19-.97-.45-2.05-.68-3.22-.68-1.31,0-2.46,.23-3.47,.68-1.01,.45-1.84,1.08-2.49,1.89s-1.15,1.74-1.48,2.79c-.34,1.06-.5,2.19-.5,3.39s.19,2.34,.58,3.4c.38,1.06,.92,1.99,1.61,2.79,.69,.8,1.52,1.43,2.49,1.89,.97,.45,2.06,.68,3.27,.68,2.58,0,4.58-.97,5.99-2.92l2.92,2.77c-1.14,1.31-2.48,2.26-4.02,2.87-1.54,.6-3.17,.91-4.88,.91-1.81,0-3.47-.3-4.98-.91-1.51-.6-2.79-1.46-3.85-2.57s-1.88-2.41-2.46-3.92c-.59-1.51-.88-3.17-.88-4.98s.29-3.42,.88-4.93c.59-1.51,1.42-2.82,2.49-3.92,1.07-1.11,2.36-1.97,3.85-2.59,1.49-.62,3.14-.93,4.95-.93s3.4,.3,4.95,.91c1.56,.6,2.93,1.54,4.1,2.82l-3.12,2.77Z"/><path d="M276.51,331.49c0-1.84,.32-3.52,.96-5.03,.64-1.51,1.51-2.81,2.62-3.9,1.11-1.09,2.43-1.94,3.97-2.54,1.54-.6,3.22-.91,5.03-.91s3.49,.3,5.03,.91c1.54,.6,2.87,1.45,3.97,2.54s1.98,2.39,2.62,3.9c.64,1.51,.96,3.19,.96,5.03s-.32,3.52-.96,5.03c-.64,1.51-1.51,2.81-2.62,3.9s-2.43,1.94-3.97,2.54c-1.54,.6-3.22,.91-5.03,.91s-3.49-.3-5.03-.91c-1.54-.6-2.87-1.45-3.97-2.54-1.11-1.09-1.98-2.39-2.62-3.9-.64-1.51-.96-3.19-.96-5.03Zm4.23,0c0,1.24,.19,2.39,.58,3.45,.38,1.06,.95,1.98,1.69,2.77,.74,.79,1.62,1.41,2.64,1.86,1.02,.45,2.17,.68,3.45,.68s2.42-.23,3.45-.68c1.02-.45,1.9-1.07,2.64-1.86,.74-.79,1.3-1.71,1.69-2.77,.39-1.06,.58-2.21,.58-3.45s-.19-2.39-.58-3.45c-.39-1.06-.95-1.98-1.69-2.77-.74-.79-1.62-1.41-2.64-1.86-1.02-.45-2.17-.68-3.45-.68s-2.42,.23-3.45,.68c-1.02,.45-1.9,1.07-2.64,1.86-.74,.79-1.3,1.71-1.69,2.77-.39,1.06-.58,2.21-.58,3.45Z"/><path d="M307.74,325.3c0-1.07-.03-2.08-.1-3.02-.07-.94-.1-1.79-.1-2.56h3.72c0,.64,.02,1.27,.05,1.91,.03,.64,.05,1.29,.05,1.96h.1c.27-.57,.65-1.12,1.13-1.66,.49-.54,1.06-1.01,1.74-1.43,.67-.42,1.42-.75,2.26-1.01,.84-.25,1.74-.38,2.72-.38,1.27,0,2.34,.16,3.19,.48,.85,.32,1.57,.7,2.14,1.16,.57,.45,1.01,.94,1.33,1.46,.32,.52,.58,.98,.78,1.38,.87-1.41,1.88-2.51,3.02-3.29,1.14-.79,2.62-1.18,4.43-1.18,1.68,0,3.08,.23,4.23,.68,1.14,.45,2.06,1.11,2.77,1.96,.7,.85,1.21,1.89,1.51,3.12,.3,1.22,.45,2.59,.45,4.1v14.29h-3.92v-14.08c0-.8-.08-1.59-.25-2.36-.17-.77-.47-1.46-.91-2.06-.44-.6-1.02-1.09-1.76-1.46-.74-.37-1.68-.55-2.82-.55-.84,0-1.63,.17-2.36,.5-.74,.34-1.38,.8-1.94,1.41s-.99,1.33-1.31,2.19c-.32,.86-.48,1.8-.48,2.84v13.58h-3.92v-13.33c0-2.62-.35-4.47-1.06-5.56-.7-1.09-1.86-1.63-3.47-1.63-1.27,0-2.37,.22-3.29,.65-.92,.44-1.68,1.06-2.26,1.86-.59,.81-1.02,1.76-1.31,2.87-.29,1.11-.43,2.33-.43,3.67v11.47h-3.92v-17.96Z"/><path d="M350.6,325.3c0-1.07-.03-2.08-.1-3.02-.07-.94-.1-1.79-.1-2.56h3.72c0,.64,.02,1.27,.05,1.91,.03,.64,.05,1.29,.05,1.96h.1c.27-.57,.65-1.12,1.13-1.66,.49-.54,1.06-1.01,1.74-1.43,.67-.42,1.42-.75,2.26-1.01,.84-.25,1.74-.38,2.72-.38,1.27,0,2.34,.16,3.19,.48,.85,.32,1.57,.7,2.14,1.16,.57,.45,1.01,.94,1.33,1.46,.32,.52,.58,.98,.78,1.38,.87-1.41,1.88-2.51,3.02-3.29,1.14-.79,2.62-1.18,4.43-1.18,1.68,0,3.08,.23,4.23,.68,1.14,.45,2.06,1.11,2.77,1.96,.7,.85,1.21,1.89,1.51,3.12,.3,1.22,.45,2.59,.45,4.1v14.29h-3.92v-14.08c0-.8-.08-1.59-.25-2.36-.17-.77-.47-1.46-.91-2.06-.44-.6-1.02-1.09-1.76-1.46-.74-.37-1.68-.55-2.82-.55-.84,0-1.63,.17-2.36,.5-.74,.34-1.38,.8-1.94,1.41s-.99,1.33-1.31,2.19c-.32,.86-.48,1.8-.48,2.84v13.58h-3.92v-13.33c0-2.62-.35-4.47-1.06-5.56-.7-1.09-1.86-1.63-3.47-1.63-1.27,0-2.37,.22-3.29,.65-.92,.44-1.68,1.06-2.26,1.86-.59,.81-1.02,1.76-1.31,2.87-.29,1.11-.43,2.33-.43,3.67v11.47h-3.92v-17.96Z"/><path d="M413.97,337.68c0,1.07,.03,2.08,.1,3.02,.07,.94,.1,1.79,.1,2.57h-3.72c0-.64-.02-1.27-.05-1.91-.03-.64-.05-1.29-.05-1.96h-.1c-.27,.57-.65,1.12-1.13,1.66-.49,.54-1.06,1.01-1.74,1.43-.67,.42-1.43,.75-2.26,1.01-.84,.25-1.74,.38-2.72,.38-1.54,0-2.88-.24-4-.7-1.12-.47-2.05-1.12-2.79-1.96-.74-.84-1.28-1.85-1.63-3.04-.35-1.19-.53-2.49-.53-3.9v-14.54h3.92v14.13c0,1.98,.44,3.54,1.31,4.68,.87,1.14,2.23,1.71,4.07,1.71,1.27,0,2.37-.22,3.29-.65,.92-.44,1.68-1.06,2.26-1.86,.59-.8,1.02-1.76,1.31-2.87,.28-1.11,.43-2.33,.43-3.67v-11.47h3.92v17.96Z"/><path d="M421.42,325.3c0-1.07-.03-2.08-.1-3.02-.07-.94-.1-1.79-.1-2.56h3.72c0,.64,.02,1.27,.05,1.91,.03,.64,.05,1.29,.05,1.96h.1c.27-.57,.65-1.12,1.13-1.66,.49-.54,1.06-1.01,1.74-1.43,.67-.42,1.42-.75,2.26-1.01,.84-.25,1.74-.38,2.72-.38,1.54,0,2.88,.23,4,.7,1.12,.47,2.05,1.12,2.79,1.96,.74,.84,1.28,1.85,1.63,3.04,.35,1.19,.53,2.49,.53,3.9v14.54h-3.92v-14.13c0-1.98-.44-3.54-1.31-4.68-.87-1.14-2.23-1.71-4.07-1.71-1.28,0-2.37,.22-3.29,.65-.92,.44-1.68,1.06-2.26,1.86-.59,.81-1.02,1.76-1.31,2.87-.29,1.11-.43,2.33-.43,3.67v11.47h-3.92v-17.96Z"/><path d="M448.83,310.51c0-.77,.28-1.44,.83-2.01,.55-.57,1.23-.86,2.04-.86s1.48,.29,2.04,.86c.55,.57,.83,1.24,.83,2.01,0,.84-.27,1.53-.8,2.06-.54,.54-1.22,.8-2.06,.8s-1.53-.27-2.06-.8c-.54-.54-.8-1.22-.8-2.06Zm.91,9.21h3.92v23.54h-3.92v-23.54Z"/><path d="M478.21,325.6c-.84-1.01-1.74-1.74-2.72-2.19-.97-.45-2.05-.68-3.22-.68-1.31,0-2.46,.23-3.47,.68-1.01,.45-1.84,1.08-2.49,1.89s-1.15,1.74-1.48,2.79c-.34,1.06-.5,2.19-.5,3.39s.19,2.34,.58,3.4c.38,1.06,.92,1.99,1.61,2.79,.69,.8,1.52,1.43,2.49,1.89,.97,.45,2.06,.68,3.27,.68,2.58,0,4.58-.97,5.99-2.92l2.92,2.77c-1.14,1.31-2.48,2.26-4.02,2.87-1.54,.6-3.17,.91-4.88,.91-1.81,0-3.47-.3-4.98-.91-1.51-.6-2.79-1.46-3.85-2.57s-1.88-2.41-2.46-3.92c-.59-1.51-.88-3.17-.88-4.98s.29-3.42,.88-4.93c.59-1.51,1.42-2.82,2.49-3.92,1.07-1.11,2.36-1.97,3.85-2.59,1.49-.62,3.14-.93,4.96-.93s3.39,.3,4.95,.91,2.93,1.54,4.1,2.82l-3.12,2.77Z"/><path d="M485.4,322.74c1.21-1.24,2.64-2.15,4.3-2.74,1.66-.59,3.35-.88,5.06-.88,3.49,0,6,.82,7.54,2.46,1.54,1.64,2.31,4.14,2.31,7.5v10.11c0,.67,.03,1.37,.1,2.09,.07,.72,.15,1.38,.25,1.99h-3.77c-.13-.54-.21-1.13-.23-1.79-.02-.65-.03-1.23-.03-1.74h-.1c-.77,1.21-1.8,2.2-3.09,2.97-1.29,.77-2.84,1.16-4.65,1.16-1.21,0-2.34-.15-3.4-.45-1.06-.3-1.98-.75-2.77-1.33s-1.42-1.32-1.89-2.19c-.47-.87-.7-1.88-.7-3.02,0-1.94,.5-3.47,1.51-4.58,1.01-1.11,2.25-1.93,3.75-2.46s3.1-.87,4.83-1.01c1.73-.13,3.31-.2,4.75-.2h1.51v-.7c0-1.71-.51-3-1.53-3.87-1.02-.87-2.46-1.31-4.3-1.31-1.28,0-2.52,.21-3.75,.63-1.22,.42-2.31,1.06-3.25,1.94l-2.46-2.57Zm11.37,9.21c-2.51,0-4.51,.35-5.99,1.06-1.48,.7-2.21,1.86-2.21,3.47,0,1.48,.5,2.52,1.48,3.14,.99,.62,2.22,.93,3.7,.93,1.14,0,2.14-.19,2.99-.58,.86-.38,1.57-.9,2.14-1.53,.57-.64,1.01-1.38,1.31-2.24,.3-.85,.47-1.77,.5-2.74v-1.51h-3.92Z"/><path d="M524.68,323.04h-6.94v11.77c0,.77,.02,1.48,.05,2.14,.03,.65,.17,1.22,.4,1.71,.23,.49,.59,.87,1.06,1.16,.47,.29,1.14,.43,2.01,.43,.57,0,1.16-.07,1.76-.2s1.17-.33,1.71-.6l.15,3.57c-.67,.3-1.42,.52-2.24,.65-.82,.13-1.6,.2-2.34,.2-1.41,0-2.53-.18-3.37-.55-.84-.37-1.49-.89-1.96-1.56s-.78-1.5-.93-2.49c-.15-.99-.23-2.09-.23-3.29v-12.93h-5.13v-3.32h5.13v-6.69h3.92v6.69h6.94v3.32Z"/><path d="M529.01,310.51c0-.77,.28-1.44,.83-2.01,.55-.57,1.23-.86,2.04-.86s1.48,.29,2.04,.86c.55,.57,.83,1.24,.83,2.01,0,.84-.27,1.53-.8,2.06-.54,.54-1.22,.8-2.06,.8s-1.53-.27-2.06-.8c-.54-.54-.8-1.22-.8-2.06Zm.91,9.21h3.92v23.54h-3.92v-23.54Z"/><path d="M540.27,331.49c0-1.84,.32-3.52,.96-5.03,.64-1.51,1.51-2.81,2.62-3.9s2.43-1.94,3.97-2.54c1.54-.6,3.22-.91,5.03-.91s3.49,.3,5.03,.91,2.87,1.45,3.97,2.54c1.11,1.09,1.98,2.39,2.62,3.9,.64,1.51,.96,3.19,.96,5.03s-.32,3.52-.96,5.03c-.64,1.51-1.51,2.81-2.62,3.9-1.11,1.09-2.43,1.94-3.97,2.54s-3.22,.91-5.03,.91-3.49-.3-5.03-.91c-1.54-.6-2.87-1.45-3.97-2.54s-1.98-2.39-2.62-3.9-.96-3.19-.96-5.03Zm4.22,0c0,1.24,.19,2.39,.58,3.45,.38,1.06,.95,1.98,1.68,2.77,.74,.79,1.62,1.41,2.64,1.86,1.02,.45,2.17,.68,3.45,.68s2.42-.23,3.45-.68c1.02-.45,1.9-1.07,2.64-1.86,.74-.79,1.3-1.71,1.69-2.77,.38-1.06,.58-2.21,.58-3.45s-.19-2.39-.58-3.45c-.39-1.06-.95-1.98-1.69-2.77-.74-.79-1.62-1.41-2.64-1.86-1.02-.45-2.17-.68-3.45-.68s-2.42,.23-3.45,.68c-1.02,.45-1.9,1.07-2.64,1.86-.74,.79-1.3,1.71-1.68,2.77-.39,1.06-.58,2.21-.58,3.45Z"/><path d="M571.51,325.3c0-1.07-.03-2.08-.1-3.02-.07-.94-.1-1.79-.1-2.56h3.72c0,.64,.02,1.27,.05,1.91,.03,.64,.05,1.29,.05,1.96h.1c.27-.57,.65-1.12,1.13-1.66,.49-.54,1.06-1.01,1.74-1.43,.67-.42,1.42-.75,2.26-1.01,.84-.25,1.74-.38,2.72-.38,1.54,0,2.88,.23,4,.7,1.12,.47,2.05,1.12,2.79,1.96,.74,.84,1.28,1.85,1.63,3.04,.35,1.19,.53,2.49,.53,3.9v14.54h-3.92v-14.13c0-1.98-.44-3.54-1.31-4.68-.87-1.14-2.23-1.71-4.07-1.71-1.28,0-2.37,.22-3.29,.65-.92,.44-1.68,1.06-2.26,1.86-.59,.81-1.02,1.76-1.31,2.87-.29,1.11-.43,2.33-.43,3.67v11.47h-3.92v-17.96Z"/><path d="M613.46,325.3c0-1.07-.03-2.08-.1-3.02-.07-.94-.1-1.79-.1-2.56h3.72c0,.64,.02,1.27,.05,1.91,.03,.64,.05,1.29,.05,1.96h.1c.27-.57,.65-1.12,1.13-1.66,.49-.54,1.06-1.01,1.74-1.43,.67-.42,1.42-.75,2.26-1.01,.84-.25,1.74-.38,2.72-.38,.27,0,.54,.02,.8,.05,.27,.03,.54,.1,.8,.2l-.25,3.97c-.67-.2-1.38-.3-2.11-.3-2.42,0-4.17,.78-5.26,2.34s-1.63,3.7-1.63,6.41v11.47h-3.92v-17.96Z"/><path d="M651.29,338.98c-1.41,1.81-2.95,3.08-4.63,3.8-1.68,.72-3.62,1.08-5.83,1.08-1.84,0-3.5-.33-4.98-.98-1.48-.65-2.72-1.53-3.75-2.64-1.02-1.11-1.81-2.42-2.36-3.92-.55-1.51-.83-3.12-.83-4.83,0-1.81,.3-3.48,.91-5,.6-1.53,1.44-2.83,2.51-3.92s2.35-1.94,3.82-2.54c1.47-.6,3.08-.91,4.83-.91,1.64,0,3.15,.28,4.53,.83,1.38,.55,2.56,1.36,3.55,2.42,.99,1.06,1.75,2.35,2.29,3.87,.54,1.53,.8,3.26,.8,5.21v1.26h-19.01c.07,1.01,.31,1.97,.73,2.89,.42,.92,.96,1.73,1.63,2.41,.67,.69,1.46,1.23,2.36,1.63,.91,.4,1.89,.6,2.97,.6,1.71,0,3.15-.3,4.33-.91,1.17-.6,2.23-1.49,3.17-2.67l2.97,2.31Zm-3.37-9.61c-.07-2.01-.72-3.62-1.96-4.83-1.24-1.21-2.95-1.81-5.13-1.81s-3.94,.6-5.28,1.81c-1.34,1.21-2.15,2.82-2.42,4.83h14.79Z"/><path d="M658.73,337.07c.77,.97,1.62,1.74,2.54,2.31,.92,.57,2.09,.86,3.5,.86,.6,0,1.22-.07,1.84-.2s1.18-.35,1.69-.65,.91-.68,1.21-1.13,.45-1,.45-1.63-.14-1.16-.43-1.56c-.29-.4-.66-.75-1.13-1.03-.47-.28-1.01-.51-1.61-.68-.6-.17-1.22-.32-1.86-.45-1.11-.23-2.16-.5-3.17-.81s-1.89-.7-2.64-1.18c-.75-.49-1.36-1.11-1.81-1.89-.45-.77-.68-1.76-.68-2.97,0-1.14,.25-2.15,.75-3.02,.5-.87,1.17-1.59,2.01-2.16,.84-.57,1.78-1.01,2.82-1.31,1.04-.3,2.11-.45,3.22-.45,1.68,0,3.23,.33,4.65,1.01,1.43,.67,2.54,1.76,3.35,3.27l-3.27,2.16c-.5-.84-1.17-1.52-1.99-2.04-.82-.52-1.82-.78-2.99-.78-.54,0-1.08,.07-1.63,.2-.55,.13-1.05,.34-1.48,.6-.44,.27-.8,.61-1.08,1.03-.29,.42-.43,.9-.43,1.43,0,.5,.16,.93,.48,1.28,.32,.35,.75,.66,1.31,.93,.55,.27,1.19,.5,1.91,.7,.72,.2,1.47,.37,2.24,.5,1.04,.2,2.03,.46,2.97,.78,.94,.32,1.76,.75,2.46,1.28,.71,.54,1.26,1.21,1.66,2.01,.4,.8,.6,1.79,.6,2.97,0,1.34-.27,2.48-.8,3.42-.54,.94-1.25,1.7-2.14,2.29s-1.89,1.01-3.02,1.28c-1.12,.27-2.27,.4-3.45,.4-2.01,0-3.75-.31-5.21-.93-1.46-.62-2.77-1.77-3.95-3.45l3.12-2.41Z"/><path d="M679.45,319.72h3.92v3.42h.1c1.07-1.27,2.32-2.26,3.75-2.97,1.42-.7,2.99-1.06,4.7-1.06,1.84,0,3.53,.31,5.06,.93,1.53,.62,2.82,1.48,3.9,2.59,1.07,1.11,1.91,2.41,2.51,3.92,.6,1.51,.91,3.15,.91,4.93s-.3,3.42-.91,4.93-1.43,2.82-2.49,3.92c-1.06,1.11-2.31,1.97-3.75,2.59-1.44,.62-2.99,.93-4.63,.93-2.11,0-3.97-.46-5.56-1.38-1.59-.92-2.76-2.05-3.5-3.4h-.1v15.64h-3.92v-35.01Zm3.92,11.77c0,1.24,.19,2.39,.58,3.45,.39,1.06,.95,1.98,1.69,2.77,.74,.79,1.62,1.41,2.64,1.86,1.02,.45,2.17,.68,3.45,.68s2.42-.23,3.45-.68c1.02-.45,1.9-1.07,2.64-1.86,.74-.79,1.3-1.71,1.68-2.77,.38-1.06,.58-2.21,.58-3.45s-.19-2.39-.58-3.45c-.39-1.06-.95-1.98-1.68-2.77-.74-.79-1.62-1.41-2.64-1.86-1.02-.45-2.17-.68-3.45-.68s-2.42,.23-3.45,.68c-1.02,.45-1.9,1.07-2.64,1.86-.74,.79-1.3,1.71-1.69,2.77s-.58,2.21-.58,3.45Z"/><path d="M709.03,331.49c0-1.84,.32-3.52,.96-5.03,.64-1.51,1.51-2.81,2.62-3.9s2.43-1.94,3.97-2.54c1.54-.6,3.22-.91,5.03-.91s3.49,.3,5.03,.91,2.87,1.45,3.97,2.54c1.11,1.09,1.98,2.39,2.62,3.9,.64,1.51,.96,3.19,.96,5.03s-.32,3.52-.96,5.03c-.64,1.51-1.51,2.81-2.62,3.9-1.11,1.09-2.43,1.94-3.97,2.54s-3.22,.91-5.03,.91-3.49-.3-5.03-.91c-1.54-.6-2.87-1.45-3.97-2.54s-1.98-2.39-2.62-3.9-.96-3.19-.96-5.03Zm4.22,0c0,1.24,.19,2.39,.58,3.45,.38,1.06,.95,1.98,1.68,2.77,.74,.79,1.62,1.41,2.64,1.86,1.02,.45,2.17,.68,3.45,.68s2.42-.23,3.45-.68c1.02-.45,1.9-1.07,2.64-1.86,.74-.79,1.3-1.71,1.69-2.77,.38-1.06,.58-2.21,.58-3.45s-.19-2.39-.58-3.45c-.39-1.06-.95-1.98-1.69-2.77-.74-.79-1.62-1.41-2.64-1.86-1.02-.45-2.17-.68-3.45-.68s-2.42,.23-3.45,.68c-1.02,.45-1.9,1.07-2.64,1.86-.74,.79-1.3,1.71-1.68,2.77-.39,1.06-.58,2.21-.58,3.45Z"/><path d="M740.27,325.3c0-1.07-.03-2.08-.1-3.02-.07-.94-.1-1.79-.1-2.56h3.72c0,.64,.02,1.27,.05,1.91,.03,.64,.05,1.29,.05,1.96h.1c.27-.57,.65-1.12,1.13-1.66,.49-.54,1.06-1.01,1.74-1.43,.67-.42,1.42-.75,2.26-1.01,.84-.25,1.74-.38,2.72-.38,1.54,0,2.88,.23,4,.7,1.12,.47,2.05,1.12,2.79,1.96,.74,.84,1.28,1.85,1.63,3.04,.35,1.19,.53,2.49,.53,3.9v14.54h-3.92v-14.13c0-1.98-.44-3.54-1.31-4.68-.87-1.14-2.23-1.71-4.07-1.71-1.28,0-2.37,.22-3.29,.65-.92,.44-1.68,1.06-2.26,1.86-.59,.81-1.02,1.76-1.31,2.87-.29,1.11-.43,2.33-.43,3.67v11.47h-3.92v-17.96Z"/><path d="M768.73,337.07c.77,.97,1.62,1.74,2.54,2.31,.92,.57,2.09,.86,3.5,.86,.6,0,1.22-.07,1.84-.2s1.18-.35,1.69-.65,.91-.68,1.21-1.13,.45-1,.45-1.63-.14-1.16-.43-1.56c-.29-.4-.66-.75-1.13-1.03-.47-.28-1.01-.51-1.61-.68-.6-.17-1.22-.32-1.86-.45-1.11-.23-2.16-.5-3.17-.81s-1.89-.7-2.64-1.18c-.75-.49-1.36-1.11-1.81-1.89-.45-.77-.68-1.76-.68-2.97,0-1.14,.25-2.15,.75-3.02,.5-.87,1.17-1.59,2.01-2.16,.84-.57,1.78-1.01,2.82-1.31,1.04-.3,2.11-.45,3.22-.45,1.68,0,3.23,.33,4.65,1.01,1.43,.67,2.54,1.76,3.35,3.27l-3.27,2.16c-.5-.84-1.17-1.52-1.99-2.04-.82-.52-1.82-.78-2.99-.78-.54,0-1.08,.07-1.63,.2-.55,.13-1.05,.34-1.48,.6-.44,.27-.8,.61-1.08,1.03-.29,.42-.43,.9-.43,1.43,0,.5,.16,.93,.48,1.28,.32,.35,.75,.66,1.31,.93,.55,.27,1.19,.5,1.91,.7,.72,.2,1.47,.37,2.24,.5,1.04,.2,2.03,.46,2.97,.78,.94,.32,1.76,.75,2.46,1.28,.71,.54,1.26,1.21,1.66,2.01,.4,.8,.6,1.79,.6,2.97,0,1.34-.27,2.48-.8,3.42-.54,.94-1.25,1.7-2.14,2.29s-1.89,1.01-3.02,1.28c-1.12,.27-2.27,.4-3.45,.4-2.01,0-3.75-.31-5.21-.93-1.46-.62-2.77-1.77-3.95-3.45l3.12-2.41Z"/><path d="M789.36,322.74c1.21-1.24,2.64-2.15,4.3-2.74,1.66-.59,3.35-.88,5.06-.88,3.49,0,6,.82,7.54,2.46,1.54,1.64,2.31,4.14,2.31,7.5v10.11c0,.67,.03,1.37,.1,2.09,.07,.72,.15,1.38,.25,1.99h-3.77c-.13-.54-.21-1.13-.23-1.79-.02-.65-.03-1.23-.03-1.74h-.1c-.77,1.21-1.8,2.2-3.09,2.97-1.29,.77-2.84,1.16-4.65,1.16-1.21,0-2.34-.15-3.4-.45-1.06-.3-1.98-.75-2.77-1.33s-1.42-1.32-1.89-2.19c-.47-.87-.7-1.88-.7-3.02,0-1.94,.5-3.47,1.51-4.58,1.01-1.11,2.25-1.93,3.75-2.46,1.49-.54,3.1-.87,4.83-1.01,1.73-.13,3.31-.2,4.75-.2h1.51v-.7c0-1.71-.51-3-1.53-3.87-1.02-.87-2.46-1.31-4.3-1.31-1.28,0-2.52,.21-3.75,.63-1.22,.42-2.31,1.06-3.25,1.94l-2.46-2.57Zm11.37,9.21c-2.51,0-4.51,.35-5.99,1.06-1.48,.7-2.21,1.86-2.21,3.47,0,1.48,.5,2.52,1.48,3.14,.99,.62,2.22,.93,3.7,.93,1.14,0,2.14-.19,2.99-.58,.86-.38,1.57-.9,2.14-1.53,.57-.64,1.01-1.38,1.31-2.24,.3-.85,.47-1.77,.5-2.74v-1.51h-3.92Z"/><path d="M815.56,305.23h3.92v17.91h.1c1.07-1.27,2.32-2.26,3.75-2.97,1.42-.7,2.99-1.06,4.7-1.06,1.84,0,3.53,.31,5.06,.93,1.53,.62,2.82,1.48,3.9,2.59,1.07,1.11,1.91,2.41,2.51,3.92,.6,1.51,.91,3.15,.91,4.93s-.3,3.42-.91,4.93-1.43,2.82-2.49,3.92c-1.06,1.11-2.31,1.97-3.75,2.59-1.44,.62-2.99,.93-4.63,.93-2.11,0-3.97-.46-5.56-1.38-1.59-.92-2.76-2.05-3.5-3.4h-.1v4.17h-3.92v-38.03Zm3.92,26.26c0,1.24,.19,2.39,.58,3.45,.39,1.06,.95,1.98,1.69,2.77,.74,.79,1.62,1.41,2.64,1.86,1.02,.45,2.17,.68,3.45,.68s2.42-.23,3.45-.68c1.02-.45,1.9-1.07,2.64-1.86,.74-.79,1.3-1.71,1.68-2.77,.38-1.06,.58-2.21,.58-3.45s-.19-2.39-.58-3.45c-.39-1.06-.95-1.98-1.68-2.77-.74-.79-1.62-1.41-2.64-1.86-1.02-.45-2.17-.68-3.45-.68s-2.42,.23-3.45,.68c-1.02,.45-1.9,1.07-2.64,1.86-.74,.79-1.3,1.71-1.69,2.77-.39,1.06-.58,2.21-.58,3.45Z"/><path d="M846.85,305.23h3.92v38.03h-3.92v-38.03Z"/><path d="M879.6,338.98c-1.41,1.81-2.95,3.08-4.63,3.8-1.68,.72-3.62,1.08-5.83,1.08-1.84,0-3.5-.33-4.98-.98-1.48-.65-2.72-1.53-3.75-2.64-1.02-1.11-1.81-2.42-2.36-3.92-.55-1.51-.83-3.12-.83-4.83,0-1.81,.3-3.48,.91-5,.6-1.53,1.44-2.83,2.51-3.92s2.35-1.94,3.82-2.54c1.47-.6,3.08-.91,4.83-.91,1.64,0,3.15,.28,4.53,.83,1.38,.55,2.56,1.36,3.55,2.42,.99,1.06,1.75,2.35,2.29,3.87,.54,1.53,.8,3.26,.8,5.21v1.26h-19.01c.07,1.01,.31,1.97,.73,2.89,.42,.92,.96,1.73,1.63,2.41,.67,.69,1.46,1.23,2.36,1.63,.91,.4,1.89,.6,2.97,.6,1.71,0,3.15-.3,4.33-.91,1.17-.6,2.23-1.49,3.17-2.67l2.97,2.31Zm-3.37-9.61c-.07-2.01-.72-3.62-1.96-4.83-1.24-1.21-2.95-1.81-5.13-1.81s-3.94,.6-5.28,1.81c-1.34,1.21-2.15,2.82-2.42,4.83h14.79Z"/></g><g><path d="M21.43,230.5c.71,6.43,3.21,11.43,7.5,15,4.29,3.57,9.47,5.36,15.54,5.36,5.36,0,9.85-1.1,13.48-3.3,3.63-2.2,6.81-4.97,9.55-8.3l15.36,11.61c-5,6.19-10.6,10.6-16.79,13.21-6.19,2.62-12.68,3.93-19.47,3.93-6.43,0-12.5-1.07-18.22-3.21-5.71-2.14-10.66-5.18-14.82-9.11-4.17-3.93-7.47-8.66-9.91-14.2-2.44-5.54-3.66-11.7-3.66-18.48s1.22-12.95,3.66-18.48c2.44-5.54,5.74-10.27,9.91-14.2,4.17-3.93,9.11-6.96,14.82-9.11s11.79-3.21,18.22-3.21c5.95,0,11.4,1.04,16.34,3.12,4.94,2.08,9.17,5.09,12.68,9.02,3.51,3.93,6.25,8.78,8.22,14.55,1.96,5.78,2.95,12.41,2.95,19.91v5.89H21.43Zm43.93-16.07c-.12-6.31-2.08-11.28-5.89-14.91-3.81-3.63-9.11-5.45-15.89-5.45-6.43,0-11.52,1.85-15.27,5.54-3.75,3.69-6.04,8.63-6.88,14.82h43.93Z"/><path d="M165.37,205.85c-2.5-2.62-5.12-4.7-7.86-6.25-2.74-1.55-5.54-2.32-8.39-2.32-3.93,0-7.44,.71-10.54,2.14-3.1,1.43-5.75,3.33-7.95,5.71-2.2,2.38-3.87,5.12-5,8.21-1.13,3.1-1.7,6.31-1.7,9.64s.56,6.55,1.7,9.64c1.13,3.1,2.8,5.83,5,8.22,2.2,2.38,4.85,4.29,7.95,5.71,3.09,1.43,6.61,2.14,10.54,2.14,3.33,0,6.43-.68,9.29-2.05,2.86-1.37,5.3-3.36,7.32-5.98l14.29,15.36c-2.14,2.14-4.62,3.99-7.41,5.54-2.8,1.55-5.63,2.8-8.48,3.75-2.86,.95-5.6,1.64-8.21,2.05-2.62,.42-4.88,.62-6.79,.62-6.43,0-12.5-1.07-18.22-3.21-5.71-2.14-10.66-5.18-14.82-9.11-4.17-3.93-7.47-8.66-9.91-14.2-2.44-5.54-3.66-11.7-3.66-18.48s1.22-12.95,3.66-18.48c2.44-5.54,5.74-10.27,9.91-14.2,4.17-3.93,9.11-6.96,14.82-9.11s11.79-3.21,18.22-3.21c5.48,0,10.98,1.04,16.52,3.12,5.54,2.08,10.39,5.39,14.55,9.91l-14.82,14.82Z"/><path d="M188.59,223c0-6.79,1.22-12.95,3.66-18.48,2.44-5.54,5.74-10.27,9.91-14.2,4.17-3.93,9.11-6.96,14.82-9.11s11.79-3.21,18.22-3.21,12.5,1.07,18.22,3.21,10.65,5.18,14.82,9.11c4.17,3.93,7.47,8.66,9.91,14.2,2.44,5.54,3.66,11.7,3.66,18.48s-1.22,12.95-3.66,18.48c-2.44,5.54-5.75,10.27-9.91,14.2-4.17,3.93-9.11,6.96-14.82,9.11-5.71,2.14-11.79,3.21-18.22,3.21s-12.5-1.07-18.22-3.21c-5.71-2.14-10.66-5.18-14.82-9.11-4.17-3.93-7.47-8.66-9.91-14.2-2.44-5.54-3.66-11.7-3.66-18.48Zm21.43,0c0,3.33,.56,6.55,1.7,9.64,1.13,3.1,2.8,5.83,5,8.22,2.2,2.38,4.85,4.29,7.95,5.71,3.09,1.43,6.61,2.14,10.54,2.14s7.44-.71,10.54-2.14c3.09-1.43,5.74-3.33,7.95-5.71,2.2-2.38,3.87-5.12,5-8.22,1.13-3.09,1.7-6.31,1.7-9.64s-.57-6.55-1.7-9.64c-1.13-3.09-2.8-5.83-5-8.21-2.2-2.38-4.85-4.29-7.95-5.71-3.1-1.43-6.61-2.14-10.54-2.14s-7.44,.71-10.54,2.14c-3.1,1.43-5.75,3.33-7.95,5.71-2.2,2.38-3.87,5.12-5,8.21-1.13,3.1-1.7,6.31-1.7,9.64Z"/><path d="M399.49,180.14h20.36v13.39h.36c1.9-4.05,4.97-7.65,9.2-10.8,4.22-3.15,9.91-4.73,17.05-4.73,13.45,0,22.38,5.3,26.79,15.89,3.09-5.47,6.96-9.49,11.61-12.05,4.64-2.56,10.18-3.84,16.61-3.84,5.71,0,10.54,.95,14.47,2.86,3.93,1.91,7.11,4.53,9.55,7.86,2.44,3.33,4.2,7.23,5.27,11.7,1.07,4.46,1.61,9.26,1.61,14.38v51.08h-21.43v-48.58c0-2.62-.24-5.15-.71-7.59-.48-2.44-1.31-4.58-2.5-6.43-1.19-1.84-2.8-3.3-4.82-4.38-2.03-1.07-4.64-1.61-7.86-1.61s-6.16,.62-8.48,1.88c-2.32,1.25-4.23,2.92-5.71,5-1.49,2.08-2.56,4.46-3.21,7.14-.66,2.68-.98,5.39-.98,8.13v46.43h-21.43v-51.08c0-5.36-1.13-9.61-3.39-12.77-2.26-3.15-6.01-4.73-11.25-4.73-3.57,0-6.58,.6-9.02,1.79-2.44,1.19-4.46,2.8-6.07,4.82-1.61,2.03-2.77,4.35-3.48,6.97-.71,2.62-1.07,5.36-1.07,8.21v46.79h-21.43v-85.72Z"/><path d="M553.08,151.03c0-3.45,1.28-6.46,3.84-9.02,2.56-2.56,5.8-3.84,9.73-3.84s7.23,1.22,9.91,3.66c2.68,2.44,4.02,5.51,4.02,9.2s-1.34,6.76-4.02,9.2c-2.68,2.44-5.98,3.66-9.91,3.66s-7.17-1.28-9.73-3.84c-2.56-2.56-3.84-5.56-3.84-9.02Zm3.04,29.11h21.43v85.72h-21.43v-85.72Z"/><path d="M602.19,180.14h20.36v13.75h.36c2.02-4.29,5.12-8.01,9.29-11.16,4.17-3.15,9.82-4.73,16.97-4.73,5.71,0,10.57,.95,14.56,2.86,3.99,1.91,7.23,4.41,9.73,7.5,2.5,3.1,4.29,6.67,5.36,10.72,1.07,4.05,1.61,8.28,1.61,12.68v54.11h-21.43v-43.4c0-2.38-.12-5.03-.36-7.95-.24-2.92-.87-5.65-1.88-8.22-1.01-2.56-2.59-4.7-4.73-6.43-2.14-1.72-5.06-2.59-8.75-2.59s-6.58,.6-9.02,1.79c-2.44,1.19-4.46,2.8-6.07,4.82-1.61,2.03-2.77,4.35-3.48,6.97-.71,2.62-1.07,5.36-1.07,8.21v46.79h-21.43v-85.72Z"/><path d="M772.56,253h-.36c-3.1,5.24-7.26,9.05-12.5,11.43-5.24,2.38-10.89,3.57-16.97,3.57-6.67,0-12.59-1.16-17.77-3.48-5.18-2.32-9.62-5.5-13.3-9.55-3.69-4.05-6.49-8.81-8.39-14.29-1.91-5.47-2.86-11.37-2.86-17.68s1.01-12.2,3.04-17.68c2.02-5.47,4.85-10.24,8.48-14.29,3.63-4.05,8.01-7.23,13.13-9.55,5.12-2.32,10.72-3.48,16.79-3.48,4.05,0,7.62,.42,10.72,1.25,3.09,.83,5.83,1.91,8.21,3.21,2.38,1.31,4.4,2.71,6.07,4.2,1.67,1.49,3.04,2.95,4.11,4.38h.54v-60.18h21.43v135.01h-20.36v-12.86Zm-50.72-30c0,3.33,.56,6.55,1.7,9.64,1.13,3.1,2.8,5.83,5,8.22,2.2,2.38,4.85,4.29,7.95,5.71,3.09,1.43,6.61,2.14,10.54,2.14s7.44-.71,10.54-2.14c3.09-1.43,5.74-3.33,7.95-5.71,2.2-2.38,3.87-5.12,5-8.22,1.13-3.09,1.7-6.31,1.7-9.64s-.57-6.55-1.7-9.64c-1.13-3.09-2.8-5.83-5-8.21-2.2-2.38-4.85-4.29-7.95-5.71-3.1-1.43-6.61-2.14-10.54-2.14s-7.44,.71-10.54,2.14c-3.1,1.43-5.75,3.33-7.95,5.71-2.2,2.38-3.87,5.12-5,8.21-1.13,3.1-1.7,6.31-1.7,9.64Z"/><path d="M862.92,203.89c-4.17-5.83-9.76-8.75-16.79-8.75-2.86,0-5.66,.71-8.39,2.14-2.74,1.43-4.11,3.75-4.11,6.96,0,2.62,1.13,4.53,3.39,5.71,2.26,1.19,5.12,2.2,8.57,3.04,3.45,.83,7.17,1.7,11.16,2.59,3.99,.89,7.71,2.26,11.16,4.11,3.45,1.85,6.31,4.38,8.57,7.59,2.26,3.21,3.39,7.62,3.39,13.22,0,5.12-1.1,9.44-3.3,12.95-2.2,3.51-5.06,6.34-8.57,8.48-3.51,2.14-7.47,3.69-11.88,4.64-4.41,.95-8.81,1.43-13.22,1.43-6.67,0-12.8-.95-18.39-2.86-5.6-1.9-10.6-5.36-15-10.36l14.29-13.39c2.74,3.1,5.68,5.63,8.84,7.59,3.15,1.96,6.99,2.95,11.52,2.95,1.55,0,3.15-.18,4.82-.54,1.67-.36,3.21-.95,4.64-1.79,1.43-.83,2.59-1.88,3.48-3.12,.89-1.25,1.34-2.71,1.34-4.38,0-2.97-1.13-5.18-3.39-6.61-2.26-1.43-5.12-2.59-8.57-3.48-3.46-.89-7.17-1.72-11.16-2.5-3.99-.77-7.71-2.02-11.16-3.75-3.46-1.72-6.31-4.14-8.57-7.23-2.26-3.09-3.39-7.38-3.39-12.86,0-4.76,.98-8.9,2.95-12.41,1.96-3.51,4.55-6.4,7.77-8.66,3.21-2.26,6.9-3.93,11.07-5,4.17-1.07,8.39-1.61,12.68-1.61,5.71,0,11.37,.98,16.97,2.95,5.59,1.96,10.12,5.33,13.57,10.09l-14.29,12.86Z"/></g><g><path d="M333.35,139.56c.8,1.02,2.03,1.68,3.42,1.68,2.41,0,4.37-1.95,4.37-4.37v-10.41c0-34.6-27.1-62.46-61.71-63.44-1.77-.08-3.4,.98-4.12,2.6-3.89,8.76-5.86,17.94-5.86,27.29,0,35.67,27.86,64.95,62.95,67.2l.02,33.91-19.36,11.58-.03-28.77c0-1.87-1.2-3.54-2.98-4.13-34.32-11.54-57.37-43.6-57.37-79.79,0-46.41,37.76-84.17,84.17-84.17s84.17,37.76,84.17,84.17c0,36.17-23.02,68.22-57.28,79.77-1.78,.6-2.97,2.27-2.97,4.14v26.34s-53.24,30.82-53.24,30.82c-1.71,.99-2.54,3-2.03,4.91,.51,1.91,2.24,3.24,4.22,3.24h35.88l-35.17,24.75c-.4,.28-.51,.81-.27,1.23,.17,.29,.48,.46,.8,.46,.14,0,.27-.03,.4-.09l55.77-26.81s.04-.05,.07-.08c1.37-.74,2.31-2.17,2.31-3.83,0-2.41-1.96-4.37-4.37-4.37h-39.17l41.35-23.93c1.35-.78,2.18-2.22,2.18-3.78v-25.77c36.16-13.56,60.24-48.12,60.24-86.99C429.76,41.68,388.08,0,336.85,0s-92.91,41.68-92.91,92.91c0,38.89,24.12,73.47,60.35,87.01l.04,33.38c0,1.57,.85,3.02,2.22,3.8,1.37,.77,3.05,.76,4.4-.05l28.09-16.8c1.32-.79,2.13-2.22,2.13-3.75l-.03-40.61c0-2.41-1.96-4.36-4.37-4.36-32.3,0-58.57-26.29-58.57-58.6,0-7.15,1.33-14.2,3.96-20.99,27.55,2.23,48.85,24.33,50.12,51.96l-40.96-30.14c-.39-.29-.93-.23-1.25,.14-.32,.37-.3,.91,.03,1.26l43.25,44.42Z"/><path d="M346.82,110.55l39.14-36.91c.25-.24,.64-.25,.9-.02,.26,.23,.3,.62,.1,.9l-40.14,55.51c29.74,0,53.79-24.1,53.79-53.83,0-7.78-1.73-15.16-4.69-21.81-27.23,.76-49.11,23.08-49.11,50.49v5.67Z"/><path d="M351.46,54.17c0-12.79-5.88-24.24-15.08-31.75-9.2,7.51-15.08,18.95-15.08,31.75,0,11.38,4.66,21.66,12.16,29.09l2.03-40.85c.02-.48,.42-.85,.89-.85s.87,.37,.89,.85l2.04,40.84c7.49-7.43,12.14-17.71,12.14-29.09Z"/></g></svg>