<svg xmlns="http://www.w3.org/2000/svg" width="47.867" height="49.002" viewBox="0 0 47.867 49.002">
  <g id="Groupe_2337" data-name="Groupe 2337" transform="translate(-213 -350.499)">
    <g id="noun-project-3323986" transform="translate(175.1 350.499)">
      <path id="Tracé_1612" data-name="Tracé 1612" d="M175.893,105.661v2.7h-6.2v-2.7a1.161,1.161,0,0,1,1.161-1.161h3.872a1.161,1.161,0,0,1,1.162,1.161Zm-6.2,31.164,2.078,3.819a1.162,1.162,0,0,0,2.041,0l2.077-3.819V111.843h-6.2Zm38.384-38.287V107.7h7.536Zm-1.742,12.651a1.742,1.742,0,0,1-1.742-1.742V95.42H181.552a1.162,1.162,0,0,0-1.162,1.161v46.679a1.162,1.162,0,0,0,1.162,1.161H216.4a1.162,1.162,0,0,0,1.161-1.161V111.189Z" transform="translate(-131.797 -95.42)" fill="#98984b"/>
    </g>
  </g>
</svg>
