<svg xmlns="http://www.w3.org/2000/svg" width="62.324" height="55.092" viewBox="0 0 62.324 55.092">
  <g id="Groupe_2339" data-name="Groupe 2339" transform="translate(-205.772 -607.454)">
    <path id="Tracé_1571" data-name="Tracé 1571" d="M397.912,110.118a11.834,11.834,0,1,1-11.834-11.834,11.834,11.834,0,0,1,11.834,11.834" transform="translate(-137.482 509.17)" fill="#98984b"/>
    <path id="Tracé_1572" data-name="Tracé 1572" d="M354.327,300.613l-8.39-2.173a3.914,3.914,0,0,0-4.337,1.8l-.555.955a3.9,3.9,0,0,1-6.718,0l-.563-.955h0a3.9,3.9,0,0,0-4.315-1.8l-8.4,2.173a3.9,3.9,0,0,0-2.92,3.775v17.6a3.905,3.905,0,0,0,3.9,3.9h31.3a3.9,3.9,0,0,0,3.852-3.9v-17.6a3.891,3.891,0,0,0-2.858-3.775Z" transform="translate(-89.09 336.656)" fill="#98984b"/>
    <path id="Tracé_1573" data-name="Tracé 1573" d="M125.27,74.794a1.838,1.838,0,0,0-1.839-1.839h-9.958V62.992a1.838,1.838,0,1,0-3.677,0v9.964H99.839a1.839,1.839,0,0,0,0,3.677H109.8v9.958a1.838,1.838,0,0,0,3.677,0V76.633h9.958a1.838,1.838,0,0,0,1.839-1.839Z" transform="translate(107.772 546.544)" fill="#98984b"/>
  </g>
</svg>
