<svg xmlns="http://www.w3.org/2000/svg" width="49.001" height="53.019" viewBox="0 0 49.001 53.019">
  <g id="Groupe_2336" data-name="Groupe 2336" transform="translate(-212.999 -218.49)">
    <path id="Tracé_1664" data-name="Tracé 1664" d="M117.666,20.753a6.753,6.753,0,1,0-8.539,6.474v6.809a6.7,6.7,0,0,0,0,12.948v6.809a6.753,6.753,0,1,0,3.572,0V46.983a6.7,6.7,0,0,0,0-12.948V27.227a6.763,6.763,0,0,0,4.967-6.474Zm-9.99,0a3.237,3.237,0,1,1,3.237,3.237A3.313,3.313,0,0,1,107.676,20.753Zm6.474,39.513a3.237,3.237,0,1,1-3.237-3.237A3.313,3.313,0,0,1,114.15,60.266Zm0-19.756a3.237,3.237,0,1,1-3.237-3.237A3.239,3.239,0,0,1,114.15,40.51Z" transform="translate(108.839 204.49)" fill="#98984b"/>
    <path id="Tracé_1665" data-name="Tracé 1665" d="M286.824,28.767h27.4a1.8,1.8,0,0,0,1.786-1.786,1.763,1.763,0,0,0-1.786-1.786h-27.4a1.8,1.8,0,0,0-1.786,1.786,1.763,1.763,0,0,0,1.786,1.786Z" transform="translate(-54.012 194.411)" fill="#98984b"/>
    <path id="Tracé_1666" data-name="Tracé 1666" d="M286.824,104.928h22.659a1.786,1.786,0,1,0,0-3.572H286.824a1.8,1.8,0,0,0-1.786,1.786,1.763,1.763,0,0,0,1.786,1.786Z" transform="translate(-54.012 125.84)" fill="#98984b"/>
    <path id="Tracé_1667" data-name="Tracé 1667" d="M314.226,224h-27.4a1.786,1.786,0,0,0,0,3.572h27.4a1.8,1.8,0,0,0,1.786-1.786A1.764,1.764,0,0,0,314.226,224Z" transform="translate(-54.012 15.419)" fill="#98984b"/>
    <path id="Tracé_1668" data-name="Tracé 1668" d="M286.824,303.728h22.659a1.786,1.786,0,1,0,0-3.572H286.824a1.8,1.8,0,0,0-1.786,1.786,1.763,1.763,0,0,0,1.786,1.786Z" transform="translate(-54.012 -53.147)" fill="#98984b"/>
    <path id="Tracé_1669" data-name="Tracé 1669" d="M314.226,422.8h-27.4a1.786,1.786,0,0,0,0,3.572h27.4a1.8,1.8,0,0,0,1.786-1.786A1.764,1.764,0,0,0,314.226,422.8Z" transform="translate(-54.012 -163.569)" fill="#98984b"/>
    <path id="Tracé_1670" data-name="Tracé 1670" d="M309.483,498.96H286.824a1.786,1.786,0,0,0,0,3.572h22.659a1.8,1.8,0,0,0,1.786-1.786A1.764,1.764,0,0,0,309.483,498.96Z" transform="translate(-54.012 -232.139)" fill="#98984b"/>
  </g>
</svg>
