<svg xmlns="http://www.w3.org/2000/svg" width="49" height="49.029" viewBox="0 0 49 49.029">
  <g id="Groupe_2341" data-name="Groupe 2341" transform="translate(-213 -870.485)">
    <path id="Tracé_1526" data-name="Tracé 1526" d="M133.582,496.048a.617.617,0,0,0-.506-.264H95.9a.618.618,0,0,0-.473.22l-3.715,4.409a.619.619,0,0,0,.473,1.018h43.986a.619.619,0,0,0,.507-.975Zm-1.176.516.353.609H131.3l-.3-.609Zm-15.741,0h1.5l.026.609h-1.547Zm-.059,1.611h1.627l.027.608h-1.676Zm-2.794-1.611h1.5l-.039.609h-1.545Zm-.232,1.611H115.2l-.04.608h-1.671Zm-2.619-1.611h1.486l-.1.609h-1.534Zm-.405,1.611h1.614l-.1.608H110.4Zm-2.443-1.611h1.468l-.17.609h-1.517Zm-.578,1.611h1.6l-.17.608h-1.645Zm-2.267-1.611h1.445l-.235.609h-1.494Zm-.751,1.611h1.573l-.235.608h-1.622Zm-2.092-1.611h1.417l-.3.609h-1.465Zm-2.84,0h1.383l-.366.609H99.169Zm-2.839,0H98.09l-.431.609H96.266Zm-1.332,3.778H93.767l.479-.608h1.6Zm1.105-1.559H95l.479-.608h1.474Zm2.177,1.559H97.011l.414-.608H99.06Zm.938-1.559h-1.56l.414-.608H100Zm2.342,1.559h-1.717l.348-.608h1.669Zm.77-1.559h-1.593l.348-.608h1.545Zm.76,1.559.283-.608H118.3l.026.608Zm16.019-3.778h1.5l.091.609h-1.544Zm.114,1.611h3.034l-.285-1.611h1.484l.583,2.219H119.68Zm.152,2.167-.043-.608h1.748l.091.608Zm3.268,0-.108-.608h1.737l.156.608Zm2.194-3.778h1.468l.222.609h-1.517Zm.459,1.611h1.6l.221.608h-1.643Zm.618,2.167-.173-.608h1.72l.221.608Zm1.791-3.778h1.443l.287.609h-1.492Zm.632,1.611h1.572l.287.608h-1.621Zm.851,2.167-.238-.608h1.7l.286.608Zm2.194-2.167h1.543l.353.608H132.1Zm1.084,2.167-.3-.608h1.666l.352.608Z" transform="translate(123.322 418.082)" fill="#98984b"/>
    <path id="Tracé_1527" data-name="Tracé 1527" d="M254.592,415.031c-.6.6.34.937.34.937h15.49s.936-.34.34-.937-2.214-1.022-2.383-3.575c-.013-.2-.005-1,0-2.043h-11.4c0,1.042.011,1.842,0,2.043-.17,2.553-1.788,2.979-2.383,3.575Z" transform="translate(-25.259 496.896)" fill="#98984b"/>
    <path id="Tracé_1528" data-name="Tracé 1528" d="M117.042,0H71.962A1.965,1.965,0,0,0,70,1.96V33.281a1.965,1.965,0,0,0,1.96,1.96h45.08a1.965,1.965,0,0,0,1.96-1.96V1.96A1.965,1.965,0,0,0,117.042,0ZM94.8,33.952a1.489,1.489,0,1,1,1.49-1.489A1.489,1.489,0,0,1,94.8,33.952Zm21.577-6.383H72.716V2.714h43.665Z" transform="translate(142.998 870.485)" fill="#98984b"/>
  </g>
</svg>
