<svg xmlns="http://www.w3.org/2000/svg" width="111.968" height="105.61" viewBox="0 0 111.968 105.61">
  <g id="noun-code-1953078" transform="translate(-19.812)">
    <path id="Tracé_1673" data-name="Tracé 1673" d="M236.045,70.527H131.781a3.857,3.857,0,0,0-3.852,3.852v71a3.857,3.857,0,0,0,3.852,3.852H169v16.2c-.008.264-.244,6.47-5.69,6.47a2.117,2.117,0,1,0,0,4.234h41.2a2.117,2.117,0,0,0,0-4.234c-5.3,0-5.666-5.816-5.69-6.411V149.232h37.222a3.857,3.857,0,0,0,3.852-3.852v-71a3.857,3.857,0,0,0-3.852-3.852ZM171.3,171.9a13.094,13.094,0,0,0,1.942-6.411V149.234h21.349v16.319a12.974,12.974,0,0,0,1.936,6.352ZM235.662,145h-103.5V134.5h103.5Zm0-14.734h-103.5v-55.5h103.5Z" transform="translate(-108.117 -70.525)" fill="49A496"/>
  </g>
</svg>
