<svg xmlns="http://www.w3.org/2000/svg" width="82.696" height="74.067" viewBox="0 0 82.696 74.067">
  <g id="noun-marketing-4929997" transform="translate(-14.338)">
    <path id="Tracé_1716" data-name="Tracé 1716" d="M178.978,98.466a5.608,5.608,0,0,0,1.747-4.217,12.589,12.589,0,0,0-6.087-10.543,5.608,5.608,0,0,0-4.525-.595l-7.7-13.333A5.735,5.735,0,0,0,151.9,71.165a5.784,5.784,0,0,0-.189,1.324L135.7,93.527c-3.285,4.217-5.178,6.452-7.126,8.126a1.348,1.348,0,0,0-.288.243,44.887,44.887,0,0,1-6.958,4.384c-1.268.71-2.727,1.526-4.446,2.519a9.186,9.186,0,0,0-3.649,12.444l4.281,7.416a8.877,8.877,0,0,0,7.762,4.367,9.685,9.685,0,0,0,4.849-1.31c1.152-.678,2.164-1.288,3.088-1.847l8.857,9.585a4.949,4.949,0,0,0,3.607,1.524,4.557,4.557,0,0,0,2.278-.587l3.094-1.787a3.488,3.488,0,0,0,1.753-2.483,3.6,3.6,0,0,0-.978-2.978l-7.95-8.6a75.827,75.827,0,0,1,8.861-1.478l26.242-3.349a5.742,5.742,0,0,0,2.743.7,5.745,5.745,0,0,0,4.954-8.61Zm-5.61-12.413a9.955,9.955,0,0,1,4.69,8.124,3.717,3.717,0,0,1-.481,1.865l-6.066-10.507a3.681,3.681,0,0,1,1.857.517Zm-44.584,43.357a6.52,6.52,0,0,1-8.957-2.086l-4.281-7.416a6.516,6.516,0,0,1,2.673-8.8c1.707-.986,3.156-1.8,4.415-2.5A59.421,59.421,0,0,0,128.9,104.8l10.629,18.41a56.045,56.045,0,0,0-6.246,3.5l-.509.31-.009,0c-1.148.7-2.446,1.486-3.978,2.389Zm21.083,5.542a.956.956,0,0,1,.3.768.847.847,0,0,1-.45.574l-3.094,1.787a2.3,2.3,0,0,1-2.593-.437l-8.491-9.19a39.891,39.891,0,0,1,5.58-3.013Zm2.532-14.538a65.584,65.584,0,0,0-10.336,1.855l-11.084-19.2a67.4,67.4,0,0,0,6.836-7.917L152.6,75.733l24.012,41.591Zm32.269-4.953a3.072,3.072,0,0,1-5.624.743l-24.26-42.019a3.07,3.07,0,0,1,2.648-4.608,3.147,3.147,0,0,1,.809.107,3.051,3.051,0,0,1,1.867,1.427l24.26,42.019a3.062,3.062,0,0,1,.3,2.331Zm-2.554-30.583,7.132-4.118a1.333,1.333,0,1,1,1.334,2.309l-7.132,4.118a1.333,1.333,0,0,1-1.334-2.309Zm-5.153-5.243,4.887-6.63a1.334,1.334,0,1,1,2.147,1.583l-4.887,6.629a1.334,1.334,0,1,1-2.147-1.583ZM193.6,93.356l-8.184.918a1.252,1.252,0,0,1-.15.009,1.333,1.333,0,0,1-.147-2.659l8.184-.918a1.333,1.333,0,1,1,.3,2.65Z" transform="translate(-97.747 -66.91)" fill="#49A496"/>
  </g>
</svg>
