<svg id="icone" xmlns="http://www.w3.org/2000/svg" width="120.422" height="133.615" viewBox="0 0 120.422 133.615">
  <path id="Tracé_1570" data-name="Tracé 1570" d="M239.1,309.952l4.075-25.472L215.67,273.273l-4.075,38.717Z" transform="translate(-164.5 -222.645)" fill="#a0616a"/>
  <path id="Tracé_1571" data-name="Tracé 1571" d="M199.182,402.966q-3.543,1.727-7.211,3.113a85.353,85.353,0,0,1-15.1,4.175,87.12,87.12,0,0,1-36.17-1.13c-2.641-.648-5.3-1.439-7.922-2.362l-.828-.3a85.218,85.218,0,0,1-9.515-4.12c-.414-.207-.828-.419-1.242-.644-.459-.234-.913-.481-1.372-.738-.585-.319-1.165-.652-1.746-.99-1.943-1.125-3.855-2.339-5.682-3.6l-.121-.081c-.108-.076-.216-.148-.319-.225.067-.355.13-.68.189-.967.225-1.129.373-1.75.373-1.75L124.831,367.9l3.433-7.09,1.674-.688,12.642-5.2h30.9l9.749,4.031s.05.185.148.54a321.976,321.976,0,0,0,15.435,42.648c.121.27.247.544.373.819Z" transform="translate(-96.931 -278.016)" fill="#007263"/>
  <circle id="Ellipse_315" data-name="Ellipse 315" cx="28.053" cy="28.053" r="28.053" transform="translate(39.599 13.918)" fill="#a0616a"/>
  <path id="Tracé_1572" data-name="Tracé 1572" d="M98.345,370.32l-.048.241-8.553,40.665-.074.354-.119.56c-.46-.235-.914-.483-1.371-.737-.586-.322-1.165-.653-1.748-.991-1.941-1.123-3.853-2.34-5.681-3.6l-.122-.084c-.106-.074-.216-.148-.319-.222q-2.1-1.463-4.088-3.042a.158.158,0,0,1-.026-.023,86.076,86.076,0,0,1-6.843-6.155q-2.115-2.115-4.062-4.352l.2-.824.019-.084.245-1.049a23.963,23.963,0,0,1,18.811-18.019L96.884,370.6Z" transform="translate(-65.29 -288.453)" fill="#007263"/>
  <path id="Tracé_1573" data-name="Tracé 1573" d="M365.18,400.2a86.222,86.222,0,0,1-11.629,8.346c-.4.243-.81.481-1.219.72q-2.618,1.512-5.322,2.825-3.543,1.727-7.211,3.113l-.189-.891-9.659-45.928,1.251.239,12.534,2.4a23.961,23.961,0,0,1,18.809,18.022l2.4,10.154.238,1Z" transform="translate(-244.758 -287.143)" fill="#007263"/>
  <path id="Tracé_1574" data-name="Tracé 1574" d="M213.2,165.46c-.729,2.717-4.4,14.86-13.784,17.415-1.844.5-6.244,1.084-5.079,0,.265-.247.522-.49.778-.729,10.19-9.582,14.347-15.439,12.448-28.441-1.206-8.278-14.936-15.8-22.66-16.542a12.912,12.912,0,0,0-10.158,3.626c-4.53,4.678-3.784,19.039-6.294,27.474a10.823,10.823,0,0,1-2.879,5.2c-.81.693-1.327-.189-1.71-1.633-.814-3.068-1.026-8.687-2.182-7.1-3.343,4.6-.158,10.7.805,13.056.2.482.4.945.6,1.386v0c.117.252.238.5.355.742v0c3.212,6.55,7.072,8.894,10.473,12.974a25.347,25.347,0,0,1,3.73,5.939,26.485,26.485,0,0,1,1.714,5.088c1.948,8.413-.364,16.056-.99,18.135-1.309,4.328-3.559,11.764-10.158,15.961-8.287,5.273-15.849.626-19.466,5.633-.045.058-.086.117-.126.175a6.172,6.172,0,0,0-.36.607,85.214,85.214,0,0,1-9.515-4.121c-.414-.207-.828-.419-1.242-.644-.459-.234-.913-.481-1.372-.738-.018-.351-.036-.7-.05-1.057a73.855,73.855,0,0,1,1.651-19.448,105.435,105.435,0,0,1,3.41-12.556,41.02,41.02,0,0,1,3.693-7.742,35.1,35.1,0,0,1,4.508-5.826c3.932-4.107,7.428-5.821,7.981-10.158.792-6.19-5.655-8.053-7.981-17.415-1.588-6.4-3.248-15.628-1.637-21.846,1.521-5.875,2.843-10.972,7.257-15.966,1.062-1.2,9.776-9.519,19.871-10.887,4.652-.625,8.8,5.331,14.423,6.613,6.465,1.471,10.167,2.313,13.784,5.079,6.114,4.67,7.837,11.652,9.434,18.139,1.251,5.075,2.87,11.638.724,19.592Z" transform="translate(-113.242 -115.99)" fill="#2f2e41"/>
</svg>
