<svg xmlns="http://www.w3.org/2000/svg" xmlns:xlink="http://www.w3.org/1999/xlink" width="44.353" height="45.659" viewBox="0 0 44.353 45.659">
  <defs>
    <clipPath id="clip-path">
      <path id="Icon" d="M14.5,41.066V39.931h9.131v1.136a4.565,4.565,0,1,1-9.131,0ZM36.513,37.6c-.016,0-.028.01-.043.01H1.8l-.012,0-.007,0c-.02,0-.036-.01-.054-.01a1.283,1.283,0,0,1-.329-.066A1.767,1.767,0,0,1,0,35.82a1.741,1.741,0,0,1,.256-.871c.368-.845,1.629-1.537,3.113-3.292,2.13-2.515,3.312-6.693,3.312-10.272,0,0,0-4.481.026-5.972A12.224,12.224,0,0,1,15.354,3.8h.071a10.38,10.38,0,0,1,1.057-.3V2.722a2.7,2.7,0,1,1,5.409,0v.8c.324.082.636.174.94.279h.089a12.224,12.224,0,0,1,8.646,11.61c.031,1.491.025,5.972.025,5.972,0,3.578,1.185,7.757,3.312,10.272,1.2,1.419,2.25,2.14,2.807,2.812a1.777,1.777,0,0,1-1.142,3.144C36.548,37.613,36.533,37.6,36.513,37.6Z" transform="translate(0 0)" fill="#999"/>
    </clipPath>
  </defs>
  <g id="Groupe_108" data-name="Groupe 108" transform="translate(-3.5 -1.5)">
    <path id="Icon-2" data-name="Icon" d="M16.766,41.066V39.931H27.325v1.136c0,2.536-2.365,4.593-5.281,4.593S16.766,43.6,16.766,41.066ZM42.226,37.6c-.019,0-.032.01-.049.01H2.085l-.013,0-.008,0c-.023,0-.042-.01-.063-.01a1.688,1.688,0,0,1-.38-.066A1.853,1.853,0,0,1,0,35.82a1.574,1.574,0,0,1,.3-.871c.426-.845,1.884-1.537,3.6-3.292a15.449,15.449,0,0,0,3.83-10.272s-.006-4.481.03-5.972c.129-5.529,4.2-10.092,10-11.61h.082c.392-.118.8-.219,1.222-.3V2.722A2.946,2.946,0,0,1,22.189,0a2.946,2.946,0,0,1,3.127,2.722v.8c.374.082.736.174,1.087.279h.1c5.8,1.517,9.867,6.08,10,11.61.036,1.491.029,5.972.029,5.972a15.469,15.469,0,0,0,3.83,10.272c1.391,1.419,2.6,2.14,3.247,2.812a1.694,1.694,0,0,1,.743,1.351,1.944,1.944,0,0,1-2.064,1.793C42.265,37.613,42.248,37.6,42.226,37.6Z" transform="translate(3.5 1.5)" fill="#999"/>
  </g>
</svg>
