<svg xmlns="http://www.w3.org/2000/svg" width="67" height="53.117" viewBox="0 0 67 53.117">
  <g id="Groupe_1349" data-name="Groupe 1349" transform="translate(-414.236 -1891.874)">
    <g id="Groupe_1153" data-name="Groupe 1153" transform="translate(437.518 1917.55)">
      <g id="Ellipse_17" data-name="Ellipse 17" transform="translate(2.346 0)" fill="none" stroke="#989751" stroke-width="3">
        <ellipse cx="7.833" cy="7.92" rx="7.833" ry="7.92" stroke="none"/>
        <ellipse cx="7.833" cy="7.92" rx="6.333" ry="6.42" fill="none"/>
      </g>
      <g id="Groupe_1152" data-name="Groupe 1152" transform="translate(0 14.519)">
        <path id="Tracé_1629" data-name="Tracé 1629" d="M-3986.781-655.2s1.635-8.21,2.078-9.045,5.519-2.112,5.519-2.112" transform="translate(3986.781 666.36)" fill="none" stroke="#989751" stroke-linecap="round" stroke-width="3"/>
        <path id="Tracé_1670" data-name="Tracé 1670" d="M-3979.184-655.2s-1.634-8.21-2.078-9.045-5.52-2.112-5.52-2.112" transform="translate(3999.62 666.36)" fill="none" stroke="#989751" stroke-linecap="round" stroke-width="3"/>
      </g>
    </g>
    <g id="Groupe_1164" data-name="Groupe 1164" transform="translate(459.037 1906.225)">
      <g id="Ellipse_17-2" data-name="Ellipse 17" transform="translate(2.346 0)" fill="none" stroke="#989751" stroke-width="3">
        <ellipse cx="7.833" cy="7.92" rx="7.833" ry="7.92" stroke="none"/>
        <ellipse cx="7.833" cy="7.92" rx="6.333" ry="6.42" fill="none"/>
      </g>
      <g id="Groupe_1152-2" data-name="Groupe 1152" transform="translate(0 14.519)">
        <path id="Tracé_1629-2" data-name="Tracé 1629" d="M-3986.781-655.2s1.635-8.21,2.078-9.045,5.519-2.112,5.519-2.112" transform="translate(3986.781 666.36)" fill="none" stroke="#989751" stroke-linecap="round" stroke-width="3"/>
        <path id="Tracé_1670-2" data-name="Tracé 1670" d="M-3979.184-655.2s-1.634-8.21-2.078-9.045-5.52-2.112-5.52-2.112" transform="translate(3999.62 666.36)" fill="none" stroke="#989751" stroke-linecap="round" stroke-width="3"/>
      </g>
    </g>
    <g id="Groupe_1165" data-name="Groupe 1165" transform="translate(416 1906.225)">
      <g id="Ellipse_17-3" data-name="Ellipse 17" transform="translate(2.346 0)" fill="none" stroke="#989751" stroke-width="3">
        <ellipse cx="7.833" cy="7.92" rx="7.833" ry="7.92" stroke="none"/>
        <ellipse cx="7.833" cy="7.92" rx="6.333" ry="6.42" fill="none"/>
      </g>
      <g id="Groupe_1152-3" data-name="Groupe 1152" transform="translate(0 14.519)">
        <path id="Tracé_1629-3" data-name="Tracé 1629" d="M-3986.781-655.2s1.635-8.21,2.078-9.045,5.519-2.112,5.519-2.112" transform="translate(3986.781 666.36)" fill="none" stroke="#989751" stroke-linecap="round" stroke-width="3"/>
        <path id="Tracé_1670-3" data-name="Tracé 1670" d="M-3979.184-655.2s-1.634-8.21-2.078-9.045-5.52-2.112-5.52-2.112" transform="translate(3999.62 666.36)" fill="none" stroke="#989751" stroke-linecap="round" stroke-width="3"/>
      </g>
    </g>
    <g id="Groupe_1166" data-name="Groupe 1166" transform="translate(437.518 1891.874)">
      <g id="Ellipse_17-4" data-name="Ellipse 17" transform="translate(2.346 0)" fill="none" stroke="#989751" stroke-width="3">
        <ellipse cx="7.833" cy="7.92" rx="7.833" ry="7.92" stroke="none"/>
        <ellipse cx="7.833" cy="7.92" rx="6.333" ry="6.42" fill="none"/>
      </g>
      <g id="Groupe_1152-4" data-name="Groupe 1152" transform="translate(0 14.519)">
        <path id="Tracé_1629-4" data-name="Tracé 1629" d="M-3986.781-655.2s1.635-8.21,2.078-9.045,5.519-2.112,5.519-2.112" transform="translate(3986.781 666.36)" fill="none" stroke="#989751" stroke-linecap="round" stroke-width="3"/>
        <path id="Tracé_1670-4" data-name="Tracé 1670" d="M-3979.184-655.2s-1.634-8.21-2.078-9.045-5.52-2.112-5.52-2.112" transform="translate(3999.62 666.36)" fill="none" stroke="#989751" stroke-linecap="round" stroke-width="3"/>
      </g>
    </g>
  </g>
</svg>
