<svg xmlns="http://www.w3.org/2000/svg" width="434.101" height="282.537" viewBox="0 0 434.101 282.537">
  <g id="Groupe_2259" data-name="Groupe 2259" transform="translate(0 -23.384)">
    <circle id="Ellipse_340" data-name="Ellipse 340" cx="23.641" cy="23.641" r="23.641" transform="translate(198.063 257.991)" fill="#f6f6f6"/>
    <path id="Tracé_1736" data-name="Tracé 1736" d="M600.7,479.108c13.226-3.972,27.286-8.114,37.775-17.556,9.373-8.438,15.7-21.322,11.817-33.976-3.875-12.628-15.481-21.049-27.465-25.236a112.679,112.679,0,0,0-21.015-4.728c-7.727-1.125-15.488-2.047-23.245-2.935q-47.115-5.389-94.585-6.584c-15.615-.393-31.228-.384-46.846-.157-13.948.2-28.637.2-41.576-5.731-10.062-4.61-19.194-13-22-24.018-3.236-12.722,2.733-25.678,11.3-34.892a91.463,91.463,0,0,1,15.231-12.7c5.9-4.078,12.013-7.866,18.255-11.4a254.2,254.2,0,0,1,38.425-17.714c6.55-2.382,13.2-4.437,19.9-6.332a170.306,170.306,0,0,0,16.814-5.385c10.578-4.216,20.64-11.358,23.33-23.066,2.549-11.1-1.749-23.142-9.284-31.386-8.718-9.537-21.862-13.718-34.464-14.394-14.148-.759-27.969,2.781-41.267,7.275-14.183,4.793-28.06,10.3-42.542,14.186a286.237,286.237,0,0,1-43.784,8.139c-7.237.771-14.693,1.641-21.974,1.051-6.1-.494-12.172-2.289-16.669-6.619-3.856-3.713-6.153-8.816-5.363-14.2.143-.978,1.629-.562,1.487.41-.961,6.555,3.495,12.6,8.986,15.69,6.346,3.576,14.068,3.581,21.134,3.172a276.412,276.412,0,0,0,45.49-6.576c14.694-3.356,28.864-8.154,43.018-13.279,13.442-4.868,27.185-9.619,41.546-10.673,12.461-.915,25.569.9,36.424,7.412a40.294,40.294,0,0,1,18.792,26.22c2.184,10.7-.841,21.474-8.942,28.943-8.388,7.733-19.889,11.039-30.608,14.083a280.424,280.424,0,0,0-39.774,14.237,249.681,249.681,0,0,0-37.414,21.034c-11.433,7.813-22.716,17.643-26.332,31.581a29.094,29.094,0,0,0,1.445,19.511,35.655,35.655,0,0,0,11.441,13.577c11.471,8.441,25.929,10.174,39.785,10.346,15.562.194,31.125-.332,46.693-.076q47.589.781,94.983,5.793,11.876,1.257,23.722,2.779a214.511,214.511,0,0,1,21.214,3.441c12.418,2.882,24.5,8.424,32.219,18.953a29.971,29.971,0,0,1,2.553,32.771c-5.927,11.661-17.028,19.078-28.818,23.951a204.461,204.461,0,0,1-19.4,6.551.772.772,0,0,1-.41-1.487Z" transform="translate(-237.767 -175.164)" fill="#f2f2f2"/>
    <path id="Tracé_1793" data-name="Tracé 1793" d="M12.334,0A12.334,12.334,0,1,1,0,12.334,12.334,12.334,0,0,1,12.334,0Z" transform="translate(52.365 23.384)" fill="#f2f2f2"/>
    <circle id="Ellipse_344" data-name="Ellipse 344" cx="12.334" cy="12.334" r="12.334" transform="translate(255.623 52.42)" fill="#f2f2f2"/>
    <circle id="Ellipse_345" data-name="Ellipse 345" cx="12.334" cy="12.334" r="12.334" transform="translate(194.466 113.064)" fill="#f2f2f2"/>
    <circle id="Ellipse_346" data-name="Ellipse 346" cx="12.334" cy="12.334" r="12.334" transform="translate(116.863 142.358)" fill="#f2f2f2"/>
    <circle id="Ellipse_347" data-name="Ellipse 347" cx="12.334" cy="12.334" r="12.334" transform="translate(199.091 188.097)" fill="#f2f2f2"/>
    <circle id="Ellipse_348" data-name="Ellipse 348" cx="12.334" cy="12.334" r="12.334" transform="translate(287.487 213.793)" fill="#f2f2f2"/>
    <path id="Tracé_1737" data-name="Tracé 1737" d="M540.067,220.371a68.412,68.412,0,0,0-67.724,67.23c0,.341-.007,2.739-.007,5.876a17.344,17.344,0,0,0,17.341,17.343h0a17.354,17.354,0,0,0,17.351-17.366c0-2.138,0-3.615,0-3.705a32.891,32.891,0,1,1,50.632,27.69l.006.007s-24.683,15.89-32.208,37.689l.006,0a48.314,48.314,0,0,0-1.991,13.757c0,1.915.113,18.667.33,32.263a17.878,17.878,0,0,0,17.88,17.588h0a17.883,17.883,0,0,0,17.881-17.993c-.076-12.452-.117-26.951-.117-28,0-13.385,12.913-26.721,23.519-35.418A71.334,71.334,0,0,0,607.5,298.272a44.589,44.589,0,0,0,1.284-9.679,68.224,68.224,0,0,0-68.717-68.222Z" transform="translate(-320.896 -185.422)" fill="#f6f6f6"/>
    <path id="Tracé_1738" data-name="Tracé 1738" d="M611.151,746.473H178.274a.612.612,0,1,1,0-1.224H611.151a.612.612,0,0,1,0,1.224Z" transform="translate(-177.662 -440.553)" fill="#3f3d56"/>
    <circle id="Ellipse_350" data-name="Ellipse 350" cx="15.418" cy="15.418" r="15.418" transform="translate(307.559 109.464)" fill="#2f2e41"/>
    <path id="Tracé_1739" data-name="Tracé 1739" d="M564.218,559.143h-6.3l-3-24.3h9.3Z" transform="translate(-269.732 -259.972)" fill="#a0616a"/>
    <path id="Tracé_1740" data-name="Tracé 1740" d="M544.759,578.626h12.151v7.651h-19.8A7.651,7.651,0,0,1,544.759,578.626Z" transform="translate(-261.074 -281.255)" fill="#2f2e41"/>
    <path id="Tracé_1741" data-name="Tracé 1741" d="M659.218,559.143h-6.3l-3-24.3h9.3Z" transform="translate(-315.909 -259.972)" fill="#a0616a"/>
    <path id="Tracé_1742" data-name="Tracé 1742" d="M639.759,578.626h12.151v7.651h-19.8A7.651,7.651,0,0,1,639.759,578.626Z" transform="translate(-307.251 -281.255)" fill="#2f2e41"/>
    <circle id="Ellipse_351" data-name="Ellipse 351" cx="12.623" cy="12.623" r="12.623" transform="translate(308.011 115.145)" fill="#a0616a"/>
    <path id="Tracé_1743" data-name="Tracé 1743" d="M773.506,470.706l5.648-12.977a16.128,16.128,0,0,0-3.572-18.3A16.375,16.375,0,0,0,774,438.061a15.9,15.9,0,0,0-9.759-3.377,16.538,16.538,0,0,0-6.886,1.532c-.185.082-.365.17-.55.257-.355.17-.7.355-1.043.545a16.28,16.28,0,0,0-8.069,12.273L745.2,470.177c-.627,1.639-22.993,60.844-15.171,106.043A2.3,2.3,0,0,0,732,578.106l7.93,1.079a2.311,2.311,0,0,0,2.575-1.814l13.306-63.424a1.8,1.8,0,0,1,3.495-.118l18.8,66.7a2.3,2.3,0,0,0,2.215,1.686,2.633,2.633,0,0,0,.447-.041l9.687-1.866a2.3,2.3,0,0,0,1.866-2.472C790.893,561.959,783.328,482.439,773.506,470.706Z" transform="translate(-445.35 -289.595)" fill="#2f2e41"/>
    <path id="Tracé_1744" data-name="Tracé 1744" d="M706.069,417.043a5.168,5.168,0,0,0,5.445,5.758l7.056,16.956,5.337-7.912-7.518-14.888a5.2,5.2,0,0,0-10.319.087Z" transform="translate(-434.49 -278.771)" fill="#a0616a"/>
    <path id="Tracé_1745" data-name="Tracé 1745" d="M794.66,518.327a5.168,5.168,0,0,0,4.331-6.636l14.845-10.812-8.937-3.347-12.727,10.781a5.2,5.2,0,0,0,2.489,10.015Z" transform="translate(-474.727 -320.144)" fill="#a0616a"/>
    <path id="Tracé_1746" data-name="Tracé 1746" d="M735.846,463.686a8.768,8.768,0,0,1-1.7-.167,8.38,8.38,0,0,1-6.14-4.942l-9.885-12.053a2.313,2.313,0,0,1,.571-3.433l7.033-4.353a2.313,2.313,0,0,1,3.194.766l6.967,11.478,13.342-9.86a5,5,0,0,1,5.813,8l-13.317,12.147A8.353,8.353,0,0,1,735.846,463.686Z" transform="translate(-440.112 -291.397)" fill="#2f2e41"/>
    <path id="Tracé_1747" data-name="Tracé 1747" d="M815.151,485.378H815.1a2.316,2.316,0,0,1-1.7-.807l-6.253-7.294a2.313,2.313,0,0,1,.473-3.429l11.708-7.805-10.607-12.752a5,5,0,0,1,7.651-6.261l12.891,12.6a8.493,8.493,0,0,1-1.889,13.845l-10.536,11.18A2.316,2.316,0,0,1,815.151,485.378Z" transform="translate(-483.365 -294.961)" fill="#2f2e41"/>
    <path id="Tracé_1748" data-name="Tracé 1748" d="M788.7,451.919a2.382,2.382,0,0,1-.3-.019,2.293,2.293,0,0,1-1.907-1.577l-4.7-14.4a1.584,1.584,0,0,1,.819-1.914l.152-.072c.138-.066.275-.131.415-.193a16.742,16.742,0,0,1,6.991-1.554,16.1,16.1,0,0,1,8.82,2.65,1.608,1.608,0,0,1,.463,2.207l-8.814,13.808A2.29,2.29,0,0,1,788.7,451.919Z" transform="translate(-471.279 -288.38)" fill="#e6e6e6"/>
    <circle id="Ellipse_352" data-name="Ellipse 352" cx="5.045" cy="5.045" r="5.045" transform="translate(330.087 107.909)" fill="#2f2e41"/>
    <path id="Tracé_1749" data-name="Tracé 1749" d="M783.473,361.365h0a13.362,13.362,0,0,0-13.362,13.362v5.653h6.953l3.326-5.653,1,5.653h21.1l-5.653-5.653a13.362,13.362,0,0,0-13.362-13.362Z" transform="translate(-465.636 -253.957)" fill="#2f2e41"/>
    <path id="Tracé_1750" data-name="Tracé 1750" d="M834.809,360.31a7.786,7.786,0,0,1,8.47-5.343c3.215.538,5.757,3.122,7.272,6.008s2.214,6.117,3.232,9.214,2.462,6.21,5.033,8.215,6.515,2.548,9.04.486a10.339,10.339,0,0,1-19.26,3.691c-1.332-2.37-1.676-5.148-2.071-7.838s-.908-5.473-2.5-7.678-4.568-3.645-7.094-2.641Z" transform="translate(-497.084 -250.812)" fill="#2f2e41"/>
    <path id="Tracé_1751" data-name="Tracé 1751" d="M494.346,329.326h0A17.343,17.343,0,0,1,477,311.986c0-3.139,0-5.537.007-5.878a67.585,67.585,0,0,1,7.893-30.789,67.736,67.736,0,0,0-13.033,39.011c0,.341-.007,2.739-.007,5.876a17.344,17.344,0,0,0,17.341,17.343h0a17.357,17.357,0,0,0,16.7-12.638A17.279,17.279,0,0,1,494.346,329.326Z" transform="translate(-320.666 -212.132)" fill="#3f3d56"/>
    <path id="Tracé_1752" data-name="Tracé 1752" d="M581.252,283.666a32.893,32.893,0,0,1,28.6,45.952,32.89,32.89,0,1,0-55.209-34.425A32.825,32.825,0,0,1,581.252,283.666Z" transform="translate(-360.905 -212.174)" fill="#3f3d56"/>
    <path id="Tracé_1753" data-name="Tracé 1753" d="M594.713,524.072h0a17.879,17.879,0,0,1-17.879-17.592c-.218-13.593-.33-30.345-.33-32.259a48.311,48.311,0,0,1,1.991-13.757l-.006,0a48.842,48.842,0,0,1,2.824-6.527,56.559,56.559,0,0,0-7.963,14.75h.006a48.315,48.315,0,0,0-1.991,13.757c0,1.915.113,18.667.33,32.263a17.878,17.878,0,0,0,17.879,17.588h0a17.885,17.885,0,0,0,17.165-12.87,17.812,17.812,0,0,1-12.026,4.647Z" transform="translate(-369.031 -298.953)" fill="#3f3d56"/>
    <path id="Tracé_1754" data-name="Tracé 1754" d="M126.54,559.6h6.3l3-24.3h-9.3Z" transform="translate(-61.507 -260.193)" fill="#ffb8b8"/>
    <path id="Tracé_1755" data-name="Tracé 1755" d="M0,0H19.8V7.651H7.651A7.651,7.651,0,0,1,0,0H0Z" transform="translate(83.483 305.256) rotate(179.997)" fill="#2f2e41"/>
    <path id="Tracé_1756" data-name="Tracé 1756" d="M82.54,559.6h6.3l3-24.3h-9.3Z" transform="translate(-40.12 -260.193)" fill="#ffb8b8"/>
    <path id="Tracé_1757" data-name="Tracé 1757" d="M0,0H19.8V7.651H7.651A7.651,7.651,0,0,1,0,0H0Z" transform="translate(60.87 305.256) rotate(179.997)" fill="#2f2e41"/>
    <path id="Tracé_1758" data-name="Tracé 1758" d="M262.943,640.664l-6.154-.324a2.4,2.4,0,0,1-2.271-2.553l7.356-81.44,33.873,9.141,3.263-.89-10.206,72.1a2.413,2.413,0,0,1-2.24,2.027l-6.634.309a2.4,2.4,0,0,1-2.534-2.465l1.2-43.271a.8.8,0,0,0-1.585-.185l-11.593,45.643a2.388,2.388,0,0,1-2.348,1.915C263.03,640.668,262.987,640.667,262.943,640.664Z" transform="translate(-215.018 -348.733)" fill="#2f2e41"/>
    <circle id="Ellipse_353" data-name="Ellipse 353" cx="12.623" cy="12.623" r="12.623" transform="translate(53.541 115.735)" fill="#ffb8b8"/>
    <path id="Tracé_1759" data-name="Tracé 1759" d="M265.491,455.372l1.388,29.945.5,10.894a2.386,2.386,0,0,0,1.58,2.146l32.55,11.791a2.3,2.3,0,0,0,.822.144,2.386,2.386,0,0,0,2.4-2.461l-1.335-53.843a18.979,18.979,0,0,0-15.8-18.335c-.315-.048-.635-.1-.956-.139a18.63,18.63,0,0,0-14.989,4.852A19.137,19.137,0,0,0,265.491,455.372Z" transform="translate(-220.343 -289.93)" fill="#ccc"/>
    <path id="Tracé_1760" data-name="Tracé 1760" d="M352.8,547.4a5.172,5.172,0,0,1-2.759-7.825L339.008,524.9l9.525-.59,9.022,14.029a5.2,5.2,0,0,1-4.75,9.064Z" transform="translate(-256.088 -333.16)" fill="#ffb8b8"/>
    <path id="Tracé_1761" data-name="Tracé 1761" d="M333.316,501.748a2.387,2.387,0,0,1-1.306-1.294l-16.63-39.621a6.405,6.405,0,0,1,11.812-4.958l16.63,39.621a2.4,2.4,0,0,1-1.285,3.144l-7.383,3.1a2.385,2.385,0,0,1-1.839.009Z" transform="translate(-244.36 -297.986)" fill="#ccc"/>
    <path id="Tracé_1762" data-name="Tracé 1762" d="M298.239,515.934l15.972-30.583a2.507,2.507,0,0,1,3.379-1.06L340.775,496.4a2.507,2.507,0,0,1,1.06,3.379L325.863,530.36a2.507,2.507,0,0,1-3.379,1.06L299.3,519.313A2.507,2.507,0,0,1,298.239,515.934Z" transform="translate(-236.133 -313.569)" fill="#3f3d56"/>
    <path id="Tracé_1763" data-name="Tracé 1763" d="M297.309,507.173a5.172,5.172,0,0,0-7.975-2.292l-15.3-10.152L274,504.272l14.537,8.178a5.2,5.2,0,0,0,8.768-5.277Z" transform="translate(-224.492 -318.781)" fill="#ffb8b8"/>
    <path id="Tracé_1764" data-name="Tracé 1764" d="M264.184,484.682l-12.507-9.907a8.821,8.821,0,0,1-4.021-13.946l11.356-14.883a5.189,5.189,0,0,1,8.8,5.286l-8.985,14.7,13.2,6.263a2.4,2.4,0,0,1,1,3.453l-5.33,8.436a2.406,2.406,0,0,1-1.627,1.085l-.04.006A2.413,2.413,0,0,1,264.184,484.682Z" transform="translate(-210.716 -294.144)" fill="#ccc"/>
    <path id="Tracé_1765" data-name="Tracé 1765" d="M281.976,393.764a1.1,1.1,0,0,1,.954-1.449,2.534,2.534,0,0,1,1.786.881,7.107,7.107,0,0,0,1.578,1.355,1.358,1.358,0,0,0,1.787-.323,2.485,2.485,0,0,0-.1-1.929,18.964,18.964,0,0,1-.838-5.021,8.842,8.842,0,0,1,1.264-5.37,7.1,7.1,0,0,1,6.088-2.588,40.91,40.91,0,0,1,6.839,1.211,2.3,2.3,0,0,0,2.236-.375c.559-.648.354-1.7.116-2.572a17.859,17.859,0,0,0-2.706-6.451,9.712,9.712,0,0,0-6.2-3.49,14.871,14.871,0,0,0-6.919.786,18.551,18.551,0,0,0-9.088,6.331,15.025,15.025,0,0,0-2.867,11.1,13.7,13.7,0,0,0,5.081,8.662Z" transform="translate(-225.35 -256.954)" fill="#2f2e41"/>
    <path id="Tracé_1766" data-name="Tracé 1766" d="M581.448,700.4a23.637,23.637,0,0,1-8.773-36.74,23.639,23.639,0,1,0,32.156,34.158A23.625,23.625,0,0,1,581.448,700.4Z" transform="translate(-364.953 -400.894)" fill="#3f3d56"/>
  </g>
</svg>
