<svg xmlns="http://www.w3.org/2000/svg" width="214.069" height="190.842" viewBox="0 0 214.069 190.842">
  <g id="Groupe_1973" data-name="Groupe 1973" transform="translate(-413.815 -1365.363)">
    <g id="Ellipse_18" data-name="Ellipse 18" transform="translate(574.081 1459.816)" fill="none" stroke="#989751" stroke-width="4">
      <circle cx="19.578" cy="19.578" r="19.578" stroke="none"/>
      <circle cx="19.578" cy="19.578" r="17.578" fill="none"/>
    </g>
    <g id="Ellipse_17" data-name="Ellipse 17" transform="translate(426.78 1459.816)" fill="none" stroke="#989751" stroke-width="4">
      <ellipse cx="20.51" cy="19.578" rx="20.51" ry="19.578" stroke="none"/>
      <ellipse cx="20.51" cy="19.578" rx="18.51" ry="17.578" fill="none"/>
    </g>
    <path id="Tracé_1629" data-name="Tracé 1629" d="M-3986.781-606.7s4.279-43.9,5.441-48.366,14.452-11.3,14.452-11.3" transform="translate(4402.781 2160.718)" fill="none" stroke="#989751" stroke-linecap="round" stroke-width="4"/>
    <path id="Tracé_1630" data-name="Tracé 1630" d="M-3955.367-652.149s34.081-23.962,36.792-28.922,8.54-41.786,21.779-38.565-2.743,45.837-6.467,49.737-29.99,28.9-29.99,28.9v45.151" transform="translate(4410.574 2147.452)" fill="none" stroke="#989751" stroke-linecap="round" stroke-width="4"/>
    <path id="Tracé_1631" data-name="Tracé 1631" d="M-3918.16-729.125l-23.864-23.865" transform="translate(4413.884 2139.229)" fill="none" stroke="#989751" stroke-linecap="round" stroke-width="4"/>
    <g id="Ellipse_17-2" data-name="Ellipse 17" transform="translate(574.802 1459.861)" fill="none" stroke="#989751" stroke-width="4">
      <circle cx="19.969" cy="19.969" r="19.969" stroke="none"/>
      <circle cx="19.969" cy="19.969" r="17.969" fill="none"/>
    </g>
    <path id="Tracé_1629-2" data-name="Tracé 1629" d="M-3966.889-606.7s-4.279-43.9-5.442-48.366-14.451-11.3-14.451-11.3" transform="translate(4592.589 2160.718)" fill="none" stroke="#989751" stroke-linecap="round" stroke-width="4"/>
    <path id="Tracé_1630-2" data-name="Tracé 1630" d="M-3891.636-652.149s-34.08-23.962-36.792-28.922-8.54-41.786-21.779-38.565,2.744,45.837,6.467,49.737,29.99,28.9,29.99,28.9v45.151" transform="translate(4478.127 2147.452)" fill="none" stroke="#989751" stroke-linecap="round" stroke-width="4"/>
    <path id="Tracé_1631-2" data-name="Tracé 1631" d="M-3942.024-729.125l23.864-23.865" transform="translate(4487.999 2139.229)" fill="none" stroke="#989751" stroke-linecap="round" stroke-width="4"/>
    <path id="Tracé_1632" data-name="Tracé 1632" d="M23.865,23.865,0,0" transform="translate(518.939 1369.363) rotate(45)" fill="none" stroke="#989751" stroke-linecap="round" stroke-width="4"/>
  </g>
</svg>
